<?xml version="1.0" encoding="utf-8"?>
<!-- Generator: Adobe Illustrator 18.1.1, SVG Export Plug-In . SVG Version: 6.00 Build 0)  -->
<!DOCTYPE svg PUBLIC "-//W3C//DTD SVG 1.1//EN" "http://www.w3.org/Graphics/SVG/1.1/DTD/svg11.dtd">
<svg version="1.1" id="Layer_1" xmlns="http://www.w3.org/2000/svg" xmlns:xlink="http://www.w3.org/1999/xlink" x="0px" y="0px"
	 viewBox="0 0 792 612" enable-background="new 0 0 792 612" xml:space="preserve">
<g>
	<path fill="#635E49" d="M448.7,250.4c0-4.8-0.7-8.6-2.2-11.8c0-1.7,1.2-5.8,4.1-12c0.2-0.7,0.5-1.2,0.7-1.2c0.5,0,0.7,0.5,1.2,1.2
		c0.7,1.7,2.4,6.2,5.3,13.7c3.1,7.9,4.8,12.7,5.3,14.6c0.5,1.2,0.5,2.4,0.5,2.9c0,2.2-1.9,1-6.2-3.8c-0.5-0.7-0.7-0.2-0.7,1
		c0,0.5,1.2,15.4,3.4,45.1c2.2,29.5,3.1,46.1,3.1,49.9c0,11.3-1.7,21.4-5,30c-1,1.7-1.4,2.9-1.9,3.8l0,0c-0.7,1.2-1,1.2-1.2,0.5
		c-0.2-1,0-2.9,0.2-5.5c0.5-4.1,0.7-8.6,0.7-13.7c0-4.8-1.2-24-3.6-57.8C449.9,273.5,448.7,254.5,448.7,250.4L448.7,250.4
		L448.7,250.4L448.7,250.4z"/>
	<path fill="#635E49" d="M426.1,258.6c0-1.9-0.5-4.3-1.4-7c-1-2.6-1.4-4.1-1.4-4.3c0-0.5,0.5-2.4,1.4-5.8c1-3.4,1.4-5.3,1.7-5.8
		c0.5-1,0.7-1.2,1-1.2s0.7,0.2,1.2,1c1,2.2,3.1,6.2,6.2,12.7c3.4,7.2,5.5,12,6.2,14.2c0.5,1.7,0.7,2.6,0.7,3.4
		c0,1.9-2.2,0.7-6.2-4.1c-0.5-0.5-0.7,0-0.7,1.2c0,4.3,1.4,19.9,4.6,46.6c3.1,26.6,4.8,43.9,4.8,51.4c0,16.1-3.8,29.5-11.3,39.8
		c-6,8.4-12.7,14.2-20.2,17.5c-2.9,1.4-7.9,2.9-14.9,4.8c-7.2,1.9-12.5,2.9-15.8,3.4c-1.2,0-1.9,0-1.9-0.5c0-0.2,0.5-1,1.9-1.9
		c6.5-3.6,17-9.8,31.7-19c4.8-2.9,9.4-7,14.2-12.2c6.2-6.7,9.6-12.5,9.6-17c0-9.8-1.9-30.7-5.8-62.6
		C427.8,280.9,426.1,262.9,426.1,258.6L426.1,258.6L426.1,258.6L426.1,258.6z M335.9,268.7c-1.2-1.7-2.4-3.1-3.8-3.8
		c-0.7-0.5-1-1.2-1-2.4v-9.6c0-1.9,0.2-2.9,1-2.9c0.5,0,1.4,0.5,2.6,1.2l18.5,14.4c1.4,1,2.2,1.9,2.2,2.4c0,0.5-0.5,0.7-1.7,0.7
		c-1.4,0-4.1-0.5-7.7-1.4c2.2,3.8,21.6,24,58.3,60.7c17.3,17.3,25.9,32.4,25.9,45.1c0,1,0,2.2-0.2,3.4c-1,8.9-1.7,13.2-2.2,13.2
		c-0.5,0-1.2-3.6-2.2-11c-1.9-11.8-10.8-25.4-26.6-40.8c-25.4-24-43.4-42.7-54-55.9c-2.2-2.6-4.1-5.3-5.8-7.9
		C338.3,272.3,337.1,270.6,335.9,268.7L335.9,268.7L335.9,268.7L335.9,268.7z"/>
	<path fill="#635E49" d="M374.3,332c1.4-0.5,2.4-0.7,2.6-0.2c0.5,0.2,0.5,1.2-0.2,2.4l-5,8.9c-0.7,1-1.4,1.7-2.6,2.2
		c-22.8,10.1-47.5,20.9-73.9,32.4v-13.2c1-0.5,7.4-3.1,19.7-7.9c-6-3.1-10.8-7.4-14.9-12.5c-5-6.7-7.4-14.2-7.4-22.3
		c0-8.2,2.9-14.9,8.6-20.2c6.5-6,14.6-8.9,23.8-8.9c5.8,0,11.8,1,18,3.4c4.8,1.9,8.6,4.1,11.8,6.2c2.4,2.2,3.6,3.4,3.6,3.8
		c0,0-0.2,0-0.5,0c-0.5,0-1.7-0.2-3.1-0.7c-5-1.4-10.8-1.9-17.3-1.9c-8.9,0-17.5,1.2-25.9,3.6c-7.9,2.4-12.2,4.8-12.7,7.2
		c0.7,6.5,4.6,13,10.8,19.7c7.7,7.9,16.1,12,25,12c3.8,0,9.1-1.4,16.1-3.8C358.4,338.8,366.4,335.4,374.3,332L374.3,332L374.3,332
		L374.3,332z"/>
	<path fill="#635E49" d="M249.5,391.1c5-5.8,11.8-10.8,20.2-15.4c4.8-2.6,13.2-6.5,25.2-11.5v13.2c-7.7,3.4-13.2,5.8-16.8,7.4
		c-7.4,3.6-12.5,6.2-15.1,8.4c-5,3.8-12.5,11.3-22.1,22.3c-5.8,6.7-11.5,10.1-17.3,10.1c-4.8,0-9.1-2.2-12.7-6.7
		c-3.8-4.3-5.5-10.1-5.5-16.6c0-8.9,3.6-20.6,11-35.3c0.7-1.4,1.4-2.2,1.9-2.2c0,0,0.2,0.2,0.2,0.5c0,1.4-1.7,6.5-4.8,15.1
		c-3.4,8.9-5,15.6-5,20.6c0,3.8,1,7,2.9,9.1c1.9,2.6,4.6,3.8,7.9,3.8c6,0,12.2-3.1,18.2-9.1C241.8,400.4,245.6,395.6,249.5,391.1
		L249.5,391.1L249.5,391.1L249.5,391.1z"/>
	<g>
		<path fill="#635E49" d="M239.4,260.3c0-4.6-0.7-8.4-2.2-11.5c0-1.7,1.2-5.8,4.1-12.2c0.2-0.7,0.5-1,0.7-1c0.5,0,0.7,0.2,1.2,1.2
			c0.7,1.7,2.4,6.2,5.3,13.7c3.1,7.9,4.8,12.7,5.3,14.4c0.5,1.4,0.7,2.4,0.7,3.1c0,2.2-2.2,1-6.2-3.8c-0.5-0.7-0.7-0.5-0.7,1
			c0,0.2,1,13.7,3.1,40.1c2.2,26.6,3.4,41.5,3.4,45.4c0,11.3-1.9,21.4-5.3,30c-0.7,1.7-1.4,2.9-1.9,3.8l0,0c-0.7,1-1,1.2-1.2,0.5
			c-0.2-1-0.2-2.9,0.2-5.8c0.5-3.8,0.7-8.4,0.7-13.4c0-4.8-1.2-22.3-3.6-53C240.6,281.9,239.4,264.4,239.4,260.3L239.4,260.3
			L239.4,260.3L239.4,260.3z"/>
	</g>
	<path fill="#635E49" d="M220.4,323.9c-3.6-5.3-7.4-7.9-11.8-7.9c-3.4,0-4.8,1.2-4.8,3.1c0,2.4,1.9,3.6,5.8,4.1
		C212,323.4,215.6,323.6,220.4,323.9L220.4,323.9L220.4,323.9L220.4,323.9z M144.1,373.1c15.6,0,33.6-3.6,53.5-10.6
		c15.1-5.3,26.4-10.3,33.8-15.1c0-3.1-1.7-5.5-5-7.4c-2.9-1.7-6.2-2.6-10.3-2.6h-9.8c-3.6,0-6.5-1.2-8.4-3.6
		c-2.2-2.2-3.4-5.3-3.4-8.9c0-5,1.9-10.1,5.3-15.1c3.6-5,7.2-7.7,10.8-7.7c6,0,11.8,3.4,16.8,10.1c5.8,7.4,8.6,16.3,8.6,26.4
		c0,5.5-0.5,9.6-1.4,11.8c-1,2.9-3.4,6-7.2,9.8c-4.6,4.6-16.1,10.1-34.3,16.6c-21.1,7.4-39.4,11-55,11c-15.4,0-26.2-4.1-33.1-12
		c-4.8-5.8-7-13-7-21.6c0-9.1,2.2-17.5,6.5-25.4c1.4-2.4,2.4-3.8,2.9-3.8c0,0.2,0.2,0.2,0.2,0.7c0,0.7-0.5,2.2-1.2,4.3
		c-1,2.9-2.2,5.5-3.1,8.4c-1.2,3.6-1.7,7.4-1.7,11.5c0,5.3,2.4,9.8,7.7,13.9C116.8,370,128.3,373.1,144.1,373.1L144.1,373.1
		L144.1,373.1L144.1,373.1z"/>
	<path fill="#635E49" d="M197.9,282.6c-0.2-0.2-0.2-0.5,0-1l4.6-9.6c0.2-0.5,0.7-0.7,1-0.7c0.5,0,2.6,1.2,6.2,3.6
		c3.8,2.6,5.8,4.1,5.8,4.6c0,1.7-1.7,5-5,10.3c-0.5,0.7-0.7,1-1.2,0.7C205.6,287.6,201.7,285,197.9,282.6L197.9,282.6L197.9,282.6
		L197.9,282.6z"/>
	<path fill="#635E49" d="M336.8,232.4c-0.5,2.2-1,3.4-1.7,4.1c-2.6,1.7-8.6,5.5-17.8,11.8c-0.2,0.2-0.7,0.5-1.2,1
		c-0.2-0.2-0.2-0.2-0.2-0.7l0.5-3.1c0.2-0.7,1.7-2.2,4.6-4.3c-3.6-1.2-5.3-2.9-5.3-4.8c0-2.2,0.7-4.3,2.6-6.5
		c3.6-4.3,6.7-6.5,9.1-6.5c2.2,0,3.1,1.2,3.1,3.6c0,1.4-0.5,2.9-1.7,4.8c-0.2,0.5-0.5,0.5-1-0.2c-0.5-1.2-1.4-1.7-2.6-1.7
		c-0.7,0-1.7,0.2-2.9,1.2c-1.2,0.7-1.9,1.4-1.9,1.9c0,0.7,0.7,1.4,2.2,2.2c1.4,1,2.6,1.2,3.6,1.2c0.7,0,2.2-0.5,4.3-1.7
		c1.4-1,2.6-1.9,4.1-2.9c1.2-0.5,1.9-1,2.2-0.7C337.1,231,337.1,231.5,336.8,232.4L336.8,232.4L336.8,232.4L336.8,232.4z"/>
	<path fill="#635E49" d="M397.1,241.8c0-1.2-2.4-3.4-7.4-6.2c-1.7,2.9-2.4,5.5-2.4,7.9c0,1.4,0.7,2.4,2.2,2.4c1.2,0,2.6-0.5,4.3-1.4
		C395.4,243.7,396.6,242.8,397.1,241.8L397.1,241.8L397.1,241.8L397.1,241.8z M391.8,222.6c0.7-1.2,1.7-1.7,2.4-1.7
		c0.5,0,1,0.2,1,0.7c0,0-0.2,0.2-0.2,0.5c-1,2.2-1.9,4.6-2.6,7c5,3.6,7.4,7.4,7.2,11c-0.5,4.1-1,6.7-1.7,7.7c-2.4,2.9-5,4.6-8.4,4.6
		c-3.4,0-4.8-2.2-4.8-6c0-0.7,0-1.7,0.2-2.6C386,236,388.4,229.1,391.8,222.6L391.8,222.6L391.8,222.6L391.8,222.6z"/>
	<path fill="#635E49" d="M402.6,288.6c0-0.2,0.2-0.5,0.2-0.5c0.2-0.2,0.2-0.2,0.2,0c0.2,0.2,0.2,0.5,0,0.7
		c-1.2,7.2-3.4,10.8-6.5,10.8c-3.1,0-4.6-2.6-4.6-7.9c0-6.5,1.7-13.4,5.5-20.4c1-1.7,1.4-2.6,1.7-2.6l0,0c0,0.2-0.2,1.2-0.7,2.9
		c-2.4,7.4-3.6,12.5-3.6,15.6c0,3.8,1,6,3.1,6C399.5,293.2,400.9,291.5,402.6,288.6L402.6,288.6L402.6,288.6L402.6,288.6z"/>
	<path fill="#635E49" d="M357.7,418.7c4.8,0,9.8-1,15.6-2.6c1.4-0.5,2.2-0.5,2.2-0.2c0,0.2-0.5,0.7-1.7,1.7
		c-4.8,4.3-11.3,6.7-19,6.7c-2.2,0-4.3-0.7-5.8-1.9c-1.4-1.2-2.2-2.9-2.2-4.8c0-5,2.2-10.3,6.5-15.8c-3.8-1.2-5.8-3.1-5.8-6
		c0-2.6,1.4-5.5,4.6-8.9c3.1-3.4,5.5-5,7.4-5c0.5,0,1,0.2,1.4,1.2c0.5,0.7,0.7,1.4,0.7,2.4c0,0.5-0.5,1.4-1.4,2.9
		c-1,1.4-1.7,1.9-1.7,1.7c-0.5-1.4-1.2-2.2-2.6-2.2c-0.7,0-1.4,0.5-2.4,1.7c-1.2,1.2-1.7,2.2-1.7,2.9c1.2,1.9,3.4,3.1,6.2,3.1
		c1,0,2.6-1,4.6-2.9c1.4-1,2.6-2.2,3.8-3.4c0.5-0.2,0.7,0,0.7,1c0,2.4-1,4.6-2.4,7c-6.5,4.3-11.3,9.4-14.4,14.9
		c-0.5,1.2-0.7,2.2-0.7,2.9C349.8,417.2,352.4,418.7,357.7,418.7L357.7,418.7L357.7,418.7L357.7,418.7z"/>
	<path fill="#635E49" d="M291,249.7c0-1.2-2.4-3.4-7.4-6.2c-1.7,2.9-2.4,5.5-2.4,7.9c0,1.4,0.7,2.4,2.2,2.4c1.2,0,2.6-0.5,4.3-1.4
		C289.3,251.6,290.5,250.7,291,249.7L291,249.7L291,249.7L291,249.7z M285.7,230.5c0.7-1.2,1.7-1.7,2.4-1.7c0.5,0,1,0.2,1,0.7
		c0,0-0.2,0.2-0.2,0.5c-1,2.2-1.9,4.6-2.6,7c5,3.6,7.4,7.4,7.2,11c-0.5,4.1-1,6.7-1.7,7.7c-2.4,2.9-5,4.6-8.4,4.6
		c-3.4,0-4.8-2.2-4.8-6c0-0.7,0-1.7,0.2-2.6C280,244,282.4,237,285.7,230.5L285.7,230.5L285.7,230.5L285.7,230.5z"/>
	<path fill="#635E49" d="M259.8,288.8c18.5-6.7,37.7-13.9,57.8-21.4c0.7-0.2,1.2-0.5,1.4-0.2c0,0,0,0.5-0.2,1.2
		c-1,2.2-1.7,3.4-2.2,3.8c-16.8,6.2-36.7,13.9-59.3,23.3C257.9,293.4,258.6,291.2,259.8,288.8L259.8,288.8L259.8,288.8L259.8,288.8z
		"/>
	<path fill="#635E49" d="M278.8,339.5c0-0.2,0.2-0.5,0.2-0.5c0.2-0.2,0.2-0.2,0.2,0c0.2,0.2,0.2,0.5,0,0.7
		c-1.2,7.2-3.4,10.8-6.5,10.8c-3.1,0-4.6-2.6-4.6-7.9c0-6.5,1.7-13.4,5.5-20.4c1-1.7,1.4-2.6,1.7-2.6l0,0c0,0.2-0.2,1.2-0.7,2.9
		c-2.4,7.4-3.6,12.5-3.6,15.6c0,3.8,1,6,3.1,6C275.6,344,277.1,342.4,278.8,339.5L278.8,339.5L278.8,339.5L278.8,339.5z"/>
	<path fill="#635E49" d="M330.4,393.7c0,0.5-0.2,1.4-0.5,2.4c-0.5,1.4-1,2.2-1.7,2.2c-0.2,0-0.7-0.7-1.7-1.7c-0.7-1-1.7-1.4-2.4-1.4
		c-1.9,0-3.8,4.6-5.5,13.7c-0.7,4.1-1.4,6.7-2.4,8.4c-0.7,1.2-1.2,1.7-1.7,1.7c-0.2,0-0.5-0.5-0.5-1.4c0-1.7-1-4.8-2.9-9.4
		c-1.7-4.8-3.1-7-3.8-7c-0.5,0-1,0-1,0.5c-0.2,0.2-0.7,0.5-1.4,0.5c-1,0-2.2-0.7-3.6-1.9c-1.4-1.4-1.9-2.4-1.7-2.9
		c2.2-4.1,3.4-6,3.8-6c2.6,0,5.3,1.4,7.4,4.8c2.2,3.1,3.6,7.4,4.6,12.5c0,0.7,0,1,0,1c0.2,0.2,0.2,0.2,0.2,0c0,0,0.2-0.2,0.5-1
		c0.5-2.9,1.4-7.7,3.1-13.9c1.9-4.3,3.8-6.5,6.2-6.5c1,0,2.2,0.7,3.4,2.2C329.9,391.8,330.4,392.8,330.4,393.7L330.4,393.7
		L330.4,393.7L330.4,393.7z M299.6,397.3c0.5-1,1-1.4,1.2-1.4c0,0,0.2,0.2,0,0.2c0.2,0.7-0.5,2.4-1.9,5c-2.4,4.6-5.8,8.2-10.1,11.3
		c-4.6,3.4-8.6,5.8-12.2,7.4c-0.7,0.5-5,2.2-13,5c-1.2,0.5-1.9,0.7-2.4,0.7c-0.2,0-0.2-0.2-0.2-0.2c0-0.2,0.7-1,1.9-1.7
		c6.7-3.6,15.8-9.4,27.6-17.3C295.3,402.8,298.2,399.7,299.6,397.3L299.6,397.3L299.6,397.3L299.6,397.3z"/>
	<path fill="#635E49" d="M395.2,376.2c0-0.2,0.2-0.5,0.2-0.5c0.2-0.2,0.2-0.2,0.2,0c0.2,0.2,0.2,0.5,0,0.7
		c-1.2,7.2-3.4,10.8-6.5,10.8c-3.1,0-4.6-2.6-4.6-7.9c0-6.5,1.7-13.4,5.5-20.4c1-1.7,1.4-2.6,1.7-2.6l0,0c0,0.2-0.2,1.2-0.7,2.9
		c-2.4,7.4-3.6,12.5-3.6,15.6c0,3.8,1,6,3.1,6C392,380.8,393.5,379.1,395.2,376.2L395.2,376.2L395.2,376.2L395.2,376.2z"/>
	<path fill="#635E49" d="M113.2,318.6c0-0.2,0.2-0.5,0.2-0.5c0.2-0.2,0.2-0.2,0.2,0c0.2,0.2,0.2,0.5,0,0.7
		c-1.2,7.2-3.4,10.8-6.5,10.8c-3.1,0-4.6-2.6-4.6-7.9c0-6.5,1.7-13.4,5.5-20.4c1-1.7,1.4-2.6,1.7-2.6l0,0c0,0.2-0.2,1.2-0.7,2.9
		c-2.4,7.4-3.6,12.5-3.6,15.6c0,3.8,1,6,3.1,6C110,323.2,111.5,321.5,113.2,318.6L113.2,318.6L113.2,318.6L113.2,318.6z"/>
	<path fill="#635E49" d="M151.6,409.1c13.7-4.8,28.1-10.1,43.2-15.6c1-0.2,1.2-0.5,1.4-0.2c0.2,0,0.2,0.5-0.2,1.2
		c-0.7,2.2-1.4,3.4-1.9,3.8c-13,4.6-27.8,10.3-44.9,17.5C149.6,413.6,150.4,411.5,151.6,409.1L151.6,409.1L151.6,409.1L151.6,409.1z
		"/>
	<path fill="#635E49" d="M181.8,301.3c0,0.5-0.2,1.4-0.7,2.4c-0.2,1.4-0.7,2.2-1.4,2.2c-0.2,0-0.7-0.7-1.7-1.7
		c-0.7-1-1.7-1.4-2.4-1.4c-1.9,0-3.8,4.6-5.5,13.7c-0.7,4.1-1.4,7-2.4,8.6c-0.7,1-1.2,1.7-1.7,1.7c-0.2,0-0.5-0.7-0.5-1.7
		c0-1.7-1-4.8-2.9-9.4c-1.9-4.8-3.1-7-3.8-7c-0.7,0-1,0-1.2,0.5c0,0.2-0.5,0.5-1.2,0.5c-1,0-1.9-0.7-3.4-1.9
		c-1.2-1.2-1.9-2.2-1.9-2.9c0-0.2,0.5-1.4,1.7-3.4c1.2-1.9,1.9-2.6,2.2-2.6c2.6,0,5,1.4,7.2,4.8c2.4,3.4,3.8,7.4,4.8,12.7
		c0,0.5,0,0.7,0,1c0.2,0.2,0.2,0.2,0.2,0c0-0.2,0.2-0.5,0.5-1c0.2-3.1,1.4-7.9,3.1-14.2c1.9-4.3,3.8-6.5,6-6.5
		c1.2,0,2.4,0.7,3.6,2.2C181.3,299.4,181.8,300.4,181.8,301.3L181.8,301.3L181.8,301.3L181.8,301.3z M166,328.9
		c-1.7,3.8-5,7.7-10.1,11.3c-4.6,3.4-8.6,5.8-12.2,7.4c-0.7,0.5-5,2.2-13,5c-1.2,0.5-1.9,0.7-2.4,0.7c-0.2,0-0.2-0.2-0.2-0.2
		c0-0.2,0.7-1,1.9-1.7c6.5-3.8,15.6-9.4,27.6-17.3c2.9-2.2,5-4.3,6.7-6.2c1.9-2.2,2.9-3.4,3.1-3.4c0,0,0,0,0,0.2
		C167.4,325.1,166.9,326.5,166,328.9L166,328.9L166,328.9L166,328.9z"/>
	<path fill="#635E49" d="M175.6,269.6c0-0.2,0.2-0.5,0.2-0.5c0.2-0.2,0.2-0.2,0.2,0c0.2,0.2,0.2,0.5,0,0.7
		c-1.2,7.2-3.4,10.8-6.5,10.8c-3.1,0-4.6-2.6-4.6-7.9c0-6.5,1.7-13.4,5.5-20.4c1-1.7,1.4-2.6,1.7-2.6l0,0c0,0.2-0.2,1.2-0.7,2.9
		c-2.4,7.4-3.6,12.5-3.6,15.6c0,3.8,1,6,3.1,6C172.4,274.2,173.9,272.5,175.6,269.6L175.6,269.6L175.6,269.6L175.6,269.6z"/>
	<path fill="#635E49" d="M137.9,275.6c0,2.6-1.2,5.5-3.1,8.6c-2.2,3.1-4.8,6-8.2,8.4c-1.4,1-2.2,1.4-2.4,1.4v-0.2
		c0-0.2,0.5-0.7,1.4-1.9c5.5-6,8.4-9.8,8.4-12c0-1.7-1-2.6-2.6-2.6c-1,0-1.9,0.2-2.6,0.7c-0.7,0.2-1,0.5-1.2,0.5c0,0-0.2,0-0.2-0.2
		c0,0,0-0.5,0.2-1.4c1-4.1,2.9-6,6.2-6C136.4,270.8,137.9,272.5,137.9,275.6L137.9,275.6L137.9,275.6L137.9,275.6z"/>
	<path fill="#635E49" d="M216.6,242.8c0,2.6-1.2,5.5-3.1,8.6c-2.2,3.1-4.8,6-8.2,8.4c-1.4,1-2.2,1.4-2.4,1.4V261
		c0-0.2,0.5-0.7,1.4-1.9c5.5-6,8.4-9.8,8.4-12c0-1.7-1-2.6-2.6-2.6c-1,0-1.9,0.2-2.6,0.7c-0.7,0.2-1,0.5-1.2,0.5c0,0-0.2,0-0.2-0.2
		c0,0,0-0.5,0.2-1.4c1-4.1,2.9-6,6.2-6C215.2,238,216.6,239.6,216.6,242.8L216.6,242.8L216.6,242.8L216.6,242.8z"/>
	<path fill="#635E49" d="M635.2,338c1.2-1,2.2-1.4,2.9-1.4c0.5,0,0.7,0.5,0.7,1.4c0,0.7-0.2,2.2-0.7,4.1c-0.5,1.9-0.7,3.4-0.7,4.6
		c0,5.3,3.8,8.2,11.3,8.2c6,0,11-2.6,14.9-7.7c2.4-4.1,5-7.9,7.4-11.8c1-1,1.7-1.4,2.4-1.4c1,0,1.2,1,0.7,3.1c-1,4.1-1.7,6-1.7,5.5
		c0,1.7,1,3.4,2.9,4.8c1.7,1.4,4.1,2.4,6.7,2.4c3.4,0,5.5-1,6.5-2.6c0-0.2-1-2.2-3.1-5.8c0.2-1.9,1.2-5.3,2.6-9.8
		c0.2-1.4,0.7-2.2,1.2-2.2c0.5,0,1,0.2,1.7,1.2c1.9,2.9,3.1,6.2,3.1,10.1c0,6-1.4,11-4.1,15.4c-2.9,5.3-7.2,7.9-13,7.9
		c-3.8,0-7.4-3.1-10.6-8.9c-5.3,9.6-12.2,14.4-20.6,14.4c-10.1,0-14.9-5.8-14.9-16.8c-3.8,4.6-10.3,8.6-18.7,12.5V352
		c6.2-3.1,10.3-5,11.5-5.8C627.5,344.3,631.3,341.4,635.2,338L635.2,338L635.2,338L635.2,338z"/>
	<path fill="#635E49" d="M598.4,353.9c-3.6-4.6-6.7-6.7-9.6-6.7c-4.3,0-6.2,1-6.2,3.4c0,2.9,2.9,4.3,8.6,4.3
		C593.4,354.8,595.8,354.4,598.4,353.9L598.4,353.9L598.4,353.9L598.4,353.9z M605.9,371.4c0-1.4-0.5-3.1-1-4.8
		c-2.9,1-7.2,1.7-12.5,1.7c-11.5,0-17.3-4.1-17.3-12c0-6,1.7-11.3,5.5-16.1c3.6-4.1,7.4-6.2,11.5-6.2c3.1,0,6.2,1.9,9.8,5.5
		c3.1,3.6,6,7.7,8.4,12.7c0.2,0,0.7,0,1.7-0.5v13.2l-0.5,0.5c0,2.9-0.7,6.2-2.2,10.6c-1.7,5.5-4.3,10.1-7.4,13.7
		c-7.2,8.6-15.1,16.1-23.8,22.6c-13,9.6-24,14.6-33.6,14.6c-8.2,0-14.4-3.1-18.7-9.1c-3.8-5-5.8-11.8-5.8-19.7
		c0-10.1,2.2-20.4,6.2-31.2c1.2-2.4,1.7-3.4,2.2-3.4c0.2,0,0.2,0.2,0.2,0.7c0,0.7-0.2,1.9-0.5,3.4c-3.1,10.6-4.6,18.5-4.6,24
		c0,5,1.2,9.4,3.6,13c3.8,5,9.8,7.7,18.2,7.7c7.2,0,15.8-3.1,26.2-9.4c8.2-5,16.1-11,23.8-18.2C602.3,377.9,605.9,373.6,605.9,371.4
		L605.9,371.4L605.9,371.4L605.9,371.4z"/>
	<path fill="#635E49" d="M540.6,335.2c-0.5-2.2-1.2-3.8-2.2-5c-0.7-1.4-1.2-2.2-1.4-2.6c0-0.5,0-2.2,0.5-5.5
		c0.5-3.1,0.7-5.3,1.2-6.5c0.2-1.2,0.5-1.7,1-1.7c0.2,0,0.5,0.2,1,0.7c3.4,3.8,7,7.7,11,11.8c1.7,1.7,2.4,2.6,2.4,3.1
		c0,0.2-0.2,0.5-0.7,0.5c-0.7,0-2.6-0.5-5.5-1.2c1.7,4.1,3.6,8.2,5.3,12c2.6,6.7,4.1,12.2,4.1,17.3c0,2.4-0.5,5.3-1.4,8.9
		c-1.2,4.1-2.6,7.2-4.6,9.4c-7,7.9-18.7,16.6-35.3,25.9c-14.4,8.4-22.8,12.5-25.4,12.5c-0.5,0-7.7,1.7-21.4,5
		c-14.4,3.4-23.5,5.5-27.1,6c-3.8,0.7-6.2,1-7.2,1c-0.5,0-0.5,0-0.5-0.2c0-0.2,2.6-1.7,7.9-4.1c1.9-1,13-5.8,33.4-14.4
		c14.2-6,25.9-11.5,35.3-16.6c14.2-7.7,25-14.4,32.4-19.9c5.5-4.3,8.4-7.4,8.4-9.4c0-0.5-1.4-3.8-4.3-10.1
		C544.2,345,541.8,339.2,540.6,335.2L540.6,335.2L540.6,335.2L540.6,335.2z"/>
	<path fill="#635E49" d="M520.9,301.8c0,3.8-1.9,9.1-5.8,15.6c-2.4,4.1-6,9.6-10.8,16.8c4.8,5.5,8.2,10.6,9.8,14.9
		c1,3.1,1.7,7.2,1.7,11.8c0,1.9-0.5,4.3-1.4,7.4c-0.7,2.9-1.7,5-2.6,6.5c-1.9,2.9-5,5.8-9.8,8.6c-5,3.4-9.4,5-13,5
		c-5.8,0-8.6-4.3-8.6-13c0-5.8,1-11.5,2.9-16.8c1.9-4.6,5-10.6,10.1-18.5c-4.3-4.1-8.9-9.8-13.9-17c-0.5-0.7-1.7-1.9-3.6-3.8
		c-1-1-1.4-2.2-1.4-3.6c0-2.2,0.2-4.6,0.7-7.4c0.7-2.9,1.2-4.1,1.4-4.1c0.7,0,2.9,1.2,7,3.8c3.8,2.6,7,4.6,8.9,6.2
		c1.2,0.7,1.7,1.4,1.7,1.4v0.2c0,0.2-0.7,0.5-2.4,0.5c-3.1,0-4.8,0.2-4.8,0.5c0,0.2,0.5,0.7,1.4,1.9c3.8,4.8,7.7,8.4,11.8,11.3
		c1-1.4,4.3-6.2,9.6-14.4c4.6-7,7.2-11.8,8.4-14.6c1.2-2.9,1.9-4.1,2.4-4.1C520.7,297,520.9,298.4,520.9,301.8L520.9,301.8
		L520.9,301.8L520.9,301.8z M511.6,360.8c-2.6-5.3-7.2-10.8-13.4-16.1c-2.2,2.2-4.8,6.2-8.2,12c-3.8,6.5-5.5,10.6-5.5,12.7
		c0,2.9,1.9,4.3,6.2,4.3c1.9,0,4.3-0.7,7.4-1.9c4.3-1.9,8.4-4.6,11.8-7.9C511.3,362.5,511.8,361.6,511.6,360.8L511.6,360.8
		L511.6,360.8L511.6,360.8z"/>
	<path fill="#635E49" d="M498.1,283.8l3.8-7.9c0.2-0.5,0.5-0.7,1-0.7c0.5,0,2.4,1.2,6.2,3.8c3.6,2.4,5.5,3.8,5.5,4.3
		c0,1.7-1.7,5.3-4.8,10.6c-0.5,0.7-1,0.7-1.4,0.5c-3.1-2.4-6.7-4.8-10.8-7.4c-1.4,2.9-2.6,5.5-4.1,7.7c-0.2,0.7-0.7,1-1.2,0.7
		c-3.6-2.9-7.4-5.5-11.3-7.9c-0.2-0.2-0.2-0.5,0-1l4.6-9.6c0.2-0.5,0.7-1,1-1c0.5,0,2.2,1.2,5.3,3.4
		C495,281.2,497.2,282.8,498.1,283.8L498.1,283.8L498.1,283.8L498.1,283.8z"/>
	<path fill="#635E49" d="M624.6,417.5c-2.6,0.7-4.1,1.2-4.6,1.2v-0.2c0,0,1-0.7,2.9-1.9c1.9-1.2,4.8-3.1,8.9-6.2
		c1.9-1.9,4.8-5,8.4-9.4c2.4-2.9,5-5.5,7.9-7.4c3.6-2.6,7-3.8,10.6-3.8c0.7,0,1.9,0.2,3.4,0.7c1.2,0.5,2.4,0.7,3.4,0.7
		c1.9,0,3.4-0.7,4.6-2.2c0.7-1.4,1.7-2.6,2.6-4.1c0.5-1,1.2-1.4,1.7-1.4c0.2,0,0.2,0.2,0.2,0.7c0,0.5-0.2,1.7-0.7,3.1
		c-0.5,0.7,1.4,1,5,1c0.5,0,0.7,0,0.7-0.2c0,0-0.2-1-0.7-2.6c-0.2-0.5,0-1.2,0.7-2.2c1-1.7,1.4-2.4,1.7-2.2c1,0.7,1.4,2.2,1.4,3.8
		c0,1.7-0.5,3.4-1.2,5.3c-0.7,2.2-1.4,3.4-1.9,3.8c-1.7,1-4.3,0.7-7.9-1c-2.9,2.9-5.8,4.6-8.6,4.6c-0.7,0-1.9-0.2-3.1-0.7
		c-1.2-0.5-2.2-0.7-2.9-0.7c-4.8,0-9.8,2.2-14.9,7c-3.6,3.6-7.2,7.2-10.8,10.8C629.2,415.6,627,416.8,624.6,417.5L624.6,417.5
		L624.6,417.5L624.6,417.5z"/>
	<path fill="#635E49" d="M573,287.9c2.9,0,5.3,1.4,7.4,4.8c2.2,3.1,3.8,7.4,4.6,12.7c0.2,0.5,0.2,0.7,0.2,1h0.2c0-0.2,0.2-0.5,0.2-1
		c0.5-3.1,1.7-7.9,3.4-14.2c1.9-4.3,3.8-6.5,6-6.5c1.2,0,2.4,0.7,3.4,2.2c1,1.4,1.4,2.4,1.4,3.4c0,0.5,0,1.4-0.5,2.4
		c-0.5,1.4-1,2.2-1.4,2.2c-0.2,0-0.7-0.7-1.7-1.7c-0.7-1-1.7-1.4-2.6-1.4c-1.9,0-3.6,4.6-5.3,13.7c-0.7,4.1-1.7,7-2.4,8.6
		c-0.7,1-1.2,1.7-1.7,1.7c-0.5,0-0.5-0.7-0.7-1.7c0.2-1.7-0.7-4.8-2.6-9.4c-1.9-4.8-3.1-7-4.1-7c-0.5,0-0.7,0-1,0.5
		c-0.2,0.2-0.5,0.5-1.2,0.5c-1,0-1.9-0.7-3.4-1.9c-1.4-1.2-1.9-2.2-1.9-2.9c0-0.2,0.5-1.4,1.7-3.4C572,288.6,572.8,287.9,573,287.9
		L573,287.9L573,287.9L573,287.9z"/>
	<path fill="#635E49" d="M532.2,285c24.2-9.1,49.4-18.2,75.4-27.8c0.7-0.2,1.2-0.5,1.2-0.2c0.2,0,0.2,0.5,0,1.2
		c-1,2.2-1.7,3.4-2.2,3.8c-0.2,0.2-12.5,4.8-36.2,13.7c-24.2,8.9-37.9,14.4-40.6,16.1C530.3,289.6,531,287.4,532.2,285L532.2,285
		L532.2,285L532.2,285z"/>
	<path fill="#635E49" d="M508.9,241.1c0.5-1.4,0.5-2.9,0.2-4.3c-0.2-1.4-1-2.2-2.2-2.2c-0.5,0-1.2,0.2-2.2,0.7c-1,0.5-1.4,1-1.4,1.4
		C503.4,238,505.3,239.4,508.9,241.1L508.9,241.1L508.9,241.1L508.9,241.1z M506,247.3c-4.6-2.4-6.7-4.8-6.7-7.4
		c0-3.1,1.4-6,4.3-8.4c2.9-2.6,5.3-3.6,7.2-2.9c1.7,0.5,2.4,2.2,2.4,5c0,2.6-0.5,5.5-1.7,8.9c2.4,1.2,3.8,2.4,4.3,3.4
		c0,1.2-1,3.4-3.1,6.2c-0.5-1-1.9-2.2-4.1-3.4c-2.6,3.6-5.8,6.7-9.6,9.6c-4.6,3.1-8.6,5.8-12.2,7.2c-1,0.5-5.3,2.2-13,5
		c-1.2,0.5-2.2,0.7-2.4,0.7c-0.2,0-0.2-0.2-0.2-0.2c0-0.2,0.5-1,1.9-1.7c5.8-3.6,11.5-7,17.5-10.3
		C497.6,254.8,502.7,250.9,506,247.3L506,247.3L506,247.3L506,247.3z"/>
	<path fill="#635E49" d="M657.7,277.3c0.5-1.4,0.5-2.9,0.2-4.3c-0.2-1.4-1-2.2-2.2-2.2c-0.5,0-1.2,0.2-2.2,0.7c-1,0.5-1.4,1-1.4,1.4
		C652.2,274.2,654.1,275.6,657.7,277.3L657.7,277.3L657.7,277.3L657.7,277.3z M663,286.2c-2.4,5.8-3.6,10.3-3.6,13.7
		c0,4.1,1,6.2,3.1,6.2c1.2,0,2.6-1.7,4.3-4.6c0.2-0.2,0.2-0.5,0.5-0.7c0,0,0.2,0,0.2,0.2c0,0,0,0.2,0,0.7
		c-1.4,7.2-3.6,10.8-6.5,10.8c-3.1,0-4.6-2.6-4.6-7.9c0-2.6,0.5-6,1.9-10.3c1.4-4.3,2.2-6.5,2.2-6.7c0-0.5-1-1.4-3.1-2.6
		c-3.8,5-9.1,9.8-15.8,13.9c-4.6,2.6-9.1,5-13.9,7c-8.9,3.6-14.2,5.5-15.4,6.2c-1.2,0.5-1.9,0.7-2.4,0.7c-0.2,0-0.2-0.2-0.2-0.2
		c0-0.5,0.5-1,1.9-1.9c7.7-4.3,15.1-8.6,22.8-13c10.1-5.8,17-10.6,20.4-14.2c-4.6-2.4-6.7-4.8-6.7-7.4c0-3.1,1.4-6,4.3-8.6
		c2.9-2.4,5.3-3.4,7.2-2.6c1.4,0.5,2.4,2.2,2.4,5c0,2.6-0.5,5.5-1.7,8.6c2.4,1.4,3.4,2.9,3.4,4.3C663.7,283.6,663.5,284.8,663,286.2
		L663,286.2L663,286.2L663,286.2z"/>
	<path fill="#635E49" d="M550.4,254.5c0-0.2,0.2-0.5,0.2-0.5c0.2-0.2,0.2-0.2,0.2,0c0.2,0.2,0.2,0.5,0,0.7
		c-1.2,7.2-3.4,10.8-6.5,10.8c-3.1,0-4.6-2.6-4.6-7.9c0-6.5,1.7-13.4,5.5-20.4c1-1.7,1.4-2.6,1.7-2.6l0,0c0,0.2-0.2,1.2-0.7,2.9
		c-2.4,7.4-3.6,12.5-3.6,15.6c0,3.8,1,6,3.1,6C547.3,259.1,548.8,257.4,550.4,254.5L550.4,254.5L550.4,254.5L550.4,254.5z"/>
</g>
</svg>
