<?xml version="1.0" encoding="utf-8"?>
<!-- Generator: Adobe Illustrator 18.1.1, SVG Export Plug-In . SVG Version: 6.00 Build 0)  -->
<!DOCTYPE svg PUBLIC "-//W3C//DTD SVG 1.1//EN" "http://www.w3.org/Graphics/SVG/1.1/DTD/svg11.dtd">
<svg version="1.1" id="Layer_1" xmlns="http://www.w3.org/2000/svg" xmlns:xlink="http://www.w3.org/1999/xlink" x="0px" y="0px"
	 viewBox="0 0 792 612" enable-background="new 0 0 792 612" xml:space="preserve">
<g>
	<path fill="#635E49" d="M424.4,232.8c0-4.8-0.7-8.6-2.2-11.8c0-1.7,1.2-5.8,4.1-12c0.2-0.7,0.5-1.2,0.7-1.2c0.5,0,0.7,0.5,1.2,1.2
		c0.7,1.7,2.4,6.2,5.3,13.7c3.1,7.9,4.8,12.7,5.3,14.6c0.5,1.2,0.5,2.4,0.5,2.9c0,2.2-1.9,1-6.2-3.8c-0.5-0.7-0.7-0.2-0.7,1
		c0,0.5,1.2,15.4,3.4,45.1c2.2,29.5,3.1,46.1,3.1,49.9c0,11.3-1.7,21.4-5,30c-1,1.7-1.4,2.9-1.9,3.8l0,0c-0.7,1.2-1,1.2-1.2,0.5
		c-0.2-1,0-2.9,0.2-5.5c0.5-4.1,0.7-8.6,0.7-13.7c0-4.8-1.2-24-3.6-57.8C425.6,255.8,424.4,236.8,424.4,232.8L424.4,232.8
		L424.4,232.8L424.4,232.8z"/>
	<path fill="#635E49" d="M416.5,337.2c0,14.2-2.6,25.2-7.7,33.4c-4.3,6.7-9.4,10.3-15.1,10.3v-14.6c4.6,0,9.1-1.9,13.4-5.5
		c1.2-1,1.9-5,1.9-11.8c0-4.1-1.4-23.8-3.8-58.8c-2.4-35.3-3.6-55.2-3.6-60.5c0-4.6-1-8.4-2.4-11.5c0-1.7,1.4-5.8,4.1-12.2
		c0.5-0.7,0.7-1,1-1c0.2,0,0.7,0.2,1,1c0.7,1.9,2.6,6.5,5.5,13.9c2.9,7.7,4.6,12.7,5,14.4c0.5,1.4,0.7,2.4,0.7,3.1
		c0,2.2-2.2,1-6.2-3.8c-0.2-0.7-0.5-0.5-0.5,0.7c0,0.2,1,16.3,3.4,48C415.3,313.9,416.5,332.1,416.5,337.2L416.5,337.2L416.5,337.2
		L416.5,337.2z"/>
	<path fill="#635E49" d="M393.7,380.8c-8.6,0-13.2-5-13.7-15.1c0-0.5-0.2-0.7-0.7-1c-0.7,0.2-1.4,0.5-2.2,1.4
		c-5,5.8-8.2,9.1-9.6,10.3c-6.2,5.5-12.7,8.2-19.4,8.2V370c7,0,13.2-1.9,18.7-5.8c2.2-1.4,7-6,14.6-13.7c0.7-0.7,1.7-1.2,2.6-1.2
		s1.2,0.5,1.2,1.4c0,0.5,0,1.2-0.2,2.2c-0.2,1-0.2,1.7-0.2,2.2c0,2.9,0.5,5.3,1.9,7.2c1.4,2.4,3.8,3.8,7,3.8V380.8L393.7,380.8
		L393.7,380.8z"/>
	<path fill="#635E49" d="M348.1,370v14.6c-7.9,0-13-3.1-15.4-9.4c-1-2.2-1.2-4.8-1.2-8.2c0-2.2,0.2-4.6,0.7-7.4c0.5-4.1,1.2-6,2.4-6
		c0.5,0,0.7,1,1,3.1c0,1.2,0,2.6,0,3.8c0.5,3.4,1.4,5.8,3.4,7.2C340.6,369.3,343.8,370,348.1,370L348.1,370L348.1,370L348.1,370z"/>
	<path fill="#635E49" d="M400.4,318.4l-3.4,9.8c-0.5,1.2-0.7,1.9-1,2.2c-0.2,0.5-0.7,0.7-1.2,0.7c-19.9,4.8-39.6,11-59.3,18.7
		c0.2,2.9,0.5,5.3,0.5,7c0,2.4-0.5,3.6-1.2,3.6c-1,0-3.1-2.6-6.2-8.4c-3.6,1.2-9.8,3.8-18.7,7.7v-13.2c2.6-1.2,6.5-2.9,11-5
		c-0.5-0.5-3.8-3.4-10.3-8.6c-5.5-4.3-8.9-7.9-10.3-10.3c-1.4-2.2-2.2-4.8-2.2-7.4c0-4.6,1.9-8.4,5.5-11.5c3.6-3.4,8.2-5,13.7-5
		c9.8,0,25.9,2.9,47.5,8.2c1,0.2,12.5,3.4,34.6,9.4C400.6,316.3,400.9,317.2,400.4,318.4L400.4,318.4L400.4,318.4L400.4,318.4z
		 M375.7,324.4c-5.3-1.9-13.7-4.6-25-7.2c-14.6-3.6-26.2-5.3-35-5.3c-7,0-10.6,0.5-10.6,1.7c0,0.5,1.2,1.7,3.1,3.6
		c4.1,3.1,8.2,6.5,12,9.8c6,4.8,9.6,8.4,11.3,10.6C347.4,332.1,362,327.6,375.7,324.4L375.7,324.4L375.7,324.4L375.7,324.4z"/>
	<path fill="#635E49" d="M264.6,373.2c5-5.8,11.8-10.8,20.2-15.4c4.8-2.6,13.2-6.5,25.2-11.5v13.2c-7.7,3.4-13.2,5.8-16.8,7.4
		c-7.4,3.6-12.5,6.2-15.1,8.4c-5,3.8-12.5,11.3-22.1,22.3c-5.8,6.7-11.5,10.1-17.3,10.1c-4.8,0-9.1-2.2-12.7-6.7
		c-3.8-4.3-5.5-10.1-5.5-16.6c0-8.9,3.6-20.6,11-35.3c0.7-1.4,1.4-2.2,1.9-2.2c0,0,0.2,0.2,0.2,0.5c0,1.4-1.7,6.5-4.8,15.1
		c-3.4,8.9-5,15.6-5,20.6c0,3.8,1,7,2.9,9.1c1.9,2.6,4.6,3.8,7.9,3.8c6,0,12.2-3.1,18.2-9.1C256.9,382.5,260.7,377.7,264.6,373.2
		L264.6,373.2L264.6,373.2L264.6,373.2z"/>
	<g>
		<path fill="#635E49" d="M238.9,305c-2.6-8.2-4.6-16.3-5.5-24.5c-0.2-1.4-0.2-2.2-0.5-2.6c-0.2-1-1-2.2-1.9-3.4l3.4-8.2
			c0.5-1.2,1-1.9,1.4-1.9c0.2,0,1,0.7,1.7,1.9l8.4,13.4c1.2,1.9,1.7,3.4,1.7,4.1c0,0.5-0.2,1-0.7,1c-1.2,0-2.9-1-5.5-2.6
			c0.7,5.3,2.4,11.8,5,19.7c0,0.5-1,1.2-2.6,2.2c-1.7,0.7-3.1,1.2-4.1,1.2C239.1,305.2,238.9,305.2,238.9,305L238.9,305L238.9,305
			L238.9,305z"/>
	</g>
	<path fill="#635E49" d="M168.1,365.7c-5,0-9.4-2.4-13-6.7c-3.8-4.6-5.5-10.1-5.5-16.6c0-9.1,3.6-20.9,11-35.3
		c0.7-1.4,1.4-2.2,1.9-2.2c0.2,0,0.2,0,0.2,0.5c0,1.4-1.7,6.5-4.8,15.1c-3.4,8.6-4.8,15.6-4.8,20.6c0,3.8,0.7,7,2.6,9.4
		c1.9,2.4,4.6,3.6,7.9,3.6c5.5,0,10.8-1.9,15.6-5.5c6-5,12-10.3,18-15.6c9.8-7.9,19-14.2,27.8-18.5c6.5-3.4,11.5-5,14.6-5
		c-0.2-0.7-0.5-2.4-1-4.8c0-0.7,1.2-1.4,3.4-2.2c2.4-1,3.8-1.2,4.3-0.7c0.5,1.9,2.6,4.1,6,6.2c3.4,2.4,7.7,4.3,12.5,6
		c2.2,0.7,3.1,2.2,2.6,4.1l-1.7,9.6c-0.2,1.2-1.2,1.2-3.1,0c-5.3-2.9-11.8-4.3-19.4-4.3c-10.6,0-23,5.8-37.7,17.3
		c-7.7,6.2-15.1,12.5-22.6,18.5C177.4,363.6,172.4,365.7,168.1,365.7L168.1,365.7L168.1,365.7L168.1,365.7z"/>
	<path fill="#635E49" d="M246.8,347l3.8-7.9c0.2-0.5,0.5-0.7,1-0.7c0.5,0,2.4,1.2,6.2,3.8c3.6,2.4,5.5,3.8,5.5,4.3
		c0,1.7-1.7,5.3-4.8,10.6c-0.5,0.7-1,0.7-1.4,0.5c-3.1-2.4-6.7-4.8-10.8-7.4c-1.4,2.9-2.6,5.5-4.1,7.7c-0.2,0.7-0.7,1-1.2,0.7
		c-3.6-2.9-7.4-5.5-11.3-7.9c-0.2-0.2-0.2-0.5,0-1l4.6-9.6c0.2-0.5,0.7-1,1-1c0.5,0,2.2,1.2,5.3,3.4
		C243.7,344.4,245.8,346,246.8,347L246.8,347L246.8,347L246.8,347z"/>
	<path fill="#635E49" d="M374.2,282l3.8-7.9c0.2-0.5,0.5-0.7,1-0.7c0.5,0,2.4,1.2,6.2,3.8c3.6,2.4,5.5,3.8,5.5,4.3
		c0,1.7-1.7,5.3-4.8,10.6c-0.5,0.7-1,0.7-1.4,0.5c-3.1-2.4-6.7-4.8-10.8-7.4c-1.4,2.9-2.6,5.5-4.1,7.7c-0.2,0.7-0.7,1-1.2,0.7
		c-3.6-2.9-7.4-5.5-11.3-7.9c-0.2-0.2-0.2-0.5,0-1l4.6-9.6c0.2-0.5,0.7-1,1-1c0.5,0,2.2,1.2,5.3,3.4
		C371.1,279.3,373.3,281,374.2,282L374.2,282L374.2,282L374.2,282z"/>
	<path fill="#635E49" d="M375,244.5c0,1.9-0.5,4.1-1.4,6c-1.2,2.6-2.6,4.1-4.3,4.1c-2.9,0-4.8-1.9-6-5.8c-1.4,4.8-3.8,7.4-7.4,7.4
		c-1.2,0-2.4-0.7-3.4-2.2c-1.2-1.4-1.7-3.6-1.7-6v-6.2c0-0.5-0.5-0.7-1-1c-0.7-0.2-1-0.7-1-1.4c0-1.4,0.5-2.6,1.4-3.8
		c1-1.2,1.7-1.7,2.2-1.7c0.7,0,1.2,1.2,1.2,3.8c0,1.4-0.2,2.6-0.2,3.6c-0.2,1-0.2,1.7-0.2,2.4c0,1.4,0.2,2.9,0.7,4.1
		c0.7,1.4,1.7,2.4,2.6,2.4c1.4,0,2.6-0.7,3.8-1.9c1.2-1.2,1.9-2.6,1.9-4.3c0-1-0.5-2.4-1-4.8c-0.7-2.2-1-3.6-1-4.1
		c0-0.5,0.2-1.2,0.7-2.4c0.5-1,1-1.4,1.2-1.4c0.5,0,1,1.4,1.7,4.3c0.7,3.1,1.2,5.3,1.2,6.7c0,4.1,1.4,6.2,4.6,6.2
		c1.4,0,2.4-0.7,2.6-2.2c-2.6-4.8-4.1-8.4-4.1-11c0-1.4,0.2-2.6,1.2-3.8c0.5-0.7,0.7-1.2,1-1.2c0.2,0,0.5,0.5,0.5,1.4
		c0.2,1.2,0.5,2.4,0.7,3.4c0,0,0.7,1.7,1.9,5C374.5,242.1,375,243.6,375,244.5L375,244.5L375,244.5L375,244.5z"/>
	<path fill="#635E49" d="M320.2,227c18.5-6.7,37.7-13.9,57.8-21.4c0.7-0.2,1.2-0.5,1.4-0.2c0,0,0,0.5-0.2,1.2
		c-1,2.2-1.7,3.4-2.2,3.8c-16.8,6.2-36.7,13.9-59.3,23.3C318.3,231.6,319,229.4,320.2,227L320.2,227L320.2,227L320.2,227z"/>
	<path fill="#635E49" d="M326.7,265.2c0-1.2-2.4-3.4-7.4-6.2c-1.7,2.9-2.4,5.5-2.4,7.9c0,1.4,0.7,2.4,2.2,2.4c1.2,0,2.6-0.5,4.3-1.4
		C325,267.1,326.2,266.1,326.7,265.2L326.7,265.2L326.7,265.2L326.7,265.2z M321.4,246c0.7-1.2,1.7-1.7,2.4-1.7c0.5,0,1,0.2,1,0.7
		c0,0-0.2,0.2-0.2,0.5c-1,2.2-1.9,4.6-2.6,7c5,3.6,7.4,7.4,7.2,11c-0.5,4.1-1,6.7-1.7,7.7c-2.4,2.9-5,4.6-8.4,4.6
		c-3.4,0-4.8-2.2-4.8-6c0-0.7,0-1.7,0.2-2.6C315.7,259.4,318.1,252.4,321.4,246L321.4,246L321.4,246L321.4,246z"/>
	<path fill="#635E49" d="M274.9,401.5c13.7-4.8,28.1-10.1,43.2-15.6c1-0.2,1.2-0.5,1.4-0.2c0.2,0,0.2,0.5-0.2,1.2
		c-0.7,2.2-1.4,3.4-1.9,3.8c-13,4.6-27.8,10.3-44.9,17.5C273,406,273.7,403.9,274.9,401.5L274.9,401.5L274.9,401.5L274.9,401.5z"/>
	<path fill="#635E49" d="M181.8,378.2c9.6-3.4,19.9-7.2,31-11c1-0.2,1.2-0.5,1.4-0.2c0.2,0,0.2,0.5-0.2,1.2
		c-0.7,2.2-1.4,3.4-1.9,3.8c-9.6,3.4-20.4,7.4-32.6,13C179.8,382.8,180.6,380.6,181.8,378.2L181.8,378.2L181.8,378.2L181.8,378.2z"
		/>
	<path fill="#635E49" d="M171.2,296.6c0-0.2,0.2-0.5,0.2-0.5c0.2-0.2,0.2-0.2,0.2,0c0.2,0.2,0.2,0.5,0,0.7
		c-1.2,7.2-3.4,10.8-6.5,10.8c-3.1,0-4.6-2.6-4.6-7.9c0-6.5,1.7-13.4,5.5-20.4c1-1.7,1.4-2.6,1.7-2.6l0,0c0,0.2-0.2,1.2-0.7,2.9
		c-2.4,7.4-3.6,12.5-3.6,15.6c0,3.8,1,6,3.1,6C168.1,301.2,169.5,299.5,171.2,296.6L171.2,296.6L171.2,296.6L171.2,296.6z"/>
	<path fill="#635E49" d="M296,282.7c-4.8,4.3-11.3,6.7-19,6.7c-2.2,0-4.3-0.7-5.8-1.9c-1.4-1.2-2.2-2.9-2.2-4.8
		c0-3.4,1.2-6.7,4.1-10.1c2.9-3.1,5.8-6,8.4-9.1c0.7-0.5,0.5-1-0.5-1.4c-1.9-0.7-4.3-1-6.7-1c-1.2,0-2.6,0.2-4.3,1.2
		c-0.2,0-0.5,0.2-0.7,0c0,0,0-0.2,0.2-0.7c1-2.4,1.9-4.1,2.9-4.8c1.2-1,3.1-1.4,5.8-1.4c5.8,0,8.4,1.2,8.4,4.1c0,2.2-1.7,5-5.3,9.1
		c-2.6,2.6-5.3,5.3-7.9,7.9c-1,1.4-1.4,2.9-1.4,3.8c0,2.4,2.6,3.6,7.7,3.6s10.1-1,15.8-2.6c1.4-0.5,2.2-0.5,2.2-0.2
		C297.7,281,297.2,281.7,296,282.7L296,282.7L296,282.7L296,282.7z"/>
	<path fill="#635E49" d="M202.4,256.8c-0.5-2.9-1.7-6.2-3.4-10.3c-1.7-4.1-3.1-6.2-3.8-6.2c-0.5,0-0.7,0-1,0.5
		c-0.2,0.2-0.5,0.5-1.2,0.5c-1,0-1.9-0.7-3.4-1.9c-1.4-1.2-1.9-2.2-1.9-2.9c0-0.2,0.5-1.4,1.7-3.4c1-1.9,1.7-2.6,1.9-2.6
		c2.9,0,5.3,1.4,7.4,4.8c2.2,3.1,3.8,7.4,4.6,12.7c0.2,0.5,0.2,0.7,0.2,1h0.2c0-0.2,0.2-0.5,0.2-1c0.5-3.1,1.7-7.9,3.4-14.2
		c1.9-4.3,3.8-6.5,6-6.5c1.2,0,2.4,0.7,3.4,2.2c1,1.4,1.4,2.4,1.4,3.4c0,0.5,0,1.4-0.5,2.4c-0.5,1.4-1,2.2-1.4,2.2
		c-0.2,0-0.7-0.7-1.7-1.7c-0.7-1-1.7-1.4-2.6-1.4c-1.9,0-3.6,4.6-5.3,13.7c-0.7,3.6-1.4,6.5-2.6,8.6c1.7,0,3.6,1.2,6.2,3.1
		c2.4,2.2,3.8,3.8,4.1,5.3c0,0.5-0.2,1.4-1,3.1c-0.7,1.7-1.2,2.4-1.7,2.6c-2.4,0.7-4.8,1.2-7.2,1.9c-2.9,1-5,2.2-6.2,3.4
		c3.4,10.1,5,19.9,5,29.8c0,2.9-0.5,5.8-1,8.9c-0.2,1-0.5,1.4-0.7,1.7c-0.2,0-0.2-1.9-0.2-5.3c0-5.5-1-12.5-2.6-20.4
		c-1.4-7.9-2.4-12.5-2.4-13.7c0-4.1,1.2-7,3.4-8.9c1.2-0.7,3.1-1.7,6.2-2.6c-1.2-1.2-2.4-1.7-3.6-1.7c-0.5,0-1.2,0.7-2.2,1.9
		c-1.2,1.2-1.7,1.9-1.9,1.9c-0.2,0-0.2-0.5,0-1.7C198.8,260.8,200.2,257.7,202.4,256.8L202.4,256.8L202.4,256.8L202.4,256.8z"/>
	<path fill="#635E49" d="M285.4,209.7c2.9,0,5.3,1.4,7.4,4.8c2.2,3.1,3.8,7.4,4.6,12.7c0.2,0.5,0.2,0.7,0.2,1h0.2
		c0-0.2,0.2-0.5,0.2-1c0.5-3.1,1.7-7.9,3.4-14.2c1.9-4.3,3.8-6.5,6-6.5c1.2,0,2.4,0.7,3.4,2.2c1,1.4,1.4,2.4,1.4,3.4
		c0,0.5,0,1.4-0.5,2.4c-0.5,1.4-1,2.2-1.4,2.2c-0.2,0-0.7-0.7-1.7-1.7c-0.7-1-1.7-1.4-2.6-1.4c-1.9,0-3.6,4.6-5.3,13.7
		c-0.7,4.1-1.7,7-2.4,8.6c-0.7,1-1.2,1.7-1.7,1.7c-0.5,0-0.5-0.7-0.7-1.7c0.2-1.7-0.7-4.8-2.6-9.4c-1.9-4.8-3.1-7-4.1-7
		c-0.5,0-0.7,0-1,0.5c-0.2,0.2-0.5,0.5-1.2,0.5c-1,0-1.9-0.7-3.4-1.9c-1.4-1.2-1.9-2.2-1.9-2.9c0-0.2,0.5-1.4,1.7-3.4
		C284.5,210.4,285.2,209.7,285.4,209.7L285.4,209.7L285.4,209.7L285.4,209.7z"/>
	<path fill="#635E49" d="M258.3,233.2c0-0.2,0.2-0.5,0.2-0.5c0.2-0.2,0.2-0.2,0.2,0c0.2,0.2,0.2,0.5,0,0.7
		c-1.2,7.2-3.4,10.8-6.5,10.8c-3.1,0-4.6-2.6-4.6-7.9c0-6.5,1.7-13.4,5.5-20.4c1-1.7,1.4-2.6,1.7-2.6l0,0c0,0.2-0.2,1.2-0.7,2.9
		c-2.4,7.4-3.6,12.5-3.6,15.6c0,3.8,1,6,3.1,6C255.2,237.8,256.6,236.1,258.3,233.2L258.3,233.2L258.3,233.2L258.3,233.2z"/>
	<path fill="#635E49" d="M381,389.7c0,2.6-1.2,5.5-3.1,8.6c-2.2,3.1-4.8,6-8.2,8.4c-1.4,1-2.2,1.4-2.4,1.4V408
		c0-0.2,0.5-0.7,1.4-1.9c5.5-6,8.4-9.8,8.4-12c0-1.7-1-2.6-2.6-2.6c-1,0-1.9,0.2-2.6,0.7c-0.7,0.2-1,0.5-1.2,0.5c0,0-0.2,0-0.2-0.2
		c0,0,0-0.5,0.2-1.4c1-4.1,2.9-6,6.2-6C379.5,384.9,381,386.6,381,389.7L381,389.7L381,389.7L381,389.7z"/>
	<path fill="#635E49" d="M609.9,318.4c1.2-1,2.2-1.4,2.9-1.4c0.5,0,0.7,0.5,0.7,1.4c0,0.7-0.2,2.2-0.7,4.1c-0.5,1.9-0.7,3.4-0.7,4.6
		c0,5.3,3.8,8.2,11.3,8.2c6,0,11-2.6,14.9-7.7c2.4-4.1,5-7.9,7.4-11.8c1-1,1.7-1.4,2.4-1.4c1,0,1.2,1,0.7,3.1c-1,4.1-1.7,6-1.7,5.5
		c0,1.7,1,3.4,2.9,4.8c1.7,1.4,4.1,2.4,6.7,2.4c3.4,0,5.5-1,6.5-2.6c0-0.2-1-2.2-3.1-5.8c0.2-1.9,1.2-5.3,2.6-9.8
		c0.2-1.4,0.7-2.2,1.2-2.2c0.5,0,1,0.2,1.7,1.2c1.9,2.9,3.1,6.2,3.1,10.1c0,6-1.4,11-4.1,15.4c-2.9,5.3-7.2,7.9-13,7.9
		c-3.8,0-7.4-3.1-10.6-8.9c-5.3,9.6-12.2,14.4-20.6,14.4c-10.1,0-14.9-5.8-14.9-16.8c-3.8,4.6-10.3,8.6-18.7,12.5v-13.2
		c6.2-3.1,10.3-5,11.5-5.8C602.2,324.7,606.1,321.8,609.9,318.4L609.9,318.4L609.9,318.4L609.9,318.4z"/>
	<path fill="#635E49" d="M573.2,334.3c-3.6-4.6-6.7-6.7-9.6-6.7c-4.3,0-6.2,1-6.2,3.4c0,2.9,2.9,4.3,8.6,4.3
		C568.2,335.2,570.6,334.8,573.2,334.3L573.2,334.3L573.2,334.3L573.2,334.3z M580.6,351.8c0-1.4-0.5-3.1-1-4.8
		c-2.9,1-7.2,1.7-12.5,1.7c-11.5,0-17.3-4.1-17.3-12c0-6,1.7-11.3,5.5-16.1c3.6-4.1,7.4-6.2,11.5-6.2c3.1,0,6.2,1.9,9.8,5.5
		c3.1,3.6,6,7.7,8.4,12.7c0.2,0,0.7,0,1.7-0.5v13.2l-0.5,0.5c0,2.9-0.7,6.2-2.2,10.6c-1.7,5.5-4.3,10.1-7.4,13.7
		c-7.2,8.6-15.1,16.1-23.8,22.6c-13,9.6-24,14.6-33.6,14.6c-8.2,0-14.4-3.1-18.7-9.1c-3.8-5-5.8-11.8-5.8-19.7
		c0-10.1,2.2-20.4,6.2-31.2c1.2-2.4,1.7-3.4,2.2-3.4c0.2,0,0.2,0.2,0.2,0.7c0,0.7-0.2,1.9-0.5,3.4c-3.1,10.6-4.6,18.5-4.6,24
		c0,5,1.2,9.4,3.6,13c3.8,5,9.8,7.7,18.2,7.7c7.2,0,15.8-3.1,26.2-9.4c8.2-5,16.1-11,23.8-18.2C577,358.3,580.6,354,580.6,351.8
		L580.6,351.8L580.6,351.8L580.6,351.8z"/>
	<path fill="#635E49" d="M515.1,315.3c-0.5-2.2-1.2-3.8-2.2-5c-0.7-1.4-1.2-2.2-1.4-2.6c0-0.5,0-2.2,0.5-5.5
		c0.5-3.1,0.7-5.3,1.2-6.5c0.2-1.2,0.5-1.7,1-1.7c0.2,0,0.5,0.2,1,0.7c3.4,3.8,7,7.7,11,11.8c1.7,1.7,2.4,2.6,2.4,3.1
		c0,0.2-0.2,0.5-0.7,0.5c-0.7,0-2.6-0.5-5.5-1.2c1.7,4.1,3.6,8.2,5.3,12c2.6,6.7,4.1,12.2,4.1,17.3c0,2.4-0.5,5.3-1.4,8.9
		c-1.2,4.1-2.6,7.2-4.6,9.4c-7,7.9-18.7,16.6-35.3,25.9c-14.4,8.4-22.8,12.5-25.4,12.5c-0.5,0-7.7,1.7-21.4,5
		c-14.4,3.4-23.5,5.5-27.1,6c-3.8,0.7-6.2,1-7.2,1c-0.5,0-0.5,0-0.5-0.2c0-0.2,2.6-1.7,7.9-4.1c1.9-1,13-5.8,33.4-14.4
		c14.2-6,25.9-11.5,35.3-16.6c14.2-7.7,25-14.4,32.4-19.9c5.5-4.3,8.4-7.4,8.4-9.4c0-0.5-1.4-3.8-4.3-10.1
		C518.7,325.2,516.3,319.4,515.1,315.3L515.1,315.3L515.1,315.3L515.1,315.3z"/>
	<path fill="#635E49" d="M495.4,282c0,3.8-1.9,9.1-5.8,15.6c-2.4,4.1-6,9.6-10.8,16.8c4.8,5.5,8.2,10.6,9.8,14.9
		c1,3.1,1.7,7.2,1.7,11.8c0,1.9-0.5,4.3-1.4,7.4c-0.7,2.9-1.7,5-2.6,6.5c-1.9,2.9-5,5.8-9.8,8.6c-5,3.4-9.4,5-13,5
		c-5.8,0-8.6-4.3-8.6-13c0-5.8,1-11.5,2.9-16.8c1.9-4.6,5-10.6,10.1-18.5c-4.3-4.1-8.9-9.8-13.9-17c-0.5-0.7-1.7-1.9-3.6-3.8
		c-1-1-1.4-2.2-1.4-3.6c0-2.2,0.2-4.6,0.7-7.4c0.7-2.9,1.2-4.1,1.4-4.1c0.7,0,2.9,1.2,7,3.8c3.8,2.6,7,4.6,8.9,6.2
		c1.2,0.7,1.7,1.4,1.7,1.4v0.2c0,0.2-0.7,0.5-2.4,0.5c-3.1,0-4.8,0.2-4.8,0.5c0,0.2,0.5,0.7,1.4,1.9c3.8,4.8,7.7,8.4,11.8,11.3
		c1-1.4,4.3-6.2,9.6-14.4c4.6-7,7.2-11.8,8.4-14.6c1.2-2.9,1.9-4.1,2.4-4.1C495.2,277.2,495.4,278.6,495.4,282L495.4,282L495.4,282
		L495.4,282z M486.1,341c-2.6-5.3-7.2-10.8-13.4-16.1c-2.2,2.2-4.8,6.2-8.2,12c-3.8,6.5-5.5,10.6-5.5,12.7c0,2.9,1.9,4.3,6.2,4.3
		c1.9,0,4.3-0.7,7.4-1.9c4.3-1.9,8.4-4.6,11.8-7.9C485.8,342.7,486.3,341.7,486.1,341L486.1,341L486.1,341L486.1,341z"/>
	<path fill="#635E49" d="M472.6,264l3.8-7.9c0.2-0.5,0.5-0.7,1-0.7c0.5,0,2.4,1.2,6.2,3.8c3.6,2.4,5.5,3.8,5.5,4.3
		c0,1.7-1.7,5.3-4.8,10.6c-0.5,0.7-1,0.7-1.4,0.5c-3.1-2.4-6.7-4.8-10.8-7.4c-1.4,2.9-2.6,5.5-4.1,7.7c-0.2,0.7-0.7,1-1.2,0.7
		c-3.6-2.9-7.4-5.5-11.3-7.9c-0.2-0.2-0.2-0.5,0-1l4.6-9.6c0.2-0.5,0.7-1,1-1c0.5,0,2.2,1.2,5.3,3.4
		C469.5,261.3,471.7,263,472.6,264L472.6,264L472.6,264L472.6,264z"/>
	<path fill="#635E49" d="M599.1,397.9c-2.6,0.7-4.1,1.2-4.6,1.2v-0.2c0,0,1-0.7,2.9-1.9c1.9-1.2,4.8-3.1,8.9-6.2
		c1.9-1.9,4.8-5,8.4-9.4c2.4-2.9,5-5.5,7.9-7.4c3.6-2.6,7-3.8,10.6-3.8c0.7,0,1.9,0.2,3.4,0.7c1.2,0.5,2.4,0.7,3.4,0.7
		c1.9,0,3.4-0.7,4.6-2.2c0.7-1.4,1.7-2.6,2.6-4.1c0.5-1,1.2-1.4,1.7-1.4c0.2,0,0.2,0.2,0.2,0.7c0,0.5-0.2,1.7-0.7,3.1
		c-0.5,0.7,1.4,1,5,1c0.5,0,0.7,0,0.7-0.2c0,0-0.2-1-0.7-2.6c-0.2-0.5,0-1.2,0.7-2.2c1-1.7,1.4-2.4,1.7-2.2c1,0.7,1.4,2.2,1.4,3.8
		s-0.5,3.4-1.2,5.3c-0.7,2.2-1.4,3.4-1.9,3.8c-1.7,1-4.3,0.7-7.9-1c-2.9,2.9-5.8,4.6-8.6,4.6c-0.7,0-1.9-0.2-3.1-0.7
		c-1.2-0.5-2.2-0.7-2.9-0.7c-4.8,0-9.8,2.2-14.9,7c-3.6,3.6-7.2,7.2-10.8,10.8C603.7,396,601.5,397.2,599.1,397.9L599.1,397.9
		L599.1,397.9L599.1,397.9z"/>
	<path fill="#635E49" d="M547.5,268.3c2.9,0,5.3,1.4,7.4,4.8c2.2,3.1,3.8,7.4,4.6,12.7c0.2,0.5,0.2,0.7,0.2,1h0.2
		c0-0.2,0.2-0.5,0.2-1c0.5-3.1,1.7-7.9,3.4-14.2c1.9-4.3,3.8-6.5,6-6.5c1.2,0,2.4,0.7,3.4,2.2c1,1.4,1.4,2.4,1.4,3.4
		c0,0.5,0,1.4-0.5,2.4c-0.5,1.4-1,2.2-1.4,2.2c-0.2,0-0.7-0.7-1.7-1.7c-0.7-1-1.7-1.4-2.6-1.4c-1.9,0-3.6,4.6-5.3,13.7
		c-0.7,4.1-1.7,7-2.4,8.6c-0.7,1-1.2,1.7-1.7,1.7c-0.5,0-0.5-0.7-0.7-1.7c0.2-1.7-0.7-4.8-2.6-9.4c-1.9-4.8-3.1-7-4.1-7
		c-0.5,0-0.7,0-1,0.5c-0.2,0.2-0.5,0.5-1.2,0.5c-1,0-1.9-0.7-3.4-1.9c-1.4-1.2-1.9-2.2-1.9-2.9c0-0.2,0.5-1.4,1.7-3.4
		C546.6,269,547.3,268.3,547.5,268.3L547.5,268.3L547.5,268.3L547.5,268.3z"/>
	<path fill="#635E49" d="M507,265.2c24.2-9.1,49.4-18.2,75.4-27.8c0.7-0.2,1.2-0.5,1.2-0.2c0.2,0,0.2,0.5,0,1.2
		c-1,2.2-1.7,3.4-2.2,3.8c-0.2,0.2-12.5,4.8-36.2,13.7c-24.2,8.9-37.9,14.4-40.6,16.1C505,269.7,505.8,267.6,507,265.2L507,265.2
		L507,265.2L507,265.2z"/>
	<path fill="#635E49" d="M483.4,221.2c0.5-1.4,0.5-2.9,0.2-4.3c-0.2-1.4-1-2.2-2.2-2.2c-0.5,0-1.2,0.2-2.2,0.7c-1,0.5-1.4,1-1.4,1.4
		C477.9,218.1,479.8,219.6,483.4,221.2L483.4,221.2L483.4,221.2L483.4,221.2z M480.6,227.5c-4.6-2.4-6.7-4.8-6.7-7.4
		c0-3.1,1.4-6,4.3-8.4c2.9-2.6,5.3-3.6,7.2-2.9c1.7,0.5,2.4,2.2,2.4,5c0,2.6-0.5,5.5-1.7,8.9c2.4,1.2,3.8,2.4,4.3,3.4
		c0,1.2-1,3.4-3.1,6.2c-0.5-1-1.9-2.2-4.1-3.4c-2.6,3.6-5.8,6.7-9.6,9.6c-4.6,3.1-8.6,5.8-12.2,7.2c-1,0.5-5.3,2.2-13,5
		c-1.2,0.5-2.2,0.7-2.4,0.7c-0.2,0-0.2-0.2-0.2-0.2c0-0.2,0.5-1,1.9-1.7c5.8-3.6,11.5-7,17.5-10.3
		C472.2,234.9,477.2,231.1,480.6,227.5L480.6,227.5L480.6,227.5L480.6,227.5z"/>
	<path fill="#635E49" d="M632.2,257.5c0.5-1.4,0.5-2.9,0.2-4.3c-0.2-1.4-1-2.2-2.2-2.2c-0.5,0-1.2,0.2-2.2,0.7c-1,0.5-1.4,1-1.4,1.4
		C626.7,254.4,628.6,255.8,632.2,257.5L632.2,257.5L632.2,257.5L632.2,257.5z M637.5,266.4c-2.4,5.8-3.6,10.3-3.6,13.7
		c0,4.1,1,6.2,3.1,6.2c1.2,0,2.6-1.7,4.3-4.6c0.2-0.2,0.2-0.5,0.5-0.7c0,0,0.2,0,0.2,0.2c0,0,0,0.2,0,0.7
		c-1.4,7.2-3.6,10.8-6.5,10.8c-3.1,0-4.6-2.6-4.6-7.9c0-2.6,0.5-6,1.9-10.3c1.4-4.3,2.2-6.5,2.2-6.7c0-0.5-1-1.4-3.1-2.6
		c-3.8,5-9.1,9.8-15.8,13.9c-4.6,2.6-9.1,5-13.9,7c-8.9,3.6-14.2,5.5-15.4,6.2c-1.2,0.5-1.9,0.7-2.4,0.7c-0.2,0-0.2-0.2-0.2-0.2
		c0-0.5,0.5-1,1.9-1.9c7.7-4.3,15.1-8.6,22.8-13c10.1-5.8,17-10.6,20.4-14.2c-4.6-2.4-6.7-4.8-6.7-7.4c0-3.1,1.4-6,4.3-8.6
		c2.9-2.4,5.3-3.4,7.2-2.6c1.4,0.5,2.4,2.2,2.4,5c0,2.6-0.5,5.5-1.7,8.6c2.4,1.4,3.4,2.9,3.4,4.3C638.2,263.7,638,264.9,637.5,266.4
		L637.5,266.4L637.5,266.4L637.5,266.4z"/>
	<path fill="#635E49" d="M528.3,231.6c0-0.2,0.2-0.5,0.2-0.5c0.2-0.2,0.2-0.2,0.2,0c0.2,0.2,0.2,0.5,0,0.7
		c-1.2,7.2-3.4,10.8-6.5,10.8c-3.1,0-4.6-2.6-4.6-7.9c0-6.5,1.7-13.4,5.5-20.4c1-1.7,1.4-2.6,1.7-2.6l0,0c0,0.2-0.2,1.2-0.7,2.9
		c-2.4,7.4-3.6,12.5-3.6,15.6c0,3.8,1,6,3.1,6C525.2,236.1,526.6,234.4,528.3,231.6L528.3,231.6L528.3,231.6L528.3,231.6z"/>
</g>
</svg>
