<?xml version="1.0" encoding="utf-8"?>
<!-- Generator: Adobe Illustrator 18.1.1, SVG Export Plug-In . SVG Version: 6.00 Build 0)  -->
<!DOCTYPE svg PUBLIC "-//W3C//DTD SVG 1.1//EN" "http://www.w3.org/Graphics/SVG/1.1/DTD/svg11.dtd">
<svg version="1.1" id="Layer_1" xmlns="http://www.w3.org/2000/svg" xmlns:xlink="http://www.w3.org/1999/xlink" x="0px" y="0px"
	 viewBox="0 0 792 612" enable-background="new 0 0 792 612" xml:space="preserve">
<g>
	<path fill="#635E49" d="M434.7,318c-1,3.1-2.6,7-4.8,11c-8.4,7-15.1,12-20.6,14.9c-9.1,5.3-18.5,7.9-27.8,7.9
		c-4.8,0-8.2-0.5-10.6-1.4l-3.1-14.6c-5.5-7.2-8.4-14.2-8.4-20.9c0-10.3,3.1-18.5,9.6-24c5.5-4.8,12.2-7.2,20.4-7.2
		c10.8,0,20.4,3.6,28.8,10.6c1.4,1.2,2.2,1.9,2.2,2.4c0,0.2-0.2,0.5-0.7,0.5c-0.7,0-1.9-0.2-3.4-0.7c-5.8-2.2-10.8-3.1-15.1-3.1
		c-6.5,0-13,1-19.9,2.9c-6.7,1.9-11.5,4.3-14.9,7c0.2,7,2.6,13.9,7.4,20.6c5.8,8.2,13.4,12.2,22.6,12.2c4.8,0,11-2.2,18.7-6.5
		c6-3.6,11.8-7.7,17-12.2c1.2-1,1.9-1.4,2.4-1.4C435.2,315.9,435.4,316.6,434.7,318L434.7,318L434.7,318L434.7,318z"/>
	<path fill="#635E49" d="M339.7,314.4c0-1.7-0.5-5.5-1.9-12c-1.4-6.5-2.9-12-4.3-16.6c-0.7-2.2-1-3.1-1-3.4c0-5.5,0.7-9.8,2.2-13.2
		c0.7-1.4,1.2-2.2,1.4-2.2c0.2,0,0.5,0.5,1,1.4c3.4,6.5,6.5,17.5,9.1,32.9c2.9,16.3,11,27.8,24.7,34.1v14.6
		c-15.8-6.5-25.2-16.8-27.8-30.5c-0.7,6-2.6,10.8-5.5,14.2c-2.6,3.4-5.5,5-8.6,5v-14.6C336.1,324.3,339.7,320.9,339.7,314.4
		L339.7,314.4L339.7,314.4L339.7,314.4z"/>
	<path fill="#635E49" d="M176.5,405.9c-14.6,0-25.4-4.8-32.2-14.9c-5.3-7.4-7.7-17-7.7-28.8c0-3.6,0.2-7.2,0.7-10.6
		c1-5.5,2.2-10.3,3.6-14.4c0.5-1.2,1.2-1.9,1.7-1.9c0.5,0,0.5,0.7,0.2,2.4c-2.4,12.2-3.4,19.2-3.4,20.6c0,7.4,2.4,14.4,7.4,20.6
		c6.7,8.2,16.6,12.2,29.3,12.2c11.5,0,23.5-2.4,36-7.7c10.3-4.3,19.7-9.6,28.1-15.8c7.4-5.8,11-9.8,11-12.2c0-7-2.2-14.9-6.7-23.3
		c-1-1.7-1.4-3.1-1.4-4.3c0-0.7,1-4.1,2.9-10.3c0.5-1,0.7-1.7,1.2-1.7c0.5,0,1.2,1,1.9,2.4c3.6,7.7,8.6,11.5,14.4,11.5
		c3.8,0,6.5-0.2,8.4-0.7c2.9-1,5.8-2.9,8.6-6c1.4-2.2,4.1-5.5,7.7-9.8c0.7-1,1.4-1.4,2.4-1.4c1,0,1.4,0.5,1.4,1.7
		c0,0.5-0.2,1.4-0.7,2.6c-0.2,1.4-0.5,2.4-0.5,3.1c0,1.4,0.7,2.9,2.4,4.6c1.9,2.2,4.3,3.4,7.4,3.1c4.6,0.2,9.4-5.5,14.2-16.8
		c0.5-1,1.2-1.4,1.7-1.4c1.2,0,1.7,0.7,1.2,2.4c0,1-0.2,2.2-0.2,3.1c0,6.7,3.8,10.1,11.5,10.1v14.6c-7.4,0-12.5-4.1-15.1-12
		c-0.2-0.7-0.5-0.7-1,0c-3.4,9.8-8.4,14.9-15.1,14.6c-2.4,0.2-4.8-0.7-7.2-2.4c-2.9-1.9-4.8-4.6-6-7.7c-0.2-1-0.7-1-1.2,0
		c-1.4,2.2-3.8,4.8-7.2,7.2c-4.8,3.8-9.4,5.5-13.9,5.5c-2.2,0-4.1-0.2-5.8-0.7c0,12.7-2.4,21.8-7.4,27.6
		c-6.5,7.4-15.8,14.6-28.3,21.6C205,401.6,190.2,405.9,176.5,405.9L176.5,405.9L176.5,405.9L176.5,405.9z"/>
	<path fill="#635E49" d="M328.2,366.8c-0.2-0.2-0.2-0.5,0-1l4.6-9.6c0.2-0.5,0.7-0.7,1-0.7c0.5,0,2.6,1.2,6.2,3.6
		c3.8,2.6,5.8,4.1,5.8,4.6c0,1.7-1.7,5-5,10.3c-0.5,0.7-0.7,1-1.2,0.7C335.9,371.8,332,369.2,328.2,366.8L328.2,366.8L328.2,366.8
		L328.2,366.8z"/>
	<path fill="#635E49" d="M362.2,252.3c24.2-9.1,49.4-18.2,75.4-27.8c0.7-0.2,1.2-0.5,1.2-0.2c0.2,0,0.2,0.5,0,1.2
		c-1,2.2-1.7,3.4-2.2,3.8c-0.2,0.2-12.5,4.8-36.2,13.7c-24.2,8.9-37.9,14.4-40.6,16.1C360.3,256.9,361,254.7,362.2,252.3
		L362.2,252.3L362.2,252.3L362.2,252.3z"/>
	<path fill="#635E49" d="M293.4,253.2c40.6-15.4,81.8-30.7,124.1-46.6c0.7-0.2,1.2-0.5,1.2-0.2c0.2,0,0.2,0.5,0,1.2
		c-1,2.2-1.7,3.4-2.2,3.8C377.9,225.9,335.9,242,291,260C291.4,257.8,292.2,255.6,293.4,253.2L293.4,253.2L293.4,253.2L293.4,253.2z
		"/>
	<path fill="#635E49" d="M162.6,284c7.2-3.4,32.2-13.2,75.1-29.5c33.4-12.2,67-25,101.3-37.7c1-0.2,1.2-0.5,1.4-0.2
		c0,0,0,0.5-0.2,1.2c-1,1.9-1.7,3.1-2.4,3.8c-17.3,6.7-50.2,19.2-98.9,37.7c-47,18-73.4,28.6-78.7,31.7
		C160.7,288.8,161.4,286.4,162.6,284L162.6,284L162.6,284L162.6,284z"/>
	<path fill="#635E49" d="M147.4,326c0-0.2,0.2-0.5,0.2-0.5c0.2-0.2,0.2-0.2,0.2,0c0.2,0.2,0.2,0.5,0,0.7c-1.2,7.2-3.4,10.8-6.5,10.8
		c-3.1,0-4.6-2.6-4.6-7.9c0-6.5,1.7-13.4,5.5-20.4c1-1.7,1.4-2.6,1.7-2.6l0,0c0,0.2-0.2,1.2-0.7,2.9c-2.4,7.4-3.6,12.5-3.6,15.6
		c0,3.8,1,6,3.1,6C144.3,330.5,145.8,328.9,147.4,326L147.4,326L147.4,326L147.4,326z"/>
	<path fill="#635E49" d="M373.8,401.3c4.8,0,9.8-1,15.6-2.6c1.4-0.5,2.2-0.5,2.2-0.2c0,0.2-0.5,0.7-1.7,1.7
		c-4.8,4.3-11.3,6.7-19,6.7c-2.2,0-4.3-0.7-5.8-1.9c-1.4-1.2-2.2-2.9-2.2-4.8c0-5,2.2-10.3,6.5-15.8c-3.8-1.2-5.8-3.1-5.8-6
		c0-2.6,1.4-5.5,4.6-8.9c3.1-3.4,5.5-5,7.4-5c0.5,0,1,0.2,1.4,1.2c0.5,0.7,0.7,1.4,0.7,2.4c0,0.5-0.5,1.4-1.4,2.9
		c-1,1.4-1.7,1.9-1.7,1.7c-0.5-1.4-1.2-2.2-2.6-2.2c-0.7,0-1.4,0.5-2.4,1.7c-1.2,1.2-1.7,2.2-1.7,2.9c1.2,1.9,3.4,3.1,6.2,3.1
		c1,0,2.6-1,4.6-2.9c1.4-1,2.6-2.2,3.8-3.4c0.5-0.2,0.7,0,0.7,1c0,2.4-1,4.6-2.4,7c-6.5,4.3-11.3,9.4-14.4,14.9
		c-0.5,1.2-0.7,2.2-0.7,2.9C365.9,399.9,368.5,401.3,373.8,401.3L373.8,401.3L373.8,401.3L373.8,401.3z"/>
	<path fill="#635E49" d="M199,335.8c2.9,0,5.3,1.4,7.4,4.8c2.2,3.1,3.8,7.4,4.6,12.7c0.2,0.5,0.2,0.7,0.2,1h0.2c0-0.2,0.2-0.5,0.2-1
		c0.5-3.1,1.7-7.9,3.4-14.2c1.9-4.3,3.8-6.5,6-6.5c1.2,0,2.4,0.7,3.4,2.2c1,1.4,1.4,2.4,1.4,3.4c0,0.5,0,1.4-0.5,2.4
		c-0.5,1.4-1,2.2-1.4,2.2c-0.2,0-0.7-0.7-1.7-1.7c-0.7-1-1.7-1.4-2.6-1.4c-1.9,0-3.6,4.6-5.3,13.7c-0.7,4.1-1.7,7-2.4,8.6
		c-0.7,1-1.2,1.7-1.7,1.7c-0.5,0-0.5-0.7-0.7-1.7c0.2-1.7-0.7-4.8-2.6-9.4c-1.9-4.8-3.1-7-4.1-7c-0.5,0-0.7,0-1,0.5
		c-0.2,0.2-0.5,0.5-1.2,0.5c-1,0-1.9-0.7-3.4-1.9c-1.4-1.2-1.9-2.2-1.9-2.9c0-0.2,0.5-1.4,1.7-3.4
		C198.1,336.5,198.8,335.8,199,335.8L199,335.8L199,335.8L199,335.8z"/>
	<path fill="#635E49" d="M418.9,258.5c0,2.6-1.2,5.5-3.1,8.6c-2.2,3.1-4.8,6-8.2,8.4c-1.4,1-2.2,1.4-2.4,1.4v-0.2
		c0-0.2,0.5-0.7,1.4-1.9c5.5-6,8.4-9.8,8.4-12c0-1.7-1-2.6-2.6-2.6c-1,0-1.9,0.2-2.6,0.7c-0.7,0.2-1,0.5-1.2,0.5c0,0-0.2,0-0.2-0.2
		c0,0,0-0.5,0.2-1.4c1-4.1,2.9-6,6.2-6C417.4,253.7,418.9,255.4,418.9,258.5L418.9,258.5L418.9,258.5L418.9,258.5z"/>
	<path fill="#635E49" d="M213.2,307c-2.6,0.7-4.1,1.2-4.6,1.2V308c0,0,1-0.7,2.9-1.9c1.9-1.2,4.8-3.1,8.9-6.2c1.9-1.9,4.8-5,8.4-9.4
		c2.4-2.9,5-5.5,7.9-7.4c3.6-2.6,7-3.8,10.6-3.8c0.7,0,1.9,0.2,3.4,0.7c1.2,0.5,2.4,0.7,3.4,0.7c1.9,0,3.4-0.7,4.6-2.2
		c0.7-1.4,1.7-2.6,2.6-4.1c0.5-1,1.2-1.4,1.7-1.4c0.2,0,0.2,0.2,0.2,0.7c0,0.5-0.2,1.7-0.7,3.1c-0.5,0.7,1.4,1,5,1
		c0.5,0,0.7,0,0.7-0.2c0,0-0.2-1-0.7-2.6c-0.2-0.5,0-1.2,0.7-2.2c1-1.7,1.4-2.4,1.7-2.2c1,0.7,1.4,2.2,1.4,3.8s-0.5,3.4-1.2,5.3
		c-0.7,2.2-1.4,3.4-1.9,3.8c-1.7,1-4.3,0.7-7.9-1c-2.9,2.9-5.8,4.6-8.6,4.6c-0.7,0-1.9-0.2-3.1-0.7c-1.2-0.5-2.2-0.7-2.9-0.7
		c-4.8,0-9.8,2.2-14.9,7c-3.6,3.6-7.2,7.2-10.8,10.8C217.8,305.1,215.6,306.3,213.2,307L213.2,307L213.2,307L213.2,307z"/>
	<path fill="#635E49" d="M308,280.4c0,2.6-1.2,5.5-3.1,8.6c-2.2,3.1-4.8,6-8.2,8.4c-1.4,1-2.2,1.4-2.4,1.4v-0.2
		c0-0.2,0.5-0.7,1.4-1.9c5.5-6,8.4-9.8,8.4-12c0-1.7-1-2.6-2.6-2.6c-1,0-1.9,0.2-2.6,0.7c-0.7,0.2-1,0.5-1.2,0.5c0,0-0.2,0-0.2-0.2
		c0,0,0-0.5,0.2-1.4c1-4.1,2.9-6,6.2-6C306.6,275.6,308,277.2,308,280.4L308,280.4L308,280.4L308,280.4z"/>
	<path fill="#635E49" d="M194.5,227.8c2.9,0,5.3,1.4,7.4,4.8c2.2,3.1,3.8,7.4,4.6,12.7c0.2,0.5,0.2,0.7,0.2,1h0.2
		c0-0.2,0.2-0.5,0.2-1c0.5-3.1,1.7-7.9,3.4-14.2c1.9-4.3,3.8-6.5,6-6.5c1.2,0,2.4,0.7,3.4,2.2c1,1.4,1.4,2.4,1.4,3.4
		c0,0.5,0,1.4-0.5,2.4c-0.5,1.4-1,2.2-1.4,2.2c-0.2,0-0.7-0.7-1.7-1.7c-0.7-1-1.7-1.4-2.6-1.4c-1.9,0-3.6,4.6-5.3,13.7
		c-0.7,4.1-1.7,7-2.4,8.6c-0.7,1-1.2,1.7-1.7,1.7c-0.5,0-0.5-0.7-0.7-1.7c0.2-1.7-0.7-4.8-2.6-9.4c-1.9-4.8-3.1-7-4.1-7
		c-0.5,0-0.7,0-1,0.5c-0.2,0.2-0.5,0.5-1.2,0.5c-1,0-1.9-0.7-3.4-1.9c-1.4-1.2-1.9-2.2-1.9-2.9c0-0.2,0.5-1.4,1.7-3.4
		C193.5,228.5,194.2,227.8,194.5,227.8L194.5,227.8L194.5,227.8L194.5,227.8z"/>
	<path fill="#635E49" d="M278,216c0,2.6-1.2,5.5-3.1,8.6c-2.2,3.1-4.8,6-8.2,8.4c-1.4,1-2.2,1.4-2.4,1.4v-0.2c0-0.2,0.5-0.7,1.4-1.9
		c5.5-6,8.4-9.8,8.4-12c0-1.7-1-2.6-2.6-2.6c-1,0-1.9,0.2-2.6,0.7c-0.7,0.2-1,0.5-1.2,0.5c0,0-0.2,0-0.2-0.2c0,0,0-0.5,0.2-1.4
		c1-4.1,2.9-6,6.2-6C276.6,211.2,278,212.9,278,216L278,216L278,216L278,216z"/>
	<path fill="#635E49" d="M188,310.4c0-0.2,0.2-0.5,0.2-0.5c0.2-0.2,0.2-0.2,0.2,0c0.2,0.2,0.2,0.5,0,0.7c-1.2,7.2-3.4,10.8-6.5,10.8
		s-4.6-2.6-4.6-7.9c0-6.5,1.7-13.4,5.5-20.4c1-1.7,1.4-2.6,1.7-2.6l0,0c0,0.2-0.2,1.2-0.7,2.9c-2.4,7.4-3.6,12.5-3.6,15.6
		c0,3.8,1,6,3.1,6C184.9,314.9,186.3,313.2,188,310.4L188,310.4L188,310.4L188,310.4z"/>
	<path fill="#635E49" d="M181.3,347.8c0,2.6-1.2,5.5-3.1,8.6c-2.2,3.1-4.8,6-8.2,8.4c-1.4,1-2.2,1.4-2.4,1.4V366
		c0-0.2,0.5-0.7,1.4-1.9c5.5-6,8.4-9.8,8.4-12c0-1.7-1-2.6-2.6-2.6c-1,0-1.9,0.2-2.6,0.7c-0.7,0.2-1,0.5-1.2,0.5c0,0-0.2,0-0.2-0.2
		c0,0,0-0.5,0.2-1.4c1-4.1,2.9-6,6.2-6C179.9,343,181.3,344.7,181.3,347.8L181.3,347.8L181.3,347.8L181.3,347.8z"/>
	<path fill="#635E49" d="M257.4,380c2.9,0,5.3,1.4,7.4,4.8c2.2,3.1,3.8,7.4,4.6,12.7c0.2,0.5,0.2,0.7,0.2,1h0.2c0-0.2,0.2-0.5,0.2-1
		c0.5-3.1,1.7-7.9,3.4-14.2c1.9-4.3,3.8-6.5,6-6.5c1.2,0,2.4,0.7,3.4,2.2c1,1.4,1.4,2.4,1.4,3.4c0,0.5,0,1.4-0.5,2.4
		c-0.5,1.4-1,2.2-1.4,2.2c-0.2,0-0.7-0.7-1.7-1.7c-0.7-1-1.7-1.4-2.6-1.4c-1.9,0-3.6,4.6-5.3,13.7c-0.7,4.1-1.7,7-2.4,8.6
		c-0.7,1-1.2,1.7-1.7,1.7c-0.5,0-0.5-0.7-0.7-1.7c0.2-1.7-0.7-4.8-2.6-9.4c-1.9-4.8-3.1-7-4.1-7c-0.5,0-0.7,0-1,0.5
		c-0.2,0.2-0.5,0.5-1.2,0.5c-1,0-1.9-0.7-3.4-1.9c-1.4-1.2-1.9-2.2-1.9-2.9c0-0.2,0.5-1.4,1.7-3.4C256.4,380.7,257.1,380,257.4,380
		L257.4,380L257.4,380L257.4,380z"/>
	<path fill="#635E49" d="M319.8,397c0-0.2,0.2-0.5,0.2-0.5c0.2-0.2,0.2-0.2,0.2,0c0.2,0.2,0.2,0.5,0,0.7c-1.2,7.2-3.4,10.8-6.5,10.8
		c-3.1,0-4.6-2.6-4.6-7.9c0-6.5,1.7-13.4,5.5-20.4c1-1.7,1.4-2.6,1.7-2.6l0,0c0,0.2-0.2,1.2-0.7,2.9c-2.4,7.4-3.6,12.5-3.6,15.6
		c0,3.8,1,6,3.1,6C316.7,401.6,318.1,399.9,319.8,397L319.8,397L319.8,397L319.8,397z"/>
	<path fill="#635E49" d="M596.2,318c1.2-1,2.2-1.4,2.9-1.4c0.5,0,0.7,0.5,0.7,1.4c0,0.7-0.2,2.2-0.7,4.1c-0.5,1.9-0.7,3.4-0.7,4.6
		c0,5.3,3.8,8.2,11.3,8.2c6,0,11-2.6,14.9-7.7c2.4-4.1,5-7.9,7.4-11.8c1-1,1.7-1.4,2.4-1.4c1,0,1.2,1,0.7,3.1c-1,4.1-1.7,6-1.7,5.5
		c0,1.7,1,3.4,2.9,4.8c1.7,1.4,4.1,2.4,6.7,2.4c3.4,0,5.5-1,6.5-2.6c0-0.2-1-2.2-3.1-5.8c0.2-1.9,1.2-5.3,2.6-9.8
		c0.2-1.4,0.7-2.2,1.2-2.2c0.5,0,1,0.2,1.7,1.2c1.9,2.9,3.1,6.2,3.1,10.1c0,6-1.4,11-4.1,15.4c-2.9,5.3-7.2,7.9-13,7.9
		c-3.8,0-7.4-3.1-10.6-8.9c-5.3,9.6-12.2,14.4-20.6,14.4c-10.1,0-14.9-5.8-14.9-16.8c-3.8,4.6-10.3,8.6-18.7,12.5V332
		c6.2-3.1,10.3-5,11.5-5.8C588.6,324.3,592.4,321.4,596.2,318L596.2,318L596.2,318L596.2,318z"/>
	<path fill="#635E49" d="M559.5,333.9c-3.6-4.6-6.7-6.7-9.6-6.7c-4.3,0-6.2,1-6.2,3.4c0,2.9,2.9,4.3,8.6,4.3
		C554.5,334.9,556.9,334.4,559.5,333.9L559.5,333.9L559.5,333.9L559.5,333.9z M567,351.4c0-1.4-0.5-3.1-1-4.8
		c-2.9,1-7.2,1.7-12.5,1.7c-11.5,0-17.3-4.1-17.3-12c0-6,1.7-11.3,5.5-16.1c3.6-4.1,7.4-6.2,11.5-6.2c3.1,0,6.2,1.9,9.8,5.5
		c3.1,3.6,6,7.7,8.4,12.7c0.2,0,0.7,0,1.7-0.5v13.2l-0.5,0.5c0,2.9-0.7,6.2-2.2,10.6c-1.7,5.5-4.3,10.1-7.4,13.7
		c-7.2,8.6-15.1,16.1-23.8,22.6c-13,9.6-24,14.6-33.6,14.6c-8.2,0-14.4-3.1-18.7-9.1c-3.8-5-5.8-11.8-5.8-19.7
		c0-10.1,2.2-20.4,6.2-31.2c1.2-2.4,1.7-3.4,2.2-3.4c0.2,0,0.2,0.2,0.2,0.7c0,0.7-0.2,1.9-0.5,3.4c-3.1,10.6-4.6,18.5-4.6,24
		c0,5,1.2,9.4,3.6,13c3.8,5,9.8,7.7,18.2,7.7c7.2,0,15.8-3.1,26.2-9.4c8.2-5,16.1-11,23.8-18.2C563.4,357.9,567,353.6,567,351.4
		L567,351.4L567,351.4L567,351.4z"/>
	<path fill="#635E49" d="M501.4,315.2c-0.5-2.2-1.2-3.8-2.2-5c-0.7-1.4-1.2-2.2-1.4-2.6c0-0.5,0-2.2,0.5-5.5
		c0.5-3.1,0.7-5.3,1.2-6.5c0.2-1.2,0.5-1.7,1-1.7c0.2,0,0.5,0.2,1,0.7c3.4,3.8,7,7.7,11,11.8c1.7,1.7,2.4,2.6,2.4,3.1
		c0,0.2-0.2,0.5-0.7,0.5c-0.7,0-2.6-0.5-5.5-1.2c1.7,4.1,3.6,8.2,5.3,12c2.6,6.7,4.1,12.2,4.1,17.3c0,2.4-0.5,5.3-1.4,8.9
		c-1.2,4.1-2.6,7.2-4.6,9.4c-7,7.9-18.7,16.6-35.3,25.9c-14.4,8.4-22.8,12.5-25.4,12.5c-0.5,0-7.7,1.7-21.4,5
		c-14.4,3.4-23.5,5.5-27.1,6c-3.8,0.7-6.2,1-7.2,1c-0.5,0-0.5,0-0.5-0.2c0-0.2,2.6-1.7,7.9-4.1c1.9-1,13-5.8,33.4-14.4
		c14.2-6,25.9-11.5,35.3-16.6c14.2-7.7,25-14.4,32.4-19.9c5.5-4.3,8.4-7.4,8.4-9.4c0-0.5-1.4-3.8-4.3-10.1
		C505,325,502.7,319.2,501.4,315.2L501.4,315.2L501.4,315.2L501.4,315.2z"/>
	<path fill="#635E49" d="M481.8,281.8c0,3.8-1.9,9.1-5.8,15.6c-2.4,4.1-6,9.6-10.8,16.8c4.8,5.5,8.2,10.6,9.8,14.9
		c1,3.1,1.7,7.2,1.7,11.8c0,1.9-0.5,4.3-1.4,7.4c-0.7,2.9-1.7,5-2.6,6.5c-1.9,2.9-5,5.8-9.8,8.6c-5,3.4-9.4,5-13,5
		c-5.8,0-8.6-4.3-8.6-13c0-5.8,1-11.5,2.9-16.8c1.9-4.6,5-10.6,10.1-18.5c-4.3-4.1-8.9-9.8-13.9-17c-0.5-0.7-1.7-1.9-3.6-3.8
		c-1-1-1.4-2.2-1.4-3.6c0-2.2,0.2-4.6,0.7-7.4c0.7-2.9,1.2-4.1,1.4-4.1c0.7,0,2.9,1.2,7,3.8c3.8,2.6,7,4.6,8.9,6.2
		c1.2,0.7,1.7,1.4,1.7,1.4v0.2c0,0.2-0.7,0.5-2.4,0.5c-3.1,0-4.8,0.2-4.8,0.5c0,0.2,0.5,0.7,1.4,1.9c3.8,4.8,7.7,8.4,11.8,11.3
		c1-1.4,4.3-6.2,9.6-14.4c4.6-7,7.2-11.8,8.4-14.6c1.2-2.9,1.9-4.1,2.4-4.1C481.5,277,481.8,278.4,481.8,281.8L481.8,281.8
		L481.8,281.8L481.8,281.8z M472.4,340.9c-2.6-5.3-7.2-10.8-13.4-16.1c-2.2,2.2-4.8,6.2-8.2,12c-3.8,6.5-5.5,10.6-5.5,12.7
		c0,2.9,1.9,4.3,6.2,4.3c1.9,0,4.3-0.7,7.4-1.9c4.3-1.9,8.4-4.6,11.8-7.9C472.2,342.5,472.7,341.6,472.4,340.9L472.4,340.9
		L472.4,340.9L472.4,340.9z"/>
	<path fill="#635E49" d="M459.2,263.8l3.8-7.9c0.2-0.5,0.5-0.7,1-0.7c0.5,0,2.4,1.2,6.2,3.8c3.6,2.4,5.5,3.8,5.5,4.3
		c0,1.7-1.7,5.3-4.8,10.6c-0.5,0.7-1,0.7-1.4,0.5c-3.1-2.4-6.7-4.8-10.8-7.4c-1.4,2.9-2.6,5.5-4.1,7.7c-0.2,0.7-0.7,1-1.2,0.7
		c-3.6-2.9-7.4-5.5-11.3-7.9c-0.2-0.2-0.2-0.5,0-1l4.6-9.6c0.2-0.5,0.7-1,1-1c0.5,0,2.2,1.2,5.3,3.4
		C456.1,261.2,458.2,262.9,459.2,263.8L459.2,263.8L459.2,263.8L459.2,263.8z"/>
	<path fill="#635E49" d="M585.4,397.7c-2.6,0.7-4.1,1.2-4.6,1.2v-0.2c0,0,1-0.7,2.9-1.9c1.9-1.2,4.8-3.1,8.9-6.2
		c1.9-1.9,4.8-5,8.4-9.4c2.4-2.9,5-5.5,7.9-7.4c3.6-2.6,7-3.8,10.6-3.8c0.7,0,1.9,0.2,3.4,0.7c1.2,0.5,2.4,0.7,3.4,0.7
		c1.9,0,3.4-0.7,4.6-2.2c0.7-1.4,1.7-2.6,2.6-4.1c0.5-1,1.2-1.4,1.7-1.4c0.2,0,0.2,0.2,0.2,0.7c0,0.5-0.2,1.7-0.7,3.1
		c-0.5,0.7,1.4,1,5,1c0.5,0,0.7,0,0.7-0.2c0,0-0.2-1-0.7-2.6c-0.2-0.5,0-1.2,0.7-2.2c1-1.7,1.4-2.4,1.7-2.2c1,0.7,1.4,2.2,1.4,3.8
		s-0.5,3.4-1.2,5.3c-0.7,2.2-1.4,3.4-1.9,3.8c-1.7,1-4.3,0.7-7.9-1c-2.9,2.9-5.8,4.6-8.6,4.6c-0.7,0-1.9-0.2-3.1-0.7
		c-1.2-0.5-2.2-0.7-2.9-0.7c-4.8,0-9.8,2.2-14.9,7c-3.6,3.6-7.2,7.2-10.8,10.8C590,395.8,587.9,397,585.4,397.7L585.4,397.7
		L585.4,397.7L585.4,397.7z"/>
	<path fill="#635E49" d="M534.1,268.1c2.9,0,5.3,1.4,7.4,4.8c2.2,3.1,3.8,7.4,4.6,12.7c0.2,0.5,0.2,0.7,0.2,1h0.2
		c0-0.2,0.2-0.5,0.2-1c0.5-3.1,1.7-7.9,3.4-14.2c1.9-4.3,3.8-6.5,6-6.5c1.2,0,2.4,0.7,3.4,2.2c1,1.4,1.4,2.4,1.4,3.4
		c0,0.5,0,1.4-0.5,2.4c-0.5,1.4-1,2.2-1.4,2.2c-0.2,0-0.7-0.7-1.7-1.7c-0.7-1-1.7-1.4-2.6-1.4c-1.9,0-3.6,4.6-5.3,13.7
		c-0.7,4.1-1.7,7-2.4,8.6c-0.7,1-1.2,1.7-1.7,1.7c-0.5,0-0.5-0.7-0.7-1.7c0.2-1.7-0.7-4.8-2.6-9.4c-1.9-4.8-3.1-7-4.1-7
		c-0.5,0-0.7,0-1,0.5c-0.2,0.2-0.5,0.5-1.2,0.5c-1,0-1.9-0.7-3.4-1.9c-1.4-1.2-1.9-2.2-1.9-2.9c0-0.2,0.5-1.4,1.7-3.4
		C533.1,268.9,533.9,268.1,534.1,268.1L534.1,268.1L534.1,268.1L534.1,268.1z"/>
	<path fill="#635E49" d="M493.3,265c24.2-9.1,49.4-18.2,75.4-27.8c0.7-0.2,1.2-0.5,1.2-0.2c0.2,0,0.2,0.5,0,1.2
		c-1,2.2-1.7,3.4-2.2,3.8c-0.2,0.2-12.5,4.8-36.2,13.7c-24.2,8.9-37.9,14.4-40.6,16.1C491.4,269.6,492.1,267.4,493.3,265L493.3,265
		L493.3,265L493.3,265z"/>
	<path fill="#635E49" d="M469.8,221.1c0.5-1.4,0.5-2.9,0.2-4.3c-0.2-1.4-1-2.2-2.2-2.2c-0.5,0-1.2,0.2-2.2,0.7c-1,0.5-1.4,1-1.4,1.4
		C464.2,218,466.2,219.4,469.8,221.1L469.8,221.1L469.8,221.1L469.8,221.1z M466.9,227.3c-4.6-2.4-6.7-4.8-6.7-7.4
		c0-3.1,1.4-6,4.3-8.4c2.9-2.6,5.3-3.6,7.2-2.9c1.7,0.5,2.4,2.2,2.4,5c0,2.6-0.5,5.5-1.7,8.9c2.4,1.2,3.8,2.4,4.3,3.4
		c0,1.2-1,3.4-3.1,6.2c-0.5-1-1.9-2.2-4.1-3.4c-2.6,3.6-5.8,6.7-9.6,9.6c-4.6,3.1-8.6,5.8-12.2,7.2c-1,0.5-5.3,2.2-13,5
		c-1.2,0.5-2.2,0.7-2.4,0.7c-0.2,0-0.2-0.2-0.2-0.2c0-0.2,0.5-1,1.9-1.7c5.8-3.6,11.5-7,17.5-10.3
		C458.5,234.8,463.5,230.9,466.9,227.3L466.9,227.3L466.9,227.3L466.9,227.3z"/>
	<path fill="#635E49" d="M618.6,257.3c0.5-1.4,0.5-2.9,0.2-4.3c-0.2-1.4-1-2.2-2.2-2.2c-0.5,0-1.2,0.2-2.2,0.7c-1,0.5-1.4,1-1.4,1.4
		C613,254.2,615,255.6,618.6,257.3L618.6,257.3L618.6,257.3L618.6,257.3z M623.9,266.2c-2.4,5.8-3.6,10.3-3.6,13.7
		c0,4.1,1,6.2,3.1,6.2c1.2,0,2.6-1.7,4.3-4.6c0.2-0.2,0.2-0.5,0.5-0.7c0,0,0.2,0,0.2,0.2c0,0,0,0.2,0,0.7
		c-1.4,7.2-3.6,10.8-6.5,10.8c-3.1,0-4.6-2.6-4.6-7.9c0-2.6,0.5-6,1.9-10.3c1.4-4.3,2.2-6.5,2.2-6.7c0-0.5-1-1.4-3.1-2.6
		c-3.8,5-9.1,9.8-15.8,13.9c-4.6,2.6-9.1,5-13.9,7c-8.9,3.6-14.2,5.5-15.4,6.2c-1.2,0.5-1.9,0.7-2.4,0.7c-0.2,0-0.2-0.2-0.2-0.2
		c0-0.5,0.5-1,1.9-1.9c7.7-4.3,15.1-8.6,22.8-13c10.1-5.8,17-10.6,20.4-14.2c-4.6-2.4-6.7-4.8-6.7-7.4c0-3.1,1.4-6,4.3-8.6
		c2.9-2.4,5.3-3.4,7.2-2.6c1.4,0.5,2.4,2.2,2.4,5c0,2.6-0.5,5.5-1.7,8.6c2.4,1.4,3.4,2.9,3.4,4.3
		C624.6,263.6,624.3,264.8,623.9,266.2L623.9,266.2L623.9,266.2L623.9,266.2z"/>
	<path fill="#635E49" d="M514.7,231.2c0-0.2,0.2-0.5,0.2-0.5c0.2-0.2,0.2-0.2,0.2,0c0.2,0.2,0.2,0.5,0,0.7
		c-1.2,7.2-3.4,10.8-6.5,10.8c-3.1,0-4.6-2.6-4.6-7.9c0-6.5,1.7-13.4,5.5-20.4c1-1.7,1.4-2.6,1.7-2.6l0,0c0,0.2-0.2,1.2-0.7,2.9
		c-2.4,7.4-3.6,12.5-3.6,15.6c0,3.8,1,6,3.1,6C511.5,235.7,513,234,514.7,231.2L514.7,231.2L514.7,231.2L514.7,231.2z"/>
</g>
</svg>
