<?xml version="1.0" encoding="utf-8"?>
<!-- Generator: Adobe Illustrator 18.1.1, SVG Export Plug-In . SVG Version: 6.00 Build 0)  -->
<!DOCTYPE svg PUBLIC "-//W3C//DTD SVG 1.1//EN" "http://www.w3.org/Graphics/SVG/1.1/DTD/svg11.dtd">
<svg version="1.1" id="Layer_1" xmlns="http://www.w3.org/2000/svg" xmlns:xlink="http://www.w3.org/1999/xlink" x="0px" y="0px"
	 viewBox="0 0 792 612" enable-background="new 0 0 792 612" xml:space="preserve">
<g>
	<path fill="#635E49" d="M479.3,237.4c0-4.8-0.7-8.6-2.2-11.8c0-1.7,1.2-5.8,4.1-12c0.2-0.7,0.5-1.2,0.7-1.2c0.5,0,0.7,0.5,1.2,1.2
		c0.7,1.7,2.4,6.2,5.3,13.7c3.1,7.9,4.8,12.7,5.3,14.6c0.5,1.2,0.5,2.4,0.5,2.9c0,2.2-1.9,1-6.2-3.8c-0.5-0.7-0.7-0.2-0.7,1
		c0,0.5,1.2,15.4,3.4,45.1c2.2,29.5,3.1,46.1,3.1,49.9c0,11.3-1.7,21.4-5,30c-1,1.7-1.4,2.9-1.9,3.8l0,0c-0.7,1.2-1,1.2-1.2,0.5
		c-0.2-1,0-2.9,0.2-5.5c0.5-4.1,0.7-8.6,0.7-13.7c0-4.8-1.2-24-3.6-57.8C480.5,260.4,479.3,241.4,479.3,237.4L479.3,237.4
		L479.3,237.4L479.3,237.4z"/>
	<path fill="#635E49" d="M446.2,340.6c-3.1-12-5.8-33.4-7.9-63.8c-1.4-18.5-2.2-35-2.2-49.4c0-4.6-0.7-8.4-2.2-11.5
		c0-1.7,1.2-5.8,4.1-12.2c0.2-0.7,0.7-1,1-1c0.2,0,0.5,0.2,1,1.2c0.7,1.7,2.6,6.2,5.5,13.7c2.9,7.9,4.6,12.7,5,14.2
		c0.5,1.7,0.7,2.9,0.7,3.4c0,2.2-2.2,1-6.2-3.8c-0.5-0.7-0.7-0.2-0.7,1c0,6.2,0.7,21.6,2.2,45.6c1.7,31,4.3,50.9,7.4,59.8
		c0,0.5-1,1.2-2.9,2.2c-1.9,1-3.4,1.4-4.3,1.4C446.4,341,446.2,340.8,446.2,340.6L446.2,340.6L446.2,340.6L446.2,340.6z"/>
	<path fill="#635E49" d="M470.2,354.5c1.9,0,2.9-0.5,2.9-1.4c0-1.4-1.2-2.9-4.1-4.1c-1.9-0.7-5-0.7-9.6,0
		C461.8,352.8,465.4,354.5,470.2,354.5L470.2,354.5L470.2,354.5L470.2,354.5z M449,352.8c-1.9,1.2-8.2,4.1-18,8.2v-13.2
		c2.9-1.7,7.9-4.1,14.6-7.2l7-3.1c5-2.2,10.3-3.4,15.8-3.4c3.6,0,6.7,1.7,8.9,5c2.4,3.6,3.4,8.2,3.4,13.7c0,4.8-1,8.6-2.9,11.8
		c-2.2,3.1-4.8,4.6-8.2,4.6c-4.6,0-8.9-1.9-13.2-6C453.4,360.2,451,356.6,449,352.8L449,352.8L449,352.8L449,352.8z"/>
	<path fill="#635E49" d="M413.8,338.2c1.2-0.7,1.7-1.4,1-2.6c-4.8-10.1-10.8-15.1-18-15.1c-14.9,0-32.9,11.8-53.8,35.3
		C368.6,355.7,392.2,349.9,413.8,338.2L413.8,338.2L413.8,338.2L413.8,338.2z M337.7,355.2c4.3-4.8,7.9-9.4,11-13.4
		c1-1.2,1.4-3.4,1.7-6c0,0,0-5.3,0-16.1c0-1.7-1-15.6-3.1-41.5c-1.9-25.7-2.9-39.8-2.9-42.5c0.2-4.3-0.5-8.2-2.2-11.5
		c0-1.7,1.4-5.8,4.1-12.2c0.5-0.7,0.7-1.2,1-1.2c0.2,0,0.7,0.5,1,1.2c1,1.7,2.6,6.2,5.5,13.7c2.9,7.9,4.8,12.7,5.3,14.6
		c0.2,1.4,0.5,2.4,0.5,3.1c0,2.2-2.2,0.7-6.2-4.1c-0.5-0.5-0.7,0-0.7,1c0,0.2,1,10.6,2.6,30.5c1.7,20.4,2.6,31.9,2.6,34.6
		c0,5.5-1,15.6-3.1,30.2c19.4-19.4,35.5-29,48-29c5.8,0,11,3.1,15.4,9.4c3.8,5,5.5,9.4,5.5,12.7c0,3.6-1.7,7.7-5,12.2
		c-3.6,5.3-8.6,9.6-14.9,13.4c12-1.7,21.1-4.1,27.4-6.7v13.2c-3.6,1.4-10.1,3.1-19.7,4.8c-16.1,2.9-33.6,4.1-53,4.1
		c-16.1,0-27.8-1.4-35.3-4.3v-14.6C329.3,353.5,334.3,355.2,337.7,355.2L337.7,355.2L337.7,355.2L337.7,355.2z"/>
	<path fill="#635E49" d="M323,365c-7.2-2.6-12.5-5.3-16.3-7.7c-10.6,7-21.6,10.6-32.9,10.6v-14.6c9.8,0,18-1.9,24.5-5.3
		c-1.2-2.6-1.9-6-1.9-10.3c0-7,2.6-13.7,7.7-20.6c4.8-6.2,8.9-9.4,12.2-9.4c3.1,0,5.5,2.2,7.2,6.7c1.4,3.6,1.9,7.4,1.9,11.5
		c0,4.6-0.7,9.1-2.2,13.9c-1.4,3.8-2.9,6.7-4.3,8.6c1,0.5,2.4,1.2,4.1,1.9V365L323,365L323,365z M319.9,335.5c0-2.2-0.7-4.8-2.2-8.4
		c-1.7-3.8-3.1-5.8-4.3-5.8c-1.4,0-4.1,1.9-7.4,5.3c-3.4,3.4-5,6-5,7.9c0,2.9,3.1,6,9.1,9.4c1.7-0.7,3.6-1.7,5.5-3.1
		C318.5,338.6,319.9,337,319.9,335.5L319.9,335.5L319.9,335.5L319.9,335.5z"/>
	<path fill="#635E49" d="M273.8,367.7c-12.5,0-21.6-1.7-27.1-5c-7,5-13.2,7.7-18.5,7.7v-14.6c3.6,0,7-1,10.3-2.4
		c-1.7-2.9-2.4-6.7-2.4-11.5c0-6.7,2.6-13.7,7.7-20.4c4.8-6.2,8.6-9.6,12-9.6c3.1,0,5.8,2.4,7.4,7c1.2,3.6,1.9,7.4,1.9,11.3
		c0,9.4-2.2,16.8-6.2,22.1c2.6,0.7,7.7,1,14.9,1V367.7L273.8,367.7L273.8,367.7z M259.7,339.6c0-1.9-0.7-4.8-2.2-8.2
		c-1.7-3.8-3.1-5.8-4.3-5.8c-1.4,0-3.8,1.7-7,5c-3.1,3.4-5,6.2-6.2,8.9c0.5,1.4,1.7,3.1,3.4,4.8c1.7,1.9,3.6,3.1,5.5,3.8
		C254.2,345.6,257.8,342.7,259.7,339.6L259.7,339.6L259.7,339.6L259.7,339.6z"/>
	<path fill="#635E49" d="M228.2,370.3c-7,0-12-2.4-14.9-7.2c-2.2-3.4-3.6-8.9-4.3-17c-1.2-10.8-2.2-17.8-3.1-21.1
		c-1-3.1-1.7-4.8-2.4-4.8c-1,0-1.4,1.2-1.7,3.1c-2.4,12.7-6.5,19.2-12.5,19.2v-14.6c7,0,10.6-6,11.3-17.5c0-4.6,1.2-6.7,3.1-6.7
		c1.9,0,3.6,1.7,4.8,5.3c2.2,5.5,3.8,13.2,4.8,22.8c1.2,8.9,2.4,14.4,3.6,17c1.9,4.6,5.8,6.7,11.3,6.7V370.3L228.2,370.3
		L228.2,370.3z"/>
	<path fill="#635E49" d="M107.3,410.4c-18.2,0-31-9.1-37.9-27.1c-1.4-3.4-1.9-7.9-1.9-13.4c0-3.6,0.2-7.2,0.7-11
		c1-5.3,2.2-10.1,3.6-14.2c0.7-1.4,1.2-1.9,1.7-1.9c0.5,0,0.5,0.7,0.2,2.4c-0.7,2.6-1.2,5-1.7,7.7c-1,4.3-1.4,7.7-1.4,9.8
		c0,7.4,2.4,14.4,7.4,20.6c6.7,8.2,16.6,12.5,29.3,12.5c11,0,22.8-2.6,35-7.9c9.6-4.3,18.7-9.6,27.1-16.1c6.7-5.3,10.8-9.4,12-12
		c0-8.2-2.2-16.8-7-25.9c-1-1.9-1.2-3.1-1.2-4.1c0-0.7,0.7-4.3,2.6-10.6c0.5-1,0.7-1.4,1.2-1.4c0.5,0,1.2,0.7,1.9,2.2
		c1.2,2.9,2.2,4.6,2.9,5.3c1.7,1.7,4.1,2.6,7.7,2.6v14.4c-1.7,0-3.1,0-3.8-0.2c0,10.1-0.5,17.5-1.7,22.8c-1.2,5.8-3.4,10.1-6.2,13.2
		c-8.2,7.9-17.8,14.9-29.3,20.9C133.9,406.6,120.2,410.4,107.3,410.4L107.3,410.4L107.3,410.4L107.3,410.4z"/>
	<path fill="#635E49" d="M301.2,289.2c-0.2-0.2-0.2-0.5,0-1l4.6-9.6c0.2-0.5,0.7-0.7,1-0.7c0.5,0,2.6,1.2,6.2,3.6
		c3.8,2.6,5.8,4.1,5.8,4.6c0,1.7-1.7,5-5,10.3c-0.5,0.7-0.7,1-1.2,0.7C308.9,294.2,305,291.6,301.2,289.2L301.2,289.2L301.2,289.2
		L301.2,289.2z"/>
	<path fill="#635E49" d="M241.4,292.6c-0.2-0.2-0.2-0.5,0-1l4.6-9.6c0.2-0.5,0.7-0.7,1-0.7c0.5,0,2.6,1.2,6.2,3.6
		c3.8,2.6,5.8,4.1,5.8,4.6c0,1.7-1.7,5-5,10.3c-0.5,0.7-0.7,1-1.2,0.7C249.1,297.6,245.3,295,241.4,292.6L241.4,292.6L241.4,292.6
		L241.4,292.6z"/>
	<path fill="#635E49" d="M205.2,398.2l3.8-7.9c0.2-0.5,0.5-0.7,1-0.7s2.4,1.2,6.2,3.8c3.6,2.4,5.5,3.8,5.5,4.3
		c0,1.7-1.7,5.3-4.8,10.6c-0.5,0.7-1,0.7-1.4,0.5c-3.1-2.4-6.7-4.8-10.8-7.4c-1.4,2.9-2.6,5.5-4.1,7.7c-0.2,0.7-0.7,1-1.2,0.7
		c-3.6-2.9-7.4-5.5-11.3-7.9c-0.2-0.2-0.2-0.5,0-1l4.6-9.6c0.2-0.5,0.7-1,1-1c0.5,0,2.2,1.2,5.3,3.4
		C202.1,395.5,204.2,397.2,205.2,398.2L205.2,398.2L205.2,398.2L205.2,398.2z"/>
	<path fill="#635E49" d="M115.7,323.5c-0.2-0.2-0.2-0.5,0-1l4.6-9.6c0.2-0.5,0.7-0.7,1-0.7c0.5,0,2.6,1.2,6.2,3.6
		c3.8,2.6,5.8,4.1,5.8,4.6c0,1.7-1.7,5-5,10.3c-0.5,0.7-0.7,1-1.2,0.7C123.4,328.6,119.5,325.9,115.7,323.5L115.7,323.5L115.7,323.5
		L115.7,323.5z"/>
	<path fill="#635E49" d="M421.4,225.4c0-1.2-2.4-3.4-7.4-6.2c-1.7,2.9-2.4,5.5-2.4,7.9c0,1.4,0.7,2.4,2.2,2.4c1.2,0,2.6-0.5,4.3-1.4
		C419.8,227.3,421,226.3,421.4,225.4L421.4,225.4L421.4,225.4L421.4,225.4z M416.2,206.2c0.7-1.2,1.7-1.7,2.4-1.7c0.5,0,1,0.2,1,0.7
		c0,0-0.2,0.2-0.2,0.5c-1,2.2-1.9,4.6-2.6,7c5,3.6,7.4,7.4,7.2,11c-0.5,4.1-1,6.7-1.7,7.7c-2.4,2.9-5,4.6-8.4,4.6
		c-3.4,0-4.8-2.2-4.8-6c0-0.7,0-1.7,0.2-2.6C410.4,219.6,412.8,212.6,416.2,206.2L416.2,206.2L416.2,206.2L416.2,206.2z"/>
	<path fill="#635E49" d="M462.7,261.1c0.5-1.4,0.5-2.9,0.2-4.3c-0.2-1.4-1-2.2-2.2-2.2c-0.5,0-1.2,0.2-2.2,0.7c-1,0.5-1.4,1-1.4,1.4
		C457.2,258,459.1,259.4,462.7,261.1L462.7,261.1L462.7,261.1L462.7,261.1z M459.8,267.4c-4.6-2.4-6.7-4.8-6.7-7.4
		c0-3.1,1.4-6,4.3-8.4c2.9-2.6,5.3-3.6,7.2-2.9c1.7,0.5,2.4,2.2,2.4,5c0,2.6-0.5,5.5-1.7,8.9c2.4,1.2,3.8,2.4,4.3,3.4
		c0,1.2-1,3.4-3.1,6.2c-0.5-1-1.9-2.2-4.1-3.4c-2.6,3.6-5.8,6.7-9.6,9.6c-4.6,3.1-8.6,5.8-12.2,7.2c-1,0.5-5.3,2.2-13,5
		c-1.2,0.5-2.2,0.7-2.4,0.7c-0.2,0-0.2-0.2-0.2-0.2c0-0.2,0.5-1,1.9-1.7c5.8-3.6,11.5-7,17.5-10.3
		C451.4,274.8,456.5,271,459.8,267.4L459.8,267.4L459.8,267.4L459.8,267.4z"/>
	<path fill="#635E49" d="M366.7,298.3c18.5-6.7,37.7-13.9,57.8-21.4c0.7-0.2,1.2-0.5,1.4-0.2c0,0,0,0.5-0.2,1.2
		c-1,2.2-1.7,3.4-2.2,3.8c-16.8,6.2-36.7,13.9-59.3,23.3C364.8,302.9,365.5,300.7,366.7,298.3L366.7,298.3L366.7,298.3L366.7,298.3z
		"/>
	<path fill="#635E49" d="M289.7,403c13.7-4.8,28.1-10.1,43.2-15.6c1-0.2,1.2-0.5,1.4-0.2c0.2,0,0.2,0.5-0.2,1.2
		c-0.7,2.2-1.4,3.4-1.9,3.8c-13,4.6-27.8,10.3-44.9,17.5C287.8,407.5,288.5,405.4,289.7,403L289.7,403L289.7,403L289.7,403z"/>
	<path fill="#635E49" d="M329.8,253.4c0,1.9-0.5,4.1-1.4,6c-1.2,2.6-2.6,4.1-4.3,4.1c-2.9,0-4.8-1.9-6-5.8c-1.4,4.8-3.8,7.4-7.4,7.4
		c-1.2,0-2.4-0.7-3.4-2.2c-1.2-1.4-1.7-3.6-1.7-6v-6.2c0-0.5-0.5-0.7-1-1c-0.7-0.2-1-0.7-1-1.4c0-1.4,0.5-2.6,1.4-3.8
		c1-1.2,1.7-1.7,2.2-1.7c0.7,0,1.2,1.2,1.2,3.8c0,1.4-0.2,2.6-0.2,3.6c-0.2,1-0.2,1.7-0.2,2.4c0,1.4,0.2,2.9,0.7,4.1
		c0.7,1.4,1.7,2.4,2.6,2.4c1.4,0,2.6-0.7,3.8-1.9c1.2-1.2,1.9-2.6,1.9-4.3c0-1-0.5-2.4-1-4.8c-0.7-2.2-1-3.6-1-4.1s0.2-1.2,0.7-2.4
		c0.5-1,1-1.4,1.2-1.4c0.5,0,1,1.4,1.7,4.3c0.7,3.1,1.2,5.3,1.2,6.7c0,4.1,1.4,6.2,4.6,6.2c1.4,0,2.4-0.7,2.6-2.2
		c-2.6-4.8-4.1-8.4-4.1-11c0-1.4,0.2-2.6,1.2-3.8c0.5-0.7,0.7-1.2,1-1.2c0.2,0,0.5,0.5,0.5,1.4c0.2,1.2,0.5,2.4,0.7,3.4
		c0,0,0.7,1.7,1.9,5C329.3,251,329.8,252.5,329.8,253.4L329.8,253.4L329.8,253.4L329.8,253.4z"/>
	<path fill="#635E49" d="M244.3,402.5c13.7-4.8,28.1-10.1,43.2-15.6c1-0.2,1.2-0.5,1.4-0.2c0.2,0,0.2,0.5-0.2,1.2
		c-0.7,2.2-1.4,3.4-1.9,3.8c-13,4.6-27.8,10.3-44.9,17.5C242.4,407,243.1,404.9,244.3,402.5L244.3,402.5L244.3,402.5L244.3,402.5z"
		/>
	<path fill="#635E49" d="M94.3,299.8c18.5-6.7,37.7-13.9,57.8-21.4c0.7-0.2,1.2-0.5,1.4-0.2c0,0,0,0.5-0.2,1.2
		c-1,2.2-1.7,3.4-2.2,3.8c-16.8,6.2-36.7,13.9-59.3,23.3C92.4,304.3,93.1,302.2,94.3,299.8L94.3,299.8L94.3,299.8L94.3,299.8z"/>
	<path fill="#635E49" d="M78.2,333.4c0-0.2,0.2-0.5,0.2-0.5c0.2-0.2,0.2-0.2,0.2,0c0.2,0.2,0.2,0.5,0,0.7
		c-1.2,7.2-3.4,10.8-6.5,10.8c-3.1,0-4.6-2.6-4.6-7.9c0-6.5,1.7-13.4,5.5-20.4c1-1.7,1.4-2.6,1.7-2.6l0,0c0,0.2-0.2,1.2-0.7,2.9
		c-2.4,7.4-3.6,12.5-3.6,15.6c0,3.8,1,6,3.1,6C75.1,337.9,76.6,336.2,78.2,333.4L78.2,333.4L78.2,333.4L78.2,333.4z"/>
	<path fill="#635E49" d="M157.2,229.2c2.9,0,5.3,1.4,7.4,4.8c2.2,3.1,3.8,7.4,4.6,12.7c0.2,0.5,0.2,0.7,0.2,1h0.2
		c0-0.2,0.2-0.5,0.2-1c0.5-3.1,1.7-7.9,3.4-14.2c1.9-4.3,3.8-6.5,6-6.5c1.2,0,2.4,0.7,3.4,2.2c1,1.4,1.4,2.4,1.4,3.4
		c0,0.5,0,1.4-0.5,2.4c-0.5,1.4-1,2.2-1.4,2.2c-0.2,0-0.7-0.7-1.7-1.7c-0.7-1-1.7-1.4-2.6-1.4c-1.9,0-3.6,4.6-5.3,13.7
		c-0.7,4.1-1.7,7-2.4,8.6c-0.7,1-1.2,1.7-1.7,1.7c-0.5,0-0.5-0.7-0.7-1.7c0.2-1.7-0.7-4.8-2.6-9.4c-1.9-4.8-3.1-7-4.1-7
		c-0.5,0-0.7,0-1,0.5c-0.2,0.2-0.5,0.5-1.2,0.5c-1,0-1.9-0.7-3.4-1.9c-1.4-1.2-1.9-2.2-1.9-2.9c0-0.2,0.5-1.4,1.7-3.4
		C156.2,229.9,157,229.2,157.2,229.2L157.2,229.2L157.2,229.2L157.2,229.2z"/>
	<path fill="#635E49" d="M113.3,347.8c2.9,0,5.3,1.4,7.4,4.8c2.2,3.1,3.8,7.4,4.6,12.7c0.2,0.5,0.2,0.7,0.2,1h0.2
		c0-0.2,0.2-0.5,0.2-1c0.5-3.1,1.7-7.9,3.4-14.2c1.9-4.3,3.8-6.5,6-6.5c1.2,0,2.4,0.7,3.4,2.2c1,1.4,1.4,2.4,1.4,3.4
		c0,0.5,0,1.4-0.5,2.4c-0.5,1.4-1,2.2-1.4,2.2c-0.2,0-0.7-0.7-1.7-1.7c-0.7-1-1.7-1.4-2.6-1.4c-1.9,0-3.6,4.6-5.3,13.7
		c-0.7,4.1-1.7,7-2.4,8.6c-0.7,1-1.2,1.7-1.7,1.7s-0.5-0.7-0.7-1.7c0.2-1.7-0.7-4.8-2.6-9.4c-1.9-4.8-3.1-7-4.1-7
		c-0.5,0-0.7,0-1,0.5c-0.2,0.2-0.5,0.5-1.2,0.5c-1,0-1.9-0.7-3.4-1.9c-1.4-1.2-1.9-2.2-1.9-2.9c0-0.2,0.5-1.4,1.7-3.4
		C112.3,348.5,113,347.8,113.3,347.8L113.3,347.8L113.3,347.8L113.3,347.8z"/>
	<path fill="#635E49" d="M321.1,211.2c0,2.6-1.2,5.5-3.1,8.6c-2.2,3.1-4.8,6-8.2,8.4c-1.4,1-2.2,1.4-2.4,1.4v-0.2
		c0-0.2,0.5-0.7,1.4-1.9c5.5-6,8.4-9.8,8.4-12c0-1.7-1-2.6-2.6-2.6c-1,0-1.9,0.2-2.6,0.7c-0.7,0.2-1,0.5-1.2,0.5c0,0-0.2,0-0.2-0.2
		c0,0,0-0.5,0.2-1.4c1-4.1,2.9-6,6.2-6C319.7,206.4,321.1,208.1,321.1,211.2L321.1,211.2L321.1,211.2L321.1,211.2z"/>
	<path fill="#635E49" d="M286.3,278.4c0-0.2,0.2-0.5,0.2-0.5c0.2-0.2,0.2-0.2,0.2,0c0.2,0.2,0.2,0.5,0,0.7
		c-1.2,7.2-3.4,10.8-6.5,10.8s-4.6-2.6-4.6-7.9c0-6.5,1.7-13.4,5.5-20.4c1-1.7,1.4-2.6,1.7-2.6l0,0c0,0.2-0.2,1.2-0.7,2.9
		c-2.4,7.4-3.6,12.5-3.6,15.6c0,3.8,1,6,3.1,6C283.2,283,284.6,281.3,286.3,278.4L286.3,278.4L286.3,278.4L286.3,278.4z"/>
	<path fill="#635E49" d="M407.3,258.7c0,1-0.5,2.2-1.4,4.1c-1,2.2-1.9,3.6-2.9,4.1c-7.2,5-14.9,7.7-23.5,7.7c-1.4,0-3.6-0.7-6.5-1.7
		c-2.6-1-4.3-1.9-5.3-2.6c-0.2-0.2-0.5-0.5-1-1c-0.5-0.5-0.5-0.5-0.2-0.7c0,0,0.7,0,1.9,0.2c4.3,0.5,9.1,0.2,13.9-0.7
		c1.7-1,3.4-2.6,5-4.8c2.4-7.4,3.8-11.5,3.8-11.8c0-1.4-0.5-2.6-1.2-3.8c-0.5-1-1.2-1.4-1.9-1.4c-1.7,0-2.9,0.5-4.3,1.9
		c-0.7,0.7-1,1-1.2,1c0,0,0-0.5,0-1.7c0-2.2,0.7-3.8,2.2-5.5c1.7-1.4,3.1-2.2,4.6-2.2c3.4,0,5.3,2.4,5.3,7.4c0,3.4-1.7,8.2-4.8,13.9
		c4.8-4.3,8.9-6.5,11.8-6.5c1,0,1.9,0.2,3.4,1C406.6,256.6,407.3,257.8,407.3,258.7L407.3,258.7L407.3,258.7L407.3,258.7z
		 M401.8,262.1c0-0.5-0.2-0.7-1-1.2c-0.7-0.5-1.4-0.5-2.2-0.5c-1.2,0-2.9,0.7-5.5,2.4c-2.6,1.9-4.6,3.4-5.5,4.8
		c2.4-0.2,5.5-1.2,9.1-2.9C400.1,263.3,401.8,262.3,401.8,262.1L401.8,262.1L401.8,262.1L401.8,262.1z"/>
	<path fill="#635E49" d="M387.1,212.2c0,2.6-1.2,5.5-3.1,8.6c-2.2,3.1-4.8,6-8.2,8.4c-1.4,1-2.2,1.4-2.4,1.4v-0.2
		c0-0.2,0.5-0.7,1.4-1.9c5.5-6,8.4-9.8,8.4-12c0-1.7-1-2.6-2.6-2.6c-1,0-1.9,0.2-2.6,0.7c-0.7,0.2-1,0.5-1.2,0.5c0,0-0.2,0-0.2-0.2
		c0,0,0-0.5,0.2-1.4c1-4.1,2.9-6,6.2-6C385.7,207.4,387.1,209,387.1,212.2L387.1,212.2L387.1,212.2L387.1,212.2z"/>
	<path fill="#635E49" d="M451.9,380.4c0-0.7-0.5-1.7-1.4-2.6c-0.7-1-1.7-1.4-2.4-1.4c-1.2,0-2.2,0.5-2.9,1.7
		c1.2,1.2,3.1,2.4,5.8,3.6c0.5,0.2,0.7,0.2,1,0C452.2,381.6,452.2,381.1,451.9,380.4L451.9,380.4L451.9,380.4L451.9,380.4z
		 M441.4,376.1c0.5-0.7,1-0.7,1.4-0.2c1.9-3.6,3.8-5.5,6-5.5c1.4,0,2.9,0.7,4.1,2.6c1.4,1.7,1.9,3.8,1.9,6c0,1,0,1.7-0.2,2.6
		c-0.7,3.8-1.9,5.8-3.6,5.8c-1.4,0-3.4-1-5.5-2.4c-2.2-1.2-3.6-2.6-4.6-3.8c-1.4,4.1-3.1,7.4-5.3,9.8c-3.8,4.3-8.6,7.9-15.1,11.3
		c-4.8,2.9-7.9,4.1-9.4,4.1c0,0-2.9,0.7-8.4,1.9c-5.8,1.4-9.4,2.4-10.8,2.6c-2.2,0.2-3.1,0.2-3.1,0.2c0-0.2,1-0.7,3.1-1.7
		c6-2.4,15.1-6.5,27.6-12.5c8.9-4.8,14.6-9.1,17-12.7C437.8,382.1,439.2,379.2,441.4,376.1L441.4,376.1L441.4,376.1L441.4,376.1z"/>
	<path fill="#635E49" d="M357.1,382.1c2.9,0,5.3,1.4,7.4,4.8c2.2,3.1,3.8,7.4,4.6,12.7c0.2,0.5,0.2,0.7,0.2,1h0.2
		c0-0.2,0.2-0.5,0.2-1c0.5-3.1,1.7-7.9,3.4-14.2c1.9-4.3,3.8-6.5,6-6.5c1.2,0,2.4,0.7,3.4,2.2c1,1.4,1.4,2.4,1.4,3.4
		c0,0.5,0,1.4-0.5,2.4c-0.5,1.4-1,2.2-1.4,2.2c-0.2,0-0.7-0.7-1.7-1.7c-0.7-1-1.7-1.4-2.6-1.4c-1.9,0-3.6,4.6-5.3,13.7
		c-0.7,4.1-1.7,7-2.4,8.6c-0.7,1-1.2,1.7-1.7,1.7c-0.5,0-0.5-0.7-0.7-1.7c0.2-1.7-0.7-4.8-2.6-9.4c-1.9-4.8-3.1-7-4.1-7
		c-0.5,0-0.7,0-1,0.5c-0.2,0.2-0.5,0.5-1.2,0.5c-1,0-1.9-0.7-3.4-1.9c-1.4-1.2-1.9-2.2-1.9-2.9c0-0.2,0.5-1.4,1.7-3.4
		C356.2,382.8,356.9,382.1,357.1,382.1L357.1,382.1L357.1,382.1L357.1,382.1z"/>
	<path fill="#635E49" d="M284.4,213.8c0,0.5-0.2,1.4-0.7,2.4c-0.2,1.4-0.7,2.2-1.4,2.2c-0.2,0-0.7-0.7-1.7-1.7
		c-0.7-1-1.7-1.4-2.4-1.4c-1.9,0-3.8,4.6-5.5,13.7c-0.7,4.1-1.4,7-2.4,8.6c-0.7,1-1.2,1.7-1.7,1.7c-0.2,0-0.5-0.7-0.5-1.7
		c0-1.7-1-4.8-2.9-9.4c-1.9-4.8-3.1-7-3.8-7c-0.7,0-1,0-1.2,0.5c0,0.2-0.5,0.5-1.2,0.5c-1,0-1.9-0.7-3.4-1.9
		c-1.2-1.2-1.9-2.2-1.9-2.9c0-0.2,0.5-1.4,1.7-3.4c1.2-1.9,1.9-2.6,2.2-2.6c2.6,0,5,1.4,7.2,4.8c2.4,3.4,3.8,7.4,4.8,12.7
		c0,0.5,0,0.7,0,1c0.2,0.2,0.2,0.2,0.2,0c0-0.2,0.2-0.5,0.5-1c0.2-3.1,1.4-7.9,3.1-14.2c1.9-4.3,3.8-6.5,6-6.5
		c1.2,0,2.4,0.7,3.6,2.2C283.9,211.9,284.4,212.9,284.4,213.8L284.4,213.8L284.4,213.8L284.4,213.8z M268.6,241.4
		c-1.7,3.8-5,7.7-10.1,11.3c-4.6,3.4-8.6,5.8-12.2,7.4c-0.7,0.5-5,2.2-13,5c-1.2,0.5-1.9,0.7-2.4,0.7c-0.2,0-0.2-0.2-0.2-0.2
		c0-0.2,0.7-1,1.9-1.7c6.5-3.8,15.6-9.4,27.6-17.3c2.9-2.2,5-4.3,6.7-6.2c1.9-2.2,2.9-3.4,3.1-3.4c0,0,0,0,0,0.2
		C270,237.6,269.5,239,268.6,241.4L268.6,241.4L268.6,241.4L268.6,241.4z"/>
	<path fill="#635E49" d="M230.9,228.7c0-0.2,0.2-0.5,0.2-0.5c0.2-0.2,0.2-0.2,0.2,0c0.2,0.2,0.2,0.5,0,0.7
		c-1.2,7.2-3.4,10.8-6.5,10.8c-3.1,0-4.6-2.6-4.6-7.9c0-6.5,1.7-13.4,5.5-20.4c1-1.7,1.4-2.6,1.7-2.6l0,0c0,0.2-0.2,1.2-0.7,2.9
		c-2.4,7.4-3.6,12.5-3.6,15.6c0,3.8,1,6,3.1,6C227.8,233.3,229.2,231.6,230.9,228.7L230.9,228.7L230.9,228.7L230.9,228.7z"/>
	<path fill="#635E49" d="M118.1,268.6c0-0.2,0.2-0.5,0.2-0.5c0.2-0.2,0.2-0.2,0.2,0c0.2,0.2,0.2,0.5,0,0.7
		c-1.2,7.2-3.4,10.8-6.5,10.8c-3.1,0-4.6-2.6-4.6-7.9c0-6.5,1.7-13.4,5.5-20.4c1-1.7,1.4-2.6,1.7-2.6l0,0c0,0.2-0.2,1.2-0.7,2.9
		c-2.4,7.4-3.6,12.5-3.6,15.6c0,3.8,1,6,3.1,6C115,273.1,116.4,271.4,118.1,268.6L118.1,268.6L118.1,268.6L118.1,268.6z"/>
	<path fill="#635E49" d="M213.6,274.1c0-0.2,0.2-0.5,0.2-0.5c0.2-0.2,0.2-0.2,0.2,0c0.2,0.2,0.2,0.5,0,0.7
		c-1.2,7.2-3.4,10.8-6.5,10.8c-3.1,0-4.6-2.6-4.6-7.9c0-6.5,1.7-13.4,5.5-20.4c1-1.7,1.4-2.6,1.7-2.6l0,0c0,0.2-0.2,1.2-0.7,2.9
		c-2.4,7.4-3.6,12.5-3.6,15.6c0,3.8,1,6,3.1,6C210.5,278.6,211.9,277,213.6,274.1L213.6,274.1L213.6,274.1L213.6,274.1z"/>
	<path fill="#635E49" d="M181,284.6c0,2.6-1.2,5.5-3.1,8.6c-2.2,3.1-4.8,6-8.2,8.4c-1.4,1-2.2,1.4-2.4,1.4v-0.2
		c0-0.2,0.5-0.7,1.4-1.9c5.5-6,8.4-9.8,8.4-12c0-1.7-1-2.6-2.6-2.6c-1,0-1.9,0.2-2.6,0.7c-0.7,0.2-1,0.5-1.2,0.5c0,0-0.2,0-0.2-0.2
		c0,0,0-0.5,0.2-1.4c1-4.1,2.9-6,6.2-6C179.5,279.8,181,281.5,181,284.6L181,284.6L181,284.6L181,284.6z"/>
	<path fill="#635E49" d="M664.8,322.8c1.2-1,2.2-1.4,2.9-1.4c0.5,0,0.7,0.5,0.7,1.4c0,0.7-0.2,2.2-0.7,4.1c-0.5,1.9-0.7,3.4-0.7,4.6
		c0,5.3,3.8,8.2,11.3,8.2c6,0,11-2.6,14.9-7.7c2.4-4.1,5-7.9,7.4-11.8c1-1,1.7-1.4,2.4-1.4c1,0,1.2,1,0.7,3.1c-1,4.1-1.7,6-1.7,5.5
		c0,1.7,1,3.4,2.9,4.8c1.7,1.4,4.1,2.4,6.7,2.4c3.4,0,5.5-1,6.5-2.6c0-0.2-1-2.2-3.1-5.8c0.2-1.9,1.2-5.3,2.6-9.8
		c0.2-1.4,0.7-2.2,1.2-2.2c0.5,0,1,0.2,1.7,1.2c1.9,2.9,3.1,6.2,3.1,10.1c0,6-1.4,11-4.1,15.4c-2.9,5.3-7.2,7.9-13,7.9
		c-3.8,0-7.4-3.1-10.6-8.9c-5.3,9.6-12.2,14.4-20.6,14.4c-10.1,0-14.9-5.8-14.9-16.8c-3.8,4.6-10.3,8.6-18.7,12.5v-13.2
		c6.2-3.1,10.3-5,11.5-5.8C657.1,329,661,326.2,664.8,322.8L664.8,322.8L664.8,322.8L664.8,322.8z"/>
	<path fill="#635E49" d="M628.1,338.6c-3.6-4.6-6.7-6.7-9.6-6.7c-4.3,0-6.2,1-6.2,3.4c0,2.9,2.9,4.3,8.6,4.3
		C623,339.6,625.4,339.1,628.1,338.6L628.1,338.6L628.1,338.6L628.1,338.6z M635.5,356.2c0-1.4-0.5-3.1-1-4.8
		c-2.9,1-7.2,1.7-12.5,1.7c-11.5,0-17.3-4.1-17.3-12c0-6,1.7-11.3,5.5-16.1c3.6-4.1,7.4-6.2,11.5-6.2c3.1,0,6.2,1.9,9.8,5.5
		c3.1,3.6,6,7.7,8.4,12.7c0.2,0,0.7,0,1.7-0.5v13.2l-0.5,0.5c0,2.9-0.7,6.2-2.2,10.6c-1.7,5.5-4.3,10.1-7.4,13.7
		c-7.2,8.6-15.1,16.1-23.8,22.6c-13,9.6-24,14.6-33.6,14.6c-8.2,0-14.4-3.1-18.7-9.1c-3.8-5-5.8-11.8-5.8-19.7
		c0-10.1,2.2-20.4,6.2-31.2c1.2-2.4,1.7-3.4,2.2-3.4c0.2,0,0.2,0.2,0.2,0.7c0,0.7-0.2,1.9-0.5,3.4c-3.1,10.6-4.6,18.5-4.6,24
		c0,5,1.2,9.4,3.6,13c3.8,5,9.8,7.7,18.2,7.7c7.2,0,15.8-3.1,26.2-9.4c8.2-5,16.1-11,23.8-18.2C631.9,362.6,635.5,358.3,635.5,356.2
		L635.5,356.2L635.5,356.2L635.5,356.2z"/>
	<path fill="#635E49" d="M570,319.9c-0.5-2.2-1.2-3.8-2.2-5c-0.7-1.4-1.2-2.2-1.4-2.6c0-0.5,0-2.2,0.5-5.5c0.5-3.1,0.7-5.3,1.2-6.5
		c0.2-1.2,0.5-1.7,1-1.7c0.2,0,0.5,0.2,1,0.7c3.4,3.8,7,7.7,11,11.8c1.7,1.7,2.4,2.6,2.4,3.1c0,0.2-0.2,0.5-0.7,0.5
		c-0.7,0-2.6-0.5-5.5-1.2c1.7,4.1,3.6,8.2,5.3,12c2.6,6.7,4.1,12.2,4.1,17.3c0,2.4-0.5,5.3-1.4,8.9c-1.2,4.1-2.6,7.2-4.6,9.4
		c-7,7.9-18.7,16.6-35.3,25.9c-14.4,8.4-22.8,12.5-25.4,12.5c-0.5,0-7.7,1.7-21.4,5c-14.4,3.4-23.5,5.5-27.1,6c-3.8,0.7-6.2,1-7.2,1
		c-0.5,0-0.5,0-0.5-0.2c0-0.2,2.6-1.7,7.9-4.1c1.9-1,13-5.8,33.4-14.4c14.2-6,25.9-11.5,35.3-16.6c14.2-7.7,25-14.4,32.4-19.9
		c5.5-4.3,8.4-7.4,8.4-9.4c0-0.5-1.4-3.8-4.3-10.1C573.6,329.8,571.2,324,570,319.9L570,319.9L570,319.9L570,319.9z"/>
	<path fill="#635E49" d="M550.3,286.6c0,3.8-1.9,9.1-5.8,15.6c-2.4,4.1-6,9.6-10.8,16.8c4.8,5.5,8.2,10.6,9.8,14.9
		c1,3.1,1.7,7.2,1.7,11.8c0,1.9-0.5,4.3-1.4,7.4c-0.7,2.9-1.7,5-2.6,6.5c-1.9,2.9-5,5.8-9.8,8.6c-5,3.4-9.4,5-13,5
		c-5.8,0-8.6-4.3-8.6-13c0-5.8,1-11.5,2.9-16.8c1.9-4.6,5-10.6,10.1-18.5c-4.3-4.1-8.9-9.8-13.9-17c-0.5-0.7-1.7-1.9-3.6-3.8
		c-1-1-1.4-2.2-1.4-3.6c0-2.2,0.2-4.6,0.7-7.4c0.7-2.9,1.2-4.1,1.4-4.1c0.7,0,2.9,1.2,7,3.8c3.8,2.6,7,4.6,8.9,6.2
		c1.2,0.7,1.7,1.4,1.7,1.4v0.2c0,0.2-0.7,0.5-2.4,0.5c-3.1,0-4.8,0.2-4.8,0.5c0,0.2,0.5,0.7,1.4,1.9c3.8,4.8,7.7,8.4,11.8,11.3
		c1-1.4,4.3-6.2,9.6-14.4c4.6-7,7.2-11.8,8.4-14.6c1.2-2.9,1.9-4.1,2.4-4.1C550.1,281.8,550.3,283.2,550.3,286.6L550.3,286.6
		L550.3,286.6L550.3,286.6z M541,345.6c-2.6-5.3-7.2-10.8-13.4-16.1c-2.2,2.2-4.8,6.2-8.2,12c-3.8,6.5-5.5,10.6-5.5,12.7
		c0,2.9,1.9,4.3,6.2,4.3c1.9,0,4.3-0.7,7.4-1.9c4.3-1.9,8.4-4.6,11.8-7.9C540.7,347.3,541.2,346.3,541,345.6L541,345.6L541,345.6
		L541,345.6z"/>
	<path fill="#635E49" d="M527.5,268.6l3.8-7.9c0.2-0.5,0.5-0.7,1-0.7c0.5,0,2.4,1.2,6.2,3.8c3.6,2.4,5.5,3.8,5.5,4.3
		c0,1.7-1.7,5.3-4.8,10.6c-0.5,0.7-1,0.7-1.4,0.5c-3.1-2.4-6.7-4.8-10.8-7.4c-1.4,2.9-2.6,5.5-4.1,7.7c-0.2,0.7-0.7,1-1.2,0.7
		c-3.6-2.9-7.4-5.5-11.3-7.9c-0.2-0.2-0.2-0.5,0-1l4.6-9.6c0.2-0.5,0.7-1,1-1c0.5,0,2.2,1.2,5.3,3.4
		C524.4,265.9,526.6,267.6,527.5,268.6L527.5,268.6L527.5,268.6L527.5,268.6z"/>
	<path fill="#635E49" d="M654,402.5c-2.6,0.7-4.1,1.2-4.6,1.2v-0.2c0,0,1-0.7,2.9-1.9c1.9-1.2,4.8-3.1,8.9-6.2
		c1.9-1.9,4.8-5,8.4-9.4c2.4-2.9,5-5.5,7.9-7.4c3.6-2.6,7-3.8,10.6-3.8c0.7,0,1.9,0.2,3.4,0.7c1.2,0.5,2.4,0.7,3.4,0.7
		c1.9,0,3.4-0.7,4.6-2.2c0.7-1.4,1.7-2.6,2.6-4.1c0.5-1,1.2-1.4,1.7-1.4c0.2,0,0.2,0.2,0.2,0.7c0,0.5-0.2,1.7-0.7,3.1
		c-0.5,0.7,1.4,1,5,1c0.5,0,0.7,0,0.7-0.2c0,0-0.2-1-0.7-2.6c-0.2-0.5,0-1.2,0.7-2.2c1-1.7,1.4-2.4,1.7-2.2c1,0.7,1.4,2.2,1.4,3.8
		c0,1.7-0.5,3.4-1.2,5.3c-0.7,2.2-1.4,3.4-1.9,3.8c-1.7,1-4.3,0.7-7.9-1c-2.9,2.9-5.8,4.6-8.6,4.6c-0.7,0-1.9-0.2-3.1-0.7
		c-1.2-0.5-2.2-0.7-2.9-0.7c-4.8,0-9.8,2.2-14.9,7c-3.6,3.6-7.2,7.2-10.8,10.8C658.6,400.6,656.4,401.8,654,402.5L654,402.5
		L654,402.5L654,402.5z"/>
	<path fill="#635E49" d="M602.4,272.6c2.9,0,5.3,1.4,7.4,4.8c2.2,3.1,3.8,7.4,4.6,12.7c0.2,0.5,0.2,0.7,0.2,1h0.2
		c0-0.2,0.2-0.5,0.2-1c0.5-3.1,1.7-7.9,3.4-14.2c1.9-4.3,3.8-6.5,6-6.5c1.2,0,2.4,0.7,3.4,2.2c1,1.4,1.4,2.4,1.4,3.4
		c0,0.5,0,1.4-0.5,2.4c-0.5,1.4-1,2.2-1.4,2.2c-0.2,0-0.7-0.7-1.7-1.7c-0.7-1-1.7-1.4-2.6-1.4c-1.9,0-3.6,4.6-5.3,13.7
		c-0.7,4.1-1.7,7-2.4,8.6c-0.7,1-1.2,1.7-1.7,1.7c-0.5,0-0.5-0.7-0.7-1.7c0.2-1.7-0.7-4.8-2.6-9.4c-1.9-4.8-3.1-7-4.1-7
		c-0.5,0-0.7,0-1,0.5c-0.2,0.2-0.5,0.5-1.2,0.5c-1,0-1.9-0.7-3.4-1.9c-1.4-1.2-1.9-2.2-1.9-2.9c0-0.2,0.5-1.4,1.7-3.4
		C601.4,273.4,602.2,272.6,602.4,272.6L602.4,272.6L602.4,272.6L602.4,272.6z"/>
	<path fill="#635E49" d="M561.8,269.8c24.2-9.1,49.4-18.2,75.4-27.8c0.7-0.2,1.2-0.5,1.2-0.2c0.2,0,0.2,0.5,0,1.2
		c-1,2.2-1.7,3.4-2.2,3.8c-0.2,0.2-12.5,4.8-36.2,13.7c-24.2,8.9-37.9,14.4-40.6,16.1C559.9,274.3,560.6,272.2,561.8,269.8
		L561.8,269.8L561.8,269.8L561.8,269.8z"/>
	<path fill="#635E49" d="M538.3,225.8c0.5-1.4,0.5-2.9,0.2-4.3c-0.2-1.4-1-2.2-2.2-2.2c-0.5,0-1.2,0.2-2.2,0.7c-1,0.5-1.4,1-1.4,1.4
		C532.8,222.7,534.7,224.2,538.3,225.8L538.3,225.8L538.3,225.8L538.3,225.8z M535.4,232.1c-4.6-2.4-6.7-4.8-6.7-7.4
		c0-3.1,1.4-6,4.3-8.4c2.9-2.6,5.3-3.6,7.2-2.9c1.7,0.5,2.4,2.2,2.4,5c0,2.6-0.5,5.5-1.7,8.9c2.4,1.2,3.8,2.4,4.3,3.4
		c0,1.2-1,3.4-3.1,6.2c-0.5-1-1.9-2.2-4.1-3.4c-2.6,3.6-5.8,6.7-9.6,9.6c-4.6,3.1-8.6,5.8-12.2,7.2c-1,0.5-5.3,2.2-13,5
		c-1.2,0.5-2.2,0.7-2.4,0.7c-0.2,0-0.2-0.2-0.2-0.2c0-0.2,0.5-1,1.9-1.7c5.8-3.6,11.5-7,17.5-10.3
		C527,239.5,532.1,235.7,535.4,232.1L535.4,232.1L535.4,232.1L535.4,232.1z"/>
	<path fill="#635E49" d="M687.1,262.1c0.5-1.4,0.5-2.9,0.2-4.3c-0.2-1.4-1-2.2-2.2-2.2c-0.5,0-1.2,0.2-2.2,0.7c-1,0.5-1.4,1-1.4,1.4
		C681.6,259,683.5,260.4,687.1,262.1L687.1,262.1L687.1,262.1L687.1,262.1z M692.4,271c-2.4,5.8-3.6,10.3-3.6,13.7
		c0,4.1,1,6.2,3.1,6.2c1.2,0,2.6-1.7,4.3-4.6c0.2-0.2,0.2-0.5,0.5-0.7c0,0,0.2,0,0.2,0.2c0,0,0,0.2,0,0.7
		c-1.4,7.2-3.6,10.8-6.5,10.8c-3.1,0-4.6-2.6-4.6-7.9c0-2.6,0.5-6,1.9-10.3c1.4-4.3,2.2-6.5,2.2-6.7c0-0.5-1-1.4-3.1-2.6
		c-3.8,5-9.1,9.8-15.8,13.9c-4.6,2.6-9.1,5-13.9,7c-8.9,3.6-14.2,5.5-15.4,6.2c-1.2,0.5-1.9,0.7-2.4,0.7c-0.2,0-0.2-0.2-0.2-0.2
		c0-0.5,0.5-1,1.9-1.9c7.7-4.3,15.1-8.6,22.8-13c10.1-5.8,17-10.6,20.4-14.2c-4.6-2.4-6.7-4.8-6.7-7.4c0-3.1,1.4-6,4.3-8.6
		c2.9-2.4,5.3-3.4,7.2-2.6c1.4,0.5,2.4,2.2,2.4,5c0,2.6-0.5,5.5-1.7,8.6c2.4,1.4,3.4,2.9,3.4,4.3C693.1,268.3,692.9,269.5,692.4,271
		L692.4,271L692.4,271L692.4,271z"/>
	<path fill="#635E49" d="M583.2,235.9c0-0.2,0.2-0.5,0.2-0.5c0.2-0.2,0.2-0.2,0.2,0c0.2,0.2,0.2,0.5,0,0.7
		c-1.2,7.2-3.4,10.8-6.5,10.8c-3.1,0-4.6-2.6-4.6-7.9c0-6.5,1.7-13.4,5.5-20.4c1-1.7,1.4-2.6,1.7-2.6l0,0c0,0.2-0.2,1.2-0.7,2.9
		c-2.4,7.4-3.6,12.5-3.6,15.6c0,3.8,1,6,3.1,6C580.1,240.5,581.5,238.8,583.2,235.9L583.2,235.9L583.2,235.9L583.2,235.9z"/>
</g>
</svg>
