<?xml version="1.0" encoding="utf-8"?>
<!-- Generator: Adobe Illustrator 18.1.1, SVG Export Plug-In . SVG Version: 6.00 Build 0)  -->
<!DOCTYPE svg PUBLIC "-//W3C//DTD SVG 1.1//EN" "http://www.w3.org/Graphics/SVG/1.1/DTD/svg11.dtd">
<svg version="1.1" id="Layer_1" xmlns="http://www.w3.org/2000/svg" xmlns:xlink="http://www.w3.org/1999/xlink" x="0px" y="0px"
	 viewBox="0 0 792 612" enable-background="new 0 0 792 612" xml:space="preserve">
<g>
	<path fill="#635E49" d="M388.9,232.5c0-4.8-0.7-8.6-2.2-11.8c0-1.7,1.2-5.8,4.1-12c0.2-0.7,0.5-1.2,0.7-1.2c0.5,0,0.7,0.5,1.2,1.2
		c0.7,1.7,2.4,6.2,5.3,13.7c3.1,7.9,4.8,12.7,5.3,14.6c0.5,1.2,0.5,2.4,0.5,2.9c0,2.2-1.9,1-6.2-3.8c-0.5-0.7-0.7-0.2-0.7,1
		c0,0.5,1.2,15.4,3.4,45.1c2.2,29.5,3.1,46.1,3.1,49.9c0,11.3-1.7,21.4-5,30c-1,1.7-1.4,2.9-1.9,3.8l0,0c-0.7,1.2-1,1.2-1.2,0.5
		c-0.2-1,0-2.9,0.2-5.5c0.5-4.1,0.7-8.6,0.7-13.7c0-4.8-1.2-24-3.6-57.8C390.1,255.6,388.9,236.6,388.9,232.5L388.9,232.5
		L388.9,232.5L388.9,232.5z"/>
	<path fill="#635E49" d="M376.9,319.4c0,14.2-2.6,25.2-7.7,33.4c-4.3,6.7-9.4,10.3-15.1,10.3v-14.6c4.6,0,9.1-1.9,13.4-5.5
		c1.2-1,1.9-5,1.9-11.8c0-4.1-1.2-20.6-3.4-49.4c-2.2-28.8-3.1-45.8-3.1-51.1c0-4.6-0.7-8.4-2.2-11.5c0-1.7,1.4-5.8,4.1-12.2
		c0.2-0.7,0.5-1,1-1c0.2,0,0.5,0.2,1,1.2c0.7,1.7,2.6,6.2,5.5,13.7c2.9,7.9,4.6,12.7,5.3,14.4c0.2,1.4,0.5,2.6,0.5,3.1
		c0,2.2-2.2,1-6.2-3.8c-0.5-0.5-0.7-0.2-0.7,1c0,0.2,1,13.2,2.9,38.6C376,299.2,376.9,314.4,376.9,319.4L376.9,319.4L376.9,319.4
		L376.9,319.4z"/>
	<path fill="#635E49" d="M353.9,363.1c-8.6,0-13.2-5-13.7-15.1c0-0.5-0.2-0.7-0.7-1c-0.7,0.2-1.4,0.5-2.2,1.4
		c-5,5.8-8.2,9.1-9.6,10.3c-6.2,5.5-12.7,8.2-19.4,8.2v-14.6c7,0,13.2-1.9,18.7-5.8c2.2-1.4,7-6,14.6-13.7c0.7-0.7,1.7-1.2,2.6-1.2
		s1.2,0.5,1.2,1.4c0,0.5,0,1.2-0.2,2.2c-0.2,1-0.2,1.7-0.2,2.2c0,2.9,0.5,5.3,1.9,7.2c1.4,2.4,3.8,3.8,7,3.8V363.1L353.9,363.1
		L353.9,363.1z"/>
	<path fill="#635E49" d="M308.3,366.7c-7.4,0-12.7-2.9-15.8-8.4c-1.9-3.6-3.4-9.4-4.3-17.3c-0.7,10.6-4.6,18.5-11.5,23.3
		c-4.6,3.4-9.8,5-15.4,5v-14.6c9.4,0,16.1-2.9,20.2-8.6c2.6-4.3,4.1-11.5,4.1-21.6c0-17.3-1-35.3-2.9-53.5
		c-0.5-4.6-1.9-14.2-4.1-28.3c1.2-6.2,2.2-10.6,3.1-12.7c0.5-1,0.7-1.4,1-1.4c0.5,0,0.7,0.5,1,1.7c3.1,10.6,5.5,23.8,7.2,39.6
		c1,8.4,1.7,21.1,2.4,38.9c0.2,14.6,1.2,24.7,2.2,30c1.2,5.5,3.1,9.4,5.5,11.5c1.7,1.2,4.1,1.9,7.4,1.9V366.7L308.3,366.7
		L308.3,366.7z"/>
	<path fill="#635E49" d="M172.4,368.4c11,0,22.8-4.3,35.5-13c9.8-6.7,17.5-13.7,23-21.1c1.9-2.4,2.6-3.6,2.6-3.6
		c0.7-1.2,1-2.6,1-4.6c0-4.6-1.4-11.8-3.8-21.8c-1.9-7.7-6.7-19.2-13.9-35c-0.2-0.5,0-2.4,0.7-6c0.5-3.4,0.7-5.8,1.2-7.2
		c0.5-1.7,1.2-2.2,2.2-1c8.4,11.3,14.9,27.1,19,47c1.7,8.9,4.1,21.4,6.7,37.2c1.2,7,3.4,11.3,6.7,13.4c1.7,1.2,4.6,1.7,8.2,1.7v14.6
		c-5.3,0-9.4-1-12.2-3.1c-4.3-3.1-7-8.9-8.6-17.3c-0.5-2.9-1.4-8.6-2.6-17.5c-1.2,7-3.6,12.7-7.2,17.3c-7.2,8.9-16.1,16.6-26.2,23
		c-11.8,7.4-22.6,11.3-32.4,11.3c-5,0-9.1-2.2-11.8-6.5c-2.2-3.6-3.1-7.9-3.1-13.2c0-10.1,2.2-20.6,6.2-31.2c1-2.2,1.7-3.4,2.2-3.4
		c0.2,0,0.2,0.2,0.2,0.7c0,0.7-0.2,1.9-0.7,3.4c-2.9,10.6-4.3,18.5-4.3,24C160.9,364.5,164.8,368.4,172.4,368.4L172.4,368.4
		L172.4,368.4L172.4,368.4z"/>
	<path fill="#635E49" d="M326,397.9c-0.2-0.2-0.2-0.5,0-1l4.6-9.6c0.2-0.5,0.7-0.7,1-0.7c0.5,0,2.6,1.2,6.2,3.6
		c3.8,2.6,5.8,4.1,5.8,4.6c0,1.7-1.7,5-5,10.3c-0.5,0.7-0.7,1-1.2,0.7C333.7,402.9,329.9,400.3,326,397.9L326,397.9L326,397.9
		L326,397.9z"/>
	<path fill="#635E49" d="M335.6,225.6c0-1.2-2.4-3.4-7.4-6.2c-1.7,2.9-2.4,5.5-2.4,7.9c0,1.4,0.7,2.4,2.2,2.4c1.2,0,2.6-0.5,4.3-1.4
		C334,227.5,335.2,226.5,335.6,225.6L335.6,225.6L335.6,225.6L335.6,225.6z M330.4,206.4c0.7-1.2,1.7-1.7,2.4-1.7c0.5,0,1,0.2,1,0.7
		c0,0-0.2,0.2-0.2,0.5c-1,2.2-1.9,4.6-2.6,7c5,3.6,7.4,7.4,7.2,11c-0.5,4.1-1,6.7-1.7,7.7c-2.4,2.9-5,4.6-8.4,4.6
		c-3.4,0-4.8-2.2-4.8-6c0-0.7,0-1.7,0.2-2.6C324.6,219.8,327,212.8,330.4,206.4L330.4,206.4L330.4,206.4L330.4,206.4z"/>
	<path fill="#635E49" d="M308.8,313.2c13.7-4.8,28.1-10.1,43.2-15.6c1-0.2,1.2-0.5,1.4-0.2c0.2,0,0.2,0.5-0.2,1.2
		c-0.7,2.2-1.4,3.4-1.9,3.8c-13,4.6-27.8,10.3-44.9,17.5C306.8,317.7,307.6,315.6,308.8,313.2L308.8,313.2L308.8,313.2L308.8,313.2z
		"/>
	<path fill="#635E49" d="M314,258c2.9,0,5.3,1.4,7.4,4.8c2.2,3.1,3.8,7.4,4.6,12.7c0.2,0.5,0.2,0.7,0.2,1h0.2c0-0.2,0.2-0.5,0.2-1
		c0.5-3.1,1.7-7.9,3.4-14.2c1.9-4.3,3.8-6.5,6-6.5c1.2,0,2.4,0.7,3.4,2.2c1,1.4,1.4,2.4,1.4,3.4c0,0.5,0,1.4-0.5,2.4
		c-0.5,1.4-1,2.2-1.4,2.2c-0.2,0-0.7-0.7-1.7-1.7c-0.7-1-1.7-1.4-2.6-1.4c-1.9,0-3.6,4.6-5.3,13.7c-0.7,4.1-1.7,7-2.4,8.6
		c-0.7,1-1.2,1.7-1.7,1.7c-0.5,0-0.5-0.7-0.7-1.7c0.2-1.7-0.7-4.8-2.6-9.4c-1.9-4.8-3.1-7-4.1-7c-0.5,0-0.7,0-1,0.5
		c-0.2,0.2-0.5,0.5-1.2,0.5c-1,0-1.9-0.7-3.4-1.9c-1.4-1.2-1.9-2.2-1.9-2.9c0-0.2,0.5-1.4,1.7-3.4C313.1,258.7,313.8,258,314,258
		L314,258L314,258L314,258z"/>
	<path fill="#635E49" d="M170.3,318.9c0-0.2,0.2-0.5,0.2-0.5c0.2-0.2,0.2-0.2,0.2,0c0.2,0.2,0.2,0.5,0,0.7
		c-1.2,7.2-3.4,10.8-6.5,10.8c-3.1,0-4.6-2.6-4.6-7.9c0-6.5,1.7-13.4,5.5-20.4c1-1.7,1.4-2.6,1.7-2.6l0,0c0,0.2-0.2,1.2-0.7,2.9
		c-2.4,7.4-3.6,12.5-3.6,15.6c0,3.8,1,6,3.1,6C167.2,323.5,168.6,321.8,170.3,318.9L170.3,318.9L170.3,318.9L170.3,318.9z"/>
	<path fill="#635E49" d="M235.1,227c18.5-6.7,37.7-13.9,57.8-21.4c0.7-0.2,1.2-0.5,1.4-0.2c0,0,0,0.5-0.2,1.2
		c-1,2.2-1.7,3.4-2.2,3.8c-16.8,6.2-36.7,13.9-59.3,23.3C233.2,231.6,233.9,229.4,235.1,227L235.1,227L235.1,227L235.1,227z"/>
	<path fill="#635E49" d="M263.2,272.6c0-0.2,0.2-0.5,0.2-0.5c0.2-0.2,0.2-0.2,0.2,0c0.2,0.2,0.2,0.5,0,0.7
		c-1.2,7.2-3.4,10.8-6.5,10.8c-3.1,0-4.6-2.6-4.6-7.9c0-6.5,1.7-13.4,5.5-20.4c1-1.7,1.4-2.6,1.7-2.6l0,0c0,0.2-0.2,1.2-0.7,2.9
		c-2.4,7.4-3.6,12.5-3.6,15.6c0,3.8,1,6,3.1,6C260,277.2,261.5,275.5,263.2,272.6L263.2,272.6L263.2,272.6L263.2,272.6z"/>
	<path fill="#635E49" d="M174.8,247.9c2.9,0,5.3,1.4,7.4,4.8c2.2,3.1,3.8,7.4,4.6,12.7c0.2,0.5,0.2,0.7,0.2,1h0.2
		c0-0.2,0.2-0.5,0.2-1c0.5-3.1,1.7-7.9,3.4-14.2c1.9-4.3,3.8-6.5,6-6.5c1.2,0,2.4,0.7,3.4,2.2c1,1.4,1.4,2.4,1.4,3.4
		c0,0.5,0,1.4-0.5,2.4c-0.5,1.4-1,2.2-1.4,2.2c-0.2,0-0.7-0.7-1.7-1.7c-0.7-1-1.7-1.4-2.6-1.4c-1.9,0-3.6,4.6-5.3,13.7
		c-0.7,4.1-1.7,7-2.4,8.6c-0.7,1-1.2,1.7-1.7,1.7c-0.5,0-0.5-0.7-0.7-1.7c0.2-1.7-0.7-4.8-2.6-9.4c-1.9-4.8-3.1-7-4.1-7
		c-0.5,0-0.7,0-1,0.5c-0.2,0.2-0.5,0.5-1.2,0.5c-1,0-1.9-0.7-3.4-1.9c-1.4-1.2-1.9-2.2-1.9-2.9c0-0.2,0.5-1.4,1.7-3.4
		C173.9,248.6,174.6,247.9,174.8,247.9L174.8,247.9L174.8,247.9L174.8,247.9z"/>
	<path fill="#635E49" d="M220.7,378.9c2.9,0,5.3,1.4,7.4,4.8c2.2,3.1,3.8,7.4,4.6,12.7c0.2,0.5,0.2,0.7,0.2,1h0.2
		c0-0.2,0.2-0.5,0.2-1c0.5-3.1,1.7-7.9,3.4-14.2c1.9-4.3,3.8-6.5,6-6.5c1.2,0,2.4,0.7,3.4,2.2c1,1.4,1.4,2.4,1.4,3.4
		c0,0.5,0,1.4-0.5,2.4c-0.5,1.4-1,2.2-1.4,2.2c-0.2,0-0.7-0.7-1.7-1.7c-0.7-1-1.7-1.4-2.6-1.4c-1.9,0-3.6,4.6-5.3,13.7
		c-0.7,4.1-1.7,7-2.4,8.6c-0.7,1-1.2,1.7-1.7,1.7c-0.5,0-0.5-0.7-0.7-1.7c0.2-1.7-0.7-4.8-2.6-9.4c-1.9-4.8-3.1-7-4.1-7
		c-0.5,0-0.7,0-1,0.5c-0.2,0.2-0.5,0.5-1.2,0.5c-1,0-1.9-0.7-3.4-1.9c-1.4-1.2-1.9-2.2-1.9-2.9c0-0.2,0.5-1.4,1.7-3.4
		C219.7,379.6,220.4,378.9,220.7,378.9L220.7,378.9L220.7,378.9L220.7,378.9z"/>
	<path fill="#635E49" d="M293.2,395c0-0.2,0.2-0.5,0.2-0.5c0.2-0.2,0.2-0.2,0.2,0c0.2,0.2,0.2,0.5,0,0.7c-1.2,7.2-3.4,10.8-6.5,10.8
		c-3.1,0-4.6-2.6-4.6-7.9c0-6.5,1.7-13.4,5.5-20.4c1-1.7,1.4-2.6,1.7-2.6l0,0c0,0.2-0.2,1.2-0.7,2.9c-2.4,7.4-3.6,12.5-3.6,15.6
		c0,3.8,1,6,3.1,6C290,399.6,291.5,397.9,293.2,395L293.2,395L293.2,395L293.2,395z"/>
	<path fill="#635E49" d="M574.2,318.2c1.2-1,2.2-1.4,2.9-1.4c0.5,0,0.7,0.5,0.7,1.4c0,0.7-0.2,2.2-0.7,4.1c-0.5,1.9-0.7,3.4-0.7,4.6
		c0,5.3,3.8,8.2,11.3,8.2c6,0,11-2.6,14.9-7.7c2.4-4.1,5-7.9,7.4-11.8c1-1,1.7-1.4,2.4-1.4c1,0,1.2,1,0.7,3.1c-1,4.1-1.7,6-1.7,5.5
		c0,1.7,1,3.4,2.9,4.8c1.7,1.4,4.1,2.4,6.7,2.4c3.4,0,5.5-1,6.5-2.6c0-0.2-1-2.2-3.1-5.8c0.2-1.9,1.2-5.3,2.6-9.8
		c0.2-1.4,0.7-2.2,1.2-2.2c0.5,0,1,0.2,1.7,1.2c1.9,2.9,3.1,6.2,3.1,10.1c0,6-1.4,11-4.1,15.4c-2.9,5.3-7.2,7.9-13,7.9
		c-3.8,0-7.4-3.1-10.6-8.9c-5.3,9.6-12.2,14.4-20.6,14.4c-10.1,0-14.9-5.8-14.9-16.8c-3.8,4.6-10.3,8.6-18.7,12.5v-13.2
		c6.2-3.1,10.3-5,11.5-5.8C566.5,324.4,570.4,321.6,574.2,318.2L574.2,318.2L574.2,318.2L574.2,318.2z"/>
	<path fill="#635E49" d="M537.5,334c-3.6-4.6-6.7-6.7-9.6-6.7c-4.3,0-6.2,1-6.2,3.4c0,2.9,2.9,4.3,8.6,4.3
		C532.4,335,534.8,334.5,537.5,334L537.5,334L537.5,334L537.5,334z M544.9,351.6c0-1.4-0.5-3.1-1-4.8c-2.9,1-7.2,1.7-12.5,1.7
		c-11.5,0-17.3-4.1-17.3-12c0-6,1.7-11.3,5.5-16.1c3.6-4.1,7.4-6.2,11.5-6.2c3.1,0,6.2,1.9,9.8,5.5c3.1,3.6,6,7.7,8.4,12.7
		c0.2,0,0.7,0,1.7-0.5v13.2l-0.5,0.5c0,2.9-0.7,6.2-2.2,10.6c-1.7,5.5-4.3,10.1-7.4,13.7c-7.2,8.6-15.1,16.1-23.8,22.6
		c-13,9.6-24,14.6-33.6,14.6c-8.2,0-14.4-3.1-18.7-9.1c-3.8-5-5.8-11.8-5.8-19.7c0-10.1,2.2-20.4,6.2-31.2c1.2-2.4,1.7-3.4,2.2-3.4
		c0.2,0,0.2,0.2,0.2,0.7c0,0.7-0.2,1.9-0.5,3.4c-3.1,10.6-4.6,18.5-4.6,24c0,5,1.2,9.4,3.6,13c3.8,5,9.8,7.7,18.2,7.7
		c7.2,0,15.8-3.1,26.2-9.4c8.2-5,16.1-11,23.8-18.2C541.3,358,544.9,353.7,544.9,351.6L544.9,351.6L544.9,351.6L544.9,351.6z"/>
	<path fill="#635E49" d="M479.4,315.3c-0.5-2.2-1.2-3.8-2.2-5c-0.7-1.4-1.2-2.2-1.4-2.6c0-0.5,0-2.2,0.5-5.5
		c0.5-3.1,0.7-5.3,1.2-6.5c0.2-1.2,0.5-1.7,1-1.7c0.2,0,0.5,0.2,1,0.7c3.4,3.8,7,7.7,11,11.8c1.7,1.7,2.4,2.6,2.4,3.1
		c0,0.2-0.2,0.5-0.7,0.5c-0.7,0-2.6-0.5-5.5-1.2c1.7,4.1,3.6,8.2,5.3,12c2.6,6.7,4.1,12.2,4.1,17.3c0,2.4-0.5,5.3-1.4,8.9
		c-1.2,4.1-2.6,7.2-4.6,9.4c-7,7.9-18.7,16.6-35.3,25.9c-14.4,8.4-22.8,12.5-25.4,12.5c-0.5,0-7.7,1.7-21.4,5
		c-14.4,3.4-23.5,5.5-27.1,6c-3.8,0.7-6.2,1-7.2,1c-0.5,0-0.5,0-0.5-0.2c0-0.2,2.6-1.7,7.9-4.1c1.9-1,13-5.8,33.4-14.4
		c14.2-6,25.9-11.5,35.3-16.6c14.2-7.7,25-14.4,32.4-19.9c5.5-4.3,8.4-7.4,8.4-9.4c0-0.5-1.4-3.8-4.3-10.1
		C483,325.2,480.6,319.4,479.4,315.3L479.4,315.3L479.4,315.3L479.4,315.3z"/>
	<path fill="#635E49" d="M459.7,282c0,3.8-1.9,9.1-5.8,15.6c-2.4,4.1-6,9.6-10.8,16.8c4.8,5.5,8.2,10.6,9.8,14.9
		c1,3.1,1.7,7.2,1.7,11.8c0,1.9-0.5,4.3-1.4,7.4c-0.7,2.9-1.7,5-2.6,6.5c-1.9,2.9-5,5.8-9.8,8.6c-5,3.4-9.4,5-13,5
		c-5.8,0-8.6-4.3-8.6-13c0-5.8,1-11.5,2.9-16.8c1.9-4.6,5-10.6,10.1-18.5c-4.3-4.1-8.9-9.8-13.9-17c-0.5-0.7-1.7-1.9-3.6-3.8
		c-1-1-1.4-2.2-1.4-3.6c0-2.2,0.2-4.6,0.7-7.4c0.7-2.9,1.2-4.1,1.4-4.1c0.7,0,2.9,1.2,7,3.8c3.8,2.6,7,4.6,8.9,6.2
		c1.2,0.7,1.7,1.4,1.7,1.4v0.2c0,0.2-0.7,0.5-2.4,0.5c-3.1,0-4.8,0.2-4.8,0.5c0,0.2,0.5,0.7,1.4,1.9c3.8,4.8,7.7,8.4,11.8,11.3
		c1-1.4,4.3-6.2,9.6-14.4c4.6-7,7.2-11.8,8.4-14.6c1.2-2.9,1.9-4.1,2.4-4.1C459.5,277.2,459.7,278.6,459.7,282L459.7,282L459.7,282
		L459.7,282z M450.4,341c-2.6-5.3-7.2-10.8-13.4-16.1c-2.2,2.2-4.8,6.2-8.2,12c-3.8,6.5-5.5,10.6-5.5,12.7c0,2.9,1.9,4.3,6.2,4.3
		c1.9,0,4.3-0.7,7.4-1.9c4.3-1.9,8.4-4.6,11.8-7.9C450.1,342.7,450.6,341.7,450.4,341L450.4,341L450.4,341L450.4,341z"/>
	<path fill="#635E49" d="M436.9,263.7l3.8-7.9c0.2-0.5,0.5-0.7,1-0.7c0.5,0,2.4,1.2,6.2,3.8c3.6,2.4,5.5,3.8,5.5,4.3
		c0,1.7-1.7,5.3-4.8,10.6c-0.5,0.7-1,0.7-1.4,0.5c-3.1-2.4-6.7-4.8-10.8-7.4c-1.4,2.9-2.6,5.5-4.1,7.7c-0.2,0.7-0.7,1-1.2,0.7
		c-3.6-2.9-7.4-5.5-11.3-7.9c-0.2-0.2-0.2-0.5,0-1l4.6-9.6c0.2-0.5,0.7-1,1-1c0.5,0,2.2,1.2,5.3,3.4
		C433.8,261.1,436,262.8,436.9,263.7L436.9,263.7L436.9,263.7L436.9,263.7z"/>
	<path fill="#635E49" d="M563.4,397.6c-2.6,0.7-4.1,1.2-4.6,1.2v-0.2c0,0,1-0.7,2.9-1.9c1.9-1.2,4.8-3.1,8.9-6.2
		c1.9-1.9,4.8-5,8.4-9.4c2.4-2.9,5-5.5,7.9-7.4c3.6-2.6,7-3.8,10.6-3.8c0.7,0,1.9,0.2,3.4,0.7c1.2,0.5,2.4,0.7,3.4,0.7
		c1.9,0,3.4-0.7,4.6-2.2c0.7-1.4,1.7-2.6,2.6-4.1c0.5-1,1.2-1.4,1.7-1.4c0.2,0,0.2,0.2,0.2,0.7c0,0.5-0.2,1.7-0.7,3.1
		c-0.5,0.7,1.4,1,5,1c0.5,0,0.7,0,0.7-0.2c0,0-0.2-1-0.7-2.6c-0.2-0.5,0-1.2,0.7-2.2c1-1.7,1.4-2.4,1.7-2.2c1,0.7,1.4,2.2,1.4,3.8
		s-0.5,3.4-1.2,5.3c-0.7,2.2-1.4,3.4-1.9,3.8c-1.7,1-4.3,0.7-7.9-1c-2.9,2.9-5.8,4.6-8.6,4.6c-0.7,0-1.9-0.2-3.1-0.7
		c-1.2-0.5-2.2-0.7-2.9-0.7c-4.8,0-9.8,2.2-14.9,7c-3.6,3.6-7.2,7.2-10.8,10.8C568,395.7,565.8,396.9,563.4,397.6L563.4,397.6
		L563.4,397.6L563.4,397.6z"/>
	<path fill="#635E49" d="M512,268c2.9,0,5.3,1.4,7.4,4.8c2.2,3.1,3.8,7.4,4.6,12.7c0.2,0.5,0.2,0.7,0.2,1h0.2c0-0.2,0.2-0.5,0.2-1
		c0.5-3.1,1.7-7.9,3.4-14.2c1.9-4.3,3.8-6.5,6-6.5c1.2,0,2.4,0.7,3.4,2.2c1,1.4,1.4,2.4,1.4,3.4c0,0.5,0,1.4-0.5,2.4
		c-0.5,1.4-1,2.2-1.4,2.2c-0.2,0-0.7-0.7-1.7-1.7c-0.7-1-1.7-1.4-2.6-1.4c-1.9,0-3.6,4.6-5.3,13.7c-0.7,4.1-1.7,7-2.4,8.6
		c-0.7,1-1.2,1.7-1.7,1.7c-0.5,0-0.5-0.7-0.7-1.7c0.2-1.7-0.7-4.8-2.6-9.4c-1.9-4.8-3.1-7-4.1-7c-0.5,0-0.7,0-1,0.5
		c-0.2,0.2-0.5,0.5-1.2,0.5c-1,0-1.9-0.7-3.4-1.9c-1.4-1.2-1.9-2.2-1.9-2.9c0-0.2,0.5-1.4,1.7-3.4C511.1,268.8,511.8,268,512,268
		L512,268L512,268L512,268z"/>
	<path fill="#635E49" d="M471.2,265.2c24.2-9.1,49.4-18.2,75.4-27.8c0.7-0.2,1.2-0.5,1.2-0.2c0.2,0,0.2,0.5,0,1.2
		c-1,2.2-1.7,3.4-2.2,3.8c-0.2,0.2-12.5,4.8-36.2,13.7c-24.2,8.9-37.9,14.4-40.6,16.1C469.3,269.7,470,267.6,471.2,265.2
		L471.2,265.2L471.2,265.2L471.2,265.2z"/>
	<path fill="#635E49" d="M447.7,221.2c0.5-1.4,0.5-2.9,0.2-4.3c-0.2-1.4-1-2.2-2.2-2.2c-0.5,0-1.2,0.2-2.2,0.7c-1,0.5-1.4,1-1.4,1.4
		C442.2,218.1,444.1,219.6,447.7,221.2L447.7,221.2L447.7,221.2L447.7,221.2z M444.8,227.5c-4.6-2.4-6.7-4.8-6.7-7.4
		c0-3.1,1.4-6,4.3-8.4c2.9-2.6,5.3-3.6,7.2-2.9c1.7,0.5,2.4,2.2,2.4,5c0,2.6-0.5,5.5-1.7,8.9c2.4,1.2,3.8,2.4,4.3,3.4
		c0,1.2-1,3.4-3.1,6.2c-0.5-1-1.9-2.2-4.1-3.4c-2.6,3.6-5.8,6.7-9.6,9.6c-4.6,3.1-8.6,5.8-12.2,7.2c-1,0.5-5.3,2.2-13,5
		c-1.2,0.5-2.2,0.7-2.4,0.7c-0.2,0-0.2-0.2-0.2-0.2c0-0.2,0.5-1,1.9-1.7c5.8-3.6,11.5-7,17.5-10.3
		C436.4,234.9,441.5,231.1,444.8,227.5L444.8,227.5L444.8,227.5L444.8,227.5z"/>
	<path fill="#635E49" d="M596.5,257.2c0.5-1.4,0.5-2.9,0.2-4.3c-0.2-1.4-1-2.2-2.2-2.2c-0.5,0-1.2,0.2-2.2,0.7c-1,0.5-1.4,1-1.4,1.4
		C591,254.1,592.9,255.6,596.5,257.2L596.5,257.2L596.5,257.2L596.5,257.2z M601.8,266.1c-2.4,5.8-3.6,10.3-3.6,13.7
		c0,4.1,1,6.2,3.1,6.2c1.2,0,2.6-1.7,4.3-4.6c0.2-0.2,0.2-0.5,0.5-0.7c0,0,0.2,0,0.2,0.2c0,0,0,0.2,0,0.7
		c-1.4,7.2-3.6,10.8-6.5,10.8c-3.1,0-4.6-2.6-4.6-7.9c0-2.6,0.5-6,1.9-10.3c1.4-4.3,2.2-6.5,2.2-6.7c0-0.5-1-1.4-3.1-2.6
		c-3.8,5-9.1,9.8-15.8,13.9c-4.6,2.6-9.1,5-13.9,7c-8.9,3.6-14.2,5.5-15.4,6.2c-1.2,0.5-1.9,0.7-2.4,0.7c-0.2,0-0.2-0.2-0.2-0.2
		c0-0.5,0.5-1,1.9-1.9c7.7-4.3,15.1-8.6,22.8-13c10.1-5.8,17-10.6,20.4-14.2c-4.6-2.4-6.7-4.8-6.7-7.4c0-3.1,1.4-6,4.3-8.6
		c2.9-2.4,5.3-3.4,7.2-2.6c1.4,0.5,2.4,2.2,2.4,5c0,2.6-0.5,5.5-1.7,8.6c2.4,1.4,3.4,2.9,3.4,4.3
		C602.5,263.5,602.3,264.7,601.8,266.1L601.8,266.1L601.8,266.1L601.8,266.1z"/>
	<path fill="#635E49" d="M492.6,231.3c0-0.2,0.2-0.5,0.2-0.5c0.2-0.2,0.2-0.2,0.2,0c0.2,0.2,0.2,0.5,0,0.7
		c-1.2,7.2-3.4,10.8-6.5,10.8c-3.1,0-4.6-2.6-4.6-7.9c0-6.5,1.7-13.4,5.5-20.4c1-1.7,1.4-2.6,1.7-2.6l0,0c0,0.2-0.2,1.2-0.7,2.9
		c-2.4,7.4-3.6,12.5-3.6,15.6c0,3.8,1,6,3.1,6C489.5,235.9,490.9,234.2,492.6,231.3L492.6,231.3L492.6,231.3L492.6,231.3z"/>
</g>
</svg>
