<?xml version="1.0" encoding="utf-8"?>
<!-- Generator: Adobe Illustrator 18.1.1, SVG Export Plug-In . SVG Version: 6.00 Build 0)  -->
<!DOCTYPE svg PUBLIC "-//W3C//DTD SVG 1.1//EN" "http://www.w3.org/Graphics/SVG/1.1/DTD/svg11.dtd">
<svg version="1.1" id="Layer_1" xmlns="http://www.w3.org/2000/svg" xmlns:xlink="http://www.w3.org/1999/xlink" x="0px" y="0px"
	 viewBox="0 0 792 612" enable-background="new 0 0 792 612" xml:space="preserve">
<g>
	<path fill="#635E49" d="M388.8,236.8c0-4.8-0.7-8.6-2.2-11.8c0-1.7,1.2-5.8,4.1-12c0.2-0.7,0.5-1.2,0.7-1.2c0.5,0,0.7,0.5,1.2,1.2
		c0.7,1.7,2.4,6.2,5.3,13.7c3.1,7.9,4.8,12.7,5.3,14.6c0.5,1.2,0.5,2.4,0.5,2.9c0,2.2-1.9,1-6.2-3.8c-0.5-0.7-0.7-0.2-0.7,1
		c0,0.5,1.2,15.4,3.4,45.1c2.2,29.5,3.1,46.1,3.1,49.9c0,11.3-1.7,21.4-5,30c-1,1.7-1.4,2.9-1.9,3.8l0,0c-0.7,1.2-1,1.2-1.2,0.5
		c-0.2-1,0-2.9,0.2-5.5c0.5-4.1,0.7-8.6,0.7-13.7c0-4.8-1.2-24-3.6-57.8C390,259.8,388.8,240.8,388.8,236.8L388.8,236.8L388.8,236.8
		L388.8,236.8z"/>
	<path fill="#635E49" d="M379.6,341.6c0,14.2-2.6,25.2-7.7,33.4c-4.3,6.7-9.4,10.3-15.1,10.3v-14.6c4.6,0,9.1-1.9,13.4-5.5
		c1.2-1,1.9-5,1.9-11.8c0-4.1-1.4-23.8-3.8-58.8c-2.4-35.3-3.6-55.2-3.6-60.5c0-4.6-1-8.4-2.4-11.5c0-1.7,1.4-5.8,4.1-12.2
		c0.5-0.7,0.7-1,1-1c0.2,0,0.7,0.2,1,1c0.7,1.9,2.6,6.5,5.5,13.9c2.9,7.7,4.6,12.7,5,14.4c0.5,1.4,0.7,2.4,0.7,3.1
		c0,2.2-2.2,1-6.2-3.8c-0.2-0.7-0.5-0.5-0.5,0.7c0,0.2,1,16.3,3.4,48C378.4,318.4,379.6,336.6,379.6,341.6L379.6,341.6L379.6,341.6
		L379.6,341.6z"/>
	<path fill="#635E49" d="M356.8,385.1c-12.5,0-21.6-1.7-27.1-5c-7,5-13.2,7.7-18.5,7.7v-14.6c3.6,0,7-1,10.3-2.4
		c-1.7-2.9-2.4-6.7-2.4-11.5c0-6.7,2.6-13.7,7.7-20.4c4.8-6.2,8.6-9.6,12-9.6c3.1,0,5.8,2.4,7.4,7c1.2,3.6,1.9,7.4,1.9,11.3
		c0,9.4-2.2,16.8-6.2,22.1c2.6,0.7,7.7,1,14.9,1V385.1L356.8,385.1L356.8,385.1z M342.7,357c0-1.9-0.7-4.8-2.2-8.2
		c-1.7-3.8-3.1-5.8-4.3-5.8c-1.4,0-3.8,1.7-7,5c-3.1,3.4-5,6.2-6.2,8.9c0.5,1.4,1.7,3.1,3.4,4.8c1.7,1.9,3.6,3.1,5.5,3.8
		C337.2,363,340.8,360.1,342.7,357L342.7,357L342.7,357L342.7,357z"/>
	<path fill="#635E49" d="M222.4,386.8c11,0,22.8-4.3,35.5-13c9.8-6.7,17.5-13.7,23-21.1c1.9-2.4,2.6-3.6,2.6-3.6
		c0.7-1.2,1-2.6,1-4.6c0-4.6-1.4-11.8-3.8-21.8c-1.9-7.7-6.7-19.2-13.9-35c-0.2-0.5,0-2.4,0.7-6c0.5-3.4,0.7-5.8,1.2-7.2
		c0.5-1.7,1.2-2.2,2.2-1c8.4,11.3,14.9,27.1,19,47c1.7,8.9,4.1,21.4,6.7,37.2c1.2,7,3.4,11.3,6.7,13.4c1.7,1.2,4.6,1.7,8.2,1.7v14.6
		c-5.3,0-9.4-1-12.2-3.1c-4.3-3.1-7-8.9-8.6-17.3c-0.5-2.9-1.4-8.6-2.6-17.5c-1.2,7-3.6,12.7-7.2,17.3c-7.2,8.9-16.1,16.6-26.2,23
		c-11.8,7.4-22.6,11.3-32.4,11.3c-5,0-9.1-2.2-11.8-6.5c-2.2-3.6-3.1-7.9-3.1-13.2c0-10.1,2.2-20.6,6.2-31.2c1-2.2,1.7-3.4,2.2-3.4
		c0.2,0,0.2,0.2,0.2,0.7c0,0.7-0.2,1.9-0.7,3.4c-2.9,10.6-4.3,18.5-4.3,24C210.9,382.9,214.8,386.8,222.4,386.8L222.4,386.8
		L222.4,386.8L222.4,386.8z"/>
	<path fill="#635E49" d="M180.2,347.2c10.1,0,22.6-4.8,37.4-14.4c9.4-6.2,16.6-11.8,21.8-16.6c1-1.2,1.7-2.2,1.7-3.1
		c0-1-0.7-2.6-2.2-5c-2.9-4.8-7-11.8-12-21.1c-1.2-1.9-2.6-4.6-4.1-7.7c-0.2-0.5,0-2.2,0.5-5.5c0.5-3.1,0.7-5.3,1-6.5
		c0.2-1.2,0.7-1.7,1-1.7c0.5,0,0.7,0.2,1.2,0.7c3.1,3.8,6.7,7.7,10.8,11.8c1.7,1.7,2.6,2.6,2.6,3.1c0,0.5-0.2,0.5-1,0.5
		c-0.5,0-2.4-0.2-5.3-1.2c2.2,3.8,5.5,9.8,9.8,18.2c1.2,2.6,1.7,5.8,1.7,9.1c0,4.3-1,8.9-2.9,13.7c-1.7,4.1-3.4,7-5,8.6
		c-5,5.3-12.5,11.3-22.1,17.5c-13.9,9.1-25.4,13.7-34.6,13.7c-8.4,0-14.6-3.8-18.5-11.3c-2.9-5-4.1-10.8-4.1-17.5
		c0-10.1,2.2-20.6,6.2-31.2c1-2.4,1.7-3.4,2.2-3.4c0.2,0,0.2,0.2,0.2,0.7c0,0.7-0.2,1.7-0.7,3.4c-2.9,10.3-4.3,18.5-4.3,23.8
		c0,4.8,1.4,9.4,4.6,13.7C169.9,344.5,174.7,347.2,180.2,347.2L180.2,347.2L180.2,347.2L180.2,347.2z"/>
	<path fill="#635E49" d="M331.4,304.9l3.8-7.9c0.2-0.5,0.5-0.7,1-0.7c0.5,0,2.4,1.2,6.2,3.8c3.6,2.4,5.5,3.8,5.5,4.3
		c0,1.7-1.7,5.3-4.8,10.6c-0.5,0.7-1,0.7-1.4,0.5c-3.1-2.4-6.7-4.8-10.8-7.4c-1.4,2.9-2.6,5.5-4.1,7.7c-0.2,0.7-0.7,1-1.2,0.7
		c-3.6-2.9-7.4-5.5-11.3-7.9c-0.2-0.2-0.2-0.5,0-1l4.6-9.6c0.2-0.5,0.7-1,1-1c0.5,0,2.2,1.2,5.3,3.4
		C328.3,302.3,330.4,304,331.4,304.9L331.4,304.9L331.4,304.9L331.4,304.9z"/>
	<path fill="#635E49" d="M346,230c0-1.2-2.4-3.4-7.4-6.2c-1.7,2.9-2.4,5.5-2.4,7.9c0,1.4,0.7,2.4,2.2,2.4c1.2,0,2.6-0.5,4.3-1.4
		C344.4,232,345.6,231,346,230L346,230L346,230L346,230z M340.8,210.8c0.7-1.2,1.7-1.7,2.4-1.7c0.5,0,1,0.2,1,0.7
		c0,0-0.2,0.2-0.2,0.5c-1,2.2-1.9,4.6-2.6,7c5,3.6,7.4,7.4,7.2,11c-0.5,4.1-1,6.7-1.7,7.7c-2.4,2.9-5,4.6-8.4,4.6
		c-3.4,0-4.8-2.2-4.8-6c0-0.7,0-1.7,0.2-2.6C335,224.3,337.4,217.3,340.8,210.8L340.8,210.8L340.8,210.8L340.8,210.8z"/>
	<path fill="#635E49" d="M293.5,284c18.5-6.7,37.7-13.9,57.8-21.4c0.7-0.2,1.2-0.5,1.4-0.2c0,0,0,0.5-0.2,1.2
		c-1,2.2-1.7,3.4-2.2,3.8c-16.8,6.2-36.7,13.9-59.3,23.3C291.6,288.6,292.3,286.4,293.5,284L293.5,284L293.5,284L293.5,284z"/>
	<path fill="#635E49" d="M279.3,248.3c0-1.2-2.4-3.4-7.4-6.2c-1.7,2.9-2.4,5.5-2.4,7.9c0,1.4,0.7,2.4,2.2,2.4c1.2,0,2.6-0.5,4.3-1.4
		C277.6,250.2,278.8,249.2,279.3,248.3L279.3,248.3L279.3,248.3L279.3,248.3z M274,229.1c0.7-1.2,1.7-1.7,2.4-1.7c0.5,0,1,0.2,1,0.7
		c0,0-0.2,0.2-0.2,0.5c-1,2.2-1.9,4.6-2.6,7c5,3.6,7.4,7.4,7.2,11c-0.5,4.1-1,6.7-1.7,7.7c-2.4,2.9-5,4.6-8.4,4.6
		c-3.4,0-4.8-2.2-4.8-6c0-0.7,0-1.7,0.2-2.6C268.3,242.5,270.7,235.6,274,229.1L274,229.1L274,229.1L274,229.1z"/>
	<path fill="#635E49" d="M227,358.9c9.6-3.4,19.9-7.2,31-11c1-0.2,1.2-0.5,1.4-0.2c0.2,0,0.2,0.5-0.2,1.2c-0.7,2.2-1.4,3.4-1.9,3.8
		c-9.6,3.4-20.4,7.4-32.6,13C225.1,363.5,225.8,361.3,227,358.9L227,358.9L227,358.9L227,358.9z"/>
	<path fill="#635E49" d="M286.5,390.4c0,2.6-1.2,5.5-3.1,8.6c-2.2,3.1-4.8,6-8.2,8.4c-1.4,1-2.2,1.4-2.4,1.4v-0.2
		c0-0.2,0.5-0.7,1.4-1.9c5.5-6,8.4-9.8,8.4-12c0-1.7-1-2.6-2.6-2.6c-1,0-1.9,0.2-2.6,0.7c-0.7,0.2-1,0.5-1.2,0.5c0,0-0.2,0-0.2-0.2
		c0,0,0-0.5,0.2-1.4c1-4.1,2.9-6,6.2-6C285.1,385.6,286.5,387.2,286.5,390.4L286.5,390.4L286.5,390.4L286.5,390.4z"/>
	<path fill="#635E49" d="M173,289.8c0-0.2,0.2-0.5,0.2-0.5c0.2-0.2,0.2-0.2,0.2,0c0.2,0.2,0.2,0.5,0,0.7c-1.2,7.2-3.4,10.8-6.5,10.8
		c-3.1,0-4.6-2.6-4.6-7.9c0-6.5,1.7-13.4,5.5-20.4c1-1.7,1.4-2.6,1.7-2.6l0,0c0,0.2-0.2,1.2-0.7,2.9c-2.4,7.4-3.6,12.5-3.6,15.6
		c0,3.8,1,6,3.1,6C169.9,294.4,171.3,292.7,173,289.8L173,289.8L173,289.8L173,289.8z"/>
	<path fill="#635E49" d="M206.8,306.8c0-0.2,0.2-0.5,0.2-0.5c0.2-0.2,0.2-0.2,0.2,0c0.2,0.2,0.2,0.5,0,0.7
		c-1.2,7.2-3.4,10.8-6.5,10.8c-3.1,0-4.6-2.6-4.6-7.9c0-6.5,1.7-13.4,5.5-20.4c1-1.7,1.4-2.6,1.7-2.6l0,0c0,0.2-0.2,1.2-0.7,2.9
		c-2.4,7.4-3.6,12.5-3.6,15.6c0,3.8,1,6,3.1,6C203.7,311.4,205.2,309.7,206.8,306.8L206.8,306.8L206.8,306.8L206.8,306.8z"/>
	<path fill="#635E49" d="M184.8,236c2.9,0,5.3,1.4,7.4,4.8c2.2,3.1,3.8,7.4,4.6,12.7c0.2,0.5,0.2,0.7,0.2,1h0.2c0-0.2,0.2-0.5,0.2-1
		c0.5-3.1,1.7-7.9,3.4-14.2c1.9-4.3,3.8-6.5,6-6.5c1.2,0,2.4,0.7,3.4,2.2c1,1.4,1.4,2.4,1.4,3.4c0,0.5,0,1.4-0.5,2.4
		c-0.5,1.4-1,2.2-1.4,2.2c-0.2,0-0.7-0.7-1.7-1.7c-0.7-1-1.7-1.4-2.6-1.4c-1.9,0-3.6,4.6-5.3,13.7c-0.7,4.1-1.7,7-2.4,8.6
		c-0.7,1-1.2,1.7-1.7,1.7c-0.5,0-0.5-0.7-0.7-1.7c0.2-1.7-0.7-4.8-2.6-9.4c-1.9-4.8-3.1-7-4.1-7c-0.5,0-0.7,0-1,0.5
		c-0.2,0.2-0.5,0.5-1.2,0.5c-1,0-1.9-0.7-3.4-1.9c-1.4-1.2-1.9-2.2-1.9-2.9c0-0.2,0.5-1.4,1.7-3.4C183.8,236.8,184.5,236,184.8,236
		L184.8,236L184.8,236L184.8,236z"/>
	<path fill="#635E49" d="M250,227.6c0-0.2,0.2-0.5,0.2-0.5c0.2-0.2,0.2-0.2,0.2,0c0.2,0.2,0.2,0.5,0,0.7c-1.2,7.2-3.4,10.8-6.5,10.8
		c-3.1,0-4.6-2.6-4.6-7.9c0-6.5,1.7-13.4,5.5-20.4c1-1.7,1.4-2.6,1.7-2.6l0,0c0,0.2-0.2,1.2-0.7,2.9c-2.4,7.4-3.6,12.5-3.6,15.6
		c0,3.8,1,6,3.1,6C246.9,232.2,248.4,230.5,250,227.6L250,227.6L250,227.6L250,227.6z"/>
	<path fill="#635E49" d="M314.8,223.8c0-0.2,0.2-0.5,0.2-0.5c0.2-0.2,0.2-0.2,0.2,0c0.2,0.2,0.2,0.5,0,0.7
		c-1.2,7.2-3.4,10.8-6.5,10.8c-3.1,0-4.6-2.6-4.6-7.9c0-6.5,1.7-13.4,5.5-20.4c1-1.7,1.4-2.6,1.7-2.6l0,0c0,0.2-0.2,1.2-0.7,2.9
		c-2.4,7.4-3.6,12.5-3.6,15.6c0,3.8,1,6,3.1,6C311.7,228.4,313.2,226.7,314.8,223.8L314.8,223.8L314.8,223.8L314.8,223.8z"/>
	<path fill="#635E49" d="M310.3,253.1c0,2.6-1.2,5.5-3.1,8.6c-2.2,3.1-4.8,6-8.2,8.4c-1.4,1-2.2,1.4-2.4,1.4v-0.2
		c0-0.2,0.5-0.7,1.4-1.9c5.5-6,8.4-9.8,8.4-12c0-1.7-1-2.6-2.6-2.6c-1,0-1.9,0.2-2.6,0.7c-0.7,0.2-1,0.5-1.2,0.5c0,0-0.2,0-0.2-0.2
		c0,0,0-0.5,0.2-1.4c1-4.1,2.9-6,6.2-6C308.8,248.3,310.3,250,310.3,253.1L310.3,253.1L310.3,253.1L310.3,253.1z"/>
	<path fill="#635E49" d="M574,317.6c1.2-1,2.2-1.4,2.9-1.4c0.5,0,0.7,0.5,0.7,1.4c0,0.7-0.2,2.2-0.7,4.1c-0.5,1.9-0.7,3.4-0.7,4.6
		c0,5.3,3.8,8.2,11.3,8.2c6,0,11-2.6,14.9-7.7c2.4-4.1,5-7.9,7.4-11.8c1-1,1.7-1.4,2.4-1.4c1,0,1.2,1,0.7,3.1c-1,4.1-1.7,6-1.7,5.5
		c0,1.7,1,3.4,2.9,4.8c1.7,1.4,4.1,2.4,6.7,2.4c3.4,0,5.5-1,6.5-2.6c0-0.2-1-2.2-3.1-5.8c0.2-1.9,1.2-5.3,2.6-9.8
		c0.2-1.4,0.7-2.2,1.2-2.2c0.5,0,1,0.2,1.7,1.2c1.9,2.9,3.1,6.2,3.1,10.1c0,6-1.4,11-4.1,15.4c-2.9,5.3-7.2,7.9-13,7.9
		c-3.8,0-7.4-3.1-10.6-8.9c-5.3,9.6-12.2,14.4-20.6,14.4c-10.1,0-14.9-5.8-14.9-16.8c-3.8,4.6-10.3,8.6-18.7,12.5v-13.2
		c6.2-3.1,10.3-5,11.5-5.8C566.4,323.9,570.2,321,574,317.6L574,317.6L574,317.6L574,317.6z"/>
	<path fill="#635E49" d="M537.3,333.5c-3.6-4.6-6.7-6.7-9.6-6.7c-4.3,0-6.2,1-6.2,3.4c0,2.9,2.9,4.3,8.6,4.3
		C532.3,334.4,534.7,334,537.3,333.5L537.3,333.5L537.3,333.5L537.3,333.5z M544.8,351c0-1.4-0.5-3.1-1-4.8c-2.9,1-7.2,1.7-12.5,1.7
		c-11.5,0-17.3-4.1-17.3-12c0-6,1.7-11.3,5.5-16.1c3.6-4.1,7.4-6.2,11.5-6.2c3.1,0,6.2,1.9,9.8,5.5c3.1,3.6,6,7.7,8.4,12.7
		c0.2,0,0.7,0,1.7-0.5v13.2l-0.5,0.5c0,2.9-0.7,6.2-2.2,10.6c-1.7,5.5-4.3,10.1-7.4,13.7c-7.2,8.6-15.1,16.1-23.8,22.6
		c-13,9.6-24,14.6-33.6,14.6c-8.2,0-14.4-3.1-18.7-9.1c-3.8-5-5.8-11.8-5.8-19.7c0-10.1,2.2-20.4,6.2-31.2c1.2-2.4,1.7-3.4,2.2-3.4
		c0.2,0,0.2,0.2,0.2,0.7c0,0.7-0.2,1.9-0.5,3.4c-3.1,10.6-4.6,18.5-4.6,24c0,5,1.2,9.4,3.6,13c3.8,5,9.8,7.7,18.2,7.7
		c7.2,0,15.8-3.1,26.2-9.4c8.2-5,16.1-11,23.8-18.2C541.2,357.5,544.8,353.2,544.8,351L544.8,351L544.8,351L544.8,351z"/>
	<path fill="#635E49" d="M479.2,314.8c-0.5-2.2-1.2-3.8-2.2-5c-0.7-1.4-1.2-2.2-1.4-2.6c0-0.5,0-2.2,0.5-5.5
		c0.5-3.1,0.7-5.3,1.2-6.5c0.2-1.2,0.5-1.7,1-1.7c0.2,0,0.5,0.2,1,0.7c3.4,3.8,7,7.7,11,11.8c1.7,1.7,2.4,2.6,2.4,3.1
		c0,0.2-0.2,0.5-0.7,0.5c-0.7,0-2.6-0.5-5.5-1.2c1.7,4.1,3.6,8.2,5.3,12c2.6,6.7,4.1,12.2,4.1,17.3c0,2.4-0.5,5.3-1.4,8.9
		c-1.2,4.1-2.6,7.2-4.6,9.4c-7,7.9-18.7,16.6-35.3,25.9c-14.4,8.4-22.8,12.5-25.4,12.5c-0.5,0-7.7,1.7-21.4,5
		c-14.4,3.4-23.5,5.5-27.1,6c-3.8,0.7-6.2,1-7.2,1c-0.5,0-0.5,0-0.5-0.2c0-0.2,2.6-1.7,7.9-4.1c1.9-1,13-5.8,33.4-14.4
		c14.2-6,25.9-11.5,35.3-16.6c14.2-7.7,25-14.4,32.4-19.9c5.5-4.3,8.4-7.4,8.4-9.4c0-0.5-1.4-3.8-4.3-10.1
		C482.8,324.6,480.4,318.8,479.2,314.8L479.2,314.8L479.2,314.8L479.2,314.8z"/>
	<path fill="#635E49" d="M459.6,281.4c0,3.8-1.9,9.1-5.8,15.6c-2.4,4.1-6,9.6-10.8,16.8c4.8,5.5,8.2,10.6,9.8,14.9
		c1,3.1,1.7,7.2,1.7,11.8c0,1.9-0.5,4.3-1.4,7.4c-0.7,2.9-1.7,5-2.6,6.5c-1.9,2.9-5,5.8-9.8,8.6c-5,3.4-9.4,5-13,5
		c-5.8,0-8.6-4.3-8.6-13c0-5.8,1-11.5,2.9-16.8c1.9-4.6,5-10.6,10.1-18.5c-4.3-4.1-8.9-9.8-13.9-17c-0.5-0.7-1.7-1.9-3.6-3.8
		c-1-1-1.4-2.2-1.4-3.6c0-2.2,0.2-4.6,0.7-7.4c0.7-2.9,1.2-4.1,1.4-4.1c0.7,0,2.9,1.2,7,3.8c3.8,2.6,7,4.6,8.9,6.2
		c1.2,0.7,1.7,1.4,1.7,1.4v0.2c0,0.2-0.7,0.5-2.4,0.5c-3.1,0-4.8,0.2-4.8,0.5s0.5,0.7,1.4,1.9c3.8,4.8,7.7,8.4,11.8,11.3
		c1-1.4,4.3-6.2,9.6-14.4c4.6-7,7.2-11.8,8.4-14.6c1.2-2.9,1.9-4.1,2.4-4.1C459.3,276.6,459.6,278,459.6,281.4L459.6,281.4
		L459.6,281.4L459.6,281.4z M450.2,340.4c-2.6-5.3-7.2-10.8-13.4-16.1c-2.2,2.2-4.8,6.2-8.2,12c-3.8,6.5-5.5,10.6-5.5,12.7
		c0,2.9,1.9,4.3,6.2,4.3c1.9,0,4.3-0.7,7.4-1.9c4.3-1.9,8.4-4.6,11.8-7.9C450,342.1,450.4,341.2,450.2,340.4L450.2,340.4
		L450.2,340.4L450.2,340.4z"/>
	<path fill="#635E49" d="M436.8,263.4l3.8-7.9c0.2-0.5,0.5-0.7,1-0.7c0.5,0,2.4,1.2,6.2,3.8c3.6,2.4,5.5,3.8,5.5,4.3
		c0,1.7-1.7,5.3-4.8,10.6c-0.5,0.7-1,0.7-1.4,0.5c-3.1-2.4-6.7-4.8-10.8-7.4c-1.4,2.9-2.6,5.5-4.1,7.7c-0.2,0.7-0.7,1-1.2,0.7
		c-3.6-2.9-7.4-5.5-11.3-7.9c-0.2-0.2-0.2-0.5,0-1l4.6-9.6c0.2-0.5,0.7-1,1-1c0.5,0,2.2,1.2,5.3,3.4
		C433.6,260.8,435.8,262.4,436.8,263.4L436.8,263.4L436.8,263.4L436.8,263.4z"/>
	<path fill="#635E49" d="M563.2,397.3c-2.6,0.7-4.1,1.2-4.6,1.2v-0.2c0,0,1-0.7,2.9-1.9c1.9-1.2,4.8-3.1,8.9-6.2
		c1.9-1.9,4.8-5,8.4-9.4c2.4-2.9,5-5.5,7.9-7.4c3.6-2.6,7-3.8,10.6-3.8c0.7,0,1.9,0.2,3.4,0.7c1.2,0.5,2.4,0.7,3.4,0.7
		c1.9,0,3.4-0.7,4.6-2.2c0.7-1.4,1.7-2.6,2.6-4.1c0.5-1,1.2-1.4,1.7-1.4c0.2,0,0.2,0.2,0.2,0.7c0,0.5-0.2,1.7-0.7,3.1
		c-0.5,0.7,1.4,1,5,1c0.5,0,0.7,0,0.7-0.2c0,0-0.2-1-0.7-2.6c-0.2-0.5,0-1.2,0.7-2.2c1-1.7,1.4-2.4,1.7-2.2c1,0.7,1.4,2.2,1.4,3.8
		c0,1.7-0.5,3.4-1.2,5.3c-0.7,2.2-1.4,3.4-1.9,3.8c-1.7,1-4.3,0.7-7.9-1c-2.9,2.9-5.8,4.6-8.6,4.6c-0.7,0-1.9-0.2-3.1-0.7
		c-1.2-0.5-2.2-0.7-2.9-0.7c-4.8,0-9.8,2.2-14.9,7c-3.6,3.6-7.2,7.2-10.8,10.8C567.8,395.4,565.6,396.6,563.2,397.3L563.2,397.3
		L563.2,397.3L563.2,397.3z"/>
	<path fill="#635E49" d="M511.9,267.7c2.9,0,5.3,1.4,7.4,4.8c2.2,3.1,3.8,7.4,4.6,12.7c0.2,0.5,0.2,0.7,0.2,1h0.2
		c0-0.2,0.2-0.5,0.2-1c0.5-3.1,1.7-7.9,3.4-14.2c1.9-4.3,3.8-6.5,6-6.5c1.2,0,2.4,0.7,3.4,2.2c1,1.4,1.4,2.4,1.4,3.4
		c0,0.5,0,1.4-0.5,2.4c-0.5,1.4-1,2.2-1.4,2.2c-0.2,0-0.7-0.7-1.7-1.7c-0.7-1-1.7-1.4-2.6-1.4c-1.9,0-3.6,4.6-5.3,13.7
		c-0.7,4.1-1.7,7-2.4,8.6c-0.7,1-1.2,1.7-1.7,1.7c-0.5,0-0.5-0.7-0.7-1.7c0.2-1.7-0.7-4.8-2.6-9.4c-1.9-4.8-3.1-7-4.1-7
		c-0.5,0-0.7,0-1,0.5c-0.2,0.2-0.5,0.5-1.2,0.5c-1,0-1.9-0.7-3.4-1.9c-1.4-1.2-1.9-2.2-1.9-2.9c0-0.2,0.5-1.4,1.7-3.4
		C510.9,268.4,511.6,267.7,511.9,267.7L511.9,267.7L511.9,267.7L511.9,267.7z"/>
	<path fill="#635E49" d="M471.1,264.6c24.2-9.1,49.4-18.2,75.4-27.8c0.7-0.2,1.2-0.5,1.2-0.2c0.2,0,0.2,0.5,0,1.2
		c-1,2.2-1.7,3.4-2.2,3.8c-0.2,0.2-12.5,4.8-36.2,13.7c-24.2,8.9-37.9,14.4-40.6,16.1C469.2,269.2,469.9,267,471.1,264.6
		L471.1,264.6L471.1,264.6L471.1,264.6z"/>
	<path fill="#635E49" d="M447.6,220.7c0.5-1.4,0.5-2.9,0.2-4.3c-0.2-1.4-1-2.2-2.2-2.2c-0.5,0-1.2,0.2-2.2,0.7c-1,0.5-1.4,1-1.4,1.4
		C442,217.6,444,219,447.6,220.7L447.6,220.7L447.6,220.7L447.6,220.7z M444.7,226.9c-4.6-2.4-6.7-4.8-6.7-7.4c0-3.1,1.4-6,4.3-8.4
		c2.9-2.6,5.3-3.6,7.2-2.9c1.7,0.5,2.4,2.2,2.4,5c0,2.6-0.5,5.5-1.7,8.9c2.4,1.2,3.8,2.4,4.3,3.4c0,1.2-1,3.4-3.1,6.2
		c-0.5-1-1.9-2.2-4.1-3.4c-2.6,3.6-5.8,6.7-9.6,9.6c-4.6,3.1-8.6,5.8-12.2,7.2c-1,0.5-5.3,2.2-13,5c-1.2,0.5-2.2,0.7-2.4,0.7
		c-0.2,0-0.2-0.2-0.2-0.2c0-0.2,0.5-1,1.9-1.7c5.8-3.6,11.5-7,17.5-10.3C436.3,234.4,441.3,230.5,444.7,226.9L444.7,226.9
		L444.7,226.9L444.7,226.9z"/>
	<path fill="#635E49" d="M596.4,256.9c0.5-1.4,0.5-2.9,0.2-4.3c-0.2-1.4-1-2.2-2.2-2.2c-0.5,0-1.2,0.2-2.2,0.7c-1,0.5-1.4,1-1.4,1.4
		C590.8,253.8,592.8,255.2,596.4,256.9L596.4,256.9L596.4,256.9L596.4,256.9z M601.6,265.8c-2.4,5.8-3.6,10.3-3.6,13.7
		c0,4.1,1,6.2,3.1,6.2c1.2,0,2.6-1.7,4.3-4.6c0.2-0.2,0.2-0.5,0.5-0.7c0,0,0.2,0,0.2,0.2c0,0,0,0.2,0,0.7
		c-1.4,7.2-3.6,10.8-6.5,10.8c-3.1,0-4.6-2.6-4.6-7.9c0-2.6,0.5-6,1.9-10.3c1.4-4.3,2.2-6.5,2.2-6.7c0-0.5-1-1.4-3.1-2.6
		c-3.8,5-9.1,9.8-15.8,13.9c-4.6,2.6-9.1,5-13.9,7c-8.9,3.6-14.2,5.5-15.4,6.2c-1.2,0.5-1.9,0.7-2.4,0.7c-0.2,0-0.2-0.2-0.2-0.2
		c0-0.5,0.5-1,1.9-1.9c7.7-4.3,15.1-8.6,22.8-13c10.1-5.8,17-10.6,20.4-14.2c-4.6-2.4-6.7-4.8-6.7-7.4c0-3.1,1.4-6,4.3-8.6
		c2.9-2.4,5.3-3.4,7.2-2.6c1.4,0.5,2.4,2.2,2.4,5c0,2.6-0.5,5.5-1.7,8.6c2.4,1.4,3.4,2.9,3.4,4.3
		C602.4,263.2,602.1,264.4,601.6,265.8L601.6,265.8L601.6,265.8L601.6,265.8z"/>
	<path fill="#635E49" d="M492.4,230.8c0-0.2,0.2-0.5,0.2-0.5c0.2-0.2,0.2-0.2,0.2,0c0.2,0.2,0.2,0.5,0,0.7
		c-1.2,7.2-3.4,10.8-6.5,10.8c-3.1,0-4.6-2.6-4.6-7.9c0-6.5,1.7-13.4,5.5-20.4c1-1.7,1.4-2.6,1.7-2.6l0,0c0,0.2-0.2,1.2-0.7,2.9
		c-2.4,7.4-3.6,12.5-3.6,15.6c0,3.8,1,6,3.1,6C489.3,235.3,490.8,233.6,492.4,230.8L492.4,230.8L492.4,230.8L492.4,230.8z"/>
</g>
</svg>
