<?xml version="1.0" encoding="utf-8"?>
<!-- Generator: Adobe Illustrator 18.1.1, SVG Export Plug-In . SVG Version: 6.00 Build 0)  -->
<!DOCTYPE svg PUBLIC "-//W3C//DTD SVG 1.1//EN" "http://www.w3.org/Graphics/SVG/1.1/DTD/svg11.dtd">
<svg version="1.1" id="Layer_1" xmlns="http://www.w3.org/2000/svg" xmlns:xlink="http://www.w3.org/1999/xlink" x="0px" y="0px"
	 viewBox="0 0 792 612" enable-background="new 0 0 792 612" xml:space="preserve">
<g>
	<path fill="#635E4A" d="M424.6,343.4c-2.6,2.6-13.7,7.9-33.1,16.3v-13.2c7.2-3.1,14.2-6,21.4-9.1c10.6-4.6,15.8-7.4,15.8-8.6
		c0-2.2-1.9-4.3-5.3-6.2c-3.4-1.7-6.7-2.6-10.3-2.6h-9.6c-3.6,0-6.5-1.2-8.6-3.4c-2.2-2.4-3.1-5.5-3.1-9.1c0-5,1.7-10.1,5-15.1
		c3.6-5,7.2-7.7,10.8-7.7c6,0,11.8,3.4,17,10.1c5.5,7.4,8.4,16.3,8.4,26.4C433,330.4,430.1,337.8,424.6,343.4L424.6,343.4
		L424.6,343.4L424.6,343.4z M417.4,306.6c-3.4-5.5-7.4-8.2-11.8-8.2c-3.1,0-4.8,1.2-4.8,3.1c0,2.4,1.9,3.8,6,4.3
		C409,305.9,412.6,306.2,417.4,306.6L417.4,306.6L417.4,306.6L417.4,306.6z"/>
	<path fill="#635E4A" d="M346.1,373.1c5-5.8,11.8-10.8,20.2-15.4c4.8-2.6,13.2-6.5,25.2-11.5v13.2c-7.7,3.4-13.2,5.8-16.8,7.4
		c-7.4,3.6-12.5,6.2-15.1,8.4c-5,3.8-12.5,11.3-22.1,22.3c-5.8,6.7-11.5,10.1-17.3,10.1c-4.8,0-9.1-2.2-12.7-6.7
		c-3.8-4.3-5.5-10.1-5.5-16.6c0-8.9,3.6-20.6,11-35.3c0.7-1.4,1.4-2.2,1.9-2.2c0,0,0.2,0.2,0.2,0.5c0,1.4-1.7,6.5-4.8,15.1
		c-3.4,8.9-5,15.6-5,20.6c0,3.8,1,7,2.9,9.1c1.9,2.6,4.6,3.8,7.9,3.8c6,0,12.2-3.1,18.2-9.1C338.4,382.5,342.3,377.7,346.1,373.1
		L346.1,373.1L346.1,373.1L346.1,373.1z"/>
	<path fill="#635E4A" d="M334.1,307.4c0-1.4-1.2-4.3-3.6-8.9c-2.9-5.8-5-10.3-6.2-13.9c-2.4-7.7-4.1-14.6-5-21.1
		c-0.2-2.6-0.5-4.1-0.7-4.8c-0.2-1.2-1-2.6-1.9-4.1c0.7-2.2,1.7-5.3,3.1-9.4c0.7-1.2,1-1.7,1.4-1.7c0.2,0,1,0.5,1.9,1.7
		c3.8,5.3,7,10.3,9.6,14.4c1.2,1.9,1.7,3.1,1.7,3.8c0,0.5-0.2,0.7-0.7,0.7c-1,0-2.9-0.7-5.3-2.4c-0.2,0-0.5,0.2-0.7,0.5
		c1,3.1,2.4,7.7,4.3,13.2c4.6,12.5,6.7,21.6,6.7,27.4c0,4.8-1.4,9.8-3.8,14.9c-3.4,7-7.9,10.3-13.4,10.3v-14.6
		C328.1,313.4,332.4,311.2,334.1,307.4L334.1,307.4L334.1,307.4L334.1,307.4z"/>
	<path fill="#635E4A" d="M169,395c-14.6,0-25.4-4.8-32.2-14.9c-5.3-7.4-7.7-17-7.7-28.8c0-3.6,0.2-7.2,0.7-10.6
		c1-5.5,2.2-10.3,3.6-14.4c0.5-1.2,1.2-1.9,1.7-1.9s0.5,0.7,0.2,2.4C133,339,132,346,132,347.4c0,7.4,2.4,14.4,7.4,20.6
		c6.7,8.2,16.6,12.2,29.3,12.2c11.5,0,23.5-2.4,36-7.7c10.3-4.3,19.7-9.6,28.1-15.8c7.4-5.8,11-9.8,11-12.2c0-7-2.2-14.9-6.7-23.3
		c-1-1.7-1.4-3.1-1.4-4.3c0-0.7,1-4.1,2.9-10.3c0.5-1,0.7-1.7,1.2-1.7c0.5,0,1.2,1,1.9,2.4c3.6,7.7,8.6,11.5,14.4,11.5
		c3.8,0,6.5-0.2,8.4-0.7c2.9-1,5.8-2.9,8.6-6c1.4-2.2,4.1-5.5,7.7-9.8c0.7-1,1.4-1.4,2.4-1.4c1,0,1.4,0.5,1.4,1.7
		c0,0.5-0.2,1.4-0.7,2.6c-0.2,1.4-0.5,2.4-0.5,3.1c0,1.4,0.7,2.9,2.4,4.6c1.9,2.2,4.3,3.4,7.4,3.1c4.6,0.2,9.4-5.5,14.2-16.8
		c0.5-1,1.2-1.4,1.7-1.4c1.2,0,1.7,0.7,1.2,2.4c0,1-0.2,2.2-0.2,3.1c0,6.7,3.8,10.1,11.5,10.1V328c-7.4,0-12.5-4.1-15.1-12
		c-0.2-0.7-0.5-0.7-1,0c-3.4,9.8-8.4,14.9-15.1,14.6c-2.4,0.2-4.8-0.7-7.2-2.4c-2.9-1.9-4.8-4.6-6-7.7c-0.2-1-0.7-1-1.2,0
		c-1.4,2.2-3.8,4.8-7.2,7.2c-4.8,3.8-9.4,5.5-13.9,5.5c-2.2,0-4.1-0.2-5.8-0.7c0,12.7-2.4,21.8-7.4,27.6
		c-6.5,7.4-15.8,14.6-28.3,21.6C197.6,390.6,182.7,395,169,395L169,395L169,395L169,395z"/>
	<path fill="#635E4A" d="M329.3,346.7l3.8-7.9c0.2-0.5,0.5-0.7,1-0.7c0.5,0,2.4,1.2,6.2,3.8c3.6,2.4,5.5,3.8,5.5,4.3
		c0,1.7-1.7,5.3-4.8,10.6c-0.5,0.7-1,0.7-1.4,0.5c-3.1-2.4-6.7-4.8-10.8-7.4c-1.4,2.9-2.6,5.5-4.1,7.7c-0.2,0.7-0.7,1-1.2,0.7
		c-3.6-2.9-7.4-5.5-11.3-7.9c-0.2-0.2-0.2-0.5,0-1l4.6-9.6c0.2-0.5,0.7-1,1-1c0.5,0,2.2,1.2,5.3,3.4
		C326.2,344.1,328.4,345.8,329.3,346.7L329.3,346.7L329.3,346.7L329.3,346.7z"/>
	<path fill="#635E4A" d="M281.3,265.6l3.8-7.7c0.2-0.7,0.5-1,1-1c0.5,0,2.4,1.2,6.2,3.8c3.6,2.6,5.5,4.1,5.5,4.6
		c0,1.7-1.7,5-4.8,10.3c-0.5,0.7-1,0.7-1.4,0.5c-3.1-2.4-6.7-4.8-10.8-7.4c-1.4,2.9-2.6,5.5-4.1,7.7c-0.2,0.7-0.7,1-1.2,0.7
		c-3.6-2.9-7.4-5.5-11.3-7.9c-0.2-0.2-0.2-0.5,0-1l4.6-9.6c0.2-0.5,0.7-1,1-1c0.5,0,2.2,1.2,5.3,3.4
		C278.2,263,280.4,264.6,281.3,265.6L281.3,265.6L281.3,265.6L281.3,265.6z M268.1,250.7c-0.2-0.2-0.2-0.5,0-1l4.8-9.6
		c0.2-0.5,0.5-0.7,1-0.7c0.5,0,2.4,1.2,6.2,3.6c3.6,2.6,5.5,4.1,5.5,4.6c0,1.7-1.7,5-4.8,10.3c-0.5,0.7-1,1-1.4,0.5
		C275.8,255.8,272,253.1,268.1,250.7L268.1,250.7L268.1,250.7L268.1,250.7z"/>
	<path fill="#635E4A" d="M408.3,257.7l3.8-7.9c0.2-0.5,0.5-0.7,1-0.7c0.5,0,2.4,1.2,6.2,3.8c3.6,2.4,5.5,3.8,5.5,4.3
		c0,1.7-1.7,5.3-4.8,10.6c-0.5,0.7-1,0.7-1.4,0.5c-3.1-2.4-6.7-4.8-10.8-7.4c-1.4,2.9-2.6,5.5-4.1,7.7c-0.2,0.7-0.7,1-1.2,0.7
		c-3.6-2.9-7.4-5.5-11.3-7.9c-0.2-0.2-0.2-0.5,0-1l4.6-9.6c0.2-0.5,0.7-1,1-1c0.5,0,2.2,1.2,5.3,3.4
		C405.2,255,407.3,256.7,408.3,257.7L408.3,257.7L408.3,257.7L408.3,257.7z"/>
	<path fill="#635E4A" d="M407.8,219c0.5-1.4,0.5-2.9,0.2-4.3c-0.2-1.4-1-2.2-2.2-2.2c-0.5,0-1.2,0.2-2.2,0.7c-1,0.5-1.4,1-1.4,1.4
		C402.3,215.9,404.2,217.4,407.8,219L407.8,219L407.8,219L407.8,219z M404.9,225.3c-4.6-2.4-6.7-4.8-6.7-7.4c0-3.1,1.4-6,4.3-8.4
		c2.9-2.6,5.3-3.6,7.2-2.9c1.7,0.5,2.4,2.2,2.4,5c0,2.6-0.5,5.5-1.7,8.9c2.4,1.2,3.8,2.4,4.3,3.4c0,1.2-1,3.4-3.1,6.2
		c-0.5-1-1.9-2.2-4.1-3.4c-2.6,3.6-5.8,6.7-9.6,9.6c-4.6,3.1-8.6,5.8-12.2,7.2c-1,0.5-5.3,2.2-13,5c-1.2,0.5-2.2,0.7-2.4,0.7
		c-0.2,0-0.2-0.2-0.2-0.2c0-0.2,0.5-1,1.9-1.7c5.8-3.6,11.5-7,17.5-10.3C396.5,232.7,401.6,228.9,404.9,225.3L404.9,225.3
		L404.9,225.3L404.9,225.3z"/>
	<path fill="#635E4A" d="M347.8,290.1c13.7-4.8,28.1-10.1,43.2-15.6c1-0.2,1.2-0.5,1.4-0.2c0.2,0,0.2,0.5-0.2,1.2
		c-0.7,2.2-1.4,3.4-1.9,3.8c-13,4.6-27.8,10.3-44.9,17.5C345.9,294.6,346.6,292.5,347.8,290.1L347.8,290.1L347.8,290.1L347.8,290.1z
		"/>
	<path fill="#635E4A" d="M345.9,209c2.9,0,5.3,1.4,7.4,4.8c2.2,3.1,3.8,7.4,4.6,12.7c0.2,0.5,0.2,0.7,0.2,1h0.2c0-0.2,0.2-0.5,0.2-1
		c0.5-3.1,1.7-7.9,3.4-14.2c1.9-4.3,3.8-6.5,6-6.5c1.2,0,2.4,0.7,3.4,2.2c1,1.4,1.4,2.4,1.4,3.4c0,0.5,0,1.4-0.5,2.4
		c-0.5,1.4-1,2.2-1.4,2.2c-0.2,0-0.7-0.7-1.7-1.7c-0.7-1-1.7-1.4-2.6-1.4c-1.9,0-3.6,4.6-5.3,13.7c-0.7,4.1-1.7,7-2.4,8.6
		c-0.7,1-1.2,1.7-1.7,1.7c-0.5,0-0.5-0.7-0.7-1.7c0.2-1.7-0.7-4.8-2.6-9.4c-1.9-4.8-3.1-7-4.1-7c-0.5,0-0.7,0-1,0.5
		c-0.2,0.2-0.5,0.5-1.2,0.5c-1,0-1.9-0.7-3.4-1.9c-1.4-1.2-1.9-2.2-1.9-2.9c0-0.2,0.5-1.4,1.7-3.4C344.9,209.7,345.6,209,345.9,209
		L345.9,209L345.9,209L345.9,209z"/>
	<path fill="#635E4A" d="M372.5,325.1c0-0.2,0.2-0.5,0.2-0.5c0.2-0.2,0.2-0.2,0.2,0c0.2,0.2,0.2,0.5,0,0.7
		c-1.2,7.2-3.4,10.8-6.5,10.8s-4.6-2.6-4.6-7.9c0-6.5,1.7-13.4,5.5-20.4c1-1.7,1.4-2.6,1.7-2.6l0,0c0,0.2-0.2,1.2-0.7,2.9
		c-2.4,7.4-3.6,12.5-3.6,15.6c0,3.8,1,6,3.1,6C369.4,329.7,370.8,328,372.5,325.1L372.5,325.1L372.5,325.1L372.5,325.1z"/>
	<path fill="#635E4A" d="M362,257.2c0,2.6-1.2,5.5-3.1,8.6c-2.2,3.1-4.8,6-8.2,8.4c-1.4,1-2.2,1.4-2.4,1.4v-0.2
		c0-0.2,0.5-0.7,1.4-1.9c5.5-6,8.4-9.8,8.4-12c0-1.7-1-2.6-2.6-2.6c-1,0-1.9,0.2-2.6,0.7c-0.7,0.2-1,0.5-1.2,0.5c0,0-0.2,0-0.2-0.2
		c0,0,0-0.5,0.2-1.4c1-4.1,2.9-6,6.2-6C360.5,252.4,362,254.1,362,257.2L362,257.2L362,257.2L362,257.2z"/>
	<path fill="#635E4A" d="M312.8,228.6c0-1.2-2.4-3.4-7.4-6.2c-1.7,2.9-2.4,5.5-2.4,7.9c0,1.4,0.7,2.4,2.2,2.4c1.2,0,2.6-0.5,4.3-1.4
		C311.1,230.6,312.3,229.6,312.8,228.6L312.8,228.6L312.8,228.6L312.8,228.6z M307.5,209.4c0.7-1.2,1.7-1.7,2.4-1.7
		c0.5,0,1,0.2,1,0.7c0,0-0.2,0.2-0.2,0.5c-1,2.2-1.9,4.6-2.6,7c5,3.6,7.4,7.4,7.2,11c-0.5,4.1-1,6.7-1.7,7.7c-2.4,2.9-5,4.6-8.4,4.6
		c-3.4,0-4.8-2.2-4.8-6c0-0.7,0-1.7,0.2-2.6C301.7,222.9,304.1,215.9,307.5,209.4L307.5,209.4L307.5,209.4L307.5,209.4z"/>
	<path fill="#635E4A" d="M224.2,400.2c18.5-6.7,37.7-13.9,57.8-21.4c0.7-0.2,1.2-0.5,1.4-0.2c0,0,0,0.5-0.2,1.2
		c-1,2.2-1.7,3.4-2.2,3.8c-16.8,6.2-36.7,13.9-59.3,23.3C222.3,404.8,223,402.6,224.2,400.2L224.2,400.2L224.2,400.2L224.2,400.2z"
		/>
	<path fill="#635E4A" d="M278,350.8c0,2.6-1.2,5.5-3.1,8.6c-2.2,3.1-4.8,6-8.2,8.4c-1.4,1-2.2,1.4-2.4,1.4V369
		c0-0.2,0.5-0.7,1.4-1.9c5.5-6,8.4-9.8,8.4-12c0-1.7-1-2.6-2.6-2.6c-1,0-1.9,0.2-2.6,0.7c-0.7,0.2-1,0.5-1.2,0.5c0,0-0.2,0-0.2-0.2
		c0,0,0-0.5,0.2-1.4c1-4.1,2.9-6,6.2-6C276.5,346,278,347.7,278,350.8L278,350.8L278,350.8L278,350.8z"/>
	<path fill="#635E4A" d="M140.2,315.5c0-0.2,0.2-0.5,0.2-0.5c0.2-0.2,0.2-0.2,0.2,0c0.2,0.2,0.2,0.5,0,0.7
		c-1.2,7.2-3.4,10.8-6.5,10.8c-3.1,0-4.6-2.6-4.6-7.9c0-6.5,1.7-13.4,5.5-20.4c1-1.7,1.4-2.6,1.7-2.6l0,0c0,0.2-0.2,1.2-0.7,2.9
		c-2.4,7.4-3.6,12.5-3.6,15.6c0,3.8,1,6,3.1,6C137.1,320.1,138.5,318.4,140.2,315.5L140.2,315.5L140.2,315.5L140.2,315.5z"/>
	<path fill="#635E4A" d="M213.2,310.5c0,0.5-0.2,1.4-0.7,2.4c-0.2,1.4-0.7,2.2-1.4,2.2c-0.2,0-0.7-0.7-1.7-1.7
		c-0.7-1-1.7-1.4-2.4-1.4c-1.9,0-3.8,4.6-5.5,13.7c-0.7,4.1-1.4,7-2.4,8.6c-0.7,1-1.2,1.7-1.7,1.7c-0.2,0-0.5-0.7-0.5-1.7
		c0-1.7-1-4.8-2.9-9.4c-1.9-4.8-3.1-7-3.8-7c-0.7,0-1,0-1.2,0.5c0,0.2-0.5,0.5-1.2,0.5c-1,0-1.9-0.7-3.4-1.9
		c-1.2-1.2-1.9-2.2-1.9-2.9c0-0.2,0.5-1.4,1.7-3.4c1.2-1.9,1.9-2.6,2.2-2.6c2.6,0,5,1.4,7.2,4.8c2.4,3.4,3.8,7.4,4.8,12.7
		c0,0.5,0,0.7,0,1c0.2,0.2,0.2,0.2,0.2,0c0-0.2,0.2-0.5,0.5-1c0.2-3.1,1.4-7.9,3.1-14.2c1.9-4.3,3.8-6.5,6-6.5
		c1.2,0,2.4,0.7,3.6,2.2C212.7,308.6,213.2,309.5,213.2,310.5L213.2,310.5L213.2,310.5L213.2,310.5z M197.3,338.1
		c-1.7,3.8-5,7.7-10.1,11.3c-4.6,3.4-8.6,5.8-12.2,7.4c-0.7,0.5-5,2.2-13,5c-1.2,0.5-1.9,0.7-2.4,0.7c-0.2,0-0.2-0.2-0.2-0.2
		c0-0.2,0.7-1,1.9-1.7c6.5-3.8,15.6-9.4,27.6-17.3c2.9-2.2,5-4.3,6.7-6.2c1.9-2.2,2.9-3.4,3.1-3.4c0,0,0,0,0,0.2
		C198.8,334.2,198.3,335.7,197.3,338.1L197.3,338.1L197.3,338.1L197.3,338.1z"/>
	<path fill="#635E4A" d="M254.7,232.7c0-0.2,0.2-0.5,0.2-0.5c0.2-0.2,0.2-0.2,0.2,0c0.2,0.2,0.2,0.5,0,0.7
		c-1.2,7.2-3.4,10.8-6.5,10.8c-3.1,0-4.6-2.6-4.6-7.9c0-6.5,1.7-13.4,5.5-20.4c1-1.7,1.4-2.6,1.7-2.6l0,0c0,0.2-0.2,1.2-0.7,2.9
		c-2.4,7.4-3.6,12.5-3.6,15.6c0,3.8,1,6,3.1,6C251.6,237.3,253,235.6,254.7,232.7L254.7,232.7L254.7,232.7L254.7,232.7z"/>
	<path fill="#635E4A" d="M193,233.7c2.9,0,5.3,1.4,7.4,4.8c2.2,3.1,3.8,7.4,4.6,12.7c0.2,0.5,0.2,0.7,0.2,1h0.2c0-0.2,0.2-0.5,0.2-1
		c0.5-3.1,1.7-7.9,3.4-14.2c1.9-4.3,3.8-6.5,6-6.5c1.2,0,2.4,0.7,3.4,2.2c1,1.4,1.4,2.4,1.4,3.4c0,0.5,0,1.4-0.5,2.4
		c-0.5,1.4-1,2.2-1.4,2.2c-0.2,0-0.7-0.7-1.7-1.7c-0.7-1-1.7-1.4-2.6-1.4c-1.9,0-3.6,4.6-5.3,13.7c-0.7,4.1-1.7,7-2.4,8.6
		c-0.7,1-1.2,1.7-1.7,1.7c-0.5,0-0.5-0.7-0.7-1.7c0.2-1.7-0.7-4.8-2.6-9.4c-1.9-4.8-3.1-7-4.1-7c-0.5,0-0.7,0-1,0.5
		c-0.2,0.2-0.5,0.5-1.2,0.5c-1,0-1.9-0.7-3.4-1.9c-1.4-1.2-1.9-2.2-1.9-2.9c0-0.2,0.5-1.4,1.7-3.4C192,234.4,192.8,233.7,193,233.7
		L193,233.7L193,233.7L193,233.7z"/>
	<path fill="#635E4A" d="M168,273.5c0-0.2,0.2-0.5,0.2-0.5c0.2-0.2,0.2-0.2,0.2,0c0.2,0.2,0.2,0.5,0,0.7c-1.2,7.2-3.4,10.8-6.5,10.8
		c-3.1,0-4.6-2.6-4.6-7.9c0-6.5,1.7-13.4,5.5-20.4c1-1.7,1.4-2.6,1.7-2.6l0,0c0,0.2-0.2,1.2-0.7,2.9c-2.4,7.4-3.6,12.5-3.6,15.6
		c0,3.8,1,6,3.1,6C164.9,278.1,166.4,276.4,168,273.5L168,273.5L168,273.5L168,273.5z"/>
	<path fill="#635E4A" d="M234.8,276.4c0-0.2,0.2-0.5,0.2-0.5c0.2-0.2,0.2-0.2,0.2,0c0.2,0.2,0.2,0.5,0,0.7
		c-1.2,7.2-3.4,10.8-6.5,10.8c-3.1,0-4.6-2.6-4.6-7.9c0-6.5,1.7-13.4,5.5-20.4c1-1.7,1.4-2.6,1.7-2.6l0,0c0,0.2-0.2,1.2-0.7,2.9
		c-2.4,7.4-3.6,12.5-3.6,15.6c0,3.8,1,6,3.1,6C231.6,281,233.1,279.3,234.8,276.4L234.8,276.4L234.8,276.4L234.8,276.4z"/>
	<path fill="#635E4A" d="M398.4,379.8c0,2.6-1.2,5.5-3.1,8.6c-2.2,3.1-4.8,6-8.2,8.4c-1.4,1-2.2,1.4-2.4,1.4v-0.2
		c0-0.2,0.5-0.7,1.4-1.9c5.5-6,8.4-9.8,8.4-12c0-1.7-1-2.6-2.6-2.6c-1,0-1.9,0.2-2.6,0.7c-0.7,0.2-1,0.5-1.2,0.5c0,0-0.2,0-0.2-0.2
		c0,0,0-0.5,0.2-1.4c1-4.1,2.9-6,6.2-6C397,375,398.4,376.7,398.4,379.8L398.4,379.8L398.4,379.8L398.4,379.8z"/>
	<path fill="#635E4A" d="M603.9,316.5c1.2-1,2.2-1.4,2.9-1.4c0.5,0,0.7,0.5,0.7,1.4c0,0.7-0.2,2.2-0.7,4.1c-0.5,1.9-0.7,3.4-0.7,4.6
		c0,5.3,3.8,8.2,11.3,8.2c6,0,11-2.6,14.9-7.7c2.4-4.1,5-7.9,7.4-11.8c1-1,1.7-1.4,2.4-1.4c1,0,1.2,1,0.7,3.1c-1,4.1-1.7,6-1.7,5.5
		c0,1.7,1,3.4,2.9,4.8c1.7,1.4,4.1,2.4,6.7,2.4c3.4,0,5.5-1,6.5-2.6c0-0.2-1-2.2-3.1-5.8c0.2-1.9,1.2-5.3,2.6-9.8
		c0.2-1.4,0.7-2.2,1.2-2.2c0.5,0,1,0.2,1.7,1.2c1.9,2.9,3.1,6.2,3.1,10.1c0,6-1.4,11-4.1,15.4c-2.9,5.3-7.2,7.9-13,7.9
		c-3.8,0-7.4-3.1-10.6-8.9c-5.3,9.6-12.2,14.4-20.6,14.4c-10.1,0-14.9-5.8-14.9-16.8c-3.8,4.6-10.3,8.6-18.7,12.5v-13.2
		c6.2-3.1,10.3-5,11.5-5.8C596.2,322.7,600,319.8,603.9,316.5L603.9,316.5L603.9,316.5L603.9,316.5z"/>
	<path fill="#635E4A" d="M567.2,332.3c-3.6-4.6-6.7-6.7-9.6-6.7c-4.3,0-6.2,1-6.2,3.4c0,2.9,2.9,4.3,8.6,4.3
		C562.1,333.3,564.5,332.8,567.2,332.3L567.2,332.3L567.2,332.3L567.2,332.3z M574.6,349.8c0-1.4-0.5-3.1-1-4.8
		c-2.9,1-7.2,1.7-12.5,1.7c-11.5,0-17.3-4.1-17.3-12c0-6,1.7-11.3,5.5-16.1c3.6-4.1,7.4-6.2,11.5-6.2c3.1,0,6.2,1.9,9.8,5.5
		c3.1,3.6,6,7.7,8.4,12.7c0.2,0,0.7,0,1.7-0.5v13.2l-0.5,0.5c0,2.9-0.7,6.2-2.2,10.6c-1.7,5.5-4.3,10.1-7.4,13.7
		c-7.2,8.6-15.1,16.1-23.8,22.6c-13,9.6-24,14.6-33.6,14.6c-8.2,0-14.4-3.1-18.7-9.1c-3.8-5-5.8-11.8-5.8-19.7
		c0-10.1,2.2-20.4,6.2-31.2c1.2-2.4,1.7-3.4,2.2-3.4c0.2,0,0.2,0.2,0.2,0.7c0,0.7-0.2,1.9-0.5,3.4c-3.1,10.6-4.6,18.5-4.6,24
		c0,5,1.2,9.4,3.6,13c3.8,5,9.8,7.7,18.2,7.7c7.2,0,15.8-3.1,26.2-9.4c8.2-5,16.1-11,23.8-18.2C571,356.3,574.6,352,574.6,349.8
		L574.6,349.8L574.6,349.8L574.6,349.8z"/>
	<path fill="#635E4A" d="M509.1,313.6c-0.5-2.2-1.2-3.8-2.2-5c-0.7-1.4-1.2-2.2-1.4-2.6c0-0.5,0-2.2,0.5-5.5
		c0.5-3.1,0.7-5.3,1.2-6.5c0.2-1.2,0.5-1.7,1-1.7c0.2,0,0.5,0.2,1,0.7c3.4,3.8,7,7.7,11,11.8c1.7,1.7,2.4,2.6,2.4,3.1
		c0,0.2-0.2,0.5-0.7,0.5c-0.7,0-2.6-0.5-5.5-1.2c1.7,4.1,3.6,8.2,5.3,12c2.6,6.7,4.1,12.2,4.1,17.3c0,2.4-0.5,5.3-1.4,8.9
		c-1.2,4.1-2.6,7.2-4.6,9.4c-7,7.9-18.7,16.6-35.3,25.9C470,389,461.6,393,458.9,393c-0.5,0-7.7,1.7-21.4,5
		c-14.4,3.4-23.5,5.5-27.1,6c-3.8,0.7-6.2,1-7.2,1c-0.5,0-0.5,0-0.5-0.2c0-0.2,2.6-1.7,7.9-4.1c1.9-1,13-5.8,33.4-14.4
		c14.2-6,25.9-11.5,35.3-16.6c14.2-7.7,25-14.4,32.4-19.9c5.5-4.3,8.4-7.4,8.4-9.4c0-0.5-1.4-3.8-4.3-10.1
		C512.7,323.4,510.3,317.7,509.1,313.6L509.1,313.6L509.1,313.6L509.1,313.6z"/>
	<path fill="#635E4A" d="M489.4,280.2c0,3.8-1.9,9.1-5.8,15.6c-2.4,4.1-6,9.6-10.8,16.8c4.8,5.5,8.2,10.6,9.8,14.9
		c1,3.1,1.7,7.2,1.7,11.8c0,1.9-0.5,4.3-1.4,7.4c-0.7,2.9-1.7,5-2.6,6.5c-1.9,2.9-5,5.8-9.8,8.6c-5,3.4-9.4,5-13,5
		c-5.8,0-8.6-4.3-8.6-13c0-5.8,1-11.5,2.9-16.8c1.9-4.6,5-10.6,10.1-18.5c-4.3-4.1-8.9-9.8-13.9-17c-0.5-0.7-1.7-1.9-3.6-3.8
		c-1-1-1.4-2.2-1.4-3.6c0-2.2,0.2-4.6,0.7-7.4c0.7-2.9,1.2-4.1,1.4-4.1c0.7,0,2.9,1.2,7,3.8c3.8,2.6,7,4.6,8.9,6.2
		c1.2,0.7,1.7,1.4,1.7,1.4v0.2c0,0.2-0.7,0.5-2.4,0.5c-3.1,0-4.8,0.2-4.8,0.5c0,0.2,0.5,0.7,1.4,1.9c3.8,4.8,7.7,8.4,11.8,11.3
		c1-1.4,4.3-6.2,9.6-14.4c4.6-7,7.2-11.8,8.4-14.6c1.2-2.9,1.9-4.1,2.4-4.1C489.2,275.4,489.4,276.9,489.4,280.2L489.4,280.2
		L489.4,280.2L489.4,280.2z M480,339.3c-2.6-5.3-7.2-10.8-13.4-16.1c-2.2,2.2-4.8,6.2-8.2,12c-3.8,6.5-5.5,10.6-5.5,12.7
		c0,2.9,1.9,4.3,6.2,4.3c1.9,0,4.3-0.7,7.4-1.9c4.3-1.9,8.4-4.6,11.8-7.9C479.8,341,480.3,340,480,339.3L480,339.3L480,339.3
		L480,339.3z"/>
	<path fill="#635E4A" d="M466.6,262.2l3.8-7.9c0.2-0.5,0.5-0.7,1-0.7c0.5,0,2.4,1.2,6.2,3.8c3.6,2.4,5.5,3.8,5.5,4.3
		c0,1.7-1.7,5.3-4.8,10.6c-0.5,0.7-1,0.7-1.4,0.5c-3.1-2.4-6.7-4.8-10.8-7.4c-1.4,2.9-2.6,5.5-4.1,7.7c-0.2,0.7-0.7,1-1.2,0.7
		c-3.6-2.9-7.4-5.5-11.3-7.9c-0.2-0.2-0.2-0.5,0-1l4.6-9.6c0.2-0.5,0.7-1,1-1c0.5,0,2.2,1.2,5.3,3.4
		C463.5,259.6,465.6,261.3,466.6,262.2L466.6,262.2L466.6,262.2L466.6,262.2z"/>
	<path fill="#635E4A" d="M593.1,396.2c-2.6,0.7-4.1,1.2-4.6,1.2v-0.2c0,0,1-0.7,2.9-1.9c1.9-1.2,4.8-3.1,8.9-6.2
		c1.9-1.9,4.8-5,8.4-9.4c2.4-2.9,5-5.5,7.9-7.4c3.6-2.6,7-3.8,10.6-3.8c0.7,0,1.9,0.2,3.4,0.7c1.2,0.5,2.4,0.7,3.4,0.7
		c1.9,0,3.4-0.7,4.6-2.2c0.7-1.4,1.7-2.6,2.6-4.1c0.5-1,1.2-1.4,1.7-1.4c0.2,0,0.2,0.2,0.2,0.7c0,0.5-0.2,1.7-0.7,3.1
		c-0.5,0.7,1.4,1,5,1c0.5,0,0.7,0,0.7-0.2c0,0-0.2-1-0.7-2.6c-0.2-0.5,0-1.2,0.7-2.2c1-1.7,1.4-2.4,1.7-2.2c1,0.7,1.4,2.2,1.4,3.8
		c0,1.7-0.5,3.4-1.2,5.3c-0.7,2.2-1.4,3.4-1.9,3.8c-1.7,1-4.3,0.7-7.9-1c-2.9,2.9-5.8,4.6-8.6,4.6c-0.7,0-1.9-0.2-3.1-0.7
		c-1.2-0.5-2.2-0.7-2.9-0.7c-4.8,0-9.8,2.2-14.9,7c-3.6,3.6-7.2,7.2-10.8,10.8C597.6,394.2,595.5,395.4,593.1,396.2L593.1,396.2
		L593.1,396.2L593.1,396.2z"/>
	<path fill="#635E4A" d="M541.5,266.6c2.9,0,5.3,1.4,7.4,4.8c2.2,3.1,3.8,7.4,4.6,12.7c0.2,0.5,0.2,0.7,0.2,1h0.2
		c0-0.2,0.2-0.5,0.2-1c0.5-3.1,1.7-7.9,3.4-14.2c1.9-4.3,3.8-6.5,6-6.5c1.2,0,2.4,0.7,3.4,2.2c1,1.4,1.4,2.4,1.4,3.4
		c0,0.5,0,1.4-0.5,2.4c-0.5,1.4-1,2.2-1.4,2.2c-0.2,0-0.7-0.7-1.7-1.7c-0.7-1-1.7-1.4-2.6-1.4c-1.9,0-3.6,4.6-5.3,13.7
		c-0.7,4.1-1.7,7-2.4,8.6c-0.7,1-1.2,1.7-1.7,1.7c-0.5,0-0.5-0.7-0.7-1.7c0.2-1.7-0.7-4.8-2.6-9.4c-1.9-4.8-3.1-7-4.1-7
		c-0.5,0-0.7,0-1,0.5c-0.2,0.2-0.5,0.5-1.2,0.5c-1,0-1.9-0.7-3.4-1.9c-1.4-1.2-1.9-2.2-1.9-2.9c0-0.2,0.5-1.4,1.7-3.4
		C540.5,267.3,541.2,266.6,541.5,266.6L541.5,266.6L541.5,266.6L541.5,266.6z"/>
	<path fill="#635E4A" d="M500.9,263.4c24.2-9.1,49.4-18.2,75.4-27.8c0.7-0.2,1.2-0.5,1.2-0.2c0.2,0,0.2,0.5,0,1.2
		c-1,2.2-1.7,3.4-2.2,3.8c-0.2,0.2-12.5,4.8-36.2,13.7c-24.2,8.9-37.9,14.4-40.6,16.1C499,268,499.7,265.8,500.9,263.4L500.9,263.4
		L500.9,263.4L500.9,263.4z"/>
	<path fill="#635E4A" d="M477.4,219.5c0.5-1.4,0.5-2.9,0.2-4.3c-0.2-1.4-1-2.2-2.2-2.2c-0.5,0-1.2,0.2-2.2,0.7c-1,0.5-1.4,1-1.4,1.4
		C471.9,216.4,473.8,217.8,477.4,219.5L477.4,219.5L477.4,219.5L477.4,219.5z M474.5,225.8c-4.6-2.4-6.7-4.8-6.7-7.4
		c0-3.1,1.4-6,4.3-8.4c2.9-2.6,5.3-3.6,7.2-2.9c1.7,0.5,2.4,2.2,2.4,5c0,2.6-0.5,5.5-1.7,8.9c2.4,1.2,3.8,2.4,4.3,3.4
		c0,1.2-1,3.4-3.1,6.2c-0.5-1-1.9-2.2-4.1-3.4c-2.6,3.6-5.8,6.7-9.6,9.6c-4.6,3.1-8.6,5.8-12.2,7.2c-1,0.5-5.3,2.2-13,5
		c-1.2,0.5-2.2,0.7-2.4,0.7c-0.2,0-0.2-0.2-0.2-0.2c0-0.2,0.5-1,1.9-1.7c5.8-3.6,11.5-7,17.5-10.3
		C466.1,233.2,471.2,229.4,474.5,225.8L474.5,225.8L474.5,225.8L474.5,225.8z"/>
	<path fill="#635E4A" d="M626.2,255.8c0.5-1.4,0.5-2.9,0.2-4.3c-0.2-1.4-1-2.2-2.2-2.2c-0.5,0-1.2,0.2-2.2,0.7c-1,0.5-1.4,1-1.4,1.4
		C620.7,252.6,622.6,254.1,626.2,255.8L626.2,255.8L626.2,255.8L626.2,255.8z M631.5,264.6c-2.4,5.8-3.6,10.3-3.6,13.7
		c0,4.1,1,6.2,3.1,6.2c1.2,0,2.6-1.7,4.3-4.6c0.2-0.2,0.2-0.5,0.5-0.7c0,0,0.2,0,0.2,0.2c0,0,0,0.2,0,0.7
		c-1.4,7.2-3.6,10.8-6.5,10.8c-3.1,0-4.6-2.6-4.6-7.9c0-2.6,0.5-6,1.9-10.3c1.4-4.3,2.2-6.5,2.2-6.7c0-0.5-1-1.4-3.1-2.6
		c-3.8,5-9.1,9.8-15.8,13.9c-4.6,2.6-9.1,5-13.9,7c-8.9,3.6-14.2,5.5-15.4,6.2c-1.2,0.5-1.9,0.7-2.4,0.7c-0.2,0-0.2-0.2-0.2-0.2
		c0-0.5,0.5-1,1.9-1.9c7.7-4.3,15.1-8.6,22.8-13c10.1-5.8,17-10.6,20.4-14.2c-4.6-2.4-6.7-4.8-6.7-7.4c0-3.1,1.4-6,4.3-8.6
		c2.9-2.4,5.3-3.4,7.2-2.6c1.4,0.5,2.4,2.2,2.4,5c0,2.6-0.5,5.5-1.7,8.6c2.4,1.4,3.4,2.9,3.4,4.3C632.2,262,632,263.2,631.5,264.6
		L631.5,264.6L631.5,264.6L631.5,264.6z"/>
	<path fill="#635E4A" d="M522.3,229.6c0-0.2,0.2-0.5,0.2-0.5c0.2-0.2,0.2-0.2,0.2,0c0.2,0.2,0.2,0.5,0,0.7
		c-1.2,7.2-3.4,10.8-6.5,10.8c-3.1,0-4.6-2.6-4.6-7.9c0-6.5,1.7-13.4,5.5-20.4c1-1.7,1.4-2.6,1.7-2.6l0,0c0,0.2-0.2,1.2-0.7,2.9
		c-2.4,7.4-3.6,12.5-3.6,15.6c0,3.8,1,6,3.1,6C519.2,234.2,520.6,232.5,522.3,229.6L522.3,229.6L522.3,229.6L522.3,229.6z"/>
</g>
</svg>
