<?xml version="1.0" encoding="utf-8"?>
<!-- Generator: Adobe Illustrator 18.1.1, SVG Export Plug-In . SVG Version: 6.00 Build 0)  -->
<!DOCTYPE svg PUBLIC "-//W3C//DTD SVG 1.1//EN" "http://www.w3.org/Graphics/SVG/1.1/DTD/svg11.dtd">
<svg version="1.1" id="Layer_1" xmlns="http://www.w3.org/2000/svg" xmlns:xlink="http://www.w3.org/1999/xlink" x="0px" y="0px"
	 viewBox="0 0 792 612" enable-background="new 0 0 792 612" xml:space="preserve">
<g>
	<path fill="#635E4A" d="M473.6,232.6c0-4.8-0.7-8.6-2.2-11.8c0-1.7,1.2-5.8,4.1-12c0.2-0.7,0.5-1.2,0.7-1.2c0.5,0,0.7,0.5,1.2,1.2
		c0.7,1.7,2.4,6.2,5.3,13.7c3.1,7.9,4.8,12.7,5.3,14.6c0.5,1.2,0.5,2.4,0.5,2.9c0,2.2-1.9,1-6.2-3.8c-0.5-0.7-0.7-0.2-0.7,1
		c0,0.5,1.2,15.4,3.4,45.1c2.2,29.5,3.1,46.1,3.1,49.9c0,11.3-1.7,21.4-5,30c-1,1.7-1.4,2.9-1.9,3.8l0,0c-0.7,1.2-1,1.2-1.2,0.5
		c-0.2-1,0-2.9,0.2-5.5c0.5-4.1,0.7-8.6,0.7-13.7c0-4.8-1.2-24-3.6-57.8C474.8,255.7,473.6,236.7,473.6,232.6L473.6,232.6
		L473.6,232.6L473.6,232.6z"/>
	<path fill="#635E4A" d="M453.6,335.4c-1,8.9-1.7,13.2-2.2,13.2c-0.5,0-1.2-3.6-2.2-11c-1.9-12-10.8-25.4-26.6-40.8
		c-7-6.5-13.9-13-20.9-19.7c-7.4-7.2-13.2-13.2-17-18c-2.6-3.4-5.5-7.2-8.6-12c-1.7-3.1-3.4-6-5-8.6c-1.2-1.9-2.6-3.4-4.1-4.3
		c-0.7-0.2-1-1-1-2.2v-9.8c0-1.9,0.2-2.9,1-2.9c0.5,0,1.4,0.5,2.6,1.4l18.5,14.2c1.4,1.2,2.2,1.9,2.2,2.6c0,0.5-0.5,0.5-1.7,0.5
		c-1.4,0-4.1-0.2-7.7-1.2c2.4,4.6,9.4,12.7,20.9,24.2c8.6,8.6,17.3,17.3,26.2,25.9c17.3,17.3,25.9,32.4,25.9,45.1
		C453.9,333,453.9,334.2,453.6,335.4L453.6,335.4L453.6,335.4L453.6,335.4z M451.2,232.2c0-1.9-0.5-4.3-1.4-7
		c-1-2.6-1.4-4.1-1.4-4.3c0-0.5,0.5-2.4,1.4-5.8c1-3.4,1.4-5.3,1.7-5.8c0.5-1,0.7-1.2,1-1.2c0.2,0,0.7,0.2,1.2,1
		c1,2.2,3.1,6.2,6.2,12.7c3.4,7.2,5.5,12,6.2,14.2c0.5,1.7,0.7,2.6,0.7,3.4c0,1.9-2.2,0.7-6.2-4.1c-0.5-0.5-0.7,0-0.7,1.2
		c0,3.8,1.2,16.8,3.8,38.6c2.6,22.1,4.1,37,4.1,44.6c0,16.1-3.8,29.5-11.5,39.8c-5.8,8.4-12.5,14.2-19.9,17.5
		c-2.9,1.4-7.9,2.9-14.9,4.8c-7.2,1.9-12.5,2.9-15.8,3.4c-1.2,0-1.9,0-1.9-0.5c0-0.2,0.5-1,1.9-1.9c6.5-3.6,17-9.8,31.7-19
		c4.8-2.9,9.4-7,14.2-12.2c6.2-6.7,9.6-12.5,9.6-17c0-9.6-1.7-28.3-5-55.7C452.7,251.4,451.2,235.8,451.2,232.2L451.2,232.2
		L451.2,232.2L451.2,232.2z"/>
	<path fill="#635E4A" d="M441.4,329.4l-3.8,9.4c-0.2,1.2-1,1.7-1.9,1.7c-5,0-9.6,0.7-13.7,2.2c-4.8,1.9-13.7,6.2-26.4,13
		c-16.8,8.9-29.3,13.4-37.2,13.4c-1,3.6-1.7,5.5-2.4,5.5c-0.7,0-1.2-1.7-1.7-5.3c0,0,0.2-0.2,0.5-0.2c-0.2-2.2-1.7-7-3.8-14.6
		c-2.2-7-3.1-12.2-3.1-16.1c0-7.4,1-13,3.1-16.1c4.1-6.7,10.3-10.1,18.5-10.1c3.8,0,12,1.9,25,5.5c14.6,4.1,23.3,6.2,26.4,6.7
		c10.1,1.4,16.3,2.4,19,2.2c1.4,0.2,2.2,0.5,1.9,1.4C441.6,328.2,441.6,328.6,441.4,329.4L441.4,329.4L441.4,329.4L441.4,329.4z
		 M410.7,336.3c-23-7.2-38.2-10.8-45.4-10.8c-3.8,0-7.2,1.2-10.1,3.8c-2.6,2.2-3.8,4.3-3.8,6.2c1.7,3.8,3.8,10.1,6.7,18.5
		c1.2,0,2.6,0.2,3.8,0.2c6,0,15.4-2.9,28.1-8.6L410.7,336.3L410.7,336.3L410.7,336.3z"/>
	<path fill="#635E4A" d="M336.5,333.9c2.4,8.9,8.6,15.6,18.2,20.2V369c-5.8-2.4-10.1-4.8-13.2-7c-4.3-3.4-7.7-7.4-10.1-12.7
		c-0.5-1.2-1.7-5-3.6-11.5c-2.6,15.6-5.5,25.7-8.6,30c-5.8,8.2-12.5,14.2-19.9,17.5c-3.1,1.4-8.2,2.9-15.1,4.8
		c-7.2,1.9-12.5,2.9-15.8,3.4c-1.4,0-2.2,0-2.2-0.5c0-0.2,0.7-1,2.2-1.9c6.5-3.6,17.3-10.1,31.7-19c16.1-10.6,24.2-25.7,24.2-45.8
		c0-3.8-1.4-15.1-4.1-33.8c-2.2-16.1-4.1-29-5.8-39.1c-1.4-7.9-2.9-17.3-4.6-27.6c0-3.4,1-7.7,2.4-12.7c0.5-1.2,1-1.7,1.2-1.7
		c0.2,0,0.7,0.5,1,1.7c3.1,11,6,24.2,8.4,39.6c0.5,2.4,2.9,17.5,7,45.4C332.2,313.5,334.4,325.5,336.5,333.9L336.5,333.9
		L336.5,333.9L336.5,333.9z M315.6,343.8c-1,9.4-1.7,13.9-2.2,13.9c-0.5,0-1.2-3.8-2.2-11.3c-1.2-7.2-5.3-16.1-12.5-26.9
		c-4.6-6.7-13.2-18-25.7-33.8c-14.2-17.5-24.7-31.2-31.9-41.3c-1.7-2.6-3.4-5.3-4.8-8.2s-2.6-5-3.4-6c-1.2-1.9-2.6-3.1-4.1-4.1
		c-0.7-0.5-1-1.2-1-2.4v-9.6c0-1.9,0.2-2.9,1-2.9c0.5,0,1.2,0.5,2.4,1.2l18.7,14.4c2.2,1.4,3.1,2.6,3.1,3.6c0,0.5-0.7,0.7-1.9,0.7
		c-1.7,0-4.3-0.5-8.2-1.7c2.6,4.6,11,15.6,25.2,33.4c15.4,18.7,26.4,33.4,32.9,43.4C311.8,322.9,316.6,335.4,315.6,343.8
		L315.6,343.8L315.6,343.8L315.6,343.8z"/>
	<path fill="#635E4A" d="M265,302.5c0-1.7-2.6-4.6-7.9-8.6c-6.5-5-12.7-7.4-19-7.4c-12,0-24.5,10.8-36.7,31.9
		c4.3,1.4,8.9,2.2,13.4,2.2c7.7,0,15.6-1.4,24.2-4.1c6.7-2.2,13-5,18.5-8.2C262.6,305.4,265,303.4,265,302.5L265,302.5L265,302.5
		L265,302.5z M112.8,396.3c-14.6,0-25.4-5-32.2-14.9c-5.3-7.7-7.7-17.3-7.7-29c0-3.6,0.2-7,0.7-10.6c1-5.5,2.2-10.3,3.6-14.2
		c0.5-1.4,1.2-2.2,1.7-2.2c0.5,0,0.5,1,0.2,2.4c-2.4,12.2-3.4,19.2-3.4,20.6c0,7.4,2.4,14.4,7.4,20.6c6.7,8.2,16.6,12.5,29.3,12.5
		c11.5,0,23.5-2.6,36-7.9c10.3-4.3,19.7-9.6,28.1-15.8c7.4-5.8,11-9.8,11-12.2c0-8.2-2.4-16.8-7-26.2c-1-1.7-1.4-3.1-1.4-4.1
		c0-0.7,1-4.1,2.9-10.3c0.5-1.2,0.7-1.7,1.2-1.7c0.5,0,1.2,0.7,1.9,2.4c2.2,4.8,6,8.4,11,10.6c9.4-14.9,15.6-24.2,18.5-27.6
		c8.9-11,18-16.6,27.1-16.6c7.4,0,14.4,2.6,20.6,8.2c5.3,4.8,7.9,9.1,7.9,13c0,2.9-0.7,6.7-2.2,10.8c-1.4,4.3-2.9,7.4-4.8,9.6
		c-3.1,3.8-8.9,7.9-16.8,12c-11.3,6-23.3,9.1-35.3,9.1c-6.2,0-12.5-1.4-19.2-4.3c0,15.4-2.2,25.7-6.7,30.7
		c-6.2,7.4-15.8,14.6-28.3,21.6C141.4,391.8,126.5,396.3,112.8,396.3L112.8,396.3L112.8,396.3L112.8,396.3z"/>
	<path fill="#635E4A" d="M367.5,290.7c-0.2-0.2-0.2-0.5,0-1l4.6-9.6c0.2-0.5,0.7-0.7,1-0.7c0.5,0,2.6,1.2,6.2,3.6
		c3.8,2.6,5.8,4.1,5.8,4.6c0,1.7-1.7,5-5,10.3c-0.5,0.7-0.7,1-1.2,0.7C375.2,295.8,371.3,293.1,367.5,290.7L367.5,290.7L367.5,290.7
		L367.5,290.7z"/>
	<path fill="#635E4A" d="M423.4,228.1c0-1.2-2.4-3.4-7.4-6.2c-1.7,2.9-2.4,5.5-2.4,7.9c0,1.4,0.7,2.4,2.2,2.4c1.2,0,2.6-0.5,4.3-1.4
		C421.7,230,422.9,229,423.4,228.1L423.4,228.1L423.4,228.1L423.4,228.1z M418.1,208.9c0.7-1.2,1.7-1.7,2.4-1.7c0.5,0,1,0.2,1,0.7
		c0,0-0.2,0.2-0.2,0.5c-1,2.2-1.9,4.6-2.6,7c5,3.6,7.4,7.4,7.2,11c-0.5,4.1-1,6.7-1.7,7.7c-2.4,2.9-5,4.6-8.4,4.6
		c-3.4,0-4.8-2.2-4.8-6c0-0.7,0-1.7,0.2-2.6C412.4,222.3,414.8,215.4,418.1,208.9L418.1,208.9L418.1,208.9L418.1,208.9z"/>
	<path fill="#635E4A" d="M464,386c-0.5,2.2-1,3.4-1.7,4.1c-2.6,1.7-8.6,5.5-17.8,11.8c-0.2,0.2-0.7,0.5-1.2,1
		c-0.2-0.2-0.2-0.2-0.2-0.7l0.5-3.1c0.2-0.7,1.7-2.2,4.6-4.3c-3.6-1.2-5.3-2.9-5.3-4.8c0-2.2,0.7-4.3,2.6-6.5
		c3.6-4.3,6.7-6.5,9.1-6.5c2.2,0,3.1,1.2,3.1,3.6c0,1.4-0.5,2.9-1.7,4.8c-0.2,0.5-0.5,0.5-1-0.2c-0.5-1.2-1.4-1.7-2.6-1.7
		c-0.7,0-1.7,0.2-2.9,1.2c-1.2,0.7-1.9,1.4-1.9,1.9c0,0.7,0.7,1.4,2.2,2.2c1.4,1,2.6,1.2,3.6,1.2c0.7,0,2.2-0.5,4.3-1.7
		c1.4-1,2.6-1.9,4.1-2.9c1.2-0.5,1.9-1,2.2-0.7C464.2,384.6,464.2,385,464,386L464,386L464,386L464,386z"/>
	<path fill="#635E4A" d="M355.2,270.8c0-1.2-2.4-3.4-7.4-6.2c-1.7,2.9-2.4,5.5-2.4,7.9c0,1.4,0.7,2.4,2.2,2.4c1.2,0,2.6-0.5,4.3-1.4
		C353.6,272.7,354.8,271.8,355.2,270.8L355.2,270.8L355.2,270.8L355.2,270.8z M350,251.6c0.7-1.2,1.7-1.7,2.4-1.7c0.5,0,1,0.2,1,0.7
		c0,0-0.2,0.2-0.2,0.5c-1,2.2-1.9,4.6-2.6,7c5,3.6,7.4,7.4,7.2,11c-0.5,4.1-1,6.7-1.7,7.7c-2.4,2.9-5,4.6-8.4,4.6s-4.8-2.2-4.8-6
		c0-0.7,0-1.7,0.2-2.6C344.2,265,346.6,258.1,350,251.6L350,251.6L350,251.6L350,251.6z"/>
	<path fill="#635E4A" d="M392.2,395.4c0-0.2,0.2-0.5,0.2-0.5c0.2-0.2,0.2-0.2,0.2,0c0.2,0.2,0.2,0.5,0,0.7
		c-1.2,7.2-3.4,10.8-6.5,10.8c-3.1,0-4.6-2.6-4.6-7.9c0-6.5,1.7-13.4,5.5-20.4c1-1.7,1.4-2.6,1.7-2.6l0,0c0,0.2-0.2,1.2-0.7,2.9
		c-2.4,7.4-3.6,12.5-3.6,15.6c0,3.8,1,6,3.1,6C389.1,399.9,390.5,398.2,392.2,395.4L392.2,395.4L392.2,395.4L392.2,395.4z"/>
	<path fill="#635E4A" d="M266.7,225.2c9.6-3.4,19.9-7.2,31-11c1-0.2,1.2-0.5,1.4-0.2c0.2,0,0.2,0.5-0.2,1.2
		c-0.7,2.2-1.4,3.4-1.9,3.8c-9.6,3.4-20.4,7.4-32.6,13C264.8,229.8,265.5,227.6,266.7,225.2L266.7,225.2L266.7,225.2L266.7,225.2z"
		/>
	<path fill="#635E4A" d="M194.9,266.2c0.5-3.4,1.7-7.2,3.6-12c1.4-3.6,2.2-7.2,2.2-10.8c0-7-3.4-13.4-9.8-19.9c-0.5-0.5-0.5-1,0-1.4
		l2.2-3.8c0.2-0.5,0.5-0.5,1,0c6.2,5,9.6,12.5,9.6,22.3c0,4.6-1.2,9.6-3.1,14.6c-2.2,5.3-3.1,8.9-3.1,10.8c0,4.1,1,6.2,3.1,6.2
		c1.4,0,2.9-1.7,4.6-4.6c0-0.2,0.2-0.5,0.2-0.5c0.2-0.2,0.2-0.2,0.2,0c0,0,0,0.5,0,0.7c-1.2,7.2-3.4,10.8-6.5,10.8
		c-2.9,0-4.6-3.1-4.6-8.9C194.4,268.6,194.7,267.4,194.9,266.2L194.9,266.2L194.9,266.2L194.9,266.2z"/>
	<path fill="#635E4A" d="M167.8,393.4c18.5-6.7,37.7-13.9,57.8-21.4c0.7-0.2,1.2-0.5,1.4-0.2c0,0,0,0.5-0.2,1.2
		c-1,2.2-1.7,3.4-2.2,3.8c-16.8,6.2-36.7,13.9-59.3,23.3C165.9,398,166.6,395.8,167.8,393.4L167.8,393.4L167.8,393.4L167.8,393.4z"
		/>
	<path fill="#635E4A" d="M289.2,333.2c0,0.5-0.2,1.4-0.5,2.4c-0.5,1.4-1,2.2-1.7,2.2c-0.2,0-0.7-0.7-1.7-1.7c-0.7-1-1.7-1.4-2.4-1.4
		c-1.9,0-3.8,4.6-5.5,13.7c-0.7,4.1-1.4,6.7-2.4,8.4c-0.7,1.2-1.2,1.7-1.7,1.7c-0.2,0-0.5-0.5-0.5-1.4c0-1.7-1-4.8-2.9-9.4
		c-1.7-4.8-3.1-7-3.8-7c-0.5,0-1,0-1,0.5c-0.2,0.2-0.7,0.5-1.4,0.5c-1,0-2.2-0.7-3.6-1.9c-1.4-1.4-1.9-2.4-1.7-2.9
		c2.2-4.1,3.4-6,3.8-6c2.6,0,5.3,1.4,7.4,4.8c2.2,3.1,3.6,7.4,4.6,12.5c0,0.7,0,1,0,1c0.2,0.2,0.2,0.2,0.2,0c0,0,0.2-0.2,0.5-1
		c0.5-2.9,1.4-7.7,3.1-13.9c1.9-4.3,3.8-6.5,6.2-6.5c1,0,2.2,0.7,3.4,2.2C288.8,331.3,289.2,332.2,289.2,333.2L289.2,333.2
		L289.2,333.2L289.2,333.2z M258.5,336.8c0.5-1,1-1.4,1.2-1.4c0,0,0.2,0.2,0,0.2c0.2,0.7-0.5,2.4-1.9,5c-2.4,4.6-5.8,8.2-10.1,11.3
		c-4.6,3.4-8.6,5.8-12.2,7.4c-0.7,0.5-5,2.2-13,5c-1.2,0.5-1.9,0.7-2.4,0.7c-0.2,0-0.2-0.2-0.2-0.2c0-0.2,0.7-1,1.9-1.7
		c6.7-3.6,15.8-9.4,27.6-17.3C254.2,342.3,257.1,339.2,258.5,336.8L258.5,336.8L258.5,336.8L258.5,336.8z"/>
	<path fill="#635E4A" d="M254,385.8c0,2.6-1.2,5.5-3.1,8.6c-2.2,3.1-4.8,6-8.2,8.4c-1.4,1-2.2,1.4-2.4,1.4V404
		c0-0.2,0.5-0.7,1.4-1.9c5.5-6,8.4-9.8,8.4-12c0-1.7-1-2.6-2.6-2.6c-1,0-1.9,0.2-2.6,0.7c-0.7,0.2-1,0.5-1.2,0.5c0,0-0.2,0-0.2-0.2
		c0,0,0-0.5,0.2-1.4c1-4.1,2.9-6,6.2-6C252.5,381,254,382.6,254,385.8L254,385.8L254,385.8L254,385.8z"/>
	<path fill="#635E4A" d="M341.3,394.6c0-0.2,0.2-0.5,0.2-0.5c0.2-0.2,0.2-0.2,0.2,0c0.2,0.2,0.2,0.5,0,0.7
		c-1.2,7.2-3.4,10.8-6.5,10.8c-3.1,0-4.6-2.6-4.6-7.9c0-6.5,1.7-13.4,5.5-20.4c1-1.7,1.4-2.6,1.7-2.6l0,0c0,0.2-0.2,1.2-0.7,2.9
		c-2.4,7.4-3.6,12.5-3.6,15.6c0,3.8,1,6,3.1,6C338.2,399.2,339.6,397.5,341.3,394.6L341.3,394.6L341.3,394.6L341.3,394.6z"/>
	<path fill="#635E4A" d="M348,225.9c0-0.2,0.2-0.5,0.2-0.5c0.2-0.2,0.2-0.2,0.2,0c0.2,0.2,0.2,0.5,0,0.7c-1.2,7.2-3.4,10.8-6.5,10.8
		c-3.1,0-4.6-2.6-4.6-7.9c0-6.5,1.7-13.4,5.5-20.4c1-1.7,1.4-2.6,1.7-2.6l0,0c0,0.2-0.2,1.2-0.7,2.9c-2.4,7.4-3.6,12.5-3.6,15.6
		c0,3.8,1,6,3.1,6C344.9,230.5,346.4,228.8,348,225.9L348,225.9L348,225.9L348,225.9z"/>
	<path fill="#635E4A" d="M298.1,249.7c0,2.6-1.2,5.5-3.1,8.6c-2.2,3.1-4.8,6-8.2,8.4c-1.4,1-2.2,1.4-2.4,1.4v-0.2
		c0-0.2,0.5-0.7,1.4-1.9c5.5-6,8.4-9.8,8.4-12c0-1.7-1-2.6-2.6-2.6c-1,0-1.9,0.2-2.6,0.7c-0.7,0.2-1,0.5-1.2,0.5c0,0-0.2,0-0.2-0.2
		c0,0,0-0.5,0.2-1.4c1-4.1,2.9-6,6.2-6C296.7,244.9,298.1,246.6,298.1,249.7L298.1,249.7L298.1,249.7L298.1,249.7z"/>
	<path fill="#635E4A" d="M84.8,318.8c0-0.2,0.2-0.5,0.2-0.5c0.2-0.2,0.2-0.2,0.2,0c0.2,0.2,0.2,0.5,0,0.7
		c-1.2,7.2-3.4,10.8-6.5,10.8c-3.1,0-4.6-2.6-4.6-7.9c0-6.5,1.7-13.4,5.5-20.4c1-1.7,1.4-2.6,1.7-2.6l0,0c0,0.2-0.2,1.2-0.7,2.9
		c-2.4,7.4-3.6,12.5-3.6,15.6c0,3.8,1,6,3.1,6C81.6,323.4,83.1,321.7,84.8,318.8L84.8,318.8L84.8,318.8L84.8,318.8z"/>
	<path fill="#635E4A" d="M158.7,311.4c0,0.5-0.2,1.4-0.7,2.4c-0.2,1.4-0.7,2.2-1.4,2.2c-0.2,0-0.7-0.7-1.7-1.7
		c-0.7-1-1.7-1.4-2.4-1.4c-1.9,0-3.8,4.6-5.5,13.7c-0.7,4.1-1.4,7-2.4,8.6c-0.7,1-1.2,1.7-1.7,1.7c-0.2,0-0.5-0.7-0.5-1.7
		c0-1.7-1-4.8-2.9-9.4c-1.9-4.8-3.1-7-3.8-7c-0.7,0-1,0-1.2,0.5c0,0.2-0.5,0.5-1.2,0.5c-1,0-1.9-0.7-3.4-1.9
		c-1.2-1.2-1.9-2.2-1.9-2.9c0-0.2,0.5-1.4,1.7-3.4c1.2-1.9,1.9-2.6,2.2-2.6c2.6,0,5,1.4,7.2,4.8c2.4,3.4,3.8,7.4,4.8,12.7
		c0,0.5,0,0.7,0,1c0.2,0.2,0.2,0.2,0.2,0c0-0.2,0.2-0.5,0.5-1c0.2-3.1,1.4-7.9,3.1-14.2c1.9-4.3,3.8-6.5,6-6.5
		c1.2,0,2.4,0.7,3.6,2.2C158.2,309.4,158.7,310.4,158.7,311.4L158.7,311.4L158.7,311.4L158.7,311.4z M142.8,339
		c-1.7,3.8-5,7.7-10.1,11.3c-4.6,3.4-8.6,5.8-12.2,7.4c-0.7,0.5-5,2.2-13,5c-1.2,0.5-1.9,0.7-2.4,0.7c-0.2,0-0.2-0.2-0.2-0.2
		c0-0.2,0.7-1,1.9-1.7c6.5-3.8,15.6-9.4,27.6-17.3c2.9-2.2,5-4.3,6.7-6.2c1.9-2.2,2.9-3.4,3.1-3.4c0,0,0,0,0,0.2
		C144.3,335.1,143.8,336.6,142.8,339L142.8,339L142.8,339L142.8,339z"/>
	<path fill="#635E4A" d="M90.5,256.6c2.9,0,5.3,1.4,7.4,4.8c2.2,3.1,3.8,7.4,4.6,12.7c0.2,0.5,0.2,0.7,0.2,1h0.2
		c0-0.2,0.2-0.5,0.2-1c0.5-3.1,1.7-7.9,3.4-14.2c1.9-4.3,3.8-6.5,6-6.5c1.2,0,2.4,0.7,3.4,2.2c1,1.4,1.4,2.4,1.4,3.4
		c0,0.5,0,1.4-0.5,2.4c-0.5,1.4-1,2.2-1.4,2.2c-0.2,0-0.7-0.7-1.7-1.7c-0.7-1-1.7-1.4-2.6-1.4c-1.9,0-3.6,4.6-5.3,13.7
		c-0.7,4.1-1.7,7-2.4,8.6c-0.7,1-1.2,1.7-1.7,1.7c-0.5,0-0.5-0.7-0.7-1.7c0.2-1.7-0.7-4.8-2.6-9.4c-1.9-4.8-3.1-7-4.1-7
		c-0.5,0-0.7,0-1,0.5c-0.2,0.2-0.5,0.5-1.2,0.5c-1,0-1.9-0.7-3.4-1.9c-1.4-1.2-1.9-2.2-1.9-2.9c0-0.2,0.5-1.4,1.7-3.4
		C89.6,257.4,90.3,256.6,90.5,256.6L90.5,256.6L90.5,256.6L90.5,256.6z"/>
	<path fill="#635E4A" d="M175.7,264.8c0,3.6-1.9,6.7-5.5,9.6c-3.6,2.6-7.7,4.1-12.2,4.1c-0.7,0-1.9-0.2-3.1-0.7
		c-1.2-0.2-2.2-0.5-2.9-0.5c-4.8,0-9.8,2.4-14.9,7.2c-3.6,3.6-7.2,7.2-10.8,10.8c-2.2,1.7-4.3,2.9-6.7,3.6c-2.6,0.7-4.1,1.2-4.6,1.2
		v-0.2c0,0,1-0.7,2.9-1.9c1.9-1.2,4.8-3.1,8.9-6.2c1.9-1.9,4.8-5,8.4-9.1c2.4-3.1,5-5.5,7.9-7.7c3.4-2.4,6.2-3.8,9.1-4.3
		c-0.5,0.2,1.4,0.2,5,0.2c2.2-2.2,4.6-4.3,6.7-6.5c2.9-2.6,5.3-3.8,7.2-3.8C174.3,260.5,175.7,261.9,175.7,264.8L175.7,264.8
		L175.7,264.8L175.7,264.8z M173.3,267c-0.5-1.4-1.9-1.9-4.3-1.9c-2.2,0-5.5,2.2-9.8,6.5c0.5,0,1,0.2,1.4,0.2c2.4,0,5-0.7,7.7-1.9
		C170.9,268.9,172.6,267.9,173.3,267L173.3,267L173.3,267L173.3,267z"/>
	<path fill="#635E4A" d="M154.1,242.5c0-0.2,0.2-0.5,0.2-0.5c0.2-0.2,0.2-0.2,0.2,0c0.2,0.2,0.2,0.5,0,0.7
		c-1.2,7.2-3.4,10.8-6.5,10.8s-4.6-2.6-4.6-7.9c0-6.5,1.7-13.4,5.5-20.4c1-1.7,1.4-2.6,1.7-2.6l0,0c0,0.2-0.2,1.2-0.7,2.9
		c-2.4,7.4-3.6,12.5-3.6,15.6c0,3.8,1,6,3.1,6C151,247,152.4,245.4,154.1,242.5L154.1,242.5L154.1,242.5L154.1,242.5z"/>
	<path fill="#635E4A" d="M659.1,318.1c1.2-1,2.2-1.4,2.9-1.4c0.5,0,0.7,0.5,0.7,1.4c0,0.7-0.2,2.2-0.7,4.1c-0.5,1.9-0.7,3.4-0.7,4.6
		c0,5.3,3.8,8.2,11.3,8.2c6,0,11-2.6,14.9-7.7c2.4-4.1,5-7.9,7.4-11.8c1-1,1.7-1.4,2.4-1.4c1,0,1.2,1,0.7,3.1c-1,4.1-1.7,6-1.7,5.5
		c0,1.7,1,3.4,2.9,4.8c1.7,1.4,4.1,2.4,6.7,2.4c3.4,0,5.5-1,6.5-2.6c0-0.2-1-2.2-3.1-5.8c0.2-1.9,1.2-5.3,2.6-9.8
		c0.2-1.4,0.7-2.2,1.2-2.2c0.5,0,1,0.2,1.7,1.2c1.9,2.9,3.1,6.2,3.1,10.1c0,6-1.4,11-4.1,15.4c-2.9,5.3-7.2,7.9-13,7.9
		c-3.8,0-7.4-3.1-10.6-8.9c-5.3,9.6-12.2,14.4-20.6,14.4c-10.1,0-14.9-5.8-14.9-16.8c-3.8,4.6-10.3,8.6-18.7,12.5V332
		c6.2-3.1,10.3-5,11.5-5.8C651.4,324.3,655.2,321.4,659.1,318.1L659.1,318.1L659.1,318.1L659.1,318.1z"/>
	<path fill="#635E4A" d="M622.4,333.9c-3.6-4.6-6.7-6.7-9.6-6.7c-4.3,0-6.2,1-6.2,3.4c0,2.9,2.9,4.3,8.6,4.3
		C617.3,334.9,619.7,334.4,622.4,333.9L622.4,333.9L622.4,333.9L622.4,333.9z M629.8,351.4c0-1.4-0.5-3.1-1-4.8
		c-2.9,1-7.2,1.7-12.5,1.7c-11.5,0-17.3-4.1-17.3-12c0-6,1.7-11.3,5.5-16.1c3.6-4.1,7.4-6.2,11.5-6.2c3.1,0,6.2,1.9,9.8,5.5
		c3.1,3.6,6,7.7,8.4,12.7c0.2,0,0.7,0,1.7-0.5V345l-0.5,0.5c0,2.9-0.7,6.2-2.2,10.6c-1.7,5.5-4.3,10.1-7.4,13.7
		c-7.2,8.6-15.1,16.1-23.8,22.6c-13,9.6-24,14.6-33.6,14.6c-8.2,0-14.4-3.1-18.7-9.1c-3.8-5-5.8-11.8-5.8-19.7
		c0-10.1,2.2-20.4,6.2-31.2c1.2-2.4,1.7-3.4,2.2-3.4c0.2,0,0.2,0.2,0.2,0.7c0,0.7-0.2,1.9-0.5,3.4c-3.1,10.6-4.6,18.5-4.6,24
		c0,5,1.2,9.4,3.6,13c3.8,5,9.8,7.7,18.2,7.7c7.2,0,15.8-3.1,26.2-9.4c8.2-5,16.1-11,23.8-18.2C626.2,357.9,629.8,353.6,629.8,351.4
		L629.8,351.4L629.8,351.4L629.8,351.4z"/>
	<path fill="#635E4A" d="M564.3,315.2c-0.5-2.2-1.2-3.8-2.2-5c-0.7-1.4-1.2-2.2-1.4-2.6c0-0.5,0-2.2,0.5-5.5
		c0.5-3.1,0.7-5.3,1.2-6.5c0.2-1.2,0.5-1.7,1-1.7c0.2,0,0.5,0.2,1,0.7c3.4,3.8,7,7.7,11,11.8c1.7,1.7,2.4,2.6,2.4,3.1
		c0,0.2-0.2,0.5-0.7,0.5c-0.7,0-2.6-0.5-5.5-1.2c1.7,4.1,3.6,8.2,5.3,12c2.6,6.7,4.1,12.2,4.1,17.3c0,2.4-0.5,5.3-1.4,8.9
		c-1.2,4.1-2.6,7.2-4.6,9.4c-7,7.9-18.7,16.6-35.3,25.9c-14.4,8.4-22.8,12.5-25.4,12.5c-0.5,0-7.7,1.7-21.4,5
		c-14.4,3.4-23.5,5.5-27.1,6c-3.8,0.7-6.2,1-7.2,1c-0.5,0-0.5,0-0.5-0.2c0-0.2,2.6-1.7,7.9-4.1c1.9-1,13-5.8,33.4-14.4
		c14.2-6,25.9-11.5,35.3-16.6c14.2-7.7,25-14.4,32.4-19.9c5.5-4.3,8.4-7.4,8.4-9.4c0-0.5-1.4-3.8-4.3-10.1
		C567.9,325,565.5,319.3,564.3,315.2L564.3,315.2L564.3,315.2L564.3,315.2z"/>
	<path fill="#635E4A" d="M544.6,281.8c0,3.8-1.9,9.1-5.8,15.6c-2.4,4.1-6,9.6-10.8,16.8c4.8,5.5,8.2,10.6,9.8,14.9
		c1,3.1,1.7,7.2,1.7,11.8c0,1.9-0.5,4.3-1.4,7.4c-0.7,2.9-1.7,5-2.6,6.5c-1.9,2.9-5,5.8-9.8,8.6c-5,3.4-9.4,5-13,5
		c-5.8,0-8.6-4.3-8.6-13c0-5.8,1-11.5,2.9-16.8c1.9-4.6,5-10.6,10.1-18.5c-4.3-4.1-8.9-9.8-13.9-17c-0.5-0.7-1.7-1.9-3.6-3.8
		c-1-1-1.4-2.2-1.4-3.6c0-2.2,0.2-4.6,0.7-7.4c0.7-2.9,1.2-4.1,1.4-4.1c0.7,0,2.9,1.2,7,3.8c3.8,2.6,7,4.6,8.9,6.2
		c1.2,0.7,1.7,1.4,1.7,1.4v0.2c0,0.2-0.7,0.5-2.4,0.5c-3.1,0-4.8,0.2-4.8,0.5c0,0.2,0.5,0.7,1.4,1.9c3.8,4.8,7.7,8.4,11.8,11.3
		c1-1.4,4.3-6.2,9.6-14.4c4.6-7,7.2-11.8,8.4-14.6c1.2-2.9,1.9-4.1,2.4-4.1C544.4,277,544.6,278.5,544.6,281.8L544.6,281.8
		L544.6,281.8L544.6,281.8z M535.2,340.9c-2.6-5.3-7.2-10.8-13.4-16.1c-2.2,2.2-4.8,6.2-8.2,12c-3.8,6.5-5.5,10.6-5.5,12.7
		c0,2.9,1.9,4.3,6.2,4.3c1.9,0,4.3-0.7,7.4-1.9c4.3-1.9,8.4-4.6,11.8-7.9C535,342.6,535.5,341.6,535.2,340.9L535.2,340.9
		L535.2,340.9L535.2,340.9z"/>
	<path fill="#635E4A" d="M521.8,263.8l3.8-7.9c0.2-0.5,0.5-0.7,1-0.7c0.5,0,2.4,1.2,6.2,3.8c3.6,2.4,5.5,3.8,5.5,4.3
		c0,1.7-1.7,5.3-4.8,10.6c-0.5,0.7-1,0.7-1.4,0.5c-3.1-2.4-6.7-4.8-10.8-7.4c-1.4,2.9-2.6,5.5-4.1,7.7c-0.2,0.7-0.7,1-1.2,0.7
		c-3.6-2.9-7.4-5.5-11.3-7.9c-0.2-0.2-0.2-0.5,0-1l4.6-9.6c0.2-0.5,0.7-1,1-1c0.5,0,2.2,1.2,5.3,3.4
		C518.7,261.2,520.8,262.9,521.8,263.8L521.8,263.8L521.8,263.8L521.8,263.8z"/>
	<path fill="#635E4A" d="M648.3,397.5c-2.6,0.7-4.1,1.2-4.6,1.2v-0.2c0,0,1-0.7,2.9-1.9c1.9-1.2,4.8-3.1,8.9-6.2
		c1.9-1.9,4.8-5,8.4-9.4c2.4-2.9,5-5.5,7.9-7.4c3.6-2.6,7-3.8,10.6-3.8c0.7,0,1.9,0.2,3.4,0.7c1.2,0.5,2.4,0.7,3.4,0.7
		c1.9,0,3.4-0.7,4.6-2.2c0.7-1.4,1.7-2.6,2.6-4.1c0.5-1,1.2-1.4,1.7-1.4c0.2,0,0.2,0.2,0.2,0.7c0,0.5-0.2,1.7-0.7,3.1
		c-0.5,0.7,1.4,1,5,1c0.5,0,0.7,0,0.7-0.2c0,0-0.2-1-0.7-2.6c-0.2-0.5,0-1.2,0.7-2.2c1-1.7,1.4-2.4,1.7-2.2c1,0.7,1.4,2.2,1.4,3.8
		c0,1.7-0.5,3.4-1.2,5.3c-0.7,2.2-1.4,3.4-1.9,3.8c-1.7,1-4.3,0.7-7.9-1c-2.9,2.9-5.8,4.6-8.6,4.6c-0.7,0-1.9-0.2-3.1-0.7
		c-1.2-0.5-2.2-0.7-2.9-0.7c-4.8,0-9.8,2.2-14.9,7c-3.6,3.6-7.2,7.2-10.8,10.8C652.8,395.6,650.7,396.8,648.3,397.5L648.3,397.5
		L648.3,397.5L648.3,397.5z"/>
	<path fill="#635E4A" d="M596.7,267.9c2.9,0,5.3,1.4,7.4,4.8c2.2,3.1,3.8,7.4,4.6,12.7c0.2,0.5,0.2,0.7,0.2,1h0.2
		c0-0.2,0.2-0.5,0.2-1c0.5-3.1,1.7-7.9,3.4-14.2c1.9-4.3,3.8-6.5,6-6.5c1.2,0,2.4,0.7,3.4,2.2c1,1.4,1.4,2.4,1.4,3.4
		c0,0.5,0,1.4-0.5,2.4c-0.5,1.4-1,2.2-1.4,2.2c-0.2,0-0.7-0.7-1.7-1.7c-0.7-1-1.7-1.4-2.6-1.4c-1.9,0-3.6,4.6-5.3,13.7
		c-0.7,4.1-1.7,7-2.4,8.6c-0.7,1-1.2,1.7-1.7,1.7c-0.5,0-0.5-0.7-0.7-1.7c0.2-1.7-0.7-4.8-2.6-9.4c-1.9-4.8-3.1-7-4.1-7
		c-0.5,0-0.7,0-1,0.5c-0.2,0.2-0.5,0.5-1.2,0.5c-1,0-1.9-0.7-3.4-1.9c-1.4-1.2-1.9-2.2-1.9-2.9c0-0.2,0.5-1.4,1.7-3.4
		C595.7,268.6,596.4,267.9,596.7,267.9L596.7,267.9L596.7,267.9L596.7,267.9z"/>
	<path fill="#635E4A" d="M556.1,265c24.2-9.1,49.4-18.2,75.4-27.8c0.7-0.2,1.2-0.5,1.2-0.2c0.2,0,0.2,0.5,0,1.2
		c-1,2.2-1.7,3.4-2.2,3.8c-0.2,0.2-12.5,4.8-36.2,13.7c-24.2,8.9-37.9,14.4-40.6,16.1C554.2,269.6,554.9,267.4,556.1,265L556.1,265
		L556.1,265L556.1,265z"/>
	<path fill="#635E4A" d="M532.6,221.1c0.5-1.4,0.5-2.9,0.2-4.3c-0.2-1.4-1-2.2-2.2-2.2c-0.5,0-1.2,0.2-2.2,0.7c-1,0.5-1.4,1-1.4,1.4
		C527.1,218,529,219.4,532.6,221.1L532.6,221.1L532.6,221.1L532.6,221.1z M529.7,227.4c-4.6-2.4-6.7-4.8-6.7-7.4
		c0-3.1,1.4-6,4.3-8.4c2.9-2.6,5.3-3.6,7.2-2.9c1.7,0.5,2.4,2.2,2.4,5c0,2.6-0.5,5.5-1.7,8.9c2.4,1.2,3.8,2.4,4.3,3.4
		c0,1.2-1,3.4-3.1,6.2c-0.5-1-1.9-2.2-4.1-3.4c-2.6,3.6-5.8,6.7-9.6,9.6c-4.6,3.1-8.6,5.8-12.2,7.2c-1,0.5-5.3,2.2-13,5
		c-1.2,0.5-2.2,0.7-2.4,0.7c-0.2,0-0.2-0.2-0.2-0.2c0-0.2,0.5-1,1.9-1.7c5.8-3.6,11.5-7,17.5-10.3
		C521.3,234.8,526.4,231,529.7,227.4L529.7,227.4L529.7,227.4L529.7,227.4z"/>
	<path fill="#635E4A" d="M681.4,257.4c0.5-1.4,0.5-2.9,0.2-4.3c-0.2-1.4-1-2.2-2.2-2.2c-0.5,0-1.2,0.2-2.2,0.7c-1,0.5-1.4,1-1.4,1.4
		C675.9,254.2,677.8,255.7,681.4,257.4L681.4,257.4L681.4,257.4L681.4,257.4z M686.7,266.2c-2.4,5.8-3.6,10.3-3.6,13.7
		c0,4.1,1,6.2,3.1,6.2c1.2,0,2.6-1.7,4.3-4.6c0.2-0.2,0.2-0.5,0.5-0.7c0,0,0.2,0,0.2,0.2c0,0,0,0.2,0,0.7
		c-1.4,7.2-3.6,10.8-6.5,10.8c-3.1,0-4.6-2.6-4.6-7.9c0-2.6,0.5-6,1.9-10.3c1.4-4.3,2.2-6.5,2.2-6.7c0-0.5-1-1.4-3.1-2.6
		c-3.8,5-9.1,9.8-15.8,13.9c-4.6,2.6-9.1,5-13.9,7c-8.9,3.6-14.2,5.5-15.4,6.2c-1.2,0.5-1.9,0.7-2.4,0.7c-0.2,0-0.2-0.2-0.2-0.2
		c0-0.5,0.5-1,1.9-1.9c7.7-4.3,15.1-8.6,22.8-13c10.1-5.8,17-10.6,20.4-14.2c-4.6-2.4-6.7-4.8-6.7-7.4c0-3.1,1.4-6,4.3-8.6
		c2.9-2.4,5.3-3.4,7.2-2.6c1.4,0.5,2.4,2.2,2.4,5c0,2.6-0.5,5.5-1.7,8.6c2.4,1.4,3.4,2.9,3.4,4.3
		C687.4,263.6,687.2,264.8,686.7,266.2L686.7,266.2L686.7,266.2L686.7,266.2z"/>
	<path fill="#635E4A" d="M577.5,231.2c0-0.2,0.2-0.5,0.2-0.5c0.2-0.2,0.2-0.2,0.2,0c0.2,0.2,0.2,0.5,0,0.7
		c-1.2,7.2-3.4,10.8-6.5,10.8c-3.1,0-4.6-2.6-4.6-7.9c0-6.5,1.7-13.4,5.5-20.4c1-1.7,1.4-2.6,1.7-2.6l0,0c0,0.2-0.2,1.2-0.7,2.9
		c-2.4,7.4-3.6,12.5-3.6,15.6c0,3.8,1,6,3.1,6C574.4,235.8,575.8,234.1,577.5,231.2L577.5,231.2L577.5,231.2L577.5,231.2z"/>
</g>
</svg>
