<?xml version="1.0" encoding="utf-8"?>
<!-- Generator: Adobe Illustrator 18.1.1, SVG Export Plug-In . SVG Version: 6.00 Build 0)  -->
<!DOCTYPE svg PUBLIC "-//W3C//DTD SVG 1.1//EN" "http://www.w3.org/Graphics/SVG/1.1/DTD/svg11.dtd">
<svg version="1.1" id="Layer_1" xmlns="http://www.w3.org/2000/svg" xmlns:xlink="http://www.w3.org/1999/xlink" x="0px" y="0px"
	 viewBox="0 0 792 612" enable-background="new 0 0 792 612" xml:space="preserve">
<g>
	<path fill="#635E49" d="M412.2,231.4c0-4.8-0.7-8.6-2.2-11.8c0-1.7,1.2-5.8,4.1-12c0.2-0.7,0.5-1.2,0.7-1.2c0.5,0,0.7,0.5,1.2,1.2
		c0.7,1.7,2.4,6.2,5.3,13.7c3.1,7.9,4.8,12.7,5.3,14.6c0.5,1.2,0.5,2.4,0.5,2.9c0,2.2-1.9,1-6.2-3.8c-0.5-0.7-0.7-0.2-0.7,1
		c0,0.5,1.2,15.4,3.4,45.1c2.2,29.5,3.1,46.1,3.1,49.9c0,11.3-1.7,21.4-5,30c-1,1.7-1.4,2.9-1.9,3.8l0,0c-0.7,1.2-1,1.2-1.2,0.5
		c-0.2-1,0-2.9,0.2-5.5c0.5-4.1,0.7-8.6,0.7-13.7c0-4.8-1.2-24-3.6-57.8C413.4,254.4,412.2,235.4,412.2,231.4L412.2,231.4
		L412.2,231.4L412.2,231.4z"/>
	<path fill="#635E49" d="M404.5,324c0,14.2-2.6,25.2-7.7,33.4c-4.3,6.7-9.4,10.3-15.1,10.3V353c4.6,0,9.1-1.9,13.4-5.5
		c1.2-1,1.9-5,1.9-11.8c0-4.1-1.2-20.6-3.4-49.4c-2.2-28.8-3.1-45.8-3.1-51.1c0-4.6-0.7-8.4-2.2-11.5c0-1.7,1.4-5.8,4.1-12.2
		c0.2-0.7,0.5-1,1-1c0.2,0,0.5,0.2,1,1.2c0.7,1.7,2.6,6.2,5.5,13.7c2.9,7.9,4.6,12.7,5.3,14.4c0.2,1.4,0.5,2.6,0.5,3.1
		c0,2.2-2.2,1-6.2-3.8c-0.5-0.5-0.7-0.2-0.7,1c0,0.2,1,13.2,2.9,38.6C403.6,303.8,404.5,319,404.5,324L404.5,324L404.5,324
		L404.5,324z"/>
	<path fill="#635E49" d="M381.5,367.7c-5.5,0-11-2.4-16.8-7.2c-2.9-2.4-5.3-5.3-7-8.2l-16.1,7v-13.2l11.8-5
		c-1.7-4.8-2.4-9.6-2.4-14.4c0-7.2,1-13.2,3.1-17.5c2.2-4.6,5-6.7,8.6-6.7c3.1,0,6.2,2.6,8.9,7.9c2.6,4.6,3.8,8.9,3.8,12.7
		c0,9.6-2.9,17.5-8.4,23.8c3.8,4.1,8.6,6.2,14.4,6.2V367.7L381.5,367.7L381.5,367.7z M371.6,329.3c0-1.7-1.2-4.1-3.6-7.4
		c-2.6-3.6-5-5.5-7.2-5.5c-1.4,0-2.9,1-4.3,2.9c-1.7,1.9-2.4,3.6-2.4,5.3c0,1.4,1,3.8,2.4,7.4c1.4,3.1,2.6,5,3.4,6.2
		c2.2-1,4.3-2.4,7-4.3C370.2,331.7,371.6,330.2,371.6,329.3L371.6,329.3L371.6,329.3L371.6,329.3z"/>
	<path fill="#635E49" d="M296.3,372.7c5-5.8,11.8-10.8,20.2-15.4c4.8-2.6,13.2-6.5,25.2-11.5V359c-7.7,3.4-13.2,5.8-16.8,7.4
		c-7.4,3.6-12.5,6.2-15.1,8.4c-5,3.8-12.5,11.3-22.1,22.3c-5.8,6.7-11.5,10.1-17.3,10.1c-4.8,0-9.1-2.2-12.7-6.7
		c-3.8-4.3-5.5-10.1-5.5-16.6c0-8.9,3.6-20.6,11-35.3c0.7-1.4,1.4-2.2,1.9-2.2c0,0,0.2,0.2,0.2,0.5c0,1.4-1.7,6.5-4.8,15.1
		c-3.4,8.9-5,15.6-5,20.6c0,3.8,1,7,2.9,9.1c1.9,2.6,4.6,3.8,7.9,3.8c6,0,12.2-3.1,18.2-9.1C288.6,382.1,292.4,377.3,296.3,372.7
		L296.3,372.7L296.3,372.7L296.3,372.7z"/>
	<path fill="#635E49" d="M325.8,325.7c0,9.1-2.9,16.6-8.4,22.3c-9.6,9.6-21.1,14.4-34.6,14.4v-14.6c5.8,0,12.5-1.4,20.2-4.3
		c8.2-2.9,14.2-6.2,18.5-10.3c0-2.4-1.7-4.6-5.3-6.2c-3.4-1.7-6.7-2.4-10.3-2.4h-9.6c-3.6,0-6.5-1.2-8.6-3.6
		c-2.2-2.4-3.1-5.3-3.1-8.9c0-5,1.7-10.1,5.3-15.4c3.4-5,7-7.4,10.6-7.4c6,0,11.8,3.4,17,10.1C322.9,306.7,325.8,315.4,325.8,325.7
		L325.8,325.7L325.8,325.7L325.8,325.7z M310.2,311c-3.4-5.3-7.4-7.9-11.8-7.9c-3.1,0-4.8,1-4.8,3.1c0,2.2,1.9,3.6,6,4.1
		C301.8,310.3,305.4,310.6,310.2,311L310.2,311L310.2,311L310.2,311z"/>
	<path fill="#635E49" d="M268,332.6c1.2,6.7,3.6,11.3,6.7,13.4c1.9,1,4.6,1.7,8.2,1.7v14.6c-5.3,0-9.4-1.2-12.2-3.4
		c-4.3-3.1-7-8.6-8.4-17c-1-5.3-1.9-20.4-2.6-45.8c-1-27.4-1.7-44.2-2.2-50.4c-1.2-10.1-3.1-19.4-5.8-28.6c0-2.4,1-5.8,2.9-10.6
		c0.5-1.2,0.7-1.9,1.2-1.9c0.2,0,0.7,0.7,1.2,1.7c3.1,6,5.3,16.3,7,30.7c1,9.1,1.9,27.1,2.6,54C267,316.3,267.7,330.2,268,332.6
		L268,332.6L268,332.6L268,332.6z"/>
	<path fill="#635E49" d="M253.3,319.7c0,9.1-2.2,16.1-6.2,20.9c-6.5,7.4-16.1,14.6-28.6,21.8c-15.8,8.6-30.5,13.2-44.4,13.2
		c-18.2,0-31-9.1-37.9-27.1c-1.4-3.6-1.9-7.9-1.9-13.4c0-3.6,0.2-7.2,0.7-11c1-5.5,2.2-10.3,3.6-14.4c0.7-1.2,1.2-1.9,1.7-1.9
		c0.5,0,0.5,1,0.2,2.6c-0.7,2.4-1.2,5-1.7,7.4c-1,4.6-1.4,7.9-1.4,10.1c0,7.4,2.4,14.2,7.4,20.6c6.7,8.2,16.6,12.5,29.3,12.5
		c11.3,0,23.3-2.6,35.8-7.9c10.3-4.3,19.4-9.6,27.6-15.8c7.2-5.8,11-9.8,11-12.2c0-0.5-1.7-3.6-4.8-9.6c-3.6-7-6.2-13.9-7.9-20.6
		c-0.7-2.2-1.7-3.6-2.4-4.3c-1-1-1.4-1.7-1.4-2.6c0-0.7,0.7-4.3,1.9-10.8c0.2-1.2,0.5-1.7,1-1.7c0.5,0,1,0.2,1.4,0.7
		c1.9,2.2,6,6.2,12,12.2c1,1,1.4,1.7,1.4,2.4c0,0.7-0.5,1-1.7,1c-1.2,0-3.1-0.5-5.8-1.2c0.2,0.7,2.4,5,6.2,13
		C251.6,309.6,253.3,315.1,253.3,319.7L253.3,319.7L253.3,319.7L253.3,319.7z"/>
	<path fill="#635E49" d="M297.2,253.9l3.8-7.9c0.2-0.5,0.5-0.7,1-0.7c0.5,0,2.4,1.2,6.2,3.8c3.6,2.4,5.5,3.8,5.5,4.3
		c0,1.7-1.7,5.3-4.8,10.6c-0.5,0.7-1,0.7-1.4,0.5c-3.1-2.4-6.7-4.8-10.8-7.4c-1.4,2.9-2.6,5.5-4.1,7.7c-0.2,0.7-0.7,1-1.2,0.7
		c-3.6-2.9-7.4-5.5-11.3-7.9c-0.2-0.2-0.2-0.5,0-1l4.6-9.6c0.2-0.5,0.7-1,1-1c0.5,0,2.2,1.2,5.3,3.4
		C294.1,251.3,296.3,253,297.2,253.9L297.2,253.9L297.2,253.9L297.2,253.9z"/>
	<path fill="#635E49" d="M172,276.2c-0.2-0.2-0.2-0.5,0-1l4.6-9.6c0.2-0.5,0.7-0.7,1-0.7c0.5,0,2.6,1.2,6.2,3.6
		c3.8,2.6,5.8,4.1,5.8,4.6c0,1.7-1.7,5-5,10.3c-0.5,0.7-0.7,1-1.2,0.7C179.6,281.3,175.8,278.6,172,276.2L172,276.2L172,276.2
		L172,276.2z"/>
	<path fill="#635E49" d="M348.4,281.3c-0.2-0.2-0.2-0.5,0-1l4.6-9.6c0.2-0.5,0.7-0.7,1-0.7c0.5,0,2.6,1.2,6.2,3.6
		c3.8,2.6,5.8,4.1,5.8,4.6c0,1.7-1.7,5-5,10.3c-0.5,0.7-0.7,1-1.2,0.7C356,286.3,352.2,283.7,348.4,281.3L348.4,281.3L348.4,281.3
		L348.4,281.3z"/>
	<path fill="#635E49" d="M373.1,229.4c0-1.2-2.4-3.4-7.4-6.2c-1.7,2.9-2.4,5.5-2.4,7.9c0,1.4,0.7,2.4,2.2,2.4c1.2,0,2.6-0.5,4.3-1.4
		C371.4,231.4,372.6,230.4,373.1,229.4L373.1,229.4L373.1,229.4L373.1,229.4z M367.8,210.2c0.7-1.2,1.7-1.7,2.4-1.7
		c0.5,0,1,0.2,1,0.7c0,0-0.2,0.2-0.2,0.5c-1,2.2-1.9,4.6-2.6,7c5,3.6,7.4,7.4,7.2,11c-0.5,4.1-1,6.7-1.7,7.7c-2.4,2.9-5,4.6-8.4,4.6
		c-3.4,0-4.8-2.2-4.8-6c0-0.7,0-1.7,0.2-2.6C362,223.7,364.4,216.7,367.8,210.2L367.8,210.2L367.8,210.2L367.8,210.2z"/>
	<path fill="#635E49" d="M344.5,248.4c0.5-1.4,0.5-2.9,0.2-4.3c-0.2-1.4-1-2.2-2.2-2.2c-0.5,0-1.2,0.2-2.2,0.7c-1,0.5-1.4,1-1.4,1.4
		C339,245.3,340.9,246.7,344.5,248.4L344.5,248.4L344.5,248.4L344.5,248.4z M341.6,254.6c-4.6-2.4-6.7-4.8-6.7-7.4
		c0-3.1,1.4-6,4.3-8.4c2.9-2.6,5.3-3.6,7.2-2.9c1.7,0.5,2.4,2.2,2.4,5c0,2.6-0.5,5.5-1.7,8.9c2.4,1.2,3.8,2.4,4.3,3.4
		c0,1.2-1,3.4-3.1,6.2c-0.5-1-1.9-2.2-4.1-3.4c-2.6,3.6-5.8,6.7-9.6,9.6c-4.6,3.1-8.6,5.8-12.2,7.2c-1,0.5-5.3,2.2-13,5
		c-1.2,0.5-2.2,0.7-2.4,0.7c-0.2,0-0.2-0.2-0.2-0.2c0-0.2,0.5-1,1.9-1.7c5.8-3.6,11.5-7,17.5-10.3
		C333.2,262.1,338.3,258.2,341.6,254.6L341.6,254.6L341.6,254.6L341.6,254.6z"/>
	<path fill="#635E49" d="M280,229c18.5-6.7,37.7-13.9,57.8-21.4c0.7-0.2,1.2-0.5,1.4-0.2c0,0,0,0.5-0.2,1.2c-1,2.2-1.7,3.4-2.2,3.8
		c-16.8,6.2-36.7,13.9-59.3,23.3C278,233.5,278.8,231.4,280,229L280,229L280,229L280,229z"/>
	<path fill="#635E49" d="M198.1,383.5c13.7-4.8,28.1-10.1,43.2-15.6c1-0.2,1.2-0.5,1.4-0.2c0.2,0,0.2,0.5-0.2,1.2
		c-0.7,2.2-1.4,3.4-1.9,3.8c-13,4.6-27.8,10.3-44.9,17.5C196.2,388.1,196.9,385.9,198.1,383.5L198.1,383.5L198.1,383.5L198.1,383.5z
		"/>
	<path fill="#635E49" d="M146.3,298.6c0-0.2,0.2-0.5,0.2-0.5c0.2-0.2,0.2-0.2,0.2,0c0.2,0.2,0.2,0.5,0,0.7
		c-1.2,7.2-3.4,10.8-6.5,10.8c-3.1,0-4.6-2.6-4.6-7.9c0-6.5,1.7-13.4,5.5-20.4c1-1.7,1.4-2.6,1.7-2.6l0,0c0,0.2-0.2,1.2-0.7,2.9
		c-2.4,7.4-3.6,12.5-3.6,15.6c0,3.8,1,6,3.1,6C143.2,303.1,144.6,301.4,146.3,298.6L146.3,298.6L146.3,298.6L146.3,298.6z"/>
	<path fill="#635E49" d="M323.4,381.1c2.9,0,5.3,1.4,7.4,4.8c2.2,3.1,3.8,7.4,4.6,12.7c0.2,0.5,0.2,0.7,0.2,1h0.2
		c0-0.2,0.2-0.5,0.2-1c0.5-3.1,1.7-7.9,3.4-14.2c1.9-4.3,3.8-6.5,6-6.5c1.2,0,2.4,0.7,3.4,2.2c1,1.4,1.4,2.4,1.4,3.4
		c0,0.5,0,1.4-0.5,2.4c-0.5,1.4-1,2.2-1.4,2.2c-0.2,0-0.7-0.7-1.7-1.7c-0.7-1-1.7-1.4-2.6-1.4c-1.9,0-3.6,4.6-5.3,13.7
		c-0.7,4.1-1.7,7-2.4,8.6c-0.7,1-1.2,1.7-1.7,1.7c-0.5,0-0.5-0.7-0.7-1.7c0.2-1.7-0.7-4.8-2.6-9.4c-1.9-4.8-3.1-7-4.1-7
		c-0.5,0-0.7,0-1,0.5c-0.2,0.2-0.5,0.5-1.2,0.5c-1,0-1.9-0.7-3.4-1.9c-1.4-1.2-1.9-2.2-1.9-2.9c0-0.2,0.5-1.4,1.7-3.4
		C322.4,381.8,323.2,381.1,323.4,381.1L323.4,381.1L323.4,381.1L323.4,381.1z"/>
	<path fill="#635E49" d="M379.6,397.4c0-0.2,0.2-0.5,0.2-0.5c0.2-0.2,0.2-0.2,0.2,0c0.2,0.2,0.2,0.5,0,0.7
		c-1.2,7.2-3.4,10.8-6.5,10.8c-3.1,0-4.6-2.6-4.6-7.9c0-6.5,1.7-13.4,5.5-20.4c1-1.7,1.4-2.6,1.7-2.6l0,0c0,0.2-0.2,1.2-0.7,2.9
		c-2.4,7.4-3.6,12.5-3.6,15.6c0,3.8,1,6,3.1,6C376.4,402,377.9,400.3,379.6,397.4L379.6,397.4L379.6,397.4L379.6,397.4z"/>
	<path fill="#635E49" d="M202.2,288.5c0.5-3.4,1.7-7.2,3.6-12c1.4-3.6,2.2-7.2,2.2-10.8c0-7-3.4-13.4-9.8-19.9c-0.5-0.5-0.5-1,0-1.4
		l2.2-3.8c0.2-0.5,0.5-0.5,1,0c6.2,5,9.6,12.5,9.6,22.3c0,4.6-1.2,9.6-3.1,14.6c-2.2,5.3-3.1,8.9-3.1,10.8c0,4.1,1,6.2,3.1,6.2
		c1.4,0,2.9-1.7,4.6-4.6c0-0.2,0.2-0.5,0.2-0.5c0.2-0.2,0.2-0.2,0.2,0c0,0,0,0.5,0,0.7c-1.2,7.2-3.4,10.8-6.5,10.8
		c-2.9,0-4.6-3.1-4.6-8.9C201.7,290.9,202,289.7,202.2,288.5L202.2,288.5L202.2,288.5L202.2,288.5z"/>
	<path fill="#635E49" d="M170.8,313.2c2.9,0,5.3,1.4,7.4,4.8c2.2,3.1,3.8,7.4,4.6,12.7c0.2,0.5,0.2,0.7,0.2,1h0.2
		c0-0.2,0.2-0.5,0.2-1c0.5-3.1,1.7-7.9,3.4-14.2c1.9-4.3,3.8-6.5,6-6.5c1.2,0,2.4,0.7,3.4,2.2c1,1.4,1.4,2.4,1.4,3.4
		c0,0.5,0,1.4-0.5,2.4c-0.5,1.4-1,2.2-1.4,2.2c-0.2,0-0.7-0.7-1.7-1.7c-0.7-1-1.7-1.4-2.6-1.4c-1.9,0-3.6,4.6-5.3,13.7
		c-0.7,4.1-1.7,7-2.4,8.6c-0.7,1-1.2,1.7-1.7,1.7c-0.5,0-0.5-0.7-0.7-1.7c0.2-1.7-0.7-4.8-2.6-9.4c-1.9-4.8-3.1-7-4.1-7
		c-0.5,0-0.7,0-1,0.5c-0.2,0.2-0.5,0.5-1.2,0.5c-1,0-1.9-0.7-3.4-1.9c-1.4-1.2-1.9-2.2-1.9-2.9c0-0.2,0.5-1.4,1.7-3.4
		C169.8,313.9,170.5,313.2,170.8,313.2L170.8,313.2L170.8,313.2L170.8,313.2z"/>
	<path fill="#635E49" d="M234.6,242.2c0-0.2,0.2-0.5,0.2-0.5c0.2-0.2,0.2-0.2,0.2,0c0.2,0.2,0.2,0.5,0,0.7
		c-1.2,7.2-3.4,10.8-6.5,10.8c-3.1,0-4.6-2.6-4.6-7.9c0-6.5,1.7-13.4,5.5-20.4c1-1.7,1.4-2.6,1.7-2.6l0,0c0,0.2-0.2,1.2-0.7,2.9
		c-2.4,7.4-3.6,12.5-3.6,15.6c0,3.8,1,6,3.1,6C231.5,246.7,232.9,245,234.6,242.2L234.6,242.2L234.6,242.2L234.6,242.2z"/>
	<path fill="#635E49" d="M599.2,320.2c1.2-1,2.2-1.4,2.9-1.4c0.5,0,0.7,0.5,0.7,1.4c0,0.7-0.2,2.2-0.7,4.1c-0.5,1.9-0.7,3.4-0.7,4.6
		c0,5.3,3.8,8.2,11.3,8.2c6,0,11-2.6,14.9-7.7c2.4-4.1,5-7.9,7.4-11.8c1-1,1.7-1.4,2.4-1.4c1,0,1.2,1,0.7,3.1c-1,4.1-1.7,6-1.7,5.5
		c0,1.7,1,3.4,2.9,4.8c1.7,1.4,4.1,2.4,6.7,2.4c3.4,0,5.5-1,6.5-2.6c0-0.2-1-2.2-3.1-5.8c0.2-1.9,1.2-5.3,2.6-9.8
		c0.2-1.4,0.7-2.2,1.2-2.2c0.5,0,1,0.2,1.7,1.2c1.9,2.9,3.1,6.2,3.1,10.1c0,6-1.4,11-4.1,15.4c-2.9,5.3-7.2,7.9-13,7.9
		c-3.8,0-7.4-3.1-10.6-8.9c-5.3,9.6-12.2,14.4-20.6,14.4c-10.1,0-14.9-5.8-14.9-16.8c-3.8,4.6-10.3,8.6-18.7,12.5v-13.2
		c6.2-3.1,10.3-5,11.5-5.8C591.5,326.4,595.3,323.5,599.2,320.2L599.2,320.2L599.2,320.2L599.2,320.2z"/>
	<path fill="#635E49" d="M562.4,336c-3.6-4.6-6.7-6.7-9.6-6.7c-4.3,0-6.2,1-6.2,3.4c0,2.9,2.9,4.3,8.6,4.3
		C557.4,337,559.8,336.5,562.4,336L562.4,336L562.4,336L562.4,336z M569.9,353.5c0-1.4-0.5-3.1-1-4.8c-2.9,1-7.2,1.7-12.5,1.7
		c-11.5,0-17.3-4.1-17.3-12c0-6,1.7-11.3,5.5-16.1c3.6-4.1,7.4-6.2,11.5-6.2c3.1,0,6.2,1.9,9.8,5.5c3.1,3.6,6,7.7,8.4,12.7
		c0.2,0,0.7,0,1.7-0.5V347l-0.5,0.5c0,2.9-0.7,6.2-2.2,10.6c-1.7,5.5-4.3,10.1-7.4,13.7c-7.2,8.6-15.1,16.1-23.8,22.6
		c-13,9.6-24,14.6-33.6,14.6c-8.2,0-14.4-3.1-18.7-9.1c-3.8-5-5.8-11.8-5.8-19.7c0-10.1,2.2-20.4,6.2-31.2c1.2-2.4,1.7-3.4,2.2-3.4
		c0.2,0,0.2,0.2,0.2,0.7c0,0.7-0.2,1.9-0.5,3.4c-3.1,10.6-4.6,18.5-4.6,24c0,5,1.2,9.4,3.6,13c3.8,5,9.8,7.7,18.2,7.7
		c7.2,0,15.8-3.1,26.2-9.4c8.2-5,16.1-11,23.8-18.2C566.3,360,569.9,355.7,569.9,353.5L569.9,353.5L569.9,353.5L569.9,353.5z"/>
	<path fill="#635E49" d="M504.4,317.3c-0.5-2.2-1.2-3.8-2.2-5c-0.7-1.4-1.2-2.2-1.4-2.6c0-0.5,0-2.2,0.5-5.5
		c0.5-3.1,0.7-5.3,1.2-6.5c0.2-1.2,0.5-1.7,1-1.7c0.2,0,0.5,0.2,1,0.7c3.4,3.8,7,7.7,11,11.8c1.7,1.7,2.4,2.6,2.4,3.1
		c0,0.2-0.2,0.5-0.7,0.5c-0.7,0-2.6-0.5-5.5-1.2c1.7,4.1,3.6,8.2,5.3,12c2.6,6.7,4.1,12.2,4.1,17.3c0,2.4-0.5,5.3-1.4,8.9
		c-1.2,4.1-2.6,7.2-4.6,9.4c-7,7.9-18.7,16.6-35.3,25.9c-14.4,8.4-22.8,12.5-25.4,12.5c-0.5,0-7.7,1.7-21.4,5
		c-14.4,3.4-23.5,5.5-27.1,6c-3.8,0.7-6.2,1-7.2,1c-0.5,0-0.5,0-0.5-0.2c0-0.2,2.6-1.7,7.9-4.1c1.9-1,13-5.8,33.4-14.4
		c14.2-6,25.9-11.5,35.3-16.6c14.2-7.7,25-14.4,32.4-19.9c5.5-4.3,8.4-7.4,8.4-9.4c0-0.5-1.4-3.8-4.3-10.1
		C508,327.1,505.6,321.4,504.4,317.3L504.4,317.3L504.4,317.3L504.4,317.3z"/>
	<path fill="#635E49" d="M484.7,283.9c0,3.8-1.9,9.1-5.8,15.6c-2.4,4.1-6,9.6-10.8,16.8c4.8,5.5,8.2,10.6,9.8,14.9
		c1,3.1,1.7,7.2,1.7,11.8c0,1.9-0.5,4.3-1.4,7.4c-0.7,2.9-1.7,5-2.6,6.5c-1.9,2.9-5,5.8-9.8,8.6c-5,3.4-9.4,5-13,5
		c-5.8,0-8.6-4.3-8.6-13c0-5.8,1-11.5,2.9-16.8c1.9-4.6,5-10.6,10.1-18.5c-4.3-4.1-8.9-9.8-13.9-17c-0.5-0.7-1.7-1.9-3.6-3.8
		c-1-1-1.4-2.2-1.4-3.6c0-2.2,0.2-4.6,0.7-7.4c0.7-2.9,1.2-4.1,1.4-4.1c0.7,0,2.9,1.2,7,3.8c3.8,2.6,7,4.6,8.9,6.2
		c1.2,0.7,1.7,1.4,1.7,1.4v0.2c0,0.2-0.7,0.5-2.4,0.5c-3.1,0-4.8,0.2-4.8,0.5c0,0.2,0.5,0.7,1.4,1.9c3.8,4.8,7.7,8.4,11.8,11.3
		c1-1.4,4.3-6.2,9.6-14.4c4.6-7,7.2-11.8,8.4-14.6c1.2-2.9,1.9-4.1,2.4-4.1C484.4,279.1,484.7,280.6,484.7,283.9L484.7,283.9
		L484.7,283.9L484.7,283.9z M475.3,343c-2.6-5.3-7.2-10.8-13.4-16.1c-2.2,2.2-4.8,6.2-8.2,12c-3.8,6.5-5.5,10.6-5.5,12.7
		c0,2.9,1.9,4.3,6.2,4.3c1.9,0,4.3-0.7,7.4-1.9c4.3-1.9,8.4-4.6,11.8-7.9C475.1,344.6,475.6,343.7,475.3,343L475.3,343L475.3,343
		L475.3,343z"/>
	<path fill="#635E49" d="M461.9,265.9l3.8-7.9c0.2-0.5,0.5-0.7,1-0.7c0.5,0,2.4,1.2,6.2,3.8c3.6,2.4,5.5,3.8,5.5,4.3
		c0,1.7-1.7,5.3-4.8,10.6c-0.5,0.7-1,0.7-1.4,0.5c-3.1-2.4-6.7-4.8-10.8-7.4c-1.4,2.9-2.6,5.5-4.1,7.7c-0.2,0.7-0.7,1-1.2,0.7
		c-3.6-2.9-7.4-5.5-11.3-7.9c-0.2-0.2-0.2-0.5,0-1l4.6-9.6c0.2-0.5,0.7-1,1-1c0.5,0,2.2,1.2,5.3,3.4
		C458.8,263.3,460.9,265,461.9,265.9L461.9,265.9L461.9,265.9L461.9,265.9z"/>
	<path fill="#635E49" d="M588.4,399.6c-2.6,0.7-4.1,1.2-4.6,1.2v-0.2c0,0,1-0.7,2.9-1.9c1.9-1.2,4.8-3.1,8.9-6.2
		c1.9-1.9,4.8-5,8.4-9.4c2.4-2.9,5-5.5,7.9-7.4c3.6-2.6,7-3.8,10.6-3.8c0.7,0,1.9,0.2,3.4,0.7c1.2,0.5,2.4,0.7,3.4,0.7
		c1.9,0,3.4-0.7,4.6-2.2c0.7-1.4,1.7-2.6,2.6-4.1c0.5-1,1.2-1.4,1.7-1.4c0.2,0,0.2,0.2,0.2,0.7c0,0.5-0.2,1.7-0.7,3.1
		c-0.5,0.7,1.4,1,5,1c0.5,0,0.7,0,0.7-0.2c0,0-0.2-1-0.7-2.6c-0.2-0.5,0-1.2,0.7-2.2c1-1.7,1.4-2.4,1.7-2.2c1,0.7,1.4,2.2,1.4,3.8
		c0,1.7-0.5,3.4-1.2,5.3c-0.7,2.2-1.4,3.4-1.9,3.8c-1.7,1-4.3,0.7-7.9-1c-2.9,2.9-5.8,4.6-8.6,4.6c-0.7,0-1.9-0.2-3.1-0.7
		c-1.2-0.5-2.2-0.7-2.9-0.7c-4.8,0-9.8,2.2-14.9,7c-3.6,3.6-7.2,7.2-10.8,10.8C592.9,397.7,590.8,398.9,588.4,399.6L588.4,399.6
		L588.4,399.6L588.4,399.6z"/>
	<path fill="#635E49" d="M537,270c2.9,0,5.3,1.4,7.4,4.8c2.2,3.1,3.8,7.4,4.6,12.7c0.2,0.5,0.2,0.7,0.2,1h0.2c0-0.2,0.2-0.5,0.2-1
		c0.5-3.1,1.7-7.9,3.4-14.2c1.9-4.3,3.8-6.5,6-6.5c1.2,0,2.4,0.7,3.4,2.2c1,1.4,1.4,2.4,1.4,3.4c0,0.5,0,1.4-0.5,2.4
		c-0.5,1.4-1,2.2-1.4,2.2c-0.2,0-0.7-0.7-1.7-1.7c-0.7-1-1.7-1.4-2.6-1.4c-1.9,0-3.6,4.6-5.3,13.7c-0.7,4.1-1.7,7-2.4,8.6
		c-0.7,1-1.2,1.7-1.7,1.7c-0.5,0-0.5-0.7-0.7-1.7c0.2-1.7-0.7-4.8-2.6-9.4c-1.9-4.8-3.1-7-4.1-7c-0.5,0-0.7,0-1,0.5
		c-0.2,0.2-0.5,0.5-1.2,0.5c-1,0-1.9-0.7-3.4-1.9c-1.4-1.2-1.9-2.2-1.9-2.9c0-0.2,0.5-1.4,1.7-3.4C536,270.7,536.8,270,537,270
		L537,270L537,270L537,270z"/>
	<path fill="#635E49" d="M496.2,267.1c24.2-9.1,49.4-18.2,75.4-27.8c0.7-0.2,1.2-0.5,1.2-0.2c0.2,0,0.2,0.5,0,1.2
		c-1,2.2-1.7,3.4-2.2,3.8c-0.2,0.2-12.5,4.8-36.2,13.7c-24.2,8.9-37.9,14.4-40.6,16.1C494.3,271.7,495,269.5,496.2,267.1
		L496.2,267.1L496.2,267.1L496.2,267.1z"/>
	<path fill="#635E49" d="M472.7,223.2c0.5-1.4,0.5-2.9,0.2-4.3c-0.2-1.4-1-2.2-2.2-2.2c-0.5,0-1.2,0.2-2.2,0.7c-1,0.5-1.4,1-1.4,1.4
		C467.2,220.1,469.1,221.5,472.7,223.2L472.7,223.2L472.7,223.2L472.7,223.2z M469.8,229.4c-4.6-2.4-6.7-4.8-6.7-7.4
		c0-3.1,1.4-6,4.3-8.4c2.9-2.6,5.3-3.6,7.2-2.9c1.7,0.5,2.4,2.2,2.4,5c0,2.6-0.5,5.5-1.7,8.9c2.4,1.2,3.8,2.4,4.3,3.4
		c0,1.2-1,3.4-3.1,6.2c-0.5-1-1.9-2.2-4.1-3.4c-2.6,3.6-5.8,6.7-9.6,9.6c-4.6,3.1-8.6,5.8-12.2,7.2c-1,0.5-5.3,2.2-13,5
		c-1.2,0.5-2.2,0.7-2.4,0.7c-0.2,0-0.2-0.2-0.2-0.2c0-0.2,0.5-1,1.9-1.7c5.8-3.6,11.5-7,17.5-10.3
		C461.4,236.9,466.4,233,469.8,229.4L469.8,229.4L469.8,229.4L469.8,229.4z"/>
	<path fill="#635E49" d="M621.5,259.2c0.5-1.4,0.5-2.9,0.2-4.3c-0.2-1.4-1-2.2-2.2-2.2c-0.5,0-1.2,0.2-2.2,0.7c-1,0.5-1.4,1-1.4,1.4
		C616,256.1,617.9,257.5,621.5,259.2L621.5,259.2L621.5,259.2L621.5,259.2z M626.8,268.1c-2.4,5.8-3.6,10.3-3.6,13.7
		c0,4.1,1,6.2,3.1,6.2c1.2,0,2.6-1.7,4.3-4.6c0.2-0.2,0.2-0.5,0.5-0.7c0,0,0.2,0,0.2,0.2c0,0,0,0.2,0,0.7
		c-1.4,7.2-3.6,10.8-6.5,10.8c-3.1,0-4.6-2.6-4.6-7.9c0-2.6,0.5-6,1.9-10.3c1.4-4.3,2.2-6.5,2.2-6.7c0-0.5-1-1.4-3.1-2.6
		c-3.8,5-9.1,9.8-15.8,13.9c-4.6,2.6-9.1,5-13.9,7c-8.9,3.6-14.2,5.5-15.4,6.2c-1.2,0.5-1.9,0.7-2.4,0.7c-0.2,0-0.2-0.2-0.2-0.2
		c0-0.5,0.5-1,1.9-1.9c7.7-4.3,15.1-8.6,22.8-13c10.1-5.8,17-10.6,20.4-14.2c-4.6-2.4-6.7-4.8-6.7-7.4c0-3.1,1.4-6,4.3-8.6
		c2.9-2.4,5.3-3.4,7.2-2.6c1.4,0.5,2.4,2.2,2.4,5c0,2.6-0.5,5.5-1.7,8.6c2.4,1.4,3.4,2.9,3.4,4.3
		C627.5,265.4,627.2,266.6,626.8,268.1L626.8,268.1L626.8,268.1L626.8,268.1z"/>
	<path fill="#635E49" d="M514.2,236.6c0-0.2,0.2-0.5,0.2-0.5c0.2-0.2,0.2-0.2,0.2,0c0.2,0.2,0.2,0.5,0,0.7
		c-1.2,7.2-3.4,10.8-6.5,10.8c-3.1,0-4.6-2.6-4.6-7.9c0-6.5,1.7-13.4,5.5-20.4c1-1.7,1.4-2.6,1.7-2.6l0,0c0,0.2-0.2,1.2-0.7,2.9
		c-2.4,7.4-3.6,12.5-3.6,15.6c0,3.8,1,6,3.1,6C511.1,241.2,512.5,239.5,514.2,236.6L514.2,236.6L514.2,236.6L514.2,236.6z"/>
</g>
</svg>
