<?xml version="1.0" encoding="utf-8"?>
<!-- Generator: Adobe Illustrator 18.1.1, SVG Export Plug-In . SVG Version: 6.00 Build 0)  -->
<!DOCTYPE svg PUBLIC "-//W3C//DTD SVG 1.1//EN" "http://www.w3.org/Graphics/SVG/1.1/DTD/svg11.dtd">
<svg version="1.1" id="Layer_1" xmlns="http://www.w3.org/2000/svg" xmlns:xlink="http://www.w3.org/1999/xlink" x="0px" y="0px"
	 viewBox="0 0 792 612" enable-background="new 0 0 792 612" xml:space="preserve">
<g>
	<path fill="#635E49" d="M445,229.5c0-4.8-0.7-8.6-2.2-11.8c0-1.9,1.2-6,4.1-12c0.5-1.4,1.2-1.4,1.9,0c0.7,1.7,2.4,6.2,5.3,13.7
		c3.1,7.9,4.8,12.7,5.3,14.6c0.5,1.2,0.7,2.4,0.7,2.9c0,2.2-2.2,1-6.2-3.8c-0.5-0.7-0.7-0.2-0.7,1c0,0.5,1.2,17,3.8,49.7
		c2.6,32.6,4.1,50.9,4.1,54.7c0,11.3-1.9,21.4-5.5,30c-0.7,1.7-1.2,2.9-1.7,3.8l0,0c-0.7,1-1.2,1.2-1.2,0.5c-0.2-1-0.2-2.6,0.2-5.5
		c0.5-4.1,0.7-8.4,0.7-13.7c0-4.6-1.4-25.4-4.3-62.4C446.4,254,445,233.6,445,229.5L445,229.5L445,229.5L445,229.5z"/>
	<path fill="#635E49" d="M409,329.8l-25.9-6.5c0.2-0.5,3.6-1.7,9.8-3.4c8.4-2.4,15.4-4.6,20.6-6.7c2.6-1,4.1-2.4,4.6-4.1
		c0.2-1.2,0.5-7,0.5-17.5c0-5.3-0.7-15.8-1.9-32.4c-1.4-16.3-1.9-26.4-1.9-30.5c0-4.6-0.7-8.4-2.2-11.5c0-1.7,1.4-5.8,4.1-12.2
		c0.2-0.7,0.7-1,1-1c0.2,0,0.5,0.2,1,1.2c0.7,1.7,2.6,6.2,5.5,13.7c2.9,7.9,4.6,12.7,5.3,14.4c0.2,1.4,0.5,2.6,0.5,3.1
		c0,2.2-2.2,1-6.2-3.8c-0.5-0.7-0.7-0.2-0.7,1c0,0.2,0.5,6.7,1.4,19.7c1,12.7,1.4,21.6,1.4,26.6c0,13.7-1,23.8-2.9,30
		C420.8,318.3,416,324.8,409,329.8L409,329.8L409,329.8L409,329.8z"/>
	<path fill="#635E49" d="M499,342l-5,10.1c-0.5,1-1.2,1.7-1.9,1.4c0,0.2-1.9,0-5.3-0.2c-3.6,0-7-0.2-10.1-0.2
		c-13.2,0-24.5,1.4-33.6,4.3c-10.6,3.6-21.4,7-32.2,10.6c-18.5,5.5-33.6,8.4-45.6,8.4c-15.1,0-27.4-1.9-36.5-5.5v-14.6
		c7.7,3.6,20.2,5.5,37,5.5c19.4,0,43.7-5.3,73-15.6c-1.2,0-10.1-2.2-26.9-6.2c-14.6-3.4-23.8-5.3-27.4-5.3c-4.6,0-6.7-0.2-6.7-1
		c0-0.2,0.2-0.7,0.7-1.2c0.7-1.9,2.4-5,4.3-8.9l25.2,0c33.1,9.1,62.2,14.4,87.4,16.3c2.6,0.2,4.1,0.5,4.1,1.2
		C499.5,341.3,499.2,341.6,499,342L499,342L499,342L499,342z"/>
	<path fill="#635E49" d="M328.8,356v14.9c-17-7.2-25.4-17.8-25.4-31.9c0-1.9,0.2-4.3,0.7-7.4c0.5-4.3,1.4-6.2,2.4-6.2
		c0.5,0,1,0.7,1,2.6C307.5,340.1,314.4,349.5,328.8,356L328.8,356L328.8,356L328.8,356z"/>
	<path fill="#635E49" d="M371.6,294.8l-3.4,9.8c-0.5,1.2-0.7,1.9-1,2.2c-0.2,0.5-0.7,0.7-1.2,0.7c-19.9,4.8-39.6,11-59.3,18.7
		c0.2,2.9,0.5,5.3,0.5,7c0,2.4-0.5,3.6-1.2,3.6c-1,0-3.1-2.6-6.2-8.4c-3.6,1.2-9.8,3.8-18.7,7.7v-13.2c2.6-1.2,6.5-2.9,11-5
		c-0.5-0.5-3.8-3.4-10.3-8.6c-5.5-4.3-8.9-7.9-10.3-10.3c-1.4-2.2-2.2-4.8-2.2-7.4c0-4.6,1.9-8.4,5.5-11.5c3.6-3.4,8.2-5,13.7-5
		c9.8,0,25.9,2.9,47.5,8.2c1,0.2,12.5,3.4,34.6,9.4C371.8,292.6,372,293.6,371.6,294.8L371.6,294.8L371.6,294.8L371.6,294.8z
		 M346.8,300.8c-5.3-1.9-13.7-4.6-25-7.2c-14.6-3.6-26.2-5.3-35-5.3c-7,0-10.6,0.5-10.6,1.7c0,0.5,1.2,1.7,3.1,3.6
		c4.1,3.1,8.2,6.5,12,9.8c6,4.8,9.6,8.4,11.3,10.6C318.5,308.4,333.2,303.9,346.8,300.8L346.8,300.8L346.8,300.8L346.8,300.8z"/>
	<path fill="#635E49" d="M235.7,349.5c5-5.8,11.8-10.8,20.2-15.4c4.8-2.6,13.2-6.5,25.2-11.5v13.2c-7.7,3.4-13.2,5.8-16.8,7.4
		c-7.4,3.6-12.5,6.2-15.1,8.4c-5,3.8-12.5,11.3-22.1,22.3c-5.8,6.7-11.5,10.1-17.3,10.1c-4.8,0-9.1-2.2-12.7-6.7
		c-3.8-4.3-5.5-10.1-5.5-16.6c0-8.9,3.6-20.6,11-35.3c0.7-1.4,1.4-2.2,1.9-2.2c0,0,0.2,0.2,0.2,0.5c0,1.4-1.7,6.5-4.8,15.1
		c-3.4,8.9-5,15.6-5,20.6c0,3.8,1,7,2.9,9.1c1.9,2.6,4.6,3.8,7.9,3.8c6,0,12.2-3.1,18.2-9.1C228,358.8,231.9,354,235.7,349.5
		L235.7,349.5L235.7,349.5L235.7,349.5z"/>
	<path fill="#635E49" d="M214.4,248c0-4.6-0.7-8.4-2.2-11.5c0-1.7,1.2-5.8,4.1-12.2c0.2-0.7,0.5-1,1-1c0.2,0,0.5,0.2,1,1.2
		c0.7,1.7,2.4,6.2,5.3,13.7c3.1,7.9,4.8,12.7,5.3,14.4c0.5,1.4,0.5,2.4,0.5,3.1c0,2.2-1.9,1-6.2-3.8c-0.5-0.7-0.7-0.2-0.7,1
		c0,0.2,1,12.2,2.6,35.5c1.7,23.3,2.6,36.7,2.6,40.6c0,11.3-1.7,21.4-5.3,30c-0.7,1.7-1.2,3.1-1.7,3.8l0,0c-0.7,1.2-1.2,1.2-1.4,0.5
		c0-1,0-2.6,0.2-5.5c0.5-3.8,0.7-8.4,0.7-13.7c0-4.8-1-20.9-2.9-48.5C215.3,267.9,214.4,252,214.4,248L214.4,248L214.4,248
		L214.4,248z"/>
	<path fill="#635E49" d="M120,335.6c15.8,0,33.6-3.4,54-9.6c16.3-5.3,26.9-9.6,31.7-13.2c0.5-0.2,0.5-0.7,0.5-1.4
		c0-1.9-2.9-7-9.1-14.6c-1.2-1.4-1.7-3.1-1.2-4.8c0.7-3.4,1.7-6.2,2.9-8.6c0.7-1.7,1.4-2.6,1.9-2.6c0.2,0,1.2,0.7,2.4,2.2
		c1.7,1.7,3.4,4.3,5,8.2c2.6,4.6,3.8,8.6,3.8,12c0,11.3-3.6,19.7-11,24.7c-4.8,3.6-15.6,7.9-32.2,13c-20.9,6.5-38.9,9.6-54.7,9.6
		c-15.4,0-26.2-4.1-33.1-12.2c-4.8-5.5-7-12.7-7-21.4c0-9.1,2.2-17.5,6.5-25.4c1.4-2.4,2.4-3.8,2.9-3.8c0,0,0.2,0.2,0.2,0.7
		c0,0.7-0.5,2.2-1.2,4.3c-1,2.9-2.2,5.5-3.1,8.4c-1.2,3.6-1.7,7.4-1.7,11.5c0,5.3,2.4,9.8,7.7,13.9
		C92.7,332.4,104.2,335.6,120,335.6L120,335.6L120,335.6L120,335.6z"/>
	<path fill="#635E49" d="M327.9,340.6c-0.2-0.2-0.2-0.5,0-1l4.6-9.6c0.2-0.5,0.7-0.7,1-0.7c0.5,0,2.6,1.2,6.2,3.6
		c3.8,2.6,5.8,4.1,5.8,4.6c0,1.7-1.7,5-5,10.3c-0.5,0.7-0.7,1-1.2,0.7C335.6,345.6,331.7,343,327.9,340.6L327.9,340.6L327.9,340.6
		L327.9,340.6z"/>
	<path fill="#635E49" d="M139.7,287.1l3.8-7.9c0.2-0.5,0.5-0.7,1-0.7c0.5,0,2.4,1.2,6.2,3.8c3.6,2.4,5.5,3.8,5.5,4.3
		c0,1.7-1.7,5.3-4.8,10.6c-0.5,0.7-1,0.7-1.4,0.5c-3.1-2.4-6.7-4.8-10.8-7.4c-1.4,2.9-2.6,5.5-4.1,7.7c-0.2,0.7-0.7,1-1.2,0.7
		c-3.6-2.9-7.4-5.5-11.3-7.9c-0.2-0.2-0.2-0.5,0-1l4.6-9.6c0.2-0.5,0.7-1,1-1c0.5,0,2.2,1.2,5.3,3.4
		C136.6,284.4,138.8,286.1,139.7,287.1L139.7,287.1L139.7,287.1L139.7,287.1z"/>
	<path fill="#635E49" d="M392.2,227.1c0-1.2-2.4-3.4-7.4-6.2c-1.7,2.9-2.4,5.5-2.4,7.9c0,1.4,0.7,2.4,2.2,2.4c1.2,0,2.6-0.5,4.3-1.4
		C390.5,229,391.7,228,392.2,227.1L392.2,227.1L392.2,227.1L392.2,227.1z M386.9,207.9c0.7-1.2,1.7-1.7,2.4-1.7c0.5,0,1,0.2,1,0.7
		c0,0-0.2,0.2-0.2,0.5c-1,2.2-1.9,4.6-2.6,7c5,3.6,7.4,7.4,7.2,11c-0.5,4.1-1,6.7-1.7,7.7c-2.4,2.9-5,4.6-8.4,4.6
		c-3.4,0-4.8-2.2-4.8-6c0-0.7,0-1.7,0.2-2.6C381.2,221.3,383.6,214.4,386.9,207.9L386.9,207.9L386.9,207.9L386.9,207.9z"/>
	<path fill="#635E49" d="M360.3,238.1c0.5-1.4,0.5-2.9,0.2-4.3c-0.2-1.4-1-2.2-2.2-2.2c-0.5,0-1.2,0.2-2.2,0.7c-1,0.5-1.4,1-1.4,1.4
		C354.8,235,356.7,236.4,360.3,238.1L360.3,238.1L360.3,238.1L360.3,238.1z M357.4,244.4c-4.6-2.4-6.7-4.8-6.7-7.4
		c0-3.1,1.4-6,4.3-8.4c2.9-2.6,5.3-3.6,7.2-2.9c1.7,0.5,2.4,2.2,2.4,5c0,2.6-0.5,5.5-1.7,8.9c2.4,1.2,3.8,2.4,4.3,3.4
		c0,1.2-1,3.4-3.1,6.2c-0.5-1-1.9-2.2-4.1-3.4c-2.6,3.6-5.8,6.7-9.6,9.6c-4.6,3.1-8.6,5.8-12.2,7.2c-1,0.5-5.3,2.2-13,5
		c-1.2,0.5-2.2,0.7-2.4,0.7c-0.2,0-0.2-0.2-0.2-0.2c0-0.2,0.5-1,1.9-1.7c5.8-3.6,11.5-7,17.5-10.3C349,251.8,354,248,357.4,244.4
		L357.4,244.4L357.4,244.4L357.4,244.4z"/>
	<path fill="#635E49" d="M301.5,217.2c0.5-1.4,0.5-2.9,0.2-4.3c-0.2-1.4-1-2.2-2.2-2.2c-0.5,0-1.2,0.2-2.2,0.7c-1,0.5-1.4,1-1.4,1.4
		C296,214.1,297.9,215.6,301.5,217.2L301.5,217.2L301.5,217.2L301.5,217.2z M306.8,226.1c-2.4,5.8-3.6,10.3-3.6,13.7
		c0,4.1,1,6.2,3.1,6.2c1.4,0,2.9-1.7,4.3-4.6c0.2-0.2,0.2-0.5,0.5-0.7c0.2,0,0.2,0,0.2,0.2c0,0,0,0.2,0,0.7
		c-1.2,7.2-3.4,10.8-6.5,10.8c-3.1,0-4.6-2.6-4.6-7.9c0-2.6,0.7-6,1.9-10.3c1.4-4.3,2.2-6.5,2.2-6.7c0-0.5-1-1.4-3.1-2.6
		c-2.6,3.6-5.8,6.7-9.6,9.6c-4.6,3.4-8.6,5.8-12.2,7.4c-1,0.2-5.3,1.9-13,4.8c-1.2,0.5-2.2,0.7-2.4,0.7c-0.2,0-0.2,0-0.2-0.2
		c0-0.2,0.5-0.7,1.9-1.7c5.8-3.4,11.5-7,17.5-10.3c7-4.3,12-8.2,15.4-11.8c-4.6-2.4-6.7-4.8-6.7-7.4c0-3.1,1.4-6,4.3-8.6
		c2.9-2.4,5.3-3.4,7.2-2.6c1.7,0.5,2.4,2.2,2.4,5c0,2.6-0.5,5.5-1.7,8.6c2.4,1.4,3.6,2.9,3.6,4.3
		C307.7,223.5,307.2,224.7,306.8,226.1L306.8,226.1L306.8,226.1L306.8,226.1z"/>
	<path fill="#635E49" d="M231.6,273.9c18.5-6.7,37.7-13.9,57.8-21.4c0.7-0.2,1.2-0.5,1.4-0.2c0,0,0,0.5-0.2,1.2
		c-1,2.2-1.7,3.4-2.2,3.8c-16.8,6.2-36.7,13.9-59.3,23.3C229.7,278.4,230.4,276.3,231.6,273.9L231.6,273.9L231.6,273.9L231.6,273.9z
		"/>
	<path fill="#635E49" d="M120.5,368.7c9.6-3.4,19.9-7.2,31-11c1-0.2,1.2-0.5,1.4-0.2c0.2,0,0.2,0.5-0.2,1.2
		c-0.7,2.2-1.4,3.4-1.9,3.8c-9.6,3.4-20.4,7.4-32.6,13C118.6,373.2,119.3,371.1,120.5,368.7L120.5,368.7L120.5,368.7L120.5,368.7z"
		/>
	<path fill="#635E49" d="M323.3,398.9c-4.8,4.3-11.3,6.7-19,6.7c-2.2,0-4.3-0.7-5.8-1.9c-1.4-1.2-2.2-2.9-2.2-4.8
		c0-3.4,1.2-6.7,4.1-10.1c2.9-3.1,5.8-6,8.4-9.1c0.7-0.5,0.5-1-0.5-1.4c-1.9-0.7-4.3-1-6.7-1c-1.2,0-2.6,0.2-4.3,1.2
		c-0.2,0-0.5,0.2-0.7,0c0,0,0-0.2,0.2-0.7c1-2.4,1.9-4.1,2.9-4.8c1.2-1,3.1-1.4,5.8-1.4c5.8,0,8.4,1.2,8.4,4.1c0,2.2-1.7,5-5.3,9.1
		c-2.6,2.6-5.3,5.3-7.9,7.9c-1,1.4-1.4,2.9-1.4,3.8c0,2.4,2.6,3.6,7.7,3.6s10.1-1,15.8-2.6c1.4-0.5,2.2-0.5,2.2-0.2
		C325,397.2,324.5,398,323.3,398.9L323.3,398.9L323.3,398.9L323.3,398.9z"/>
	<path fill="#635E49" d="M484.1,305.6c0,2.6-1.2,5.5-3.1,8.6c-2.2,3.1-4.8,6-8.2,8.4c-1.4,1-2.2,1.4-2.4,1.4v-0.2
		c0-0.2,0.5-0.7,1.4-1.9c5.5-6,8.4-9.8,8.4-12c0-1.7-1-2.6-2.6-2.6c-1,0-1.9,0.2-2.6,0.7c-0.7,0.2-1,0.5-1.2,0.5c0,0-0.2,0-0.2-0.2
		c0,0,0-0.5,0.2-1.4c1-4.1,2.9-6,6.2-6C482.7,300.8,484.1,302.4,484.1,305.6L484.1,305.6L484.1,305.6L484.1,305.6z"/>
	<path fill="#635E49" d="M470.9,207.4c2.9,0,5.3,1.4,7.4,4.8c2.2,3.1,3.8,7.4,4.6,12.7c0.2,0.5,0.2,0.7,0.2,1h0.2
		c0-0.2,0.2-0.5,0.2-1c0.5-3.1,1.7-7.9,3.4-14.2c1.9-4.3,3.8-6.5,6-6.5c1.2,0,2.4,0.7,3.4,2.2c1,1.4,1.4,2.4,1.4,3.4
		c0,0.5,0,1.4-0.5,2.4c-0.5,1.4-1,2.2-1.4,2.2c-0.2,0-0.7-0.7-1.7-1.7c-0.7-1-1.7-1.4-2.6-1.4c-1.9,0-3.6,4.6-5.3,13.7
		c-0.7,4.1-1.7,7-2.4,8.6c-0.7,1-1.2,1.7-1.7,1.7c-0.5,0-0.5-0.7-0.7-1.7c0.2-1.7-0.7-4.8-2.6-9.4c-1.9-4.8-3.1-7-4.1-7
		c-0.5,0-0.7,0-1,0.5c-0.2,0.2-0.5,0.5-1.2,0.5c-1,0-1.9-0.7-3.4-1.9c-1.4-1.2-1.9-2.2-1.9-2.9c0-0.2,0.5-1.4,1.7-3.4
		C470,208.1,470.7,207.4,470.9,207.4L470.9,207.4L470.9,207.4L470.9,207.4z"/>
	<path fill="#635E49" d="M482.2,273.2c0-0.2,0.2-0.5,0.2-0.5c0.2-0.2,0.2-0.2,0.2,0c0.2,0.2,0.2,0.5,0,0.7
		c-1.2,7.2-3.4,10.8-6.5,10.8c-3.1,0-4.6-2.6-4.6-7.9c0-6.5,1.7-13.4,5.5-20.4c1-1.7,1.4-2.6,1.7-2.6l0,0c0,0.2-0.2,1.2-0.7,2.9
		c-2.4,7.4-3.6,12.5-3.6,15.6c0,3.8,1,6,3.1,6C479.1,277.7,480.5,276,482.2,273.2L482.2,273.2L482.2,273.2L482.2,273.2z"/>
	<path fill="#635E49" d="M374.2,261.2c2.9,0,5.3,1.4,7.4,4.8c2.2,3.1,3.8,7.4,4.6,12.7c0.2,0.5,0.2,0.7,0.2,1h0.2
		c0-0.2,0.2-0.5,0.2-1c0.5-3.1,1.7-7.9,3.4-14.2c1.9-4.3,3.8-6.5,6-6.5c1.2,0,2.4,0.7,3.4,2.2c1,1.4,1.4,2.4,1.4,3.4
		c0,0.5,0,1.4-0.5,2.4c-0.5,1.4-1,2.2-1.4,2.2c-0.2,0-0.7-0.7-1.7-1.7c-0.7-1-1.7-1.4-2.6-1.4c-1.9,0-3.6,4.6-5.3,13.7
		c-0.7,4.1-1.7,7-2.4,8.6c-0.7,1-1.2,1.7-1.7,1.7c-0.5,0-0.5-0.7-0.7-1.7c0.2-1.7-0.7-4.8-2.6-9.4c-1.9-4.8-3.1-7-4.1-7
		c-0.5,0-0.7,0-1,0.5c-0.2,0.2-0.5,0.5-1.2,0.5c-1,0-1.9-0.7-3.4-1.9c-1.4-1.2-1.9-2.2-1.9-2.9c0-0.2,0.5-1.4,1.7-3.4
		C373.2,261.9,374,261.2,374.2,261.2L374.2,261.2L374.2,261.2L374.2,261.2z"/>
	<path fill="#635E49" d="M346.1,209.1c0,2.6-1.2,5.5-3.1,8.6c-2.2,3.1-4.8,6-8.2,8.4c-1.4,1-2.2,1.4-2.4,1.4v-0.2
		c0-0.2,0.5-0.7,1.4-1.9c5.5-6,8.4-9.8,8.4-12c0-1.7-1-2.6-2.6-2.6c-1,0-1.9,0.2-2.6,0.7c-0.7,0.2-1,0.5-1.2,0.5c0,0-0.2,0-0.2-0.2
		c0,0,0-0.5,0.2-1.4c1-4.1,2.9-6,6.2-6C344.7,204.3,346.1,206,346.1,209.1L346.1,209.1L346.1,209.1L346.1,209.1z"/>
	<path fill="#635E49" d="M429.9,394.4c0-0.2,0.2-0.5,0.2-0.5c0.2-0.2,0.2-0.2,0.2,0c0.2,0.2,0.2,0.5,0,0.7
		c-1.2,7.2-3.4,10.8-6.5,10.8c-3.1,0-4.6-2.6-4.6-7.9c0-6.5,1.7-13.4,5.5-20.4c1-1.7,1.4-2.6,1.7-2.6l0,0c0,0.2-0.2,1.2-0.7,2.9
		c-2.4,7.4-3.6,12.5-3.6,15.6c0,3.8,1,6,3.1,6C426.8,398.9,428.2,397.2,429.9,394.4L429.9,394.4L429.9,394.4L429.9,394.4z"/>
	<path fill="#635E49" d="M377.1,390.8c0,2.6-1.2,5.5-3.1,8.6c-2.2,3.1-4.8,6-8.2,8.4c-1.4,1-2.2,1.4-2.4,1.4V409
		c0-0.2,0.5-0.7,1.4-1.9c5.5-6,8.4-9.8,8.4-12c0-1.7-1-2.6-2.6-2.6c-1,0-1.9,0.2-2.6,0.7c-0.7,0.2-1,0.5-1.2,0.5c0,0-0.2,0-0.2-0.2
		c0,0,0-0.5,0.2-1.4c1-4.1,2.9-6,6.2-6C375.6,386,377.1,387.6,377.1,390.8L377.1,390.8L377.1,390.8L377.1,390.8z"/>
	<path fill="#635E49" d="M242.9,210c2.9,0,5.3,1.4,7.4,4.8c2.2,3.1,3.8,7.4,4.6,12.7c0.2,0.5,0.2,0.7,0.2,1h0.2c0-0.2,0.2-0.5,0.2-1
		c0.5-3.1,1.7-7.9,3.4-14.2c1.9-4.3,3.8-6.5,6-6.5c1.2,0,2.4,0.7,3.4,2.2s1.4,2.4,1.4,3.4c0,0.5,0,1.4-0.5,2.4
		c-0.5,1.4-1,2.2-1.4,2.2c-0.2,0-0.7-0.7-1.7-1.7c-0.7-1-1.7-1.4-2.6-1.4c-1.9,0-3.6,4.6-5.3,13.7c-0.7,4.1-1.7,7-2.4,8.6
		c-0.7,1-1.2,1.7-1.7,1.7c-0.5,0-0.5-0.7-0.7-1.7c0.2-1.7-0.7-4.8-2.6-9.4c-1.9-4.8-3.1-7-4.1-7c-0.5,0-0.7,0-1,0.5
		c-0.2,0.2-0.5,0.5-1.2,0.5c-1,0-1.9-0.7-3.4-1.9c-1.4-1.2-1.9-2.2-1.9-2.9c0-0.2,0.5-1.4,1.7-3.4C242,210.8,242.7,210,242.9,210
		L242.9,210L242.9,210L242.9,210z"/>
	<path fill="#635E49" d="M193.2,236.7c0-0.2,0.2-0.5,0.2-0.5c0.2-0.2,0.2-0.2,0.2,0c0.2,0.2,0.2,0.5,0,0.7
		c-1.2,7.2-3.4,10.8-6.5,10.8c-3.1,0-4.6-2.6-4.6-7.9c0-6.5,1.7-13.4,5.5-20.4c1-1.7,1.4-2.6,1.7-2.6l0,0c0,0.2-0.2,1.2-0.7,2.9
		c-2.4,7.4-3.6,12.5-3.6,15.6c0,3.8,1,6,3.1,6C190.1,241.2,191.6,239.6,193.2,236.7L193.2,236.7L193.2,236.7L193.2,236.7z"/>
	<path fill="#635E49" d="M92.2,279.9c0-0.2,0.2-0.5,0.2-0.5c0.2-0.2,0.2-0.2,0.2,0c0.2,0.2,0.2,0.5,0,0.7
		c-1.2,7.2-3.4,10.8-6.5,10.8c-3.1,0-4.6-2.6-4.6-7.9c0-6.5,1.7-13.4,5.5-20.4c1-1.7,1.4-2.6,1.7-2.6l0,0c0,0.2-0.2,1.2-0.7,2.9
		c-2.4,7.4-3.6,12.5-3.6,15.6c0,3.8,1,6,3.1,6C89.1,284.4,90.5,282.8,92.2,279.9L92.2,279.9L92.2,279.9L92.2,279.9z"/>
	<path fill="#635E49" d="M133.2,237.2c2.9,0,5.3,1.4,7.4,4.8c2.2,3.1,3.8,7.4,4.6,12.7c0.2,0.5,0.2,0.7,0.2,1h0.2
		c0-0.2,0.2-0.5,0.2-1c0.5-3.1,1.7-7.9,3.4-14.2c1.9-4.3,3.8-6.5,6-6.5c1.2,0,2.4,0.7,3.4,2.2c1,1.4,1.4,2.4,1.4,3.4
		c0,0.5,0,1.4-0.5,2.4c-0.5,1.4-1,2.2-1.4,2.2c-0.2,0-0.7-0.7-1.7-1.7c-0.7-1-1.7-1.4-2.6-1.4c-1.9,0-3.6,4.6-5.3,13.7
		c-0.7,4.1-1.7,7-2.4,8.6c-0.7,1-1.2,1.7-1.7,1.7c-0.5,0-0.5-0.7-0.7-1.7c0.2-1.7-0.7-4.8-2.6-9.4c-1.9-4.8-3.1-7-4.1-7
		c-0.5,0-0.7,0-1,0.5c-0.2,0.2-0.5,0.5-1.2,0.5c-1,0-1.9-0.7-3.4-1.9c-1.4-1.2-1.9-2.2-1.9-2.9c0-0.2,0.5-1.4,1.7-3.4
		C132.3,237.9,133,237.2,133.2,237.2L133.2,237.2L133.2,237.2L133.2,237.2z"/>
	<path fill="#635E49" d="M259,302.2c0,2.6-1.2,5.5-3.1,8.6c-2.2,3.1-4.8,6-8.2,8.4c-1.4,1-2.2,1.4-2.4,1.4v-0.2
		c0-0.2,0.5-0.7,1.4-1.9c5.5-6,8.4-9.8,8.4-12c0-1.7-1-2.6-2.6-2.6c-1,0-1.9,0.2-2.6,0.7c-0.7,0.2-1,0.5-1.2,0.5c0,0-0.2,0-0.2-0.2
		c0,0,0-0.5,0.2-1.4c1-4.1,2.9-6,6.2-6C257.6,297.4,259,299.1,259,302.2L259,302.2L259,302.2L259,302.2z"/>
	<path fill="#635E49" d="M178.6,383.3c0-0.2,0.2-0.5,0.2-0.5c0.2-0.2,0.2-0.2,0.2,0c0.2,0.2,0.2,0.5,0,0.7
		c-1.2,7.2-3.4,10.8-6.5,10.8c-3.1,0-4.6-2.6-4.6-7.9c0-6.5,1.7-13.4,5.5-20.4c1-1.7,1.4-2.6,1.7-2.6l0,0c0,0.2-0.2,1.2-0.7,2.9
		c-2.4,7.4-3.6,12.5-3.6,15.6c0,3.8,1,6,3.1,6C175.5,387.9,176.9,386.2,178.6,383.3L178.6,383.3L178.6,383.3L178.6,383.3z"/>
	<path fill="#635E49" d="M245.6,377.3c2.9,0,5.3,1.4,7.4,4.8c2.2,3.1,3.8,7.4,4.6,12.7c0.2,0.5,0.2,0.7,0.2,1h0.2
		c0-0.2,0.2-0.5,0.2-1c0.5-3.1,1.7-7.9,3.4-14.2c1.9-4.3,3.8-6.5,6-6.5c1.2,0,2.4,0.7,3.4,2.2c1,1.4,1.4,2.4,1.4,3.4
		c0,0.5,0,1.4-0.5,2.4c-0.5,1.4-1,2.2-1.4,2.2c-0.2,0-0.7-0.7-1.7-1.7c-0.7-1-1.7-1.4-2.6-1.4c-1.9,0-3.6,4.6-5.3,13.7
		c-0.7,4.1-1.7,7-2.4,8.6c-0.7,1-1.2,1.7-1.7,1.7c-0.5,0-0.5-0.7-0.7-1.7c0.2-1.7-0.7-4.8-2.6-9.4c-1.9-4.8-3.1-7-4.1-7
		c-0.5,0-0.7,0-1,0.5c-0.2,0.2-0.5,0.5-1.2,0.5c-1,0-1.9-0.7-3.4-1.9c-1.4-1.2-1.9-2.2-1.9-2.9c0-0.2,0.5-1.4,1.7-3.4
		C244.6,378,245.3,377.3,245.6,377.3L245.6,377.3L245.6,377.3L245.6,377.3z"/>
	<path fill="#635E49" d="M656.4,317.3c1.2-1,2.2-1.4,2.9-1.4c0.5,0,0.7,0.5,0.7,1.4c0,0.7-0.2,2.2-0.7,4.1c-0.5,1.9-0.7,3.4-0.7,4.6
		c0,5.3,3.8,8.2,11.3,8.2c6,0,11-2.6,14.9-7.7c2.4-4.1,5-7.9,7.4-11.8c1-1,1.7-1.4,2.4-1.4c1,0,1.2,1,0.7,3.1c-1,4.1-1.7,6-1.7,5.5
		c0,1.7,1,3.4,2.9,4.8c1.7,1.4,4.1,2.4,6.7,2.4c3.4,0,5.5-1,6.5-2.6c0-0.2-1-2.2-3.1-5.8c0.2-1.9,1.2-5.3,2.6-9.8
		c0.2-1.4,0.7-2.2,1.2-2.2c0.5,0,1,0.2,1.7,1.2c1.9,2.9,3.1,6.2,3.1,10.1c0,6-1.4,11-4.1,15.4c-2.9,5.3-7.2,7.9-13,7.9
		c-3.8,0-7.4-3.1-10.6-8.9c-5.3,9.6-12.2,14.4-20.6,14.4c-10.1,0-14.9-5.8-14.9-16.8c-3.8,4.6-10.3,8.6-18.7,12.5v-13.2
		c6.2-3.1,10.3-5,11.5-5.8C648.8,323.6,652.6,320.7,656.4,317.3L656.4,317.3L656.4,317.3L656.4,317.3z"/>
	<path fill="#635E49" d="M619.7,333.2c-3.6-4.6-6.7-6.7-9.6-6.7c-4.3,0-6.2,1-6.2,3.4c0,2.9,2.9,4.3,8.6,4.3
		C614.7,334.1,617.1,333.6,619.7,333.2L619.7,333.2L619.7,333.2L619.7,333.2z M627.2,350.7c0-1.4-0.5-3.1-1-4.8
		c-2.9,1-7.2,1.7-12.5,1.7c-11.5,0-17.3-4.1-17.3-12c0-6,1.7-11.3,5.5-16.1c3.6-4.1,7.4-6.2,11.5-6.2c3.1,0,6.2,1.9,9.8,5.5
		c3.1,3.6,6,7.7,8.4,12.7c0.2,0,0.7,0,1.7-0.5v13.2l-0.5,0.5c0,2.9-0.7,6.2-2.2,10.6c-1.7,5.5-4.3,10.1-7.4,13.7
		c-7.2,8.6-15.1,16.1-23.8,22.6c-13,9.6-24,14.6-33.6,14.6c-8.2,0-14.4-3.1-18.7-9.1c-3.8-5-5.8-11.8-5.8-19.7
		c0-10.1,2.2-20.4,6.2-31.2c1.2-2.4,1.7-3.4,2.2-3.4c0.2,0,0.2,0.2,0.2,0.7c0,0.7-0.2,1.9-0.5,3.4c-3.1,10.6-4.6,18.5-4.6,24
		c0,5,1.2,9.4,3.6,13c3.8,5,9.8,7.7,18.2,7.7c7.2,0,15.8-3.1,26.2-9.4c8.2-5,16.1-11,23.8-18.2C623.6,357.2,627.2,352.8,627.2,350.7
		L627.2,350.7L627.2,350.7L627.2,350.7z"/>
	<path fill="#635E49" d="M561.6,314.4c-0.5-2.2-1.2-3.8-2.2-5c-0.7-1.4-1.2-2.2-1.4-2.6c0-0.5,0-2.2,0.5-5.5
		c0.5-3.1,0.7-5.3,1.2-6.5c0.2-1.2,0.5-1.7,1-1.7c0.2,0,0.5,0.2,1,0.7c3.4,3.8,7,7.7,11,11.8c1.7,1.7,2.4,2.6,2.4,3.1
		c0,0.2-0.2,0.5-0.7,0.5c-0.7,0-2.6-0.5-5.5-1.2c1.7,4.1,3.6,8.2,5.3,12c2.6,6.7,4.1,12.2,4.1,17.3c0,2.4-0.5,5.3-1.4,8.9
		c-1.2,4.1-2.6,7.2-4.6,9.4c-7,7.9-18.7,16.6-35.3,25.9c-14.4,8.4-22.8,12.5-25.4,12.5c-0.5,0-7.7,1.7-21.4,5
		c-14.4,3.4-23.5,5.5-27.1,6c-3.8,0.7-6.2,1-7.2,1c-0.5,0-0.5,0-0.5-0.2c0-0.2,2.6-1.7,7.9-4.1c1.9-1,13-5.8,33.4-14.4
		c14.2-6,25.9-11.5,35.3-16.6c14.2-7.7,25-14.4,32.4-19.9c5.5-4.3,8.4-7.4,8.4-9.4c0-0.5-1.4-3.8-4.3-10.1
		C565.2,324.3,562.8,318.5,561.6,314.4L561.6,314.4L561.6,314.4L561.6,314.4z"/>
	<path fill="#635E49" d="M542,281.1c0,3.8-1.9,9.1-5.8,15.6c-2.4,4.1-6,9.6-10.8,16.8c4.8,5.5,8.2,10.6,9.8,14.9
		c1,3.1,1.7,7.2,1.7,11.8c0,1.9-0.5,4.3-1.4,7.4c-0.7,2.9-1.7,5-2.6,6.5c-1.9,2.9-5,5.8-9.8,8.6c-5,3.4-9.4,5-13,5
		c-5.8,0-8.6-4.3-8.6-13c0-5.8,1-11.5,2.9-16.8c1.9-4.6,5-10.6,10.1-18.5c-4.3-4.1-8.9-9.8-13.9-17c-0.5-0.7-1.7-1.9-3.6-3.8
		c-1-1-1.4-2.2-1.4-3.6c0-2.2,0.2-4.6,0.7-7.4c0.7-2.9,1.2-4.1,1.4-4.1c0.7,0,2.9,1.2,7,3.8c3.8,2.6,7,4.6,8.9,6.2
		c1.2,0.7,1.7,1.4,1.7,1.4v0.2c0,0.2-0.7,0.5-2.4,0.5c-3.1,0-4.8,0.2-4.8,0.5c0,0.2,0.5,0.7,1.4,1.9c3.8,4.8,7.7,8.4,11.8,11.3
		c1-1.4,4.3-6.2,9.6-14.4c4.6-7,7.2-11.8,8.4-14.6c1.2-2.9,1.9-4.1,2.4-4.1C541.7,276.3,542,277.7,542,281.1L542,281.1L542,281.1
		L542,281.1z M532.6,340.1c-2.6-5.3-7.2-10.8-13.4-16.1c-2.2,2.2-4.8,6.2-8.2,12c-3.8,6.5-5.5,10.6-5.5,12.7c0,2.9,1.9,4.3,6.2,4.3
		c1.9,0,4.3-0.7,7.4-1.9c4.3-1.9,8.4-4.6,11.8-7.9C532.4,341.8,532.8,340.8,532.6,340.1L532.6,340.1L532.6,340.1L532.6,340.1z"/>
	<path fill="#635E49" d="M519.2,263.1l3.8-7.9c0.2-0.5,0.5-0.7,1-0.7c0.5,0,2.4,1.2,6.2,3.8c3.6,2.4,5.5,3.8,5.5,4.3
		c0,1.7-1.7,5.3-4.8,10.6c-0.5,0.7-1,0.7-1.4,0.5c-3.1-2.4-6.7-4.8-10.8-7.4c-1.4,2.9-2.6,5.5-4.1,7.7c-0.2,0.7-0.7,1-1.2,0.7
		c-3.6-2.9-7.4-5.5-11.3-7.9c-0.2-0.2-0.2-0.5,0-1l4.6-9.6c0.2-0.5,0.7-1,1-1c0.5,0,2.2,1.2,5.3,3.4
		C516,260.4,518.2,262.1,519.2,263.1L519.2,263.1L519.2,263.1L519.2,263.1z"/>
	<path fill="#635E49" d="M645.6,396.8c-2.6,0.7-4.1,1.2-4.6,1.2v-0.2c0,0,1-0.7,2.9-1.9c1.9-1.2,4.8-3.1,8.9-6.2
		c1.9-1.9,4.8-5,8.4-9.4c2.4-2.9,5-5.5,7.9-7.4c3.6-2.6,7-3.8,10.6-3.8c0.7,0,1.9,0.2,3.4,0.7c1.2,0.5,2.4,0.7,3.4,0.7
		c1.9,0,3.4-0.7,4.6-2.2c0.7-1.4,1.7-2.6,2.6-4.1c0.5-1,1.2-1.4,1.7-1.4c0.2,0,0.2,0.2,0.2,0.7c0,0.5-0.2,1.7-0.7,3.1
		c-0.5,0.7,1.4,1,5,1c0.5,0,0.7,0,0.7-0.2c0,0-0.2-1-0.7-2.6c-0.2-0.5,0-1.2,0.7-2.2c1-1.7,1.4-2.4,1.7-2.2c1,0.7,1.4,2.2,1.4,3.8
		c0,1.7-0.5,3.4-1.2,5.3c-0.7,2.2-1.4,3.4-1.9,3.8c-1.7,1-4.3,0.7-7.9-1c-2.9,2.9-5.8,4.6-8.6,4.6c-0.7,0-1.9-0.2-3.1-0.7
		c-1.2-0.5-2.2-0.7-2.9-0.7c-4.8,0-9.8,2.2-14.9,7c-3.6,3.6-7.2,7.2-10.8,10.8C650.2,394.8,648,396,645.6,396.8L645.6,396.8
		L645.6,396.8L645.6,396.8z"/>
	<path fill="#635E49" d="M594,267.2c2.9,0,5.3,1.4,7.4,4.8c2.2,3.1,3.8,7.4,4.6,12.7c0.2,0.5,0.2,0.7,0.2,1h0.2c0-0.2,0.2-0.5,0.2-1
		c0.5-3.1,1.7-7.9,3.4-14.2c1.9-4.3,3.8-6.5,6-6.5c1.2,0,2.4,0.7,3.4,2.2c1,1.4,1.4,2.4,1.4,3.4c0,0.5,0,1.4-0.5,2.4
		c-0.5,1.4-1,2.2-1.4,2.2c-0.2,0-0.7-0.7-1.7-1.7c-0.7-1-1.7-1.4-2.6-1.4c-1.9,0-3.6,4.6-5.3,13.7c-0.7,4.1-1.7,7-2.4,8.6
		c-0.7,1-1.2,1.7-1.7,1.7s-0.5-0.7-0.7-1.7c0.2-1.7-0.7-4.8-2.6-9.4c-1.9-4.8-3.1-7-4.1-7c-0.5,0-0.7,0-1,0.5
		c-0.2,0.2-0.5,0.5-1.2,0.5c-1,0-1.9-0.7-3.4-1.9c-1.4-1.2-1.9-2.2-1.9-2.9c0-0.2,0.5-1.4,1.7-3.4
		C593.1,267.9,593.8,267.2,594,267.2L594,267.2L594,267.2L594,267.2z"/>
	<path fill="#635E49" d="M553.5,264.3c24.2-9.1,49.4-18.2,75.4-27.8c0.7-0.2,1.2-0.5,1.2-0.2c0.2,0,0.2,0.5,0,1.2
		c-1,2.2-1.7,3.4-2.2,3.8c-0.2,0.2-12.5,4.8-36.2,13.7c-24.2,8.9-37.9,14.4-40.6,16.1C551.6,268.8,552.3,266.7,553.5,264.3
		L553.5,264.3L553.5,264.3L553.5,264.3z"/>
	<path fill="#635E49" d="M530,220.4c0.5-1.4,0.5-2.9,0.2-4.3c-0.2-1.4-1-2.2-2.2-2.2c-0.5,0-1.2,0.2-2.2,0.7c-1,0.5-1.4,1-1.4,1.4
		C524.4,217.2,526.4,218.7,530,220.4L530,220.4L530,220.4L530,220.4z M527.1,226.6c-4.6-2.4-6.7-4.8-6.7-7.4c0-3.1,1.4-6,4.3-8.4
		c2.9-2.6,5.3-3.6,7.2-2.9c1.7,0.5,2.4,2.2,2.4,5c0,2.6-0.5,5.5-1.7,8.9c2.4,1.2,3.8,2.4,4.3,3.4c0,1.2-1,3.4-3.1,6.2
		c-0.5-1-1.9-2.2-4.1-3.4c-2.6,3.6-5.8,6.7-9.6,9.6c-4.6,3.1-8.6,5.8-12.2,7.2c-1,0.5-5.3,2.2-13,5c-1.2,0.5-2.2,0.7-2.4,0.7
		c-0.2,0-0.2-0.2-0.2-0.2c0-0.2,0.5-1,1.9-1.7c5.8-3.6,11.5-7,17.5-10.3C518.7,234,523.7,230.2,527.1,226.6L527.1,226.6L527.1,226.6
		L527.1,226.6z"/>
	<path fill="#635E49" d="M678.8,256.6c0.5-1.4,0.5-2.9,0.2-4.3c-0.2-1.4-1-2.2-2.2-2.2c-0.5,0-1.2,0.2-2.2,0.7c-1,0.5-1.4,1-1.4,1.4
		C673.2,253.5,675.2,254.9,678.8,256.6L678.8,256.6L678.8,256.6L678.8,256.6z M684,265.5c-2.4,5.8-3.6,10.3-3.6,13.7
		c0,4.1,1,6.2,3.1,6.2c1.2,0,2.6-1.7,4.3-4.6c0.2-0.2,0.2-0.5,0.5-0.7c0,0,0.2,0,0.2,0.2c0,0,0,0.2,0,0.7
		c-1.4,7.2-3.6,10.8-6.5,10.8c-3.1,0-4.6-2.6-4.6-7.9c0-2.6,0.5-6,1.9-10.3c1.4-4.3,2.2-6.5,2.2-6.7c0-0.5-1-1.4-3.1-2.6
		c-3.8,5-9.1,9.8-15.8,13.9c-4.6,2.6-9.1,5-13.9,7c-8.9,3.6-14.2,5.5-15.4,6.2c-1.2,0.5-1.9,0.7-2.4,0.7c-0.2,0-0.2-0.2-0.2-0.2
		c0-0.5,0.5-1,1.9-1.9c7.7-4.3,15.1-8.6,22.8-13c10.1-5.8,17-10.6,20.4-14.2c-4.6-2.4-6.7-4.8-6.7-7.4c0-3.1,1.4-6,4.3-8.6
		c2.9-2.4,5.3-3.4,7.2-2.6c1.4,0.5,2.4,2.2,2.4,5c0,2.6-0.5,5.5-1.7,8.6c2.4,1.4,3.4,2.9,3.4,4.3C684.8,262.8,684.5,264,684,265.5
		L684,265.5L684,265.5L684,265.5z"/>
	<path fill="#635E49" d="M574.8,230.4c0-0.2,0.2-0.5,0.2-0.5c0.2-0.2,0.2-0.2,0.2,0c0.2,0.2,0.2,0.5,0,0.7
		c-1.2,7.2-3.4,10.8-6.5,10.8c-3.1,0-4.6-2.6-4.6-7.9c0-6.5,1.7-13.4,5.5-20.4c1-1.7,1.4-2.6,1.7-2.6l0,0c0,0.2-0.2,1.2-0.7,2.9
		c-2.4,7.4-3.6,12.5-3.6,15.6c0,3.8,1,6,3.1,6C571.7,235,573.2,233.3,574.8,230.4L574.8,230.4L574.8,230.4L574.8,230.4z"/>
</g>
</svg>
