<?xml version="1.0" encoding="utf-8"?>
<!-- Generator: Adobe Illustrator 18.1.1, SVG Export Plug-In . SVG Version: 6.00 Build 0)  -->
<!DOCTYPE svg PUBLIC "-//W3C//DTD SVG 1.1//EN" "http://www.w3.org/Graphics/SVG/1.1/DTD/svg11.dtd">
<svg version="1.1" id="Layer_1" xmlns="http://www.w3.org/2000/svg" xmlns:xlink="http://www.w3.org/1999/xlink" x="0px" y="0px"
	 viewBox="0 0 792 612" enable-background="new 0 0 792 612" xml:space="preserve">
<g>
	<path fill="#635E49" d="M456.2,233.8c0-4.8-0.7-8.6-2.2-11.8c0-1.7,1.2-5.8,4.1-12c0.2-0.7,0.5-1.2,0.7-1.2c0.5,0,0.7,0.5,1.2,1.2
		c0.7,1.7,2.4,6.2,5.3,13.7c3.1,7.9,4.8,12.7,5.3,14.6c0.5,1.2,0.5,2.4,0.5,2.9c0,2.2-1.9,1-6.2-3.8c-0.5-0.7-0.7-0.2-0.7,1
		c0,0.5,1.2,15.4,3.4,45.1c2.2,29.5,3.1,46.1,3.1,49.9c0,11.3-1.7,21.4-5,30c-1,1.7-1.4,2.9-1.9,3.8l0,0c-0.7,1.2-1,1.2-1.2,0.5
		c-0.2-1,0-2.9,0.2-5.5c0.5-4.1,0.7-8.6,0.7-13.7c0-4.8-1.2-24-3.6-57.8C457.4,256.9,456.2,237.9,456.2,233.8L456.2,233.8
		L456.2,233.8L456.2,233.8z"/>
	<path fill="#635E49" d="M430.3,228.8c0-4.6-0.7-8.4-2.2-11.5c0-1.7,1.2-5.8,4.1-12.2c0.2-0.7,0.5-1,0.7-1c0.5,0,0.7,0.2,1.2,1.2
		c0.7,1.7,2.6,6.2,5.5,13.7c2.9,7.9,4.6,12.7,5.3,14.4c0.2,1.4,0.5,2.6,0.5,3.1c0,2.2-2.2,1-6.2-3.8c-0.5-0.5-0.7-0.2-0.7,1
		c0,0.2,1,13.2,2.9,38.6c1.9,25.2,2.9,40.3,2.9,45.4c0,7.9-1.4,15.6-4.3,23c-4.1,10.3-10.1,17.3-17.8,20.6v-13.2
		c9.6-4.1,14.6-10.3,14.6-18.7c0-4.1-1.2-20.6-3.4-49.4C431.2,251.1,430.3,234.1,430.3,228.8L430.3,228.8L430.3,228.8L430.3,228.8z"
		/>
	<path fill="#635E49" d="M404.8,338.5c1.2-0.7,1.7-1.4,1-2.6c-4.8-10.1-10.8-15.1-18-15.1c-14.9,0-32.9,11.8-53.8,35.3
		C359.7,356,383.2,350.2,404.8,338.5L404.8,338.5L404.8,338.5L404.8,338.5z M328.8,355.5c4.3-4.8,7.9-9.4,11-13.4
		c1-1.2,1.4-3.4,1.7-6c0,0,0-5.3,0-16.1c0-1.7-1-15.6-3.1-41.5c-1.9-25.7-2.9-39.8-2.9-42.5c0.2-4.3-0.5-8.2-2.2-11.5
		c0-1.7,1.4-5.8,4.1-12.2c0.5-0.7,0.7-1.2,1-1.2c0.2,0,0.7,0.5,1,1.2c1,1.7,2.6,6.2,5.5,13.7c2.9,7.9,4.8,12.7,5.3,14.6
		c0.2,1.4,0.5,2.4,0.5,3.1c0,2.2-2.2,0.7-6.2-4.1c-0.5-0.5-0.7,0-0.7,1c0,0.2,1,10.6,2.6,30.5c1.7,20.4,2.6,31.9,2.6,34.6
		c0,5.5-1,15.6-3.1,30.2c19.4-19.4,35.5-29,48-29c5.8,0,11,3.1,15.4,9.4c3.8,5,5.5,9.4,5.5,12.7c0,3.6-1.7,7.7-5,12.2
		c-3.6,5.3-8.6,9.6-14.9,13.4c12-1.7,21.1-4.1,27.4-6.7V361c-3.6,1.4-10.1,3.1-19.7,4.8c-16.1,2.9-33.6,4.1-53,4.1
		c-16.1,0-27.8-1.4-35.3-4.3V351C320.4,353.8,325.4,355.5,328.8,355.5L328.8,355.5L328.8,355.5L328.8,355.5z"/>
	<path fill="#635E49" d="M201.8,256.9c-2.4-3.4-5.5-7.7-9.4-13.4c-1.2-1.9-2.6-3.1-4.1-4.1c-0.7-0.2-1-1.2-1-2.2v-9.8
		c0-1.9,0.2-2.9,1-2.9c0.5,0,1.2,0.5,2.4,1.4l18.7,14.2c1.4,1.2,2.2,1.9,2.2,2.4c0,0.5-0.5,0.7-1.7,0.7c-1.4,0-4.1-0.2-7.7-1.2
		c3.1,4.1,10.3,12.2,22.1,24c8.6,8.4,17,17,25.7,25.4c17.3,17.5,25.9,32.6,25.9,45.1c0,1.2,0,2.2-0.2,3.4c-1,9.1-1.7,13.7-2.2,13.7
		c-0.5,0-1.2-3.8-2.2-11.3c-1.9-12-10.8-25.7-26.9-40.8C225.1,282.8,210.7,267.9,201.8,256.9L201.8,256.9L201.8,256.9L201.8,256.9z
		 M295.9,330.6c2.4,8.9,8.6,15.6,18.2,20.4v14.6c-5.8-2.4-10.1-4.8-13.2-7c-4.3-3.4-7.7-7.4-10.1-12.7c-0.5-1.2-1.7-5-3.6-11.5
		c-2.6,15.6-5.5,25.7-8.6,30c-5.8,8.2-12.5,13.9-19.9,17.5c-3.1,1.2-8.2,2.9-15.1,4.8c-7.2,1.9-12.5,2.9-15.8,3.1
		c-1.4,0.2-2.2,0-2.2-0.2c0-0.5,0.7-1,2.2-1.9c6.5-3.8,17.3-10.1,31.7-19c16.1-10.6,24.2-25.7,24.2-45.8c0-3.8-1.4-15.1-4.1-33.6
		c-2.2-16.3-4.1-29.3-5.8-39.1c-1.4-8.2-2.9-17.3-4.6-27.6c0-3.6,1-7.7,2.4-13c0.5-1,1-1.7,1.2-1.7c0.2,0,0.7,0.7,1,1.9
		c3.1,11,6,24.2,8.4,39.6c0.5,2.4,2.9,17.5,7,45.1C291.6,310.4,293.7,322.2,295.9,330.6L295.9,330.6L295.9,330.6L295.9,330.6z"/>
	<path fill="#635E49" d="M195.6,313.3c-3.4-5.3-7.4-7.9-11.8-7.9c-3.1,0-4.8,1-4.8,3.1c0,2.2,1.9,3.6,6,4.1
		C187.2,312.6,190.8,312.8,195.6,313.3L195.6,313.3L195.6,313.3L195.6,313.3z M91.6,336.8c1-5.8,2.2-10.3,3.6-14.4
		c0.5-1.4,1.2-1.9,1.7-1.9c0.5,0,0.5,0.7,0.2,2.4c-2.4,12.2-3.4,19-3.4,20.6c0,7.4,2.4,14.2,7.4,20.4c6.7,8.4,16.6,12.5,29.3,12.5
		c10.6,0,22.1-3.1,34.8-9.1c9.6-4.8,19.2-10.8,28.3-18c7.7-6,12-10.3,13.2-12.5c0-3.1-1.7-5.5-5-7.7c-3.1-1.7-6.5-2.4-10.6-2.4h-9.6
		c-3.6,0-6.5-1.2-8.6-3.6c-2.2-2.4-3.1-5.3-3.1-8.9c0-5,1.7-10.1,5.3-15.4c3.4-5,7-7.4,10.6-7.4c6,0,11.8,3.4,17,10.1
		c5.5,7.4,8.4,16.1,8.4,26.4c0,10.1-2.6,17.8-7.7,23.8c-6.7,7.9-16.1,15.8-27.8,23.3c-16.6,10.8-31.4,16.1-44.9,16.1
		c-14.6,0-25.4-5-32.2-14.9c-5.3-7.4-7.7-17-7.7-28.8C90.9,343.8,91.2,340.2,91.6,336.8L91.6,336.8L91.6,336.8L91.6,336.8z"/>
	<path fill="#635E49" d="M178.8,270.6l3.8-7.9c0.2-0.5,0.5-0.7,1-0.7c0.5,0,2.4,1.2,6.2,3.8c3.6,2.4,5.5,3.8,5.5,4.3
		c0,1.7-1.7,5.3-4.8,10.6c-0.5,0.7-1,0.7-1.4,0.5c-3.1-2.4-6.7-4.8-10.8-7.4c-1.4,2.9-2.6,5.5-4.1,7.7c-0.2,0.7-0.7,1-1.2,0.7
		c-3.6-2.9-7.4-5.5-11.3-7.9c-0.2-0.2-0.2-0.5,0-1l4.6-9.6c0.2-0.5,0.7-1,1-1c0.5,0,2.2,1.2,5.3,3.4
		C175.6,267.9,177.8,269.6,178.8,270.6L178.8,270.6L178.8,270.6L178.8,270.6z"/>
	<path fill="#635E49" d="M400.3,285.2c0,1.9-0.5,4.1-1.4,6c-1.2,2.6-2.6,4.1-4.3,4.1c-2.9,0-4.8-1.9-6-5.8c-1.4,4.8-3.8,7.4-7.4,7.4
		c-1.2,0-2.4-0.7-3.4-2.2c-1.2-1.4-1.7-3.6-1.7-6v-6.2c0-0.5-0.5-0.7-1-1c-0.7-0.2-1-0.7-1-1.4c0-1.4,0.5-2.6,1.4-3.8
		c1-1.2,1.7-1.7,2.2-1.7c0.7,0,1.2,1.2,1.2,3.8c0,1.4-0.2,2.6-0.2,3.6c-0.2,1-0.2,1.7-0.2,2.4c0,1.4,0.2,2.9,0.7,4.1
		c0.7,1.4,1.7,2.4,2.6,2.4c1.4,0,2.6-0.7,3.8-1.9c1.2-1.2,1.9-2.6,1.9-4.3c0-1-0.5-2.4-1-4.8c-0.7-2.2-1-3.6-1-4.1
		c0-0.5,0.2-1.2,0.7-2.4c0.5-1,1-1.4,1.2-1.4c0.5,0,1,1.4,1.7,4.3c0.7,3.1,1.2,5.3,1.2,6.7c0,4.1,1.4,6.2,4.6,6.2
		c1.4,0,2.4-0.7,2.6-2.2c-2.6-4.8-4.1-8.4-4.1-11c0-1.4,0.2-2.6,1.2-3.8c0.5-0.7,0.7-1.2,1-1.2c0.2,0,0.5,0.5,0.5,1.4
		c0.2,1.2,0.5,2.4,0.7,3.4c0,0,0.7,1.7,1.9,5C399.8,282.8,400.3,284.2,400.3,285.2L400.3,285.2L400.3,285.2L400.3,285.2z"/>
	<path fill="#635E49" d="M358,264.6c18.5-6.7,37.7-13.9,57.8-21.4c0.7-0.2,1.2-0.5,1.4-0.2c0,0,0,0.5-0.2,1.2
		c-1,2.2-1.7,3.4-2.2,3.8c-16.8,6.2-36.7,13.9-59.3,23.3C356.1,269.1,356.8,267,358,264.6L358,264.6L358,264.6L358,264.6z"/>
	<path fill="#635E49" d="M405.1,224c0,1-0.5,2.2-1.4,4.1c-1,2.2-1.9,3.6-2.9,4.1c-7.2,5-14.9,7.7-23.5,7.7c-1.4,0-3.6-0.7-6.5-1.7
		c-2.6-1-4.3-1.9-5.3-2.6c-0.2-0.2-0.5-0.5-1-1c-0.5-0.5-0.5-0.5-0.2-0.7c0,0,0.7,0,1.9,0.2c4.3,0.5,9.1,0.2,13.9-0.7
		c1.7-1,3.4-2.6,5-4.8c2.4-7.4,3.8-11.5,3.8-11.8c0-1.4-0.5-2.6-1.2-3.8c-0.5-1-1.2-1.4-1.9-1.4c-1.7,0-2.9,0.5-4.3,1.9
		c-0.7,0.7-1,1-1.2,1c0,0,0-0.5,0-1.7c0-2.2,0.7-3.8,2.2-5.5c1.7-1.4,3.1-2.2,4.6-2.2c3.4,0,5.3,2.4,5.3,7.4c0,3.4-1.7,8.2-4.8,13.9
		c4.8-4.3,8.9-6.5,11.8-6.5c1,0,1.9,0.2,3.4,1C404.4,221.8,405.1,223,405.1,224L405.1,224L405.1,224L405.1,224z M399.6,227.4
		c0-0.5-0.2-0.7-1-1.2c-0.7-0.5-1.4-0.5-2.2-0.5c-1.2,0-2.9,0.7-5.5,2.4c-2.6,1.9-4.6,3.4-5.5,4.8c2.4-0.2,5.5-1.2,9.1-2.9
		C397.9,228.6,399.6,227.6,399.6,227.4L399.6,227.4L399.6,227.4L399.6,227.4z"/>
	<path fill="#635E49" d="M217.6,220.9c13.7-4.8,28.1-10.1,43.2-15.6c1-0.2,1.2-0.5,1.4-0.2c0.2,0,0.2,0.5-0.2,1.2
		c-0.7,2.2-1.4,3.4-1.9,3.8c-13,4.6-27.8,10.3-44.9,17.5C215.7,225.4,216.4,223.3,217.6,220.9L217.6,220.9L217.6,220.9L217.6,220.9z
		"/>
	<path fill="#635E49" d="M257,254.7c0-0.2,0.2-0.5,0.2-0.5c0.2-0.2,0.2-0.2,0.2,0c0.2,0.2,0.2,0.5,0,0.7c-1.2,7.2-3.4,10.8-6.5,10.8
		c-3.1,0-4.6-2.6-4.6-7.9c0-6.5,1.7-13.4,5.5-20.4c1-1.7,1.4-2.6,1.7-2.6l0,0c0,0.2-0.2,1.2-0.7,2.9c-2.4,7.4-3.6,12.5-3.6,15.6
		c0,3.8,1,6,3.1,6C253.9,259.3,255.3,257.6,257,254.7L257,254.7L257,254.7L257,254.7z"/>
	<path fill="#635E49" d="M237.6,329.8c0-0.2,0.2-0.5,0.2-0.5c0.2-0.2,0.2-0.2,0.2,0c0.2,0.2,0.2,0.5,0,0.7
		c-1.2,7.2-3.4,10.8-6.5,10.8c-3.1,0-4.6-2.6-4.6-7.9c0-6.5,1.7-13.4,5.5-20.4c1-1.7,1.4-2.6,1.7-2.6l0,0c0,0.2-0.2,1.2-0.7,2.9
		c-2.4,7.4-3.6,12.5-3.6,15.6c0,3.8,1,6,3.1,6C234.4,334.4,235.9,332.7,237.6,329.8L237.6,329.8L237.6,329.8L237.6,329.8z"/>
	<path fill="#635E49" d="M312.9,228.6c0-0.2,0.2-0.5,0.2-0.5c0.2-0.2,0.2-0.2,0.2,0c0.2,0.2,0.2,0.5,0,0.7
		c-1.2,7.2-3.4,10.8-6.5,10.8c-3.1,0-4.6-2.6-4.6-7.9c0-6.5,1.7-13.4,5.5-20.4c1-1.7,1.4-2.6,1.7-2.6l0,0c0,0.2-0.2,1.2-0.7,2.9
		c-2.4,7.4-3.6,12.5-3.6,15.6c0,3.8,1,6,3.1,6C309.8,233.1,311.2,231.4,312.9,228.6L312.9,228.6L312.9,228.6L312.9,228.6z"/>
	<path fill="#635E49" d="M315.8,262.9c0,2.6-1.2,5.5-3.1,8.6c-2.2,3.1-4.8,6-8.2,8.4c-1.4,1-2.2,1.4-2.4,1.4v-0.2
		c0-0.2,0.5-0.7,1.4-1.9c5.5-6,8.4-9.8,8.4-12c0-1.7-1-2.6-2.6-2.6c-1,0-1.9,0.2-2.6,0.7c-0.7,0.2-1,0.5-1.2,0.5c0,0-0.2,0-0.2-0.2
		c0,0,0-0.5,0.2-1.4c1-4.1,2.9-6,6.2-6C314.4,258.1,315.8,259.8,315.8,262.9L315.8,262.9L315.8,262.9L315.8,262.9z"/>
	<path fill="#635E49" d="M321.1,309.4c0-0.2,0.2-0.5,0.2-0.5c0.2-0.2,0.2-0.2,0.2,0c0.2,0.2,0.2,0.5,0,0.7
		c-1.2,7.2-3.4,10.8-6.5,10.8c-3.1,0-4.6-2.6-4.6-7.9c0-6.5,1.7-13.4,5.5-20.4c1-1.7,1.4-2.6,1.7-2.6l0,0c0,0.2-0.2,1.2-0.7,2.9
		c-2.4,7.4-3.6,12.5-3.6,15.6c0,3.8,1,6,3.1,6C318,314,319.4,312.3,321.1,309.4L321.1,309.4L321.1,309.4L321.1,309.4z"/>
	<path fill="#635E49" d="M365.7,398.2c0-0.2,0.2-0.5,0.2-0.5c0.2-0.2,0.2-0.2,0.2,0c0.2,0.2,0.2,0.5,0,0.7
		c-1.2,7.2-3.4,10.8-6.5,10.8c-3.1,0-4.6-2.6-4.6-7.9c0-6.5,1.7-13.4,5.5-20.4c1-1.7,1.4-2.6,1.7-2.6l0,0c0,0.2-0.2,1.2-0.7,2.9
		c-2.4,7.4-3.6,12.5-3.6,15.6c0,3.8,1,6,3.1,6C362.6,402.8,364,401.1,365.7,398.2L365.7,398.2L365.7,398.2L365.7,398.2z"/>
	<path fill="#635E49" d="M407.2,380c2.9,0,5.3,1.4,7.4,4.8c2.2,3.1,3.8,7.4,4.6,12.7c0.2,0.5,0.2,0.7,0.2,1h0.2c0-0.2,0.2-0.5,0.2-1
		c0.5-3.1,1.7-7.9,3.4-14.2c1.9-4.3,3.8-6.5,6-6.5c1.2,0,2.4,0.7,3.4,2.2c1,1.4,1.4,2.4,1.4,3.4c0,0.5,0,1.4-0.5,2.4
		c-0.5,1.4-1,2.2-1.4,2.2c-0.2,0-0.7-0.7-1.7-1.7c-0.7-1-1.7-1.4-2.6-1.4c-1.9,0-3.6,4.6-5.3,13.7c-0.7,4.1-1.7,7-2.4,8.6
		c-0.7,1-1.2,1.7-1.7,1.7c-0.5,0-0.5-0.7-0.7-1.7c0.2-1.7-0.7-4.8-2.6-9.4c-1.9-4.8-3.1-7-4.1-7c-0.5,0-0.7,0-1,0.5
		c-0.2,0.2-0.5,0.5-1.2,0.5c-1,0-1.9-0.7-3.4-1.9c-1.4-1.2-1.9-2.2-1.9-2.9c0-0.2,0.5-1.4,1.7-3.4C406.3,380.7,407,380,407.2,380
		L407.2,380L407.2,380L407.2,380z"/>
	<path fill="#635E49" d="M290.8,380c2.9,0,5.3,1.4,7.4,4.8c2.2,3.1,3.8,7.4,4.6,12.7c0.2,0.5,0.2,0.7,0.2,1h0.2c0-0.2,0.2-0.5,0.2-1
		c0.5-3.1,1.7-7.9,3.4-14.2c1.9-4.3,3.8-6.5,6-6.5c1.2,0,2.4,0.7,3.4,2.2c1,1.4,1.4,2.4,1.4,3.4c0,0.5,0,1.4-0.5,2.4
		c-0.5,1.4-1,2.2-1.4,2.2c-0.2,0-0.7-0.7-1.7-1.7c-0.7-1-1.7-1.4-2.6-1.4c-1.9,0-3.6,4.6-5.3,13.7c-0.7,4.1-1.7,7-2.4,8.6
		c-0.7,1-1.2,1.7-1.7,1.7c-0.5,0-0.5-0.7-0.7-1.7c0.2-1.7-0.7-4.8-2.6-9.4c-1.9-4.8-3.1-7-4.1-7c-0.5,0-0.7,0-1,0.5
		c-0.2,0.2-0.5,0.5-1.2,0.5c-1,0-1.9-0.7-3.4-1.9c-1.4-1.2-1.9-2.2-1.9-2.9c0-0.2,0.5-1.4,1.7-3.4C289.9,380.7,290.6,380,290.8,380
		L290.8,380L290.8,380L290.8,380z"/>
	<path fill="#635E49" d="M104.1,310.2c0-0.2,0.2-0.5,0.2-0.5c0.2-0.2,0.2-0.2,0.2,0c0.2,0.2,0.2,0.5,0,0.7
		c-1.2,7.2-3.4,10.8-6.5,10.8c-3.1,0-4.6-2.6-4.6-7.9c0-6.5,1.7-13.4,5.5-20.4c1-1.7,1.4-2.6,1.7-2.6l0,0c0,0.2-0.2,1.2-0.7,2.9
		c-2.4,7.4-3.6,12.5-3.6,15.6c0,3.8,1,6,3.1,6C101,314.7,102.4,313,104.1,310.2L104.1,310.2L104.1,310.2L104.1,310.2z"/>
	<path fill="#635E49" d="M127.4,323.1c2.9,0,5.3,1.4,7.4,4.8c2.2,3.1,3.8,7.4,4.6,12.7c0.2,0.5,0.2,0.7,0.2,1h0.2
		c0-0.2,0.2-0.5,0.2-1c0.5-3.1,1.7-7.9,3.4-14.2c1.9-4.3,3.8-6.5,6-6.5c1.2,0,2.4,0.7,3.4,2.2c1,1.4,1.4,2.4,1.4,3.4
		c0,0.5,0,1.4-0.5,2.4c-0.5,1.4-1,2.2-1.4,2.2c-0.2,0-0.7-0.7-1.7-1.7c-0.7-1-1.7-1.4-2.6-1.4c-1.9,0-3.6,4.6-5.3,13.7
		c-0.7,4.1-1.7,7-2.4,8.6c-0.7,1-1.2,1.7-1.7,1.7c-0.5,0-0.5-0.7-0.7-1.7c0.2-1.7-0.7-4.8-2.6-9.4c-1.9-4.8-3.1-7-4.1-7
		c-0.5,0-0.7,0-1,0.5c-0.2,0.2-0.5,0.5-1.2,0.5c-1,0-1.9-0.7-3.4-1.9c-1.4-1.2-1.9-2.2-1.9-2.9c0-0.2,0.5-1.4,1.7-3.4
		C126.4,323.8,127.2,323.1,127.4,323.1L127.4,323.1L127.4,323.1L127.4,323.1z"/>
	<path fill="#635E49" d="M172.3,392.5c13.7-4.8,28.1-10.1,43.2-15.6c1-0.2,1.2-0.5,1.4-0.2c0.2,0,0.2,0.5-0.2,1.2
		c-0.7,2.2-1.4,3.4-1.9,3.8c-13,4.6-27.8,10.3-44.9,17.5C170.4,397,171.1,394.9,172.3,392.5L172.3,392.5L172.3,392.5L172.3,392.5z"
		/>
	<path fill="#635E49" d="M164.1,239.6c0-0.2,0.2-0.5,0.2-0.5c0.2-0.2,0.2-0.2,0.2,0c0.2,0.2,0.2,0.5,0,0.7
		c-1.2,7.2-3.4,10.8-6.5,10.8c-3.1,0-4.6-2.6-4.6-7.9c0-6.5,1.7-13.4,5.5-20.4c1-1.7,1.4-2.6,1.7-2.6l0,0c0,0.2-0.2,1.2-0.7,2.9
		c-2.4,7.4-3.6,12.5-3.6,15.6c0,3.8,1,6,3.1,6C161,244.2,162.4,242.5,164.1,239.6L164.1,239.6L164.1,239.6L164.1,239.6z"/>
	<path fill="#635E49" d="M119,263.4c2.9,0,5.3,1.4,7.4,4.8c2.2,3.1,3.8,7.4,4.6,12.7c0.2,0.5,0.2,0.7,0.2,1h0.2c0-0.2,0.2-0.5,0.2-1
		c0.5-3.1,1.7-7.9,3.4-14.2c1.9-4.3,3.8-6.5,6-6.5c1.2,0,2.4,0.7,3.4,2.2c1,1.4,1.4,2.4,1.4,3.4c0,0.5,0,1.4-0.5,2.4
		c-0.5,1.4-1,2.2-1.4,2.2c-0.2,0-0.7-0.7-1.7-1.7c-0.7-1-1.7-1.4-2.6-1.4c-1.9,0-3.6,4.6-5.3,13.7c-0.7,4.1-1.7,7-2.4,8.6
		c-0.7,1-1.2,1.7-1.7,1.7c-0.5,0-0.5-0.7-0.7-1.7c0.2-1.7-0.7-4.8-2.6-9.4c-1.9-4.8-3.1-7-4.1-7c-0.5,0-0.7,0-1,0.5
		c-0.2,0.2-0.5,0.5-1.2,0.5c-1,0-1.9-0.7-3.4-1.9s-1.9-2.2-1.9-2.9c0-0.2,0.5-1.4,1.7-3.4C118,264.1,118.8,263.4,119,263.4
		L119,263.4L119,263.4L119,263.4z"/>
	<path fill="#635E49" d="M641.5,319.3c1.2-1,2.2-1.4,2.9-1.4c0.5,0,0.7,0.5,0.7,1.4c0,0.7-0.2,2.2-0.7,4.1c-0.5,1.9-0.7,3.4-0.7,4.6
		c0,5.3,3.8,8.2,11.3,8.2c6,0,11-2.6,14.9-7.7c2.4-4.1,5-7.9,7.4-11.8c1-1,1.7-1.4,2.4-1.4c1,0,1.2,1,0.7,3.1c-1,4.1-1.7,6-1.7,5.5
		c0,1.7,1,3.4,2.9,4.8c1.7,1.4,4.1,2.4,6.7,2.4c3.4,0,5.5-1,6.5-2.6c0-0.2-1-2.2-3.1-5.8c0.2-1.9,1.2-5.3,2.6-9.8
		c0.2-1.4,0.7-2.2,1.2-2.2c0.5,0,1,0.2,1.7,1.2c1.9,2.9,3.1,6.2,3.1,10.1c0,6-1.4,11-4.1,15.4c-2.9,5.3-7.2,7.9-13,7.9
		c-3.8,0-7.4-3.1-10.6-8.9c-5.3,9.6-12.2,14.4-20.6,14.4c-10.1,0-14.9-5.8-14.9-16.8c-3.8,4.6-10.3,8.6-18.7,12.5v-13.2
		c6.2-3.1,10.3-5,11.5-5.8C633.8,325.5,637.6,322.6,641.5,319.3L641.5,319.3L641.5,319.3L641.5,319.3z"/>
	<path fill="#635E49" d="M604.8,335.1c-3.6-4.6-6.7-6.7-9.6-6.7c-4.3,0-6.2,1-6.2,3.4c0,2.9,2.9,4.3,8.6,4.3
		C599.7,336.1,602.1,335.6,604.8,335.1L604.8,335.1L604.8,335.1L604.8,335.1z M612.2,352.6c0-1.4-0.5-3.1-1-4.8
		c-2.9,1-7.2,1.7-12.5,1.7c-11.5,0-17.3-4.1-17.3-12c0-6,1.7-11.3,5.5-16.1c3.6-4.1,7.4-6.2,11.5-6.2c3.1,0,6.2,1.9,9.8,5.5
		c3.1,3.6,6,7.7,8.4,12.7c0.2,0,0.7,0,1.7-0.5v13.2l-0.5,0.5c0,2.9-0.7,6.2-2.2,10.6c-1.7,5.5-4.3,10.1-7.4,13.7
		c-7.2,8.6-15.1,16.1-23.8,22.6c-13,9.6-24,14.6-33.6,14.6c-8.2,0-14.4-3.1-18.7-9.1c-3.8-5-5.8-11.8-5.8-19.7
		c0-10.1,2.2-20.4,6.2-31.2c1.2-2.4,1.7-3.4,2.2-3.4c0.2,0,0.2,0.2,0.2,0.7c0,0.7-0.2,1.9-0.5,3.4c-3.1,10.6-4.6,18.5-4.6,24
		c0,5,1.2,9.4,3.6,13c3.8,5,9.8,7.7,18.2,7.7c7.2,0,15.8-3.1,26.2-9.4c8.2-5,16.1-11,23.8-18.2C608.6,359.1,612.2,354.8,612.2,352.6
		L612.2,352.6L612.2,352.6L612.2,352.6z"/>
	<path fill="#635E49" d="M546.7,316.4c-0.5-2.2-1.2-3.8-2.2-5c-0.7-1.4-1.2-2.2-1.4-2.6c0-0.5,0-2.2,0.5-5.5
		c0.5-3.1,0.7-5.3,1.2-6.5c0.2-1.2,0.5-1.7,1-1.7c0.2,0,0.5,0.2,1,0.7c3.4,3.8,7,7.7,11,11.8c1.7,1.7,2.4,2.6,2.4,3.1
		c0,0.2-0.2,0.5-0.7,0.5c-0.7,0-2.6-0.5-5.5-1.2c1.7,4.1,3.6,8.2,5.3,12c2.6,6.7,4.1,12.2,4.1,17.3c0,2.4-0.5,5.3-1.4,8.9
		c-1.2,4.1-2.6,7.2-4.6,9.4c-7,7.9-18.7,16.6-35.3,25.9c-14.4,8.4-22.8,12.5-25.4,12.5c-0.5,0-7.7,1.7-21.4,5
		c-14.4,3.4-23.5,5.5-27.1,6c-3.8,0.7-6.2,1-7.2,1c-0.5,0-0.5,0-0.5-0.2c0-0.2,2.6-1.7,7.9-4.1c1.9-1,13-5.8,33.4-14.4
		c14.2-6,25.9-11.5,35.3-16.6c14.2-7.7,25-14.4,32.4-19.9c5.5-4.3,8.4-7.4,8.4-9.4c0-0.5-1.4-3.8-4.3-10.1
		C550.3,326.2,547.9,320.5,546.7,316.4L546.7,316.4L546.7,316.4L546.7,316.4z"/>
	<path fill="#635E49" d="M527,283c0,3.8-1.9,9.1-5.8,15.6c-2.4,4.1-6,9.6-10.8,16.8c4.8,5.5,8.2,10.6,9.8,14.9
		c1,3.1,1.7,7.2,1.7,11.8c0,1.9-0.5,4.3-1.4,7.4c-0.7,2.9-1.7,5-2.6,6.5c-1.9,2.9-5,5.8-9.8,8.6c-5,3.4-9.4,5-13,5
		c-5.8,0-8.6-4.3-8.6-13c0-5.8,1-11.5,2.9-16.8c1.9-4.6,5-10.6,10.1-18.5c-4.3-4.1-8.9-9.8-13.9-17c-0.5-0.7-1.7-1.9-3.6-3.8
		c-1-1-1.4-2.2-1.4-3.6c0-2.2,0.2-4.6,0.7-7.4c0.7-2.9,1.2-4.1,1.4-4.1c0.7,0,2.9,1.2,7,3.8c3.8,2.6,7,4.6,8.9,6.2
		c1.2,0.7,1.7,1.4,1.7,1.4v0.2c0,0.2-0.7,0.5-2.4,0.5c-3.1,0-4.8,0.2-4.8,0.5c0,0.2,0.5,0.7,1.4,1.9c3.8,4.8,7.7,8.4,11.8,11.3
		c1-1.4,4.3-6.2,9.6-14.4c4.6-7,7.2-11.8,8.4-14.6c1.2-2.9,1.9-4.1,2.4-4.1C526.8,278.2,527,279.7,527,283L527,283L527,283L527,283z
		 M517.6,342.1c-2.6-5.3-7.2-10.8-13.4-16.1c-2.2,2.2-4.8,6.2-8.2,12c-3.8,6.5-5.5,10.6-5.5,12.7c0,2.9,1.9,4.3,6.2,4.3
		c1.9,0,4.3-0.7,7.4-1.9c4.3-1.9,8.4-4.6,11.8-7.9C517.4,343.8,517.9,342.8,517.6,342.1L517.6,342.1L517.6,342.1L517.6,342.1z"/>
	<path fill="#635E49" d="M504.4,265l3.8-7.9c0.2-0.5,0.5-0.7,1-0.7c0.5,0,2.4,1.2,6.2,3.8c3.6,2.4,5.5,3.8,5.5,4.3
		c0,1.7-1.7,5.3-4.8,10.6c-0.5,0.7-1,0.7-1.4,0.5c-3.1-2.4-6.7-4.8-10.8-7.4c-1.4,2.9-2.6,5.5-4.1,7.7c-0.2,0.7-0.7,1-1.2,0.7
		c-3.6-2.9-7.4-5.5-11.3-7.9c-0.2-0.2-0.2-0.5,0-1l4.6-9.6c0.2-0.5,0.7-1,1-1c0.5,0,2.2,1.2,5.3,3.4
		C501.3,262.4,503.5,264.1,504.4,265L504.4,265L504.4,265L504.4,265z"/>
	<path fill="#635E49" d="M630.7,398.7c-2.6,0.7-4.1,1.2-4.6,1.2v-0.2c0,0,1-0.7,2.9-1.9c1.9-1.2,4.8-3.1,8.9-6.2
		c1.9-1.9,4.8-5,8.4-9.4c2.4-2.9,5-5.5,7.9-7.4c3.6-2.6,7-3.8,10.6-3.8c0.7,0,1.9,0.2,3.4,0.7c1.2,0.5,2.4,0.7,3.4,0.7
		c1.9,0,3.4-0.7,4.6-2.2c0.7-1.4,1.7-2.6,2.6-4.1c0.5-1,1.2-1.4,1.7-1.4c0.2,0,0.2,0.2,0.2,0.7c0,0.5-0.2,1.7-0.7,3.1
		c-0.5,0.7,1.4,1,5,1c0.5,0,0.7,0,0.7-0.2c0,0-0.2-1-0.7-2.6c-0.2-0.5,0-1.2,0.7-2.2c1-1.7,1.4-2.4,1.7-2.2c1,0.7,1.4,2.2,1.4,3.8
		c0,1.7-0.5,3.4-1.2,5.3c-0.7,2.2-1.4,3.4-1.9,3.8c-1.7,1-4.3,0.7-7.9-1c-2.9,2.9-5.8,4.6-8.6,4.6c-0.7,0-1.9-0.2-3.1-0.7
		c-1.2-0.5-2.2-0.7-2.9-0.7c-4.8,0-9.8,2.2-14.9,7c-3.6,3.6-7.2,7.2-10.8,10.8C635.2,396.8,633.1,398,630.7,398.7L630.7,398.7
		L630.7,398.7L630.7,398.7z"/>
	<path fill="#635E49" d="M579.3,269.1c2.9,0,5.3,1.4,7.4,4.8c2.2,3.1,3.8,7.4,4.6,12.7c0.2,0.5,0.2,0.7,0.2,1h0.2
		c0-0.2,0.2-0.5,0.2-1c0.5-3.1,1.7-7.9,3.4-14.2c1.9-4.3,3.8-6.5,6-6.5c1.2,0,2.4,0.7,3.4,2.2c1,1.4,1.4,2.4,1.4,3.4
		c0,0.5,0,1.4-0.5,2.4c-0.5,1.4-1,2.2-1.4,2.2c-0.2,0-0.7-0.7-1.7-1.7c-0.7-1-1.7-1.4-2.6-1.4c-1.9,0-3.6,4.6-5.3,13.7
		c-0.7,4.1-1.7,7-2.4,8.6c-0.7,1-1.2,1.7-1.7,1.7c-0.5,0-0.5-0.7-0.7-1.7c0.2-1.7-0.7-4.8-2.6-9.4c-1.9-4.8-3.1-7-4.1-7
		c-0.5,0-0.7,0-1,0.5c-0.2,0.2-0.5,0.5-1.2,0.5c-1,0-1.9-0.7-3.4-1.9c-1.4-1.2-1.9-2.2-1.9-2.9c0-0.2,0.5-1.4,1.7-3.4
		C578.4,269.8,579.1,269.1,579.3,269.1L579.3,269.1L579.3,269.1L579.3,269.1z"/>
	<path fill="#635E49" d="M538.5,266.2c24.2-9.1,49.4-18.2,75.4-27.8c0.7-0.2,1.2-0.5,1.2-0.2c0.2,0,0.2,0.5,0,1.2
		c-1,2.2-1.7,3.4-2.2,3.8c-0.2,0.2-12.5,4.8-36.2,13.7c-24.2,8.9-37.9,14.4-40.6,16.1C536.6,270.8,537.3,268.6,538.5,266.2
		L538.5,266.2L538.5,266.2L538.5,266.2z"/>
	<path fill="#635E49" d="M515,222.3c0.5-1.4,0.5-2.9,0.2-4.3c-0.2-1.4-1-2.2-2.2-2.2c-0.5,0-1.2,0.2-2.2,0.7c-1,0.5-1.4,1-1.4,1.4
		C509.5,219.2,511.4,220.6,515,222.3L515,222.3L515,222.3L515,222.3z M512.1,228.6c-4.6-2.4-6.7-4.8-6.7-7.4c0-3.1,1.4-6,4.3-8.4
		c2.9-2.6,5.3-3.6,7.2-2.9c1.7,0.5,2.4,2.2,2.4,5c0,2.6-0.5,5.5-1.7,8.9c2.4,1.2,3.8,2.4,4.3,3.4c0,1.2-1,3.4-3.1,6.2
		c-0.5-1-1.9-2.2-4.1-3.4c-2.6,3.6-5.8,6.7-9.6,9.6c-4.6,3.1-8.6,5.8-12.2,7.2c-1,0.5-5.3,2.2-13,5c-1.2,0.5-2.2,0.7-2.4,0.7
		c-0.2,0-0.2-0.2-0.2-0.2c0-0.2,0.5-1,1.9-1.7c5.8-3.6,11.5-7,17.5-10.3C503.7,236,508.8,232.2,512.1,228.6L512.1,228.6L512.1,228.6
		L512.1,228.6z"/>
	<path fill="#635E49" d="M663.8,258.6c0.5-1.4,0.5-2.9,0.2-4.3c-0.2-1.4-1-2.2-2.2-2.2c-0.5,0-1.2,0.2-2.2,0.7c-1,0.5-1.4,1-1.4,1.4
		C658.3,255.4,660.2,256.9,663.8,258.6L663.8,258.6L663.8,258.6L663.8,258.6z M669.1,267.4c-2.4,5.8-3.6,10.3-3.6,13.7
		c0,4.1,1,6.2,3.1,6.2c1.2,0,2.6-1.7,4.3-4.6c0.2-0.2,0.2-0.5,0.5-0.7c0,0,0.2,0,0.2,0.2c0,0,0,0.2,0,0.7
		c-1.4,7.2-3.6,10.8-6.5,10.8c-3.1,0-4.6-2.6-4.6-7.9c0-2.6,0.5-6,1.9-10.3c1.4-4.3,2.2-6.5,2.2-6.7c0-0.5-1-1.4-3.1-2.6
		c-3.8,5-9.1,9.8-15.8,13.9c-4.6,2.6-9.1,5-13.9,7c-8.9,3.6-14.2,5.5-15.4,6.2c-1.2,0.5-1.9,0.7-2.4,0.7c-0.2,0-0.2-0.2-0.2-0.2
		c0-0.5,0.5-1,1.9-1.9c7.7-4.3,15.1-8.6,22.8-13c10.1-5.8,17-10.6,20.4-14.2c-4.6-2.4-6.7-4.8-6.7-7.4c0-3.1,1.4-6,4.3-8.6
		c2.9-2.4,5.3-3.4,7.2-2.6c1.4,0.5,2.4,2.2,2.4,5c0,2.6-0.5,5.5-1.7,8.6c2.4,1.4,3.4,2.9,3.4,4.3C669.8,264.8,669.6,266,669.1,267.4
		L669.1,267.4L669.1,267.4L669.1,267.4z"/>
	<path fill="#635E49" d="M559.9,232.4c0-0.2,0.2-0.5,0.2-0.5c0.2-0.2,0.2-0.2,0.2,0c0.2,0.2,0.2,0.5,0,0.7
		c-1.2,7.2-3.4,10.8-6.5,10.8c-3.1,0-4.6-2.6-4.6-7.9c0-6.5,1.7-13.4,5.5-20.4c1-1.7,1.4-2.6,1.7-2.6l0,0c0,0.2-0.2,1.2-0.7,2.9
		c-2.4,7.4-3.6,12.5-3.6,15.6c0,3.8,1,6,3.1,6C556.8,237,558.2,235.3,559.9,232.4L559.9,232.4L559.9,232.4L559.9,232.4z"/>
</g>
</svg>
