<?xml version="1.0" encoding="utf-8"?>
<!-- Generator: Adobe Illustrator 18.1.1, SVG Export Plug-In . SVG Version: 6.00 Build 0)  -->
<!DOCTYPE svg PUBLIC "-//W3C//DTD SVG 1.1//EN" "http://www.w3.org/Graphics/SVG/1.1/DTD/svg11.dtd">
<svg version="1.1" id="Layer_1" xmlns="http://www.w3.org/2000/svg" xmlns:xlink="http://www.w3.org/1999/xlink" x="0px" y="0px"
	 viewBox="0 0 792 612" enable-background="new 0 0 792 612" xml:space="preserve">
<g>
	<path fill="#635E49" d="M431.9,231.6c0-4.8-0.7-8.6-2.2-11.8c0-1.7,1.2-5.8,4.1-12c0.2-0.7,0.5-1.2,0.7-1.2c0.5,0,0.7,0.5,1.2,1.2
		c0.7,1.7,2.4,6.2,5.3,13.7c3.1,7.9,4.8,12.7,5.3,14.6c0.5,1.2,0.5,2.4,0.5,2.9c0,2.2-1.9,1-6.2-3.8c-0.5-0.7-0.7-0.2-0.7,1
		c0,0.5,1.2,15.4,3.4,45.1c2.2,29.5,3.1,46.1,3.1,49.9c0,11.3-1.7,21.4-5,30c-1,1.7-1.4,2.9-1.9,3.8l0,0c-0.7,1.2-1,1.2-1.2,0.5
		c-0.2-1,0-2.9,0.2-5.5c0.5-4.1,0.7-8.6,0.7-13.7c0-4.8-1.2-24-3.6-57.8C433.1,254.6,431.9,235.7,431.9,231.6L431.9,231.6
		L431.9,231.6L431.9,231.6z"/>
	<path fill="#635E49" d="M409.8,334.3c-1,8.9-1.7,13.2-2.2,13.2c-0.5,0-1.2-3.6-2.2-11c-1.9-12-10.8-25.4-26.6-40.8
		c-7-6.5-13.9-13-20.9-19.7c-7.4-7.2-13.2-13.2-17-18c-2.6-3.4-5.5-7.2-8.6-12c-1.7-3.1-3.4-6-5-8.6c-1.2-1.9-2.6-3.4-4.1-4.3
		c-0.7-0.2-1-1-1-2.2V221c0-1.9,0.2-2.9,1-2.9c0.5,0,1.4,0.5,2.6,1.4l18.5,14.2c1.4,1.2,2.2,1.9,2.2,2.6c0,0.5-0.5,0.5-1.7,0.5
		c-1.4,0-4.1-0.2-7.7-1.2c2.4,4.6,9.4,12.7,20.9,24.2c8.6,8.6,17.3,17.3,26.2,25.9c17.3,17.3,25.9,32.4,25.9,45.1
		C410.1,331.9,410.1,333.1,409.8,334.3L409.8,334.3L409.8,334.3L409.8,334.3z M407.4,231.1c0-1.9-0.5-4.3-1.4-7
		c-1-2.6-1.4-4.1-1.4-4.3c0-0.5,0.5-2.4,1.4-5.8c1-3.4,1.4-5.3,1.7-5.8c0.5-1,0.7-1.2,1-1.2s0.7,0.2,1.2,1c1,2.2,3.1,6.2,6.2,12.7
		c3.4,7.2,5.5,12,6.2,14.2c0.5,1.7,0.7,2.6,0.7,3.4c0,1.9-2.2,0.7-6.2-4.1c-0.5-0.5-0.7,0-0.7,1.2c0,3.8,1.2,16.8,3.8,38.6
		c2.6,22.1,4.1,37,4.1,44.6c0,16.1-3.8,29.5-11.5,39.8c-5.8,8.4-12.5,14.2-19.9,17.5c-2.9,1.4-7.9,2.9-14.9,4.8
		c-7.2,1.9-12.5,2.9-15.8,3.4c-1.2,0-1.9,0-1.9-0.5c0-0.2,0.5-1,1.9-1.9c6.5-3.6,17-9.8,31.7-19c4.8-2.9,9.4-7,14.2-12.2
		c6.2-6.7,9.6-12.5,9.6-17c0-9.6-1.7-28.3-5-55.7C408.9,250.3,407.4,234.7,407.4,231.1L407.4,231.1L407.4,231.1L407.4,231.1z"/>
	<path fill="#635E49" d="M349.4,352.1c0-1.4-1.2-4.3-3.6-8.9c-2.9-5.8-5-10.3-6.2-13.9c-2.4-7.7-4.1-14.6-5-21.1
		c-0.2-2.6-0.5-4.1-0.7-4.8c-0.2-1.2-1-2.6-1.9-4.1c0.7-2.2,1.7-5.3,3.1-9.4c0.7-1.2,1-1.7,1.4-1.7c0.2,0,1,0.5,1.9,1.7
		c3.8,5.3,7,10.3,9.6,14.4c1.2,1.9,1.7,3.1,1.7,3.8c0,0.5-0.2,0.7-0.7,0.7c-1,0-2.9-0.7-5.3-2.4c-0.2,0-0.5,0.2-0.7,0.5
		c1,3.1,2.4,7.7,4.3,13.2c4.6,12.5,6.7,21.6,6.7,27.4c0,4.8-1.4,9.8-3.8,14.9c-3.4,7-7.9,10.3-13.4,10.3v-14.6
		C343.4,358.1,347.7,355.9,349.4,352.1L349.4,352.1L349.4,352.1L349.4,352.1z"/>
	<path fill="#635E49" d="M263.7,362.6c6,0,11.8-2.2,17.3-6.7c0.5-0.2,2.6-2.6,6.7-7c3.6-3.8,5.8-5.8,6-5.8c1,0,1,0.7,0.5,2.6
		c-1,2.2-1.2,3.6-1.2,4.3c0,1.7,0.7,3.6,2.2,5.8c1.7,2.9,4.3,4.3,7.2,4.3c8.2,0,14.9-5.8,20.6-17.3c0.7-1.2,1.2-1.9,2.2-1.9
		c0.5,0,1,0.7,1,1.7c0,0.5-0.2,1.2-0.2,1.9c-0.2,1-0.2,1.7-0.2,1.9c0,3.4,1.2,6.2,3.1,8.4c2.2,1.9,4.8,3.1,7.9,3.1v14.6
		c-7.2,0-12.5-4.8-15.8-14.2c-0.2-1.2-0.7-1.2-1.2,0c-4.3,10.8-10.3,16.3-18,16.3s-12.2-5-13.9-14.9c0-0.7-0.2-1.2-0.2-1.2
		c-0.2,0-0.5,0.5-1,1.2c-1.9,3.1-4.6,6.2-8.2,9.6c-6,5-11.8,7.7-17.5,7.7c-6.2,0-10.6-1.9-13.2-5.8c-1.4-2.4-2.4-6-2.6-10.6
		c0-0.5-0.2-0.7-0.7-1c-0.7,0.2-1.4,0.5-2.2,1.4c-5,5.8-8.2,9.1-9.6,10.3c-6.2,5.5-12.7,8.2-19.4,8.2v-14.6c7.2,0,13.4-1.9,18.7-5.8
		c2.2-1.4,7-6,14.6-13.7c1-1,1.7-1.2,2.6-1.4c1.2,0.2,1.7,1,1.2,2.6c-0.7,1.9-1,3.6-1,5c0,3.4,1.4,6,4.1,7.9
		C256,361.7,259.6,362.6,263.7,362.6L263.7,362.6L263.7,362.6L263.7,362.6z"/>
	<path fill="#635E49" d="M198.2,350.2c1.2,6.7,3.6,11.3,6.7,13.4c1.9,1,4.6,1.7,8.2,1.7v14.6c-5.3,0-9.4-1.2-12.2-3.4
		c-4.3-3.1-7-8.6-8.4-17c-1-5.3-1.9-20.4-2.6-45.8c-1-27.4-1.7-44.2-2.2-50.4c-1.2-10.1-3.1-19.4-5.8-28.6c0-2.4,1-5.8,2.9-10.6
		c0.5-1.2,0.7-1.9,1.2-1.9c0.2,0,0.7,0.7,1.2,1.7c3.1,6,5.3,16.3,7,30.7c1,9.1,1.9,27.1,2.6,54C197.2,333.8,197.9,347.8,198.2,350.2
		L198.2,350.2L198.2,350.2L198.2,350.2z"/>
	<path fill="#635E49" d="M229.4,309.4c0,9.1-2.2,16.1-6.2,20.9c-6.5,7.4-16.1,14.6-28.6,21.8c-15.8,8.6-30.5,13.2-44.4,13.2
		c-18.2,0-31-9.1-37.9-27.1c-1.4-3.6-1.9-7.9-1.9-13.4c0-3.6,0.2-7.2,0.7-11c1-5.5,2.2-10.3,3.6-14.4c0.7-1.2,1.2-1.9,1.7-1.9
		c0.5,0,0.5,1,0.2,2.6c-0.7,2.4-1.2,5-1.7,7.4c-1,4.6-1.4,7.9-1.4,10.1c0,7.4,2.4,14.2,7.4,20.6c6.7,8.2,16.6,12.5,29.3,12.5
		c11.3,0,23.3-2.6,35.8-7.9c10.3-4.3,19.4-9.6,27.6-15.8c7.2-5.8,11-9.8,11-12.2c0-0.5-1.7-3.6-4.8-9.6c-3.6-7-6.2-13.9-7.9-20.6
		c-0.7-2.2-1.7-3.6-2.4-4.3c-1-1-1.4-1.7-1.4-2.6c0-0.7,0.7-4.3,1.9-10.8c0.2-1.2,0.5-1.7,1-1.7c0.5,0,1,0.2,1.4,0.7
		c1.9,2.2,6,6.2,12,12.2c1,1,1.4,1.7,1.4,2.4c0,0.7-0.5,1-1.7,1c-1.2,0-3.1-0.5-5.8-1.2c0.2,0.7,2.4,5,6.2,13
		C227.7,299.3,229.4,304.8,229.4,309.4L229.4,309.4L229.4,309.4L229.4,309.4z"/>
	<path fill="#635E49" d="M152.8,275.5c-0.2-0.2-0.2-0.5,0-1l4.6-9.6c0.2-0.5,0.7-0.7,1-0.7c0.5,0,2.6,1.2,6.2,3.6
		c3.8,2.6,5.8,4.1,5.8,4.6c0,1.7-1.7,5-5,10.3c-0.5,0.7-0.7,1-1.2,0.7C160.5,280.6,156.6,277.9,152.8,275.5L152.8,275.5L152.8,275.5
		L152.8,275.5z"/>
	<path fill="#635E49" d="M432.4,380.9c-0.5,2.2-1,3.4-1.7,4.1c-2.6,1.7-8.6,5.5-17.8,11.8c-0.2,0.2-0.7,0.5-1.2,1
		c-0.2-0.2-0.2-0.2-0.2-0.7l0.5-3.1c0.2-0.7,1.7-2.2,4.6-4.3c-3.6-1.2-5.3-2.9-5.3-4.8c0-2.2,0.7-4.3,2.6-6.5
		c3.6-4.3,6.7-6.5,9.1-6.5c2.2,0,3.1,1.2,3.1,3.6c0,1.4-0.5,2.9-1.7,4.8c-0.2,0.5-0.5,0.5-1-0.2c-0.5-1.2-1.4-1.7-2.6-1.7
		c-0.7,0-1.7,0.2-2.9,1.2c-1.2,0.7-1.9,1.4-1.9,1.9c0,0.7,0.7,1.4,2.2,2.2c1.4,1,2.6,1.2,3.6,1.2c0.7,0,2.2-0.5,4.3-1.7
		c1.4-1,2.6-1.9,4.1-2.9c1.2-0.5,1.9-1,2.2-0.7C432.6,379.4,432.6,379.9,432.4,380.9L432.4,380.9L432.4,380.9L432.4,380.9z"/>
	<path fill="#635E49" d="M321.3,272.2c-0.2-0.2-0.2-0.5,0-1l4.6-9.6c0.2-0.5,0.7-0.7,1-0.7c0.5,0,2.6,1.2,6.2,3.6
		c3.8,2.6,5.8,4.1,5.8,4.6c0,1.7-1.7,5-5,10.3c-0.5,0.7-0.7,1-1.2,0.7C329,277.2,325.1,274.6,321.3,272.2L321.3,272.2L321.3,272.2
		L321.3,272.2z"/>
	<path fill="#635E49" d="M123,289.7c0-0.2,0.2-0.5,0.2-0.5c0.2-0.2,0.2-0.2,0.2,0c0.2,0.2,0.2,0.5,0,0.7c-1.2,7.2-3.4,10.8-6.5,10.8
		c-3.1,0-4.6-2.6-4.6-7.9c0-6.5,1.7-13.4,5.5-20.4c1-1.7,1.4-2.6,1.7-2.6l0,0c0,0.2-0.2,1.2-0.7,2.9c-2.4,7.4-3.6,12.5-3.6,15.6
		c0,3.8,1,6,3.1,6C119.9,294.2,121.4,292.6,123,289.7L123,289.7L123,289.7L123,289.7z"/>
	<path fill="#635E49" d="M253.6,331c-2.6,0.7-4.1,1.2-4.6,1.2v-0.2c0,0,1-0.7,2.9-1.9c1.9-1.2,4.8-3.1,8.9-6.2
		c1.9-1.9,4.8-5,8.4-9.4c2.4-2.9,5-5.5,7.9-7.4c3.6-2.6,7-3.8,10.6-3.8c0.7,0,1.9,0.2,3.4,0.7c1.2,0.5,2.4,0.7,3.4,0.7
		c1.9,0,3.4-0.7,4.6-2.2c0.7-1.4,1.7-2.6,2.6-4.1c0.5-1,1.2-1.4,1.7-1.4c0.2,0,0.2,0.2,0.2,0.7c0,0.5-0.2,1.7-0.7,3.1
		c-0.5,0.7,1.4,1,5,1c0.5,0,0.7,0,0.7-0.2c0,0-0.2-1-0.7-2.6c-0.2-0.5,0-1.2,0.7-2.2c1-1.7,1.4-2.4,1.7-2.2c1,0.7,1.4,2.2,1.4,3.8
		c0,1.7-0.5,3.4-1.2,5.3c-0.7,2.2-1.4,3.4-1.9,3.8c-1.7,1-4.3,0.7-7.9-1c-2.9,2.9-5.8,4.6-8.6,4.6c-0.7,0-1.9-0.2-3.1-0.7
		c-1.2-0.5-2.2-0.7-2.9-0.7c-4.8,0-9.8,2.2-14.9,7c-3.6,3.6-7.2,7.2-10.8,10.8C258.2,329,256,330.2,253.6,331L253.6,331L253.6,331
		L253.6,331z"/>
	<path fill="#635E49" d="M305.7,229.2c0-1.2-2.4-3.4-7.4-6.2c-1.7,2.9-2.4,5.5-2.4,7.9c0,1.4,0.7,2.4,2.2,2.4c1.2,0,2.6-0.5,4.3-1.4
		C304,231.1,305.2,230.2,305.7,229.2L305.7,229.2L305.7,229.2L305.7,229.2z M300.4,210c0.7-1.2,1.7-1.7,2.4-1.7c0.5,0,1,0.2,1,0.7
		c0,0-0.2,0.2-0.2,0.5c-1,2.2-1.9,4.6-2.6,7c5,3.6,7.4,7.4,7.2,11c-0.5,4.1-1,6.7-1.7,7.7c-2.4,2.9-5,4.6-8.4,4.6
		c-3.4,0-4.8-2.2-4.8-6c0-0.7,0-1.7,0.2-2.6C294.6,223.4,297,216.5,300.4,210L300.4,210L300.4,210L300.4,210z"/>
	<path fill="#635E49" d="M381.3,226.6c0-1.2-2.4-3.4-7.4-6.2c-1.7,2.9-2.4,5.5-2.4,7.9c0,1.4,0.7,2.4,2.2,2.4c1.2,0,2.6-0.5,4.3-1.4
		C379.6,228.5,380.8,227.5,381.3,226.6L381.3,226.6L381.3,226.6L381.3,226.6z M376,207.4c0.7-1.2,1.7-1.7,2.4-1.7c0.5,0,1,0.2,1,0.7
		c0,0-0.2,0.2-0.2,0.5c-1,2.2-1.9,4.6-2.6,7c5,3.6,7.4,7.4,7.2,11c-0.5,4.1-1,6.7-1.7,7.7c-2.4,2.9-5,4.6-8.4,4.6s-4.8-2.2-4.8-6
		c0-0.7,0-1.7,0.2-2.6C370.2,220.8,372.6,213.8,376,207.4L376,207.4L376,207.4L376,207.4z"/>
	<path fill="#635E49" d="M375.3,327.8c0-0.2,0.2-0.5,0.2-0.5c0.2-0.2,0.2-0.2,0.2,0c0.2,0.2,0.2,0.5,0,0.7
		c-1.2,7.2-3.4,10.8-6.5,10.8c-3.1,0-4.6-2.6-4.6-7.9c0-6.5,1.7-13.4,5.5-20.4c1-1.7,1.4-2.6,1.7-2.6l0,0c0,0.2-0.2,1.2-0.7,2.9
		c-2.4,7.4-3.6,12.5-3.6,15.6c0,3.8,1,6,3.1,6C372.2,332.4,373.6,330.7,375.3,327.8L375.3,327.8L375.3,327.8L375.3,327.8z"/>
	<path fill="#635E49" d="M145.6,303.4c2.9,0,5.3,1.4,7.4,4.8c2.2,3.1,3.8,7.4,4.6,12.7c0.2,0.5,0.2,0.7,0.2,1h0.2
		c0-0.2,0.2-0.5,0.2-1c0.5-3.1,1.7-7.9,3.4-14.2c1.9-4.3,3.8-6.5,6-6.5c1.2,0,2.4,0.7,3.4,2.2c1,1.4,1.4,2.4,1.4,3.4
		c0,0.5,0,1.4-0.5,2.4c-0.5,1.4-1,2.2-1.4,2.2c-0.2,0-0.7-0.7-1.7-1.7c-0.7-1-1.7-1.4-2.6-1.4c-1.9,0-3.6,4.6-5.3,13.7
		c-0.7,4.1-1.7,7-2.4,8.6c-0.7,1-1.2,1.7-1.7,1.7c-0.5,0-0.5-0.7-0.7-1.7c0.2-1.7-0.7-4.8-2.6-9.4c-1.9-4.8-3.1-7-4.1-7
		c-0.5,0-0.7,0-1,0.5c-0.2,0.2-0.5,0.5-1.2,0.5c-1,0-1.9-0.7-3.4-1.9c-1.4-1.2-1.9-2.2-1.9-2.9c0-0.2,0.5-1.4,1.7-3.4
		C144.6,304.1,145.4,303.4,145.6,303.4L145.6,303.4L145.6,303.4L145.6,303.4z"/>
	<path fill="#635E49" d="M245.4,294.5c18.5-6.7,37.7-13.9,57.8-21.4c0.7-0.2,1.2-0.5,1.4-0.2c0,0,0,0.5-0.2,1.2
		c-1,2.2-1.7,3.4-2.2,3.8c-16.8,6.2-36.7,13.9-59.3,23.3C243.5,299,244.2,296.9,245.4,294.5L245.4,294.5L245.4,294.5L245.4,294.5z"
		/>
	<path fill="#635E49" d="M175.8,396.7c9.6-3.4,19.9-7.2,31-11c1-0.2,1.2-0.5,1.4-0.2c0.2,0,0.2,0.5-0.2,1.2
		c-0.7,2.2-1.4,3.4-1.9,3.8c-9.6,3.4-20.4,7.4-32.6,13C173.9,401.3,174.6,399.1,175.8,396.7L175.8,396.7L175.8,396.7L175.8,396.7z"
		/>
	<path fill="#635E49" d="M290.3,394.3c0-0.2,0.2-0.5,0.2-0.5c0.2-0.2,0.2-0.2,0.2,0c0.2,0.2,0.2,0.5,0,0.7
		c-1.2,7.2-3.4,10.8-6.5,10.8c-3.1,0-4.6-2.6-4.6-7.9c0-6.5,1.7-13.4,5.5-20.4c1-1.7,1.4-2.6,1.7-2.6l0,0c0,0.2-0.2,1.2-0.7,2.9
		c-2.4,7.4-3.6,12.5-3.6,15.6c0,3.8,1,6,3.1,6C287.2,398.9,288.6,397.2,290.3,394.3L290.3,394.3L290.3,394.3L290.3,394.3z"/>
	<path fill="#635E49" d="M275,213.1c0,0.5-0.2,1.4-0.5,2.4c-0.5,1.4-1,2.2-1.7,2.2c-0.2,0-0.7-0.7-1.7-1.7c-0.7-1-1.7-1.4-2.4-1.4
		c-1.9,0-3.8,4.6-5.5,13.7c-0.7,4.1-1.4,6.7-2.4,8.4c-0.7,1.2-1.2,1.7-1.7,1.7c-0.2,0-0.5-0.5-0.5-1.4c0-1.7-1-4.8-2.9-9.4
		c-1.7-4.8-3.1-7-3.8-7c-0.5,0-1,0-1,0.5c-0.2,0.2-0.7,0.5-1.4,0.5c-1,0-2.2-0.7-3.6-1.9c-1.4-1.4-1.9-2.4-1.7-2.9
		c2.2-4.1,3.4-6,3.8-6c2.6,0,5.3,1.4,7.4,4.8c2.2,3.1,3.6,7.4,4.6,12.5c0,0.7,0,1,0,1c0.2,0.2,0.2,0.2,0.2,0c0,0,0.2-0.2,0.5-1
		c0.5-2.9,1.4-7.7,3.1-13.9c1.9-4.3,3.8-6.5,6.2-6.5c1,0,2.2,0.7,3.4,2.2C274.5,211.2,275,212.2,275,213.1L275,213.1L275,213.1
		L275,213.1z M244.2,216.7c0.5-1,1-1.4,1.2-1.4c0,0,0.2,0.2,0,0.2c0.2,0.7-0.5,2.4-1.9,5c-2.4,4.6-5.8,8.2-10.1,11.3
		c-4.6,3.4-8.6,5.8-12.2,7.4c-0.7,0.5-5,2.2-13,5c-1.2,0.5-1.9,0.7-2.4,0.7c-0.2,0-0.2-0.2-0.2-0.2c0-0.2,0.7-1,1.9-1.7
		c6.7-3.6,15.8-9.4,27.6-17.3C239.9,222.2,242.8,219.1,244.2,216.7L244.2,216.7L244.2,216.7L244.2,216.7z"/>
	<path fill="#635E49" d="M283.6,251.8c0,2.6-1.2,5.5-3.1,8.6c-2.2,3.1-4.8,6-8.2,8.4c-1.4,1-2.2,1.4-2.4,1.4V270
		c0-0.2,0.5-0.7,1.4-1.9c5.5-6,8.4-9.8,8.4-12c0-1.7-1-2.6-2.6-2.6c-1,0-1.9,0.2-2.6,0.7c-0.7,0.2-1,0.5-1.2,0.5c0,0-0.2,0-0.2-0.2
		c0,0,0-0.5,0.2-1.4c1-4.1,2.9-6,6.2-6C282.2,247,283.6,248.6,283.6,251.8L283.6,251.8L283.6,251.8L283.6,251.8z"/>
	<path fill="#635E49" d="M251,254.9c0,2.6-1.2,5.5-3.1,8.6c-2.2,3.1-4.8,6-8.2,8.4c-1.4,1-2.2,1.4-2.4,1.4v-0.2
		c0-0.2,0.5-0.7,1.4-1.9c5.5-6,8.4-9.8,8.4-12c0-1.7-1-2.6-2.6-2.6c-1,0-1.9,0.2-2.6,0.7c-0.7,0.2-1,0.5-1.2,0.5c0,0-0.2,0-0.2-0.2
		c0,0,0-0.5,0.2-1.4c1-4.1,2.9-6,6.2-6C249.5,250.1,251,251.8,251,254.9L251,254.9L251,254.9L251,254.9z"/>
	<path fill="#635E49" d="M247.6,388.1c0,2.6-1.2,5.5-3.1,8.6c-2.2,3.1-4.8,6-8.2,8.4c-1.4,1-2.2,1.4-2.4,1.4v-0.2
		c0-0.2,0.5-0.7,1.4-1.9c5.5-6,8.4-9.8,8.4-12c0-1.7-1-2.6-2.6-2.6c-1,0-1.9,0.2-2.6,0.7c-0.7,0.2-1,0.5-1.2,0.5c0,0-0.2,0-0.2-0.2
		c0,0,0-0.5,0.2-1.4c1-4.1,2.9-6,6.2-6C246.2,383.3,247.6,385,247.6,388.1L247.6,388.1L247.6,388.1L247.6,388.1z"/>
	<path fill="#635E49" d="M347.4,386.4c0,2.6-1.2,5.5-3.1,8.6c-2.2,3.1-4.8,6-8.2,8.4c-1.4,1-2.2,1.4-2.4,1.4v-0.2
		c0-0.2,0.5-0.7,1.4-1.9c5.5-6,8.4-9.8,8.4-12c0-1.7-1-2.6-2.6-2.6c-1,0-1.9,0.2-2.6,0.7c-0.7,0.2-1,0.5-1.2,0.5c0,0-0.2,0-0.2-0.2
		c0,0,0-0.5,0.2-1.4c1-4.1,2.9-6,6.2-6C346,381.6,347.4,383.3,347.4,386.4L347.4,386.4L347.4,386.4L347.4,386.4z"/>
	<path fill="#635E49" d="M621.8,317.8c1.2-1,2.2-1.4,2.9-1.4c0.5,0,0.7,0.5,0.7,1.4c0,0.7-0.2,2.2-0.7,4.1c-0.5,1.9-0.7,3.4-0.7,4.6
		c0,5.3,3.8,8.2,11.3,8.2c6,0,11-2.6,14.9-7.7c2.4-4.1,5-7.9,7.4-11.8c1-1,1.7-1.4,2.4-1.4c1,0,1.2,1,0.7,3.1c-1,4.1-1.7,6-1.7,5.5
		c0,1.7,1,3.4,2.9,4.8c1.7,1.4,4.1,2.4,6.7,2.4c3.4,0,5.5-1,6.5-2.6c0-0.2-1-2.2-3.1-5.8c0.2-1.9,1.2-5.3,2.6-9.8
		c0.2-1.4,0.7-2.2,1.2-2.2c0.5,0,1,0.2,1.7,1.2c1.9,2.9,3.1,6.2,3.1,10.1c0,6-1.4,11-4.1,15.4c-2.9,5.3-7.2,7.9-13,7.9
		c-3.8,0-7.4-3.1-10.6-8.9c-5.3,9.6-12.2,14.4-20.6,14.4c-10.1,0-14.9-5.8-14.9-16.8c-3.8,4.6-10.3,8.6-18.7,12.5v-13.2
		c6.2-3.1,10.3-5,11.5-5.8C614.1,324,617.9,321.1,621.8,317.8L621.8,317.8L621.8,317.8L621.8,317.8z"/>
	<path fill="#635E49" d="M585,333.6c-3.6-4.6-6.7-6.7-9.6-6.7c-4.3,0-6.2,1-6.2,3.4c0,2.9,2.9,4.3,8.6,4.3
		C580,334.6,582.4,334.1,585,333.6L585,333.6L585,333.6L585,333.6z M592.5,351.1c0-1.4-0.5-3.1-1-4.8c-2.9,1-7.2,1.7-12.5,1.7
		c-11.5,0-17.3-4.1-17.3-12c0-6,1.7-11.3,5.5-16.1c3.6-4.1,7.4-6.2,11.5-6.2c3.1,0,6.2,1.9,9.8,5.5c3.1,3.6,6,7.7,8.4,12.7
		c0.2,0,0.7,0,1.7-0.5v13.2l-0.5,0.5c0,2.9-0.7,6.2-2.2,10.6c-1.7,5.5-4.3,10.1-7.4,13.7c-7.2,8.6-15.1,16.1-23.8,22.6
		c-13,9.6-24,14.6-33.6,14.6c-8.2,0-14.4-3.1-18.7-9.1c-3.8-5-5.8-11.8-5.8-19.7c0-10.1,2.2-20.4,6.2-31.2c1.2-2.4,1.7-3.4,2.2-3.4
		c0.2,0,0.2,0.2,0.2,0.7c0,0.7-0.2,1.9-0.5,3.4c-3.1,10.6-4.6,18.5-4.6,24c0,5,1.2,9.4,3.6,13c3.8,5,9.8,7.7,18.2,7.7
		c7.2,0,15.8-3.1,26.2-9.4c8.2-5,16.1-11,23.8-18.2C588.9,357.6,592.5,353.3,592.5,351.1L592.5,351.1L592.5,351.1L592.5,351.1z"/>
	<path fill="#635E49" d="M527,314.9c-0.5-2.2-1.2-3.8-2.2-5c-0.7-1.4-1.2-2.2-1.4-2.6c0-0.5,0-2.2,0.5-5.5c0.5-3.1,0.7-5.3,1.2-6.5
		c0.2-1.2,0.5-1.7,1-1.7c0.2,0,0.5,0.2,1,0.7c3.4,3.8,7,7.7,11,11.8c1.7,1.7,2.4,2.6,2.4,3.1c0,0.2-0.2,0.5-0.7,0.5
		c-0.7,0-2.6-0.5-5.5-1.2c1.7,4.1,3.6,8.2,5.3,12c2.6,6.7,4.1,12.2,4.1,17.3c0,2.4-0.5,5.3-1.4,8.9c-1.2,4.1-2.6,7.2-4.6,9.4
		c-7,7.9-18.7,16.6-35.3,25.9c-14.4,8.4-22.8,12.5-25.4,12.5c-0.5,0-7.7,1.7-21.4,5c-14.4,3.4-23.5,5.5-27.1,6c-3.8,0.7-6.2,1-7.2,1
		c-0.5,0-0.5,0-0.5-0.2s2.6-1.7,7.9-4.1c1.9-1,13-5.8,33.4-14.4c14.2-6,25.9-11.5,35.3-16.6c14.2-7.7,25-14.4,32.4-19.9
		c5.5-4.3,8.4-7.4,8.4-9.4c0-0.5-1.4-3.8-4.3-10.1C530.6,324.7,528.2,319,527,314.9L527,314.9L527,314.9L527,314.9z"/>
	<path fill="#635E49" d="M507.3,281.5c0,3.8-1.9,9.1-5.8,15.6c-2.4,4.1-6,9.6-10.8,16.8c4.8,5.5,8.2,10.6,9.8,14.9
		c1,3.1,1.7,7.2,1.7,11.8c0,1.9-0.5,4.3-1.4,7.4c-0.7,2.9-1.7,5-2.6,6.5c-1.9,2.9-5,5.8-9.8,8.6c-5,3.4-9.4,5-13,5
		c-5.8,0-8.6-4.3-8.6-13c0-5.8,1-11.5,2.9-16.8c1.9-4.6,5-10.6,10.1-18.5c-4.3-4.1-8.9-9.8-13.9-17c-0.5-0.7-1.7-1.9-3.6-3.8
		c-1-1-1.4-2.2-1.4-3.6c0-2.2,0.2-4.6,0.7-7.4c0.7-2.9,1.2-4.1,1.4-4.1c0.7,0,2.9,1.2,7,3.8c3.8,2.6,7,4.6,8.9,6.2
		c1.2,0.7,1.7,1.4,1.7,1.4v0.2c0,0.2-0.7,0.5-2.4,0.5c-3.1,0-4.8,0.2-4.8,0.5c0,0.2,0.5,0.7,1.4,1.9c3.8,4.8,7.7,8.4,11.8,11.3
		c1-1.4,4.3-6.2,9.6-14.4c4.6-7,7.2-11.8,8.4-14.6c1.2-2.9,1.9-4.1,2.4-4.1C507,276.7,507.3,278.2,507.3,281.5L507.3,281.5
		L507.3,281.5L507.3,281.5z M497.9,340.6c-2.6-5.3-7.2-10.8-13.4-16.1c-2.2,2.2-4.8,6.2-8.2,12c-3.8,6.5-5.5,10.6-5.5,12.7
		c0,2.9,1.9,4.3,6.2,4.3c1.9,0,4.3-0.7,7.4-1.9c4.3-1.9,8.4-4.6,11.8-7.9C497.7,342.2,498.2,341.3,497.9,340.6L497.9,340.6
		L497.9,340.6L497.9,340.6z"/>
	<path fill="#635E49" d="M484.5,263.5l3.8-7.9c0.2-0.5,0.5-0.7,1-0.7c0.5,0,2.4,1.2,6.2,3.8c3.6,2.4,5.5,3.8,5.5,4.3
		c0,1.7-1.7,5.3-4.8,10.6c-0.5,0.7-1,0.7-1.4,0.5c-3.1-2.4-6.7-4.8-10.8-7.4c-1.4,2.9-2.6,5.5-4.1,7.7c-0.2,0.7-0.7,1-1.2,0.7
		c-3.6-2.9-7.4-5.5-11.3-7.9c-0.2-0.2-0.2-0.5,0-1l4.6-9.6c0.2-0.5,0.7-1,1-1c0.5,0,2.2,1.2,5.3,3.4
		C481.4,260.9,483.5,262.6,484.5,263.5L484.5,263.5L484.5,263.5L484.5,263.5z"/>
	<path fill="#635E49" d="M611,397.2c-2.6,0.7-4.1,1.2-4.6,1.2v-0.2c0,0,1-0.7,2.9-1.9c1.9-1.2,4.8-3.1,8.9-6.2
		c1.9-1.9,4.8-5,8.4-9.4c2.4-2.9,5-5.5,7.9-7.4c3.6-2.6,7-3.8,10.6-3.8c0.7,0,1.9,0.2,3.4,0.7c1.2,0.5,2.4,0.7,3.4,0.7
		c1.9,0,3.4-0.7,4.6-2.2c0.7-1.4,1.7-2.6,2.6-4.1c0.5-1,1.2-1.4,1.7-1.4c0.2,0,0.2,0.2,0.2,0.7c0,0.5-0.2,1.7-0.7,3.1
		c-0.5,0.7,1.4,1,5,1c0.5,0,0.7,0,0.7-0.2c0,0-0.2-1-0.7-2.6c-0.2-0.5,0-1.2,0.7-2.2c1-1.7,1.4-2.4,1.7-2.2c1,0.7,1.4,2.2,1.4,3.8
		c0,1.7-0.5,3.4-1.2,5.3c-0.7,2.2-1.4,3.4-1.9,3.8c-1.7,1-4.3,0.7-7.9-1c-2.9,2.9-5.8,4.6-8.6,4.6c-0.7,0-1.9-0.2-3.1-0.7
		c-1.2-0.5-2.2-0.7-2.9-0.7c-4.8,0-9.8,2.2-14.9,7c-3.6,3.6-7.2,7.2-10.8,10.8C615.5,395.3,613.4,396.5,611,397.2L611,397.2
		L611,397.2L611,397.2z"/>
	<path fill="#635E49" d="M559.6,267.6c2.9,0,5.3,1.4,7.4,4.8c2.2,3.1,3.8,7.4,4.6,12.7c0.2,0.5,0.2,0.7,0.2,1h0.2
		c0-0.2,0.2-0.5,0.2-1c0.5-3.1,1.7-7.9,3.4-14.2c1.9-4.3,3.8-6.5,6-6.5c1.2,0,2.4,0.7,3.4,2.2c1,1.4,1.4,2.4,1.4,3.4
		c0,0.5,0,1.4-0.5,2.4c-0.5,1.4-1,2.2-1.4,2.2c-0.2,0-0.7-0.7-1.7-1.7c-0.7-1-1.7-1.4-2.6-1.4c-1.9,0-3.6,4.6-5.3,13.7
		c-0.7,4.1-1.7,7-2.4,8.6c-0.7,1-1.2,1.7-1.7,1.7c-0.5,0-0.5-0.7-0.7-1.7c0.2-1.7-0.7-4.8-2.6-9.4c-1.9-4.8-3.1-7-4.1-7
		c-0.5,0-0.7,0-1,0.5c-0.2,0.2-0.5,0.5-1.2,0.5c-1,0-1.9-0.7-3.4-1.9c-1.4-1.2-1.9-2.2-1.9-2.9c0-0.2,0.5-1.4,1.7-3.4
		C558.6,268.3,559.4,267.6,559.6,267.6L559.6,267.6L559.6,267.6L559.6,267.6z"/>
	<path fill="#635E49" d="M518.8,264.7c24.2-9.1,49.4-18.2,75.4-27.8c0.7-0.2,1.2-0.5,1.2-0.2c0.2,0,0.2,0.5,0,1.2
		c-1,2.2-1.7,3.4-2.2,3.8c-0.2,0.2-12.5,4.8-36.2,13.7c-24.2,8.9-37.9,14.4-40.6,16.1C516.9,269.3,517.6,267.1,518.8,264.7
		L518.8,264.7L518.8,264.7L518.8,264.7z"/>
	<path fill="#635E49" d="M495.3,220.8c0.5-1.4,0.5-2.9,0.2-4.3c-0.2-1.4-1-2.2-2.2-2.2c-0.5,0-1.2,0.2-2.2,0.7c-1,0.5-1.4,1-1.4,1.4
		C489.8,217.7,491.7,219.1,495.3,220.8L495.3,220.8L495.3,220.8L495.3,220.8z M492.4,227c-4.6-2.4-6.7-4.8-6.7-7.4
		c0-3.1,1.4-6,4.3-8.4c2.9-2.6,5.3-3.6,7.2-2.9c1.7,0.5,2.4,2.2,2.4,5c0,2.6-0.5,5.5-1.7,8.9c2.4,1.2,3.8,2.4,4.3,3.4
		c0,1.2-1,3.4-3.1,6.2c-0.5-1-1.9-2.2-4.1-3.4c-2.6,3.6-5.8,6.7-9.6,9.6c-4.6,3.1-8.6,5.8-12.2,7.2c-1,0.5-5.3,2.2-13,5
		c-1.2,0.5-2.2,0.7-2.4,0.7c-0.2,0-0.2-0.2-0.2-0.2c0-0.2,0.5-1,1.9-1.7c5.8-3.6,11.5-7,17.5-10.3C484,234.5,489,230.6,492.4,227
		L492.4,227L492.4,227L492.4,227z"/>
	<path fill="#635E49" d="M644.1,256.8c0.5-1.4,0.5-2.9,0.2-4.3c-0.2-1.4-1-2.2-2.2-2.2c-0.5,0-1.2,0.2-2.2,0.7c-1,0.5-1.4,1-1.4,1.4
		C638.6,253.7,640.5,255.1,644.1,256.8L644.1,256.8L644.1,256.8L644.1,256.8z M649.4,265.7c-2.4,5.8-3.6,10.3-3.6,13.7
		c0,4.1,1,6.2,3.1,6.2c1.2,0,2.6-1.7,4.3-4.6c0.2-0.2,0.2-0.5,0.5-0.7c0,0,0.2,0,0.2,0.2c0,0,0,0.2,0,0.7
		c-1.4,7.2-3.6,10.8-6.5,10.8c-3.1,0-4.6-2.6-4.6-7.9c0-2.6,0.5-6,1.9-10.3c1.4-4.3,2.2-6.5,2.2-6.7c0-0.5-1-1.4-3.1-2.6
		c-3.8,5-9.1,9.8-15.8,13.9c-4.6,2.6-9.1,5-13.9,7c-8.9,3.6-14.2,5.5-15.4,6.2c-1.2,0.5-1.9,0.7-2.4,0.7c-0.2,0-0.2-0.2-0.2-0.2
		c0-0.5,0.5-1,1.9-1.9c7.7-4.3,15.1-8.6,22.8-13c10.1-5.8,17-10.6,20.4-14.2c-4.6-2.4-6.7-4.8-6.7-7.4c0-3.1,1.4-6,4.3-8.6
		c2.9-2.4,5.3-3.4,7.2-2.6c1.4,0.5,2.4,2.2,2.4,5c0,2.6-0.5,5.5-1.7,8.6c2.4,1.4,3.4,2.9,3.4,4.3C650.1,263,649.8,264.2,649.4,265.7
		L649.4,265.7L649.4,265.7L649.4,265.7z"/>
	<path fill="#635E49" d="M540.2,230.9c0-0.2,0.2-0.5,0.2-0.5c0.2-0.2,0.2-0.2,0.2,0c0.2,0.2,0.2,0.5,0,0.7
		c-1.2,7.2-3.4,10.8-6.5,10.8c-3.1,0-4.6-2.6-4.6-7.9c0-6.5,1.7-13.4,5.5-20.4c1-1.7,1.4-2.6,1.7-2.6l0,0c0,0.2-0.2,1.2-0.7,2.9
		c-2.4,7.4-3.6,12.5-3.6,15.6c0,3.8,1,6,3.1,6C537,235.4,538.5,233.8,540.2,230.9L540.2,230.9L540.2,230.9L540.2,230.9z"/>
</g>
</svg>
