<?xml version="1.0" ?><!DOCTYPE svg  PUBLIC '-//W3C//DTD SVG 1.1//EN'  'http://www.w3.org/Graphics/SVG/1.1/DTD/svg11.dtd'>
<svg width="41px" height="50px" viewBox="0 0 41 50" version="1.1" xmlns="http://www.w3.org/2000/svg" xmlns:xlink="http://www.w3.org/1999/xlink">
    <!-- Generator: Sketch 3.8.3 (29802) - http://www.bohemiancoding.com/sketch -->
    <desc>Created with Sketch.</desc>
    <defs></defs>
    <path d="M33.777,26.517 C33.715,20.285 38.859,17.296 39.089,17.145 C36.198,12.918 31.694,12.338 30.091,12.272 C26.261,11.883 22.614,14.528 20.671,14.528 C18.732,14.528 15.73,12.329 12.554,12.385 C8.376,12.447 4.525,14.815 2.375,18.555 C-1.964,26.082 1.265,37.237 5.493,43.346 C7.56,46.332 10.025,49.692 13.259,49.569 C16.376,49.446 17.552,47.553 21.32,47.553 C25.088,47.553 26.146,49.569 29.443,49.506 C32.795,49.445 34.92,46.463 36.97,43.465 C39.343,39.996 40.32,36.637 40.378,36.467 C40.305,36.433 33.844,33.958 33.777,26.517 L33.777,26.517 Z" id="Shape" stroke="none" fill="#FFFFFF" fill-rule="evenodd"></path>
    <path d="M27.582,8.229 C29.297,6.147 30.459,3.254 30.143,0.374 C27.668,0.474 24.672,2.019 22.895,4.099 C21.303,5.945 19.911,8.884 20.284,11.712 C23.045,11.926 25.861,10.307 27.582,8.229 L27.582,8.229 Z" id="Shape" stroke="none" fill="#FFFFFF" fill-rule="evenodd"></path>
</svg>