<?xml version="1.0" ?><!DOCTYPE svg  PUBLIC '-//W3C//DTD SVG 1.0//EN'  'http://www.w3.org/TR/2001/REC-SVG-20010904/DTD/svg10.dtd'><svg enable-background="new 0 0 32 32" height="32px" id="Layer_1" version="1.0" viewBox="0 0 32 32" width="32px" xml:space="preserve" xmlns="http://www.w3.org/2000/svg" xmlns:xlink="http://www.w3.org/1999/xlink"><g id="PLAY"><defs><path d="M23.028,11.518l-6.69-3.862c0,0-12.19-7.04-12.908-7.453C2.715-0.211,2,0.039,2,0.902    c0,1.44,0,15.029,0,15.029s0,14.685,0,15.333c0,0.649,0.512,0.93,1.133,0.569c0.624-0.359,13.205-7.625,13.205-7.625l6.69-3.862    c0,0,5.678-3.278,6.433-3.714c0.754-0.435,0.683-1.032,0.045-1.376S23.028,11.518,23.028,11.518z" id="SVGID_1_"/></defs><clipPath id="SVGID_2_"><use overflow="visible" xlink:href="#SVGID_1_"/></clipPath><polygon clip-path="url(#SVGID_2_)" fill="#2CAFA2" points="2,-0.504 2,15.932 2,32.367 18.577,15.932  "/><polygon clip-path="url(#SVGID_2_)" fill="#77E888" points="23.028,11.518 16.338,7.655 2,-0.624 2,-0.504 18.577,15.932  "/><polygon clip-path="url(#SVGID_2_)" fill="#CC3A72" points="2,32.367 2,32.487 16.338,24.209 23.028,20.347 18.577,15.932  "/><polygon clip-path="url(#SVGID_2_)" fill="#EA9053" points="23.028,11.518 18.577,15.932 23.028,20.347 30.676,15.932  "/></g><g/><g/><g/><g/><g/><g/></svg>