<?xml version="1.0" encoding="utf-8"?>
<!-- Generator: Adobe Illustrator 18.1.1, SVG Export Plug-In . SVG Version: 6.00 Build 0)  -->
<!DOCTYPE svg PUBLIC "-//W3C//DTD SVG 1.1//EN" "http://www.w3.org/Graphics/SVG/1.1/DTD/svg11.dtd">
<svg version="1.1" id="Layer_1" xmlns="http://www.w3.org/2000/svg" xmlns:xlink="http://www.w3.org/1999/xlink" x="0px" y="0px"
	 viewBox="0 0 792 612" enable-background="new 0 0 792 612" xml:space="preserve">
<g>
	<path fill="#635E49" d="M407.8,230.9c0-4.8-0.7-8.6-2.2-11.8c0-1.7,1.2-5.8,4.1-12c0.2-0.7,0.5-1.2,0.7-1.2c0.5,0,0.7,0.5,1.2,1.2
		c0.7,1.7,2.4,6.2,5.3,13.7c3.1,7.9,4.8,12.7,5.3,14.6c0.5,1.2,0.5,2.4,0.5,2.9c0,2.2-1.9,1-6.2-3.8c-0.5-0.7-0.7-0.2-0.7,1
		c0,0.5,1.2,15.4,3.4,45.1c2.2,29.5,3.1,46.1,3.1,49.9c0,11.3-1.7,21.4-5,30c-1,1.7-1.4,2.9-1.9,3.8l0,0c-0.7,1.2-1,1.2-1.2,0.5
		c-0.2-1,0-2.9,0.2-5.5c0.5-4.1,0.7-8.6,0.7-13.7c0-4.8-1.2-24-3.6-57.8C409,253.9,407.8,235,407.8,230.9L407.8,230.9L407.8,230.9
		L407.8,230.9z"/>
	<path fill="#635E49" d="M386.2,240.2c0-1.9-0.5-4.3-1.4-7c-1-2.6-1.4-4.1-1.4-4.3c0-0.5,0.5-2.4,1.4-5.8c1-3.4,1.4-5.3,1.7-5.8
		c0.5-1,0.7-1.2,1-1.2c0.2,0,0.7,0.2,1.2,1c1,2.2,3.1,6.2,6.2,12.7c3.4,7.2,5.5,12,6.2,14.2c0.5,1.7,0.7,2.6,0.7,3.4
		c0,1.9-2.2,0.7-6.2-4.1c-0.5-0.5-0.7,0-0.7,1.2c0,4.3,1.4,19.9,4.6,46.6c3.1,26.6,4.8,43.9,4.8,51.4c0,16.1-3.8,29.5-11.3,39.8
		c-6,8.4-12.7,14.2-20.2,17.5c-2.9,1.4-7.9,2.9-14.9,4.8c-7.2,1.9-12.5,2.9-15.8,3.4c-1.2,0-1.9,0-1.9-0.5c0-0.2,0.5-1,1.9-1.9
		c6.5-3.6,17-9.8,31.7-19c4.8-2.9,9.4-7,14.2-12.2c6.2-6.7,9.6-12.5,9.6-17c0-9.8-1.9-30.7-5.8-62.6
		C387.8,262.6,386.2,244.6,386.2,240.2L386.2,240.2L386.2,240.2L386.2,240.2z M295.9,250.3c-1.2-1.7-2.4-3.1-3.8-3.8
		c-0.7-0.5-1-1.2-1-2.4v-9.6c0-1.9,0.2-2.9,1-2.9c0.5,0,1.4,0.5,2.6,1.2l18.5,14.4c1.4,1,2.2,1.9,2.2,2.4s-0.5,0.7-1.7,0.7
		c-1.4,0-4.1-0.5-7.7-1.4c2.2,3.8,21.6,24,58.3,60.7c17.3,17.3,25.9,32.4,25.9,45.1c0,1,0,2.2-0.2,3.4c-1,8.9-1.7,13.2-2.2,13.2
		c-0.5,0-1.2-3.6-2.2-11c-1.9-11.8-10.8-25.4-26.6-40.8c-25.4-24-43.4-42.7-54-55.9c-2.2-2.6-4.1-5.3-5.8-7.9
		C298.3,253.9,297.1,252.2,295.9,250.3L295.9,250.3L295.9,250.3L295.9,250.3z"/>
	<path fill="#635E49" d="M309.4,406.3v-14.6c3.8,0,8.4-1.4,13.2-3.8c4.6-2.4,7.4-4.6,8.9-6.7c0.2-0.2,0.2-1,0-1.7
		c-2.2-3.6-4.3-7.4-6.5-11.3c-3.6-6-5.8-11-6.7-14.6c-0.2-1-0.7-1.7-1.9-2.2c-1-0.2-1.4-1-1.2-1.9l1.4-11.5c0.2-1.2,0.5-1.9,1-1.9
		c0.5,0,1,0.5,1.7,1l11.3,10.1c1.4,1.2,2.2,2.2,2.2,2.9c0,1.2-2.4,1.2-7,0c7.2,11.5,10.8,19.4,10.8,23.8c0,11.5-3.6,20.2-10.8,26.2
		C320.4,404.2,314.9,406.3,309.4,406.3L309.4,406.3L309.4,406.3L309.4,406.3z"/>
	<path fill="#635E49" d="M292.8,371.3c-2.6-1.9-7.9-2.9-15.4-3.1c-2.6,0.2-5.3,0.2-7.4,0.7c4.8,3.1,8.2,6,10.3,8.4
		C284.2,375.1,288.5,373,292.8,371.3L292.8,371.3L292.8,371.3L292.8,371.3z M276.7,391.7c-9.4,6.2-14.9,9.8-17,10.8
		c-4.6,2.6-9.4,3.8-14.2,3.8v-14.6c6.7,0,14.4-2.6,22.8-7.9c-2.6-2.9-6-5.3-9.8-7.4c-3.4-1.9-6-2.9-7.7-2.9c-3.6,0-6.2,0.5-7.9,1.7
		c-0.7,0.2-1.2,0.5-1.7,0.5c-0.5,0-0.7-0.2-0.7-1c0-0.5,0-1,0.5-1.7l4.3-10.1c0.7-1.9,5-3.6,13-5.5c7.4-1.7,14.6-2.4,21.4-2.4
		c13.2,0,23.8,2.9,31.4,8.6c1.9,1.4,2.9,2.4,2.9,3.1c0,0.2-0.2,1.2-0.7,2.2l-4.6,8.4c-4.6,1.7-10.8,4.3-19,7.7
		c4.6,4.6,11.3,6.7,19.7,6.7v14.6c-6.5,0-11.5-0.7-15.1-2.4C289.9,402.2,284.2,398.2,276.7,391.7L276.7,391.7L276.7,391.7
		L276.7,391.7z"/>
	<path fill="#635E49" d="M230.6,376.6c1.2,6.7,3.6,11.3,6.7,13.4c1.9,1,4.6,1.7,8.2,1.7v14.6c-5.3,0-9.4-1.2-12.2-3.4
		c-4.3-3.1-7-8.6-8.4-17c-1-5.3-1.9-23.5-3.1-55.2c-1-33.8-1.9-53.8-2.4-60c-1.2-9.8-3.1-19.4-5.8-28.3c0-2.4,1-6,2.9-10.8
		c0.5-1.2,0.7-1.7,1.2-1.7c0.2,0,0.7,0.5,1.2,1.4c3.1,6,5.3,16.3,7,31c1,9.1,1.9,30,2.9,63.4C229.7,357.1,230.4,374.2,230.6,376.6
		L230.6,376.6L230.6,376.6L230.6,376.6z"/>
	<path fill="#635E49" d="M257.3,285.4c0-1-2.2-2.6-6.7-4.6c-4.6-1.9-7.9-2.6-10.1-2.2c-1,0.2-1.2,0.5-1,0.7c0.7,2.2,2.4,5.8,5,10.8
		C251.3,288,255.4,286.6,257.3,285.4L257.3,285.4L257.3,285.4L257.3,285.4z M200.6,314.4c13.4-10.6,26.2-17.8,38.6-21.8
		c-1-1.4-2.2-4.1-3.8-7.4c-1-1.7-1.2-3.6-1.2-6c0-3.8,1-7,2.9-9.6c2.2-3.4,5.5-4.8,10.1-4.8c3.6,0,8.6,2.2,15.1,6.7
		c7,4.8,10.6,8.6,10.6,11.8c-1.2,4.1-2.4,7.9-3.8,11.5c-5.5,1.7-12.2,3.8-20.2,6.2c0.2,4.6-0.2,7-1.4,7c-0.7,0-1.7-1.7-2.6-5.3
		c-3.6,1.4-8.6,3.6-15.1,6.5c-9.4,4.3-16.6,8.4-21.4,12.2c-7.2,5.8-14.6,12.7-22.3,21.1c-8.6,9.4-13.4,14.6-14.9,15.8
		c-4.8,4.3-9.4,6.5-13.7,6.5c-5,0-9.4-2.4-13-6.7c-3.8-4.6-5.5-10.1-5.5-16.6c0-9.1,3.6-20.9,11-35.3c0.7-1.4,1.4-2.4,1.9-2.4
		c0.2,0,0.2,0.2,0.2,0.7c0,1.4-1.7,6.5-4.8,15.1c-3.4,8.6-4.8,15.6-4.8,20.6c0,3.8,0.7,7,2.6,9.4c1.9,2.4,4.6,3.6,7.9,3.6
		c4.8,0,9.8-2.4,15.4-7c3.1-2.4,8.2-7.7,15.1-15.6C190.6,323.3,196.1,317.8,200.6,314.4L200.6,314.4L200.6,314.4L200.6,314.4z"/>
	<path fill="#635E49" d="M351.6,224.9c0-1.2-2.4-3.4-7.4-6.2c-1.7,2.9-2.4,5.5-2.4,7.9c0,1.4,0.7,2.4,2.2,2.4c1.2,0,2.6-0.5,4.3-1.4
		C349.9,226.8,351.1,225.8,351.6,224.9L351.6,224.9L351.6,224.9L351.6,224.9z M346.3,205.7c0.7-1.2,1.7-1.7,2.4-1.7
		c0.5,0,1,0.2,1,0.7c0,0-0.2,0.2-0.2,0.5c-1,2.2-1.9,4.6-2.6,7c5,3.6,7.4,7.4,7.2,11c-0.5,4.1-1,6.7-1.7,7.7c-2.4,2.9-5,4.6-8.4,4.6
		c-3.4,0-4.8-2.2-4.8-6c0-0.7,0-1.7,0.2-2.6C340.6,219.1,343,212.2,346.3,205.7L346.3,205.7L346.3,205.7L346.3,205.7z"/>
	<path fill="#635E49" d="M361.2,270.2c0-0.2,0.2-0.5,0.2-0.5c0.2-0.2,0.2-0.2,0.2,0c0.2,0.2,0.2,0.5,0,0.7
		c-1.2,7.2-3.4,10.8-6.5,10.8c-3.1,0-4.6-2.6-4.6-7.9c0-6.5,1.7-13.4,5.5-20.4c1-1.7,1.4-2.6,1.7-2.6l0,0c0,0.2-0.2,1.2-0.7,2.9
		c-2.4,7.4-3.6,12.5-3.6,15.6c0,3.8,1,6,3.1,6C358.1,274.8,359.5,273.1,361.2,270.2L361.2,270.2L361.2,270.2L361.2,270.2z"/>
	<path fill="#635E49" d="M302.6,311c-0.2-0.2-0.2-0.5,0-1l4.6-9.6c0.2-0.5,0.7-0.7,1-0.7c0.5,0,2.6,1.2,6.2,3.6
		c3.8,2.6,5.8,4.1,5.8,4.6c0,1.7-1.7,5-5,10.3c-0.5,0.7-0.7,1-1.2,0.7C310.3,316.1,306.5,313.4,302.6,311L302.6,311L302.6,311
		L302.6,311z"/>
	<path fill="#635E49" d="M296.9,217.4c-0.5,2.2-1,3.4-1.7,4.1c-2.6,1.7-8.6,5.5-17.8,11.8c-0.2,0.2-0.7,0.5-1.2,1
		c-0.2-0.2-0.2-0.2-0.2-0.7l0.5-3.1c0.2-0.7,1.7-2.2,4.6-4.3c-3.6-1.2-5.3-2.9-5.3-4.8c0-2.2,0.7-4.3,2.6-6.5
		c3.6-4.3,6.7-6.5,9.1-6.5c2.2,0,3.1,1.2,3.1,3.6c0,1.4-0.5,2.9-1.7,4.8c-0.2,0.5-0.5,0.5-1-0.2c-0.5-1.2-1.4-1.7-2.6-1.7
		c-0.7,0-1.7,0.2-2.9,1.2c-1.2,0.7-1.9,1.4-1.9,1.9c0,0.7,0.7,1.4,2.2,2.2c1.4,1,2.6,1.2,3.6,1.2c0.7,0,2.2-0.5,4.3-1.7
		c1.4-1,2.6-1.9,4.1-2.9c1.2-0.5,1.9-1,2.2-0.7C297.1,216,297.1,216.5,296.9,217.4L296.9,217.4L296.9,217.4L296.9,217.4z"/>
	<path fill="#635E49" d="M296.6,282.2c0-1.2-2.4-3.4-7.4-6.2c-1.7,2.9-2.4,5.5-2.4,7.9c0,1.4,0.7,2.4,2.2,2.4c1.2,0,2.6-0.5,4.3-1.4
		C295,284.2,296.2,283.2,296.6,282.2L296.6,282.2L296.6,282.2L296.6,282.2z M291.4,263c0.7-1.2,1.7-1.7,2.4-1.7c0.5,0,1,0.2,1,0.7
		c0,0-0.2,0.2-0.2,0.5c-1,2.2-1.9,4.6-2.6,7c5,3.6,7.4,7.4,7.2,11c-0.5,4.1-1,6.7-1.7,7.7c-2.4,2.9-5,4.6-8.4,4.6
		c-3.4,0-4.8-2.2-4.8-6c0-0.7,0-1.7,0.2-2.6C285.6,276.5,288,269.5,291.4,263L291.4,263L291.4,263L291.4,263z"/>
	<path fill="#635E49" d="M238.3,342.7c18.5-6.7,37.7-13.9,57.8-21.4c0.7-0.2,1.2-0.5,1.4-0.2c0,0,0,0.5-0.2,1.2
		c-1,2.2-1.7,3.4-2.2,3.8c-16.8,6.2-36.7,13.9-59.3,23.3C236.4,347.3,237.1,345.1,238.3,342.7L238.3,342.7L238.3,342.7L238.3,342.7z
		"/>
	<path fill="#635E49" d="M172.8,386.4c9.6-3.4,19.9-7.2,31-11c1-0.2,1.2-0.5,1.4-0.2c0.2,0,0.2,0.5-0.2,1.2
		c-0.7,2.2-1.4,3.4-1.9,3.8c-9.6,3.4-20.4,7.4-32.6,13C170.9,391,171.6,388.8,172.8,386.4L172.8,386.4L172.8,386.4L172.8,386.4z"/>
	<path fill="#635E49" d="M211.9,343.4c0,2.6-1.2,5.5-3.1,8.6c-2.2,3.1-4.8,6-8.2,8.4c-1.4,1-2.2,1.4-2.4,1.4v-0.2
		c0-0.2,0.5-0.7,1.4-1.9c5.5-6,8.4-9.8,8.4-12c0-1.7-1-2.6-2.6-2.6c-1,0-1.9,0.2-2.6,0.7c-0.7,0.2-1,0.5-1.2,0.5c0,0-0.2,0-0.2-0.2
		c0,0,0-0.5,0.2-1.4c1-4.1,2.9-6,6.2-6C210.5,338.6,211.9,340.3,211.9,343.4L211.9,343.4L211.9,343.4L211.9,343.4z"/>
	<path fill="#635E49" d="M356.6,351.4c0-0.2,0.2-0.5,0.2-0.5c0.2-0.2,0.2-0.2,0.2,0c0.2,0.2,0.2,0.5,0,0.7
		c-1.2,7.2-3.4,10.8-6.5,10.8c-3.1,0-4.6-2.6-4.6-7.9c0-6.5,1.7-13.4,5.5-20.4c1-1.7,1.4-2.6,1.7-2.6l0,0c0,0.2-0.2,1.2-0.7,2.9
		c-2.4,7.4-3.6,12.5-3.6,15.6c0,3.8,1,6,3.1,6C353.5,355.9,355,354.2,356.6,351.4L356.6,351.4L356.6,351.4L356.6,351.4z"/>
	<path fill="#635E49" d="M248.6,246.5c4.8,0,9.8-1,15.6-2.6c1.4-0.5,2.2-0.5,2.2-0.2c0,0.2-0.5,0.7-1.7,1.7
		c-4.8,4.3-11.3,6.7-19,6.7c-2.2,0-4.3-0.7-5.8-1.9c-1.4-1.2-2.2-2.9-2.2-4.8c0-5,2.2-10.3,6.5-15.8c-3.8-1.2-5.8-3.1-5.8-6
		c0-2.6,1.4-5.5,4.6-8.9c3.1-3.4,5.5-5,7.4-5c0.5,0,1,0.2,1.4,1.2c0.5,0.7,0.7,1.4,0.7,2.4c0,0.5-0.5,1.4-1.4,2.9
		c-1,1.4-1.7,1.9-1.7,1.7c-0.5-1.4-1.2-2.2-2.6-2.2c-0.7,0-1.4,0.5-2.4,1.7c-1.2,1.2-1.7,2.2-1.7,2.9c1.2,1.9,3.4,3.1,6.2,3.1
		c1,0,2.6-1,4.6-2.9c1.4-1,2.6-2.2,3.8-3.4c0.5-0.2,0.7,0,0.7,1c0,2.4-1,4.6-2.4,7c-6.5,4.3-11.3,9.4-14.4,14.9
		c-0.5,1.2-0.7,2.2-0.7,2.9C240.7,245,243.4,246.5,248.6,246.5L248.6,246.5L248.6,246.5L248.6,246.5z"/>
	<path fill="#635E49" d="M156.5,298.1c0-0.2,0.2-0.5,0.2-0.5c0.2-0.2,0.2-0.2,0.2,0c0.2,0.2,0.2,0.5,0,0.7
		c-1.2,7.2-3.4,10.8-6.5,10.8c-3.1,0-4.6-2.6-4.6-7.9c0-6.5,1.7-13.4,5.5-20.4c1-1.7,1.4-2.6,1.7-2.6l0,0c0,0.2-0.2,1.2-0.7,2.9
		c-2.4,7.4-3.6,12.5-3.6,15.6c0,3.8,1,6,3.1,6C153.4,302.6,154.8,301,156.5,298.1L156.5,298.1L156.5,298.1L156.5,298.1z"/>
	<path fill="#635E49" d="M185,245.8c1.7,0,3.6,1,6.2,3.1c2.6,1.9,4.1,3.8,4.3,5.3c0.2,0.5-0.2,1.4-1,3.1c-0.7,1.7-1.2,2.4-1.4,2.4
		c-2.4,0.7-4.8,1.4-7.2,2.2c-3.1,1-5,2.2-6.2,3.4c3.4,10.1,5,19.9,5,29.8c0,2.9-0.5,5.8-1,8.9c-0.2,1-0.5,1.4-0.7,1.7
		c-0.2,0-0.2-1.9-0.2-5.3c0-5.5-1-12.5-2.6-20.4c-1.7-7.9-2.4-12.7-2.4-13.7c0-4.1,1-7,3.4-8.9c1-0.7,3.1-1.7,6-2.6
		c-1.2-1.2-2.4-1.7-3.6-1.7c-0.5,0-1.2,0.5-2.2,1.7c-1,1.4-1.7,1.9-1.7,1.9c-0.2,0-0.5-0.5-0.2-1.4
		C180.2,248.9,182.2,245.8,185,245.8L185,245.8L185,245.8L185,245.8z"/>
	<path fill="#635E49" d="M594.2,318.7c1.2-1,2.2-1.4,2.9-1.4c0.5,0,0.7,0.5,0.7,1.4c0,0.7-0.2,2.2-0.7,4.1c-0.5,1.9-0.7,3.4-0.7,4.6
		c0,5.3,3.8,8.2,11.3,8.2c6,0,11-2.6,14.9-7.7c2.4-4.1,5-7.9,7.4-11.8c1-1,1.7-1.4,2.4-1.4c1,0,1.2,1,0.7,3.1c-1,4.1-1.7,6-1.7,5.5
		c0,1.7,1,3.4,2.9,4.8c1.7,1.4,4.1,2.4,6.7,2.4c3.4,0,5.5-1,6.5-2.6c0-0.2-1-2.2-3.1-5.8c0.2-1.9,1.2-5.3,2.6-9.8
		c0.2-1.4,0.7-2.2,1.2-2.2c0.5,0,1,0.2,1.7,1.2c1.9,2.9,3.1,6.2,3.1,10.1c0,6-1.4,11-4.1,15.4c-2.9,5.3-7.2,7.9-13,7.9
		c-3.8,0-7.4-3.1-10.6-8.9c-5.3,9.6-12.2,14.4-20.6,14.4c-10.1,0-14.9-5.8-14.9-16.8c-3.8,4.6-10.3,8.6-18.7,12.5v-13.2
		c6.2-3.1,10.3-5,11.5-5.8C586.6,325,590.4,322.1,594.2,318.7L594.2,318.7L594.2,318.7L594.2,318.7z"/>
	<path fill="#635E49" d="M557.5,334.6c-3.6-4.6-6.7-6.7-9.6-6.7c-4.3,0-6.2,1-6.2,3.4c0,2.9,2.9,4.3,8.6,4.3
		C552.5,335.5,554.9,335,557.5,334.6L557.5,334.6L557.5,334.6L557.5,334.6z M565,352.1c0-1.4-0.5-3.1-1-4.8c-2.9,1-7.2,1.7-12.5,1.7
		c-11.5,0-17.3-4.1-17.3-12c0-6,1.7-11.3,5.5-16.1c3.6-4.1,7.4-6.2,11.5-6.2c3.1,0,6.2,1.9,9.8,5.5c3.1,3.6,6,7.7,8.4,12.7
		c0.2,0,0.7,0,1.7-0.5v13.2l-0.5,0.5c0,2.9-0.7,6.2-2.2,10.6c-1.7,5.5-4.3,10.1-7.4,13.7c-7.2,8.6-15.1,16.1-23.8,22.6
		c-13,9.6-24,14.6-33.6,14.6c-8.2,0-14.4-3.1-18.7-9.1c-3.8-5-5.8-11.8-5.8-19.7c0-10.1,2.2-20.4,6.2-31.2c1.2-2.4,1.7-3.4,2.2-3.4
		c0.2,0,0.2,0.2,0.2,0.7c0,0.7-0.2,1.9-0.5,3.4c-3.1,10.6-4.6,18.5-4.6,24c0,5,1.2,9.4,3.6,13c3.8,5,9.8,7.7,18.2,7.7
		c7.2,0,15.8-3.1,26.2-9.4c8.2-5,16.1-11,23.8-18.2C561.4,358.6,565,354.2,565,352.1L565,352.1L565,352.1L565,352.1z"/>
	<path fill="#635E49" d="M499.4,315.6c-0.5-2.2-1.2-3.8-2.2-5c-0.7-1.4-1.2-2.2-1.4-2.6c0-0.5,0-2.2,0.5-5.5
		c0.5-3.1,0.7-5.3,1.2-6.5c0.2-1.2,0.5-1.7,1-1.7c0.2,0,0.5,0.2,1,0.7c3.4,3.8,7,7.7,11,11.8c1.7,1.7,2.4,2.6,2.4,3.1
		c0,0.2-0.2,0.5-0.7,0.5c-0.7,0-2.6-0.5-5.5-1.2c1.7,4.1,3.6,8.2,5.3,12c2.6,6.7,4.1,12.2,4.1,17.3c0,2.4-0.5,5.3-1.4,8.9
		c-1.2,4.1-2.6,7.2-4.6,9.4c-7,7.9-18.7,16.6-35.3,25.9c-14.4,8.4-22.8,12.5-25.4,12.5c-0.5,0-7.7,1.7-21.4,5
		c-14.4,3.4-23.5,5.5-27.1,6c-3.8,0.7-6.2,1-7.2,1c-0.5,0-0.5,0-0.5-0.2c0-0.2,2.6-1.7,7.9-4.1c1.9-1,13-5.8,33.4-14.4
		c14.2-6,25.9-11.5,35.3-16.6c14.2-7.7,25-14.4,32.4-19.9c5.5-4.3,8.4-7.4,8.4-9.4c0-0.5-1.4-3.8-4.3-10.1
		C503,325.4,500.6,319.7,499.4,315.6L499.4,315.6L499.4,315.6L499.4,315.6z"/>
	<path fill="#635E49" d="M479.8,282.2c0,3.8-1.9,9.1-5.8,15.6c-2.4,4.1-6,9.6-10.8,16.8c4.8,5.5,8.2,10.6,9.8,14.9
		c1,3.1,1.7,7.2,1.7,11.8c0,1.9-0.5,4.3-1.4,7.4c-0.7,2.9-1.7,5-2.6,6.5c-1.9,2.9-5,5.8-9.8,8.6c-5,3.4-9.4,5-13,5
		c-5.8,0-8.6-4.3-8.6-13c0-5.8,1-11.5,2.9-16.8c1.9-4.6,5-10.6,10.1-18.5c-4.3-4.1-8.9-9.8-13.9-17c-0.5-0.7-1.7-1.9-3.6-3.8
		c-1-1-1.4-2.2-1.4-3.6c0-2.2,0.2-4.6,0.7-7.4c0.7-2.9,1.2-4.1,1.4-4.1c0.7,0,2.9,1.2,7,3.8c3.8,2.6,7,4.6,8.9,6.2
		c1.2,0.7,1.7,1.4,1.7,1.4v0.2c0,0.2-0.7,0.5-2.4,0.5c-3.1,0-4.8,0.2-4.8,0.5c0,0.2,0.5,0.7,1.4,1.9c3.8,4.8,7.7,8.4,11.8,11.3
		c1-1.4,4.3-6.2,9.6-14.4c4.6-7,7.2-11.8,8.4-14.6c1.2-2.9,1.9-4.1,2.4-4.1C479.5,277.4,479.8,278.9,479.8,282.2L479.8,282.2
		L479.8,282.2L479.8,282.2z M470.4,341.3c-2.6-5.3-7.2-10.8-13.4-16.1c-2.2,2.2-4.8,6.2-8.2,12c-3.8,6.5-5.5,10.6-5.5,12.7
		c0,2.9,1.9,4.3,6.2,4.3c1.9,0,4.3-0.7,7.4-1.9c4.3-1.9,8.4-4.6,11.8-7.9C470.2,343,470.6,342,470.4,341.3L470.4,341.3L470.4,341.3
		L470.4,341.3z"/>
	<path fill="#635E49" d="M457,264.2l3.8-7.9c0.2-0.5,0.5-0.7,1-0.7c0.5,0,2.4,1.2,6.2,3.8c3.6,2.4,5.5,3.8,5.5,4.3
		c0,1.7-1.7,5.3-4.8,10.6c-0.5,0.7-1,0.7-1.4,0.5c-3.1-2.4-6.7-4.8-10.8-7.4c-1.4,2.9-2.6,5.5-4.1,7.7c-0.2,0.7-0.7,1-1.2,0.7
		c-3.6-2.9-7.4-5.5-11.3-7.9c-0.2-0.2-0.2-0.5,0-1l4.6-9.6c0.2-0.5,0.7-1,1-1c0.5,0,2.2,1.2,5.3,3.4
		C453.8,261.6,456,263.3,457,264.2L457,264.2L457,264.2L457,264.2z"/>
	<path fill="#635E49" d="M583.4,398.2c-2.6,0.7-4.1,1.2-4.6,1.2v-0.2c0,0,1-0.7,2.9-1.9c1.9-1.2,4.8-3.1,8.9-6.2
		c1.9-1.9,4.8-5,8.4-9.4c2.4-2.9,5-5.5,7.9-7.4c3.6-2.6,7-3.8,10.6-3.8c0.7,0,1.9,0.2,3.4,0.7c1.2,0.5,2.4,0.7,3.4,0.7
		c1.9,0,3.4-0.7,4.6-2.2c0.7-1.4,1.7-2.6,2.6-4.1c0.5-1,1.2-1.4,1.7-1.4c0.2,0,0.2,0.2,0.2,0.7c0,0.5-0.2,1.7-0.7,3.1
		c-0.5,0.7,1.4,1,5,1c0.5,0,0.7,0,0.7-0.2c0,0-0.2-1-0.7-2.6c-0.2-0.5,0-1.2,0.7-2.2c1-1.7,1.4-2.4,1.7-2.2c1,0.7,1.4,2.2,1.4,3.8
		c0,1.7-0.5,3.4-1.2,5.3c-0.7,2.2-1.4,3.4-1.9,3.8c-1.7,1-4.3,0.7-7.9-1c-2.9,2.9-5.8,4.6-8.6,4.6c-0.7,0-1.9-0.2-3.1-0.7
		c-1.2-0.5-2.2-0.7-2.9-0.7c-4.8,0-9.8,2.2-14.9,7c-3.6,3.6-7.2,7.2-10.8,10.8C588,396.2,585.8,397.4,583.4,398.2L583.4,398.2
		L583.4,398.2L583.4,398.2z"/>
	<path fill="#635E49" d="M532.1,268.6c2.9,0,5.3,1.4,7.4,4.8c2.2,3.1,3.8,7.4,4.6,12.7c0.2,0.5,0.2,0.7,0.2,1h0.2
		c0-0.2,0.2-0.5,0.2-1c0.5-3.1,1.7-7.9,3.4-14.2c1.9-4.3,3.8-6.5,6-6.5c1.2,0,2.4,0.7,3.4,2.2c1,1.4,1.4,2.4,1.4,3.4
		c0,0.5,0,1.4-0.5,2.4c-0.5,1.4-1,2.2-1.4,2.2c-0.2,0-0.7-0.7-1.7-1.7c-0.7-1-1.7-1.4-2.6-1.4c-1.9,0-3.6,4.6-5.3,13.7
		c-0.7,4.1-1.7,7-2.4,8.6c-0.7,1-1.2,1.7-1.7,1.7c-0.5,0-0.5-0.7-0.7-1.7c0.2-1.7-0.7-4.8-2.6-9.4c-1.9-4.8-3.1-7-4.1-7
		c-0.5,0-0.7,0-1,0.5c-0.2,0.2-0.5,0.5-1.2,0.5c-1,0-1.9-0.7-3.4-1.9c-1.4-1.2-1.9-2.2-1.9-2.9c0-0.2,0.5-1.4,1.7-3.4
		C531.1,269.3,531.8,268.6,532.1,268.6L532.1,268.6L532.1,268.6L532.1,268.6z"/>
	<path fill="#635E49" d="M491.3,265.4c24.2-9.1,49.4-18.2,75.4-27.8c0.7-0.2,1.2-0.5,1.2-0.2c0.2,0,0.2,0.5,0,1.2
		c-1,2.2-1.7,3.4-2.2,3.8c-0.2,0.2-12.5,4.8-36.2,13.7c-24.2,8.9-37.9,14.4-40.6,16.1C489.4,270,490.1,267.8,491.3,265.4
		L491.3,265.4L491.3,265.4L491.3,265.4z"/>
	<path fill="#635E49" d="M467.8,221.5c0.5-1.4,0.5-2.9,0.2-4.3c-0.2-1.4-1-2.2-2.2-2.2c-0.5,0-1.2,0.2-2.2,0.7c-1,0.5-1.4,1-1.4,1.4
		C462.2,218.4,464.2,219.8,467.8,221.5L467.8,221.5L467.8,221.5L467.8,221.5z M464.9,227.8c-4.6-2.4-6.7-4.8-6.7-7.4
		c0-3.1,1.4-6,4.3-8.4c2.9-2.6,5.3-3.6,7.2-2.9c1.7,0.5,2.4,2.2,2.4,5c0,2.6-0.5,5.5-1.7,8.9c2.4,1.2,3.8,2.4,4.3,3.4
		c0,1.2-1,3.4-3.1,6.2c-0.5-1-1.9-2.2-4.1-3.4c-2.6,3.6-5.8,6.7-9.6,9.6c-4.6,3.1-8.6,5.8-12.2,7.2c-1,0.5-5.3,2.2-13,5
		c-1.2,0.5-2.2,0.7-2.4,0.7c-0.2,0-0.2-0.2-0.2-0.2c0-0.2,0.5-1,1.9-1.7c5.8-3.6,11.5-7,17.5-10.3
		C456.5,235.2,461.5,231.4,464.9,227.8L464.9,227.8L464.9,227.8L464.9,227.8z"/>
	<path fill="#635E49" d="M616.6,257.8c0.5-1.4,0.5-2.9,0.2-4.3c-0.2-1.4-1-2.2-2.2-2.2c-0.5,0-1.2,0.2-2.2,0.7c-1,0.5-1.4,1-1.4,1.4
		C611,254.6,613,256.1,616.6,257.8L616.6,257.8L616.6,257.8L616.6,257.8z M621.8,266.6c-2.4,5.8-3.6,10.3-3.6,13.7
		c0,4.1,1,6.2,3.1,6.2c1.2,0,2.6-1.7,4.3-4.6c0.2-0.2,0.2-0.5,0.5-0.7c0,0,0.2,0,0.2,0.2c0,0,0,0.2,0,0.7
		c-1.4,7.2-3.6,10.8-6.5,10.8c-3.1,0-4.6-2.6-4.6-7.9c0-2.6,0.5-6,1.9-10.3c1.4-4.3,2.2-6.5,2.2-6.7c0-0.5-1-1.4-3.1-2.6
		c-3.8,5-9.1,9.8-15.8,13.9c-4.6,2.6-9.1,5-13.9,7c-8.9,3.6-14.2,5.5-15.4,6.2c-1.2,0.5-1.9,0.7-2.4,0.7c-0.2,0-0.2-0.2-0.2-0.2
		c0-0.5,0.5-1,1.9-1.9c7.7-4.3,15.1-8.6,22.8-13c10.1-5.8,17-10.6,20.4-14.2c-4.6-2.4-6.7-4.8-6.7-7.4c0-3.1,1.4-6,4.3-8.6
		c2.9-2.4,5.3-3.4,7.2-2.6c1.4,0.5,2.4,2.2,2.4,5c0,2.6-0.5,5.5-1.7,8.6c2.4,1.4,3.4,2.9,3.4,4.3C622.6,264,622.3,265.2,621.8,266.6
		L621.8,266.6L621.8,266.6L621.8,266.6z"/>
	<path fill="#635E49" d="M509.5,235c0-0.2,0.2-0.5,0.2-0.5c0.2-0.2,0.2-0.2,0.2,0c0.2,0.2,0.2,0.5,0,0.7c-1.2,7.2-3.4,10.8-6.5,10.8
		c-3.1,0-4.6-2.6-4.6-7.9c0-6.5,1.7-13.4,5.5-20.4c1-1.7,1.4-2.6,1.7-2.6l0,0c0,0.2-0.2,1.2-0.7,2.9c-2.4,7.4-3.6,12.5-3.6,15.6
		c0,3.8,1,6,3.1,6C506.4,239.5,507.8,237.8,509.5,235L509.5,235L509.5,235L509.5,235z"/>
</g>
</svg>
