<?xml version="1.0" encoding="utf-8"?>
<!-- Generator: Adobe Illustrator 18.1.1, SVG Export Plug-In . SVG Version: 6.00 Build 0)  -->
<!DOCTYPE svg PUBLIC "-//W3C//DTD SVG 1.1//EN" "http://www.w3.org/Graphics/SVG/1.1/DTD/svg11.dtd">
<svg version="1.1" id="Layer_1" xmlns="http://www.w3.org/2000/svg" xmlns:xlink="http://www.w3.org/1999/xlink" x="0px" y="0px"
	 viewBox="0 0 792 612" enable-background="new 0 0 792 612" xml:space="preserve">
<g>
	<path fill="#635E49" d="M458.5,229.2c0-4.8-0.7-8.6-2.2-11.8c0-1.7,1.2-5.8,4.1-12c0.2-0.7,0.5-1.2,0.7-1.2c0.5,0,0.7,0.5,1.2,1.2
		c0.7,1.7,2.4,6.2,5.3,13.7c3.1,7.9,4.8,12.7,5.3,14.6c0.5,1.2,0.5,2.4,0.5,2.9c0,2.2-1.9,1-6.2-3.8c-0.5-0.7-0.7-0.2-0.7,1
		c0,0.5,1.2,15.4,3.4,45.1c2.2,29.5,3.1,46.1,3.1,49.9c0,11.3-1.7,21.4-5,30c-1,1.7-1.4,2.9-1.9,3.8l0,0c-0.7,1.2-1,1.2-1.2,0.5
		c-0.2-1,0-2.9,0.2-5.5c0.5-4.1,0.7-8.6,0.7-13.7c0-4.8-1.2-24-3.6-57.8C459.7,252.2,458.5,233.3,458.5,229.2L458.5,229.2
		L458.5,229.2L458.5,229.2z"/>
	<path fill="#635E49" d="M438.1,224.2c0-4.6-0.7-8.4-2.2-11.5c0-1.7,1.2-5.8,4.1-12.2c0.2-0.7,0.5-1,0.7-1c0.5,0,0.7,0.2,1.2,1.2
		c0.7,1.7,2.6,6.2,5.5,13.7c2.9,7.9,4.6,12.7,5.3,14.4c0.2,1.4,0.5,2.6,0.5,3.1c0,2.2-2.2,1-6.2-3.8c-0.5-0.7-0.7-0.2-0.7,1
		c0,0.2,0.5,6.7,1.4,19.7c1,12.7,1.7,21.6,1.7,26.6c0,7.9-1.4,15.6-4.3,23c-4.1,10.3-10.1,17.3-17.8,20.6v-13.2
		c9.6-4.1,14.6-10.3,14.6-18.7c0-5-0.7-15.8-1.9-32.2C438.6,238.3,438.1,228.2,438.1,224.2L438.1,224.2L438.1,224.2L438.1,224.2z"/>
	<path fill="#635E49" d="M439.8,333.1c0,3.4-1.2,7-3.8,10.6c-2.9,4.1-6,6.2-9.6,6.2c-3.8,0-8.2-2.2-13-6.2
		c-5.3-4.3-8.6-9.6-10.1-15.8c-2.4,5.5-4.6,9.8-6.7,12.5c-3.1,3.8-7.7,7-13.7,9.6v-13.2c6.5-2.9,11.3-6,14.4-10.1
		c1.7-1.9,4.1-6,7.2-12.5c1-1.9,1.7-2.9,2.2-2.9c0.2,0,1,0.5,1.9,1.2c0-3.6,1.2-5.3,3.6-4.8c4.8,0.7,9.8,0,15.1-2.2l5.5,10.6
		C437.4,321.1,439.8,326.6,439.8,333.1L439.8,333.1L439.8,333.1L439.8,333.1z M428.8,331.7c-2.9-4.1-7.4-6.7-14.2-7.7
		c-1.9-0.5-2.6-0.2-2.6,0.2c0,0.2,0.2,0.7,0.7,1.4c4.8,6,9.8,9.1,14.6,9.1c1.7,0,2.4-0.2,2.4-1C429.7,333.4,429.2,332.6,428.8,331.7
		L428.8,331.7L428.8,331.7L428.8,331.7z"/>
	<path fill="#635E49" d="M369.2,338.6c-3.6-4.6-6.7-6.7-9.6-6.7c-4.3,0-6.2,1-6.2,3.4c0,2.9,2.9,4.3,8.6,4.3
		C364.2,339.6,366.6,339.1,369.2,338.6L369.2,338.6L369.2,338.6L369.2,338.6z M376.7,356.2c0-1.4-0.5-3.1-1-4.8
		c-2.9,1-7.2,1.7-12.5,1.7c-11.5,0-17.3-4.1-17.3-12c0-6,1.7-11.3,5.5-16.1c3.6-4.1,7.4-6.2,11.5-6.2c3.1,0,6.2,1.9,9.8,5.5
		c3.1,3.6,6,7.7,8.4,12.7c0.2,0,0.7,0,1.7-0.5v13.2l-0.5,0.5c0,2.9-0.7,6.2-2.2,10.6c-1.7,5.5-4.3,10.1-7.4,13.7
		c-7.2,8.6-15.1,16.1-23.8,22.6c-13,9.6-24,14.6-33.6,14.6c-8.2,0-14.4-3.1-18.7-9.1c-3.8-5-5.8-11.8-5.8-19.7
		c0-10.1,2.2-20.4,6.2-31.2c1.2-2.4,1.7-3.4,2.2-3.4c0.2,0,0.2,0.2,0.2,0.7c0,0.7-0.2,1.9-0.5,3.4c-3.1,10.6-4.6,18.5-4.6,24
		c0,5,1.2,9.4,3.6,13c3.8,5,9.8,7.7,18.2,7.7c7.2,0,15.8-3.1,26.2-9.4c8.2-5,16.1-11,23.8-18.2C373.1,362.6,376.7,358.3,376.7,356.2
		L376.7,356.2L376.7,356.2L376.7,356.2z"/>
	<path fill="#635E49" d="M343.8,325.7c0,4.8-1,9.1-2.4,12.7c-1.4,3.6-3.1,5.5-4.8,5.5c-9.1,0-18-3.6-27.1-10.3
		c-2.9,7.2-6.7,13.2-11.8,17.8c-5.3,5-10.8,7.7-16.6,7.7v-14.6c4.1,0,8.6-1,13-2.9c5.3-2.2,8.9-5.3,11-9.4c0.5-1,2.2-4.3,4.6-9.8
		c1.2-2.6,2.4-4.1,3.4-4.3c1.4-2.9,3.6-5.8,6.5-8.6c3.8-3.8,7.7-5.8,11.3-5.8c4.6,0,7.9,2.6,10.3,8.2
		C342.8,315.8,343.8,320.6,343.8,325.7L343.8,325.7L343.8,325.7L343.8,325.7z M334.4,325.9c-0.7-2.2-1.9-4.1-3.6-5.5
		c-1.9-1.7-3.6-2.4-5.3-2.4c-2.6,0-4.8,0.5-6.2,1.4c-1,1-1.7,1.7-1.7,2.6c4.1,2.9,8.6,5.3,14.4,6.7c0.7,0.2,1.2,0.5,1.7,0.5
		c0.7,0,1-0.5,1-1.2C334.7,327.6,334.7,326.9,334.4,325.9L334.4,325.9L334.4,325.9L334.4,325.9z"/>
	<path fill="#635E49" d="M281.2,344.2V359c-6.2,0-10.8-1.7-13.9-4.6c-2.4-2.4-3.6-5.8-3.6-9.8c0-1,0-1.9,0-3.1
		c-6.2,4.6-11.3,7.7-15.1,9.4v-13.4c4.8-1.9,10.8-5.3,17.8-9.8c1-0.7,1.7-1,2.2-1c0.7,0,1.2,0.5,1.2,1.4c0,0.5-0.2,1.4-0.5,2.9
		c0,1.4-0.2,2.4-0.2,2.9c0,2.4,1,4.6,3.1,6.7C274.4,343,277.6,344.4,281.2,344.2L281.2,344.2L281.2,344.2L281.2,344.2z"/>
	<path fill="#635E49" d="M234.8,339.6c-3.6-4.6-6.7-6.7-9.6-6.7c-4.3,0-6.2,1-6.2,3.4c0,2.9,2.9,4.3,8.6,4.3
		C229.8,340.6,232.2,340.1,234.8,339.6L234.8,339.6L234.8,339.6L234.8,339.6z M242.3,357.1c0-1.4-0.5-3.1-1-4.8
		c-2.9,1-7.2,1.7-12.5,1.7c-11.5,0-17.3-4.1-17.3-12c0-6,1.7-11.3,5.5-16.1c3.6-4.1,7.4-6.2,11.5-6.2c3.1,0,6.2,1.9,9.8,5.5
		c3.1,3.6,6,7.7,8.4,12.7c0.2,0,0.7,0,1.7-0.5v13.2l-0.5,0.5c0,2.9-0.7,6.2-2.2,10.6c-1.7,5.5-4.3,10.1-7.4,13.7
		c-7.2,8.6-15.1,16.1-23.8,22.6c-13,9.6-24,14.6-33.6,14.6c-8.2,0-14.4-3.1-18.7-9.1c-3.8-5-5.8-11.8-5.8-19.7
		c0-10.1,2.2-20.4,6.2-31.2c1.2-2.4,1.7-3.4,2.2-3.4c0.2,0,0.2,0.2,0.2,0.7c0,0.7-0.2,1.9-0.5,3.4c-3.1,10.6-4.6,18.5-4.6,24
		c0,5,1.2,9.4,3.6,13c3.8,5,9.8,7.7,18.2,7.7c7.2,0,15.8-3.1,26.2-9.4c8.2-5,16.1-11,23.8-18.2C238.7,363.6,242.3,359.3,242.3,357.1
		L242.3,357.1L242.3,357.1L242.3,357.1z"/>
	<path fill="#635E49" d="M213.5,302.9c0,9.1-2.2,16.1-6.2,20.9c-6.5,7.4-16.1,14.6-28.6,21.8c-15.8,8.6-30.5,13.2-44.4,13.2
		c-18.2,0-31-9.1-37.9-27.1c-1.4-3.6-1.9-7.9-1.9-13.4c0-3.6,0.2-7.2,0.7-11c1-5.5,2.2-10.3,3.6-14.4c0.7-1.2,1.2-1.9,1.7-1.9
		s0.5,1,0.2,2.6c-0.7,2.4-1.2,5-1.7,7.4c-1,4.6-1.4,7.9-1.4,10.1c0,7.4,2.4,14.2,7.4,20.6c6.7,8.2,16.6,12.5,29.3,12.5
		c11.3,0,23.3-2.6,35.8-7.9c10.3-4.3,19.4-9.6,27.6-15.8c7.2-5.8,11-9.8,11-12.2c0-0.5-1.7-3.6-4.8-9.6c-3.6-7-6.2-13.9-7.9-20.6
		c-0.7-2.2-1.7-3.6-2.4-4.3c-1-1-1.4-1.7-1.4-2.6c0-0.7,0.7-4.3,1.9-10.8c0.2-1.2,0.5-1.7,1-1.7c0.5,0,1,0.2,1.4,0.7
		c1.9,2.2,6,6.2,12,12.2c1,1,1.4,1.7,1.4,2.4c0,0.7-0.5,1-1.7,1c-1.2,0-3.1-0.5-5.8-1.2c0.2,0.7,2.4,5,6.2,13
		C211.8,292.8,213.5,298.3,213.5,302.9L213.5,302.9L213.5,302.9L213.5,302.9z"/>
	<path fill="#635E49" d="M256.7,301.9c-0.2-0.2-0.2-0.5,0-1l4.6-9.6c0.2-0.5,0.7-0.7,1-0.7c0.5,0,2.6,1.2,6.2,3.6
		c3.8,2.6,5.8,4.1,5.8,4.6c0,1.7-1.7,5-5,10.3c-0.5,0.7-0.7,1-1.2,0.7C264.4,307,260.5,304.3,256.7,301.9L256.7,301.9L256.7,301.9
		L256.7,301.9z"/>
	<path fill="#635E49" d="M130.9,266.2c-0.2-0.2-0.2-0.5,0-1l4.6-9.6c0.2-0.5,0.7-0.7,1-0.7c0.5,0,2.6,1.2,6.2,3.6
		c3.8,2.6,5.8,4.1,5.8,4.6c0,1.7-1.7,5-5,10.3c-0.5,0.7-0.7,1-1.2,0.7C138.6,271.2,134.8,268.6,130.9,266.2L130.9,266.2L130.9,266.2
		L130.9,266.2z"/>
	<path fill="#635E49" d="M367.8,285.4c-0.5,2.2-1,3.4-1.7,4.1c-2.6,1.7-8.6,5.5-17.8,11.8c-0.2,0.2-0.7,0.5-1.2,1
		c-0.2-0.2-0.2-0.2-0.2-0.7l0.5-3.1c0.2-0.7,1.7-2.2,4.6-4.3c-3.6-1.2-5.3-2.9-5.3-4.8c0-2.2,0.7-4.3,2.6-6.5
		c3.6-4.3,6.7-6.5,9.1-6.5c2.2,0,3.1,1.2,3.1,3.6c0,1.4-0.5,2.9-1.7,4.8c-0.2,0.5-0.5,0.5-1-0.2c-0.5-1.2-1.4-1.7-2.6-1.7
		c-0.7,0-1.7,0.2-2.9,1.2c-1.2,0.7-1.9,1.4-1.9,1.9c0,0.7,0.7,1.4,2.2,2.2c1.4,1,2.6,1.2,3.6,1.2c0.7,0,2.2-0.5,4.3-1.7
		c1.4-1,2.6-1.9,4.1-2.9c1.2-0.5,1.9-1,2.2-0.7C368,283.9,368,284.4,367.8,285.4L367.8,285.4L367.8,285.4L367.8,285.4z"/>
	<path fill="#635E49" d="M413.2,224.6c0-1.2-2.4-3.4-7.4-6.2c-1.7,2.9-2.4,5.5-2.4,7.9c0,1.4,0.7,2.4,2.2,2.4c1.2,0,2.6-0.5,4.3-1.4
		C411.5,226.6,412.7,225.6,413.2,224.6L413.2,224.6L413.2,224.6L413.2,224.6z M407.9,205.4c0.7-1.2,1.7-1.7,2.4-1.7
		c0.5,0,1,0.2,1,0.7c0,0-0.2,0.2-0.2,0.5c-1,2.2-1.9,4.6-2.6,7c5,3.6,7.4,7.4,7.2,11c-0.5,4.1-1,6.7-1.7,7.7c-2.4,2.9-5,4.6-8.4,4.6
		c-3.4,0-4.8-2.2-4.8-6c0-0.7,0-1.7,0.2-2.6C402.1,218.9,404.5,211.9,407.9,205.4L407.9,205.4L407.9,205.4L407.9,205.4z"/>
	<path fill="#635E49" d="M412,271.9c0.5-1.4,0.5-2.9,0.2-4.3c-0.2-1.4-1-2.2-2.2-2.2c-0.5,0-1.2,0.2-2.2,0.7c-1,0.5-1.4,1-1.4,1.4
		C406.4,268.8,408.4,270.2,412,271.9L412,271.9L412,271.9L412,271.9z M409.1,278.2c-4.6-2.4-6.7-4.8-6.7-7.4c0-3.1,1.4-6,4.3-8.4
		c2.9-2.6,5.3-3.6,7.2-2.9c1.7,0.5,2.4,2.2,2.4,5c0,2.6-0.5,5.5-1.7,8.9c2.4,1.2,3.8,2.4,4.3,3.4c0,1.2-1,3.4-3.1,6.2
		c-0.5-1-1.9-2.2-4.1-3.4c-2.6,3.6-5.8,6.7-9.6,9.6c-4.6,3.1-8.6,5.8-12.2,7.2c-1,0.5-5.3,2.2-13,5c-1.2,0.5-2.2,0.7-2.4,0.7
		c-0.2,0-0.2-0.2-0.2-0.2c0-0.2,0.5-1,1.9-1.7c5.8-3.6,11.5-7,17.5-10.3C400.7,285.6,405.7,281.8,409.1,278.2L409.1,278.2
		L409.1,278.2L409.1,278.2z"/>
	<path fill="#635E49" d="M357.2,252.7c0-1.2-2.4-3.4-7.4-6.2c-1.7,2.9-2.4,5.5-2.4,7.9c0,1.4,0.7,2.4,2.2,2.4c1.2,0,2.6-0.5,4.3-1.4
		C355.6,254.6,356.8,253.7,357.2,252.7L357.2,252.7L357.2,252.7L357.2,252.7z M352,233.5c0.7-1.2,1.7-1.7,2.4-1.7c0.5,0,1,0.2,1,0.7
		c0,0-0.2,0.2-0.2,0.5c-1,2.2-1.9,4.6-2.6,7c5,3.6,7.4,7.4,7.2,11c-0.5,4.1-1,6.7-1.7,7.7c-2.4,2.9-5,4.6-8.4,4.6
		c-3.4,0-4.8-2.2-4.8-6c0-0.7,0-1.7,0.2-2.6C346.2,247,348.6,240,352,233.5L352,233.5L352,233.5L352,233.5z"/>
	<path fill="#635E49" d="M297.7,377.3c18.5-6.7,37.7-13.9,57.8-21.4c0.7-0.2,1.2-0.5,1.4-0.2c0,0,0,0.5-0.2,1.2
		c-1,2.2-1.7,3.4-2.2,3.8c-16.8,6.2-36.7,13.9-59.3,23.3C295.8,381.8,296.5,379.7,297.7,377.3L297.7,377.3L297.7,377.3L297.7,377.3z
		"/>
	<path fill="#635E49" d="M276.8,249.1c0.5-1.4,0.5-2.9,0.2-4.3c-0.2-1.4-1-2.2-2.2-2.2c-0.5,0-1.2,0.2-2.2,0.7c-1,0.5-1.4,1-1.4,1.4
		C271.3,246,273.2,247.4,276.8,249.1L276.8,249.1L276.8,249.1L276.8,249.1z M282.1,258c-2.4,5.8-3.6,10.3-3.6,13.7
		c0,4.1,1,6.2,3.1,6.2c1.4,0,2.9-1.7,4.3-4.6c0.2-0.2,0.2-0.5,0.5-0.7c0.2,0,0.2,0,0.2,0.2c0,0,0,0.2,0,0.7
		c-1.2,7.2-3.4,10.8-6.5,10.8s-4.6-2.6-4.6-7.9c0-2.6,0.7-6,1.9-10.3c1.4-4.3,2.2-6.5,2.2-6.7c0-0.5-1-1.4-3.1-2.6
		c-2.6,3.6-5.8,6.7-9.6,9.6c-4.6,3.4-8.6,5.8-12.2,7.4c-1,0.2-5.3,1.9-13,4.8c-1.2,0.5-2.2,0.7-2.4,0.7c-0.2,0-0.2,0-0.2-0.2
		c0-0.2,0.5-0.7,1.9-1.7c5.8-3.4,11.5-7,17.5-10.3c7-4.3,12-8.2,15.4-11.8c-4.6-2.4-6.7-4.8-6.7-7.4c0-3.1,1.4-6,4.3-8.6
		c2.9-2.4,5.3-3.4,7.2-2.6c1.7,0.5,2.4,2.2,2.4,5c0,2.6-0.5,5.5-1.7,8.6c2.4,1.4,3.6,2.9,3.6,4.3C283.1,255.4,282.6,256.6,282.1,258
		L282.1,258L282.1,258L282.1,258z"/>
	<path fill="#635E49" d="M167.2,239.5c18.5-6.7,37.7-13.9,57.8-21.4c0.7-0.2,1.2-0.5,1.4-0.2c0,0,0,0.5-0.2,1.2
		c-1,2.2-1.7,3.4-2.2,3.8c-16.8,6.2-36.7,13.9-59.3,23.3C165.2,244.1,166,241.9,167.2,239.5L167.2,239.5L167.2,239.5L167.2,239.5z"
		/>
	<path fill="#635E49" d="M436.9,373.7c0-0.7-0.5-1.7-1.4-2.6c-0.7-1-1.7-1.4-2.4-1.4c-1.2,0-2.2,0.5-2.9,1.7
		c1.2,1.2,3.1,2.4,5.8,3.6c0.5,0.2,0.7,0.2,1,0C437.2,374.9,437.2,374.4,436.9,373.7L436.9,373.7L436.9,373.7L436.9,373.7z
		 M426.4,369.4c0.5-0.7,1-0.7,1.4-0.2c1.9-3.6,3.8-5.5,6-5.5c1.4,0,2.9,0.7,4.1,2.6c1.4,1.7,1.9,3.8,1.9,6c0,1,0,1.7-0.2,2.6
		c-0.7,3.8-1.9,5.8-3.6,5.8c-1.4,0-3.4-1-5.5-2.4c-2.2-1.2-3.6-2.6-4.6-3.8c-1.4,4.1-3.1,7.4-5.3,9.8c-3.8,4.3-8.6,7.9-15.1,11.3
		c-4.8,2.9-7.9,4.1-9.4,4.1c0,0-2.9,0.7-8.4,1.9c-5.8,1.4-9.4,2.4-10.8,2.6c-2.2,0.2-3.1,0.2-3.1,0.2c0-0.2,1-0.7,3.1-1.7
		c6-2.4,15.1-6.5,27.6-12.5c8.9-4.8,14.6-9.1,17-12.7C422.8,375.4,424.2,372.5,426.4,369.4L426.4,369.4L426.4,369.4L426.4,369.4z"/>
	<path fill="#635E49" d="M314.3,232.8c-0.5-2.9-1.7-6.2-3.4-10.3c-1.7-4.1-3.1-6.2-3.8-6.2c-0.5,0-0.7,0-1,0.5
		c-0.2,0.2-0.5,0.5-1.2,0.5c-1,0-1.9-0.7-3.4-1.9c-1.4-1.2-1.9-2.2-1.9-2.9c0-0.2,0.5-1.4,1.7-3.4c1-1.9,1.7-2.6,1.9-2.6
		c2.9,0,5.3,1.4,7.4,4.8c2.2,3.1,3.8,7.4,4.6,12.7c0.2,0.5,0.2,0.7,0.2,1h0.2c0-0.2,0.2-0.5,0.2-1c0.5-3.1,1.7-7.9,3.4-14.2
		c1.9-4.3,3.8-6.5,6-6.5c1.2,0,2.4,0.7,3.4,2.2c1,1.4,1.4,2.4,1.4,3.4c0,0.5,0,1.4-0.5,2.4c-0.5,1.4-1,2.2-1.4,2.2
		c-0.2,0-0.7-0.7-1.7-1.7c-0.7-1-1.7-1.4-2.6-1.4c-1.9,0-3.6,4.6-5.3,13.7c-0.7,3.6-1.4,6.5-2.6,8.6c1.7,0,3.6,1.2,6.2,3.1
		c2.4,2.2,3.8,3.8,4.1,5.3c0,0.5-0.2,1.4-1,3.1c-0.7,1.7-1.2,2.4-1.7,2.6c-2.4,0.7-4.8,1.2-7.2,1.9c-2.9,1-5,2.2-6.2,3.4
		c3.4,10.1,5,19.9,5,29.8c0,2.9-0.5,5.8-1,8.9c-0.2,1-0.5,1.4-0.7,1.7c-0.2,0-0.2-1.9-0.2-5.3c0-5.5-1-12.5-2.6-20.4
		c-1.4-7.9-2.4-12.5-2.4-13.7c0-4.1,1.2-7,3.4-8.9c1.2-0.7,3.1-1.7,6.2-2.6c-1.2-1.2-2.4-1.7-3.6-1.7c-0.5,0-1.2,0.7-2.2,1.9
		c-1.2,1.2-1.7,1.9-1.9,1.9c-0.2,0-0.2-0.5,0-1.7C310.7,236.9,312.1,233.8,314.3,232.8L314.3,232.8L314.3,232.8L314.3,232.8z"/>
	<path fill="#635E49" d="M383.2,224.9c0-0.2,0.2-0.5,0.2-0.5c0.2-0.2,0.2-0.2,0.2,0c0.2,0.2,0.2,0.5,0,0.7
		c-1.2,7.2-3.4,10.8-6.5,10.8c-3.1,0-4.6-2.6-4.6-7.9c0-6.5,1.7-13.4,5.5-20.4c1-1.7,1.4-2.6,1.7-2.6l0,0c0,0.2-0.2,1.2-0.7,2.9
		c-2.4,7.4-3.6,12.5-3.6,15.6c0,3.8,1,6,3.1,6C380,229.4,381.5,227.8,383.2,224.9L383.2,224.9L383.2,224.9L383.2,224.9z"/>
	<path fill="#635E49" d="M254.3,224.4c0-0.2,0.2-0.5,0.2-0.5c0.2-0.2,0.2-0.2,0.2,0c0.2,0.2,0.2,0.5,0,0.7
		c-1.2,7.2-3.4,10.8-6.5,10.8c-3.1,0-4.6-2.6-4.6-7.9c0-6.5,1.7-13.4,5.5-20.4c1-1.7,1.4-2.6,1.7-2.6l0,0c0,0.2-0.2,1.2-0.7,2.9
		c-2.4,7.4-3.6,12.5-3.6,15.6c0,3.8,1,6,3.1,6C251.2,229,252.6,227.3,254.3,224.4L254.3,224.4L254.3,224.4L254.3,224.4z"/>
	<path fill="#635E49" d="M237.2,249.6c0,2.6-1.2,5.5-3.1,8.6c-2.2,3.1-4.8,6-8.2,8.4c-1.4,1-2.2,1.4-2.4,1.4v-0.2
		c0-0.2,0.5-0.7,1.4-1.9c5.5-6,8.4-9.8,8.4-12c0-1.7-1-2.6-2.6-2.6c-1,0-1.9,0.2-2.6,0.7c-0.7,0.2-1,0.5-1.2,0.5c0,0-0.2,0-0.2-0.2
		c0,0,0-0.5,0.2-1.4c1-4.1,2.9-6,6.2-6C235.8,244.8,237.2,246.5,237.2,249.6L237.2,249.6L237.2,249.6L237.2,249.6z"/>
	<path fill="#635E49" d="M250.9,379.4c2.9,0,5.3,1.4,7.4,4.8c2.2,3.1,3.8,7.4,4.6,12.7c0.2,0.5,0.2,0.7,0.2,1h0.2
		c0-0.2,0.2-0.5,0.2-1c0.5-3.1,1.7-7.9,3.4-14.2c1.9-4.3,3.8-6.5,6-6.5c1.2,0,2.4,0.7,3.4,2.2c1,1.4,1.4,2.4,1.4,3.4
		c0,0.5,0,1.4-0.5,2.4c-0.5,1.4-1,2.2-1.4,2.2c-0.2,0-0.7-0.7-1.7-1.7c-0.7-1-1.7-1.4-2.6-1.4c-1.9,0-3.6,4.6-5.3,13.7
		c-0.7,4.1-1.7,7-2.4,8.6c-0.7,1-1.2,1.7-1.7,1.7c-0.5,0-0.5-0.7-0.7-1.7c0.2-1.7-0.7-4.8-2.6-9.4c-1.9-4.8-3.1-7-4.1-7
		c-0.5,0-0.7,0-1,0.5c-0.2,0.2-0.5,0.5-1.2,0.5c-1,0-1.9-0.7-3.4-1.9c-1.4-1.2-1.9-2.2-1.9-2.9c0-0.2,0.5-1.4,1.7-3.4
		C250,380.2,250.7,379.4,250.9,379.4L250.9,379.4L250.9,379.4L250.9,379.4z"/>
	<path fill="#635E49" d="M106,281.5c0-0.2,0.2-0.5,0.2-0.5c0.2-0.2,0.2-0.2,0.2,0c0.2,0.2,0.2,0.5,0,0.7c-1.2,7.2-3.4,10.8-6.5,10.8
		c-3.1,0-4.6-2.6-4.6-7.9c0-6.5,1.7-13.4,5.5-20.4c1-1.7,1.4-2.6,1.7-2.6l0,0c0,0.2-0.2,1.2-0.7,2.9c-2.4,7.4-3.6,12.5-3.6,15.6
		c0,3.8,1,6,3.1,6C102.8,286.1,104.3,284.4,106,281.5L106,281.5L106,281.5L106,281.5z"/>
	<path fill="#635E49" d="M138.8,294.7c2.9,0,5.3,1.4,7.4,4.8c2.2,3.1,3.8,7.4,4.6,12.7c0.2,0.5,0.2,0.7,0.2,1h0.2
		c0-0.2,0.2-0.5,0.2-1c0.5-3.1,1.7-7.9,3.4-14.2c1.9-4.3,3.8-6.5,6-6.5c1.2,0,2.4,0.7,3.4,2.2c1,1.4,1.4,2.4,1.4,3.4
		c0,0.5,0,1.4-0.5,2.4c-0.5,1.4-1,2.2-1.4,2.2c-0.2,0-0.7-0.7-1.7-1.7c-0.7-1-1.7-1.4-2.6-1.4c-1.9,0-3.6,4.6-5.3,13.7
		c-0.7,4.1-1.7,7-2.4,8.6c-0.7,1-1.2,1.7-1.7,1.7c-0.5,0-0.5-0.7-0.7-1.7c0.2-1.7-0.7-4.8-2.6-9.4c-1.9-4.8-3.1-7-4.1-7
		c-0.5,0-0.7,0-1,0.5c-0.2,0.2-0.5,0.5-1.2,0.5c-1,0-1.9-0.7-3.4-1.9c-1.4-1.2-1.9-2.2-1.9-2.9c0-0.2,0.5-1.4,1.7-3.4
		C137.9,295.4,138.6,294.7,138.8,294.7L138.8,294.7L138.8,294.7L138.8,294.7z"/>
	<path fill="#635E49" d="M638.8,317.3c1.2-1,2.2-1.4,2.9-1.4c0.5,0,0.7,0.5,0.7,1.4c0,0.7-0.2,2.2-0.7,4.1c-0.5,1.9-0.7,3.4-0.7,4.6
		c0,5.3,3.8,8.2,11.3,8.2c6,0,11-2.6,14.9-7.7c2.4-4.1,5-7.9,7.4-11.8c1-1,1.7-1.4,2.4-1.4c1,0,1.2,1,0.7,3.1c-1,4.1-1.7,6-1.7,5.5
		c0,1.7,1,3.4,2.9,4.8c1.7,1.4,4.1,2.4,6.7,2.4c3.4,0,5.5-1,6.5-2.6c0-0.2-1-2.2-3.1-5.8c0.2-1.9,1.2-5.3,2.6-9.8
		c0.2-1.4,0.7-2.2,1.2-2.2c0.5,0,1,0.2,1.7,1.2c1.9,2.9,3.1,6.2,3.1,10.1c0,6-1.4,11-4.1,15.4c-2.9,5.3-7.2,7.9-13,7.9
		c-3.8,0-7.4-3.1-10.6-8.9c-5.3,9.6-12.2,14.4-20.6,14.4c-10.1,0-14.9-5.8-14.9-16.8c-3.8,4.6-10.3,8.6-18.7,12.5v-13.2
		c6.2-3.1,10.3-5,11.5-5.8C631.1,323.5,634.9,320.6,638.8,317.3L638.8,317.3L638.8,317.3L638.8,317.3z"/>
	<path fill="#635E49" d="M602,333.1c-3.6-4.6-6.7-6.7-9.6-6.7c-4.3,0-6.2,1-6.2,3.4c0,2.9,2.9,4.3,8.6,4.3
		C597,334.1,599.4,333.6,602,333.1L602,333.1L602,333.1L602,333.1z M609.5,350.6c0-1.4-0.5-3.1-1-4.8c-2.9,1-7.2,1.7-12.5,1.7
		c-11.5,0-17.3-4.1-17.3-12c0-6,1.7-11.3,5.5-16.1c3.6-4.1,7.4-6.2,11.5-6.2c3.1,0,6.2,1.9,9.8,5.5c3.1,3.6,6,7.7,8.4,12.7
		c0.2,0,0.7,0,1.7-0.5v13.2l-0.5,0.5c0,2.9-0.7,6.2-2.2,10.6c-1.7,5.5-4.3,10.1-7.4,13.7c-7.2,8.6-15.1,16.1-23.8,22.6
		c-13,9.6-24,14.6-33.6,14.6c-8.2,0-14.4-3.1-18.7-9.1c-3.8-5-5.8-11.8-5.8-19.7c0-10.1,2.2-20.4,6.2-31.2c1.2-2.4,1.7-3.4,2.2-3.4
		c0.2,0,0.2,0.2,0.2,0.7c0,0.7-0.2,1.9-0.5,3.4c-3.1,10.6-4.6,18.5-4.6,24c0,5,1.2,9.4,3.6,13c3.8,5,9.8,7.7,18.2,7.7
		c7.2,0,15.8-3.1,26.2-9.4c8.2-5,16.1-11,23.8-18.2C605.9,357.1,609.5,352.8,609.5,350.6L609.5,350.6L609.5,350.6L609.5,350.6z"/>
	<path fill="#635E49" d="M544,314.4c-0.5-2.2-1.2-3.8-2.2-5c-0.7-1.4-1.2-2.2-1.4-2.6c0-0.5,0-2.2,0.5-5.5c0.5-3.1,0.7-5.3,1.2-6.5
		c0.2-1.2,0.5-1.7,1-1.7c0.2,0,0.5,0.2,1,0.7c3.4,3.8,7,7.7,11,11.8c1.7,1.7,2.4,2.6,2.4,3.1c0,0.2-0.2,0.5-0.7,0.5
		c-0.7,0-2.6-0.5-5.5-1.2c1.7,4.1,3.6,8.2,5.3,12c2.6,6.7,4.1,12.2,4.1,17.3c0,2.4-0.5,5.3-1.4,8.9c-1.2,4.1-2.6,7.2-4.6,9.4
		c-7,7.9-18.7,16.6-35.3,25.9c-14.4,8.4-22.8,12.5-25.4,12.5c-0.5,0-7.7,1.7-21.4,5c-14.4,3.4-23.5,5.5-27.1,6c-3.8,0.7-6.2,1-7.2,1
		c-0.5,0-0.5,0-0.5-0.2c0-0.2,2.6-1.7,7.9-4.1c1.9-1,13-5.8,33.4-14.4c14.2-6,25.9-11.5,35.3-16.6c14.2-7.7,25-14.4,32.4-19.9
		c5.5-4.3,8.4-7.4,8.4-9.4c0-0.5-1.4-3.8-4.3-10.1C547.6,324.2,545.2,318.5,544,314.4L544,314.4L544,314.4L544,314.4z"/>
	<path fill="#635E49" d="M524.3,281c0,3.8-1.9,9.1-5.8,15.6c-2.4,4.1-6,9.6-10.8,16.8c4.8,5.5,8.2,10.6,9.8,14.9
		c1,3.1,1.7,7.2,1.7,11.8c0,1.9-0.5,4.3-1.4,7.4c-0.7,2.9-1.7,5-2.6,6.5c-1.9,2.9-5,5.8-9.8,8.6c-5,3.4-9.4,5-13,5
		c-5.8,0-8.6-4.3-8.6-13c0-5.8,1-11.5,2.9-16.8c1.9-4.6,5-10.6,10.1-18.5c-4.3-4.1-8.9-9.8-13.9-17c-0.5-0.7-1.7-1.9-3.6-3.8
		c-1-1-1.4-2.2-1.4-3.6c0-2.2,0.2-4.6,0.7-7.4c0.7-2.9,1.2-4.1,1.4-4.1c0.7,0,2.9,1.2,7,3.8c3.8,2.6,7,4.6,8.9,6.2
		c1.2,0.7,1.7,1.4,1.7,1.4v0.2c0,0.2-0.7,0.5-2.4,0.5c-3.1,0-4.8,0.2-4.8,0.5c0,0.2,0.5,0.7,1.4,1.9c3.8,4.8,7.7,8.4,11.8,11.3
		c1-1.4,4.3-6.2,9.6-14.4c4.6-7,7.2-11.8,8.4-14.6c1.2-2.9,1.9-4.1,2.4-4.1C524,276.2,524.3,277.7,524.3,281L524.3,281L524.3,281
		L524.3,281z M514.9,340.1c-2.6-5.3-7.2-10.8-13.4-16.1c-2.2,2.2-4.8,6.2-8.2,12c-3.8,6.5-5.5,10.6-5.5,12.7c0,2.9,1.9,4.3,6.2,4.3
		c1.9,0,4.3-0.7,7.4-1.9c4.3-1.9,8.4-4.6,11.8-7.9C514.7,341.8,515.2,340.8,514.9,340.1L514.9,340.1L514.9,340.1L514.9,340.1z"/>
	<path fill="#635E49" d="M501.5,263l3.8-7.9c0.2-0.5,0.5-0.7,1-0.7c0.5,0,2.4,1.2,6.2,3.8c3.6,2.4,5.5,3.8,5.5,4.3
		c0,1.7-1.7,5.3-4.8,10.6c-0.5,0.7-1,0.7-1.4,0.5c-3.1-2.4-6.7-4.8-10.8-7.4c-1.4,2.9-2.6,5.5-4.1,7.7c-0.2,0.7-0.7,1-1.2,0.7
		c-3.6-2.9-7.4-5.5-11.3-7.9c-0.2-0.2-0.2-0.5,0-1l4.6-9.6c0.2-0.5,0.7-1,1-1c0.5,0,2.2,1.2,5.3,3.4
		C498.4,260.4,500.5,262.1,501.5,263L501.5,263L501.5,263L501.5,263z"/>
	<path fill="#635E49" d="M628,396.7c-2.6,0.7-4.1,1.2-4.6,1.2v-0.2c0,0,1-0.7,2.9-1.9c1.9-1.2,4.8-3.1,8.9-6.2
		c1.9-1.9,4.8-5,8.4-9.4c2.4-2.9,5-5.5,7.9-7.4c3.6-2.6,7-3.8,10.6-3.8c0.7,0,1.9,0.2,3.4,0.7c1.2,0.5,2.4,0.7,3.4,0.7
		c1.9,0,3.4-0.7,4.6-2.2c0.7-1.4,1.7-2.6,2.6-4.1c0.5-1,1.2-1.4,1.7-1.4c0.2,0,0.2,0.2,0.2,0.7c0,0.5-0.2,1.7-0.7,3.1
		c-0.5,0.7,1.4,1,5,1c0.5,0,0.7,0,0.7-0.2c0,0-0.2-1-0.7-2.6c-0.2-0.5,0-1.2,0.7-2.2c1-1.7,1.4-2.4,1.7-2.2c1,0.7,1.4,2.2,1.4,3.8
		c0,1.7-0.5,3.4-1.2,5.3c-0.7,2.2-1.4,3.4-1.9,3.8c-1.7,1-4.3,0.7-7.9-1c-2.9,2.9-5.8,4.6-8.6,4.6c-0.7,0-1.9-0.2-3.1-0.7
		c-1.2-0.5-2.2-0.7-2.9-0.7c-4.8,0-9.8,2.2-14.9,7c-3.6,3.6-7.2,7.2-10.8,10.8C632.5,394.8,630.4,396,628,396.7L628,396.7L628,396.7
		L628,396.7z"/>
	<path fill="#635E49" d="M576.6,267.1c2.9,0,5.3,1.4,7.4,4.8c2.2,3.1,3.8,7.4,4.6,12.7c0.2,0.5,0.2,0.7,0.2,1h0.2
		c0-0.2,0.2-0.5,0.2-1c0.5-3.1,1.7-7.9,3.4-14.2c1.9-4.3,3.8-6.5,6-6.5c1.2,0,2.4,0.7,3.4,2.2c1,1.4,1.4,2.4,1.4,3.4
		c0,0.5,0,1.4-0.5,2.4c-0.5,1.4-1,2.2-1.4,2.2c-0.2,0-0.7-0.7-1.7-1.7c-0.7-1-1.7-1.4-2.6-1.4c-1.9,0-3.6,4.6-5.3,13.7
		c-0.7,4.1-1.7,7-2.4,8.6c-0.7,1-1.2,1.7-1.7,1.7c-0.5,0-0.5-0.7-0.7-1.7c0.2-1.7-0.7-4.8-2.6-9.4c-1.9-4.8-3.1-7-4.1-7
		c-0.5,0-0.7,0-1,0.5c-0.2,0.2-0.5,0.5-1.2,0.5c-1,0-1.9-0.7-3.4-1.9c-1.4-1.2-1.9-2.2-1.9-2.9c0-0.2,0.5-1.4,1.7-3.4
		C575.6,267.8,576.4,267.1,576.6,267.1L576.6,267.1L576.6,267.1L576.6,267.1z"/>
	<path fill="#635E49" d="M535.8,264.2c24.2-9.1,49.4-18.2,75.4-27.8c0.7-0.2,1.2-0.5,1.2-0.2c0.2,0,0.2,0.5,0,1.2
		c-1,2.2-1.7,3.4-2.2,3.8c-0.2,0.2-12.5,4.8-36.2,13.7c-24.2,8.9-37.9,14.4-40.6,16.1C533.9,268.8,534.6,266.6,535.8,264.2
		L535.8,264.2L535.8,264.2L535.8,264.2z"/>
	<path fill="#635E49" d="M512.3,220.3c0.5-1.4,0.5-2.9,0.2-4.3c-0.2-1.4-1-2.2-2.2-2.2c-0.5,0-1.2,0.2-2.2,0.7c-1,0.5-1.4,1-1.4,1.4
		C506.8,217.2,508.7,218.6,512.3,220.3L512.3,220.3L512.3,220.3L512.3,220.3z M509.4,226.6c-4.6-2.4-6.7-4.8-6.7-7.4
		c0-3.1,1.4-6,4.3-8.4c2.9-2.6,5.3-3.6,7.2-2.9c1.7,0.5,2.4,2.2,2.4,5c0,2.6-0.5,5.5-1.7,8.9c2.4,1.2,3.8,2.4,4.3,3.4
		c0,1.2-1,3.4-3.1,6.2c-0.5-1-1.9-2.2-4.1-3.4c-2.6,3.6-5.8,6.7-9.6,9.6c-4.6,3.1-8.6,5.8-12.2,7.2c-1,0.5-5.3,2.2-13,5
		c-1.2,0.5-2.2,0.7-2.4,0.7c-0.2,0-0.2-0.2-0.2-0.2c0-0.2,0.5-1,1.9-1.7c5.8-3.6,11.5-7,17.5-10.3C501,234,506,230.2,509.4,226.6
		L509.4,226.6L509.4,226.6L509.4,226.6z"/>
	<path fill="#635E49" d="M661.1,256.6c0.5-1.4,0.5-2.9,0.2-4.3c-0.2-1.4-1-2.2-2.2-2.2c-0.5,0-1.2,0.2-2.2,0.7c-1,0.5-1.4,1-1.4,1.4
		C655.6,253.4,657.5,254.9,661.1,256.6L661.1,256.6L661.1,256.6L661.1,256.6z M666.4,265.4c-2.4,5.8-3.6,10.3-3.6,13.7
		c0,4.1,1,6.2,3.1,6.2c1.2,0,2.6-1.7,4.3-4.6c0.2-0.2,0.2-0.5,0.5-0.7c0,0,0.2,0,0.2,0.2c0,0,0,0.2,0,0.7
		c-1.4,7.2-3.6,10.8-6.5,10.8c-3.1,0-4.6-2.6-4.6-7.9c0-2.6,0.5-6,1.9-10.3c1.4-4.3,2.2-6.5,2.2-6.7c0-0.5-1-1.4-3.1-2.6
		c-3.8,5-9.1,9.8-15.8,13.9c-4.6,2.6-9.1,5-13.9,7c-8.9,3.6-14.2,5.5-15.4,6.2c-1.2,0.5-1.9,0.7-2.4,0.7c-0.2,0-0.2-0.2-0.2-0.2
		c0-0.5,0.5-1,1.9-1.9c7.7-4.3,15.1-8.6,22.8-13c10.1-5.8,17-10.6,20.4-14.2c-4.6-2.4-6.7-4.8-6.7-7.4c0-3.1,1.4-6,4.3-8.6
		c2.9-2.4,5.3-3.4,7.2-2.6c1.4,0.5,2.4,2.2,2.4,5c0,2.6-0.5,5.5-1.7,8.6c2.4,1.4,3.4,2.9,3.4,4.3C667.1,262.8,666.8,264,666.4,265.4
		L666.4,265.4L666.4,265.4L666.4,265.4z"/>
	<path fill="#635E49" d="M554,233.8c0-0.2,0.2-0.5,0.2-0.5c0.2-0.2,0.2-0.2,0.2,0c0.2,0.2,0.2,0.5,0,0.7c-1.2,7.2-3.4,10.8-6.5,10.8
		c-3.1,0-4.6-2.6-4.6-7.9c0-6.5,1.7-13.4,5.5-20.4c1-1.7,1.4-2.6,1.7-2.6l0,0c0,0.2-0.2,1.2-0.7,2.9c-2.4,7.4-3.6,12.5-3.6,15.6
		c0,3.8,1,6,3.1,6C550.9,238.3,552.4,236.6,554,233.8L554,233.8L554,233.8L554,233.8z"/>
</g>
</svg>
