<?xml version="1.0" encoding="utf-8"?>
<!-- Generator: Adobe Illustrator 18.1.1, SVG Export Plug-In . SVG Version: 6.00 Build 0)  -->
<!DOCTYPE svg PUBLIC "-//W3C//DTD SVG 1.1//EN" "http://www.w3.org/Graphics/SVG/1.1/DTD/svg11.dtd">
<svg version="1.1" id="Layer_1" xmlns="http://www.w3.org/2000/svg" xmlns:xlink="http://www.w3.org/1999/xlink" x="0px" y="0px"
	 viewBox="0 0 792 612" enable-background="new 0 0 792 612" xml:space="preserve">
<g>
	<path fill="#635E49" d="M460,230.2c0-4.8-0.7-8.6-2.2-11.8c0-1.7,1.2-5.8,4.1-12c0.2-0.7,0.5-1.2,0.7-1.2c0.5,0,0.7,0.5,1.2,1.2
		c0.7,1.7,2.4,6.2,5.3,13.7c3.1,7.9,4.8,12.7,5.3,14.6c0.5,1.2,0.5,2.4,0.5,2.9c0,2.2-1.9,1-6.2-3.8c-0.5-0.7-0.7-0.2-0.7,1
		c0,0.5,1.2,15.4,3.4,45.1c2.2,29.5,3.1,46.1,3.1,49.9c0,11.3-1.7,21.4-5,30c-1,1.7-1.4,2.9-1.9,3.8l0,0c-0.7,1.2-1,1.2-1.2,0.5
		c-0.2-1,0-2.9,0.2-5.5c0.5-4.1,0.7-8.6,0.7-13.7c0-4.8-1.2-24-3.6-57.8C461.2,253.3,460,234.3,460,230.2L460,230.2L460,230.2
		L460,230.2z"/>
	<path fill="#635E49" d="M450.9,314.5c0,14.2-2.6,25.2-7.7,33.4c-4.3,6.7-9.4,10.3-15.1,10.3v-14.6c4.6,0,9.1-1.9,13.4-5.5
		c1.2-1,1.9-5,1.9-11.8c0-4.1-1.2-20.6-3.4-49.4c-2.2-28.8-3.1-45.8-3.1-51.1c0-4.6-0.7-8.4-2.2-11.5c0-1.7,1.4-5.8,4.1-12.2
		c0.2-0.7,0.5-1,1-1c0.2,0,0.5,0.2,1,1.2c0.7,1.7,2.6,6.2,5.5,13.7c2.9,7.9,4.6,12.7,5.3,14.4c0.2,1.4,0.5,2.6,0.5,3.1
		c0,2.2-2.2,1-6.2-3.8c-0.5-0.5-0.7-0.2-0.7,1c0,0.2,1,13.2,2.9,38.6C449.9,294.3,450.9,309.4,450.9,314.5L450.9,314.5L450.9,314.5
		L450.9,314.5z"/>
	<path fill="#635E49" d="M354.9,348.1c6,0,11.8-2.2,17.3-6.7c0.5-0.2,2.6-2.6,6.7-7c3.6-3.8,5.8-5.8,6-5.8c1,0,1,0.7,0.5,2.6
		c-1,2.2-1.2,3.6-1.2,4.3c0,1.7,0.7,3.6,2.2,5.8c1.7,2.9,4.3,4.3,7.2,4.3c8.2,0,14.9-5.8,20.6-17.3c0.7-1.2,1.2-1.9,2.2-1.9
		c0.5,0,1,0.7,1,1.7c0,0.5-0.2,1.2-0.2,1.9c-0.2,1-0.2,1.7-0.2,1.9c0,3.4,1.2,6.2,3.1,8.4c2.2,1.9,4.8,3.1,7.9,3.1v14.6
		c-7.2,0-12.5-4.8-15.8-14.2c-0.2-1.2-0.7-1.2-1.2,0c-4.3,10.8-10.3,16.3-18,16.3s-12.2-5-13.9-14.9c0-0.7-0.2-1.2-0.2-1.2
		c-0.2,0-0.5,0.5-1,1.2c-1.9,3.1-4.6,6.2-8.2,9.6c-6,5-11.8,7.7-17.5,7.7c-6.2,0-10.6-1.9-13.2-5.8c-1.4-2.4-2.4-6-2.6-10.6
		c0-0.5-0.2-0.7-0.7-1c-0.7,0.2-1.4,0.5-2.2,1.4c-5,5.8-8.2,9.1-9.6,10.3c-6.2,5.5-12.7,8.2-19.4,8.2v-14.6c7.2,0,13.4-1.9,18.7-5.8
		c2.2-1.4,7-6,14.6-13.7c1-1,1.7-1.2,2.6-1.4c1.2,0.2,1.7,1,1.2,2.6c-0.7,1.9-1,3.6-1,5c0,3.4,1.4,6,4.1,7.9
		C347.2,347.1,350.8,348.1,354.9,348.1L354.9,348.1L354.9,348.1L354.9,348.1z"/>
	<path fill="#635E49" d="M272.8,351.4c-3.8,2.4-13.2,6.7-28.1,13v-13.2c4.8-1.9,11.3-4.6,19.4-8.2c-6.7-7-12.5-10.6-17.8-10.6
		c-3.6,0-6.2,0.5-7.9,1.7c-0.7,0.2-1.2,0.5-1.7,0.5c-0.5,0-0.7-0.2-0.7-1c0-0.5,0-1,0.5-1.7l4.3-10.1c0.7-1.9,5-3.8,12.5-5.5
		c7.4-1.7,14.4-2.4,21.1-2.4c6.5,0,13,1,19.7,3.1c4.8,1.7,8.6,3.6,11.8,5.5c1.9,1.2,3.1,2.4,3.1,2.9c0,0.5-0.5,1.4-1,2.4l-5,8.9
		c-4.1,1.7-10.1,4.3-17.8,8.2c3.8,3.8,10.3,5.8,19,5.5v14.9c-6.5,0-11.5-0.7-14.4-1.9C285.8,362,280.2,357.9,272.8,351.4
		L272.8,351.4L272.8,351.4L272.8,351.4z M288.9,330.8c-3.1-2.2-8.9-3.4-17.5-3.4c-2.4,0-4.6,0.2-6.5,0.5c6,4.1,9.8,7,11.8,9.1
		C279.8,335.4,283.8,333.4,288.9,330.8L288.9,330.8L288.9,330.8L288.9,330.8z"/>
	<path fill="#635E49" d="M199.4,377.8c5-5.8,11.8-10.8,20.2-15.4c4.8-2.6,13.2-6.5,25.2-11.5v13.2c-7.7,3.4-13.2,5.8-16.8,7.4
		c-7.4,3.6-12.5,6.2-15.1,8.4c-5,3.8-12.5,11.3-22.1,22.3c-5.8,6.7-11.5,10.1-17.3,10.1c-4.8,0-9.1-2.2-12.7-6.7
		c-3.8-4.3-5.5-10.1-5.5-16.6c0-8.9,3.6-20.6,11-35.3c0.7-1.4,1.4-2.2,1.9-2.2c0,0,0.2,0.2,0.2,0.5c0,1.4-1.7,6.5-4.8,15.1
		c-3.4,8.9-5,15.6-5,20.6c0,3.8,1,7,2.9,9.1c1.9,2.6,4.6,3.8,7.9,3.8c6,0,12.2-3.1,18.2-9.1C191.7,387.2,195.5,382.4,199.4,377.8
		L199.4,377.8L199.4,377.8L199.4,377.8z"/>
	<g>
		<path fill="#635E49" d="M191.9,240.6c0-4.6-0.7-8.4-2.2-11.5c0-1.7,1.2-5.8,4.1-12.2c0.2-0.7,0.5-1,0.7-1c0.5,0,0.7,0.2,1.2,1.2
			c0.7,1.7,2.4,6.2,5.3,13.7c3.1,7.9,4.8,12.7,5.3,14.4c0.5,1.4,0.7,2.4,0.7,3.1c0,2.2-2.2,1-6.2-3.8c-0.5-0.7-0.7-0.5-0.7,1
			c0,0.2,1,13.7,3.1,40.1c2.2,26.6,3.4,41.5,3.4,45.4c0,11.3-1.9,21.4-5.3,30c-0.7,1.7-1.4,2.9-1.9,3.8l0,0c-0.7,1-1,1.2-1.2,0.5
			c-0.2-1-0.2-2.9,0.2-5.8c0.5-3.8,0.7-8.4,0.7-13.4c0-4.8-1.2-22.3-3.6-53C193.1,262.2,191.9,244.6,191.9,240.6L191.9,240.6
			L191.9,240.6L191.9,240.6z"/>
	</g>
	<path fill="#635E49" d="M184,319.8c0,0.7-1.2,3.1-3.4,7.2c-1.7,1.2-5.8,3.6-12.2,7.2c-8.4,4.6-15.8,8.9-22.1,12.7
		c-2.2,1.2-3.4,1.9-3.8,1.9c-0.5,0-0.5-0.2-0.5-0.7c0-1.2,1-4.1,3.4-8.6c1-1,3.6-2.9,7.4-5.5c-2.6-1.7-4.3-2.6-5-3.4
		c-1.9-1.7-2.9-3.8-2.9-6.2c0-4.1,2.9-8.9,8.6-14.2c5.3-5,9.6-7.7,12.7-7.7c1.7,0,3.1,0.7,4.3,2.2c1,1.2,1.7,3.1,1.7,5.3
		c0,1.9-0.7,3.8-2.2,6c-1.2,1.7-2.4,2.6-3.4,2.6c-0.2,0-1-0.7-1.7-2.6c-0.7-1.9-1.7-2.6-2.9-2.6c-1.7,0-3.8,0.5-6.5,1.9
		c-2.9,1.4-4.3,2.4-4.3,2.9c0,1.2,1.4,2.6,4.6,4.3c3.6,1.9,7.2,2.9,10.6,2.9c2.2-0.2,5.3-1.7,9.6-3.6c3.6-1.9,6-2.9,6.7-2.9
		C183.5,318.8,184,319,184,319.8L184,319.8L184,319.8L184,319.8z"/>
	<path fill="#635E49" d="M376.5,304.9l3.8-7.7c0.2-0.7,0.5-1,1-1c0.5,0,2.4,1.2,6.2,3.8c3.6,2.6,5.5,4.1,5.5,4.6
		c0,1.7-1.7,5-4.8,10.3c-0.5,0.7-1,0.7-1.4,0.5c-3.1-2.4-6.7-4.8-10.8-7.4c-1.4,2.9-2.6,5.5-4.1,7.7c-0.2,0.7-0.7,1-1.2,0.7
		c-3.6-2.9-7.4-5.5-11.3-7.9c-0.2-0.2-0.2-0.5,0-1l4.6-9.6c0.2-0.5,0.7-1,1-1c0.5,0,2.2,1.2,5.3,3.4
		C373.4,302.2,375.5,303.9,376.5,304.9L376.5,304.9L376.5,304.9L376.5,304.9z M363.3,290c-0.2-0.2-0.2-0.5,0-1l4.8-9.6
		c0.2-0.5,0.5-0.7,1-0.7c0.5,0,2.4,1.2,6.2,3.6c3.6,2.6,5.5,4.1,5.5,4.6c0,1.7-1.7,5-4.8,10.3c-0.5,0.7-1,1-1.4,0.5
		C371,295,367.1,292.4,363.3,290L363.3,290L363.3,290L363.3,290z"/>
	<path fill="#635E49" d="M375.5,255.2c0,1.9-0.5,4.1-1.4,6c-1.2,2.6-2.6,4.1-4.3,4.1c-2.9,0-4.8-1.9-6-5.8c-1.4,4.8-3.8,7.4-7.4,7.4
		c-1.2,0-2.4-0.7-3.4-2.2c-1.2-1.4-1.7-3.6-1.7-6v-6.2c0-0.5-0.5-0.7-1-1c-0.7-0.2-1-0.7-1-1.4c0-1.4,0.5-2.6,1.4-3.8
		c1-1.2,1.7-1.7,2.2-1.7c0.7,0,1.2,1.2,1.2,3.8c0,1.4-0.2,2.6-0.2,3.6c-0.2,1-0.2,1.7-0.2,2.4c0,1.4,0.2,2.9,0.7,4.1
		c0.7,1.4,1.7,2.4,2.6,2.4c1.4,0,2.6-0.7,3.8-1.9c1.2-1.2,1.9-2.6,1.9-4.3c0-1-0.5-2.4-1-4.8c-0.7-2.2-1-3.6-1-4.1
		c0-0.5,0.2-1.2,0.7-2.4c0.5-1,1-1.4,1.2-1.4c0.5,0,1,1.4,1.7,4.3c0.7,3.1,1.2,5.3,1.2,6.7c0,4.1,1.4,6.2,4.6,6.2
		c1.4,0,2.4-0.7,2.6-2.2c-2.6-4.8-4.1-8.4-4.1-11c0-1.4,0.2-2.6,1.2-3.8c0.5-0.7,0.7-1.2,1-1.2c0.2,0,0.5,0.5,0.5,1.4
		c0.2,1.2,0.5,2.4,0.7,3.4c0,0,0.7,1.7,1.9,5C375,252.8,375.5,254.2,375.5,255.2L375.5,255.2L375.5,255.2L375.5,255.2z"/>
	<path fill="#635E49" d="M358,219.2c0.5-1.4,0.5-2.9,0.2-4.3c-0.2-1.4-1-2.2-2.2-2.2c-0.5,0-1.2,0.2-2.2,0.7c-1,0.5-1.4,1-1.4,1.4
		C352.5,216.1,354.4,217.5,358,219.2L358,219.2L358,219.2L358,219.2z M355.1,225.4c-4.6-2.4-6.7-4.8-6.7-7.4c0-3.1,1.4-6,4.3-8.4
		c2.9-2.6,5.3-3.6,7.2-2.9c1.7,0.5,2.4,2.2,2.4,5c0,2.6-0.5,5.5-1.7,8.9c2.4,1.2,3.8,2.4,4.3,3.4c0,1.2-1,3.4-3.1,6.2
		c-0.5-1-1.9-2.2-4.1-3.4c-2.6,3.6-5.8,6.7-9.6,9.6c-4.6,3.1-8.6,5.8-12.2,7.2c-1,0.5-5.3,2.2-13,5c-1.2,0.5-2.2,0.7-2.4,0.7
		c-0.2,0-0.2-0.2-0.2-0.2c0-0.2,0.5-1,1.9-1.7c5.8-3.6,11.5-7,17.5-10.3C346.7,232.9,351.8,229,355.1,225.4L355.1,225.4L355.1,225.4
		L355.1,225.4z"/>
	<path fill="#635E49" d="M261.3,285.2c24.2-9.1,49.4-18.2,75.4-27.8c0.7-0.2,1.2-0.5,1.2-0.2c0.2,0,0.2,0.5,0,1.2
		c-1,2.2-1.7,3.4-2.2,3.8c-0.2,0.2-12.5,4.8-36.2,13.7c-24.2,8.9-37.9,14.4-40.6,16.1C259.4,289.8,260.1,287.6,261.3,285.2
		L261.3,285.2L261.3,285.2L261.3,285.2z"/>
	<path fill="#635E49" d="M319.4,237.7c-1,2.4-1.7,3.8-2.2,4.1c0,0.2-14.2,5.5-42,15.6c-28.6,10.8-45.1,17.3-49.7,19.7
		c-3.6,1.7-5.3,3.1-5.3,3.6c0,0.5,0.5,1,1.7,1.7c1.2,0.5,3.1,1.2,5.8,2.2c0.5,0.2,0.7,1.2,0.7,2.9c0,1.4-0.2,2.4-0.2,2.6
		c-0.2,0.2-0.7,0.2-1.7,0.2c-6-1.2-8.9-3.4-8.9-6.2c0-1.9,0.7-4.1,2.4-6.7c1.7-2.6,3.4-4.6,5-5.8c1.7-1,17.5-7,47.5-18
		c15.1-5.5,30.2-11.3,45.6-16.8c1-0.2,1.4-0.5,1.4-0.2C319.8,236.5,319.6,237,319.4,237.7L319.4,237.7L319.4,237.7L319.4,237.7z"/>
	<path fill="#635E49" d="M140.1,356.7c14.6-5.5,30.2-11.3,46.3-17c0.5-0.2,1-0.5,1-0.2c0.2,0,0.2,0.2,0,1c-0.7,1.7-1.4,2.6-1.7,3.1
		c-13.7,4.8-29.5,11-47.5,18.5C138.4,360.3,139.1,358.6,140.1,356.7L140.1,356.7L140.1,356.7L140.1,356.7z"/>
	<path fill="#635E49" d="M316.2,289c2.9,0,5.3,1.4,7.4,4.8c2.2,3.1,3.8,7.4,4.6,12.7c0.2,0.5,0.2,0.7,0.2,1h0.2c0-0.2,0.2-0.5,0.2-1
		c0.5-3.1,1.7-7.9,3.4-14.2c1.9-4.3,3.8-6.5,6-6.5c1.2,0,2.4,0.7,3.4,2.2s1.4,2.4,1.4,3.4c0,0.5,0,1.4-0.5,2.4
		c-0.5,1.4-1,2.2-1.4,2.2c-0.2,0-0.7-0.7-1.7-1.7c-0.7-1-1.7-1.4-2.6-1.4c-1.9,0-3.6,4.6-5.3,13.7c-0.7,4.1-1.7,7-2.4,8.6
		c-0.7,1-1.2,1.7-1.7,1.7c-0.5,0-0.5-0.7-0.7-1.7c0.2-1.7-0.7-4.8-2.6-9.4c-1.9-4.8-3.1-7-4.1-7c-0.5,0-0.7,0-1,0.5
		c-0.2,0.2-0.5,0.5-1.2,0.5c-1,0-1.9-0.7-3.4-1.9c-1.4-1.2-1.9-2.2-1.9-2.9c0-0.2,0.5-1.4,1.7-3.4C315.3,289.8,316,289,316.2,289
		L316.2,289L316.2,289L316.2,289z"/>
	<path fill="#635E49" d="M262,402.1c4.8,0,9.8-1,15.6-2.6c1.4-0.5,2.2-0.5,2.2-0.2c0,0.2-0.5,0.7-1.7,1.7c-4.8,4.3-11.3,6.7-19,6.7
		c-2.2,0-4.3-0.7-5.8-1.9c-1.4-1.2-2.2-2.9-2.2-4.8c0-5,2.2-10.3,6.5-15.8c-3.8-1.2-5.8-3.1-5.8-6c0-2.6,1.4-5.5,4.6-8.9
		c3.1-3.4,5.5-5,7.4-5c0.5,0,1,0.2,1.4,1.2c0.5,0.7,0.7,1.4,0.7,2.4c0,0.5-0.5,1.4-1.4,2.9c-1,1.4-1.7,1.9-1.7,1.7
		c-0.5-1.4-1.2-2.2-2.6-2.2c-0.7,0-1.4,0.5-2.4,1.7c-1.2,1.2-1.7,2.2-1.7,2.9c1.2,1.9,3.4,3.1,6.2,3.1c1,0,2.6-1,4.6-2.9
		c1.4-1,2.6-2.2,3.8-3.4c0.5-0.2,0.7,0,0.7,1c0,2.4-1,4.6-2.4,7c-6.5,4.3-11.3,9.4-14.4,14.9c-0.5,1.2-0.7,2.2-0.7,2.9
		C254.1,400.6,256.7,402.1,262,402.1L262,402.1L262,402.1L262,402.1z"/>
	<path fill="#635E49" d="M403.6,378.6c2.9,0,5.3,1.4,7.4,4.8c2.2,3.1,3.8,7.4,4.6,12.7c0.2,0.5,0.2,0.7,0.2,1h0.2
		c0-0.2,0.2-0.5,0.2-1c0.5-3.1,1.7-7.9,3.4-14.2c1.9-4.3,3.8-6.5,6-6.5c1.2,0,2.4,0.7,3.4,2.2c1,1.4,1.4,2.4,1.4,3.4
		c0,0.5,0,1.4-0.5,2.4c-0.5,1.4-1,2.2-1.4,2.2c-0.2,0-0.7-0.7-1.7-1.7c-0.7-1-1.7-1.4-2.6-1.4c-1.9,0-3.6,4.6-5.3,13.7
		c-0.7,4.1-1.7,7-2.4,8.6c-0.7,1-1.2,1.7-1.7,1.7c-0.5,0-0.5-0.7-0.7-1.7c0.2-1.7-0.7-4.8-2.6-9.4c-1.9-4.8-3.1-7-4.1-7
		c-0.5,0-0.7,0-1,0.5c-0.2,0.2-0.5,0.5-1.2,0.5c-1,0-1.9-0.7-3.4-1.9c-1.4-1.2-1.9-2.2-1.9-2.9c0-0.2,0.5-1.4,1.7-3.4
		C402.6,379.3,403.4,378.6,403.6,378.6L403.6,378.6L403.6,378.6L403.6,378.6z"/>
	<path fill="#635E49" d="M368.3,395.8c0-0.2,0.2-0.5,0.2-0.5c0.2-0.2,0.2-0.2,0.2,0c0.2,0.2,0.2,0.5,0,0.7
		c-1.2,7.2-3.4,10.8-6.5,10.8c-3.1,0-4.6-2.6-4.6-7.9c0-6.5,1.7-13.4,5.5-20.4c1-1.7,1.4-2.6,1.7-2.6l0,0c0,0.2-0.2,1.2-0.7,2.9
		c-2.4,7.4-3.6,12.5-3.6,15.6c0,3.8,1,6,3.1,6C365.2,400.4,366.6,398.7,368.3,395.8L368.3,395.8L368.3,395.8L368.3,395.8z"/>
	<path fill="#635E49" d="M308.3,379.8c2.9,0,5.3,1.4,7.4,4.8c2.2,3.1,3.8,7.4,4.6,12.7c0.2,0.5,0.2,0.7,0.2,1h0.2
		c0-0.2,0.2-0.5,0.2-1c0.5-3.1,1.7-7.9,3.4-14.2c1.9-4.3,3.8-6.5,6-6.5c1.2,0,2.4,0.7,3.4,2.2c1,1.4,1.4,2.4,1.4,3.4
		c0,0.5,0,1.4-0.5,2.4c-0.5,1.4-1,2.2-1.4,2.2c-0.2,0-0.7-0.7-1.7-1.7c-0.7-1-1.7-1.4-2.6-1.4c-1.9,0-3.6,4.6-5.3,13.7
		c-0.7,4.1-1.7,7-2.4,8.6c-0.7,1-1.2,1.7-1.7,1.7c-0.5,0-0.5-0.7-0.7-1.7c0.2-1.7-0.7-4.8-2.6-9.4c-1.9-4.8-3.1-7-4.1-7
		c-0.5,0-0.7,0-1,0.5c-0.2,0.2-0.5,0.5-1.2,0.5c-1,0-1.9-0.7-3.4-1.9c-1.4-1.2-1.9-2.2-1.9-2.9c0-0.2,0.5-1.4,1.7-3.4
		C307.4,380.5,308.1,379.8,308.3,379.8L308.3,379.8L308.3,379.8L308.3,379.8z"/>
	<path fill="#635E49" d="M393,208.9c2.9,0,5.3,1.4,7.4,4.8c2.2,3.1,3.8,7.4,4.6,12.7c0.2,0.5,0.2,0.7,0.2,1h0.2c0-0.2,0.2-0.5,0.2-1
		c0.5-3.1,1.7-7.9,3.4-14.2c1.9-4.3,3.8-6.5,6-6.5c1.2,0,2.4,0.7,3.4,2.2c1,1.4,1.4,2.4,1.4,3.4c0,0.5,0,1.4-0.5,2.4
		c-0.5,1.4-1,2.2-1.4,2.2c-0.2,0-0.7-0.7-1.7-1.7c-0.7-1-1.7-1.4-2.6-1.4c-1.9,0-3.6,4.6-5.3,13.7c-0.7,4.1-1.7,7-2.4,8.6
		c-0.7,1-1.2,1.7-1.7,1.7c-0.5,0-0.5-0.7-0.7-1.7c0.2-1.7-0.7-4.8-2.6-9.4c-1.9-4.8-3.1-7-4.1-7c-0.5,0-0.7,0-1,0.5
		c-0.2,0.2-0.5,0.5-1.2,0.5c-1,0-1.9-0.7-3.4-1.9c-1.4-1.2-1.9-2.2-1.9-2.9c0-0.2,0.5-1.4,1.7-3.4
		C392.1,209.6,392.8,208.9,393,208.9L393,208.9L393,208.9L393,208.9z"/>
	<path fill="#635E49" d="M416.3,274.4c0-0.2,0.2-0.5,0.2-0.5c0.2-0.2,0.2-0.2,0.2,0c0.2,0.2,0.2,0.5,0,0.7
		c-1.2,7.2-3.4,10.8-6.5,10.8c-3.1,0-4.6-2.6-4.6-7.9c0-6.5,1.7-13.4,5.5-20.4c1-1.7,1.4-2.6,1.7-2.6l0,0c0,0.2-0.2,1.2-0.7,2.9
		c-2.4,7.4-3.6,12.5-3.6,15.6c0,3.8,1,6,3.1,6C413.2,279,414.6,277.3,416.3,274.4L416.3,274.4L416.3,274.4L416.3,274.4z"/>
	<path fill="#635E49" d="M146.8,254.5c2.9,0,5.3,1.4,7.4,4.8c2.2,3.1,3.8,7.4,4.6,12.7c0.2,0.5,0.2,0.7,0.2,1h0.2
		c0-0.2,0.2-0.5,0.2-1c0.5-3.1,1.7-7.9,3.4-14.2c1.9-4.3,3.8-6.5,6-6.5c1.2,0,2.4,0.7,3.4,2.2c1,1.4,1.4,2.4,1.4,3.4
		c0,0.5,0,1.4-0.5,2.4c-0.5,1.4-1,2.2-1.4,2.2c-0.2,0-0.7-0.7-1.7-1.7c-0.7-1-1.7-1.4-2.6-1.4c-1.9,0-3.6,4.6-5.3,13.7
		c-0.7,4.1-1.7,7-2.4,8.6c-0.7,1-1.2,1.7-1.7,1.7c-0.5,0-0.5-0.7-0.7-1.7c0.2-1.7-0.7-4.8-2.6-9.4c-1.9-4.8-3.1-7-4.1-7
		c-0.5,0-0.7,0-1,0.5c-0.2,0.2-0.5,0.5-1.2,0.5c-1,0-1.9-0.7-3.4-1.9c-1.4-1.2-1.9-2.2-1.9-2.9c0-0.2,0.5-1.4,1.7-3.4
		C145.8,255.2,146.6,254.5,146.8,254.5L146.8,254.5L146.8,254.5L146.8,254.5z"/>
	<path fill="#635E49" d="M130.5,299.1c0-0.2,0.2-0.5,0.2-0.5c0.2-0.2,0.2-0.2,0.2,0c0.2,0.2,0.2,0.5,0,0.7
		c-1.2,7.2-3.4,10.8-6.5,10.8c-3.1,0-4.6-2.6-4.6-7.9c0-6.5,1.7-13.4,5.5-20.4c1-1.7,1.4-2.6,1.7-2.6l0,0c0,0.2-0.2,1.2-0.7,2.9
		c-2.4,7.4-3.6,12.5-3.6,15.6c0,3.8,1,6,3.1,6C127.4,303.7,128.8,302,130.5,299.1L130.5,299.1L130.5,299.1L130.5,299.1z"/>
	<path fill="#635E49" d="M233.7,247c-0.7,1.2-1,1.9-1.4,1.9c-0.5,0-0.5-1-0.2-2.4c0.2-1.2,0.5-3.1,0.5-5c0-7-3.8-13.7-11.8-20.6
		c-0.5-0.2-0.5-1,0-1.4l2.2-3.8c0.2-0.5,0.5-0.5,1,0c7.7,5.5,11.5,13.2,11.5,22.8C235.4,241.5,234.6,244.4,233.7,247L233.7,247
		L233.7,247L233.7,247z"/>
	<path fill="#635E49" d="M266.1,211.8c2.9,0,5.3,1.4,7.4,4.8c2.2,3.1,3.8,7.4,4.6,12.7c0.2,0.5,0.2,0.7,0.2,1h0.2
		c0-0.2,0.2-0.5,0.2-1c0.5-3.1,1.7-7.9,3.4-14.2c1.9-4.3,3.8-6.5,6-6.5c1.2,0,2.4,0.7,3.4,2.2c1,1.4,1.4,2.4,1.4,3.4
		c0,0.5,0,1.4-0.5,2.4c-0.5,1.4-1,2.2-1.4,2.2c-0.2,0-0.7-0.7-1.7-1.7c-0.7-1-1.7-1.4-2.6-1.4c-1.9,0-3.6,4.6-5.3,13.7
		c-0.7,4.1-1.7,7-2.4,8.6c-0.7,1-1.2,1.7-1.7,1.7c-0.5,0-0.5-0.7-0.7-1.7c0.2-1.7-0.7-4.8-2.6-9.4c-1.9-4.8-3.1-7-4.1-7
		c-0.5,0-0.7,0-1,0.5c-0.2,0.2-0.5,0.5-1.2,0.5c-1,0-1.9-0.7-3.4-1.9c-1.4-1.2-1.9-2.2-1.9-2.9c0-0.2,0.5-1.4,1.7-3.4
		C265.1,212.5,265.8,211.8,266.1,211.8L266.1,211.8L266.1,211.8L266.1,211.8z"/>
	<path fill="#635E49" d="M646.5,317.8c1.2-1,2.2-1.4,2.9-1.4c0.5,0,0.7,0.5,0.7,1.4c0,0.7-0.2,2.2-0.7,4.1c-0.5,1.9-0.7,3.4-0.7,4.6
		c0,5.3,3.8,8.2,11.3,8.2c6,0,11-2.6,14.9-7.7c2.4-4.1,5-7.9,7.4-11.8c1-1,1.7-1.4,2.4-1.4c1,0,1.2,1,0.7,3.1c-1,4.1-1.7,6-1.7,5.5
		c0,1.7,1,3.4,2.9,4.8c1.7,1.4,4.1,2.4,6.7,2.4c3.4,0,5.5-1,6.5-2.6c0-0.2-1-2.2-3.1-5.8c0.2-1.9,1.2-5.3,2.6-9.8
		c0.2-1.4,0.7-2.2,1.2-2.2c0.5,0,1,0.2,1.7,1.2c1.9,2.9,3.1,6.2,3.1,10.1c0,6-1.4,11-4.1,15.4c-2.9,5.3-7.2,7.9-13,7.9
		c-3.8,0-7.4-3.1-10.6-8.9c-5.3,9.6-12.2,14.4-20.6,14.4c-10.1,0-14.9-5.8-14.9-16.8c-3.8,4.6-10.3,8.6-18.7,12.5v-13.2
		c6.2-3.1,10.3-5,11.5-5.8C638.8,324.1,642.6,321.2,646.5,317.8L646.5,317.8L646.5,317.8L646.5,317.8z"/>
	<path fill="#635E49" d="M609.8,333.7c-3.6-4.6-6.7-6.7-9.6-6.7c-4.3,0-6.2,1-6.2,3.4c0,2.9,2.9,4.3,8.6,4.3
		C604.7,334.6,607.1,334.2,609.8,333.7L609.8,333.7L609.8,333.7L609.8,333.7z M617.2,351.2c0-1.4-0.5-3.1-1-4.8
		c-2.9,1-7.2,1.7-12.5,1.7c-11.5,0-17.3-4.1-17.3-12c0-6,1.7-11.3,5.5-16.1c3.6-4.1,7.4-6.2,11.5-6.2c3.1,0,6.2,1.9,9.8,5.5
		c3.1,3.6,6,7.7,8.4,12.7c0.2,0,0.7,0,1.7-0.5v13.2l-0.5,0.5c0,2.9-0.7,6.2-2.2,10.6c-1.7,5.5-4.3,10.1-7.4,13.7
		c-7.2,8.6-15.1,16.1-23.8,22.6c-13,9.6-24,14.6-33.6,14.6c-8.2,0-14.4-3.1-18.7-9.1c-3.8-5-5.8-11.8-5.8-19.7
		c0-10.1,2.2-20.4,6.2-31.2c1.2-2.4,1.7-3.4,2.2-3.4c0.2,0,0.2,0.2,0.2,0.7c0,0.7-0.2,1.9-0.5,3.4c-3.1,10.6-4.6,18.5-4.6,24
		c0,5,1.2,9.4,3.6,13c3.8,5,9.8,7.7,18.2,7.7c7.2,0,15.8-3.1,26.2-9.4c8.2-5,16.1-11,23.8-18.2C613.6,357.7,617.2,353.4,617.2,351.2
		L617.2,351.2L617.2,351.2L617.2,351.2z"/>
	<path fill="#635E49" d="M551.7,315c-0.5-2.2-1.2-3.8-2.2-5c-0.7-1.4-1.2-2.2-1.4-2.6c0-0.5,0-2.2,0.5-5.5c0.5-3.1,0.7-5.3,1.2-6.5
		c0.2-1.2,0.5-1.7,1-1.7c0.2,0,0.5,0.2,1,0.7c3.4,3.8,7,7.7,11,11.8c1.7,1.7,2.4,2.6,2.4,3.1c0,0.2-0.2,0.5-0.7,0.5
		c-0.7,0-2.6-0.5-5.5-1.2c1.7,4.1,3.6,8.2,5.3,12c2.6,6.7,4.1,12.2,4.1,17.3c0,2.4-0.5,5.3-1.4,8.9c-1.2,4.1-2.6,7.2-4.6,9.4
		c-7,7.9-18.7,16.6-35.3,25.9c-14.4,8.4-22.8,12.5-25.4,12.5c-0.5,0-7.7,1.7-21.4,5c-14.4,3.4-23.5,5.5-27.1,6c-3.8,0.7-6.2,1-7.2,1
		c-0.5,0-0.5,0-0.5-0.2c0-0.2,2.6-1.7,7.9-4.1c1.9-1,13-5.8,33.4-14.4c14.2-6,25.9-11.5,35.3-16.6c14.2-7.7,25-14.4,32.4-19.9
		c5.5-4.3,8.4-7.4,8.4-9.4c0-0.5-1.4-3.8-4.3-10.1C555.3,324.8,552.9,319,551.7,315L551.7,315L551.7,315L551.7,315z"/>
	<path fill="#635E49" d="M532,281.6c0,3.8-1.9,9.1-5.8,15.6c-2.4,4.1-6,9.6-10.8,16.8c4.8,5.5,8.2,10.6,9.8,14.9
		c1,3.1,1.7,7.2,1.7,11.8c0,1.9-0.5,4.3-1.4,7.4c-0.7,2.9-1.7,5-2.6,6.5c-1.9,2.9-5,5.8-9.8,8.6c-5,3.4-9.4,5-13,5
		c-5.8,0-8.6-4.3-8.6-13c0-5.8,1-11.5,2.9-16.8c1.9-4.6,5-10.6,10.1-18.5c-4.3-4.1-8.9-9.8-13.9-17c-0.5-0.7-1.7-1.9-3.6-3.8
		c-1-1-1.4-2.2-1.4-3.6c0-2.2,0.2-4.6,0.7-7.4c0.7-2.9,1.2-4.1,1.4-4.1c0.7,0,2.9,1.2,7,3.8c3.8,2.6,7,4.6,8.9,6.2
		c1.2,0.7,1.7,1.4,1.7,1.4v0.2c0,0.2-0.7,0.5-2.4,0.5c-3.1,0-4.8,0.2-4.8,0.5c0,0.2,0.5,0.7,1.4,1.9c3.8,4.8,7.7,8.4,11.8,11.3
		c1-1.4,4.3-6.2,9.6-14.4c4.6-7,7.2-11.8,8.4-14.6c1.2-2.9,1.9-4.1,2.4-4.1C531.8,276.8,532,278.2,532,281.6L532,281.6L532,281.6
		L532,281.6z M522.6,340.6c-2.6-5.3-7.2-10.8-13.4-16.1c-2.2,2.2-4.8,6.2-8.2,12c-3.8,6.5-5.5,10.6-5.5,12.7c0,2.9,1.9,4.3,6.2,4.3
		c1.9,0,4.3-0.7,7.4-1.9c4.3-1.9,8.4-4.6,11.8-7.9C522.4,342.3,522.9,341.4,522.6,340.6L522.6,340.6L522.6,340.6L522.6,340.6z"/>
	<path fill="#635E49" d="M509.2,263.6l3.8-7.9c0.2-0.5,0.5-0.7,1-0.7c0.5,0,2.4,1.2,6.2,3.8c3.6,2.4,5.5,3.8,5.5,4.3
		c0,1.7-1.7,5.3-4.8,10.6c-0.5,0.7-1,0.7-1.4,0.5c-3.1-2.4-6.7-4.8-10.8-7.4c-1.4,2.9-2.6,5.5-4.1,7.7c-0.2,0.7-0.7,1-1.2,0.7
		c-3.6-2.9-7.4-5.5-11.3-7.9c-0.2-0.2-0.2-0.5,0-1l4.6-9.6c0.2-0.5,0.7-1,1-1c0.5,0,2.2,1.2,5.3,3.4
		C506.1,261,508.2,262.6,509.2,263.6L509.2,263.6L509.2,263.6L509.2,263.6z"/>
	<path fill="#635E49" d="M635.7,397.3c-2.6,0.7-4.1,1.2-4.6,1.2v-0.2c0,0,1-0.7,2.9-1.9c1.9-1.2,4.8-3.1,8.9-6.2
		c1.9-1.9,4.8-5,8.4-9.4c2.4-2.9,5-5.5,7.9-7.4c3.6-2.6,7-3.8,10.6-3.8c0.7,0,1.9,0.2,3.4,0.7c1.2,0.5,2.4,0.7,3.4,0.7
		c1.9,0,3.4-0.7,4.6-2.2c0.7-1.4,1.7-2.6,2.6-4.1c0.5-1,1.2-1.4,1.7-1.4c0.2,0,0.2,0.2,0.2,0.7c0,0.5-0.2,1.7-0.7,3.1
		c-0.5,0.7,1.4,1,5,1c0.5,0,0.7,0,0.7-0.2c0,0-0.2-1-0.7-2.6c-0.2-0.5,0-1.2,0.7-2.2c1-1.7,1.4-2.4,1.7-2.2c1,0.7,1.4,2.2,1.4,3.8
		c0,1.7-0.5,3.4-1.2,5.3c-0.7,2.2-1.4,3.4-1.9,3.8c-1.7,1-4.3,0.7-7.9-1c-2.9,2.9-5.8,4.6-8.6,4.6c-0.7,0-1.9-0.2-3.1-0.7
		c-1.2-0.5-2.2-0.7-2.9-0.7c-4.8,0-9.8,2.2-14.9,7c-3.6,3.6-7.2,7.2-10.8,10.8C640.2,395.4,638.1,396.6,635.7,397.3L635.7,397.3
		L635.7,397.3L635.7,397.3z"/>
	<path fill="#635E49" d="M584.3,267.7c2.9,0,5.3,1.4,7.4,4.8c2.2,3.1,3.8,7.4,4.6,12.7c0.2,0.5,0.2,0.7,0.2,1h0.2
		c0-0.2,0.2-0.5,0.2-1c0.5-3.1,1.7-7.9,3.4-14.2c1.9-4.3,3.8-6.5,6-6.5c1.2,0,2.4,0.7,3.4,2.2c1,1.4,1.4,2.4,1.4,3.4
		c0,0.5,0,1.4-0.5,2.4c-0.5,1.4-1,2.2-1.4,2.2c-0.2,0-0.7-0.7-1.7-1.7c-0.7-1-1.7-1.4-2.6-1.4c-1.9,0-3.6,4.6-5.3,13.7
		c-0.7,4.1-1.7,7-2.4,8.6c-0.7,1-1.2,1.7-1.7,1.7c-0.5,0-0.5-0.7-0.7-1.7c0.2-1.7-0.7-4.8-2.6-9.4c-1.9-4.8-3.1-7-4.1-7
		c-0.5,0-0.7,0-1,0.5c-0.2,0.2-0.5,0.5-1.2,0.5c-1,0-1.9-0.7-3.4-1.9c-1.4-1.2-1.9-2.2-1.9-2.9c0-0.2,0.5-1.4,1.7-3.4
		C583.4,268.4,584.1,267.7,584.3,267.7L584.3,267.7L584.3,267.7L584.3,267.7z"/>
	<path fill="#635E49" d="M543.5,264.8c24.2-9.1,49.4-18.2,75.4-27.8c0.7-0.2,1.2-0.5,1.2-0.2c0.2,0,0.2,0.5,0,1.2
		c-1,2.2-1.7,3.4-2.2,3.8c-0.2,0.2-12.5,4.8-36.2,13.7c-24.2,8.9-37.9,14.4-40.6,16.1C541.6,269.4,542.3,267.2,543.5,264.8
		L543.5,264.8L543.5,264.8L543.5,264.8z"/>
	<path fill="#635E49" d="M520,220.9c0.5-1.4,0.5-2.9,0.2-4.3c-0.2-1.4-1-2.2-2.2-2.2c-0.5,0-1.2,0.2-2.2,0.7c-1,0.5-1.4,1-1.4,1.4
		C514.5,217.8,516.4,219.2,520,220.9L520,220.9L520,220.9L520,220.9z M517.1,227.1c-4.6-2.4-6.7-4.8-6.7-7.4c0-3.1,1.4-6,4.3-8.4
		c2.9-2.6,5.3-3.6,7.2-2.9c1.7,0.5,2.4,2.2,2.4,5c0,2.6-0.5,5.5-1.7,8.9c2.4,1.2,3.8,2.4,4.3,3.4c0,1.2-1,3.4-3.1,6.2
		c-0.5-1-1.9-2.2-4.1-3.4c-2.6,3.6-5.8,6.7-9.6,9.6c-4.6,3.1-8.6,5.8-12.2,7.2c-1,0.5-5.3,2.2-13,5c-1.2,0.5-2.2,0.7-2.4,0.7
		c-0.2,0-0.2-0.2-0.2-0.2c0-0.2,0.5-1,1.9-1.7c5.8-3.6,11.5-7,17.5-10.3C508.7,234.6,513.8,230.7,517.1,227.1L517.1,227.1
		L517.1,227.1L517.1,227.1z"/>
	<path fill="#635E49" d="M668.8,256.9c0.5-1.4,0.5-2.9,0.2-4.3c-0.2-1.4-1-2.2-2.2-2.2c-0.5,0-1.2,0.2-2.2,0.7c-1,0.5-1.4,1-1.4,1.4
		C663.3,253.8,665.2,255.2,668.8,256.9L668.8,256.9L668.8,256.9L668.8,256.9z M674.1,265.8c-2.4,5.8-3.6,10.3-3.6,13.7
		c0,4.1,1,6.2,3.1,6.2c1.2,0,2.6-1.7,4.3-4.6c0.2-0.2,0.2-0.5,0.5-0.7c0,0,0.2,0,0.2,0.2c0,0,0,0.2,0,0.7
		c-1.4,7.2-3.6,10.8-6.5,10.8c-3.1,0-4.6-2.6-4.6-7.9c0-2.6,0.5-6,1.9-10.3c1.4-4.3,2.2-6.5,2.2-6.7c0-0.5-1-1.4-3.1-2.6
		c-3.8,5-9.1,9.8-15.8,13.9c-4.6,2.6-9.1,5-13.9,7c-8.9,3.6-14.2,5.5-15.4,6.2c-1.2,0.5-1.9,0.7-2.4,0.7c-0.2,0-0.2-0.2-0.2-0.2
		c0-0.5,0.5-1,1.9-1.9c7.7-4.3,15.1-8.6,22.8-13c10.1-5.8,17-10.6,20.4-14.2c-4.6-2.4-6.7-4.8-6.7-7.4c0-3.1,1.4-6,4.3-8.6
		c2.9-2.4,5.3-3.4,7.2-2.6c1.4,0.5,2.4,2.2,2.4,5c0,2.6-0.5,5.5-1.7,8.6c2.4,1.4,3.4,2.9,3.4,4.3
		C674.8,263.1,674.6,264.3,674.1,265.8L674.1,265.8L674.1,265.8L674.1,265.8z"/>
	<path fill="#635E49" d="M561.5,234.3c0-0.2,0.2-0.5,0.2-0.5c0.2-0.2,0.2-0.2,0.2,0c0.2,0.2,0.2,0.5,0,0.7
		c-1.2,7.2-3.4,10.8-6.5,10.8s-4.6-2.6-4.6-7.9c0-6.5,1.7-13.4,5.5-20.4c1-1.7,1.4-2.6,1.7-2.6l0,0c0,0.2-0.2,1.2-0.7,2.9
		c-2.4,7.4-3.6,12.5-3.6,15.6c0,3.8,1,6,3.1,6C558.4,238.9,559.8,237.2,561.5,234.3L561.5,234.3L561.5,234.3L561.5,234.3z"/>
</g>
</svg>
