<?xml version="1.0" encoding="utf-8"?>
<!-- Generator: Adobe Illustrator 18.1.1, SVG Export Plug-In . SVG Version: 6.00 Build 0)  -->
<!DOCTYPE svg PUBLIC "-//W3C//DTD SVG 1.1//EN" "http://www.w3.org/Graphics/SVG/1.1/DTD/svg11.dtd">
<svg version="1.1" id="Layer_1" xmlns="http://www.w3.org/2000/svg" xmlns:xlink="http://www.w3.org/1999/xlink" x="0px" y="0px"
	 viewBox="0 0 792 612" enable-background="new 0 0 792 612" xml:space="preserve">
<g>
	<path fill="#635E49" d="M405.4,226.8c0-4.8-0.7-8.6-2.2-11.8c0-1.7,1.2-5.8,4.1-12c0.2-0.7,0.5-1.2,0.7-1.2c0.5,0,0.7,0.5,1.2,1.2
		c0.7,1.7,2.4,6.2,5.3,13.7c3.1,7.9,4.8,12.7,5.3,14.6c0.5,1.2,0.5,2.4,0.5,2.9c0,2.2-1.9,1-6.2-3.8c-0.5-0.7-0.7-0.2-0.7,1
		c0,0.5,1.2,15.4,3.4,45.1c2.2,29.5,3.1,46.1,3.1,49.9c0,11.3-1.7,21.4-5,30c-1,1.7-1.4,2.9-1.9,3.8l0,0c-0.7,1.2-1,1.2-1.2,0.5
		c-0.2-1,0-2.9,0.2-5.5c0.5-4.1,0.7-8.6,0.7-13.7c0-4.8-1.2-24-3.6-57.8C406.6,249.8,405.4,230.9,405.4,226.8L405.4,226.8
		L405.4,226.8L405.4,226.8z"/>
	<path fill="#635E49" d="M373.8,336.2V323c9.6-4.1,14.4-10.3,14.4-18.7c0-4.3-1-18-2.6-40.8c-1.7-23-2.4-36.7-2.4-40.8
		c0-4.6-0.7-8.4-2.2-11.5c0-1.7,1.4-5.8,4.1-12.2c0.2-0.7,0.7-1,1-1c0.2,0,0.5,0.2,1,1c0.7,1.9,2.6,6.5,5.5,13.9
		c2.9,7.7,4.6,12.5,5.3,14.4c0.2,1.4,0.5,2.4,0.5,3.1c0,2.2-2.2,0.7-6.2-4.1c-0.5-0.5-0.7-0.2-0.7,1c0,0.2,0.7,10.1,2.2,29.3
		c1.4,19,2.2,31,2.2,36c0,7.9-1.4,15.6-4.3,23C387.4,325.9,381.4,332.9,373.8,336.2L373.8,336.2L373.8,336.2L373.8,336.2z"/>
	<path fill="#635E49" d="M358.2,311.8c1-0.5,1-1.4,0-2.6c-5-6.2-11.5-9.4-19.4-9.4c-8.2,0-18,4.6-29.8,14.2
		c-7.7,6.2-15.4,13.7-23,22.6c16.6-4.6,28.6-8.2,36.5-10.6C338,320.9,350,316.1,358.2,311.8L358.2,311.8L358.2,311.8L358.2,311.8z
		 M281.1,337.4c3.6-4.6,7.9-10.6,13.2-17.5c1-1.4,1.7-3.4,1.9-6.2c0,0,0-5.3,0-15.8c0-1.9-0.7-11.8-1.9-29
		c-1.2-17.3-1.7-27.1-1.7-29.8c0-4.6-1-8.4-2.4-11.5c0-1.7,1.4-5.8,4.1-12.2c0.2-0.7,0.7-1,1-1c0.2,0,0.5,0.2,1,1.2
		c0.7,1.7,2.4,6.2,5.3,13.7c3.1,7.9,4.8,12.7,5.3,14.4c0.5,1.4,0.7,2.4,0.7,3.1c0,2.2-2.2,1-6.2-3.8c-0.5-0.5-0.7-0.2-0.7,1
		c0,0,0.5,6,1.4,17.3c1,11.5,1.4,18.7,1.4,21.4c0,7.4-1.2,17.8-3.1,31.2c10.8-10.6,17.3-16.8,19.4-18.7c8.2-6.2,15.8-9.4,23.3-9.4
		c6,0,11.8,2.4,17.5,7c5,4.3,7.4,7.4,7.4,9.8c0,6-2.4,12-7.2,18c-2.4,2.9-7.2,6-14.4,9.4c12-1.9,21.1-4.3,27.4-7V336
		c-3.6,1.7-10.1,3.1-19.7,5c-16.1,2.6-33.6,4.1-53,4.1l-26.4,7.9v-13.2C276.1,339.4,278.2,338.6,281.1,337.4L281.1,337.4
		L281.1,337.4L281.1,337.4z"/>
	<path fill="#635E49" d="M261,341.8c-3.6-4.6-6.7-6.7-9.6-6.7c-4.3,0-6.2,1-6.2,3.4c0,2.9,2.9,4.3,8.6,4.3
		C255.9,342.7,258.3,342.2,261,341.8L261,341.8L261,341.8L261,341.8z M268.4,359.3c0-1.4-0.5-3.1-1-4.8c-2.9,1-7.2,1.7-12.5,1.7
		c-11.5,0-17.3-4.1-17.3-12c0-6,1.7-11.3,5.5-16.1c3.6-4.1,7.4-6.2,11.5-6.2c3.1,0,6.2,1.9,9.8,5.5c3.1,3.6,6,7.7,8.4,12.7
		c0.2,0,0.7,0,1.7-0.5v13.2l-0.5,0.5c0,2.9-0.7,6.2-2.2,10.6c-1.7,5.5-4.3,10.1-7.4,13.7c-7.2,8.6-15.1,16.1-23.8,22.6
		c-13,9.6-24,14.6-33.6,14.6c-8.2,0-14.4-3.1-18.7-9.1c-3.8-5-5.8-11.8-5.8-19.7c0-10.1,2.2-20.4,6.2-31.2c1.2-2.4,1.7-3.4,2.2-3.4
		c0.2,0,0.2,0.2,0.2,0.7c0,0.7-0.2,1.9-0.5,3.4c-3.1,10.6-4.6,18.5-4.6,24c0,5,1.2,9.4,3.6,13c3.8,5,9.8,7.7,18.2,7.7
		c7.2,0,15.8-3.1,26.2-9.4c8.2-5,16.1-11,23.8-18.2C264.8,365.8,268.4,361.4,268.4,359.3L268.4,359.3L268.4,359.3L268.4,359.3z"/>
	<path fill="#635E49" d="M162.1,348.2c10.1,0,22.6-4.8,37.4-14.4c9.4-6.2,16.6-11.8,21.8-16.6c1-1.2,1.7-2.2,1.7-3.1s-0.7-2.6-2.2-5
		c-2.9-4.8-7-11.8-12-21.1c-1.2-1.9-2.6-4.6-4.1-7.7c-0.2-0.5,0-2.2,0.5-5.5c0.5-3.1,0.7-5.3,1-6.5c0.2-1.2,0.7-1.7,1-1.7
		c0.5,0,0.7,0.2,1.2,0.7c3.1,3.8,6.7,7.7,10.8,11.8c1.7,1.7,2.6,2.6,2.6,3.1c0,0.5-0.2,0.5-1,0.5c-0.5,0-2.4-0.2-5.3-1.2
		c2.2,3.8,5.5,9.8,9.8,18.2c1.2,2.6,1.7,5.8,1.7,9.1c0,4.3-1,8.9-2.9,13.7c-1.7,4.1-3.4,7-5,8.6c-5,5.3-12.5,11.3-22.1,17.5
		c-13.9,9.1-25.4,13.7-34.6,13.7c-8.4,0-14.6-3.8-18.5-11.3c-2.9-5-4.1-10.8-4.1-17.5c0-10.1,2.2-20.6,6.2-31.2
		c1-2.4,1.7-3.4,2.2-3.4c0.2,0,0.2,0.2,0.2,0.7c0,0.7-0.2,1.7-0.7,3.4c-2.9,10.3-4.3,18.5-4.3,23.8c0,4.8,1.4,9.4,4.6,13.7
		C151.8,345.6,156.6,348.2,162.1,348.2L162.1,348.2L162.1,348.2L162.1,348.2z"/>
	<path fill="#635E49" d="M360.8,260.9c0,1.9-0.5,4.1-1.4,6c-1.2,2.6-2.6,4.1-4.3,4.1c-2.9,0-4.8-1.9-6-5.8c-1.4,4.8-3.8,7.4-7.4,7.4
		c-1.2,0-2.4-0.7-3.4-2.2c-1.2-1.4-1.7-3.6-1.7-6v-6.2c0-0.5-0.5-0.7-1-1c-0.7-0.2-1-0.7-1-1.4c0-1.4,0.5-2.6,1.4-3.8
		c1-1.2,1.7-1.7,2.2-1.7c0.7,0,1.2,1.2,1.2,3.8c0,1.4-0.2,2.6-0.2,3.6c-0.2,1-0.2,1.7-0.2,2.4c0,1.4,0.2,2.9,0.7,4.1
		c0.7,1.4,1.7,2.4,2.6,2.4c1.4,0,2.6-0.7,3.8-1.9c1.2-1.2,1.9-2.6,1.9-4.3c0-1-0.5-2.4-1-4.8c-0.7-2.2-1-3.6-1-4.1s0.2-1.2,0.7-2.4
		c0.5-1,1-1.4,1.2-1.4c0.5,0,1,1.4,1.7,4.3c0.7,3.1,1.2,5.3,1.2,6.7c0,4.1,1.4,6.2,4.6,6.2c1.4,0,2.4-0.7,2.6-2.2
		c-2.6-4.8-4.1-8.4-4.1-11c0-1.4,0.2-2.6,1.2-3.8c0.5-0.7,0.7-1.2,1-1.2c0.2,0,0.5,0.5,0.5,1.4c0.2,1.2,0.5,2.4,0.7,3.4
		c0,0,0.7,1.7,1.9,5C360.3,258.5,360.8,259.9,360.8,260.9L360.8,260.9L360.8,260.9L360.8,260.9z"/>
	<path fill="#635E49" d="M352.6,217.9c0.5-1.4,0.5-2.9,0.2-4.3c-0.2-1.4-1-2.2-2.2-2.2c-0.5,0-1.2,0.2-2.2,0.7c-1,0.5-1.4,1-1.4,1.4
		C347.1,214.8,349,216.2,352.6,217.9L352.6,217.9L352.6,217.9L352.6,217.9z M349.8,224.2c-4.6-2.4-6.7-4.8-6.7-7.4
		c0-3.1,1.4-6,4.3-8.4c2.9-2.6,5.3-3.6,7.2-2.9c1.7,0.5,2.4,2.2,2.4,5c0,2.6-0.5,5.5-1.7,8.9c2.4,1.2,3.8,2.4,4.3,3.4
		c0,1.2-1,3.4-3.1,6.2c-0.5-1-1.9-2.2-4.1-3.4c-2.6,3.6-5.8,6.7-9.6,9.6c-4.6,3.1-8.6,5.8-12.2,7.2c-1,0.5-5.3,2.2-13,5
		c-1.2,0.5-2.2,0.7-2.4,0.7c-0.2,0-0.2-0.2-0.2-0.2c0-0.2,0.5-1,1.9-1.7c5.8-3.6,11.5-7,17.5-10.3
		C341.4,231.6,346.4,227.8,349.8,224.2L349.8,224.2L349.8,224.2L349.8,224.2z"/>
	<path fill="#635E49" d="M318.6,391c0,1-0.5,2.2-1.4,4.1c-1,2.2-1.9,3.6-2.9,4.1c-7.2,5-14.9,7.7-23.5,7.7c-1.4,0-3.6-0.7-6.5-1.7
		c-2.6-1-4.3-1.9-5.3-2.6c-0.2-0.2-0.5-0.5-1-1c-0.5-0.5-0.5-0.5-0.2-0.7c0,0,0.7,0,1.9,0.2c4.3,0.5,9.1,0.2,13.9-0.7
		c1.7-1,3.4-2.6,5-4.8c2.4-7.4,3.8-11.5,3.8-11.8c0-1.4-0.5-2.6-1.2-3.8c-0.5-1-1.2-1.4-1.9-1.4c-1.7,0-2.9,0.5-4.3,1.9
		c-0.7,0.7-1,1-1.2,1c0,0,0-0.5,0-1.7c0-2.2,0.7-3.8,2.2-5.5c1.7-1.4,3.1-2.2,4.6-2.2c3.4,0,5.3,2.4,5.3,7.4c0,3.4-1.7,8.2-4.8,13.9
		c4.8-4.3,8.9-6.5,11.8-6.5c1,0,1.9,0.2,3.4,1C317.8,388.8,318.6,390,318.6,391L318.6,391L318.6,391L318.6,391z M313,394.3
		c0-0.5-0.2-0.7-1-1.2c-0.7-0.5-1.4-0.5-2.2-0.5c-1.2,0-2.9,0.7-5.5,2.4c-2.6,1.9-4.6,3.4-5.5,4.8c2.4-0.2,5.5-1.2,9.1-2.9
		C311.4,395.5,313,394.6,313,394.3L313,394.3L313,394.3L313,394.3z"/>
	<path fill="#635E49" d="M398.2,356.2c0,0.5-0.2,1.4-0.7,2.4c-0.2,1.4-0.7,2.2-1.4,2.2c-0.2,0-0.7-0.7-1.7-1.7
		c-0.7-1-1.7-1.4-2.4-1.4c-1.9,0-3.8,4.6-5.5,13.7c-0.7,4.1-1.4,7-2.4,8.6c-0.7,1-1.2,1.7-1.7,1.7c-0.2,0-0.5-0.7-0.5-1.7
		c0-1.7-1-4.8-2.9-9.4c-1.9-4.8-3.1-7-3.8-7c-0.7,0-1,0-1.2,0.5c0,0.2-0.5,0.5-1.2,0.5c-1,0-1.9-0.7-3.4-1.9
		c-1.2-1.2-1.9-2.2-1.9-2.9c0-0.2,0.5-1.4,1.7-3.4c1.2-1.9,1.9-2.6,2.2-2.6c2.6,0,5,1.4,7.2,4.8c2.4,3.4,3.8,7.4,4.8,12.7
		c0,0.5,0,0.7,0,1c0.2,0.2,0.2,0.2,0.2,0c0-0.2,0.2-0.5,0.5-1c0.2-3.1,1.4-7.9,3.1-14.2c1.9-4.3,3.8-6.5,6-6.5
		c1.2,0,2.4,0.7,3.6,2.2C397.8,354.2,398.2,355.2,398.2,356.2L398.2,356.2L398.2,356.2L398.2,356.2z M382.4,383.8
		c-1.7,3.8-5,7.7-10.1,11.3c-4.6,3.4-8.6,5.8-12.2,7.4c-0.7,0.5-5,2.2-13,5c-1.2,0.5-1.9,0.7-2.4,0.7c-0.2,0-0.2-0.2-0.2-0.2
		c0-0.2,0.7-1,1.9-1.7c6.5-3.8,15.6-9.4,27.6-17.3c2.9-2.2,5-4.3,6.7-6.2c1.9-2.2,2.9-3.4,3.1-3.4c0,0,0,0,0,0.2
		C383.8,379.9,383.4,381.4,382.4,383.8L382.4,383.8L382.4,383.8L382.4,383.8z"/>
	<path fill="#635E49" d="M346.4,361.2c0,2.6-1.2,5.5-3.1,8.6c-2.2,3.1-4.8,6-8.2,8.4c-1.4,1-2.2,1.4-2.4,1.4v-0.2
		c0-0.2,0.5-0.7,1.4-1.9c5.5-6,8.4-9.8,8.4-12c0-1.7-1-2.6-2.6-2.6c-1,0-1.9,0.2-2.6,0.7c-0.7,0.2-1,0.5-1.2,0.5c0,0-0.2,0-0.2-0.2
		c0,0,0-0.5,0.2-1.4c1-4.1,2.9-6,6.2-6C345,356.4,346.4,358.1,346.4,361.2L346.4,361.2L346.4,361.2L346.4,361.2z"/>
	<path fill="#635E49" d="M154.6,290.6c0-0.2,0.2-0.5,0.2-0.5c0.2-0.2,0.2-0.2,0.2,0c0.2,0.2,0.2,0.5,0,0.7
		c-1.2,7.2-3.4,10.8-6.5,10.8c-3.1,0-4.6-2.6-4.6-7.9c0-6.5,1.7-13.4,5.5-20.4c1-1.7,1.4-2.6,1.7-2.6l0,0c0,0.2-0.2,1.2-0.7,2.9
		c-2.4,7.4-3.6,12.5-3.6,15.6c0,3.8,1,6,3.1,6C151.5,295.2,153,293.5,154.6,290.6L154.6,290.6L154.6,290.6L154.6,290.6z"/>
	<path fill="#635E49" d="M196.9,369.8c9.6-3.4,19.9-7.2,31-11c1-0.2,1.2-0.5,1.4-0.2c0.2,0,0.2,0.5-0.2,1.2
		c-0.7,2.2-1.4,3.4-1.9,3.8c-9.6,3.4-20.4,7.4-32.6,13C195,374.4,195.7,372.2,196.9,369.8L196.9,369.8L196.9,369.8L196.9,369.8z"/>
	<path fill="#635E49" d="M271.5,219.1c0,0.5-0.2,1.4-0.5,2.4c-0.5,1.4-1,2.2-1.7,2.2c-0.2,0-0.7-0.7-1.7-1.7c-0.7-1-1.7-1.4-2.4-1.4
		c-1.9,0-3.8,4.6-5.5,13.7c-0.7,4.1-1.4,6.7-2.4,8.4c-0.7,1.2-1.2,1.7-1.7,1.7c-0.2,0-0.5-0.5-0.5-1.4c0-1.7-1-4.8-2.9-9.4
		c-1.7-4.8-3.1-7-3.8-7c-0.5,0-1,0-1,0.5c-0.2,0.2-0.7,0.5-1.4,0.5c-1,0-2.2-0.7-3.6-1.9c-1.4-1.4-1.9-2.4-1.7-2.9
		c2.2-4.1,3.4-6,3.8-6c2.6,0,5.3,1.4,7.4,4.8c2.2,3.1,3.6,7.4,4.6,12.5c0,0.7,0,1,0,1c0.2,0.2,0.2,0.2,0.2,0c0,0,0.2-0.2,0.5-1
		c0.5-2.9,1.4-7.7,3.1-13.9c1.9-4.3,3.8-6.5,6.2-6.5c1,0,2.2,0.7,3.4,2.2C271,217.2,271.5,218.2,271.5,219.1L271.5,219.1
		L271.5,219.1L271.5,219.1z M240.8,222.7c0.5-1,1-1.4,1.2-1.4c0,0,0.2,0.2,0,0.2c0.2,0.7-0.5,2.4-1.9,5c-2.4,4.6-5.8,8.2-10.1,11.3
		c-4.6,3.4-8.6,5.8-12.2,7.4c-0.7,0.5-5,2.2-13,5c-1.2,0.5-1.9,0.7-2.4,0.7c-0.2,0-0.2-0.2-0.2-0.2c0-0.2,0.7-1,1.9-1.7
		c6.7-3.6,15.8-9.4,27.6-17.3C236.5,228.2,239.4,225.1,240.8,222.7L240.8,222.7L240.8,222.7L240.8,222.7z"/>
	<path fill="#635E49" d="M274.9,295c0-0.2,0.2-0.5,0.2-0.5c0.2-0.2,0.2-0.2,0.2,0c0.2,0.2,0.2,0.5,0,0.7c-1.2,7.2-3.4,10.8-6.5,10.8
		c-3.1,0-4.6-2.6-4.6-7.9c0-6.5,1.7-13.4,5.5-20.4c1-1.7,1.4-2.6,1.7-2.6l0,0c0,0.2-0.2,1.2-0.7,2.9c-2.4,7.4-3.6,12.5-3.6,15.6
		c0,3.8,1,6,3.1,6C271.8,299.5,273.2,297.8,274.9,295L274.9,295L274.9,295L274.9,295z"/>
	<path fill="#635E49" d="M254.7,263.5c0,2.6-1.2,5.5-3.1,8.6c-2.2,3.1-4.8,6-8.2,8.4c-1.4,1-2.2,1.4-2.4,1.4v-0.2
		c0-0.2,0.5-0.7,1.4-1.9c5.5-6,8.4-9.8,8.4-12c0-1.7-1-2.6-2.6-2.6c-1,0-1.9,0.2-2.6,0.7c-0.7,0.2-1,0.5-1.2,0.5c0,0-0.2,0-0.2-0.2
		c0,0,0-0.5,0.2-1.4c1-4.1,2.9-6,6.2-6C253.3,258.7,254.7,260.4,254.7,263.5L254.7,263.5L254.7,263.5L254.7,263.5z"/>
	<path fill="#635E49" d="M183,263c0-0.2,0.2-0.5,0.2-0.5c0.2-0.2,0.2-0.2,0.2,0c0.2,0.2,0.2,0.5,0,0.7c-1.2,7.2-3.4,10.8-6.5,10.8
		c-3.1,0-4.6-2.6-4.6-7.9c0-6.5,1.7-13.4,5.5-20.4c1-1.7,1.4-2.6,1.7-2.6l0,0c0,0.2-0.2,1.2-0.7,2.9c-2.4,7.4-3.6,12.5-3.6,15.6
		c0,3.8,1,6,3.1,6C179.8,267.6,181.3,265.9,183,263L183,263L183,263L183,263z"/>
	<path fill="#635E49" d="M189.2,301.2c0,2.6-1.2,5.5-3.1,8.6c-2.2,3.1-4.8,6-8.2,8.4c-1.4,1-2.2,1.4-2.4,1.4v-0.2
		c0-0.2,0.5-0.7,1.4-1.9c5.5-6,8.4-9.8,8.4-12c0-1.7-1-2.6-2.6-2.6c-1,0-1.9,0.2-2.6,0.7c-0.7,0.2-1,0.5-1.2,0.5c0,0-0.2,0-0.2-0.2
		c0,0,0-0.5,0.2-1.4c1-4.1,2.9-6,6.2-6C187.8,296.4,189.2,298.1,189.2,301.2L189.2,301.2L189.2,301.2L189.2,301.2z"/>
	<path fill="#635E49" d="M591.9,314.4c1.2-1,2.2-1.4,2.9-1.4c0.5,0,0.7,0.5,0.7,1.4c0,0.7-0.2,2.2-0.7,4.1c-0.5,1.9-0.7,3.4-0.7,4.6
		c0,5.3,3.8,8.2,11.3,8.2c6,0,11-2.6,14.9-7.7c2.4-4.1,5-7.9,7.4-11.8c1-1,1.7-1.4,2.4-1.4c1,0,1.2,1,0.7,3.1c-1,4.1-1.7,6-1.7,5.5
		c0,1.7,1,3.4,2.9,4.8c1.7,1.4,4.1,2.4,6.7,2.4c3.4,0,5.5-1,6.5-2.6c0-0.2-1-2.2-3.1-5.8c0.2-1.9,1.2-5.3,2.6-9.8
		c0.2-1.4,0.7-2.2,1.2-2.2c0.5,0,1,0.2,1.7,1.2c1.9,2.9,3.1,6.2,3.1,10.1c0,6-1.4,11-4.1,15.4c-2.9,5.3-7.2,7.9-13,7.9
		c-3.8,0-7.4-3.1-10.6-8.9c-5.3,9.6-12.2,14.4-20.6,14.4c-10.1,0-14.9-5.8-14.9-16.8c-3.8,4.6-10.3,8.6-18.7,12.5v-13.2
		c6.2-3.1,10.3-5,11.5-5.8C584.2,320.6,588.1,317.8,591.9,314.4L591.9,314.4L591.9,314.4L591.9,314.4z"/>
	<path fill="#635E49" d="M555.2,330.2c-3.6-4.6-6.7-6.7-9.6-6.7c-4.3,0-6.2,1-6.2,3.4c0,2.9,2.9,4.3,8.6,4.3
		C550.2,331.2,552.6,330.7,555.2,330.2L555.2,330.2L555.2,330.2L555.2,330.2z M562.6,347.8c0-1.4-0.5-3.1-1-4.8
		c-2.9,1-7.2,1.7-12.5,1.7c-11.5,0-17.3-4.1-17.3-12c0-6,1.7-11.3,5.5-16.1c3.6-4.1,7.4-6.2,11.5-6.2c3.1,0,6.2,1.9,9.8,5.5
		c3.1,3.6,6,7.7,8.4,12.7c0.2,0,0.7,0,1.7-0.5v13.2l-0.5,0.5c0,2.9-0.7,6.2-2.2,10.6c-1.7,5.5-4.3,10.1-7.4,13.7
		c-7.2,8.6-15.1,16.1-23.8,22.6c-13,9.6-24,14.6-33.6,14.6c-8.2,0-14.4-3.1-18.7-9.1c-3.8-5-5.8-11.8-5.8-19.7
		c0-10.1,2.2-20.4,6.2-31.2c1.2-2.4,1.7-3.4,2.2-3.4c0.2,0,0.2,0.2,0.2,0.7c0,0.7-0.2,1.9-0.5,3.4c-3.1,10.6-4.6,18.5-4.6,24
		c0,5,1.2,9.4,3.6,13c3.8,5,9.8,7.7,18.2,7.7c7.2,0,15.8-3.1,26.2-9.4c8.2-5,16.1-11,23.8-18.2C559,354.2,562.6,349.9,562.6,347.8
		L562.6,347.8L562.6,347.8L562.6,347.8z"/>
	<path fill="#635E49" d="M497.1,311.5c-0.5-2.2-1.2-3.8-2.2-5c-0.7-1.4-1.2-2.2-1.4-2.6c0-0.5,0-2.2,0.5-5.5
		c0.5-3.1,0.7-5.3,1.2-6.5c0.2-1.2,0.5-1.7,1-1.7c0.2,0,0.5,0.2,1,0.7c3.4,3.8,7,7.7,11,11.8c1.7,1.7,2.4,2.6,2.4,3.1
		c0,0.2-0.2,0.5-0.7,0.5c-0.7,0-2.6-0.5-5.5-1.2c1.7,4.1,3.6,8.2,5.3,12c2.6,6.7,4.1,12.2,4.1,17.3c0,2.4-0.5,5.3-1.4,8.9
		c-1.2,4.1-2.6,7.2-4.6,9.4c-7,7.9-18.7,16.6-35.3,25.9C458,386.9,449.6,391,447,391c-0.5,0-7.7,1.7-21.4,5
		c-14.4,3.4-23.5,5.5-27.1,6c-3.8,0.7-6.2,1-7.2,1c-0.5,0-0.5,0-0.5-0.2c0-0.2,2.6-1.7,7.9-4.1c1.9-1,13-5.8,33.4-14.4
		c14.2-6,25.9-11.5,35.3-16.6c14.2-7.7,25-14.4,32.4-19.9c5.5-4.3,8.4-7.4,8.4-9.4c0-0.5-1.4-3.8-4.3-10.1
		C500.7,321.4,498.3,315.6,497.1,311.5L497.1,311.5L497.1,311.5L497.1,311.5z"/>
	<path fill="#635E49" d="M477.4,278.2c0,3.8-1.9,9.1-5.8,15.6c-2.4,4.1-6,9.6-10.8,16.8c4.8,5.5,8.2,10.6,9.8,14.9
		c1,3.1,1.7,7.2,1.7,11.8c0,1.9-0.5,4.3-1.4,7.4c-0.7,2.9-1.7,5-2.6,6.5c-1.9,2.9-5,5.8-9.8,8.6c-5,3.4-9.4,5-13,5
		c-5.8,0-8.6-4.3-8.6-13c0-5.8,1-11.5,2.9-16.8c1.9-4.6,5-10.6,10.1-18.5c-4.3-4.1-8.9-9.8-13.9-17c-0.5-0.7-1.7-1.9-3.6-3.8
		c-1-1-1.4-2.2-1.4-3.6c0-2.2,0.2-4.6,0.7-7.4c0.7-2.9,1.2-4.1,1.4-4.1c0.7,0,2.9,1.2,7,3.8c3.8,2.6,7,4.6,8.9,6.2
		c1.2,0.7,1.7,1.4,1.7,1.4v0.2c0,0.2-0.7,0.5-2.4,0.5c-3.1,0-4.8,0.2-4.8,0.5c0,0.2,0.5,0.7,1.4,1.9c3.8,4.8,7.7,8.4,11.8,11.3
		c1-1.4,4.3-6.2,9.6-14.4c4.6-7,7.2-11.8,8.4-14.6c1.2-2.9,1.9-4.1,2.4-4.1C477.2,273.4,477.4,274.8,477.4,278.2L477.4,278.2
		L477.4,278.2L477.4,278.2z M468.1,337.2c-2.6-5.3-7.2-10.8-13.4-16.1c-2.2,2.2-4.8,6.2-8.2,12c-3.8,6.5-5.5,10.6-5.5,12.7
		c0,2.9,1.9,4.3,6.2,4.3c1.9,0,4.3-0.7,7.4-1.9c4.3-1.9,8.4-4.6,11.8-7.9C467.8,338.9,468.3,337.9,468.1,337.2L468.1,337.2
		L468.1,337.2L468.1,337.2z"/>
	<path fill="#635E49" d="M454.6,260.2l3.8-7.9c0.2-0.5,0.5-0.7,1-0.7c0.5,0,2.4,1.2,6.2,3.8c3.6,2.4,5.5,3.8,5.5,4.3
		c0,1.7-1.7,5.3-4.8,10.6c-0.5,0.7-1,0.7-1.4,0.5c-3.1-2.4-6.7-4.8-10.8-7.4c-1.4,2.9-2.6,5.5-4.1,7.7c-0.2,0.7-0.7,1-1.2,0.7
		c-3.6-2.9-7.4-5.5-11.3-7.9c-0.2-0.2-0.2-0.5,0-1l4.6-9.6c0.2-0.5,0.7-1,1-1c0.5,0,2.2,1.2,5.3,3.4
		C451.5,257.5,453.7,259.2,454.6,260.2L454.6,260.2L454.6,260.2L454.6,260.2z"/>
	<path fill="#635E49" d="M581.1,394.1c-2.6,0.7-4.1,1.2-4.6,1.2V395c0,0,1-0.7,2.9-1.9c1.9-1.2,4.8-3.1,8.9-6.2
		c1.9-1.9,4.8-5,8.4-9.4c2.4-2.9,5-5.5,7.9-7.4c3.6-2.6,7-3.8,10.6-3.8c0.7,0,1.9,0.2,3.4,0.7c1.2,0.5,2.4,0.7,3.4,0.7
		c1.9,0,3.4-0.7,4.6-2.2c0.7-1.4,1.7-2.6,2.6-4.1c0.5-1,1.2-1.4,1.7-1.4c0.2,0,0.2,0.2,0.2,0.7c0,0.5-0.2,1.7-0.7,3.1
		c-0.5,0.7,1.4,1,5,1c0.5,0,0.7,0,0.7-0.2c0,0-0.2-1-0.7-2.6c-0.2-0.5,0-1.2,0.7-2.2c1-1.7,1.4-2.4,1.7-2.2c1,0.7,1.4,2.2,1.4,3.8
		c0,1.7-0.5,3.4-1.2,5.3c-0.7,2.2-1.4,3.4-1.9,3.8c-1.7,1-4.3,0.7-7.9-1c-2.9,2.9-5.8,4.6-8.6,4.6c-0.7,0-1.9-0.2-3.1-0.7
		c-1.2-0.5-2.2-0.7-2.9-0.7c-4.8,0-9.8,2.2-14.9,7c-3.6,3.6-7.2,7.2-10.8,10.8C585.7,392.2,583.5,393.4,581.1,394.1L581.1,394.1
		L581.1,394.1L581.1,394.1z"/>
	<path fill="#635E49" d="M529.5,264.2c2.9,0,5.3,1.4,7.4,4.8c2.2,3.1,3.8,7.4,4.6,12.7c0.2,0.5,0.2,0.7,0.2,1h0.2
		c0-0.2,0.2-0.5,0.2-1c0.5-3.1,1.7-7.9,3.4-14.2c1.9-4.3,3.8-6.5,6-6.5c1.2,0,2.4,0.7,3.4,2.2c1,1.4,1.4,2.4,1.4,3.4
		c0,0.5,0,1.4-0.5,2.4c-0.5,1.4-1,2.2-1.4,2.2c-0.2,0-0.7-0.7-1.7-1.7c-0.7-1-1.7-1.4-2.6-1.4c-1.9,0-3.6,4.6-5.3,13.7
		c-0.7,4.1-1.7,7-2.4,8.6c-0.7,1-1.2,1.7-1.7,1.7c-0.5,0-0.5-0.7-0.7-1.7c0.2-1.7-0.7-4.8-2.6-9.4c-1.9-4.8-3.1-7-4.1-7
		c-0.5,0-0.7,0-1,0.5c-0.2,0.2-0.5,0.5-1.2,0.5c-1,0-1.9-0.7-3.4-1.9c-1.4-1.2-1.9-2.2-1.9-2.9c0-0.2,0.5-1.4,1.7-3.4
		C528.6,265,529.3,264.2,529.5,264.2L529.5,264.2L529.5,264.2L529.5,264.2z"/>
	<path fill="#635E49" d="M489,261.4c24.2-9.1,49.4-18.2,75.4-27.8c0.7-0.2,1.2-0.5,1.2-0.2c0.2,0,0.2,0.5,0,1.2
		c-1,2.2-1.7,3.4-2.2,3.8c-0.2,0.2-12.5,4.8-36.2,13.7c-24.2,8.9-37.9,14.4-40.6,16.1C487,265.9,487.8,263.8,489,261.4L489,261.4
		L489,261.4L489,261.4z"/>
	<path fill="#635E49" d="M465.4,217.4c0.5-1.4,0.5-2.9,0.2-4.3c-0.2-1.4-1-2.2-2.2-2.2c-0.5,0-1.2,0.2-2.2,0.7c-1,0.5-1.4,1-1.4,1.4
		C459.9,214.3,461.8,215.8,465.4,217.4L465.4,217.4L465.4,217.4L465.4,217.4z M462.6,223.7c-4.6-2.4-6.7-4.8-6.7-7.4
		c0-3.1,1.4-6,4.3-8.4c2.9-2.6,5.3-3.6,7.2-2.9c1.7,0.5,2.4,2.2,2.4,5c0,2.6-0.5,5.5-1.7,8.9c2.4,1.2,3.8,2.4,4.3,3.4
		c0,1.2-1,3.4-3.1,6.2c-0.5-1-1.9-2.2-4.1-3.4c-2.6,3.6-5.8,6.7-9.6,9.6c-4.6,3.1-8.6,5.8-12.2,7.2c-1,0.5-5.3,2.2-13,5
		c-1.2,0.5-2.2,0.7-2.4,0.7c-0.2,0-0.2-0.2-0.2-0.2c0-0.2,0.5-1,1.9-1.7c5.8-3.6,11.5-7,17.5-10.3
		C454.2,231.1,459.2,227.3,462.6,223.7L462.6,223.7L462.6,223.7L462.6,223.7z"/>
	<path fill="#635E49" d="M614.2,253.7c0.5-1.4,0.5-2.9,0.2-4.3c-0.2-1.4-1-2.2-2.2-2.2c-0.5,0-1.2,0.2-2.2,0.7c-1,0.5-1.4,1-1.4,1.4
		C608.7,250.6,610.6,252,614.2,253.7L614.2,253.7L614.2,253.7L614.2,253.7z M619.5,262.6c-2.4,5.8-3.6,10.3-3.6,13.7
		c0,4.1,1,6.2,3.1,6.2c1.2,0,2.6-1.7,4.3-4.6c0.2-0.2,0.2-0.5,0.5-0.7c0,0,0.2,0,0.2,0.2c0,0,0,0.2,0,0.7
		c-1.4,7.2-3.6,10.8-6.5,10.8c-3.1,0-4.6-2.6-4.6-7.9c0-2.6,0.5-6,1.9-10.3c1.4-4.3,2.2-6.5,2.2-6.7c0-0.5-1-1.4-3.1-2.6
		c-3.8,5-9.1,9.8-15.8,13.9c-4.6,2.6-9.1,5-13.9,7c-8.9,3.6-14.2,5.5-15.4,6.2c-1.2,0.5-1.9,0.7-2.4,0.7c-0.2,0-0.2-0.2-0.2-0.2
		c0-0.5,0.5-1,1.9-1.9c7.7-4.3,15.1-8.6,22.8-13c10.1-5.8,17-10.6,20.4-14.2c-4.6-2.4-6.7-4.8-6.7-7.4c0-3.1,1.4-6,4.3-8.6
		c2.9-2.4,5.3-3.4,7.2-2.6c1.4,0.5,2.4,2.2,2.4,5c0,2.6-0.5,5.5-1.7,8.6c2.4,1.4,3.4,2.9,3.4,4.3C620.2,259.9,620,261.1,619.5,262.6
		L619.5,262.6L619.5,262.6L619.5,262.6z"/>
	<path fill="#635E49" d="M510.3,227.5c0-0.2,0.2-0.5,0.2-0.5c0.2-0.2,0.2-0.2,0.2,0c0.2,0.2,0.2,0.5,0,0.7
		c-1.2,7.2-3.4,10.8-6.5,10.8c-3.1,0-4.6-2.6-4.6-7.9c0-6.5,1.7-13.4,5.5-20.4c1-1.7,1.4-2.6,1.7-2.6l0,0c0,0.2-0.2,1.2-0.7,2.9
		c-2.4,7.4-3.6,12.5-3.6,15.6c0,3.8,1,6,3.1,6C507.2,232.1,508.6,230.4,510.3,227.5L510.3,227.5L510.3,227.5L510.3,227.5z"/>
</g>
</svg>
