<?xml version="1.0" standalone="no"?>
<!DOCTYPE svg PUBLIC "-//W3C//DTD SVG 1.1//EN" "http://www.w3.org/Graphics/SVG/1.1/DTD/svg11.dtd" >
<svg xmlns="http://www.w3.org/2000/svg">
<metadata></metadata>
<defs>
<font id="webfontuploaded_file" horiz-adv-x="1161" >
<font-face units-per-em="2048" ascent="1548" descent="-500" />
<missing-glyph horiz-adv-x="507" />
<glyph unicode="&#xfb01;" horiz-adv-x="1347" d="M47 756v200h182v76q0 211 104.5 328t303.5 117h104v-240h-104q-156 0 -156 -205v-76h727v-956h-247v756h-480v-756h-252v756h-182zM924 1327.5q0 63.5 48 106.5t113.5 43t111.5 -43t46 -106.5t-46 -107.5t-112 -44q-68 0 -114.5 44t-46.5 107.5z" />
<glyph unicode="&#xfb02;" horiz-adv-x="1361" d="M47 756v200h182v76q0 211 104.5 328t303.5 117h584v-1477h-250v1237h-334q-156 0 -156 -205v-76h203v-200h-203v-756h-252v756h-182z" />
<glyph unicode="&#xfb03;" horiz-adv-x="2131" d="M47 756v200h182v76q0 211 104.5 328t303.5 117h104v-240h-104q-156 0 -156 -205v-76h533v76q0 211 104.5 328t302.5 117h105v-240h-105q-156 0 -155 -205v-76h727v-956h-248v756h-479v-756h-252v756h-533v-756h-252v756h-182zM1708 1327.5q0 63.5 48 106.5t113.5 43 t112 -43t46.5 -106.5t-46.5 -107.5t-111.5 -44q-68 0 -115 44t-47 107.5z" />
<glyph unicode="&#xfb04;" horiz-adv-x="2146" d="M47 756v200h182v76q0 211 104.5 328t303.5 117h104v-240h-104q-156 0 -156 -205v-76h533v76q0 211 104.5 328t302.5 117h584v-1477h-250v1237h-334q-156 0 -155 -205v-76h202v-200h-202v-756h-252v756h-533v-756h-252v756h-182z" />
<glyph horiz-adv-x="2048" />
<glyph horiz-adv-x="2048" />
<glyph unicode="&#xd;" horiz-adv-x="681" />
<glyph unicode=" "  horiz-adv-x="507" />
<glyph unicode="&#x09;" horiz-adv-x="507" />
<glyph unicode="&#xa0;" horiz-adv-x="507" />
<glyph unicode="!" horiz-adv-x="573" d="M125 135.5q0 65.5 47 110.5t113 45q68 0 116 -44t48 -111.5t-48.5 -111.5t-115.5 -44q-66 0 -113 45t-47 110.5zM141 1411h293l-39 -999h-215z" />
<glyph unicode="&#x22;" horiz-adv-x="722" d="M133 1411h182l-20 -602h-141zM407 1411h182l-20 -602h-141z" />
<glyph unicode="#" horiz-adv-x="1431" d="M72 338l51 184h225l101 348h-222l49 185h226l104 356h209l-102 -356h211l104 356h209l-104 -356h227l-51 -185h-230l-102 -348h227l-51 -184h-227l-107 -338h-207l103 338h-211l-105 -338h-204l102 338h-225zM555 522h211l104 348h-213z" />
<glyph unicode="$" horiz-adv-x="1165" d="M86 412h262q4 -82 69.5 -140.5t174.5 -58.5q102 0 165.5 48t67.5 122q4 70 -44 117t-150 75l-174 46q-356 104 -357 393q0 168 119 280.5t297 128.5v215h141v-217q172 -23 279.5 -134t107.5 -286h-262q0 84 -56 134.5t-155 50.5q-90 0 -150.5 -46t-60.5 -120 q0 -117 168 -162l174 -51q219 -59 307.5 -174t77.5 -256q-8 -170 -129.5 -274.5t-300.5 -120.5v-232h-141v232q-193 20 -311.5 141t-118.5 289z" />
<glyph unicode="%" horiz-adv-x="1409" d="M74 1089.5q0 114.5 78.5 194.5t193.5 80q113 0 194 -80t81 -194.5t-80 -193.5t-195 -79t-193.5 79t-78.5 193.5zM231 1089.5q0 -49.5 33 -82t82 -32.5t83 32.5t34 82.5q0 47 -35 81.5t-82 34.5q-49 0 -82 -33.5t-33 -83zM293 0h139l666 1354h-140zM788 252 q0 115 79 194.5t194 79.5t194.5 -80.5t79.5 -193.5q0 -115 -79.5 -193.5t-194.5 -78.5t-194 78.5t-79 193.5zM946 252q0 -49 33 -82t82 -33t83 33t34 82q0 47 -35 82t-82 35q-49 0 -82 -34t-33 -83z" />
<glyph unicode="&#x26;" horiz-adv-x="1396" d="M106 406q0 127 58.5 222t167.5 142q-68 33 -110 105.5t-42 166.5q0 152 113 262.5t282 116.5q244 8 383 -188l-210 -129q-57 76 -142 76q-74 0 -117 -45t-43 -107q0 -29 11.5 -63.5t52.5 -71.5t106 -37h248v168h234v-168h170v-203h-170v-233q0 -125 39 -172t159 -47v-221 q-158 2 -246.5 37.5t-123.5 129.5q-43 -78 -143.5 -122.5t-202.5 -44.5q-205 0 -339.5 120.5t-134.5 305.5zM371 420q10 -90 72.5 -143.5t164.5 -53.5q104 0 180 75t76 214v141h-256q-125 0 -185.5 -75.5t-51.5 -157.5z" />
<glyph unicode="'" horiz-adv-x="448" d="M133 1411h182l-20 -602h-141z" />
<glyph unicode="(" horiz-adv-x="774" d="M86 469q0 424 174 691t445 267v-208q-162 0 -282 -221.5t-120 -528.5q0 -305 120 -522t282 -217v-207q-270 0 -444.5 262t-174.5 684z" />
<glyph unicode=")" horiz-adv-x="774" d="M70 -270q162 0 281.5 217t119.5 522q0 307 -120 528.5t-281 221.5v208q270 0 444 -267t174 -691q0 -422 -174 -684t-444 -262v207z" />
<glyph unicode="*" horiz-adv-x="970" d="M96 1063l60 176l252 -98l-17 270h189l-19 -268l256 96l55 -176l-260 -70l172 -215l-147 -104l-148 223l-155 -227l-146 110l170 209z" />
<glyph unicode="+" horiz-adv-x="1046" d="M102 436v199h322v319h199v-319h321v-199h-321v-323h-199v323h-322z" />
<glyph unicode="," horiz-adv-x="555" d="M10 -209q70 96 112 228.5t40 273.5h258q-6 -201 -80 -345t-164 -218z" />
<glyph unicode="-" horiz-adv-x="976" d="M129 392v208h719v-208h-719z" />
<glyph unicode="." horiz-adv-x="557" d="M117 135.5q0 65.5 47 110.5t112 45q68 0 116 -44t48 -111.5t-48 -111.5t-116 -44q-66 0 -112.5 45t-46.5 110.5z" />
<glyph unicode="/" horiz-adv-x="1026" d="M61 0l684 1411h220l-684 -1411h-220z" />
<glyph unicode="0" horiz-adv-x="1234" d="M123 670q0 694 498 694q141 0 240.5 -53.5t152.5 -151.5t75.5 -217t22.5 -272q0 -121 -13 -219.5t-48 -188.5t-89 -150.5t-141 -96t-200 -35.5q-498 0 -498 690zM375 670q0 -444 246 -445q242 0 242 445q0 449 -242 448q-246 1 -246 -448z" />
<glyph unicode="1" horiz-adv-x="741" d="M80 920v225l477 211v-1356h-252v1010z" />
<glyph unicode="2" horiz-adv-x="1107" d="M106 969q29 182 152 288.5t301 106.5q180 0 306 -113.5t126 -289.5q0 -180 -143 -343l-332 -378h453v-240h-856v129l546 655q82 96 82 177q0 68 -54 113.5t-138 45.5q-82 0 -139.5 -54t-69.5 -140z" />
<glyph unicode="3" horiz-adv-x="1118" d="M76 264q10 4 109.5 54.5t109.5 56.5q31 -63 91 -106.5t126 -43.5q96 0 160.5 56.5t64.5 142.5q0 18 -8 43t-27.5 57.5t-65 53t-108.5 18.5h-143v223h143q82 -2 117 50.5t35 97.5q0 49 -27.5 94t-91.5 57q-129 16 -207 -82l-196 129q57 96 166.5 151.5t238.5 47.5 q170 -8 278.5 -115.5t108.5 -259.5q0 -80 -45 -149.5t-121 -112.5q104 -39 169 -147.5t55 -217.5q-18 -180 -168 -287.5t-348 -92.5q-137 8 -249 85.5t-167 196.5z" />
<glyph unicode="4" horiz-adv-x="1226" d="M45 291l668 1048h243v-829h179v-219h-179v-291h-249v291h-662zM410 510h297v467z" />
<glyph unicode="5" horiz-adv-x="1191" d="M92 262q8 4 104.5 65.5t106.5 65.5q41 -74 110.5 -120t143.5 -46q129 0 207 68t78 164q0 113 -73 172t-185 59q-182 0 -308 -135l-143 86l113 698h762v-231h-562l-47 -274q84 72 248 71q190 0 317.5 -117.5t127.5 -328.5q0 -213 -146.5 -346t-388.5 -133 q-139 0 -266 77.5t-199 204.5z" />
<glyph unicode="6" horiz-adv-x="1173" d="M122 701q1 130 34.5 251t89 214.5t159 147.5t242.5 50q135 -6 236.5 -62.5t167.5 -197.5l-232 -98q-59 123 -180 122q-137 0 -203.5 -121.5t-56.5 -293.5q20 57 96 104t174 47q168 0 292 -125t122 -329q-4 -190 -136 -311.5t-339 -118.5q-186 4 -315.5 130t-145.5 334 q-6 127 -5 257zM399 430q0 -86 58.5 -146.5t142.5 -60.5q84 -2 143.5 56.5t61.5 144.5q2 84 -55.5 144.5t-141.5 62.5t-145.5 -57.5t-63.5 -143.5z" />
<glyph unicode="7" horiz-adv-x="1107" d="M99 1104v235h981l-641 -1339h-287l530 1104h-583z" />
<glyph unicode="8" horiz-adv-x="1196" d="M104 434q0 109 52.5 196t144.5 140q-98 94 -98 229q0 152 114.5 258.5t280.5 106.5q164 0 279.5 -106.5t115.5 -258.5q0 -135 -100 -229q92 -53 144 -141t52 -195q0 -188 -143 -321t-348 -133t-349.5 133t-144.5 321zM354 442q0 -92 72 -158.5t172 -66.5q98 0 170 66.5 t72 158.5q0 88 -68 155t-160 67h-37q-92 0 -156.5 -68t-64.5 -154zM446 991q0 -61 42 -103t112 -42q68 0 107.5 43t39.5 102q0 57 -42 98t-107 41q-68 0 -110 -42t-42 -97z" />
<glyph unicode="9" horiz-adv-x="1175" d="M115 934q4 190 136 310t337 118q188 -4 316 -129t147 -334q6 -127 5 -257t-35 -252t-89 -215t-158.5 -146.5t-242.5 -48.5q-135 6 -236.5 62t-167.5 198l232 98q59 -123 180 -123q137 0 203.5 121t56.5 295q-20 -57 -96.5 -104.5t-176.5 -47.5q-166 0 -289.5 125 t-121.5 330zM373 920q-2 -84 55.5 -144.5t141 -62.5t145 56t63.5 142q0 86 -58 146.5t-142 62.5t-143.5 -57t-61.5 -143z" />
<glyph unicode=":" horiz-adv-x="581" d="M129 135.5q0 67.5 47 111.5t114.5 44t115 -44t47.5 -111.5t-47.5 -111.5t-115 -44t-114.5 44t-47 111.5zM129 821.5q0 67.5 47 111.5t114.5 44t115 -44t47.5 -111.5t-47.5 -111.5t-115 -44t-114.5 44t-47 111.5z" />
<glyph unicode=";" horiz-adv-x="595" d="M23 -209q156 211 153 502h260q-6 -201 -79.5 -345t-163.5 -218zM150 821.5q0 67.5 47 111.5t114.5 44t114.5 -44t47 -111.5t-47 -111.5t-114.5 -44t-114.5 44t-47 111.5z" />
<glyph unicode="&#x3c;" horiz-adv-x="1286" d="M94 485v213l1032 394v-215l-755 -285l755 -285v-215z" />
<glyph unicode="=" horiz-adv-x="1228" d="M143 276v193h942v-193h-942zM143 684v193h942v-193h-942z" />
<glyph unicode="&#x3e;" horiz-adv-x="1286" d="M160 92v215l755 285l-755 285v215l1032 -394v-213z" />
<glyph unicode="?" horiz-adv-x="1005" d="M80 999q0 195 117.5 311.5t304 116.5t307.5 -109.5t121 -289.5q0 -143 -79 -245.5t-204 -141.5q-63 -20 -91 -56t-28 -108l-4 -67h-243l-5 67q0 80 15.5 137.5t34 93t71 73.5t86 55.5t119.5 60.5q78 33 78 133q0 63 -52.5 105.5t-125.5 42.5q-76 0 -125 -49.5t-49 -129.5 h-248zM244 137q0 66 47 111t114.5 45t114.5 -45t47 -111q0 -68 -47 -112.5t-114.5 -44.5t-114.5 44.5t-47 112.5z" />
<glyph unicode="@" horiz-adv-x="1980" d="M96 522.5q0 374.5 257 638t628 263.5q248 0 459 -111.5t338 -311.5t127 -442q0 -98 -21.5 -196t-64.5 -190.5t-124 -149.5t-186 -57q-129 0 -215 72.5t-86 234.5v260q0 104 -72.5 176t-175 72t-175 -72t-72.5 -176q0 -100 72.5 -172t175.5 -72q92 0 176 68v-187 q-88 -49 -176 -49q-172 0 -294 120t-122 292q0 174 121.5 295t294.5 121q166 0 288.5 -113t128.5 -283v-293q0 -127 131 -127q66 0 113 43.5t69.5 112t32 135t9.5 135.5q0 297 -221.5 496t-530.5 199q-301 0 -508 -213t-207 -518q0 -303 207 -512t508 -209h59v-170h-59 q-373 0 -629 258t-256 632.5z" />
<glyph unicode="A" horiz-adv-x="1339" d="M0 0l528 1411h283l528 -1411h-276l-129 342h-526l-129 -342h-279zM496 571h352l-178 539z" />
<glyph unicode="B" horiz-adv-x="1298" d="M176 0v1411h553q186 0 296 -103.5t110 -279.5q0 -88 -44 -162.5t-143 -111.5q123 -31 192.5 -129.5t69.5 -200.5q0 -178 -119.5 -301t-318.5 -123h-596zM438 233h320q82 0 130 58.5t48 136.5q0 76 -49 136.5t-135 60.5h-314v-392zM438 844h273q70 0 110.5 48t40.5 122 q0 76 -42 120t-118 44h-264v-334z" />
<glyph unicode="C" horiz-adv-x="1419" d="M90 702q0 303 206 514t505 211q176 0 324.5 -74.5t242.5 -203.5l-209 -150q-139 180 -358 181q-190 0 -319.5 -139.5t-129.5 -338t129 -337t320 -138.5q111 0 207 51.5t159 139.5l207 -152q-94 -133 -243.5 -209.5t-329.5 -76.5q-299 0 -505 211.5t-206 510.5z" />
<glyph unicode="D" horiz-adv-x="1462" d="M176 0v1411h551q295 0 466 -199.5t171 -509.5q0 -307 -171 -504.5t-466 -197.5h-551zM438 240h289q180 0 277.5 131t97.5 331q0 203 -97.5 336t-277.5 133h-289v-931z" />
<glyph unicode="E" horiz-adv-x="1171" d="M176 0v1411h873v-233h-613v-367h537v-231h-537v-347h633v-233h-893z" />
<glyph unicode="F" horiz-adv-x="1093" d="M176 0v1411h862v-233h-600v-367h475v-233h-475v-578h-262z" />
<glyph unicode="G" horiz-adv-x="1548" d="M90 702q0 301 209 513t510 212q311 0 512 -215l-193 -168q-133 137 -319 138q-193 0 -325 -140.5t-132 -339t132 -340t325 -141.5q150 0 263.5 82t117.5 211h-387v215h688q0 -375 -183.5 -562t-498.5 -187q-301 0 -510 211.5t-209 510.5z" />
<glyph unicode="H" horiz-adv-x="1441" d="M176 0v1411h260v-592h565v592h265v-1411h-265v584h-565v-584h-260z" />
<glyph unicode="I" horiz-adv-x="612" d="M176 0v1411h260v-1411h-260z" />
<glyph unicode="J" horiz-adv-x="614" d="M-203 -446l25 237q61 -20 164 -20q96 0 143 62.5t47 160.5v1417h262v-1417q0 -209 -109.5 -340t-342.5 -131q-66 0 -189 31z" />
<glyph unicode="K" horiz-adv-x="1224" d="M176 0v1411h264v-514l379 514h307l-536 -700l663 -711h-342l-471 522v-522h-264z" />
<glyph unicode="L" horiz-adv-x="1036" d="M176 0v1411h262v-1178h545v-233h-807z" />
<glyph unicode="M" horiz-adv-x="1882" d="M94 0l174 1411h221l451 -954l449 954h225l172 -1411h-262l-109 940l-368 -780h-209l-371 780l-111 -940h-262z" />
<glyph unicode="N" horiz-adv-x="1396" d="M176 0v1411h244l538 -917v917h263v-1411h-240l-545 928v-928h-260z" />
<glyph unicode="O" horiz-adv-x="1611" d="M90 702q0 301 207 513t508 212t509 -211.5t208 -513.5q0 -299 -209 -510.5t-508 -211.5t-507 211.5t-208 510.5zM350 702.5q0 -194.5 132 -329.5t322.5 -135t323 135t132.5 329.5t-132.5 330.5t-323 136t-322.5 -136t-132 -330.5z" />
<glyph unicode="P" horiz-adv-x="1253" d="M176 0v1411h574q221 0 334.5 -134t113.5 -322.5t-113.5 -320.5t-334.5 -132h-312v-502h-262zM438 735h299q94 0 146.5 66.5t52.5 152.5t-49.5 155t-141.5 69h-307v-443z" />
<glyph unicode="Q" horiz-adv-x="1622" d="M90 702q0 301 209 513t510 212q305 0 514 -210.5t209 -514.5q0 -182 -85.5 -341t-232.5 -259l140 -227l-189 -115l-153 248q-99 -28 -196 -28h-7q-301 0 -510 211.5t-209 510.5zM352 702q0 -176 108.5 -306t276.5 -154q37 -6 80 -6q25 0 53 2l-122 204l188 113l143 -233 q188 135 189 380q0 199 -133.5 338.5t-326 139.5t-324.5 -139.5t-132 -338.5z" />
<glyph unicode="R" horiz-adv-x="1292" d="M176 0v1411h565q219 0 335 -134t116 -323q0 -164 -91 -288.5t-267 -153.5l360 -512h-315l-332 502h-109v-502h-262zM438 735h283q96 0 147.5 65.5t51.5 153.5q0 86 -49.5 155t-141.5 69h-291v-443z" />
<glyph unicode="S" horiz-adv-x="1181" d="M94 412h262q4 -82 70 -140.5t174 -58.5q102 0 165.5 48t68.5 122v11q0 63 -44 106q-48 47 -151 75l-174 46q-356 104 -356 393q0 182 138 297.5t337 115.5q205 0 337 -115.5t132 -310.5h-262q0 84 -56.5 134.5t-154.5 50.5q-90 0 -150.5 -46t-60.5 -120q0 -117 168 -162 l174 -51q219 -59 307 -174q79 -103 79 -227q0 -14 -1 -29q-8 -184 -150.5 -292t-345.5 -108q-223 0 -364.5 125.5t-141.5 309.5z" />
<glyph unicode="T" horiz-adv-x="1173" d="M57 1171v240h1059v-240h-397v-1171h-264v1171h-398z" />
<glyph unicode="U" horiz-adv-x="1394" d="M162 498v913h266v-913q0 -119 80 -195t190.5 -76t191.5 76t81 195v913h262v-913q0 -229 -156.5 -373.5t-378.5 -144.5q-223 0 -379.5 144t-156.5 374z" />
<glyph unicode="V" horiz-adv-x="1177" d="M41 1411h272l275 -983l274 983h273l-428 -1411h-236z" />
<glyph unicode="W" horiz-adv-x="1826" d="M10 1411h283l301 -983l215 786h209l213 -786l303 983h285l-480 -1411h-211l-217 801l-213 -801h-213z" />
<glyph unicode="X" horiz-adv-x="1316" d="M12 0l490 754l-443 657h314l284 -448l285 448h313l-442 -657l492 -754h-312l-336 543l-335 -543h-310z" />
<glyph unicode="Y" horiz-adv-x="1318" d="M-16 1411h311l362 -543l367 543h313l-544 -772v-639h-269v643z" />
<glyph unicode="Z" horiz-adv-x="1202" d="M86 0v205l680 971h-653v235h991v-207l-686 -968h686v-236h-1018z" />
<glyph unicode="[" horiz-adv-x="679" d="M156 -465v1876h450v-194h-229v-1485h229v-197h-450z" />
<glyph unicode="\" horiz-adv-x="1026" d="M61 1411h220l684 -1411h-220z" />
<glyph unicode="]" horiz-adv-x="679" d="M74 -268h229v1485h-229v194h450v-1876h-450v197z" />
<glyph unicode="_" horiz-adv-x="1490" d="M129 -63h1233v-191h-1233v191z" />
<glyph unicode="`" horiz-adv-x="1103" d="M264 1448h262l215 -334h-194z" />
<glyph unicode="a" horiz-adv-x="1257" d="M82 479q0 221 144.5 359.5t342.5 138.5q80 0 165 -34t132 -105v118h250v-956h-250v123q-43 -68 -130 -104.5t-167 -36.5q-197 0 -342 138t-145 359zM340 479.5q0 -112.5 79 -185.5t185.5 -73t184 70.5t77.5 187.5q0 119 -78.5 188.5t-183.5 69.5q-106 0 -185 -72.5 t-79 -185z" />
<glyph unicode="b" horiz-adv-x="1241" d="M141 0v1477h250v-648q37 70 119 109t180 39q195 0 332 -138.5t137 -361.5q0 -221 -137 -359t-332 -138q-96 0 -179 39.5t-120 109.5v-129h-250zM395 481.5q0 -116.5 75 -189.5t179 -73q106 0 179 73t73 189q0 115 -72.5 186.5t-179.5 71.5q-102 0 -178 -70.5t-76 -187z " />
<glyph unicode="c" horiz-adv-x="1064" d="M80 481q0 219 151.5 357.5t364.5 138.5q121 0 225.5 -49t171.5 -137l-198 -150q-70 94 -199 94q-109 0 -188.5 -70.5t-79.5 -183t79.5 -187.5t188.5 -75q129 0 199 96l200 -147q-68 -90 -173 -139t-226 -49q-213 0 -364.5 141t-151.5 360z" />
<glyph unicode="d" horiz-adv-x="1241" d="M82 477q0 223 137 361.5t332 138.5q98 0 180 -39t121 -109v648h248v-1477h-248v129q-39 -70 -122 -109.5t-179 -39.5q-195 0 -332 138t-137 359zM340 481q0 -117 72.5 -189.5t179 -72.5t181.5 73t75 189.5t-77 187t-179 70.5q-106 0 -179 -71.5t-73 -186.5z" />
<glyph unicode="e" horiz-adv-x="1132" d="M82 481q0 221 143.5 358.5t352 137.5t347 -137.5t138.5 -358.5q0 -41 -4 -86h-729q12 -94 84.5 -149.5t179.5 -55.5q76 0 141.5 32t98.5 91l190 -102q-61 -117 -182 -174t-264 -57q-209 0 -352.5 140t-143.5 361zM328 565h491q-14 96 -79.5 149.5t-159.5 53.5 q-100 0 -169 -54.5t-83 -148.5z" />
<glyph unicode="f" horiz-adv-x="731" d="M47 756v200h182v76q0 211 104.5 328t303.5 117h104v-240h-104q-156 0 -156 -205v-76h203v-200h-203v-756h-252v756h-182z" />
<glyph unicode="g" horiz-adv-x="1251" d="M82 475q0 223 142.5 362.5t336.5 139.5q96 0 181 -40t124 -110v129h244v-819q0 -311 -139.5 -462.5t-395.5 -151.5q-150 0 -271.5 75.5t-184.5 206.5l203 103q31 -70 103.5 -114t149.5 -44q168 0 236 106q57 90 57 223q0 25 -2 52q-35 -70 -121 -110.5t-184 -40.5 q-195 0 -337 138t-142 357zM342 479q0 -117 75 -189.5t183 -72.5q102 0 181 72.5t79 189.5q0 119 -75.5 188.5t-184.5 69.5q-106 0 -182 -72.5t-76 -185.5z" />
<glyph unicode="h" horiz-adv-x="1202" d="M141 0v1477h250v-668q31 80 122 124t175 44q184 0 284.5 -117t100.5 -328v-532h-250v520q0 98 -60.5 155.5t-141.5 57.5q-92 0 -161 -54t-69 -169v-510h-250z" />
<glyph unicode="i" horiz-adv-x="530" d="M104 1327.5q0 63.5 48.5 106.5t114 43t111.5 -43t46 -106.5t-46 -107.5t-112 -44q-68 0 -115 44t-47 107.5zM141 0v956h248v-956h-248z" />
<glyph unicode="j" horiz-adv-x="534" d="M-121 -248h121q141 0 141 170v10v1024h252v-1019q0 -414 -356 -414h-158v229zM106 1327q0 61 47.5 105.5t112.5 44.5q68 0 114 -43t46 -106.5t-46 -107.5t-114 -44q-66 0 -113 44t-47 107z" />
<glyph unicode="k" horiz-adv-x="1062" d="M141 0v1477h248v-807l264 286h324l-402 -419l488 -537h-313l-361 410v-410h-248z" />
<glyph unicode="l" horiz-adv-x="532" d="M141 0v1477h250v-1477h-250z" />
<glyph unicode="m" horiz-adv-x="1769" d="M141 0v956h250v-141q37 80 116 120t159 40q229 -12 305 -178q102 180 301 180q176 0 272 -110.5t96 -319.5v-547h-247v520q0 100 -50.5 156.5t-130.5 56.5q-88 0 -141 -58.5t-53 -164.5v-510h-250v526q-2 96 -51 151.5t-125 55.5q-86 0 -143.5 -54t-57.5 -169v-510h-250z " />
<glyph unicode="n" d="M141 0v956h250v-141q39 74 119 118t166 44q170 0 263 -105.5t93 -306.5v-565h-250v520q0 102 -49 157.5t-133 55.5q-92 0 -150.5 -53t-58.5 -170v-510h-250z" />
<glyph unicode="o" horiz-adv-x="1159" d="M82 481q0 221 144.5 358.5t353 137.5t353 -137.5t144.5 -358.5t-144.5 -360t-353 -139t-353 139t-144.5 360zM330 481q0 -115 71.5 -185.5t178 -70.5t178 71t71.5 185q0 111 -71.5 180.5t-178 69.5t-178 -69.5t-71.5 -180.5z" />
<glyph unicode="p" horiz-adv-x="1239" d="M141 -465v1421h250v-129q37 70 120 110t179 40q193 0 330 -139.5t137 -358.5q0 -223 -136 -361t-331 -138q-96 0 -179 38.5t-120 108.5v-592h-250zM395 475q0 -119 75 -188.5t179 -69.5q106 0 179 71.5t73 186.5t-73.5 188.5t-178.5 73.5q-106 0 -180 -72.5t-74 -189.5z " />
<glyph unicode="q" horiz-adv-x="1239" d="M82 479q0 219 137 358.5t330 139.5q96 0 179 -40t120 -110v129h250v-1421h-250v592q-37 -70 -120 -108.5t-179 -38.5q-195 0 -331 138t-136 361zM340 475q0 -115 72.5 -186.5t177.5 -71.5q102 0 178 69.5t76 188.5q0 117 -74 189.5t-180 72.5q-104 0 -177 -72.5 t-73 -189.5z" />
<glyph unicode="r" horiz-adv-x="841" d="M141 0v956h250v-225q35 123 108.5 184.5t162.5 61.5q92 0 157 -35l-43 -225q-57 26 -139 26h-6h-1q-239 0 -239 -405v-338h-250z" />
<glyph unicode="s" horiz-adv-x="929" d="M74 301h233q5 -51 57 -87q50 -34 112 -34h7q53 2 89 29t36 67q2 35 -23.5 56.5t-80.5 34.5l-131 32q-88 25 -145.5 57.5t-83 73.5t-34 77t-8.5 85q0 115 104.5 200t248.5 85q152 0 259 -74t113 -227h-237q-2 49 -41 73.5t-88 24.5q-121 0 -121 -94q0 -53 100 -80l160 -39 q78 -20 131 -57t76.5 -81t33 -79t9.5 -70q0 -139 -116 -216.5t-275 -77.5q-152 0 -267.5 87t-117.5 234z" />
<glyph unicode="t" horiz-adv-x="718" d="M47 756v200h174v365h248v-365h203v-200h-203v-756h-248v756h-174z" />
<glyph unicode="u" d="M129 391v565h252v-520q0 -109 53 -161t129 -52q88 0 147.5 54t59.5 169v510h250v-956h-250v135q-39 -74 -113.5 -114.5t-150.5 -40.5q-174 0 -275.5 106.5t-101.5 304.5z" />
<glyph unicode="v" horiz-adv-x="1060" d="M18 956h267l245 -637l246 637h268l-403 -956h-221z" />
<glyph unicode="w" horiz-adv-x="1585" d="M25 956h266l194 -604l193 604h221l195 -604l194 604h266l-342 -956h-208l-213 641l-207 -641h-207z" />
<glyph unicode="x" horiz-adv-x="1064" d="M14 0l377 520l-313 436h293l164 -235l159 235h293l-313 -436l375 -520h-291l-226 319l-227 -319h-291z" />
<glyph unicode="y" horiz-adv-x="1046" d="M18 956h267l237 -596l240 596h266l-592 -1423h-264l219 541z" />
<glyph unicode="z" horiz-adv-x="1040" d="M84 0v190l494 533h-463v233h825v-192l-502 -531h502v-233h-856z" />
<glyph unicode="{" horiz-adv-x="833" d="M70 389v170q49 0 87 33t38 82v332q0 182 117.5 293.5t291.5 111.5h160v-192h-166q-78 0 -132 -56.5t-54 -140.5v-313q0 -84 -39 -147.5t-101 -88.5q59 -23 99.5 -86t40.5 -147v-301q0 -84 55 -145.5t131 -61.5h166v-197h-160q-174 0 -291.5 111.5t-117.5 294.5v335 q0 49 -38 81t-87 32z" />
<glyph unicode="|" horiz-adv-x="452" d="M156 -250v1888h141v-1888h-141z" />
<glyph unicode="}" horiz-adv-x="833" d="M70 -268h166q76 0 131 61.5t55 145.5v301q0 84 40 147.5t99 85.5q-61 25 -100 88.5t-39 147.5v313q0 84 -54.5 140.5t-131.5 56.5h-166v192h159q174 0 292 -111.5t118 -293.5v-332q0 -49 38 -82t87 -33v-170q-49 0 -87 -31.5t-38 -81.5v-335q0 -182 -118 -294t-292 -112 h-159v197z" />
<glyph unicode="&#xa1;" horiz-adv-x="542" d="M109 821.5q0 65.5 47 110.5t112 45q68 0 116 -44t48 -111.5t-48 -111.5t-116 -44q-66 0 -112.5 45t-46.5 110.5zM125 -465l39 1010h215l39 -1010h-293z" />
<glyph unicode="&#xa2;" horiz-adv-x="1095" d="M88 481q0 193 119 324t301 164v219h141v-213q225 -18 352 -184l-198 -150q-70 94 -199 94q-109 0 -188.5 -70.5t-79.5 -183t80 -187.5t188 -75q129 0 199 96l201 -147q-129 -168 -355 -186v-232h-141v238q-180 33 -300 166t-120 327z" />
<glyph unicode="&#xa3;" horiz-adv-x="1357" d="M88 0v229h209v349h-166v127h166v258q0 211 117.5 337.5t312.5 126.5q190 0 316 -116.5t126 -333.5h-256q0 100 -54 146t-136 42q-76 -2 -126 -50t-50 -126v-284h262v-127h-262v-349h389q82 0 82 64v80h248v-111q0 -113 -66.5 -187.5t-171.5 -74.5h-940z" />
<glyph unicode="&#xa4;" horiz-adv-x="1265" d="M137 330l146 147q-63 94 -63.5 217t65.5 219l-148 148l131 131l148 -148q100 63 217 64q125 0 219 -64l145 148l131 -131l-145 -148q63 -106 64 -219q0 -127 -64 -217l145 -147l-131 -131l-145 147q-96 -66 -219 -66t-219 66l-146 -147zM444 694q0 -78 55.5 -133 t133.5 -55q80 0 135 55t55 133q0 80 -55 135.5t-135 55.5q-78 0 -133.5 -55.5t-55.5 -135.5z" />
<glyph unicode="&#xa5;" horiz-adv-x="1480" d="M63 1411h312l362 -543l367 543h313l-532 -752h325v-137h-338v-180h338v-135h-338v-207h-268v207h-336v135h336v180h-336v137h324z" />
<glyph unicode="&#xa6;" horiz-adv-x="460" d="M160 -250v789h141v-789h-141zM160 850v788h141v-788h-141z" />
<glyph unicode="&#xa7;" horiz-adv-x="1089" d="M125 -47l215 65q25 -78 80 -116.5t121 -38.5q82 0 139 53t57 139v385q0 90 -58 140.5t-147 50.5q-41 -1 -90 -13v226q57 14 99 14q178 0 301 -115.5t123 -302.5v-385q0 -186 -123 -301.5t-301 -115.5q-143 0 -261 81.5t-155 233.5zM125 614v385q0 186 123 302t301 116 q143 0 261 -82t155 -233l-215 -66q-25 78 -80.5 117t-120.5 39q-82 0 -139.5 -53.5t-57.5 -139.5v-385q0 -90 58.5 -140t146.5 -50q41 0 90 12v-225q-57 -14 -98 -14q-178 0 -301 115.5t-123 301.5z" />
<glyph unicode="&#xa8;" horiz-adv-x="1128" d="M246 1294.5q0 57.5 41 95t100 37.5q57 0 98 -38.5t41 -94t-41 -94.5t-98 -39q-59 0 -100 38t-41 95.5zM602 1294.5q0 57.5 41 95t100.5 37.5t99.5 -37.5t40 -95t-40 -95.5t-99.5 -38t-100.5 38t-41 95.5z" />
<glyph unicode="&#xa9;" horiz-adv-x="1640" d="M104 702.5q0 301.5 208 513t507 211.5t508 -211.5t209 -513t-209 -512t-508 -210.5t-507 210.5t-208 512zM229 702.5q0 -247.5 172 -422t418 -174.5t418 174.5t172 422t-172 422.5t-418 175t-418 -175t-172 -422.5zM457 692.5q0 -153.5 107.5 -262t260.5 -108.5 q156 0 283 133l-92 102q-98 -98 -191 -98q-96 0 -162.5 68.5t-66.5 164.5t66.5 164t162.5 68q92 0 187 -95l94 97q-129 135 -281 135q-156 0 -262 -107.5t-106 -261z" />
<glyph unicode="&#xaa;" horiz-adv-x="976" d="M106 1001.5q0 157.5 100.5 255t244.5 97.5q145 0 219 -107v92h145v-675h-145v94q-35 -49 -95.5 -79t-123.5 -30q-143 0 -244 97.5t-101 255zM166 416v127h645v-127h-645zM258 1003.5q0 -90.5 58.5 -149.5t144.5 -59q88 0 148.5 56.5t60.5 152.5q0 94 -63.5 149t-145.5 55 q-86 0 -144.5 -57t-58.5 -147.5z" />
<glyph unicode="&#xab;" horiz-adv-x="1021" d="M84 477l283 424h200l-282 -424l282 -424h-200zM446 477l283 424h201l-283 -424l283 -424h-201z" />
<glyph unicode="&#xac;" horiz-adv-x="1296" d="M143 532v222h998v-531h-223v309h-775z" />
<glyph unicode="&#xad;" horiz-adv-x="976" d="M129 392v208h719v-208h-719z" />
<glyph unicode="&#xae;" horiz-adv-x="1640" d="M104 702.5q0 301.5 208 513t507 211.5t508 -211.5t209 -513t-209 -512t-508 -210.5t-507 210.5t-208 512zM229 702.5q0 -247.5 172 -422t418 -174.5t418 174.5t172 422t-172 422.5t-418 175t-418 -175t-172 -422.5zM573 338h142v250h47l180 -250h172l-184 260 q78 20 117.5 82.5t39.5 142.5q0 96 -61 167t-172 71h-281v-723zM715 727v195h139q43 0 68.5 -29t25.5 -70q0 -39 -26.5 -67.5t-71.5 -28.5h-135z" />
<glyph unicode="&#xaf;" horiz-adv-x="1042" d="M246 1198v170h551v-170h-551z" />
<glyph unicode="&#xb0;" horiz-adv-x="763" d="M96 1143q0 117 84 200.5t201 83.5q119 0 203 -83.5t84 -200.5q0 -119 -84 -203t-203 -84q-117 0 -201 84t-84 203zM242 1143q0 -59 41 -100.5t98 -41.5q59 0 100 41t41 100.5t-41 99.5t-100 40q-57 0 -98 -41t-41 -98z" />
<glyph unicode="&#xb1;" horiz-adv-x="1118" d="M141 -2v195h836v-195h-836zM141 588v196h318v291h198v-291h320v-196h-320v-295h-198v295h-318z" />
<glyph unicode="&#xb2;" horiz-adv-x="649" d="M59 1454q18 106 90 169t177 63q106 0 180 -67t74 -171q0 -106 -84 -201l-191 -217h262v-143h-504v76l322 383q45 55 45 102q0 41 -29.5 67.5t-81.5 26.5q-47 0 -80.5 -31.5t-41.5 -85.5z" />
<glyph unicode="&#xb3;" horiz-adv-x="655" d="M41 1040q106 53 127 66q43 -78 129 -88q51 -2 90 27.5t43 72.5q2 43 -25.5 82t-97.5 37h-86v129h86q51 0 72.5 36t17.5 66q-2 31 -26.5 55.5t-63.5 24.5q-65 2 -104 -53q-4 4 -56.5 38t-56.5 38q35 55 98.5 87t139.5 28q100 -6 163.5 -70t63.5 -150q0 -100 -98 -155 q61 -23 99 -85.5t32 -125.5q-8 -100 -97.5 -166t-203.5 -57q-80 6 -146.5 51t-99.5 112z" />
<glyph unicode="&#xb4;" horiz-adv-x="1103" d="M264 1114l215 334h262l-282 -334h-195z" />
<glyph unicode="&#xb5;" d="M156 -365v1321h250v-524q0 -104 52 -156.5t124 -52.5q88 0 147 54.5t59 168.5v510h250v-956h-250v127q-39 -70 -110.5 -108.5t-145.5 -38.5q-98 0 -161 57l18 -258v-144h-233z" />
<glyph unicode="&#xb6;" horiz-adv-x="1417" d="M70 967q0 184 129 314t315 130h176v-1438q0 -59 -12 -71q-14 -12 -49 -13h-135v633q-176 10 -300 139.5t-124 305.5zM492 -225h223q41 0 70.5 27.5t29.5 66.5v1542h248q115 0 197.5 -84t82.5 -197v-174h-184v162q0 41 -26.5 70t-65.5 29h-59v-1338q0 -106 -85 -192 t-196 -88h-57h-178v176z" />
<glyph unicode="&#xb7;" horiz-adv-x="569" d="M123 641.5q0 65.5 47 110.5t112 45q68 0 116 -44t48 -111.5t-48 -111.5t-116 -44q-66 0 -112.5 45t-46.5 110.5z" />
<glyph unicode="&#xb8;" horiz-adv-x="1081" d="M334 -190l141 -9q0 -26 10 -51q10 -27 35 -38t53 -3q57 23 35 94l-94 256h121l104 -192q18 -33 19 -94q0 -84 -62.5 -146.5t-152.5 -62.5q-86 0 -148.5 66.5t-60.5 179.5z" />
<glyph unicode="&#xb9;" horiz-adv-x="434" d="M45 1407v133l285 143v-796h-150v581z" />
<glyph unicode="&#xba;" horiz-adv-x="950" d="M115 1006q0 154 103.5 251t250.5 97t250.5 -97.5t103.5 -250.5q0 -158 -103.5 -257.5t-250.5 -99.5q-150 0 -252 98.5t-102 258.5zM152 416v127h655v-127h-655zM262 1006q0 -94 60.5 -152.5t146.5 -58.5t146.5 58t60.5 153q0 90 -60.5 146t-146.5 56t-146.5 -56 t-60.5 -146z" />
<glyph unicode="&#xbb;" horiz-adv-x="1021" d="M92 54l282 424l-282 423h201l282 -423l-282 -424h-201zM454 54l283 424l-283 423h201l283 -423l-283 -424h-201z" />
<glyph unicode="&#xbc;" horiz-adv-x="1591" d="M80 1073v135l285 142v-797h-150v582zM213 -20l925 1390h156l-922 -1390h-159zM872 170l396 618h143v-487h105v-131h-105v-170h-149v170h-390zM1094 301h168v266z" />
<glyph unicode="&#xbd;" horiz-adv-x="1622" d="M80 1073v135l285 142v-797h-150v582zM213 -20l925 1390h156l-922 -1390h-159zM1009 567q18 109 90 171.5t177 62.5q106 0 180 -67.5t74 -170.5q0 -106 -84 -201l-191 -219h262v-143h-503v78l321 383q45 55 45 102q0 41 -30.5 67.5t-79.5 26.5q-47 0 -81 -31.5t-42 -84.5z " />
<glyph unicode="&#xbe;" horiz-adv-x="1746" d="M74 709l127 65q47 -88 129 -88q51 -2 90 27.5t43 70.5q2 43 -25.5 83t-97.5 38h-86v129h86q51 0 72.5 36t17.5 67q-2 31 -26.5 55.5t-63.5 24.5q-67 1 -104 -56l-113 78q35 55 98.5 87t139.5 28q100 -6 163.5 -69.5t63.5 -149.5q0 -100 -98 -156q61 -23 99 -85.5 t32 -127.5q-8 -100 -97.5 -165.5t-203.5 -57.5q-80 6 -146.5 51t-99.5 115zM369 -20l925 1390h156l-922 -1390h-159zM1028 170l396 618h143v-487h105v-131h-105v-170h-149v170h-390zM1250 301h168v266z" />
<glyph unicode="&#xbf;" horiz-adv-x="987" d="M68 -78q0 143 78.5 245.5t203.5 141.5q63 20 91 56t28 108l4 74h244l4 -74q0 -80 -15.5 -137t-34 -93t-70.5 -74t-86 -55.5t-120 -60.5q-78 -33 -78 -133q0 -63 52.5 -105t126.5 -42q76 0 125 49t49 129h248q0 -195 -118 -311.5t-304.5 -116.5t-307 109.5t-120.5 289.5z M430 819q0 68 47 113t114.5 45t115 -45t47.5 -113q0 -66 -47.5 -110.5t-115 -44.5t-114.5 45t-47 110z" />
<glyph unicode="&#xc0;" horiz-adv-x="1339" d="M0 0l528 1411h283l528 -1411h-276l-129 342h-526l-129 -342h-279zM309 1903h262l215 -334h-194zM496 571h352l-178 539z" />
<glyph unicode="&#xc1;" horiz-adv-x="1339" d="M0 0h279l129 342h526l129 -342h276l-528 1411h-283zM496 571l174 539l178 -539h-352zM547 1569l215 334h262l-283 -334h-194z" />
<glyph unicode="&#xc2;" horiz-adv-x="1339" d="M0 0l528 1411h283l528 -1411h-276l-129 342h-526l-129 -342h-279zM320 1575l223 334h252l225 -334h-192l-160 180l-156 -180h-192zM496 571h352l-178 539z" />
<glyph unicode="&#xc3;" horiz-adv-x="1339" d="M0 0l528 1411h283l528 -1411h-276l-129 342h-526l-129 -342h-279zM381 1610q6 133 64.5 194.5t131.5 61.5q49 0 104.5 -42t76.5 -42q16 0 34.5 20.5t20.5 63.5h143q-6 -131 -66.5 -191.5t-131.5 -60.5q-47 0 -105 42t-76 42q-16 0 -33.5 -22.5t-19.5 -65.5h-143zM496 571 h352l-178 539z" />
<glyph unicode="&#xc4;" horiz-adv-x="1339" d="M0 0h279l129 342h526l129 -342h276l-528 1411h-283zM350 1749q0 57 41 95t101 38q57 0 98 -39t41 -94t-41 -94t-98 -39q-59 0 -100.5 38t-41.5 95zM496 571l174 539l178 -539h-352zM707 1749q0 57 40.5 95t100 38t99.5 -38t40 -95t-40 -95t-99.5 -38t-100 38t-40.5 95z " />
<glyph unicode="&#xc5;" horiz-adv-x="1339" d="M0 0h279l129 342h526l129 -342h276l-528 1411h-283zM432 1794q0 100 68.5 170t165.5 70q100 0 169.5 -69t69.5 -171q0 -98 -69.5 -165.5t-169.5 -67.5q-96 0 -165 67.5t-69 165.5zM496 571l174 539l178 -539h-352zM549 1794q0 -49 34.5 -83t82.5 -34q51 0 85.5 34 t34.5 83q0 51 -34.5 86t-85.5 35q-47 0 -82 -35t-35 -86z" />
<glyph unicode="&#xc6;" horiz-adv-x="1910" d="M-29 0l891 1411h926v-237h-610v-363h534v-233h-534v-340h630v-238h-890v2l-3 -2v334h-419l-213 -334h-312zM645 586h270v471z" />
<glyph unicode="&#xc7;" horiz-adv-x="1421" d="M92 702q0 303 206 514t505 211q176 0 324.5 -74.5t242.5 -203.5l-209 -150q-139 180 -358 181q-190 0 -319.5 -139.5t-129.5 -338t129 -337t320 -138.5q111 0 207 51.5t159 139.5l207 -152q-86 -123 -220 -197.5t-296 -86.5l64 -115q18 -33 18 -94q0 -84 -63.5 -146.5 t-151.5 -62.5q-86 0 -148.5 66.5t-60.5 179.5l141 -9q1 -26 11 -51q10 -27 34.5 -38t53.5 -3q57 23 35 94l-68 181q-272 29 -452.5 233.5t-180.5 484.5z" />
<glyph unicode="&#xc8;" horiz-adv-x="1171" d="M176 0v1411h873v-233h-613v-367h537v-231h-537v-347h633v-233h-893zM311 1903h262l215 -334h-194z" />
<glyph unicode="&#xc9;" horiz-adv-x="1171" d="M176 0h893v233h-633v347h537v231h-537v367h613v233h-873v-1411zM391 1569l215 334h262l-282 -334h-195z" />
<glyph unicode="&#xca;" horiz-adv-x="1171" d="M176 0v1411h873v-233h-613v-367h537v-231h-537v-347h633v-233h-893zM232 1575l223 334h252l225 -334h-192l-160 180l-156 -180h-192z" />
<glyph unicode="&#xcb;" horiz-adv-x="1171" d="M176 0h893v233h-633v347h537v231h-537v367h613v233h-873v-1411zM291 1749q0 57 41 95t100 38q57 0 98 -39t41 -94t-41 -94t-98 -39q-59 0 -100 38t-41 95zM647 1749q0 57 41 95t100.5 38t99.5 -38t40 -95t-40 -95t-99.5 -38t-100.5 38t-41 95z" />
<glyph unicode="&#xcc;" horiz-adv-x="612" d="M-43 1903h262l215 -334h-194zM176 0v1411h260v-1411h-260z" />
<glyph unicode="&#xcd;" horiz-adv-x="612" d="M176 0h260v1411h-260v-1411zM178 1569l215 334h262l-282 -334h-195z" />
<glyph unicode="&#xce;" horiz-adv-x="612" d="M-43 1575l223 334h252l225 -334h-192l-160 180l-156 -180h-192zM176 0v1411h260v-1411h-260z" />
<glyph unicode="&#xcf;" horiz-adv-x="612" d="M-12 1749q0 57 41 95t100 38q57 0 98 -39t41 -94t-41 -94t-98 -39q-59 0 -100 38t-41 95zM176 0h260v1411h-260v-1411zM344 1749q0 57 41 95t100.5 38t99.5 -38t40 -95t-40 -95t-99.5 -38t-100.5 38t-41 95z" />
<glyph unicode="&#xd0;" horiz-adv-x="1478" d="M6 600v180h193v631h546q297 0 466 -198.5t169 -510.5q0 -309 -169 -505.5t-466 -196.5h-546v600h-193zM459 244h286q180 0 277.5 129t97.5 329.5t-97 332.5t-278 132h-286v-387h282v-180h-282v-356z" />
<glyph unicode="&#xd1;" horiz-adv-x="1396" d="M176 0v1411h244l538 -917v917h263v-1411h-240l-545 928v-928h-260zM410 1610q6 133 64.5 194.5t131.5 61.5q49 0 104.5 -42t76.5 -42q16 0 34.5 20.5t20.5 63.5h143q-6 -131 -66.5 -191.5t-131.5 -60.5q-47 0 -105 42t-76 42q-16 0 -33.5 -22.5t-19.5 -65.5h-143z" />
<glyph unicode="&#xd2;" horiz-adv-x="1611" d="M90 702q0 301 207 513t508 212t509 -211.5t208 -513.5q0 -299 -209 -510.5t-508 -211.5t-507 211.5t-208 510.5zM350 702.5q0 -194.5 132 -329.5t322.5 -135t323 135t132.5 329.5t-132.5 330.5t-323 136t-322.5 -136t-132 -330.5zM426 1903h262l215 -334h-194z" />
<glyph unicode="&#xd3;" horiz-adv-x="1611" d="M90 702q0 -299 208 -510.5t507 -211.5t508 211.5t209 510.5q0 301 -208 513t-509 212t-508 -212t-207 -513zM350 702.5q0 194.5 132 330.5t322.5 136t323 -136t132.5 -330.5t-132.5 -329.5t-323 -135t-322.5 135t-132 329.5zM694 1569l215 334h262l-282 -334h-195z" />
<glyph unicode="&#xd4;" horiz-adv-x="1611" d="M90 702q0 301 207 513t508 212t509 -211.5t208 -513.5q0 -299 -209 -510.5t-508 -211.5t-507 211.5t-208 510.5zM350 702.5q0 -194.5 132 -329.5t322.5 -135t323 135t132.5 329.5t-132.5 330.5t-323 136t-322.5 -136t-132 -330.5zM455 1575l223 334h252l225 -334h-192 l-160 180l-156 -180h-192z" />
<glyph unicode="&#xd5;" horiz-adv-x="1611" d="M90 702q0 301 207 513t508 212t509 -211.5t208 -513.5q0 -299 -209 -510.5t-508 -211.5t-507 211.5t-208 510.5zM350 702.5q0 -194.5 132 -329.5t322.5 -135t323 135t132.5 329.5t-132.5 330.5t-323 136t-322.5 -136t-132 -330.5zM518 1610q6 133 64.5 194.5t131.5 61.5 q49 0 104.5 -42t76.5 -42q16 0 34.5 20.5t20.5 63.5h143q-6 -131 -66.5 -191.5t-131.5 -60.5q-47 0 -105 42t-76 42q-16 0 -33.5 -22.5t-19.5 -65.5h-143z" />
<glyph unicode="&#xd6;" horiz-adv-x="1611" d="M90 702q0 -299 208 -510.5t507 -211.5t508 211.5t209 510.5q0 301 -208 513t-509 212t-508 -212t-207 -513zM350 702.5q0 194.5 132 330.5t322.5 136t323 -136t132.5 -330.5t-132.5 -329.5t-323 -135t-322.5 135t-132 329.5zM487 1749q0 57 41 95t101 38q57 0 98 -39 t41 -94t-41 -94t-98 -39q-59 0 -100.5 38t-41.5 95zM844 1749q0 57 41 95t100 38t99 -38t40 -95t-40 -95t-99 -38t-100 38t-41 95z" />
<glyph unicode="&#xd7;" horiz-adv-x="1007" d="M121 784l139 138l244 -242l246 246l139 -142l-246 -243l246 -244l-139 -141l-246 243l-242 -239l-139 139l242 242z" />
<glyph unicode="&#xd8;" horiz-adv-x="1607" d="M88 702q0 301 207 513t508 212q262 0 457 -165l161 165l97 -94l-164 -168q166 -203 166 -463q0 -299 -209 -510.5t-508 -211.5q-231 0 -414 133q-4 2 -16.5 10t-18.5 12l-164 -168l-96 96l164 168q-170 203 -170 471zM348 702q0 -156 92 -284l637 657q-117 94 -274 94 q-190 0 -322.5 -136t-132.5 -331zM537 324q114 -86 266 -86q190 0 322 135t132 329q0 150 -88 275z" />
<glyph unicode="&#xd9;" horiz-adv-x="1394" d="M162 498v913h266v-913q0 -119 80 -195t190.5 -76t191.5 76t81 195v913h262v-913q0 -229 -156.5 -373.5t-378.5 -144.5q-223 0 -379.5 144t-156.5 374zM375 1903h262l215 -334h-194z" />
<glyph unicode="&#xda;" horiz-adv-x="1394" d="M162 498v913h266v-913q0 -119 80 -195t190.5 -76t191.5 76t81 195v913h262v-913q0 -229 -156.5 -373.5t-378.5 -144.5q-223 0 -379.5 144t-156.5 374zM524 1569l215 334h262l-282 -334h-195z" />
<glyph unicode="&#xdb;" horiz-adv-x="1394" d="M162 498v913h266v-913q0 -119 80 -195t190.5 -76t191.5 76t81 195v913h262v-913q0 -229 -156.5 -373.5t-378.5 -144.5q-223 0 -379.5 144t-156.5 374zM346 1575l223 334h252l225 -334h-192l-160 180l-156 -180h-192z" />
<glyph unicode="&#xdc;" horiz-adv-x="1394" d="M162 498v913h266v-913q0 -119 80 -195t190.5 -76t191.5 76t81 195v913h262v-913q0 -229 -156.5 -373.5t-378.5 -144.5q-223 0 -379.5 144t-156.5 374zM379 1749.5q0 57.5 41 95t100 37.5q57 0 98 -38.5t41 -94t-41 -94.5t-98 -39q-59 0 -100 38t-41 95.5zM735 1749.5 q0 57.5 41 95t100.5 37.5t99.5 -37.5t40 -95t-40 -95.5t-99.5 -38t-100.5 38t-41 95.5z" />
<glyph unicode="&#xdd;" horiz-adv-x="1318" d="M-16 1411h311l362 -543l367 543h313l-544 -772v-639h-269v643zM508 1569l215 334h262l-282 -334h-195z" />
<glyph unicode="&#xde;" horiz-adv-x="1173" d="M176 0v1411h260v-237h232q190 0 318 -124t128 -327t-128 -330t-318 -127h-232v-266h-260zM436 496h221q82 0 140.5 61.5t58.5 161.5q0 102 -60.5 162.5t-144.5 64.5h-215v-450z" />
<glyph unicode="&#xdf;" d="M141 0v1004q0 199 115 311t297 112t299 -99t117 -245q0 -164 -129 -249q106 -51 172.5 -153.5t66.5 -234.5q0 -203 -124 -334.5t-339 -131.5q-77 -1 -159 24l37 236q63 -16 120 -17q100 0 165 71t65 165q0 86 -62.5 160.5t-175.5 74.5h-63v213h49q61 0 99 43t38 107 q0 61 -46 101t-120 40q-78 0 -127 -52t-49 -202v-944h-246z" />
<glyph unicode="&#xe0;" horiz-adv-x="1257" d="M82 479q0 221 144.5 359.5t342.5 138.5q80 0 165 -34t132 -105v118h250v-956h-250v123q-43 -68 -130 -104.5t-167 -36.5q-197 0 -342 138t-145 359zM315 1448h262l215 -334h-194zM340 479.5q0 -112.5 79 -185.5t185.5 -73t184 70.5t77.5 187.5q0 119 -78.5 188.5 t-183.5 69.5q-106 0 -185 -72.5t-79 -185z" />
<glyph unicode="&#xe1;" horiz-adv-x="1257" d="M82 479q0 221 144.5 359.5t342.5 138.5q80 0 165 -34t132 -105v118h250v-956h-250v123q-43 -68 -130 -104.5t-167 -36.5q-197 0 -342 138t-145 359zM340 479.5q0 -112.5 79 -185.5t185.5 -73t184 70.5t77.5 187.5q0 119 -78.5 188.5t-183.5 69.5q-106 0 -185 -72.5 t-79 -185zM448 1114l215 334h262l-282 -334h-195z" />
<glyph unicode="&#xe2;" horiz-adv-x="1257" d="M82 479q0 221 144.5 359.5t342.5 138.5q80 0 165 -34t132 -105v118h250v-956h-250v123q-43 -68 -130 -104.5t-167 -36.5q-197 0 -342 138t-145 359zM279 1120l223 334h252l225 -334h-192l-160 180l-156 -180h-192zM340 479.5q0 -112.5 79 -185.5t185.5 -73t184 70.5 t77.5 187.5q0 119 -78.5 188.5t-183.5 69.5q-106 0 -185 -72.5t-79 -185z" />
<glyph unicode="&#xe3;" horiz-adv-x="1257" d="M82 479q0 221 144.5 359.5t342.5 138.5q80 0 165 -34t132 -105v118h250v-956h-250v123q-43 -68 -130 -104.5t-167 -36.5q-197 0 -342 138t-145 359zM340 479.5q0 -112.5 79 -185.5t185.5 -73t184 70.5t77.5 187.5q0 119 -78.5 188.5t-183.5 69.5q-106 0 -185 -72.5 t-79 -185zM342 1155q6 133 64.5 194.5t131.5 61.5q49 0 104.5 -42t76.5 -42q16 0 34.5 20.5t20.5 63.5h143q-6 -131 -66.5 -191.5t-131.5 -60.5q-47 0 -105 42t-76 42q-16 0 -33.5 -22.5t-19.5 -65.5h-143z" />
<glyph unicode="&#xe4;" horiz-adv-x="1257" d="M82 479q0 221 144.5 359.5t342.5 138.5q80 0 165 -34t132 -105v118h250v-956h-250v123q-43 -68 -130 -104.5t-167 -36.5q-197 0 -342 138t-145 359zM312 1294.5q0 57.5 41 95t100 37.5q57 0 98 -38.5t41 -94t-41 -94.5t-98 -39q-59 0 -100 38t-41 95.5zM340 479.5 q0 -112.5 79 -185.5t185.5 -73t184 70.5t77.5 187.5q0 119 -78.5 188.5t-183.5 69.5q-106 0 -185 -72.5t-79 -185zM668 1294.5q0 57.5 41 95t100.5 37.5t99.5 -37.5t40 -95t-40 -95.5t-99.5 -38t-100.5 38t-41 95.5z" />
<glyph unicode="&#xe5;" horiz-adv-x="1257" d="M82 479q0 221 144.5 359.5t342.5 138.5q80 0 165 -34t132 -105v118h250v-956h-250v123q-43 -68 -130 -104.5t-167 -36.5q-197 0 -342 138t-145 359zM340 479.5q0 -112.5 79 -185.5t185.5 -73t184 70.5t77.5 187.5q0 119 -78.5 188.5t-183.5 69.5q-106 0 -185 -72.5 t-79 -185zM394 1339q0 100 68.5 170t164.5 70q102 0 171 -68.5t69 -171.5q0 -98 -69.5 -165.5t-170.5 -67.5q-96 0 -164.5 67.5t-68.5 165.5zM510 1339q0 -49 35 -82.5t82 -33.5q51 0 86 33.5t35 82.5q0 51 -35 86t-86 35q-47 0 -82 -35t-35 -86z" />
<glyph unicode="&#xe6;" horiz-adv-x="2033" d="M82 479q0 221 144.5 359.5t342.5 138.5q80 0 165 -34t132 -105v118h232v-153q135 174 381 174q209 0 346 -137.5t137 -358.5q0 -41 -4 -86h-729q14 -94 85.5 -149.5t178.5 -55.5q76 0 141.5 32t98.5 91l192 -102q-63 -117 -184 -174t-262 -57q-246 0 -381 178v-158h-232 v123q-43 -68 -130 -104.5t-167 -36.5q-197 0 -342 138t-145 359zM340 479.5q0 -112.5 79 -185.5t185.5 -73t184 70.5t77.5 187.5q0 119 -78.5 188.5t-183.5 69.5q-106 0 -185 -72.5t-79 -185zM1227 565h491q-12 94 -77.5 148.5t-161.5 54.5q-100 0 -169 -53.5t-83 -149.5z " />
<glyph unicode="&#xe7;" horiz-adv-x="1069" d="M82 481q0 219 151.5 357.5t364.5 138.5q121 0 225.5 -49t171.5 -137l-198 -150q-70 94 -199 94q-109 0 -188.5 -70.5t-79.5 -183t79.5 -187.5t188.5 -75q129 0 199 96l200 -147q-123 -161 -342 -184l64 -117q18 -33 18 -94q0 -84 -63.5 -146.5t-151.5 -62.5 q-86 0 -148.5 66.5t-60.5 179.5l142 -9q0 -27 10 -51q10 -27 34.5 -38t53.5 -3q57 23 35 94l-68 183q-186 25 -312 161t-126 334z" />
<glyph unicode="&#xe8;" horiz-adv-x="1132" d="M82 481q0 221 143.5 358.5t352 137.5t347 -137.5t138.5 -358.5q0 -41 -4 -86h-729q12 -94 84.5 -149.5t179.5 -55.5q76 0 141.5 32t98.5 91l190 -102q-61 -117 -182 -174t-264 -57q-209 0 -352.5 140t-143.5 361zM229 1448h262l215 -334h-194zM328 565h491 q-14 96 -79.5 149.5t-159.5 53.5q-100 0 -169 -54.5t-83 -148.5z" />
<glyph unicode="&#xe9;" horiz-adv-x="1132" d="M82 481q0 -221 143.5 -361t352.5 -140q143 0 264 57t182 174l-190 102q-33 -59 -98.5 -91t-141.5 -32q-106 0 -179 55.5t-85 149.5h729q4 45 4 86q0 221 -138.5 358.5t-347 137.5t-352 -137.5t-143.5 -358.5zM328 565q14 94 82.5 148.5t169.5 54.5q94 0 159.5 -53 t79.5 -150h-491zM465 1114l215 334h262l-283 -334h-194z" />
<glyph unicode="&#xea;" horiz-adv-x="1132" d="M82 481q0 221 143.5 358.5t352 137.5t347 -137.5t138.5 -358.5q0 -41 -4 -86h-729q12 -94 84.5 -149.5t179.5 -55.5q76 0 141.5 32t98.5 91l190 -102q-61 -117 -182 -174t-264 -57q-209 0 -352.5 140t-143.5 361zM221 1120l223 334h252l225 -334h-192l-160 180l-156 -180 h-192zM328 565h491q-14 96 -79.5 149.5t-159.5 53.5q-100 0 -169 -54.5t-83 -148.5z" />
<glyph unicode="&#xeb;" horiz-adv-x="1132" d="M82 481q0 -221 143.5 -361t352.5 -140q143 0 264 57t182 174l-190 102q-33 -59 -98.5 -91t-141.5 -32q-106 0 -179 55.5t-85 149.5h729q4 45 4 86q0 221 -138.5 358.5t-347 137.5t-352 -137.5t-143.5 -358.5zM254 1294.5q0 57.5 41 95t100 37.5q57 0 98.5 -38.5t41.5 -94 t-41 -94.5t-99 -39q-59 0 -100 38t-41 95.5zM328 565q14 94 82.5 148.5t169.5 54.5q94 0 159.5 -53t79.5 -150h-491zM610 1294.5q0 57.5 41 95t100.5 37.5t99.5 -37.5t40 -95t-40 -95.5t-99.5 -38t-100.5 38t-41 95.5z" />
<glyph unicode="&#xec;" horiz-adv-x="530" d="M-94 1448h262l215 -334h-194zM141 0v956h248v-956h-248z" />
<glyph unicode="&#xed;" horiz-adv-x="530" d="M139 1114l215 334h262l-282 -334h-195zM141 0h248v956h-248v-956z" />
<glyph unicode="&#xee;" horiz-adv-x="530" d="M-84 1120l223 334h252l225 -334h-192l-160 180l-156 -180h-192zM141 0v956h248v-956h-248z" />
<glyph unicode="&#xef;" horiz-adv-x="530" d="M-53 1294.5q0 57.5 41 95t100 37.5q57 0 98 -38.5t41 -94t-41 -94.5t-98 -39q-59 0 -100 38t-41 95.5zM141 0h248v956h-248v-956zM303 1294.5q0 57.5 41 95t100.5 37.5t99.5 -37.5t40 -95t-40 -95.5t-99.5 -38t-100.5 38t-41 95.5z" />
<glyph unicode="&#xf0;" d="M82 479q0 201 125 334t309 148q41 4 90 -7l-129 156l-174 -88l-61 98l164 84l-154 207h252l86 -115l162 80l71 -88l-161 -84l321 -428q94 -129 94 -297q0 -221 -144.5 -360t-353 -139t-353 139t-144.5 360zM328 479q0 -115 72.5 -185.5t179 -70.5t180.5 71t74 185 q0 113 -74 181.5t-180.5 68.5t-179 -68.5t-72.5 -181.5z" />
<glyph unicode="&#xf1;" d="M141 0v956h250v-141q39 74 119 118t166 44q170 0 263 -105.5t93 -306.5v-565h-250v520q0 102 -49 157.5t-133 55.5q-92 0 -150.5 -53t-58.5 -170v-510h-250zM293 1155q6 133 64.5 194.5t131.5 61.5q49 0 104.5 -42t76.5 -42q16 0 34.5 20.5t20.5 63.5h143 q-6 -131 -66.5 -191.5t-131.5 -60.5q-47 0 -105 42t-76 42q-16 0 -33.5 -22.5t-19.5 -65.5h-143z" />
<glyph unicode="&#xf2;" horiz-adv-x="1159" d="M82 481q0 221 144.5 358.5t353 137.5t353 -137.5t144.5 -358.5t-144.5 -360t-353 -139t-353 139t-144.5 360zM235 1448h262l215 -334h-194zM330 481q0 -115 71.5 -185.5t178 -70.5t178 71t71.5 185q0 111 -71.5 180.5t-178 69.5t-178 -69.5t-71.5 -180.5z" />
<glyph unicode="&#xf3;" horiz-adv-x="1159" d="M82 481q0 -221 144.5 -360t353 -139t353 139t144.5 360t-144.5 358.5t-353 137.5t-353 -137.5t-144.5 -358.5zM330 481q0 111 71.5 180.5t178 69.5t178 -69.5t71.5 -180.5q0 -115 -71.5 -185.5t-178 -70.5t-178 71t-71.5 185zM449 1114l215 334h262l-283 -334h-194z" />
<glyph unicode="&#xf4;" horiz-adv-x="1159" d="M82 481q0 221 144.5 358.5t353 137.5t353 -137.5t144.5 -358.5t-144.5 -360t-353 -139t-353 139t-144.5 360zM230 1120l223 334h252l225 -334h-192l-160 180l-156 -180h-192zM330 481q0 -115 71.5 -185.5t178 -70.5t178 71t71.5 185q0 111 -71.5 180.5t-178 69.5 t-178 -69.5t-71.5 -180.5z" />
<glyph unicode="&#xf5;" horiz-adv-x="1159" d="M82 481q0 221 144.5 358.5t353 137.5t353 -137.5t144.5 -358.5t-144.5 -360t-353 -139t-353 139t-144.5 360zM291 1155q6 133 64.5 194.5t131.5 61.5q49 0 104.5 -42t76.5 -42q16 0 34.5 20.5t20.5 63.5h143q-6 -131 -66.5 -191.5t-131.5 -60.5q-47 0 -105 42t-76 42 q-16 0 -33.5 -22.5t-19.5 -65.5h-143zM330 481q0 -115 71.5 -185.5t178 -70.5t178 71t71.5 185q0 111 -71.5 180.5t-178 69.5t-178 -69.5t-71.5 -180.5z" />
<glyph unicode="&#xf6;" horiz-adv-x="1159" d="M82 481q0 -221 144.5 -360t353 -139t353 139t144.5 360t-144.5 358.5t-353 137.5t-353 -137.5t-144.5 -358.5zM260 1294.5q0 57.5 41 95t100 37.5q57 0 98.5 -38.5t41.5 -94t-41 -94.5t-99 -39q-59 0 -100 38t-41 95.5zM330 481q0 111 71.5 180.5t178 69.5t178 -69.5 t71.5 -180.5q0 -115 -71.5 -185.5t-178 -70.5t-178 71t-71.5 185zM616 1294.5q0 57.5 41 95t100.5 37.5t99.5 -37.5t40 -95t-40 -95.5t-99.5 -38t-100.5 38t-41 95.5z" />
<glyph unicode="&#xf7;" d="M115 414h932v186h-932v-186zM430 135.5q0 61.5 45 103.5t106.5 42t106.5 -42t45 -103.5t-45 -103.5t-106.5 -42t-106.5 42t-45 103.5zM430 885q0 61 44 102t107.5 41t107.5 -41t44 -102q0 -63 -44 -104.5t-107.5 -41.5t-107.5 41.5t-44 104.5z" />
<glyph unicode="&#xf8;" horiz-adv-x="1159" d="M74 43l114 119q-106 129 -106 317q0 221 144.5 359.5t353.5 138.5q172 0 307 -100l104 108l96 -94l-106 -109q96 -129 96 -303q0 -221 -144 -360t-353 -139q-166 0 -291 88l-119 -121zM330 479q0 -82 35 -137l344 354q-59 35 -129 35q-104 0 -177 -70.5t-73 -181.5z M465 250q52 -27 115 -27q106 0 177.5 71t71.5 185q0 66 -26 119z" />
<glyph unicode="&#xf9;" d="M129 391v565h252v-520q0 -109 53 -161t129 -52q88 0 147.5 54t59.5 169v510h250v-956h-250v135q-39 -74 -113.5 -114.5t-150.5 -40.5q-174 0 -275.5 106.5t-101.5 304.5zM276 1448h261l217 -334h-197z" />
<glyph unicode="&#xfa;" d="M129 391v565h252v-520q0 -109 53 -161t129 -52q88 0 147.5 54t59.5 169v510h250v-956h-250v135q-39 -74 -113.5 -114.5t-150.5 -40.5q-174 0 -275.5 106.5t-101.5 304.5zM422 1114l217 334h262l-283 -334h-196z" />
<glyph unicode="&#xfb;" d="M129 391v565h252v-520q0 -109 53 -161t129 -52q88 0 147.5 54t59.5 169v510h250v-956h-250v135q-39 -74 -113.5 -114.5t-150.5 -40.5q-174 0 -275.5 106.5t-101.5 304.5zM219 1120l223 334h252l225 -334h-192l-160 180l-156 -180h-192z" />
<glyph unicode="&#xfc;" d="M129 391v565h252v-520q0 -109 53 -161t129 -52q88 0 147.5 54t59.5 169v510h250v-956h-250v135q-39 -74 -113.5 -114.5t-150.5 -40.5q-174 0 -275.5 106.5t-101.5 304.5zM256 1300.5q0 57.5 41 95.5t100 38q57 0 97.5 -38t40.5 -95.5t-40 -95.5t-98 -38q-59 0 -100 38 t-41 95.5zM612 1300.5q0 57.5 41 95.5t101 38q57 0 98 -39t41 -94.5t-41 -94.5t-98 -39q-59 0 -100.5 38t-41.5 95.5z" />
<glyph unicode="&#xfd;" horiz-adv-x="1046" d="M18 956l373 -882l-219 -541h264l592 1423h-266l-240 -596l-237 596h-267zM344 1114l215 334h262l-282 -334h-195z" />
<glyph unicode="&#xfe;" horiz-adv-x="1234" d="M141 -465v1942h248v-637q41 63 121 100t172 37q197 0 334 -138.5t137 -361.5q0 -221 -137 -359t-334 -138q-90 0 -171 36.5t-122 102.5v-584h-248zM393 481q0 -119 74 -190.5t180 -71.5q104 0 177 73t73 189q0 113 -72.5 184.5t-177.5 71.5q-102 0 -178 -69.5t-76 -186.5 z" />
<glyph unicode="&#xff;" horiz-adv-x="1046" d="M18 956l373 -882l-219 -541h264l592 1423h-266l-240 -596l-237 596h-267zM211 1294.5q0 57.5 41 95t100 37.5q57 0 98.5 -38.5t41.5 -94t-41 -94.5t-99 -39q-59 0 -100 38t-41 95.5zM567 1294.5q0 57.5 41 95t100.5 37.5t99.5 -37.5t40 -95t-40 -95.5t-99.5 -38 t-100.5 38t-41 95.5z" />
<glyph unicode="&#x152;" horiz-adv-x="2252" d="M90 702q0 301 207 513t506 212q279 0 457 -188v172h870v-237h-610v-363h534v-233h-534v-340h630v-238h-890v166q-186 -186 -457 -186q-299 0 -506 211.5t-207 510.5zM352 702.5q0 -192.5 130 -327.5t321 -135q193 0 323.5 137t130.5 334q-4 190 -135 323t-319 133 q-190 0 -320.5 -136t-130.5 -328.5z" />
<glyph unicode="&#x153;" horiz-adv-x="1882" d="M82 479q0 221 144.5 359.5t353.5 138.5q229 0 372 -164q145 164 377 164q209 0 336 -126t143 -331q6 -53 2 -125h-731q14 -94 86 -149.5t178 -55.5q76 0 141.5 32t98.5 91l193 -102q-63 -117 -184.5 -174t-262.5 -57q-234 -1 -377 165q-143 -166 -372 -165 q-209 0 -353.5 139t-144.5 360zM330 479q0 -115 71.5 -185.5t178 -70.5t178 71t71.5 185q0 111 -72.5 181.5t-177 70.5t-177 -70.5t-72.5 -181.5zM1077 565h492q-14 94 -79 148.5t-161 54.5q-100 0 -169 -53.5t-83 -149.5z" />
<glyph unicode="&#x178;" horiz-adv-x="1318" d="M-16 1411h311l362 -543l367 543h313l-544 -772v-639h-269v643zM342 1749.5q0 57.5 41 95t100 37.5q57 0 98 -38.5t41 -94t-41 -94.5t-98 -39q-59 0 -100 38t-41 95.5zM698 1749.5q0 57.5 41 95t100.5 37.5t99.5 -37.5t40 -95t-40 -95.5t-99.5 -38t-100.5 38t-41 95.5z " />
<glyph unicode="&#x2c6;" horiz-adv-x="1191" d="M246 1120l223 334h252l225 -334h-192l-160 180l-156 -180h-192z" />
<glyph unicode="&#x2dc;" horiz-adv-x="903" d="M164 1155q6 133 64.5 194.5t131.5 61.5q49 0 104.5 -42t76.5 -42q16 0 34.5 20.5t20.5 63.5h143q-6 -131 -66.5 -191.5t-131.5 -60.5q-47 0 -105 42t-76 42q-16 0 -33.5 -22.5t-19.5 -65.5h-143z" />
<glyph unicode="&#x2000;" horiz-adv-x="1017" />
<glyph unicode="&#x2001;" horiz-adv-x="2034" />
<glyph unicode="&#x2002;" horiz-adv-x="1017" />
<glyph unicode="&#x2003;" horiz-adv-x="2034" />
<glyph unicode="&#x2004;" horiz-adv-x="678" />
<glyph unicode="&#x2005;" horiz-adv-x="508" />
<glyph unicode="&#x2006;" horiz-adv-x="339" />
<glyph unicode="&#x2007;" horiz-adv-x="339" />
<glyph unicode="&#x2008;" horiz-adv-x="254" />
<glyph unicode="&#x2009;" horiz-adv-x="406" />
<glyph unicode="&#x200a;" horiz-adv-x="113" />
<glyph unicode="&#x2010;" horiz-adv-x="976" d="M129 392v208h719v-208h-719z" />
<glyph unicode="&#x2011;" horiz-adv-x="976" d="M129 392v208h719v-208h-719z" />
<glyph unicode="&#x2012;" horiz-adv-x="976" d="M129 392v208h719v-208h-719z" />
<glyph unicode="&#x2013;" horiz-adv-x="1267" d="M129 371v221h1010v-221h-1010z" />
<glyph unicode="&#x2014;" horiz-adv-x="1699" d="M129 371v221h1442v-221h-1442z" />
<glyph unicode="&#x2018;" horiz-adv-x="546" d="M106 909q6 168 95.5 324.5t177.5 228.5l110 -55q-51 -72 -82.5 -128t-59.5 -156.5t-28 -213.5h-213z" />
<glyph unicode="&#x2019;" horiz-adv-x="542" d="M84 918q51 74 83 128t60.5 154t28.5 213h211q-4 -168 -94 -324.5t-178 -226.5z" />
<glyph unicode="&#x201a;" horiz-adv-x="512" d="M2 -158q53 76 84 130.5t59.5 154.5t28.5 213h211q-4 -168 -94 -324.5t-178 -226.5z" />
<glyph unicode="&#x201c;" horiz-adv-x="882" d="M109 911q4 168 94 324.5t178 226.5l108 -55q-51 -72 -82.5 -128t-59.5 -155.5t-28 -212.5h-210zM442 911q6 168 95.5 324.5t177.5 226.5l110 -55q-51 -74 -82.5 -128t-59.5 -154.5t-28 -213.5h-213z" />
<glyph unicode="&#x201d;" horiz-adv-x="874" d="M84 915q51 74 83 129.5t59.5 155.5t27.5 213h211q-4 -168 -93 -324.5t-177 -226.5zM418 915q53 76 83.5 130.5t58.5 154.5t28 213h213q-6 -168 -95.5 -324.5t-177.5 -226.5z" />
<glyph unicode="&#x201e;" horiz-adv-x="845" d="M4 -158q51 74 83 129.5t59.5 155.5t27.5 213h211q-4 -168 -94 -324.5t-178 -226.5zM338 -158q53 76 84 130.5t58.5 154.5t27.5 213h211q-4 -168 -93 -324.5t-177 -226.5z" />
<glyph unicode="&#x2022;" horiz-adv-x="950" d="M156 488q0 131 93 219t226 88t226.5 -88t93.5 -219t-93.5 -219t-226.5 -88t-226 88t-93 219z" />
<glyph unicode="&#x2026;" horiz-adv-x="1660" d="M117 135.5q0 67.5 47 111.5t114.5 44t114.5 -44t47 -111.5t-47 -111.5t-114.5 -44t-114.5 44t-47 111.5zM670 135.5q0 67.5 46 111.5t113.5 44t115.5 -45t48 -110.5t-48 -110.5t-115.5 -45t-113.5 44t-46 111.5zM1221 135.5q0 67.5 47 111.5t114.5 44t114.5 -44 t47 -111.5t-47 -111.5t-114.5 -44t-114.5 44t-47 111.5z" />
<glyph unicode="&#x202f;" horiz-adv-x="406" />
<glyph unicode="&#x2039;" horiz-adv-x="659" d="M84 477l283 424h200l-282 -424l282 -424h-200z" />
<glyph unicode="&#x203a;" horiz-adv-x="659" d="M92 53l283 424l-283 424h201l282 -424l-282 -424h-201z" />
<glyph unicode="&#x205f;" horiz-adv-x="508" />
<glyph unicode="&#x20ac;" horiz-adv-x="1710" d="M98 520v123h992v-123h-478q49 -131 162 -212t254 -81q111 0 207 51.5t160 139.5l207 -152q-94 -133 -244 -209.5t-330 -76.5q-250 0 -439.5 151.5t-248.5 388.5h-242zM98 758v123h240q57 238 247.5 392t442.5 154q176 0 324.5 -74.5t242.5 -203.5l-209 -150 q-139 180 -358 181q-143 0 -256 -82t-162 -217h480v-123h-992z" />
<glyph unicode="&#x2122;" horiz-adv-x="1738" d="M129 1270v141h774l236 -493l231 493h137l92 -758h-157l-58 488l-186 -404h-119l-188 404l-57 -488h-158l74 617h-220v-617h-159v617h-242z" />
<glyph unicode="&#xe000;" horiz-adv-x="952" d="M0 0v952h952v-952h-952z" />
</font>
</defs>
</svg>
