<?xml version="1.0" standalone="no"?>
<!DOCTYPE svg PUBLIC "-//W3C//DTD SVG 1.1//EN" "http://www.w3.org/Graphics/SVG/1.1/DTD/svg11.dtd" >
<svg xmlns="http://www.w3.org/2000/svg">
<metadata></metadata>
<defs>
<font id="webfontuploaded_file" horiz-adv-x="1034" >
<font-face units-per-em="2048" ascent="1541" descent="-507" />
<missing-glyph horiz-adv-x="516" />
<glyph horiz-adv-x="2048" />
<glyph horiz-adv-x="2048" />
<glyph unicode="&#xd;" horiz-adv-x="516" />
<glyph unicode=" "  horiz-adv-x="516" />
<glyph unicode="&#x09;" horiz-adv-x="516" />
<glyph unicode="&#xa0;" horiz-adv-x="516" />
<glyph unicode="!" horiz-adv-x="516" d="M131 109q0 54 36 90.5t89 36.5t90 -37t37 -90q0 -54 -36.5 -90.5t-90.5 -36.5q-53 0 -89 36t-36 91zM139 1171q0 131 27.5 190.5t87.5 59.5t88.5 -57t28.5 -180q0 -196 -27 -390.5t-76 -359.5h-26q-43 106 -73 311.5t-30 425.5z" />
<glyph unicode="&#x22;" horiz-adv-x="614" d="M90 881v555h139v-555h-139zM385 881v555h139v-555h-139z" />
<glyph unicode="#" horiz-adv-x="1575" d="M88 449l53 147h310l92 262h-330l51 146h332l162 454h166l-162 -454h256l164 454h164l-160 -454h301l-51 -146h-303l-93 -262h322l-51 -147h-322l-162 -453h-165l161 453h-258l-162 -453h-165l159 453h-309zM616 594h261l92 264h-260z" />
<glyph unicode="$" d="M47 154v262q112 -99 214.5 -151t195.5 -58v428q-200 50 -301 146t-101 235q0 150 109.5 252t292.5 118v152h127v-149q90 -7 172 -37t157 -84v-221q-95 74 -178 113t-151 42v-397q198 -61 299.5 -165t101.5 -245q0 -166 -102 -265t-299 -124v-225h-127v223h-15 q-90 0 -185.5 36t-209.5 114zM250 1030q0 -67 51.5 -113.5t155.5 -74.5l-1 360q-95 -1 -150.5 -47.5t-55.5 -124.5zM584 205q93 6 143.5 51t50.5 121q0 73 -50 126.5t-144 82.5v-381z" />
<glyph unicode="%" horiz-adv-x="1964" d="M57 1004q0 175 120.5 296t295.5 121q174 0 296 -121.5t122 -295.5t-122 -295t-296 -121t-295 120.5t-121 295.5zM240 1006q0 -99 67.5 -167.5t165.5 -68.5q97 0 165.5 68.5t68.5 167.5q0 97 -68.5 165t-165.5 68q-98 0 -165.5 -67.5t-67.5 -165.5zM426 -25l944 1448h168 l-948 -1448h-164zM1071 391q0 175 121.5 296.5t296.5 121.5q174 0 295 -121.5t121 -296.5q0 -173 -121.5 -294.5t-294.5 -121.5q-175 0 -296.5 121t-121.5 295zM1253 391q0 -98 68.5 -165.5t167.5 -67.5q97 0 165 67.5t68 165.5t-68 167t-165 69q-98 0 -167 -69t-69 -167z " />
<glyph unicode="&#x26;" horiz-adv-x="1335" d="M61 328q0 119 81.5 218t271.5 208q-85 84 -124.5 166.5t-39.5 173.5q0 148 99 238.5t261 90.5t261.5 -87t99.5 -226q0 -115 -62.5 -206.5t-201.5 -180.5l204 -238q40 45 77.5 103t74.5 133h209q-38 -105 -96.5 -200.5t-137.5 -182.5l281 -338h-260l-168 201 q-105 -117 -213.5 -171.5t-233.5 -54.5q-174 0 -278.5 97t-104.5 256zM270 340q0 -76 52 -122t139 -46q64 0 137 39.5t172 128.5l-235 281q-146 -88 -205.5 -152t-59.5 -129zM444 1110q0 -50 37.5 -117.5t106.5 -140.5q108 72 153 130.5t45 125.5t-48 110.5t-124 43.5 q-72 0 -121 -44t-49 -108z" />
<glyph unicode="'" horiz-adv-x="317" d="M90 881v555h139v-555h-139z" />
<glyph unicode="(" horiz-adv-x="645" d="M111 471q0 243 100.5 474t314.5 476h113q-177 -218 -265.5 -458.5t-88.5 -501.5q0 -229 82 -459.5t247 -464.5h-116q-199 232 -293 459.5t-94 474.5z" />
<glyph unicode=")" horiz-adv-x="645" d="M6 1421h111q215 -247 316.5 -477.5t101.5 -472.5q0 -247 -94.5 -474.5t-293.5 -459.5h-118q166 236 248.5 466t82.5 458q0 261 -88.5 501.5t-265.5 458.5z" />
<glyph unicode="*" horiz-adv-x="905" d="M45 944v139l352 -45l-282 215l98 99l215 -283l-45 352h139l-47 -352l217 283l99 -99l-283 -217l352 47v-139l-352 47l283 -217l-99 -98l-217 282l47 -352h-139l45 352l-215 -282l-98 98l282 217z" />
<glyph unicode="+" horiz-adv-x="1706" d="M254 541v139h528v541h142v-541h528v-139h-528v-541h-142v541h-528z" />
<glyph unicode="," horiz-adv-x="516" d="M133 104q0 51 33.5 85t81.5 34q60 0 97.5 -52t37.5 -138q0 -107 -62 -185t-178 -116l-2 37q40 34 60 80t20 106v27q-45 23 -66.5 53t-21.5 69z" />
<glyph unicode="-" horiz-adv-x="692" d="M84 379v166h524v-166h-524z" />
<glyph unicode="." horiz-adv-x="516" d="M137 104q0 51 35 86t86 35t86 -35t35 -86q0 -50 -35 -85t-86 -35t-86 35t-35 85z" />
<glyph unicode="/" horiz-adv-x="578" d="M-51 -190l483 1611h143l-487 -1611h-139z" />
<glyph unicode="0" d="M57 698q0 334 124.5 528.5t334.5 194.5t334.5 -194.5t124.5 -528.5t-124.5 -528.5t-334.5 -194.5t-334.5 194.5t-124.5 528.5zM258 698q0 -256 67 -394t191 -138t191 138t67 394q0 257 -67 396t-191 139q-123 0 -190.5 -139t-67.5 -396z" />
<glyph unicode="1" d="M418 0v1399h198v-1399h-198z" />
<glyph unicode="2" d="M70 0q105 156 242.5 330t154.5 198q97 140 144.5 251t47.5 198q0 115 -65 184.5t-174 69.5q-76 0 -154 -43t-160 -129v239q87 64 171 94.5t169 30.5q186 0 300 -117t114 -307q0 -157 -94 -335t-336 -461h528v-203h-888z" />
<glyph unicode="3" d="M135 57v213q83 -43 158.5 -64.5t142.5 -21.5q107 0 169.5 60t62.5 164q0 106 -74 163.5t-223 67.5v176q130 0 206 59.5t76 161.5q0 91 -70.5 148t-185.5 57q-44 0 -96 -13.5t-139 -49.5v180q71 33 137.5 49t132.5 16q189 0 303.5 -101.5t114.5 -266.5q0 -98 -43 -176 t-125 -131q95 -47 147 -134t52 -200q0 -195 -124.5 -317t-326.5 -122q-72 0 -143.5 20t-151.5 62z" />
<glyph unicode="4" d="M12 467v84l705 870h86v-788h155v-166h-155v-467h-193v467h-598zM281 633h329l6 422z" />
<glyph unicode="5" d="M96 70v206q78 -47 156.5 -71.5t155.5 -24.5q131 0 209.5 68t78.5 180q0 127 -95 196.5t-269 69.5q-28 0 -63 -5.5t-79 -16.5l25 727h616v-170h-442l-14 -359h31q226 0 359.5 -119t133.5 -319q0 -197 -138 -327t-349 -130q-70 0 -149 24t-167 71z" />
<glyph unicode="6" d="M76 473q0 278 145.5 519t427.5 429l109 -137q-180 -124 -284.5 -252t-147.5 -276q67 32 125 48.5t106 16.5q172 0 284.5 -118t112.5 -297q0 -187 -124.5 -308t-317.5 -121q-197 0 -316.5 136t-119.5 360zM281 455q0 -131 68 -211t179 -80q101 0 162.5 63.5t61.5 167.5 q0 105 -64 171.5t-164 66.5q-68 0 -125.5 -23t-107.5 -69q-5 -26 -7.5 -47t-2.5 -39z" />
<glyph unicode="7" d="M123 1217v182h893l-635 -1434l-172 78l510 1174h-596z" />
<glyph unicode="8" d="M55 401q0 116 55 201.5t152 120.5q-77 51 -118.5 131.5t-41.5 179.5q0 171 119 280t305 109q175 0 290.5 -110.5t115.5 -276.5q0 -101 -42.5 -184t-117.5 -129q96 -36 150.5 -122t54.5 -202q0 -181 -131 -302.5t-330 -121.5q-200 0 -330.5 121.5t-130.5 304.5zM268 397 q0 -101 67.5 -167t172.5 -66q114 0 184 65t70 170q0 102 -66.5 163t-177.5 61t-180.5 -63.5t-69.5 -162.5zM293 1032q0 -98 64.5 -163.5t156.5 -65.5q101 0 166 63.5t65 163.5q0 95 -62.5 153t-164.5 58q-100 0 -162.5 -58t-62.5 -151z" />
<glyph unicode="9" d="M72 993q0 187 124.5 308.5t317.5 121.5q197 0 316.5 -135.5t119.5 -359.5q0 -279 -145.5 -521t-427.5 -430l-109 138q178 121 285.5 252.5t146.5 275.5q-67 -33 -124 -49t-105 -16q-173 0 -286 118t-113 297zM276 1006q0 -105 63.5 -171.5t162.5 -66.5q69 0 126.5 22 t106.5 68l2 7q11 54 11 79q0 132 -68.5 212.5t-179.5 80.5q-101 0 -162.5 -63.5t-61.5 -167.5z" />
<glyph unicode=":" horiz-adv-x="516" d="M137 102q0 51 35 86t86 35t86 -35t35 -86q0 -50 -35 -85t-86 -35t-86 35t-35 85zM137 825q0 51 35 85t86 34t86 -34t35 -85q0 -50 -35 -85t-86 -35t-86 35t-35 85z" />
<glyph unicode=";" horiz-adv-x="516" d="M137 104q0 51 31.5 85t79.5 34q60 0 96.5 -52t36.5 -138q0 -108 -61 -185.5t-177 -115.5l-2 37q40 34 60 80t20 106v27q-43 22 -63.5 51.5t-20.5 70.5zM137 823q0 51 35 86t86 35t87 -35t36 -86q0 -50 -36 -85.5t-87 -35.5t-86 35.5t-35 85.5z" />
<glyph unicode="&#x3c;" horiz-adv-x="1706" d="M264 547v129l1178 483v-153l-969 -396l969 -393v-154z" />
<glyph unicode="=" horiz-adv-x="1706" d="M254 342v139h1198v-139h-1198zM254 739v140h1198v-140h-1198z" />
<glyph unicode="&#x3e;" horiz-adv-x="1706" d="M264 63v154l971 393l-971 396v153l1178 -483v-129z" />
<glyph unicode="?" horiz-adv-x="641" d="M49 1151l39 217q51 28 104.5 41.5t110.5 13.5q132 0 217.5 -87t85.5 -222q0 -81 -29.5 -154t-105.5 -169q-23 -29 -66 -80q-122 -144 -122 -222q0 -15 3 -31.5t9 -33.5l-47 -21q-41 43 -61.5 89.5t-20.5 97.5q0 48 17.5 98t60.5 119q13 22 40 62q99 149 99 225 q0 59 -36 95t-95 36q-39 0 -87.5 -18t-115.5 -56zM160 106q0 52 36 87.5t89 35.5q52 0 88.5 -35.5t36.5 -87.5t-36.5 -88t-88.5 -36q-53 0 -89 36t-36 88z" />
<glyph unicode="@" horiz-adv-x="2048" d="M106 522q0 165 52 313t151 269q146 178 351.5 270t455.5 92q163 0 310 -45t253 -127q130 -100 197.5 -231t67.5 -283q0 -175 -63.5 -315t-184.5 -236q-68 -54 -149.5 -83t-166.5 -29q-99 0 -149.5 39.5t-50.5 117.5v19q-55 -89 -129 -131.5t-172 -42.5q-153 0 -233.5 85 t-80.5 247q0 235 138 394t339 159q85 0 145.5 -37.5t96.5 -112.5l57 115h132l-146 -576q-4 -16 -6 -31t-2 -28q0 -46 25.5 -70t74.5 -24q48 0 102.5 26.5t106.5 75.5q80 76 125 186.5t45 233.5q0 259 -190.5 420t-499.5 161q-133 0 -246 -28t-211 -86q-191 -114 -296 -299.5 t-105 -409.5q0 -177 61.5 -308t192.5 -230q100 -77 236.5 -118.5t287.5 -41.5q169 0 328.5 49t292.5 141l55 -82q-148 -111 -314.5 -167t-349.5 -56q-190 0 -348 47t-280 140q-154 118 -230 274t-76 354zM725 446q0 -105 48.5 -162t137.5 -57q97 0 174.5 69t104.5 179 l59 236q-17 88 -68.5 136t-129.5 48q-138 0 -232 -130t-94 -319z" />
<glyph unicode="A" horiz-adv-x="1276" d="M-45 0l606 1399h146l614 -1399h-207l-180 412h-596l-178 -412h-205zM416 592h436l-221 504z" />
<glyph unicode="B" horiz-adv-x="1186" d="M150 0v1399h409q209 0 322.5 -95t113.5 -270q0 -108 -51 -180t-156 -111q153 -36 236.5 -131t83.5 -231q0 -174 -127.5 -277.5t-345.5 -103.5h-485zM348 182h266q146 0 213.5 51.5t67.5 161.5q0 114 -75.5 167.5t-237.5 53.5h-234v-434zM348 799h135q153 0 227 55t74 168 q0 103 -58.5 150t-186.5 47h-191v-420z" />
<glyph unicode="C" horiz-adv-x="1421" d="M74 705q0 141 57 273.5t162 231.5q112 106 251 158.5t308 52.5q118 0 234 -27t243 -85v-217q-133 72 -250 106.5t-227 34.5q-245 0 -405 -152.5t-160 -382.5q0 -227 157.5 -379.5t395.5 -152.5q122 0 247 41t254 125v-226q-123 -64 -250.5 -97.5t-252.5 -33.5 q-120 0 -229 31.5t-206 93.5q-156 102 -242.5 260.5t-86.5 344.5z" />
<glyph unicode="D" horiz-adv-x="1518" d="M150 0v1399h514q155 0 266.5 -29t204.5 -92q142 -96 219.5 -246.5t77.5 -331.5t-78 -332.5t-219 -246.5q-91 -63 -204 -92t-267 -29h-514zM348 190h316q259 0 407 136t148 372q0 237 -148 373.5t-407 136.5h-316v-1018z" />
<glyph unicode="E" horiz-adv-x="1114" d="M150 0v1399h841v-178h-643v-424h625v-181h-625v-436h664v-180h-862z" />
<glyph unicode="F" horiz-adv-x="1030" d="M150 0v1399h796v-178h-598v-414h580v-180h-580v-627h-198z" />
<glyph unicode="G" horiz-adv-x="1450" d="M74 705q0 141 57 273.5t162 231.5q111 107 250 159t311 52q117 0 234.5 -28t240.5 -84v-217q-133 72 -250 106.5t-227 34.5q-245 0 -405 -152.5t-160 -382.5q0 -227 158 -379.5t397 -152.5q72 0 144 15.5t149 47.5v271h-263v186h469v-592q-138 -60 -261.5 -89.5 t-235.5 -29.5q-126 0 -237 31t-204 92q-156 102 -242.5 260.5t-86.5 346.5z" />
<glyph unicode="H" horiz-adv-x="1503" d="M150 0v1399h198v-602h807v602h199v-1399h-199v608h-807v-608h-198z" />
<glyph unicode="I" horiz-adv-x="512" d="M156 0v1399h200v-1399h-200z" />
<glyph unicode="J" horiz-adv-x="516" d="M-125 -287h31q149 0 202.5 55.5t53.5 217.5v1413h198v-1362q0 -205 -30 -290t-103 -142q-46 -37 -116 -56.5t-156 -19.5h-35z" />
<glyph unicode="K" horiz-adv-x="1251" d="M156 0v1399h200v-629l584 629h252l-608 -656l725 -743h-279l-674 692v-692h-200z" />
<glyph unicode="L" d="M156 0v1399h198v-1219h666v-180h-864z" />
<glyph unicode="M" horiz-adv-x="1655" d="M150 0v1399h174l503 -588l504 588h174v-1399h-194v1092l-484 -564l-483 564v-1092h-194z" />
<glyph unicode="N" horiz-adv-x="1593" d="M150 0v1399h174l921 -1086v1086h199v-1399h-178l-918 1087v-1087h-198z" />
<glyph unicode="O" horiz-adv-x="1640" d="M74 705q0 140 57 272t162 233q107 103 242 157t284 54q152 0 288.5 -54.5t240.5 -156.5q109 -106 164 -236t55 -282q0 -143 -56.5 -274.5t-160.5 -231.5q-109 -104 -243.5 -157.5t-287.5 -53.5q-149 0 -285.5 55t-240.5 156q-108 105 -163.5 237t-55.5 282zM287 698 q0 -107 40 -204t115 -172q73 -75 171.5 -115.5t205.5 -40.5q110 0 206.5 39.5t172.5 116.5q75 75 115.5 172t40.5 204t-40 202.5t-118 174.5q-75 77 -172 117.5t-205 40.5q-104 0 -201.5 -41t-175.5 -117q-75 -73 -115 -171t-40 -206z" />
<glyph unicode="P" horiz-adv-x="1110" d="M150 0v1399h436q219 0 342 -106t123 -294q0 -187 -123 -292t-342 -105h-238v-602h-198zM348 780h217q146 0 211.5 52t65.5 167t-65.5 167.5t-211.5 52.5h-217v-439z" />
<glyph unicode="Q" horiz-adv-x="1640" d="M74 705q0 140 57 272t162 233q107 103 242 157t284 54q152 0 288.5 -54.5t240.5 -156.5q109 -106 164 -236t55 -282q0 -248 -155 -433.5t-425 -258.5q126 -56 222.5 -81t185.5 -25q29 0 63.5 4t75.5 12l8 -21l-190 -165q-10 -2 -19 -2.5t-28 -0.5q-137 0 -307.5 71 t-362.5 208q-254 62 -407.5 255t-153.5 450zM287 698q0 -107 40 -204t115 -172q75 -76 173.5 -118t203.5 -42q108 0 204.5 40.5t174.5 119.5q75 75 115.5 172t40.5 204t-40 202.5t-118 174.5q-75 77 -172 117.5t-205 40.5q-104 0 -201.5 -41t-175.5 -117q-75 -73 -115 -171 t-40 -206z" />
<glyph unicode="R" horiz-adv-x="1157" d="M147 0v1399h410q212 0 327 -100t115 -283q0 -138 -63 -222t-199 -126q35 -19 66 -50.5t80 -105.5l340 -512h-242l-240 367q-108 166 -174.5 212t-158.5 46h-60v-625h-201zM348 793h166q140 0 209.5 54t69.5 165q0 114 -66 165.5t-213 51.5h-166v-436z" />
<glyph unicode="S" horiz-adv-x="944" d="M76 1053q0 163 115.5 267.5t297.5 104.5q81 0 159.5 -23.5t158.5 -72.5v-227q-92 74 -170 107.5t-156 33.5q-94 0 -153.5 -46.5t-59.5 -119.5q0 -104 247 -258l30 -18q201 -125 263 -220.5t62 -236.5q0 -160 -116 -264.5t-297 -104.5q-113 0 -204 32t-175 102v264 q95 -109 181.5 -157t184.5 -48q104 0 164 48.5t60 131.5q0 68 -40.5 119.5t-193.5 148.5q-237 153 -297.5 237t-60.5 200z" />
<glyph unicode="T" horiz-adv-x="1255" d="M14 1217v182h1227v-182h-514v-1217h-199v1217h-514z" />
<glyph unicode="U" horiz-adv-x="1489" d="M141 588v811h199v-803q0 -134 14.5 -190t48.5 -97q62 -73 147 -109t193 -36q182 0 293 94t111 248v893h199v-899q0 -234 -167 -379.5t-436 -145.5q-159 0 -287 56.5t-216 165.5q-54 65 -76.5 145t-22.5 246z" />
<glyph unicode="V" horiz-adv-x="1214" d="M-41 1399h209l436 -998l445 998h206l-628 -1409h-52z" />
<glyph unicode="W" horiz-adv-x="1907" d="M-35 1399h207l342 -955l377 955h127l373 -957l348 957h203l-527 -1409h-45l-418 1077l-422 -1077h-47z" />
<glyph unicode="X" horiz-adv-x="1470" d="M-20 0l643 741l-555 658h247l433 -512l440 512h248l-566 -658l619 -741h-244l-502 598l-518 -598h-245z" />
<glyph unicode="Y" horiz-adv-x="1194" d="M-55 1399h237l408 -531l418 531h241l-561 -709v-690h-203v700z" />
<glyph unicode="Z" horiz-adv-x="1305" d="M14 0l920 1223h-854v176h1200v-23l-903 -1204h903v-172h-1266z" />
<glyph unicode="[" horiz-adv-x="641" d="M174 -428v1827h449v-139h-279v-1549h279v-139h-449z" />
<glyph unicode="\" horiz-adv-x="578" d="M4 1421h143l482 -1611h-137z" />
<glyph unicode="]" horiz-adv-x="641" d="M20 -291h281v1548h-281v140h449v-1827h-449v139z" />
<glyph unicode="^" horiz-adv-x="2048" d="M420 901l510 557h186l510 -557h-180l-422 420l-424 -420h-180z" />
<glyph unicode="_" horiz-adv-x="1024" d="M0 -340h1024v-143h-1024v143z" />
<glyph unicode="`" horiz-adv-x="1024" d="M262 1403h178l209 -348h-106z" />
<glyph unicode="a" horiz-adv-x="887" d="M47 207q0 98 76 172t229 125l219 73q1 8 1.5 16t0.5 23q0 83 -40.5 119.5t-133.5 36.5q-77 0 -159 -32.5t-164 -96.5v182q71 58 159 87.5t187 29.5q178 0 259 -78.5t81 -253.5v-391q0 -49 8.5 -69.5t28.5 -20.5q17 0 35.5 9t60.5 42v-112q-50 -43 -101 -63.5t-106 -20.5 q-53 0 -79.5 22t-30.5 70q-70 -49 -132.5 -70.5t-134.5 -21.5q-124 0 -194 59.5t-70 163.5zM244 238q0 -57 36.5 -88t102.5 -31q49 0 96 17.5t92 51.5v271q-186 -58 -256.5 -107t-70.5 -114z" />
<glyph unicode="b" horiz-adv-x="1059" d="M121 43v1356h186v-527q52 37 111.5 54.5t132.5 17.5q202 0 324 -131.5t122 -349.5q0 -231 -137 -357t-387 -126q-84 0 -170.5 15.5t-181.5 47.5zM307 186q50 -18 96 -27t91 -9q146 0 226.5 81t80.5 230q0 145 -78 229t-211 84q-53 0 -103.5 -17t-101.5 -52v-519z" />
<glyph unicode="c" horiz-adv-x="901" d="M57 463q0 205 145 343t363 138q67 0 132 -14t128 -43v-197q-64 39 -126.5 57.5t-127.5 18.5q-142 0 -231.5 -85t-89.5 -218q0 -136 91 -221.5t239 -85.5q68 0 132.5 15.5t127.5 47.5v-188q-70 -25 -136 -37t-131 -12q-226 0 -371 135.5t-145 345.5z" />
<glyph unicode="d" horiz-adv-x="1059" d="M61 463q0 213 126.5 347t326.5 134q70 0 129 -17.5t111 -54.5v527h184v-1399h-184v51q-51 -35 -109.5 -52t-130.5 -17q-200 0 -326.5 134t-126.5 347zM258 465q0 -151 81 -237.5t222 -86.5q54 0 101 15.5t92 48.5v520q-45 32 -92 47.5t-101 15.5q-141 0 -222 -86 t-81 -237z" />
<glyph unicode="e" horiz-adv-x="999" d="M57 477q0 207 125.5 336t327.5 129q200 0 317 -131t117 -354v-27h-692q8 -131 86 -204.5t209 -73.5q88 0 183.5 32.5t197.5 98.5v-185q-92 -59 -189.5 -88.5t-201.5 -29.5q-219 0 -349.5 135.5t-130.5 361.5zM252 561h489q-9 101 -73 162t-160 61q-106 0 -171 -56.5 t-85 -166.5z" />
<glyph unicode="f" horiz-adv-x="541" d="M39 764v160h121v84q0 120 10 174t35 94q40 65 110.5 101t157.5 36q27 0 61.5 -5t86.5 -17v-162q-39 8 -67.5 12t-49.5 4q-84 0 -119 -46.5t-35 -162.5v-112h123v-160h-123v-764h-190v764h-121z" />
<glyph unicode="g" horiz-adv-x="915" d="M-8 -186q0 97 67.5 160t198.5 87q-53 24 -77.5 51.5t-24.5 61.5q0 36 30 65t95 56q-104 32 -158.5 106t-54.5 183q0 168 116 254t344 86h367v-150h-156q38 -41 56 -86.5t18 -101.5q0 -116 -70.5 -198t-189.5 -103q-26 -5 -70 -12q-149 -23 -149 -76t213 -95 q52 -10 82 -16q134 -28 203 -94t69 -168q0 -141 -117.5 -215t-341.5 -74q-219 0 -334.5 71.5t-115.5 207.5zM172 -172q0 -68 68 -102.5t200 -34.5q129 0 202 34t73 93q0 65 -82.5 98t-247.5 33q-94 0 -153.5 -34.5t-59.5 -86.5zM250 592q0 -81 51 -126.5t141 -45.5 q91 0 144 46t53 126q0 77 -55.5 126.5t-141.5 49.5q-85 0 -138.5 -49.5t-53.5 -126.5z" />
<glyph unicode="h" horiz-adv-x="1026" d="M121 0v1399h184v-588q69 66 137.5 96.5t147.5 30.5q151 0 238 -87t87 -239v-612h-186v565q0 113 -46.5 166t-145.5 53q-73 0 -128 -28t-104 -90v-666h-184z" />
<glyph unicode="i" horiz-adv-x="432" d="M111 1196q0 44 30 74t74 30t74 -30t30 -74t-30 -74t-74 -30t-74 30t-30 74zM123 0v924h184v-924h-184z" />
<glyph unicode="j" horiz-adv-x="436" d="M2 -334q69 34 97 80.5t28 128.5v1049h186v-1033q0 -146 -46 -227.5t-152 -128.5zM115 1196q0 44 31 74t75 30t74.5 -30t30.5 -74t-30.5 -74t-74.5 -30t-75 30t-31 74z" />
<glyph unicode="k" horiz-adv-x="989" d="M123 0v1399h184v-1399h-184zM313 492l398 432h227l-387 -422l465 -502h-252z" />
<glyph unicode="l" horiz-adv-x="432" d="M123 0v1399h184v-1399h-184z" />
<glyph unicode="m" horiz-adv-x="1626" d="M117 0v924h184v-113q69 66 137.5 96.5t147.5 30.5q102 0 170.5 -37.5t115.5 -118.5q85 84 159.5 120t158.5 36q151 0 238.5 -87t87.5 -239v-612h-187v565q0 113 -46.5 166t-145.5 53q-73 0 -127 -27.5t-105 -90.5v-666h-180v565q0 112 -47.5 165.5t-147.5 53.5 q-71 0 -124.5 -27.5t-104.5 -90.5v-666h-184z" />
<glyph unicode="n" horiz-adv-x="1022" d="M117 0v924h184v-113q69 66 137.5 96.5t147.5 30.5q150 0 236.5 -87t86.5 -239v-612h-184v565q0 112 -47.5 165.5t-147.5 53.5q-71 0 -124.5 -27.5t-104.5 -90.5v-666h-184z" />
<glyph unicode="o" horiz-adv-x="1096" d="M57 463q0 201 143 341t349 140q97 0 185.5 -36.5t158.5 -104.5q71 -72 108 -158t37 -182q0 -95 -38 -185t-107 -157q-70 -69 -157.5 -104t-186.5 -35q-206 0 -349 140t-143 341zM250 463q0 -129 87 -220t210 -91q122 0 209.5 91.5t87.5 219.5q0 127 -87 218t-210 91 t-210 -91t-87 -218z" />
<glyph unicode="p" horiz-adv-x="1059" d="M121 -465v1389h186v-52q52 37 110 54.5t128 17.5q200 0 326 -134t126 -347t-126 -347t-326 -134q-72 0 -129.5 16.5t-108.5 52.5v-516h-186zM307 203q45 -33 91.5 -48.5t99.5 -15.5q141 0 222 86.5t81 237.5q0 150 -81 235.5t-222 85.5q-53 0 -99.5 -15t-91.5 -48v-518z " />
<glyph unicode="q" horiz-adv-x="1059" d="M61 463q0 213 126.5 347t326.5 134q70 0 129 -17.5t111 -54.5v52h184v-1389h-184v516q-51 -35 -109.5 -52t-130.5 -17q-200 0 -326.5 134t-126.5 347zM258 459q0 -150 81 -236t222 -86q54 0 101 15.5t92 48.5v518q-45 32 -92 47.5t-101 15.5q-141 0 -222 -86t-81 -237z " />
<glyph unicode="r" horiz-adv-x="768" d="M119 0v924h184v-201q77 121 138.5 169t133.5 48q50 0 101.5 -22t109.5 -68l-100 -164q-45 39 -86 56.5t-86 17.5q-75 0 -131 -63t-80 -175v-522h-184z" />
<glyph unicode="s" horiz-adv-x="770" d="M57 63v197q83 -55 160 -84t141 -29q71 0 111.5 26.5t40.5 72.5q0 58 -151 133q-44 22 -68 35q-129 66 -177 127.5t-48 150.5q0 116 83 184t228 68q78 0 150 -18.5t141 -57.5v-180q-85 47 -155.5 69.5t-133.5 22.5q-58 0 -89.5 -20t-31.5 -58q0 -70 193 -165l17 -8 q151 -76 197 -133.5t46 -145.5q0 -122 -91.5 -195t-242.5 -73q-87 0 -165.5 20t-154.5 61z" />
<glyph unicode="t" horiz-adv-x="659" d="M-12 764v18l323 357h21v-215h289v-160h-289v-424q0 -115 28.5 -148.5t106.5 -33.5q42 0 82 11t78 34v-174q-43 -24 -92.5 -35.5t-106.5 -11.5q-156 0 -219.5 74t-63.5 270v438h-157z" />
<glyph unicode="u" horiz-adv-x="1022" d="M111 311v613h186v-566q0 -112 47.5 -165.5t147.5 -53.5q71 0 124.5 27.5t104.5 91.5v666h184v-924h-184v113q-69 -66 -137.5 -96.5t-147.5 -30.5q-151 0 -238 87t-87 238z" />
<glyph unicode="v" horiz-adv-x="909" d="M-29 924h205l285 -613l266 613h201l-426 -942h-86z" />
<glyph unicode="w" horiz-adv-x="1532" d="M-12 924h194l264 -613l254 613h121l258 -611l264 611h195l-412 -942h-90l-274 669l-275 -669h-90z" />
<glyph unicode="x" horiz-adv-x="975" d="M-8 0l373 477l-365 447h227l248 -314l244 314h227l-354 -443l389 -481h-223l-277 340l-266 -340h-223z" />
<glyph unicode="y" horiz-adv-x="909" d="M-29 924h205l285 -541l266 541h201l-686 -1389h-201l319 647z" />
<glyph unicode="z" horiz-adv-x="903" d="M18 0v25l517 729h-496v170h817v-21l-506 -729h514v-174h-846z" />
<glyph unicode="{" horiz-adv-x="1024" d="M168 457v149q8 0 23 -1t22 -1q130 0 184 60.5t54 207.5v246q0 148 22.5 210.5t77.5 96.5q45 28 108.5 40t169.5 12h37v-150h-41q-120 0 -161 -44.5t-41 -184.5v-242q0 -160 -44.5 -228t-156.5 -98q113 -28 157 -96t44 -229v-242q0 -141 41.5 -185t162.5 -44h39v-148h-43 q-108 0 -169 11.5t-103 37.5q-55 34 -77.5 97t-22.5 211v245q0 149 -54.5 210t-185.5 61q-7 0 -21.5 -1t-21.5 -1z" />
<glyph unicode="|" horiz-adv-x="1024" d="M438 -483v2048h150v-2048h-150z" />
<glyph unicode="}" horiz-adv-x="1024" d="M160 -266h39q120 0 162 45t42 186v240q0 160 44.5 228t156.5 97q-112 30 -156.5 98t-44.5 228v242q0 140 -42 184.5t-162 44.5h-39v150h37q107 0 171 -12.5t107 -39.5q55 -34 77.5 -96.5t22.5 -210.5v-246q0 -147 54 -207.5t184 -60.5q7 0 22 1t23 1v-149q-7 0 -22 1 t-21 1q-132 0 -186 -60.5t-54 -210.5v-245q0 -148 -22.5 -211t-77.5 -97q-42 -26 -103 -37.5t-169 -11.5h-43v148z" />
<glyph unicode="~" horiz-adv-x="1706" d="M178 451v155q106 72 202 108t185 36q62 0 127.5 -13.5t163.5 -48.5q16 -5 47 -17q159 -57 240 -57q88 0 179.5 37t207.5 119v-156q-104 -72 -199 -106.5t-190 -34.5q-93 0 -256 58q-22 8 -34 12l-15 5q-176 60 -273 60q-84 0 -175 -37t-210 -120z" />
<glyph unicode="&#xa0;" />
<glyph unicode="&#xa1;" horiz-adv-x="516" d="M131 1294q0 54 36 90.5t89 36.5q54 0 90.5 -36.5t36.5 -90.5q0 -52 -37 -88.5t-90 -36.5q-54 0 -89.5 36t-35.5 89zM139 231q0 221 30 426.5t73 311.5h26q49 -165 76 -359.5t27 -390.5q0 -123 -28.5 -180t-88.5 -57t-87.5 59.5t-27.5 189.5z" />
<glyph unicode="&#xa2;" d="M106 475q0 215 145.5 354.5t373.5 139.5q33 0 49.5 -1t32.5 -3l120 319h111l-131 -346q20 -4 36 -11t31 -18v-198q-30 18 -62.5 33.5t-66.5 27.5l-217 -584q30 -6 56 -9t49 -3q64 0 128.5 16t127.5 48v-187q-57 -25 -126 -37t-153 -12q-31 0 -67.5 5.5t-75.5 15.5 l-145 -385h-109l152 409q-124 66 -191.5 176.5t-67.5 249.5zM301 471q0 -78 32 -139.5t97 -110.5l213 571q-8 2 -16.5 2.5t-26.5 0.5q-130 0 -214.5 -92t-84.5 -232z" />
<glyph unicode="&#xa3;" d="M68 -12l161 612h-135v180h197q91 319 219 482t287 163q24 0 49 -3t51 -9l96 -188q-33 8 -62 12t-54 4q-140 0 -231.5 -109.5t-151.5 -351.5h149v-180h-211l-102 -391q29 2 56 3t54 1q61 0 173 -19.5t165 -19.5q35 0 81 9.5t110 29.5v-199q-64 -16 -115.5 -24t-95.5 -8 q-42 0 -170 18t-213 18q-54 0 -131 -7.5t-176 -22.5z" />
<glyph unicode="&#xa4;" d="M10 512l37 111h117q-1 12 -1.5 27.5t-0.5 47.5q0 16 1 45t1 43h-154l37 111h131q38 240 175 382t331 142q86 0 164 -20t131 -55v-218q-54 49 -135 79t-162 30q-119 0 -198 -88t-107 -252h538l-36 -111h-514q-2 -15 -2.5 -33t-0.5 -55q0 -32 0.5 -47t2.5 -28h460l-37 -111 h-413q27 -172 102 -259t197 -87q91 0 166.5 32.5t146.5 100.5v-225q-59 -46 -151.5 -72.5t-184.5 -26.5q-182 0 -311 145.5t-164 391.5h-166z" />
<glyph unicode="&#xa5;" horiz-adv-x="1159" d="M-39 1399h219l404 -547l407 547h226l-304 -400h199v-110h-283l-124 -166h407v-109h-436v-614h-195v614h-434v109h418l-123 166h-295v108h215z" />
<glyph unicode="&#xa6;" horiz-adv-x="1024" d="M438 -350v758h150v-758h-150zM438 674v758h150v-758h-150z" />
<glyph unicode="&#xa7;" d="M82 637q0 93 53 160.5t162 113.5q-62 42 -93.5 99t-31.5 127q0 132 95 209t259 77q88 0 163 -18t142 -55v-181q-85 49 -158.5 73t-135.5 24q-82 0 -126 -32.5t-44 -90.5q0 -85 243 -209l33 -16q183 -92 245 -165.5t62 -177.5q0 -93 -53 -160t-164 -112q64 -45 95.5 -102 t31.5 -125q0 -134 -94.5 -210.5t-259.5 -76.5q-88 0 -169 21.5t-159 64.5v184q90 -56 171.5 -84t156.5 -28q76 0 120 31.5t44 87.5q0 49 -43 91t-162 101l-35 18q-348 174 -348 361zM270 657q0 -55 32.5 -95.5t107.5 -78.5l202 -104q80 35 115 77t35 101q0 56 -31.5 95.5 t-105.5 76.5l-203 107q-81 -36 -116.5 -78t-35.5 -101z" />
<glyph unicode="&#xa8;" horiz-adv-x="1024" d="M223 1208q0 41 29.5 71t69.5 30q39 0 69.5 -30.5t30.5 -70.5q0 -42 -29 -71t-71 -29t-70.5 29t-28.5 71zM604 1208q0 41 29.5 71t68.5 30q40 0 70.5 -30.5t30.5 -70.5q0 -42 -29 -71t-72 -29q-41 0 -69.5 29t-28.5 71z" />
<glyph unicode="&#xa9;" horiz-adv-x="1706" d="M117 727q0 147 56 281.5t163 242.5q104 104 236 158.5t280 54.5q152 0 285.5 -54.5t238.5 -160.5q104 -103 159.5 -238.5t55.5 -283.5q0 -149 -54.5 -281.5t-158.5 -234.5q-110 -107 -245.5 -164t-280.5 -57t-278.5 56t-239.5 163q-106 105 -161.5 238.5t-55.5 279.5z M213 727q0 -126 49 -242t141 -209q92 -91 207.5 -139.5t243.5 -48.5q125 0 242 49t213 142q90 88 137 202.5t47 245.5q0 130 -47.5 246.5t-136.5 206.5q-93 92 -209 140t-246 48q-129 0 -243.5 -47t-204.5 -137q-93 -93 -143 -211.5t-50 -245.5zM463 733q0 200 109 322.5 t286 122.5q142 0 236.5 -75t105.5 -196h-147q-13 77 -66 118.5t-139 41.5q-105 0 -165 -90.5t-60 -249.5q0 -157 62 -244.5t173 -87.5q82 0 136.5 47t68.5 129h145q-9 -130 -107.5 -211t-248.5 -81q-182 0 -285.5 120t-103.5 334z" />
<glyph unicode="&#xaa;" horiz-adv-x="666" d="M35 897q0 68 57 119.5t172 87.5l164 51q1 5 1.5 11.5t0.5 17.5q0 57 -30.5 82.5t-100.5 25.5q-57 0 -119 -23t-123 -67v127q53 41 119 61.5t141 20.5q133 0 193.5 -55t60.5 -176v-275q0 -34 7 -48.5t22 -14.5q14 0 28.5 7t43.5 30v-80q-40 -30 -78.5 -45t-77.5 -15 t-59 16.5t-23 49.5q-52 -35 -99.5 -50.5t-101.5 -15.5q-92 0 -145 42.5t-53 115.5zM182 918q0 -40 27.5 -61t77.5 -21q38 0 73.5 11.5t67.5 35.5v190q-140 -40 -193 -74.5t-53 -80.5z" />
<glyph unicode="&#xab;" horiz-adv-x="870" d="M63 463l240 317h158l-236 -317l236 -301h-158zM408 463l241 317h158l-236 -317l236 -301h-158z" />
<glyph unicode="&#xac;" horiz-adv-x="1706" d="M254 721v139h1198v-502h-137v363h-1061z" />
<glyph unicode="&#xad;" horiz-adv-x="692" d="M84 379v166h524v-166h-524z" />
<glyph unicode="&#xae;" horiz-adv-x="1706" d="M117 727q0 146 57.5 282.5t165.5 245.5q101 103 231.5 156t280.5 53q151 0 286 -56t240 -163q103 -104 158 -238t55 -280q0 -151 -55 -283.5t-160 -234.5q-109 -106 -244.5 -162.5t-279.5 -56.5q-147 0 -280.5 56.5t-239.5 164.5q-105 106 -160 238.5t-55 277.5zM213 727 q0 -125 48.5 -240.5t139.5 -207.5q90 -92 206.5 -141.5t240.5 -49.5q130 0 246.5 48t212.5 140q90 88 138 202.5t48 242.5q0 134 -46.5 251t-135.5 206q-92 93 -208.5 141.5t-248.5 48.5q-130 0 -245 -47t-201 -135q-94 -95 -144.5 -214t-50.5 -245zM557 324v835h315 q174 0 261.5 -57.5t87.5 -171.5q0 -89 -50 -148t-141 -77l187 -381h-177l-170 356h-155v-356h-158zM715 780h133q113 0 162 31.5t49 101.5q0 76 -51 110t-164 34h-129v-277z" />
<glyph unicode="&#xaf;" horiz-adv-x="1024" d="M254 1149v125h516v-125h-516z" />
<glyph unicode="&#xb0;" horiz-adv-x="674" d="M49 1167q0 120 84.5 204.5t204.5 84.5q118 0 202.5 -84.5t84.5 -204.5q0 -119 -84 -202.5t-205 -83.5t-204 83t-83 203zM143 1169q0 -81 57 -138.5t138 -57.5t136.5 57.5t55.5 138.5t-55.5 137t-136.5 56t-138 -56t-57 -137z" />
<glyph unicode="&#xb1;" horiz-adv-x="1706" d="M254 29v141h1198v-141h-1198zM254 713v139h528v340h142v-340h528v-139h-528v-340h-142v340h-528z" />
<glyph unicode="&#xb2;" horiz-adv-x="682" d="M45 559q67 89 157 193t105 124q66 86 97.5 151.5t31.5 117.5q0 69 -43.5 111t-116.5 42q-48 0 -99 -25.5t-107 -78.5v143q56 39 112 57.5t113 18.5q121 0 196.5 -70t75.5 -184q0 -94 -61.5 -200t-220.5 -279h348v-121h-588z" />
<glyph unicode="&#xb3;" horiz-adv-x="682" d="M90 594v127q52 -25 102.5 -38t96.5 -13q69 0 110 36t41 97q0 65 -49 99.5t-147 39.5v107q88 0 138 35.5t50 97.5q0 54 -47 88.5t-123 34.5q-28 0 -61 -8t-95 -31v108q51 20 94 29.5t85 9.5q125 0 200.5 -60.5t75.5 -160.5q0 -58 -28 -105t-82 -79q63 -28 97 -80t34 -121 q0 -116 -82.5 -189t-214.5 -73q-50 0 -97 12t-98 37z" />
<glyph unicode="&#xb4;" horiz-adv-x="1024" d="M375 1055l209 348h178l-281 -348h-106z" />
<glyph unicode="&#xb5;" horiz-adv-x="1151" d="M-113 -428l318 1499h180l-129 -600q-7 -32 -10.5 -64.5t-3.5 -68.5q0 -99 52 -153t148 -54q132 0 208.5 92.5t123.5 311.5l115 536h178l-156 -732q-1 -6 -4 -20q-18 -87 -18 -112q0 -37 16.5 -52.5t55.5 -15.5q12 0 18.5 0.5t13.5 1.5l-31 -143q-24 -5 -50 -7.5t-58 -2.5 q-63 0 -97 29t-52 100q-45 -66 -112.5 -98.5t-158.5 -32.5q-82 0 -143 27.5t-113 88.5l-110 -530h-181z" />
<glyph unicode="&#xb6;" horiz-adv-x="1024" d="M66 1130q0 157 107.5 253t285.5 96h499v-86h-120v-1393h-111v1393h-176v-1393h-113v782q-170 8 -271 102.5t-101 245.5z" />
<glyph unicode="&#xb7;" horiz-adv-x="516" d="M139 707q0 50 35 85t86 35t86 -35t35 -85q0 -51 -35 -86t-86 -35t-86 35t-35 86z" />
<glyph unicode="&#xb8;" horiz-adv-x="1024" d="M262 -336q79 -18 141.5 -27.5t106.5 -9.5q60 0 90.5 21.5t30.5 62.5q0 52 -33 75.5t-106 23.5q-21 0 -31 -0.5t-21 -1.5v192h72v-106h23q111 0 169 -45t58 -132q0 -89 -64 -135.5t-186 -46.5q-47 0 -108 10t-142 31v88z" />
<glyph unicode="&#xb9;" horiz-adv-x="682" d="M274 559v840h132v-840h-132z" />
<glyph unicode="&#xba;" horiz-adv-x="821" d="M43 1075q0 141 107 239.5t262 98.5q72 0 138 -25.5t120 -74.5q53 -49 80.5 -109.5t27.5 -128.5q0 -67 -28.5 -129.5t-79.5 -109.5q-52 -47 -118 -72t-140 -25q-154 0 -261.5 98t-107.5 238zM188 1075q0 -90 64.5 -153.5t157.5 -63.5q92 0 157.5 64t65.5 153t-65.5 153 t-157.5 64t-157 -63.5t-65 -153.5z" />
<glyph unicode="&#xbb;" horiz-adv-x="870" d="M63 162l234 301l-234 317h156l242 -317l-242 -301h-156zM408 162l235 301l-235 317h157l240 -317l-240 -301h-157z" />
<glyph unicode="&#xbc;" horiz-adv-x="1653" d="M262 614v783h125v-783h-125zM309 -25l873 1446h151l-872 -1446h-152zM1010 262v47l444 488h53v-443h99v-92h-99v-262h-121v262h-376zM1178 354h208l5 236z" />
<glyph unicode="&#xbd;" horiz-adv-x="1653" d="M262 614v783h125v-783h-125zM309 -25l873 1446h151l-872 -1446h-152zM1044 0q69 90 157 188t95 107q61 78 91 140.5t30 111.5q0 65 -41.5 104t-109.5 39q-46 0 -95 -24t-102 -72v133q54 35 106.5 52.5t106.5 17.5q118 0 190 -65.5t72 -172.5q0 -87 -59 -185.5 t-213 -260.5h334v-113h-562z" />
<glyph unicode="&#xbe;" horiz-adv-x="1653" d="M86 647v119q53 -25 99.5 -37t88.5 -12q68 0 107 33.5t39 91.5q0 60 -46.5 92.5t-140.5 38.5v98q82 0 130.5 33.5t48.5 89.5q0 51 -44.5 83t-117.5 32q-28 0 -62 -8t-86 -27v100q44 19 86 28t84 9q120 0 191.5 -56.5t71.5 -150.5q0 -54 -26.5 -98t-78.5 -74 q60 -24 92.5 -73t32.5 -113q0 -109 -78.5 -177.5t-206.5 -68.5q-46 0 -91 11.5t-93 35.5zM309 -25l873 1446h151l-872 -1446h-152zM1010 262v47l444 488h53v-443h99v-92h-99v-262h-121v262h-376zM1178 354h208l5 236z" />
<glyph unicode="&#xbf;" horiz-adv-x="641" d="M35 289q0 81 29.5 154t105.5 169q22 28 64 78q124 148 124 225q0 16 -3 31.5t-9 32.5l47 20q41 -42 61.5 -88.5t20.5 -97.5q0 -49 -17.5 -98.5t-60.5 -118.5q-13 -22 -40 -62q-99 -149 -99 -225q0 -59 36 -95t95 -36q40 0 89 18t114 56l-39 -217q-51 -28 -104.5 -41.5 t-110.5 -13.5q-132 0 -217.5 87t-85.5 222zM231 1298q0 52 36.5 87.5t88.5 35.5q53 0 89 -35.5t36 -87.5t-36 -88t-89 -36q-52 0 -88.5 36t-36.5 88z" />
<glyph unicode="&#xc0;" horiz-adv-x="1276" d="M-45 0l606 1399h146l614 -1399h-207l-180 412h-596l-178 -412h-205zM389 1882h178l209 -348h-106zM416 592h436l-221 504z" />
<glyph unicode="&#xc1;" horiz-adv-x="1276" d="M-45 0l606 1399h146l614 -1399h-207l-180 412h-596l-178 -412h-205zM416 592h436l-221 504zM502 1534l209 348h178l-281 -348h-106z" />
<glyph unicode="&#xc2;" horiz-adv-x="1276" d="M-45 0l606 1399h146l614 -1399h-207l-180 412h-596l-178 -412h-205zM352 1534l197 348h178l197 -348h-107l-178 241l-180 -241h-107zM416 592h436l-221 504z" />
<glyph unicode="&#xc3;" horiz-adv-x="1276" d="M-45 0l606 1399h146l614 -1399h-207l-180 412h-596l-178 -412h-205zM348 1591q22 91 72.5 138.5t126.5 47.5q17 0 32 -2t27 -6l79 -29q15 -4 31.5 -7t28.5 -3q36 0 60 18.5t37 53.5h88q-24 -93 -75.5 -143t-123.5 -50q-17 1 -32 3t-34 8l-79 26q-12 4 -25.5 6.5 t-27.5 2.5q-35 0 -58.5 -15.5t-38.5 -48.5h-88zM416 592h436l-221 504z" />
<glyph unicode="&#xc4;" horiz-adv-x="1276" d="M-45 0l606 1399h146l614 -1399h-207l-180 412h-596l-178 -412h-205zM350 1687q0 41 29.5 71t69.5 30q39 0 69.5 -30.5t30.5 -70.5q0 -42 -29 -71t-71 -29t-70.5 29t-28.5 71zM416 592h436l-221 504zM731 1687q0 41 29.5 71t68.5 30q40 0 70.5 -30.5t30.5 -70.5 q0 -42 -29 -71t-72 -29q-41 0 -69.5 29t-28.5 71z" />
<glyph unicode="&#xc5;" horiz-adv-x="1276" d="M-45 0l606 1399h146l614 -1399h-207l-180 412h-596l-178 -412h-205zM385 1712q0 105 71.5 176.5t176.5 71.5t177.5 -72t72.5 -176t-72.5 -176t-177.5 -72t-176.5 72t-71.5 176zM416 592h436l-221 504zM492 1712q0 -60 41.5 -101.5t101.5 -41.5q59 0 100 41.5t41 101.5 t-41 101.5t-100 41.5q-61 0 -102 -41t-41 -102z" />
<glyph unicode="&#xc6;" horiz-adv-x="1880" d="M-133 0l928 1399h964v-180h-649v-422h629v-181h-629v-436h668v-180h-873v403h-553l-268 -403h-217zM481 592h424v627h-10z" />
<glyph unicode="&#xc7;" horiz-adv-x="1421" d="M74 705q0 141 57 273.5t162 231.5q112 106 251 158.5t308 52.5q118 0 234 -27t243 -85v-217q-133 72 -250 106.5t-227 34.5q-245 0 -405 -152.5t-160 -382.5q0 -227 157.5 -379.5t395.5 -152.5q122 0 247 41t254 125v-226q-123 -64 -250.5 -97.5t-252.5 -33.5 q-120 0 -229 31.5t-206 93.5q-156 102 -242.5 260.5t-86.5 344.5zM504 -336q79 -18 141.5 -27.5t106.5 -9.5q60 0 90.5 21.5t30.5 62.5q0 52 -33 75.5t-106 23.5q-21 0 -31 -0.5t-21 -1.5v192h72v-106h23q111 0 169 -45t58 -132q0 -89 -64 -135.5t-186 -46.5q-47 0 -108 10 t-142 31v88z" />
<glyph unicode="&#xc8;" horiz-adv-x="1114" d="M150 0v1399h841v-178h-643v-424h625v-181h-625v-436h664v-180h-862zM319 1882h178l209 -348h-106z" />
<glyph unicode="&#xc9;" horiz-adv-x="1114" d="M150 0v1399h841v-178h-643v-424h625v-181h-625v-436h664v-180h-862zM432 1534l209 348h178l-281 -348h-106z" />
<glyph unicode="&#xca;" horiz-adv-x="1114" d="M150 0v1399h841v-178h-643v-424h625v-181h-625v-436h664v-180h-862zM282 1534l197 348h178l197 -348h-107l-178 241l-180 -241h-107z" />
<glyph unicode="&#xcb;" horiz-adv-x="1114" d="M150 0v1399h841v-178h-643v-424h625v-181h-625v-436h664v-180h-862zM280 1687q0 41 29.5 71t69.5 30q39 0 69.5 -30.5t30.5 -70.5q0 -42 -29 -71t-71 -29t-70.5 29t-28.5 71zM661 1687q0 41 29.5 71t68.5 30q40 0 70.5 -30.5t30.5 -70.5q0 -42 -29 -71t-72 -29 q-41 0 -69.5 29t-28.5 71z" />
<glyph unicode="&#xcc;" horiz-adv-x="512" d="M6 1882h178l209 -348h-106zM156 0v1399h200v-1399h-200z" />
<glyph unicode="&#xcd;" horiz-adv-x="512" d="M119 1534l209 348h178l-281 -348h-106zM156 0v1399h200v-1399h-200z" />
<glyph unicode="&#xce;" horiz-adv-x="512" d="M-31 1534l197 348h178l197 -348h-107l-178 241l-180 -241h-107zM156 0v1399h200v-1399h-200z" />
<glyph unicode="&#xcf;" horiz-adv-x="512" d="M-33 1687q0 41 29.5 71t69.5 30q39 0 69.5 -30.5t30.5 -70.5q0 -42 -29 -71t-71 -29t-70.5 29t-28.5 71zM156 0v1399h200v-1399h-200zM348 1687q0 41 29.5 71t68.5 30q40 0 70.5 -30.5t30.5 -70.5q0 -42 -29 -71t-72 -29q-41 0 -69.5 29t-28.5 71z" />
<glyph unicode="&#xd0;" horiz-adv-x="1532" d="M0 623v159h164v617h514q155 0 267 -29t204 -92q142 -96 219.5 -246.5t77.5 -331.5q0 -179 -78.5 -331t-220.5 -248q-91 -63 -203 -92t-266 -29h-514v623h-164zM362 190h316q259 0 407 136t148 372q0 237 -148 373.5t-407 136.5h-316v-426h365v-159h-365v-433z" />
<glyph unicode="&#xd1;" horiz-adv-x="1593" d="M150 0v1399h174l921 -1086v1086h199v-1399h-178l-918 1087v-1087h-198zM506 1591q22 91 72.5 138.5t126.5 47.5q17 0 32 -2t27 -6l79 -29q15 -4 31.5 -7t28.5 -3q36 0 60 18.5t37 53.5h88q-24 -93 -75.5 -143t-123.5 -50q-17 1 -32 3t-34 8l-79 26q-12 4 -25.5 6.5 t-27.5 2.5q-35 0 -58.5 -15.5t-38.5 -48.5h-88z" />
<glyph unicode="&#xd2;" horiz-adv-x="1640" d="M74 705q0 140 57 272t162 233q107 103 242 157t284 54q152 0 288.5 -54.5t240.5 -156.5q109 -106 164 -236t55 -282q0 -143 -56.5 -274.5t-160.5 -231.5q-109 -104 -243.5 -157.5t-287.5 -53.5q-149 0 -285.5 55t-240.5 156q-108 105 -163.5 237t-55.5 282zM287 698 q0 -107 40 -204t115 -172q73 -75 171.5 -115.5t205.5 -40.5q110 0 206.5 39.5t172.5 116.5q75 75 115.5 172t40.5 204t-40 202.5t-118 174.5q-75 77 -172 117.5t-205 40.5q-104 0 -201.5 -41t-175.5 -117q-75 -73 -115 -171t-40 -206zM571 1882h178l209 -348h-106z" />
<glyph unicode="&#xd3;" horiz-adv-x="1640" d="M74 705q0 140 57 272t162 233q107 103 242 157t284 54q152 0 288.5 -54.5t240.5 -156.5q109 -106 164 -236t55 -282q0 -143 -56.5 -274.5t-160.5 -231.5q-109 -104 -243.5 -157.5t-287.5 -53.5q-149 0 -285.5 55t-240.5 156q-108 105 -163.5 237t-55.5 282zM287 698 q0 -107 40 -204t115 -172q73 -75 171.5 -115.5t205.5 -40.5q110 0 206.5 39.5t172.5 116.5q75 75 115.5 172t40.5 204t-40 202.5t-118 174.5q-75 77 -172 117.5t-205 40.5q-104 0 -201.5 -41t-175.5 -117q-75 -73 -115 -171t-40 -206zM684 1534l209 348h178l-281 -348h-106z " />
<glyph unicode="&#xd4;" horiz-adv-x="1640" d="M74 705q0 140 57 272t162 233q107 103 242 157t284 54q152 0 288.5 -54.5t240.5 -156.5q109 -106 164 -236t55 -282q0 -143 -56.5 -274.5t-160.5 -231.5q-109 -104 -243.5 -157.5t-287.5 -53.5q-149 0 -285.5 55t-240.5 156q-108 105 -163.5 237t-55.5 282zM287 698 q0 -107 40 -204t115 -172q73 -75 171.5 -115.5t205.5 -40.5q110 0 206.5 39.5t172.5 116.5q75 75 115.5 172t40.5 204t-40 202.5t-118 174.5q-75 77 -172 117.5t-205 40.5q-104 0 -201.5 -41t-175.5 -117q-75 -73 -115 -171t-40 -206zM534 1534l197 348h178l197 -348h-107 l-178 241l-180 -241h-107z" />
<glyph unicode="&#xd5;" horiz-adv-x="1640" d="M74 705q0 140 57 272t162 233q107 103 242 157t284 54q152 0 288.5 -54.5t240.5 -156.5q109 -106 164 -236t55 -282q0 -143 -56.5 -274.5t-160.5 -231.5q-109 -104 -243.5 -157.5t-287.5 -53.5q-149 0 -285.5 55t-240.5 156q-108 105 -163.5 237t-55.5 282zM287 698 q0 -107 40 -204t115 -172q73 -75 171.5 -115.5t205.5 -40.5q110 0 206.5 39.5t172.5 116.5q75 75 115.5 172t40.5 204t-40 202.5t-118 174.5q-75 77 -172 117.5t-205 40.5q-104 0 -201.5 -41t-175.5 -117q-75 -73 -115 -171t-40 -206zM530 1591q22 91 72.5 138.5t126.5 47.5 q17 0 32 -2t27 -6l79 -29q15 -4 31.5 -7t28.5 -3q36 0 60 18.5t37 53.5h88q-24 -93 -75.5 -143t-123.5 -50q-17 1 -32 3t-34 8l-79 26q-12 4 -25.5 6.5t-27.5 2.5q-35 0 -58.5 -15.5t-38.5 -48.5h-88z" />
<glyph unicode="&#xd6;" horiz-adv-x="1640" d="M74 705q0 140 57 272t162 233q107 103 242 157t284 54q152 0 288.5 -54.5t240.5 -156.5q109 -106 164 -236t55 -282q0 -143 -56.5 -274.5t-160.5 -231.5q-109 -104 -243.5 -157.5t-287.5 -53.5q-149 0 -285.5 55t-240.5 156q-108 105 -163.5 237t-55.5 282zM287 698 q0 -107 40 -204t115 -172q73 -75 171.5 -115.5t205.5 -40.5q110 0 206.5 39.5t172.5 116.5q75 75 115.5 172t40.5 204t-40 202.5t-118 174.5q-75 77 -172 117.5t-205 40.5q-104 0 -201.5 -41t-175.5 -117q-75 -73 -115 -171t-40 -206zM532 1687q0 41 29.5 71t69.5 30 q39 0 69.5 -30.5t30.5 -70.5q0 -42 -29 -71t-71 -29t-70.5 29t-28.5 71zM913 1687q0 41 29.5 71t68.5 30q40 0 70.5 -30.5t30.5 -70.5q0 -42 -29 -71t-72 -29q-41 0 -69.5 29t-28.5 71z" />
<glyph unicode="&#xd7;" horiz-adv-x="1706" d="M293 141l469 469l-469 469l98 99l469 -469l469 469l98 -99l-469 -469l469 -469l-98 -96l-469 467l-469 -467z" />
<glyph unicode="&#xd8;" horiz-adv-x="1640" d="M39 63l197 193q-82 87 -122 196t-40 240q0 149 55.5 281.5t163.5 236.5q106 104 239.5 158.5t278.5 54.5q138 0 262 -43t221 -123l181 173l106 -105l-182 -174q86 -95 128 -204t42 -236q0 -153 -55.5 -285.5t-163.5 -239.5q-106 -104 -238 -157.5t-285 -53.5 q-136 0 -257.5 42.5t-231.5 127.5l-195 -186zM287 698q0 -89 23 -162t73 -141l762 719q-68 58 -151 88.5t-175 30.5q-104 0 -201.5 -41t-175.5 -117q-74 -73 -114.5 -171.5t-40.5 -205.5zM485 287q71 -61 153.5 -91t180.5 -30q227 0 381 156.5t154 390.5q0 87 -26 160.5 t-81 138.5z" />
<glyph unicode="&#xd9;" horiz-adv-x="1489" d="M141 588v811h199v-803q0 -134 14.5 -190t48.5 -97q62 -73 147 -109t193 -36q182 0 293 94t111 248v893h199v-899q0 -234 -167 -379.5t-436 -145.5q-159 0 -287 56.5t-216 165.5q-54 65 -76.5 145t-22.5 246zM495 1882h178l209 -348h-106z" />
<glyph unicode="&#xda;" horiz-adv-x="1489" d="M141 588v811h199v-803q0 -134 14.5 -190t48.5 -97q62 -73 147 -109t193 -36q182 0 293 94t111 248v893h199v-899q0 -234 -167 -379.5t-436 -145.5q-159 0 -287 56.5t-216 165.5q-54 65 -76.5 145t-22.5 246zM608 1534l209 348h178l-281 -348h-106z" />
<glyph unicode="&#xdb;" horiz-adv-x="1489" d="M141 588v811h199v-803q0 -134 14.5 -190t48.5 -97q62 -73 147 -109t193 -36q182 0 293 94t111 248v893h199v-899q0 -234 -167 -379.5t-436 -145.5q-159 0 -287 56.5t-216 165.5q-54 65 -76.5 145t-22.5 246zM458 1534l197 348h178l197 -348h-107l-178 241l-180 -241h-107 z" />
<glyph unicode="&#xdc;" horiz-adv-x="1489" d="M141 588v811h199v-803q0 -134 14.5 -190t48.5 -97q62 -73 147 -109t193 -36q182 0 293 94t111 248v893h199v-899q0 -234 -167 -379.5t-436 -145.5q-159 0 -287 56.5t-216 165.5q-54 65 -76.5 145t-22.5 246zM456 1687q0 41 29.5 71t69.5 30q39 0 69.5 -30.5t30.5 -70.5 q0 -42 -29 -71t-71 -29t-70.5 29t-28.5 71zM837 1687q0 41 29.5 71t68.5 30q40 0 70.5 -30.5t30.5 -70.5q0 -42 -29 -71t-72 -29q-41 0 -69.5 29t-28.5 71z" />
<glyph unicode="&#xdd;" horiz-adv-x="1194" d="M-55 1399h237l408 -531l418 531h241l-561 -709v-690h-203v700zM461 1534l209 348h178l-281 -348h-106z" />
<glyph unicode="&#xde;" horiz-adv-x="1110" d="M150 0v1399h198v-291h238q219 0 342 -106t123 -293q0 -188 -123 -293t-342 -105h-238v-311h-198zM348 489h217q146 0 211.5 52.5t65.5 167.5q0 114 -66 166.5t-211 52.5h-217v-439z" />
<glyph unicode="&#xdf;" horiz-adv-x="1028" d="M115 0v1040q0 183 103 282t292 99q172 0 276.5 -90.5t104.5 -238.5q0 -113 -46.5 -192t-137.5 -122q128 -52 188.5 -139.5t60.5 -218.5q0 -207 -104 -323.5t-289 -116.5q-24 0 -51 2.5t-59 7.5v184q31 -9 58.5 -13.5t47.5 -4.5q92 0 147.5 68t55.5 182q0 141 -71 209.5 t-224 74.5v158h6q112 0 173 54.5t61 154.5q0 99 -58 160t-151 61q-86 0 -140.5 -56t-54.5 -145v-1077h-188z" />
<glyph unicode="&#xe0;" horiz-adv-x="887" d="M47 207q0 98 76 172t229 125l219 73q1 8 1.5 16t0.5 23q0 83 -40.5 119.5t-133.5 36.5q-77 0 -159 -32.5t-164 -96.5v182q71 58 159 87.5t187 29.5q178 0 259 -78.5t81 -253.5v-391q0 -49 8.5 -69.5t28.5 -20.5q17 0 35.5 9t60.5 42v-112q-50 -43 -101 -63.5t-106 -20.5 q-53 0 -79.5 22t-30.5 70q-70 -49 -132.5 -70.5t-134.5 -21.5q-124 0 -194 59.5t-70 163.5zM184 1403h178l209 -348h-106zM244 238q0 -57 36.5 -88t102.5 -31q49 0 96 17.5t92 51.5v271q-186 -58 -256.5 -107t-70.5 -114z" />
<glyph unicode="&#xe1;" horiz-adv-x="887" d="M47 207q0 98 76 172t229 125l219 73q1 8 1.5 16t0.5 23q0 83 -40.5 119.5t-133.5 36.5q-77 0 -159 -32.5t-164 -96.5v182q71 58 159 87.5t187 29.5q178 0 259 -78.5t81 -253.5v-391q0 -49 8.5 -69.5t28.5 -20.5q17 0 35.5 9t60.5 42v-112q-50 -43 -101 -63.5t-106 -20.5 q-53 0 -79.5 22t-30.5 70q-70 -49 -132.5 -70.5t-134.5 -21.5q-124 0 -194 59.5t-70 163.5zM244 238q0 -57 36.5 -88t102.5 -31q49 0 96 17.5t92 51.5v271q-186 -58 -256.5 -107t-70.5 -114zM297 1055l209 348h178l-281 -348h-106z" />
<glyph unicode="&#xe2;" horiz-adv-x="887" d="M47 207q0 98 76 172t229 125l219 73q1 8 1.5 16t0.5 23q0 83 -40.5 119.5t-133.5 36.5q-77 0 -159 -32.5t-164 -96.5v182q71 58 159 87.5t187 29.5q178 0 259 -78.5t81 -253.5v-391q0 -49 8.5 -69.5t28.5 -20.5q17 0 35.5 9t60.5 42v-112q-50 -43 -101 -63.5t-106 -20.5 q-53 0 -79.5 22t-30.5 70q-70 -49 -132.5 -70.5t-134.5 -21.5q-124 0 -194 59.5t-70 163.5zM147 1055l197 348h178l197 -348h-107l-178 241l-180 -241h-107zM244 238q0 -57 36.5 -88t102.5 -31q49 0 96 17.5t92 51.5v271q-186 -58 -256.5 -107t-70.5 -114z" />
<glyph unicode="&#xe3;" horiz-adv-x="887" d="M47 207q0 98 76 172t229 125l219 73q1 8 1.5 16t0.5 23q0 83 -40.5 119.5t-133.5 36.5q-77 0 -159 -32.5t-164 -96.5v182q71 58 159 87.5t187 29.5q178 0 259 -78.5t81 -253.5v-391q0 -49 8.5 -69.5t28.5 -20.5q17 0 35.5 9t60.5 42v-112q-50 -43 -101 -63.5t-106 -20.5 q-53 0 -79.5 22t-30.5 70q-70 -49 -132.5 -70.5t-134.5 -21.5q-124 0 -194 59.5t-70 163.5zM143 1112q22 91 72.5 138.5t126.5 47.5q17 0 32 -2t27 -6l79 -29q15 -4 31.5 -7t28.5 -3q36 0 60 18.5t37 53.5h88q-24 -93 -75.5 -143t-123.5 -50q-17 1 -32 3t-34 8l-79 26 q-12 4 -25.5 6.5t-27.5 2.5q-35 0 -58.5 -15.5t-38.5 -48.5h-88zM244 238q0 -57 36.5 -88t102.5 -31q49 0 96 17.5t92 51.5v271q-186 -58 -256.5 -107t-70.5 -114z" />
<glyph unicode="&#xe4;" horiz-adv-x="887" d="M47 207q0 98 76 172t229 125l219 73q1 8 1.5 16t0.5 23q0 83 -40.5 119.5t-133.5 36.5q-77 0 -159 -32.5t-164 -96.5v182q71 58 159 87.5t187 29.5q178 0 259 -78.5t81 -253.5v-391q0 -49 8.5 -69.5t28.5 -20.5q17 0 35.5 9t60.5 42v-112q-50 -43 -101 -63.5t-106 -20.5 q-53 0 -79.5 22t-30.5 70q-70 -49 -132.5 -70.5t-134.5 -21.5q-124 0 -194 59.5t-70 163.5zM145 1208q0 41 29.5 71t69.5 30q39 0 69.5 -30.5t30.5 -70.5q0 -42 -29 -71t-71 -29t-70.5 29t-28.5 71zM244 238q0 -57 36.5 -88t102.5 -31q49 0 96 17.5t92 51.5v271 q-186 -58 -256.5 -107t-70.5 -114zM526 1208q0 41 29.5 71t68.5 30q40 0 70.5 -30.5t30.5 -70.5q0 -42 -29 -71t-72 -29q-41 0 -69.5 29t-28.5 71z" />
<glyph unicode="&#xe5;" horiz-adv-x="887" d="M47 207q0 98 76 172t229 125l219 73q1 8 1.5 16t0.5 23q0 83 -40.5 119.5t-133.5 36.5q-77 0 -159 -32.5t-164 -96.5v182q71 58 159 87.5t187 29.5q178 0 259 -78.5t81 -253.5v-391q0 -49 8.5 -69.5t28.5 -20.5q17 0 35.5 9t60.5 42v-112q-50 -43 -101 -63.5t-106 -20.5 q-53 0 -79.5 22t-30.5 70q-70 -49 -132.5 -70.5t-134.5 -21.5q-124 0 -194 59.5t-70 163.5zM186 1260q0 104 71.5 174.5t176.5 70.5t177.5 -71t72.5 -174q0 -105 -72.5 -176.5t-177.5 -71.5q-104 0 -176 71.5t-72 176.5zM244 238q0 -57 36.5 -88t102.5 -31q49 0 96 17.5 t92 51.5v271q-186 -58 -256.5 -107t-70.5 -114zM293 1257q0 -59 41.5 -101t101.5 -42t101 41.5t41 101.5q0 61 -41 102.5t-101 41.5q-61 0 -102 -41.5t-41 -102.5z" />
<glyph unicode="&#xe6;" horiz-adv-x="1528" d="M49 209q0 136 127 222.5t395 131.5q1 8 1.5 18t0.5 27q0 86 -38.5 125t-124.5 39q-85 0 -168 -32t-166 -97v182q72 58 166 89.5t196 31.5q92 0 161 -31t120 -94q66 67 140.5 96t176.5 29q200 0 317 -131t117 -356v-27h-692q8 -131 87 -205.5t210 -74.5q85 0 175.5 31 t203.5 102v-187q-94 -61 -191.5 -91t-203.5 -30q-116 0 -205 38.5t-166 121.5q-109 -83 -199 -121.5t-176 -38.5q-119 0 -191.5 64t-72.5 168zM244 238q0 -57 36.5 -88t102.5 -31q49 0 96 17.5t92 51.5v254q-166 -28 -246.5 -78.5t-80.5 -125.5zM778 565h491q-9 101 -74 162 t-161 61q-105 0 -170.5 -56.5t-85.5 -166.5z" />
<glyph unicode="&#xe7;" horiz-adv-x="901" d="M57 463q0 205 145 343t363 138q67 0 132 -14t128 -43v-197q-64 39 -126.5 57.5t-127.5 18.5q-142 0 -231.5 -85t-89.5 -218q0 -136 91 -221.5t239 -85.5q68 0 132.5 15.5t127.5 47.5v-188q-70 -25 -136 -37t-131 -12q-226 0 -371 135.5t-145 345.5zM248 -336 q79 -18 141.5 -27.5t106.5 -9.5q60 0 90.5 21.5t30.5 62.5q0 52 -33 75.5t-106 23.5q-21 0 -31 -0.5t-21 -1.5v192h72v-106h23q111 0 169 -45t58 -132q0 -89 -64 -135.5t-186 -46.5q-47 0 -108 10t-142 31v88z" />
<glyph unicode="&#xe8;" horiz-adv-x="999" d="M57 477q0 207 125.5 336t327.5 129q200 0 317 -131t117 -354v-27h-692q8 -131 86 -204.5t209 -73.5q88 0 183.5 32.5t197.5 98.5v-185q-92 -59 -189.5 -88.5t-201.5 -29.5q-219 0 -349.5 135.5t-130.5 361.5zM250 1403h178l209 -348h-106zM252 561h489q-9 101 -73 162 t-160 61q-106 0 -171 -56.5t-85 -166.5z" />
<glyph unicode="&#xe9;" horiz-adv-x="999" d="M57 477q0 207 125.5 336t327.5 129q200 0 317 -131t117 -354v-27h-692q8 -131 86 -204.5t209 -73.5q88 0 183.5 32.5t197.5 98.5v-185q-92 -59 -189.5 -88.5t-201.5 -29.5q-219 0 -349.5 135.5t-130.5 361.5zM252 561h489q-9 101 -73 162t-160 61q-106 0 -171 -56.5 t-85 -166.5zM363 1055l209 348h178l-281 -348h-106z" />
<glyph unicode="&#xea;" horiz-adv-x="999" d="M57 477q0 207 125.5 336t327.5 129q200 0 317 -131t117 -354v-27h-692q8 -131 86 -204.5t209 -73.5q88 0 183.5 32.5t197.5 98.5v-185q-92 -59 -189.5 -88.5t-201.5 -29.5q-219 0 -349.5 135.5t-130.5 361.5zM213 1055l197 348h178l197 -348h-107l-178 241l-180 -241 h-107zM252 561h489q-9 101 -73 162t-160 61q-106 0 -171 -56.5t-85 -166.5z" />
<glyph unicode="&#xeb;" horiz-adv-x="999" d="M57 477q0 207 125.5 336t327.5 129q200 0 317 -131t117 -354v-27h-692q8 -131 86 -204.5t209 -73.5q88 0 183.5 32.5t197.5 98.5v-185q-92 -59 -189.5 -88.5t-201.5 -29.5q-219 0 -349.5 135.5t-130.5 361.5zM211 1208q0 41 29.5 71t69.5 30q39 0 69.5 -30.5t30.5 -70.5 q0 -42 -29 -71t-71 -29t-70.5 29t-28.5 71zM252 561h489q-9 101 -73 162t-160 61q-106 0 -171 -56.5t-85 -166.5zM592 1208q0 41 29.5 71t68.5 30q40 0 70.5 -30.5t30.5 -70.5q0 -42 -29 -71t-72 -29q-41 0 -69.5 29t-28.5 71z" />
<glyph unicode="&#xec;" horiz-adv-x="432" d="M-33 1403h178l209 -348h-106zM123 0v924h184v-924h-184z" />
<glyph unicode="&#xed;" horiz-adv-x="432" d="M80 1055l209 348h178l-281 -348h-106zM123 0v924h184v-924h-184z" />
<glyph unicode="&#xee;" horiz-adv-x="432" d="M-70 1055l197 348h178l197 -348h-107l-178 241l-180 -241h-107zM123 0v924h184v-924h-184z" />
<glyph unicode="&#xef;" horiz-adv-x="432" d="M-72 1208q0 41 29.5 71t69.5 30q39 0 69.5 -30.5t30.5 -70.5q0 -42 -29 -71t-71 -29t-70.5 29t-28.5 71zM123 0v924h184v-924h-184zM309 1208q0 41 29.5 71t68.5 30q40 0 70.5 -30.5t30.5 -70.5q0 -42 -29 -71t-72 -29q-41 0 -69.5 29t-28.5 71z" />
<glyph unicode="&#xf0;" horiz-adv-x="1096" d="M57 442q0 191 143 324t349 133q87 0 164.5 -34.5t140.5 -100.5q-14 95 -48.5 179t-88.5 157l-316 -92l-39 112l267 78q-39 37 -79 70.5t-81 62.5l111 90q61 -31 118 -73.5t111 -96.5l231 64l45 -111l-194 -55q82 -123 122 -263.5t40 -305.5q0 -279 -134.5 -436.5 t-369.5 -157.5q-207 0 -349.5 132.5t-142.5 323.5zM250 440q0 -118 86.5 -201t210.5 -83t210.5 83t86.5 201t-87 201.5t-210 83.5t-210 -84t-87 -201z" />
<glyph unicode="&#xf1;" horiz-adv-x="1022" d="M117 0v924h184v-113q69 66 137.5 96.5t147.5 30.5q150 0 236.5 -87t86.5 -239v-612h-184v565q0 112 -47.5 165.5t-147.5 53.5q-71 0 -124.5 -27.5t-104.5 -90.5v-666h-184zM221 1112q22 91 72.5 138.5t126.5 47.5q17 0 32 -2t27 -6l79 -29q15 -4 31.5 -7t28.5 -3 q36 0 60 18.5t37 53.5h88q-24 -93 -75.5 -143t-123.5 -50q-17 1 -32 3t-34 8l-79 26q-12 4 -25.5 6.5t-27.5 2.5q-35 0 -58.5 -15.5t-38.5 -48.5h-88z" />
<glyph unicode="&#xf2;" horiz-adv-x="1096" d="M57 463q0 201 143 341t349 140q97 0 185.5 -36.5t158.5 -104.5q71 -72 108 -158t37 -182q0 -95 -38 -185t-107 -157q-70 -69 -157.5 -104t-186.5 -35q-206 0 -349 140t-143 341zM250 463q0 -129 87 -220t210 -91q122 0 209.5 91.5t87.5 219.5q0 127 -87 218t-210 91 t-210 -91t-87 -218zM299 1403h178l209 -348h-106z" />
<glyph unicode="&#xf3;" horiz-adv-x="1096" d="M57 463q0 201 143 341t349 140q97 0 185.5 -36.5t158.5 -104.5q71 -72 108 -158t37 -182q0 -95 -38 -185t-107 -157q-70 -69 -157.5 -104t-186.5 -35q-206 0 -349 140t-143 341zM250 463q0 -129 87 -220t210 -91q122 0 209.5 91.5t87.5 219.5q0 127 -87 218t-210 91 t-210 -91t-87 -218zM412 1055l209 348h178l-281 -348h-106z" />
<glyph unicode="&#xf4;" horiz-adv-x="1096" d="M57 463q0 201 143 341t349 140q97 0 185.5 -36.5t158.5 -104.5q71 -72 108 -158t37 -182q0 -95 -38 -185t-107 -157q-70 -69 -157.5 -104t-186.5 -35q-206 0 -349 140t-143 341zM250 463q0 -129 87 -220t210 -91q122 0 209.5 91.5t87.5 219.5q0 127 -87 218t-210 91 t-210 -91t-87 -218zM262 1055l197 348h178l197 -348h-107l-178 241l-180 -241h-107z" />
<glyph unicode="&#xf5;" horiz-adv-x="1096" d="M57 463q0 201 143 341t349 140q97 0 185.5 -36.5t158.5 -104.5q71 -72 108 -158t37 -182q0 -95 -38 -185t-107 -157q-70 -69 -157.5 -104t-186.5 -35q-206 0 -349 140t-143 341zM250 463q0 -129 87 -220t210 -91q122 0 209.5 91.5t87.5 219.5q0 127 -87 218t-210 91 t-210 -91t-87 -218zM258 1112q22 91 72.5 138.5t126.5 47.5q17 0 32 -2t27 -6l79 -29q15 -4 31.5 -7t28.5 -3q36 0 60 18.5t37 53.5h88q-24 -93 -75.5 -143t-123.5 -50q-17 1 -32 3t-34 8l-79 26q-12 4 -25.5 6.5t-27.5 2.5q-35 0 -58.5 -15.5t-38.5 -48.5h-88z" />
<glyph unicode="&#xf6;" horiz-adv-x="1096" d="M57 463q0 201 143 341t349 140q97 0 185.5 -36.5t158.5 -104.5q71 -72 108 -158t37 -182q0 -95 -38 -185t-107 -157q-70 -69 -157.5 -104t-186.5 -35q-206 0 -349 140t-143 341zM250 463q0 -129 87 -220t210 -91q122 0 209.5 91.5t87.5 219.5q0 127 -87 218t-210 91 t-210 -91t-87 -218zM260 1208q0 41 29.5 71t69.5 30q39 0 69.5 -30.5t30.5 -70.5q0 -42 -29 -71t-71 -29t-70.5 29t-28.5 71zM641 1208q0 41 29.5 71t68.5 30q40 0 70.5 -30.5t30.5 -70.5q0 -42 -29 -71t-72 -29q-41 0 -69.5 29t-28.5 71z" />
<glyph unicode="&#xf7;" horiz-adv-x="1706" d="M254 541v139h1198v-139h-1198zM729 242q0 51 37 88t88 37t88 -37t37 -88q0 -52 -36.5 -88.5t-88.5 -36.5q-53 0 -89 36t-36 89zM729 979q0 52 37 89.5t88 37.5t88 -37.5t37 -89.5q0 -51 -36.5 -88t-88.5 -37t-88.5 36.5t-36.5 88.5z" />
<glyph unicode="&#xf8;" horiz-adv-x="1096" d="M41 55l119 111q-51 65 -77 139.5t-26 157.5q0 203 142 341t352 138q89 0 167 -26.5t132 -73.5l115 110l90 -94l-115 -113q51 -64 74.5 -130t23.5 -142q0 -211 -144 -351t-362 -140q-80 0 -147 22.5t-129 71.5l-123 -119zM248 461q0 -49 12 -88.5t37 -75.5l426 410 q-35 33 -78.5 49t-97.5 16q-122 0 -210.5 -93t-88.5 -218zM381 211q38 -30 77 -44.5t83 -14.5q128 0 218.5 95.5t90.5 227.5q0 38 -12 72.5t-37 66.5z" />
<glyph unicode="&#xf9;" horiz-adv-x="1022" d="M111 311v613h186v-566q0 -112 47.5 -165.5t147.5 -53.5q71 0 124.5 27.5t104.5 91.5v666h184v-924h-184v113q-69 -66 -137.5 -96.5t-147.5 -30.5q-151 0 -238 87t-87 238zM262 1403h178l209 -348h-106z" />
<glyph unicode="&#xfa;" horiz-adv-x="1022" d="M111 311v613h186v-566q0 -112 47.5 -165.5t147.5 -53.5q71 0 124.5 27.5t104.5 91.5v666h184v-924h-184v113q-69 -66 -137.5 -96.5t-147.5 -30.5q-151 0 -238 87t-87 238zM375 1055l209 348h178l-281 -348h-106z" />
<glyph unicode="&#xfb;" horiz-adv-x="1022" d="M111 311v613h186v-566q0 -112 47.5 -165.5t147.5 -53.5q71 0 124.5 27.5t104.5 91.5v666h184v-924h-184v113q-69 -66 -137.5 -96.5t-147.5 -30.5q-151 0 -238 87t-87 238zM225 1055l197 348h178l197 -348h-107l-178 241l-180 -241h-107z" />
<glyph unicode="&#xfc;" horiz-adv-x="1022" d="M111 311v613h186v-566q0 -112 47.5 -165.5t147.5 -53.5q71 0 124.5 27.5t104.5 91.5v666h184v-924h-184v113q-69 -66 -137.5 -96.5t-147.5 -30.5q-151 0 -238 87t-87 238zM223 1208q0 41 29.5 71t69.5 30q39 0 69.5 -30.5t30.5 -70.5q0 -42 -29 -71t-71 -29t-70.5 29 t-28.5 71zM604 1208q0 41 29.5 71t68.5 30q40 0 70.5 -30.5t30.5 -70.5q0 -42 -29 -71t-72 -29q-41 0 -69.5 29t-28.5 71z" />
<glyph unicode="&#xfd;" horiz-adv-x="909" d="M-29 924h205l285 -541l266 541h201l-686 -1389h-201l319 647zM318 1055l209 348h178l-281 -348h-106z" />
<glyph unicode="&#xfe;" horiz-adv-x="1059" d="M121 -465v1864h186v-527q52 37 110 54.5t128 17.5q200 0 326 -134t126 -347t-126 -347t-326 -134q-72 0 -129.5 16.5t-108.5 52.5v-516h-186zM307 203q45 -33 91.5 -48.5t99.5 -15.5q141 0 222 86.5t81 237.5q0 150 -81 235.5t-222 85.5q-53 0 -99.5 -15t-91.5 -48v-518z " />
<glyph unicode="&#xff;" horiz-adv-x="909" d="M-29 924h205l285 -541l266 541h201l-686 -1389h-201l319 647zM166 1208q0 41 29.5 71t69.5 30q39 0 69.5 -30.5t30.5 -70.5q0 -42 -29 -71t-71 -29t-70.5 29t-28.5 71zM547 1208q0 41 29.5 71t68.5 30q40 0 70.5 -30.5t30.5 -70.5q0 -42 -29 -71t-72 -29q-41 0 -69.5 29 t-28.5 71z" />
<glyph unicode="&#x152;" horiz-adv-x="2017" d="M98 698q0 202 81 358.5t231 246.5q86 51 193 73.5t327 22.5h74h890v-178h-645v-424h627v-181h-627v-436h666v-180h-911h-72q-220 0 -327.5 22.5t-194.5 73.5q-150 89 -231 245t-81 357zM307 702q0 -152 61.5 -271t172.5 -181q66 -37 162 -53.5t262 -16.5h88v1043h-88 q-166 0 -262 -16.5t-162 -53.5q-111 -63 -172.5 -180.5t-61.5 -270.5z" />
<glyph unicode="&#x153;" horiz-adv-x="1788" d="M57 463q0 201 144 341t352 140q119 0 214.5 -46t162.5 -136q65 94 153.5 138t212.5 44q203 0 319 -129.5t116 -359.5v-23h-693q8 -131 87 -204.5t210 -73.5q87 0 180.5 32t198.5 99v-187q-88 -58 -186.5 -87t-208.5 -29q-129 0 -220 44t-165 142q-85 -96 -178.5 -141 t-204.5 -45q-208 0 -351 139.5t-143 341.5zM250 463q0 -129 86.5 -219t210.5 -90q123 0 210 90.5t87 218.5q0 127 -87 216t-210 89q-124 0 -210.5 -89t-86.5 -216zM1038 565l492 1q-9 99 -74 160.5t-162 61.5q-105 0 -170.5 -56.5t-85.5 -166.5z" />
<glyph unicode="&#x178;" horiz-adv-x="1194" d="M-55 1399h237l408 -531l418 531h241l-561 -709v-690h-203v700zM309 1687q0 41 29.5 71t69.5 30q39 0 69.5 -30.5t30.5 -70.5q0 -42 -29 -71t-71 -29t-70.5 29t-28.5 71zM690 1687q0 41 29.5 71t68.5 30q40 0 70.5 -30.5t30.5 -70.5q0 -42 -29 -71t-72 -29q-41 0 -69.5 29 t-28.5 71z" />
<glyph unicode="&#x2c6;" horiz-adv-x="1024" d="M225 1055l197 348h178l197 -348h-107l-178 241l-180 -241h-107z" />
<glyph unicode="&#x2dc;" horiz-adv-x="1024" d="M221 1112q22 91 72.5 138.5t126.5 47.5q17 0 32 -2t27 -6l79 -29q15 -4 31.5 -7t28.5 -3q36 0 60 18.5t37 53.5h88q-24 -93 -75.5 -143t-123.5 -50q-17 1 -32 3t-34 8l-79 26q-12 4 -25.5 6.5t-27.5 2.5q-35 0 -58.5 -15.5t-38.5 -48.5h-88z" />
<glyph unicode="&#x2000;" horiz-adv-x="980" />
<glyph unicode="&#x2001;" horiz-adv-x="1960" />
<glyph unicode="&#x2002;" horiz-adv-x="980" />
<glyph unicode="&#x2003;" horiz-adv-x="1960" />
<glyph unicode="&#x2004;" horiz-adv-x="653" />
<glyph unicode="&#x2005;" horiz-adv-x="490" />
<glyph unicode="&#x2006;" horiz-adv-x="326" />
<glyph unicode="&#x2007;" horiz-adv-x="326" />
<glyph unicode="&#x2008;" horiz-adv-x="245" />
<glyph unicode="&#x2009;" horiz-adv-x="392" />
<glyph unicode="&#x200a;" horiz-adv-x="108" />
<glyph unicode="&#x2010;" horiz-adv-x="692" d="M84 379v166h524v-166h-524z" />
<glyph unicode="&#x2011;" horiz-adv-x="692" d="M84 379v166h524v-166h-524z" />
<glyph unicode="&#x2012;" horiz-adv-x="692" d="M84 379v166h524v-166h-524z" />
<glyph unicode="&#x2013;" horiz-adv-x="1024" d="M0 401v123h1024v-123h-1024z" />
<glyph unicode="&#x2014;" horiz-adv-x="2048" d="M0 401v123h2048v-123h-2048z" />
<glyph unicode="&#x2018;" horiz-adv-x="483" d="M117 1120q0 107 62 185t177 116l2 -37q-40 -34 -59.5 -79.5t-19.5 -104.5v-26q44 -23 66 -54t22 -71q0 -51 -32.5 -85t-80.5 -34q-61 0 -99 52.5t-38 137.5z" />
<glyph unicode="&#x2019;" horiz-adv-x="483" d="M117 1305q0 50 32.5 84t79.5 34q61 0 99.5 -52t38.5 -138q0 -108 -62.5 -186.5t-177.5 -116.5l-2 37q40 34 60 80t20 106v27q-45 23 -66.5 54t-21.5 71z" />
<glyph unicode="&#x201a;" horiz-adv-x="483" d="M117 104q0 51 32.5 85t79.5 34q61 0 99.5 -52.5t38.5 -137.5q0 -108 -62.5 -186.5t-177.5 -116.5l-2 37q40 33 60 79.5t20 106.5v27q-45 22 -66.5 53t-21.5 71z" />
<glyph unicode="&#x201c;" horiz-adv-x="881" d="M117 1118q0 108 62 186.5t177 116.5l2 -37q-40 -33 -59.5 -79.5t-19.5 -106.5v-27q45 -23 66.5 -53t21.5 -69q0 -51 -32.5 -85t-80.5 -34q-61 0 -99 51.5t-38 136.5zM512 1118q0 108 62 186.5t178 116.5l2 -37q-40 -33 -60 -79.5t-20 -106.5v-27q45 -23 66.5 -53 t21.5 -69q0 -51 -32.5 -85t-80.5 -34q-61 0 -99 51.5t-38 136.5z" />
<glyph unicode="&#x201d;" horiz-adv-x="881" d="M117 1303q0 50 32.5 84t79.5 34q61 0 99.5 -52.5t38.5 -137.5q0 -107 -62 -185t-178 -116l-2 37q40 34 60 79.5t20 104.5v27q-45 23 -66.5 53.5t-21.5 71.5zM512 1303q0 50 33.5 84t81.5 34q60 0 97.5 -52t37.5 -138q0 -107 -62 -185t-178 -116l-2 37q41 34 60.5 79.5 t19.5 104.5v27q-44 23 -66 53.5t-22 71.5z" />
<glyph unicode="&#x201e;" horiz-adv-x="881" d="M117 104q0 51 32.5 85t79.5 34q61 0 99.5 -52.5t38.5 -137.5q0 -108 -62.5 -186.5t-177.5 -116.5l-2 37q40 33 60 79.5t20 106.5v27q-45 22 -66.5 53t-21.5 71zM512 104q0 51 33.5 85t81.5 34q60 0 97.5 -52t37.5 -138q0 -108 -62.5 -186.5t-177.5 -116.5l-2 37 q40 33 60 79.5t20 106.5v27q-44 22 -66 53t-22 71z" />
<glyph unicode="&#x2022;" horiz-adv-x="1208" d="M307 762q0 123 87 209t210 86q122 0 208.5 -86.5t86.5 -208.5t-87.5 -209.5t-209.5 -87.5q-123 0 -209 87t-86 210z" />
<glyph unicode="&#x2026;" horiz-adv-x="2048" d="M221 104q0 51 35 86t86 35t86 -35t35 -86q0 -50 -35 -85t-86 -35t-86 35t-35 85zM903 104q0 51 35 86t86 35t86 -35t35 -86q0 -50 -35 -85t-86 -35t-86 35t-35 85zM1587 104q0 51 35 86t86 35t86 -35t35 -86q0 -50 -35 -85t-86 -35t-86 35t-35 85z" />
<glyph unicode="&#x202f;" horiz-adv-x="392" />
<glyph unicode="&#x2039;" horiz-adv-x="526" d="M63 479l240 301h158l-234 -301l234 -317h-158z" />
<glyph unicode="&#x203a;" horiz-adv-x="526" d="M63 162l234 317l-234 301h158l240 -301l-240 -317h-158z" />
<glyph unicode="&#x205f;" horiz-adv-x="490" />
<glyph unicode="&#x20ac;" d="M10 512l37 111h117q-1 12 -1.5 27.5t-0.5 47.5q0 16 1 45t1 43h-154l37 111h131q38 240 175 382t331 142q86 0 164 -20t131 -55v-218q-54 49 -135 79t-162 30q-119 0 -198 -88t-107 -252h538l-36 -111h-514q-2 -15 -2.5 -33t-0.5 -55q0 -32 0.5 -47t2.5 -28h460l-37 -111 h-413q27 -172 102 -259t197 -87q91 0 166.5 32.5t146.5 100.5v-225q-59 -46 -151.5 -72.5t-184.5 -26.5q-182 0 -311 145.5t-164 391.5h-166z" />
<glyph unicode="&#x2122;" horiz-adv-x="1706" d="M242 1378v80h452v-80h-172v-458h-108v458h-172zM813 920v538h150l151 -385l141 385h150v-538h-98v444l-166 -444h-56l-174 444v-444h-98z" />
<glyph unicode="&#xe000;" horiz-adv-x="925" d="M0 0v925h925v-925h-925z" />
<glyph unicode="&#xfb01;" horiz-adv-x="975" d="M33 764v160h121v110q0 184 93 281.5t269 97.5q158 0 249.5 -87.5t92.5 -239.5l-186 -1q-6 78 -47 120t-109 42q-90 0 -131 -56.5t-41 -182.5v-84h123v-160h-123v-764h-190v764h-121zM674 0v924h184v-924h-184z" />
<glyph unicode="&#xfb02;" horiz-adv-x="975" d="M35 764v160h121v84q0 120 10 174t35 94q40 65 109.5 101t156.5 36q28 0 64 -5.5t85 -16.5v-162q-38 8 -66.5 12t-49.5 4q-84 0 -119 -46.5t-35 -162.5v-112h123v-160h-123v-764h-190v764h-121zM674 0v1399h184v-1399h-184z" />
</font>
</defs>
</svg>
