<?xml version="1.0" encoding="utf-8"?>
<!-- Generator: Adobe Illustrator 17.1.0, SVG Export Plug-In . SVG Version: 6.00 Build 0)  -->
<!DOCTYPE svg PUBLIC "-//W3C//DTD SVG 1.1//EN" "http://www.w3.org/Graphics/SVG/1.1/DTD/svg11.dtd">
<svg version="1.1" id="Layer_1" xmlns="http://www.w3.org/2000/svg" xmlns:xlink="http://www.w3.org/1999/xlink" x="0px" y="0px"
   viewBox="0 0 179.5 81.7" enable-background="new 0 0 179.5 81.7" xml:space="preserve">
<path fill="#72BF9D" d="M0,0c0,0,0,1.6,0,3.5V3.3c0,1.9,1.6,3.5,3.5,3.5h10.5v0.4c0,7,5.4,12.7,12.1,12.7l6.1,0
  c1.2,0,2.3,0.6,2.9,1.6c0,0,0,0,0,0c0.9,1.4,1.6,3.4,2,6c1.1,7.9,8,17.8,19.7,18c1.8,0,3.2,1.3,3.5,3c0.7,4.3,3.2,11.8,13.1,15.3
  c9.5,3.4,14.2,12.3,16,16c0.2,0.5,0.3,1,0.3,1.5l0,0.4c0,0,0.1-0.2,0.2-0.6c0.2,0.4,0.2,0.6,0.2,0.6v-0.4c0-0.5,0.1-1,0.3-1.5
  c1.8-3.7,6.5-12.6,16-16c9.8-3.5,12.4-11,13.1-15.3c0.3-1.7,1.7-3,3.5-3c11.8-0.2,18.7-10.1,19.7-18c0.4-2.7,1.1-4.6,2-6
  c0,0,0,0,0,0c0.6-1,1.7-1.6,2.9-1.6l5.6,0c6.7,0,12.1-5.7,12.1-12.7V6.8H176c1.9,0,3.5-1.6,3.5-3.5v0.2c0-1.9,0-3.5,0-3.5H0z"/>
</svg>
