<?xml version="1.0" encoding="utf-8"?>
<!-- Generator: Adobe Illustrator 18.1.1, SVG Export Plug-In . SVG Version: 6.00 Build 0)  -->
<!DOCTYPE svg PUBLIC "-//W3C//DTD SVG 1.1//EN" "http://www.w3.org/Graphics/SVG/1.1/DTD/svg11.dtd">
<svg version="1.1" id="Layer_1" xmlns="http://www.w3.org/2000/svg" xmlns:xlink="http://www.w3.org/1999/xlink" x="0px" y="0px"
	 viewBox="0 0 792 612" enable-background="new 0 0 792 612" xml:space="preserve">
<g>
	<path fill="#635E49" d="M409.4,228.4c0-4.8-0.7-8.6-2.2-11.8c0-1.7,1.2-5.8,4.1-12c0.2-0.7,0.5-1.2,0.7-1.2c0.5,0,0.7,0.5,1.2,1.2
		c0.7,1.7,2.4,6.2,5.3,13.7c3.1,7.9,4.8,12.7,5.3,14.6c0.5,1.2,0.5,2.4,0.5,2.9c0,2.2-1.9,1-6.2-3.8c-0.5-0.7-0.7-0.2-0.7,1
		c0,0.5,1.2,15.4,3.4,45.1c2.2,29.5,3.1,46.1,3.1,49.9c0,11.3-1.7,21.4-5,30c-1,1.7-1.4,2.9-1.9,3.8l0,0c-0.7,1.2-1,1.2-1.2,0.5
		c-0.2-1,0-2.9,0.2-5.5c0.5-4.1,0.7-8.6,0.7-13.7c0-4.8-1.2-24-3.6-57.8C410.6,251.4,409.4,232.4,409.4,228.4L409.4,228.4
		L409.4,228.4L409.4,228.4z"/>
	<path fill="#635E49" d="M396.5,315.7c0,8.4-1.9,14.9-5.5,19.7c-3.1,4.1-6.7,6.2-10.8,6.2V327c5.5,0,9.4-1.4,11-4.3
		c0-1.4-1-3.8-2.9-7c-1-1.4-1.2-2.9-1.2-4.3c0-0.7,1-4.1,2.6-10.3c0.5-1,1-1.7,1.2-1.7c0.5,0,1.2,1,1.9,2.4
		C395.3,306.8,396.5,311.4,396.5,315.7L396.5,315.7L396.5,315.7L396.5,315.7z"/>
	<path fill="#635E49" d="M289.9,379.8c0-10.3,2.2-20.6,6.2-31.4c1-2.2,1.7-3.4,2.2-3.4c0.2,0,0.2,0.2,0.2,0.7c0,0.7-0.2,1.9-0.7,3.4
		c-2.9,10.6-4.3,18.5-4.3,24c0,4.8,1.4,9.4,4.6,13.4c3.6,5.3,8.4,7.7,13.9,7.7c6.7,0,15.1-2.6,25-7.9c7.9-4.3,15.6-9.6,23.5-15.8
		c6.7-5.8,10.8-9.6,11.8-11.8c0-8.2-2.4-16.8-7-25.9c-1-1.7-1.4-3.1-1.4-4.1c0-0.7,1-4.3,2.9-10.3c0.2-1.2,0.7-1.9,1.2-1.9
		c0.5,0,1,1,1.7,2.4c1.4,3.1,2.4,4.8,3.1,5.3c1.4,1.9,4.1,2.6,7.4,2.6v14.6c-1.7,0-2.9,0-3.6-0.5c0,17.8-2.6,29.8-7.9,35.8
		c-5.3,6.5-13.2,13-23.3,19.4c-12.7,8.2-23.8,12.2-32.9,12.2c-8.4,0-14.6-3.6-18.5-11C291.1,392.3,289.9,386.3,289.9,379.8
		L289.9,379.8L289.9,379.8L289.9,379.8z"/>
	<path fill="#635E49" d="M341,229.8c0-4.8-0.7-8.6-2.2-11.8c0-1.7,1.2-5.8,4.1-12c0.2-0.7,0.5-1.2,0.7-1.2c0.5,0,0.7,0.5,1.2,1.2
		c0.7,1.7,2.4,6.2,5.3,13.7c3.1,7.9,4.8,12.7,5.3,14.6c0.5,1.2,0.5,2.4,0.5,2.9c0,2.2-1.9,1-6.2-3.8c-0.5-0.7-0.7-0.2-0.7,1
		c0,0.5,1.2,15.4,3.4,45.1c2.2,29.5,3.1,46.1,3.1,49.9c0,11.3-1.7,21.4-5,30c-1,1.7-1.4,2.9-1.9,3.8l0,0c-0.7,1.2-1,1.2-1.2,0.5
		c-0.2-1,0-2.9,0.2-5.5c0.5-4.1,0.7-8.6,0.7-13.7c0-4.8-1.2-24-3.6-57.8C342.2,252.8,341,233.9,341,229.8L341,229.8L341,229.8
		L341,229.8z"/>
	<path fill="#635E49" d="M332.2,286.7c0,5.5-1.2,10.1-3.1,13.7c-1.4,2.4-3.1,4.1-4.6,5c-2.4,1.2-5.8,1.9-10.6,1.9
		c-7.4,0-14.9-1.2-22.1-3.4c-3.6,2.9-7.7,5.3-12.2,7.2c-5,2.2-9.1,3.4-12.7,3.4v-14.6c4.8,0,8.9-1,12.2-2.4
		c-1.9-3.6-2.9-7.2-2.9-10.8c0-7.2,1.4-13.7,4.6-19.4c2.2-4.3,4.8-7.9,8.2-10.8c-0.5-2.6-0.2-6.2,0.7-10.8c0.2-1.4,0.5-1.9,1-1.9
		c0.5,0,1.2,0.2,2.6,1l13.9,7c1.7,1,2.4,1.7,2.4,2.4c0,1-1.2,1.4-3.6,1.4c-1,0-2.2-0.2-3.4-0.5c4.6,4.3,8.9,7.4,13,9.6
		c5.3,2.9,8.6,5.3,10.3,6.7C330,275.4,332.2,280.4,332.2,286.7L332.2,286.7L332.2,286.7L332.2,286.7z M325.9,286.4
		c-1-1.4-3.8-3.4-8.6-6.2c-5-2.9-8.6-5.3-10.6-7.2c0,5.3-1.2,11.5-4.1,19c5.8,1.7,11,2.4,15.8,2.4c6.2,0,9.4-1.2,9.4-3.1
		C327.8,290,327.1,288.6,325.9,286.4L325.9,286.4L325.9,286.4L325.9,286.4z M301.9,278.5c0-3.1-1.2-6.2-3.4-9.8
		c-1.9-3.1-3.6-4.8-5-4.8c-2.4,0-5,1.9-8.4,5.8c-3.4,3.8-4.8,7.4-4.8,10.6c0,2.6,1.4,4.8,4.6,6.7c2.4,1.7,5,2.6,8.2,3.1
		C298.8,286.4,301.9,282.6,301.9,278.5L301.9,278.5L301.9,278.5L301.9,278.5z"/>
	<path fill="#635E49" d="M244.6,279c1.4,0,2.9,1.9,4.3,5.3c2.2,5,3.8,8.4,5.5,10.1c3.1,3.6,7.2,5.5,12.5,5.3v14.9
		c-6.2,0-11-1.9-14.9-5.5c-1.9-1.9-4.1-5.3-6-10.1c-1.7-3.4-3.1-5.3-4.3-5.3c-1.9,0-4.6,1.9-8.2,5.8c-4.1,4.1-6,7.4-6,10.3
		c0,2.6,1.2,5,3.6,7.7c0,0.7-0.7,1.4-2.2,2.2c-1.7,0.7-2.9,1.2-3.8,1.2c-0.5,0-0.7-0.2-0.7-0.2c-1.2-3.6-1.7-6.5-1.7-8.9
		c1-8.9,3.8-16.8,9.1-23.8C236.4,282.1,240.7,279,244.6,279L244.6,279L244.6,279L244.6,279z"/>
	<path fill="#635E49" d="M153.6,381.2c-5,0-9.4-2.4-13-6.7c-3.8-4.6-5.5-10.1-5.5-16.6c0-9.1,3.6-20.9,11-35.3
		c0.7-1.4,1.4-2.2,1.9-2.2c0.2,0,0.2,0,0.2,0.5c0,1.4-1.7,6.5-4.8,15.1c-3.4,8.6-4.8,15.6-4.8,20.6c0,3.8,0.7,7,2.6,9.4
		c1.9,2.4,4.6,3.6,7.9,3.6c5.5,0,10.8-1.9,15.6-5.5c6-5.3,12-10.3,18-15.6c9.8-7.9,19.2-14.2,28.1-18.7c6.7-3.1,11.8-4.8,15.1-4.8
		c-0.5-1-1-2.4-1.7-4.8c0-0.7,1-1.4,3.1-2.2c1.9-1,3.4-1.2,3.8-0.7c0.7,1.4,2.6,3.4,6,5.5c4.1,2.9,8.4,5,13.2,6.7
		c2.2,0.7,3.1,2.2,2.6,4.1l-1.7,9.6c-0.2,1.2-1.2,1.2-3.1,0c-5.3-2.9-11.8-4.3-19.4-4.3c-10.6,0-23,5.8-37.7,17.3
		c-7.7,6.2-15.1,12.5-22.6,18.5C163,379.1,157.9,381.2,153.6,381.2L153.6,381.2L153.6,381.2L153.6,381.2z"/>
	<path fill="#635E49" d="M382.8,373.6c-0.2-0.2-0.2-0.5,0-1l4.6-9.6c0.2-0.5,0.7-0.7,1-0.7c0.5,0,2.6,1.2,6.2,3.6
		c3.8,2.6,5.8,4.1,5.8,4.6c0,1.7-1.7,5-5,10.3c-0.5,0.7-0.7,1-1.2,0.7C390.5,378.6,386.6,376,382.8,373.6L382.8,373.6L382.8,373.6
		L382.8,373.6z"/>
	<path fill="#635E49" d="M431.8,375.2c-0.5,2.2-1,3.4-1.7,4.1c-2.6,1.7-8.6,5.5-17.8,11.8c-0.2,0.2-0.7,0.5-1.2,1
		c-0.2-0.2-0.2-0.2-0.2-0.7l0.5-3.1c0.2-0.7,1.7-2.2,4.6-4.3c-3.6-1.2-5.3-2.9-5.3-4.8c0-2.2,0.7-4.3,2.6-6.5
		c3.6-4.3,6.7-6.5,9.1-6.5c2.2,0,3.1,1.2,3.1,3.6c0,1.4-0.5,2.9-1.7,4.8c-0.2,0.5-0.5,0.5-1-0.2c-0.5-1.2-1.4-1.7-2.6-1.7
		c-0.7,0-1.7,0.2-2.9,1.2c-1.2,0.7-1.9,1.4-1.9,1.9c0,0.7,0.7,1.4,2.2,2.2c1.4,1,2.6,1.2,3.6,1.2c0.7,0,2.2-0.5,4.3-1.7
		c1.4-1,2.6-1.9,4.1-2.9c1.2-0.5,1.9-1,2.2-0.7C432,373.8,432,374.3,431.8,375.2L431.8,375.2L431.8,375.2L431.8,375.2z"/>
	<path fill="#635E49" d="M388.6,277.3c0-1.2-2.4-3.4-7.4-6.2c-1.7,2.9-2.4,5.5-2.4,7.9c0,1.4,0.7,2.4,2.2,2.4c1.2,0,2.6-0.5,4.3-1.4
		C386.9,279.2,388.1,278.3,388.6,277.3L388.6,277.3L388.6,277.3L388.6,277.3z M383.3,258.1c0.7-1.2,1.7-1.7,2.4-1.7
		c0.5,0,1,0.2,1,0.7c0,0-0.2,0.2-0.2,0.5c-1,2.2-1.9,4.6-2.6,7c5,3.6,7.4,7.4,7.2,11c-0.5,4.1-1,6.7-1.7,7.7c-2.4,2.9-5,4.6-8.4,4.6
		c-3.4,0-4.8-2.2-4.8-6c0-0.7,0-1.7,0.2-2.6C377.5,271.6,379.9,264.6,383.3,258.1L383.3,258.1L383.3,258.1L383.3,258.1z"/>
	<path fill="#635E49" d="M357.6,248.3c13.7-4.8,28.1-10.1,43.2-15.6c1-0.2,1.2-0.5,1.4-0.2c0.2,0,0.2,0.5-0.2,1.2
		c-0.7,2.2-1.4,3.4-1.9,3.8c-13,4.6-27.8,10.3-44.9,17.5C355.7,252.8,356.4,250.7,357.6,248.3L357.6,248.3L357.6,248.3L357.6,248.3z
		"/>
	<path fill="#635E49" d="M302.9,328.9c9.6-3.4,19.9-7.2,31-11c1-0.2,1.2-0.5,1.4-0.2c0.2,0,0.2,0.5-0.2,1.2
		c-0.7,2.2-1.4,3.4-1.9,3.8c-9.6,3.4-20.4,7.4-32.6,13C301,333.5,301.7,331.3,302.9,328.9L302.9,328.9L302.9,328.9L302.9,328.9z"/>
	<path fill="#635E49" d="M273.1,346.4c6.7,3.8,10.1,6.2,10.1,7.2c0,1.7-1.7,5-5,10.3c-0.5,0.7-0.7,1-1.2,0.7
		c-3.6-2.9-7.4-5.5-11.3-7.9c-0.2-0.2-0.2-0.5,0-1l4.6-9.6c-3.4-2.4-6.7-4.6-9.8-6.7c-0.2-0.2-0.2-0.5,0-1l4.6-9.6
		c0.2-0.5,0.7-0.7,1-0.7c0.5,0,2.6,1.2,6.2,3.6c3.8,2.6,5.8,4.1,5.8,4.6C277.9,338,276.2,341.2,273.1,346.4L273.1,346.4L273.1,346.4
		L273.1,346.4z"/>
	<path fill="#635E49" d="M258.7,379.6c-1.2-2.9-3.4-4.8-6.5-6c0,2.6-0.2,4.8-1,6.5c0.5,0,2.9,0.5,7.2,1c0.2,0,0.5,0,0.5,0
		C259.2,380.8,259.2,380.3,258.7,379.6L258.7,379.6L258.7,379.6L258.7,379.6z M249.1,379.6c0.5-1.4,0.5-2.9,0-4.6
		c-0.5-1.7-1.2-2.4-2.4-2.4c-0.5,0-1.4,0.5-2.6,1.4c-1,1.2-1.7,2.2-1.7,2.6C242.4,378.1,244.6,379.1,249.1,379.6L249.1,379.6
		L249.1,379.6L249.1,379.6z M242.2,371.9c-1-3.1-0.7-5.3,0.5-6.5c1-1,2.2-1.4,3.4-1.4c1.4,0,2.9,0.2,4.6,1.2
		c5.8,3.1,9.6,7,11.5,11.5c0,0.2,0.2,0.7,0.2,1.2c0,1.7-0.5,3.4-1.7,5.5c-1,1.9-1.9,2.9-2.9,2.9c-0.2,0-2.9-0.2-7.9-0.7
		c-2.6,3.6-5.8,6.7-9.6,9.4c-4.3,3.4-8.4,5.8-12.2,7.4c-0.7,0.5-5,2.2-13,5c-1.2,0.5-1.9,0.7-2.4,0.7c-0.2,0-0.2-0.2-0.2-0.2
		c0-0.2,0.7-1,1.9-1.7c5.8-3.4,11.5-6.7,17.3-10.1c6.5-4.1,11.5-7.7,15.1-11c-4.3-1-6.5-3.1-6.5-6.2
		C240.2,376.4,240.7,374,242.2,371.9L242.2,371.9L242.2,371.9L242.2,371.9z"/>
	<path fill="#635E49" d="M321.4,227.9c0-0.2,0.2-0.5,0.2-0.5c0.2-0.2,0.2-0.2,0.2,0c0.2,0.2,0.2,0.5,0,0.7
		c-1.2,7.2-3.4,10.8-6.5,10.8c-3.1,0-4.6-2.6-4.6-7.9c0-6.5,1.7-13.4,5.5-20.4c1-1.7,1.4-2.6,1.7-2.6l0,0c0,0.2-0.2,1.2-0.7,2.9
		c-2.4,7.4-3.6,12.5-3.6,15.6c0,3.8,1,6,3.1,6C318.2,232.4,319.7,230.8,321.4,227.9L321.4,227.9L321.4,227.9L321.4,227.9z"/>
	<path fill="#635E49" d="M154.1,312.6c0-0.2,0.2-0.5,0.2-0.5c0.2-0.2,0.2-0.2,0.2,0c0.2,0.2,0.2,0.5,0,0.7
		c-1.2,7.2-3.4,10.8-6.5,10.8c-3.1,0-4.6-2.6-4.6-7.9c0-6.5,1.7-13.4,5.5-20.4c1-1.7,1.4-2.6,1.7-2.6l0,0c0,0.2-0.2,1.2-0.7,2.9
		c-2.4,7.4-3.6,12.5-3.6,15.6c0,3.8,1,6,3.1,6C151,317.2,152.4,315.5,154.1,312.6L154.1,312.6L154.1,312.6L154.1,312.6z"/>
	<path fill="#635E49" d="M177.8,278.5c-0.5-2.9-1.7-6.2-3.4-10.3c-1.7-4.1-3.1-6.2-3.8-6.2c-0.5,0-0.7,0-1,0.5
		c-0.2,0.2-0.5,0.5-1.2,0.5c-1,0-1.9-0.7-3.4-1.9c-1.4-1.2-1.9-2.2-1.9-2.9c0-0.2,0.5-1.4,1.7-3.4c1-1.9,1.7-2.6,1.9-2.6
		c2.9,0,5.3,1.4,7.4,4.8c2.2,3.1,3.8,7.4,4.6,12.7c0.2,0.5,0.2,0.7,0.2,1h0.2c0-0.2,0.2-0.5,0.2-1c0.5-3.1,1.7-7.9,3.4-14.2
		c1.9-4.3,3.8-6.5,6-6.5c1.2,0,2.4,0.7,3.4,2.2c1,1.4,1.4,2.4,1.4,3.4c0,0.5,0,1.4-0.5,2.4c-0.5,1.4-1,2.2-1.4,2.2
		c-0.2,0-0.7-0.7-1.7-1.7c-0.7-1-1.7-1.4-2.6-1.4c-1.9,0-3.6,4.6-5.3,13.7c-0.7,3.6-1.4,6.5-2.6,8.6c1.7,0,3.6,1.2,6.2,3.1
		c2.4,2.2,3.8,3.8,4.1,5.3c0,0.5-0.2,1.4-1,3.1c-0.7,1.7-1.2,2.4-1.7,2.6c-2.4,0.7-4.8,1.2-7.2,1.9c-2.9,1-5,2.2-6.2,3.4
		c3.4,10.1,5,19.9,5,29.8c0,2.9-0.5,5.8-1,8.9c-0.2,1-0.5,1.4-0.7,1.7c-0.2,0-0.2-1.9-0.2-5.3c0-5.5-1-12.5-2.6-20.4
		c-1.4-7.9-2.4-12.5-2.4-13.7c0-4.1,1.2-7,3.4-8.9c1.2-0.7,3.1-1.7,6.2-2.6c-1.2-1.2-2.4-1.7-3.6-1.7c-0.5,0-1.2,0.7-2.2,1.9
		c-1.2,1.2-1.7,1.9-1.9,1.9c-0.2,0-0.2-0.5,0-1.7C174.2,282.6,175.7,279.5,177.8,278.5L177.8,278.5L177.8,278.5L177.8,278.5z"/>
	<path fill="#635E49" d="M245.8,222.1c2.9,0,5.3,1.4,7.4,4.8c2.2,3.1,3.8,7.4,4.6,12.7c0.2,0.5,0.2,0.7,0.2,1h0.2
		c0-0.2,0.2-0.5,0.2-1c0.5-3.1,1.7-7.9,3.4-14.2c1.9-4.3,3.8-6.5,6-6.5c1.2,0,2.4,0.7,3.4,2.2c1,1.4,1.4,2.4,1.4,3.4
		c0,0.5,0,1.4-0.5,2.4c-0.5,1.4-1,2.2-1.4,2.2c-0.2,0-0.7-0.7-1.7-1.7c-0.7-1-1.7-1.4-2.6-1.4c-1.9,0-3.6,4.6-5.3,13.7
		c-0.7,4.1-1.7,7-2.4,8.6c-0.7,1-1.2,1.7-1.7,1.7c-0.5,0-0.5-0.7-0.7-1.7c0.2-1.7-0.7-4.8-2.6-9.4c-1.9-4.8-3.1-7-4.1-7
		c-0.5,0-0.7,0-1,0.5c-0.2,0.2-0.5,0.5-1.2,0.5c-1,0-1.9-0.7-3.4-1.9c-1.4-1.2-1.9-2.2-1.9-2.9c0-0.2,0.5-1.4,1.7-3.4
		C244.8,222.8,245.5,222.1,245.8,222.1L245.8,222.1L245.8,222.1L245.8,222.1z"/>
	<path fill="#635E49" d="M210.2,384.6c0-0.2,0.2-0.5,0.2-0.5c0.2-0.2,0.2-0.2,0.2,0c0.2,0.2,0.2,0.5,0,0.7
		c-1.2,7.2-3.4,10.8-6.5,10.8c-3.1,0-4.6-2.6-4.6-7.9c0-6.5,1.7-13.4,5.5-20.4c1-1.7,1.4-2.6,1.7-2.6l0,0c0,0.2-0.2,1.2-0.7,2.9
		c-2.4,7.4-3.6,12.5-3.6,15.6c0,3.8,1,6,3.1,6C207.1,389.2,208.6,387.5,210.2,384.6L210.2,384.6L210.2,384.6L210.2,384.6z"/>
	<path fill="#635E49" d="M207.4,259.8c9.6-3.4,19.9-7.2,31-11c1-0.2,1.2-0.5,1.4-0.2c0.2,0,0.2,0.5-0.2,1.2
		c-0.7,2.2-1.4,3.4-1.9,3.8c-9.6,3.4-20.4,7.4-32.6,13C205.4,264.4,206.2,262.2,207.4,259.8L207.4,259.8L207.4,259.8L207.4,259.8z"
		/>
	<path fill="#635E49" d="M598.1,319.8c1.2-1,2.2-1.4,2.9-1.4c0.5,0,0.7,0.5,0.7,1.4c0,0.7-0.2,2.2-0.7,4.1c-0.5,1.9-0.7,3.4-0.7,4.6
		c0,5.3,3.8,8.2,11.3,8.2c6,0,11-2.6,14.9-7.7c2.4-4.1,5-7.9,7.4-11.8c1-1,1.7-1.4,2.4-1.4c1,0,1.2,1,0.7,3.1c-1,4.1-1.7,6-1.7,5.5
		c0,1.7,1,3.4,2.9,4.8c1.7,1.4,4.1,2.4,6.7,2.4c3.4,0,5.5-1,6.5-2.6c0-0.2-1-2.2-3.1-5.8c0.2-1.9,1.2-5.3,2.6-9.8
		c0.2-1.4,0.7-2.2,1.2-2.2c0.5,0,1,0.2,1.7,1.2c1.9,2.9,3.1,6.2,3.1,10.1c0,6-1.4,11-4.1,15.4c-2.9,5.3-7.2,7.9-13,7.9
		c-3.8,0-7.4-3.1-10.6-8.9c-5.3,9.6-12.2,14.4-20.6,14.4c-10.1,0-14.9-5.8-14.9-16.8c-3.8,4.6-10.3,8.6-18.7,12.5v-13.2
		c6.2-3.1,10.3-5,11.5-5.8C590.4,326,594.2,323.2,598.1,319.8L598.1,319.8L598.1,319.8L598.1,319.8z"/>
	<path fill="#635E49" d="M561.4,335.6c-3.6-4.6-6.7-6.7-9.6-6.7c-4.3,0-6.2,1-6.2,3.4c0,2.9,2.9,4.3,8.6,4.3
		C556.3,336.6,558.7,336.1,561.4,335.6L561.4,335.6L561.4,335.6L561.4,335.6z M568.8,353.2c0-1.4-0.5-3.1-1-4.8
		c-2.9,1-7.2,1.7-12.5,1.7c-11.5,0-17.3-4.1-17.3-12c0-6,1.7-11.3,5.5-16.1c3.6-4.1,7.4-6.2,11.5-6.2c3.1,0,6.2,1.9,9.8,5.5
		c3.1,3.6,6,7.7,8.4,12.7c0.2,0,0.7,0,1.7-0.5v13.2l-0.5,0.5c0,2.9-0.7,6.2-2.2,10.6c-1.7,5.5-4.3,10.1-7.4,13.7
		c-7.2,8.6-15.1,16.1-23.8,22.6c-13,9.6-24,14.6-33.6,14.6c-8.2,0-14.4-3.1-18.7-9.1c-3.8-5-5.8-11.8-5.8-19.7
		c0-10.1,2.2-20.4,6.2-31.2c1.2-2.4,1.7-3.4,2.2-3.4c0.2,0,0.2,0.2,0.2,0.7c0,0.7-0.2,1.9-0.5,3.4c-3.1,10.6-4.6,18.5-4.6,24
		c0,5,1.2,9.4,3.6,13c3.8,5,9.8,7.7,18.2,7.7c7.2,0,15.8-3.1,26.2-9.4c8.2-5,16.1-11,23.8-18.2C565.2,359.6,568.8,355.3,568.8,353.2
		L568.8,353.2L568.8,353.2L568.8,353.2z"/>
	<path fill="#635E49" d="M503.5,316.7c-0.5-2.2-1.2-3.8-2.2-5c-0.7-1.4-1.2-2.2-1.4-2.6c0-0.5,0-2.2,0.5-5.5
		c0.5-3.1,0.7-5.3,1.2-6.5c0.2-1.2,0.5-1.7,1-1.7c0.2,0,0.5,0.2,1,0.7c3.4,3.8,7,7.7,11,11.8c1.7,1.7,2.4,2.6,2.4,3.1
		c0,0.2-0.2,0.5-0.7,0.5c-0.7,0-2.6-0.5-5.5-1.2c1.7,4.1,3.6,8.2,5.3,12c2.6,6.7,4.1,12.2,4.1,17.3c0,2.4-0.5,5.3-1.4,8.9
		c-1.2,4.1-2.6,7.2-4.6,9.4c-7,7.9-18.7,16.6-35.3,25.9c-14.4,8.4-22.8,12.5-25.4,12.5c-0.5,0-7.7,1.7-21.4,5
		c-14.4,3.4-23.5,5.5-27.1,6c-3.8,0.7-6.2,1-7.2,1c-0.5,0-0.5,0-0.5-0.2c0-0.2,2.6-1.7,7.9-4.1c1.9-1,13-5.8,33.4-14.4
		c14.2-6,25.9-11.5,35.3-16.6c14.2-7.7,25-14.4,32.4-19.9c5.5-4.3,8.4-7.4,8.4-9.4c0-0.5-1.4-3.8-4.3-10.1
		C507.1,326.5,504.7,320.8,503.5,316.7L503.5,316.7L503.5,316.7L503.5,316.7z"/>
	<path fill="#635E49" d="M483.6,283.3c0,3.8-1.9,9.1-5.8,15.6c-2.4,4.1-6,9.6-10.8,16.8c4.8,5.5,8.2,10.6,9.8,14.9
		c1,3.1,1.7,7.2,1.7,11.8c0,1.9-0.5,4.3-1.4,7.4c-0.7,2.9-1.7,5-2.6,6.5c-1.9,2.9-5,5.8-9.8,8.6c-5,3.4-9.4,5-13,5
		c-5.8,0-8.6-4.3-8.6-13c0-5.8,1-11.5,2.9-16.8c1.9-4.6,5-10.6,10.1-18.5c-4.3-4.1-8.9-9.8-13.9-17c-0.5-0.7-1.7-1.9-3.6-3.8
		c-1-1-1.4-2.2-1.4-3.6c0-2.2,0.2-4.6,0.7-7.4c0.7-2.9,1.2-4.1,1.4-4.1c0.7,0,2.9,1.2,7,3.8c3.8,2.6,7,4.6,8.9,6.2
		c1.2,0.7,1.7,1.4,1.7,1.4v0.2c0,0.2-0.7,0.5-2.4,0.5c-3.1,0-4.8,0.2-4.8,0.5c0,0.2,0.5,0.7,1.4,1.9c3.8,4.8,7.7,8.4,11.8,11.3
		c1-1.4,4.3-6.2,9.6-14.4c4.6-7,7.2-11.8,8.4-14.6c1.2-2.9,1.9-4.1,2.4-4.1C483.4,278.5,483.6,280,483.6,283.3L483.6,283.3
		L483.6,283.3L483.6,283.3z M474.2,342.4c-2.6-5.3-7.2-10.8-13.4-16.1c-2.2,2.2-4.8,6.2-8.2,12c-3.8,6.5-5.5,10.6-5.5,12.7
		c0,2.9,1.9,4.3,6.2,4.3c1.9,0,4.3-0.7,7.4-1.9c4.3-1.9,8.4-4.6,11.8-7.9C474,344,474.5,343.1,474.2,342.4L474.2,342.4L474.2,342.4
		L474.2,342.4z"/>
	<path fill="#635E49" d="M461,265.3l3.8-7.9c0.2-0.5,0.5-0.7,1-0.7c0.5,0,2.4,1.2,6.2,3.8c3.6,2.4,5.5,3.8,5.5,4.3
		c0,1.7-1.7,5.3-4.8,10.6c-0.5,0.7-1,0.7-1.4,0.5c-3.1-2.4-6.7-4.8-10.8-7.4c-1.4,2.9-2.6,5.5-4.1,7.7c-0.2,0.7-0.7,1-1.2,0.7
		c-3.6-2.9-7.4-5.5-11.3-7.9c-0.2-0.2-0.2-0.5,0-1l4.6-9.6c0.2-0.5,0.7-1,1-1c0.5,0,2.2,1.2,5.3,3.4
		C457.9,262.7,460.1,264.4,461,265.3L461,265.3L461,265.3L461,265.3z"/>
	<path fill="#635E49" d="M587.3,399.2c-2.6,0.7-4.1,1.2-4.6,1.2v-0.2c0,0,1-0.7,2.9-1.9c1.9-1.2,4.8-3.1,8.9-6.2
		c1.9-1.9,4.8-5,8.4-9.4c2.4-2.9,5-5.5,7.9-7.4c3.6-2.6,7-3.8,10.6-3.8c0.7,0,1.9,0.2,3.4,0.7c1.2,0.5,2.4,0.7,3.4,0.7
		c1.9,0,3.4-0.7,4.6-2.2c0.7-1.4,1.7-2.6,2.6-4.1c0.5-1,1.2-1.4,1.7-1.4c0.2,0,0.2,0.2,0.2,0.7c0,0.5-0.2,1.7-0.7,3.1
		c-0.5,0.7,1.4,1,5,1c0.5,0,0.7,0,0.7-0.2c0,0-0.2-1-0.7-2.6c-0.2-0.5,0-1.2,0.7-2.2c1-1.7,1.4-2.4,1.7-2.2c1,0.7,1.4,2.2,1.4,3.8
		c0,1.7-0.5,3.4-1.2,5.3c-0.7,2.2-1.4,3.4-1.9,3.8c-1.7,1-4.3,0.7-7.9-1c-2.9,2.9-5.8,4.6-8.6,4.6c-0.7,0-1.9-0.2-3.1-0.7
		c-1.2-0.5-2.2-0.7-2.9-0.7c-4.8,0-9.8,2.2-14.9,7c-3.6,3.6-7.2,7.2-10.8,10.8C591.8,397.3,589.7,398.5,587.3,399.2L587.3,399.2
		L587.3,399.2L587.3,399.2z"/>
	<path fill="#635E49" d="M535.9,269.6c2.9,0,5.3,1.4,7.4,4.8c2.2,3.1,3.8,7.4,4.6,12.7c0.2,0.5,0.2,0.7,0.2,1h0.2
		c0-0.2,0.2-0.5,0.2-1c0.5-3.1,1.7-7.9,3.4-14.2c1.9-4.3,3.8-6.5,6-6.5c1.2,0,2.4,0.7,3.4,2.2c1,1.4,1.4,2.4,1.4,3.4
		c0,0.5,0,1.4-0.5,2.4c-0.5,1.4-1,2.2-1.4,2.2c-0.2,0-0.7-0.7-1.7-1.7c-0.7-1-1.7-1.4-2.6-1.4c-1.9,0-3.6,4.6-5.3,13.7
		c-0.7,4.1-1.7,7-2.4,8.6c-0.7,1-1.2,1.7-1.7,1.7c-0.5,0-0.5-0.7-0.7-1.7c0.2-1.7-0.7-4.8-2.6-9.4c-1.9-4.8-3.1-7-4.1-7
		c-0.5,0-0.7,0-1,0.5c-0.2,0.2-0.5,0.5-1.2,0.5c-1,0-1.9-0.7-3.4-1.9c-1.4-1.2-1.9-2.2-1.9-2.9c0-0.2,0.5-1.4,1.7-3.4
		C535,270.4,535.7,269.6,535.9,269.6L535.9,269.6L535.9,269.6L535.9,269.6z"/>
	<path fill="#635E49" d="M495.1,266.5c24.2-9.1,49.4-18.2,75.4-27.8c0.7-0.2,1.2-0.5,1.2-0.2c0.2,0,0.2,0.5,0,1.2
		c-1,2.2-1.7,3.4-2.2,3.8c-0.2,0.2-12.5,4.8-36.2,13.7c-24.2,8.9-37.9,14.4-40.6,16.1C493.2,271.1,493.9,268.9,495.1,266.5
		L495.1,266.5L495.1,266.5L495.1,266.5z"/>
	<path fill="#635E49" d="M471.6,222.6c0.5-1.4,0.5-2.9,0.2-4.3c-0.2-1.4-1-2.2-2.2-2.2c-0.5,0-1.2,0.2-2.2,0.7c-1,0.5-1.4,1-1.4,1.4
		C466.1,219.5,468,220.9,471.6,222.6L471.6,222.6L471.6,222.6L471.6,222.6z M468.7,228.8c-4.6-2.4-6.7-4.8-6.7-7.4
		c0-3.1,1.4-6,4.3-8.4c2.9-2.6,5.3-3.6,7.2-2.9c1.7,0.5,2.4,2.2,2.4,5c0,2.6-0.5,5.5-1.7,8.9c2.4,1.2,3.8,2.4,4.3,3.4
		c0,1.2-1,3.4-3.1,6.2c-0.5-1-1.9-2.2-4.1-3.4c-2.6,3.6-5.8,6.7-9.6,9.6c-4.6,3.1-8.6,5.8-12.2,7.2c-1,0.5-5.3,2.2-13,5
		c-1.2,0.5-2.2,0.7-2.4,0.7c-0.2,0-0.2-0.2-0.2-0.2c0-0.2,0.5-1,1.9-1.7c5.8-3.6,11.5-7,17.5-10.3
		C460.3,236.3,465.4,232.4,468.7,228.8L468.7,228.8L468.7,228.8L468.7,228.8z"/>
	<path fill="#635E49" d="M620.4,258.8c0.5-1.4,0.5-2.9,0.2-4.3c-0.2-1.4-1-2.2-2.2-2.2c-0.5,0-1.2,0.2-2.2,0.7c-1,0.5-1.4,1-1.4,1.4
		C614.9,255.7,616.8,257.2,620.4,258.8L620.4,258.8L620.4,258.8L620.4,258.8z M625.7,267.7c-2.4,5.8-3.6,10.3-3.6,13.7
		c0,4.1,1,6.2,3.1,6.2c1.2,0,2.6-1.7,4.3-4.6c0.2-0.2,0.2-0.5,0.5-0.7c0,0,0.2,0,0.2,0.2c0,0,0,0.2,0,0.7
		c-1.4,7.2-3.6,10.8-6.5,10.8c-3.1,0-4.6-2.6-4.6-7.9c0-2.6,0.5-6,1.9-10.3c1.4-4.3,2.2-6.5,2.2-6.7c0-0.5-1-1.4-3.1-2.6
		c-3.8,5-9.1,9.8-15.8,13.9c-4.6,2.6-9.1,5-13.9,7c-8.9,3.6-14.2,5.5-15.4,6.2c-1.2,0.5-1.9,0.7-2.4,0.7c-0.2,0-0.2-0.2-0.2-0.2
		c0-0.5,0.5-1,1.9-1.9c7.7-4.3,15.1-8.6,22.8-13c10.1-5.8,17-10.6,20.4-14.2c-4.6-2.4-6.7-4.8-6.7-7.4c0-3.1,1.4-6,4.3-8.6
		c2.9-2.4,5.3-3.4,7.2-2.6c1.4,0.5,2.4,2.2,2.4,5c0,2.6-0.5,5.5-1.7,8.6c2.4,1.4,3.4,2.9,3.4,4.3
		C626.4,265.1,626.2,266.3,625.7,267.7L625.7,267.7L625.7,267.7L625.7,267.7z"/>
	<path fill="#635E49" d="M513.4,236c0-0.2,0.2-0.5,0.2-0.5c0.2-0.2,0.2-0.2,0.2,0c0.2,0.2,0.2,0.5,0,0.7c-1.2,7.2-3.4,10.8-6.5,10.8
		c-3.1,0-4.6-2.6-4.6-7.9c0-6.5,1.7-13.4,5.5-20.4c1-1.7,1.4-2.6,1.7-2.6l0,0c0,0.2-0.2,1.2-0.7,2.9c-2.4,7.4-3.6,12.5-3.6,15.6
		c0,3.8,1,6,3.1,6C510.2,240.6,511.7,238.9,513.4,236L513.4,236L513.4,236L513.4,236z"/>
</g>
</svg>
