<?xml version="1.0" encoding="utf-8"?>
<!-- Generator: Adobe Illustrator 18.1.1, SVG Export Plug-In . SVG Version: 6.00 Build 0)  -->
<!DOCTYPE svg PUBLIC "-//W3C//DTD SVG 1.1//EN" "http://www.w3.org/Graphics/SVG/1.1/DTD/svg11.dtd">
<svg version="1.1" id="Layer_1" xmlns="http://www.w3.org/2000/svg" xmlns:xlink="http://www.w3.org/1999/xlink" x="0px" y="0px"
	 viewBox="0 0 792 612" enable-background="new 0 0 792 612" xml:space="preserve">
<g>
	<path fill="#635E49" d="M362.5,323.9c0-1.2-2.2-2.6-6-4.3c-4.1-1.9-7.4-2.9-9.8-2.9c-1.7,0-2.4,0.5-2.2,1.2c1,1.9,2.6,5.5,5,10.6
		C356.3,326.3,360.6,324.6,362.5,323.9L362.5,323.9L362.5,323.9L362.5,323.9z M305.6,352.7c13.4-10.6,26.4-17.8,38.6-21.8
		c-0.7-1.4-2.2-4.1-3.8-7.4c-0.7-1.7-1-3.6-1-6c0-3.8,1-7,2.6-9.6c2.4-3.1,5.8-4.8,10.3-4.8c3.6,0,8.6,2.2,15.1,6.7
		c7,4.8,10.3,8.6,10.3,11.8c-1,4.1-2.2,7.9-3.6,11.8c-5.5,1.7-12.2,3.6-20.2,6.2c0.2,4.3-0.2,6.7-1.4,6.7c-0.7,0-1.7-1.7-2.6-5
		c-3.6,1.2-8.9,3.4-15.4,6.2c-9.1,4.3-16.3,8.4-21.1,12.2c-7,5.5-15.1,12.7-24.2,21.8c-9.6,9.6-15.6,15.4-18.5,17.8
		c-6,4.8-11.3,7.2-15.8,7.2c-4.8,0-9.1-2.2-12.7-6.5c-3.8-4.6-5.5-10.1-5.5-16.6c0-9.1,3.6-20.9,11-35.3c0.7-1.7,1.4-2.4,1.9-2.4
		c0,0,0.2,0.2,0.2,0.7c0,1.4-1.7,6.5-4.8,15.1c-3.4,8.6-5,15.6-5,20.4c0,3.8,1,7,2.9,9.4c1.9,2.4,4.6,3.6,7.9,3.6
		c4.8,0,10.6-2.4,17.5-7.7c4.1-3.1,10.3-8.9,18.7-17.3C295.6,361.6,301.8,355.8,305.6,352.7L305.6,352.7L305.6,352.7L305.6,352.7z"
		/>
	<g>
		<path fill="#635E49" d="M286.2,307.6c-2.6-8.2-4.6-16.3-5.5-24.5c-0.2-1.4-0.2-2.2-0.5-2.6c-0.2-1-1-2.2-1.9-3.4l3.4-8.2
			c0.5-1.2,1-1.9,1.4-1.9c0.2,0,1,0.7,1.7,1.9l8.4,13.4c1.2,1.9,1.7,3.4,1.7,4.1c0,0.5-0.2,1-0.7,1c-1.2,0-2.9-1-5.5-2.6
			c0.7,5.3,2.4,11.8,5,19.7c0,0.5-1,1.2-2.6,2.2c-1.7,0.7-3.1,1.2-4.1,1.2C286.4,307.8,286.2,307.8,286.2,307.6L286.2,307.6
			L286.2,307.6L286.2,307.6z"/>
	</g>
	<path fill="#635E49" d="M215.4,368.3c-5,0-9.4-2.4-13-6.7c-3.8-4.6-5.5-10.1-5.5-16.6c0-9.1,3.6-20.9,11-35.3
		c0.7-1.4,1.4-2.2,1.9-2.2c0.2,0,0.2,0,0.2,0.5c0,1.4-1.7,6.5-4.8,15.1c-3.4,8.6-4.8,15.6-4.8,20.6c0,3.8,0.7,7,2.6,9.4
		c1.9,2.4,4.6,3.6,7.9,3.6c5.5,0,10.8-1.9,15.6-5.5c6-5,12-10.3,18-15.6c9.8-7.9,19-14.2,27.8-18.5c6.5-3.4,11.5-5,14.6-5
		c-0.2-0.7-0.5-2.4-1-4.8c0-0.7,1.2-1.4,3.4-2.2c2.4-1,3.8-1.2,4.3-0.7c0.5,1.9,2.6,4.1,6,6.2c3.4,2.4,7.7,4.3,12.5,6
		c2.2,0.7,3.1,2.2,2.6,4.1l-1.7,9.6c-0.2,1.2-1.2,1.2-3.1,0c-5.3-2.9-11.8-4.3-19.4-4.3c-10.6,0-23,5.8-37.7,17.3
		c-7.7,6.2-15.1,12.5-22.6,18.5C224.8,366.1,219.7,368.3,215.4,368.3L215.4,368.3L215.4,368.3L215.4,368.3z"/>
	<path fill="#635E49" d="M275.6,350.5l3.8-7.9c0.2-0.5,0.5-0.7,1-0.7c0.5,0,2.4,1.2,6.2,3.8c3.6,2.4,5.5,3.8,5.5,4.3
		c0,1.7-1.7,5.3-4.8,10.6c-0.5,0.7-1,0.7-1.4,0.5c-3.1-2.4-6.7-4.8-10.8-7.4c-1.4,2.9-2.6,5.5-4.1,7.7c-0.2,0.7-0.7,1-1.2,0.7
		c-3.6-2.9-7.4-5.5-11.3-7.9c-0.2-0.2-0.2-0.5,0-1l4.6-9.6c0.2-0.5,0.7-1,1-1c0.5,0,2.2,1.2,5.3,3.4
		C272.5,347.9,274.7,349.6,275.6,350.5L275.6,350.5L275.6,350.5L275.6,350.5z"/>
	<path fill="#635E49" d="M310,289.3c18.5-6.7,37.7-13.9,57.8-21.4c0.7-0.2,1.2-0.5,1.4-0.2c0,0,0,0.5-0.2,1.2
		c-1,2.2-1.7,3.4-2.2,3.8c-16.8,6.2-36.7,13.9-59.3,23.3C308,293.9,308.8,291.7,310,289.3L310,289.3L310,289.3L310,289.3z"/>
	<path fill="#635E49" d="M328,260.8c0-1.2-2.4-3.4-7.4-6.2c-1.7,2.9-2.4,5.5-2.4,7.9c0,1.4,0.7,2.4,2.2,2.4c1.2,0,2.6-0.5,4.3-1.4
		C326.3,262.7,327.5,261.7,328,260.8L328,260.8L328,260.8L328,260.8z M322.7,241.6c0.7-1.2,1.7-1.7,2.4-1.7c0.5,0,1,0.2,1,0.7
		c0,0-0.2,0.2-0.2,0.5c-1,2.2-1.9,4.6-2.6,7c5,3.6,7.4,7.4,7.2,11c-0.5,4.1-1,6.7-1.7,7.7c-2.4,2.9-5,4.6-8.4,4.6
		c-3.4,0-4.8-2.2-4.8-6c0-0.7,0-1.7,0.2-2.6C316.9,255,319.3,248,322.7,241.6L322.7,241.6L322.7,241.6L322.7,241.6z"/>
	<path fill="#635E49" d="M274,238.4c18.5-6.7,37.7-13.9,57.8-21.4c0.7-0.2,1.2-0.5,1.4-0.2c0,0,0,0.5-0.2,1.2
		c-1,2.2-1.7,3.4-2.2,3.8c-16.8,6.2-36.7,13.9-59.3,23.3C272,243,272.8,240.8,274,238.4L274,238.4L274,238.4L274,238.4z"/>
	<path fill="#635E49" d="M218.3,298.7c0-0.2,0.2-0.5,0.2-0.5c0.2-0.2,0.2-0.2,0.2,0c0.2,0.2,0.2,0.5,0,0.7
		c-1.2,7.2-3.4,10.8-6.5,10.8c-3.1,0-4.6-2.6-4.6-7.9c0-6.5,1.7-13.4,5.5-20.4c1-1.7,1.4-2.6,1.7-2.6l0,0c0,0.2-0.2,1.2-0.7,2.9
		c-2.4,7.4-3.6,12.5-3.6,15.6c0,3.8,1,6,3.1,6C215.2,303.2,216.6,301.6,218.3,298.7L218.3,298.7L218.3,298.7L218.3,298.7z"/>
	<path fill="#635E49" d="M350.8,374.8c0-0.7-0.5-1.7-1.4-2.6c-0.7-1-1.7-1.4-2.4-1.4c-1.2,0-2.2,0.5-2.9,1.7
		c1.2,1.2,3.1,2.4,5.8,3.6c0.5,0.2,0.7,0.2,1,0C351,376,351,375.5,350.8,374.8L350.8,374.8L350.8,374.8L350.8,374.8z M340.2,370.4
		c0.5-0.7,1-0.7,1.4-0.2c1.9-3.6,3.8-5.5,6-5.5c1.4,0,2.9,0.7,4.1,2.6c1.4,1.7,1.9,3.8,1.9,6c0,1,0,1.7-0.2,2.6
		c-0.7,3.8-1.9,5.8-3.6,5.8c-1.4,0-3.4-1-5.5-2.4c-2.2-1.2-3.6-2.6-4.6-3.8c-1.4,4.1-3.1,7.4-5.3,9.8c-3.8,4.3-8.6,7.9-15.1,11.3
		c-4.8,2.9-7.9,4.1-9.4,4.1c0,0-2.9,0.7-8.4,1.9c-5.8,1.4-9.4,2.4-10.8,2.6c-2.2,0.2-3.1,0.2-3.1,0.2c0-0.2,1-0.7,3.1-1.7
		c6-2.4,15.1-6.5,27.6-12.5c8.9-4.8,14.6-9.1,17-12.7C336.6,376.4,338,373.6,340.2,370.4L340.2,370.4L340.2,370.4L340.2,370.4z"/>
	<path fill="#635E49" d="M246.6,260.5c-0.5-2.9-1.7-6.2-3.4-10.3c-1.7-4.1-3.1-6.2-3.8-6.2c-0.5,0-0.7,0-1,0.5
		c-0.2,0.2-0.5,0.5-1.2,0.5c-1,0-1.9-0.7-3.4-1.9c-1.4-1.2-1.9-2.2-1.9-2.9c0-0.2,0.5-1.4,1.7-3.4c1-1.9,1.7-2.6,1.9-2.6
		c2.9,0,5.3,1.4,7.4,4.8c2.2,3.1,3.8,7.4,4.6,12.7c0.2,0.5,0.2,0.7,0.2,1h0.2c0-0.2,0.2-0.5,0.2-1c0.5-3.1,1.7-7.9,3.4-14.2
		c1.9-4.3,3.8-6.5,6-6.5c1.2,0,2.4,0.7,3.4,2.2c1,1.4,1.4,2.4,1.4,3.4c0,0.5,0,1.4-0.5,2.4c-0.5,1.4-1,2.2-1.4,2.2
		c-0.2,0-0.7-0.7-1.7-1.7c-0.7-1-1.7-1.4-2.6-1.4c-1.9,0-3.6,4.6-5.3,13.7c-0.7,3.6-1.4,6.5-2.6,8.6c1.7,0,3.6,1.2,6.2,3.1
		c2.4,2.2,3.8,3.8,4.1,5.3c0,0.5-0.2,1.4-1,3.1s-1.2,2.4-1.7,2.6c-2.4,0.7-4.8,1.2-7.2,1.9c-2.9,1-5,2.2-6.2,3.4
		c3.4,10.1,5,19.9,5,29.8c0,2.9-0.5,5.8-1,8.9c-0.2,1-0.5,1.4-0.7,1.7c-0.2,0-0.2-1.9-0.2-5.3c0-5.5-1-12.5-2.6-20.4
		c-1.4-7.9-2.4-12.5-2.4-13.7c0-4.1,1.2-7,3.4-8.9c1.2-0.7,3.1-1.7,6.2-2.6c-1.2-1.2-2.4-1.7-3.6-1.7c-0.5,0-1.2,0.7-2.2,1.9
		c-1.2,1.2-1.7,1.9-1.9,1.9c-0.2,0-0.2-0.5,0-1.7C243,264.6,244.4,261.5,246.6,260.5L246.6,260.5L246.6,260.5L246.6,260.5z"/>
	<path fill="#635E49" d="M361.8,225.5c0-0.2,0.2-0.5,0.2-0.5c0.2-0.2,0.2-0.2,0.2,0c0.2,0.2,0.2,0.5,0,0.7
		c-1.2,7.2-3.4,10.8-6.5,10.8c-3.1,0-4.6-2.6-4.6-7.9c0-6.5,1.7-13.4,5.5-20.4c1-1.7,1.4-2.6,1.7-2.6l0,0c0,0.2-0.2,1.2-0.7,2.9
		c-2.4,7.4-3.6,12.5-3.6,15.6c0,3.8,1,6,3.1,6C358.7,230,360.1,228.4,361.8,225.5L361.8,225.5L361.8,225.5L361.8,225.5z"/>
	<path fill="#635E49" d="M536.3,316.2c1.2-1,2.2-1.4,2.9-1.4c0.5,0,0.7,0.5,0.7,1.4c0,0.7-0.2,2.2-0.7,4.1c-0.5,1.9-0.7,3.4-0.7,4.6
		c0,5.3,3.8,8.2,11.3,8.2c6,0,11-2.6,14.9-7.7c2.4-4.1,5-7.9,7.4-11.8c1-1,1.7-1.4,2.4-1.4c1,0,1.2,1,0.7,3.1c-1,4.1-1.7,6-1.7,5.5
		c0,1.7,1,3.4,2.9,4.8c1.7,1.4,4.1,2.4,6.7,2.4c3.4,0,5.5-1,6.5-2.6c0-0.2-1-2.2-3.1-5.8c0.2-1.9,1.2-5.3,2.6-9.8
		c0.2-1.4,0.7-2.2,1.2-2.2c0.5,0,1,0.2,1.7,1.2c1.9,2.9,3.1,6.2,3.1,10.1c0,6-1.4,11-4.1,15.4c-2.9,5.3-7.2,7.9-13,7.9
		c-3.8,0-7.4-3.1-10.6-8.9c-5.3,9.6-12.2,14.4-20.6,14.4c-10.1,0-14.9-5.8-14.9-16.8c-3.8,4.6-10.3,8.6-18.7,12.5v-13.2
		c6.2-3.1,10.3-5,11.5-5.8C528.6,322.4,532.4,319.6,536.3,316.2L536.3,316.2L536.3,316.2L536.3,316.2z"/>
	<path fill="#635E49" d="M499.6,332c-3.6-4.6-6.7-6.7-9.6-6.7c-4.3,0-6.2,1-6.2,3.4c0,2.9,2.9,4.3,8.6,4.3
		C494.5,333,496.9,332.5,499.6,332L499.6,332L499.6,332L499.6,332z M507,349.6c0-1.4-0.5-3.1-1-4.8c-2.9,1-7.2,1.7-12.5,1.7
		c-11.5,0-17.3-4.1-17.3-12c0-6,1.7-11.3,5.5-16.1c3.6-4.1,7.4-6.2,11.5-6.2c3.1,0,6.2,1.9,9.8,5.5c3.1,3.6,6,7.7,8.4,12.7
		c0.2,0,0.7,0,1.7-0.5v13.2l-0.5,0.5c0,2.9-0.7,6.2-2.2,10.6c-1.7,5.5-4.3,10.1-7.4,13.7c-7.2,8.6-15.1,16.1-23.8,22.6
		c-13,9.6-24,14.6-33.6,14.6c-8.2,0-14.4-3.1-18.7-9.1c-3.8-5-5.8-11.8-5.8-19.7c0-10.1,2.2-20.4,6.2-31.2c1.2-2.4,1.7-3.4,2.2-3.4
		c0.2,0,0.2,0.2,0.2,0.7c0,0.7-0.2,1.9-0.5,3.4c-3.1,10.6-4.6,18.5-4.6,24c0,5,1.2,9.4,3.6,13c3.8,5,9.8,7.7,18.2,7.7
		c7.2,0,15.8-3.1,26.2-9.4c8.2-5,16.1-11,23.8-18.2C503.4,356,507,351.7,507,349.6L507,349.6L507,349.6L507,349.6z"/>
	<path fill="#635E49" d="M441.5,313.3c-0.5-2.2-1.2-3.8-2.2-5c-0.7-1.4-1.2-2.2-1.4-2.6c0-0.5,0-2.2,0.5-5.5
		c0.5-3.1,0.7-5.3,1.2-6.5c0.2-1.2,0.5-1.7,1-1.7c0.2,0,0.5,0.2,1,0.7c3.4,3.8,7,7.7,11,11.8c1.7,1.7,2.4,2.6,2.4,3.1
		c0,0.2-0.2,0.5-0.7,0.5c-0.7,0-2.6-0.5-5.5-1.2c1.7,4.1,3.6,8.2,5.3,12c2.6,6.7,4.1,12.2,4.1,17.3c0,2.4-0.5,5.3-1.4,8.9
		c-1.2,4.1-2.6,7.2-4.6,9.4c-7,7.9-18.7,16.6-35.3,25.9c-14.4,8.4-22.8,12.5-25.4,12.5c-0.5,0-7.7,1.7-21.4,5
		c-14.4,3.4-23.5,5.5-27.1,6c-3.8,0.7-6.2,1-7.2,1c-0.5,0-0.5,0-0.5-0.2c0-0.2,2.6-1.7,7.9-4.1c1.9-1,13-5.8,33.4-14.4
		c14.2-6,25.9-11.5,35.3-16.6c14.2-7.7,25-14.4,32.4-19.9c5.5-4.3,8.4-7.4,8.4-9.4c0-0.5-1.4-3.8-4.3-10.1
		C445.1,323.2,442.7,317.4,441.5,313.3L441.5,313.3L441.5,313.3L441.5,313.3z"/>
	<path fill="#635E49" d="M421.8,280c0,3.8-1.9,9.1-5.8,15.6c-2.4,4.1-6,9.6-10.8,16.8c4.8,5.5,8.2,10.6,9.8,14.9
		c1,3.1,1.7,7.2,1.7,11.8c0,1.9-0.5,4.3-1.4,7.4c-0.7,2.9-1.7,5-2.6,6.5c-1.9,2.9-5,5.8-9.8,8.6c-5,3.4-9.4,5-13,5
		c-5.8,0-8.6-4.3-8.6-13c0-5.8,1-11.5,2.9-16.8c1.9-4.6,5-10.6,10.1-18.5c-4.3-4.1-8.9-9.8-13.9-17c-0.5-0.7-1.7-1.9-3.6-3.8
		c-1-1-1.4-2.2-1.4-3.6c0-2.2,0.2-4.6,0.7-7.4c0.7-2.9,1.2-4.1,1.4-4.1c0.7,0,2.9,1.2,7,3.8c3.8,2.6,7,4.6,8.9,6.2
		c1.2,0.7,1.7,1.4,1.7,1.4v0.2c0,0.2-0.7,0.5-2.4,0.5c-3.1,0-4.8,0.2-4.8,0.5c0,0.2,0.5,0.7,1.4,1.9c3.8,4.8,7.7,8.4,11.8,11.3
		c1-1.4,4.3-6.2,9.6-14.4c4.6-7,7.2-11.8,8.4-14.6c1.2-2.9,1.9-4.1,2.4-4.1C421.6,275.2,421.8,276.6,421.8,280L421.8,280L421.8,280
		L421.8,280z M412.4,339c-2.6-5.3-7.2-10.8-13.4-16.1c-2.2,2.2-4.8,6.2-8.2,12c-3.8,6.5-5.5,10.6-5.5,12.7c0,2.9,1.9,4.3,6.2,4.3
		c1.9,0,4.3-0.7,7.4-1.9c4.3-1.9,8.4-4.6,11.8-7.9C412.2,340.7,412.7,339.7,412.4,339L412.4,339L412.4,339L412.4,339z"/>
	<path fill="#635E49" d="M399.2,262l3.8-7.9c0.2-0.5,0.5-0.7,1-0.7c0.5,0,2.4,1.2,6.2,3.8c3.6,2.4,5.5,3.8,5.5,4.3
		c0,1.7-1.7,5.3-4.8,10.6c-0.5,0.7-1,0.7-1.4,0.5c-3.1-2.4-6.7-4.8-10.8-7.4c-1.4,2.9-2.6,5.5-4.1,7.7c-0.2,0.7-0.7,1-1.2,0.7
		c-3.6-2.9-7.4-5.5-11.3-7.9c-0.2-0.2-0.2-0.5,0-1l4.6-9.6c0.2-0.5,0.7-1,1-1c0.5,0,2.2,1.2,5.3,3.4
		C396.1,259.3,398.3,261,399.2,262L399.2,262L399.2,262L399.2,262z"/>
	<path fill="#635E49" d="M525.5,395.9c-2.6,0.7-4.1,1.2-4.6,1.2v-0.2c0,0,1-0.7,2.9-1.9c1.9-1.2,4.8-3.1,8.9-6.2
		c1.9-1.9,4.8-5,8.4-9.4c2.4-2.9,5-5.5,7.9-7.4c3.6-2.6,7-3.8,10.6-3.8c0.7,0,1.9,0.2,3.4,0.7c1.2,0.5,2.4,0.7,3.4,0.7
		c1.9,0,3.4-0.7,4.6-2.2c0.7-1.4,1.7-2.6,2.6-4.1c0.5-1,1.2-1.4,1.7-1.4c0.2,0,0.2,0.2,0.2,0.7c0,0.5-0.2,1.7-0.7,3.1
		c-0.5,0.7,1.4,1,5,1c0.5,0,0.7,0,0.7-0.2c0,0-0.2-1-0.7-2.6c-0.2-0.5,0-1.2,0.7-2.2c1-1.7,1.4-2.4,1.7-2.2c1,0.7,1.4,2.2,1.4,3.8
		c0,1.7-0.5,3.4-1.2,5.3c-0.7,2.2-1.4,3.4-1.9,3.8c-1.7,1-4.3,0.7-7.9-1c-2.9,2.9-5.8,4.6-8.6,4.6c-0.7,0-1.9-0.2-3.1-0.7
		c-1.2-0.5-2.2-0.7-2.9-0.7c-4.8,0-9.8,2.2-14.9,7c-3.6,3.6-7.2,7.2-10.8,10.8C530,394,527.9,395.2,525.5,395.9L525.5,395.9
		L525.5,395.9L525.5,395.9z"/>
	<path fill="#635E49" d="M474.1,266c2.9,0,5.3,1.4,7.4,4.8c2.2,3.1,3.8,7.4,4.6,12.7c0.2,0.5,0.2,0.7,0.2,1h0.2c0-0.2,0.2-0.5,0.2-1
		c0.5-3.1,1.7-7.9,3.4-14.2c1.9-4.3,3.8-6.5,6-6.5c1.2,0,2.4,0.7,3.4,2.2c1,1.4,1.4,2.4,1.4,3.4c0,0.5,0,1.4-0.5,2.4
		c-0.5,1.4-1,2.2-1.4,2.2c-0.2,0-0.7-0.7-1.7-1.7c-0.7-1-1.7-1.4-2.6-1.4c-1.9,0-3.6,4.6-5.3,13.7c-0.7,4.1-1.7,7-2.4,8.6
		c-0.7,1-1.2,1.7-1.7,1.7c-0.5,0-0.5-0.7-0.7-1.7c0.2-1.7-0.7-4.8-2.6-9.4c-1.9-4.8-3.1-7-4.1-7c-0.5,0-0.7,0-1,0.5
		c-0.2,0.2-0.5,0.5-1.2,0.5c-1,0-1.9-0.7-3.4-1.9c-1.4-1.2-1.9-2.2-1.9-2.9c0-0.2,0.5-1.4,1.7-3.4C473.2,266.8,473.9,266,474.1,266
		L474.1,266L474.1,266L474.1,266z"/>
	<path fill="#635E49" d="M433.3,263.2c24.2-9.1,49.4-18.2,75.4-27.8c0.7-0.2,1.2-0.5,1.2-0.2c0.2,0,0.2,0.5,0,1.2
		c-1,2.2-1.7,3.4-2.2,3.8c-0.2,0.2-12.5,4.8-36.2,13.7c-24.2,8.9-37.9,14.4-40.6,16.1C431.4,267.7,432.1,265.6,433.3,263.2
		L433.3,263.2L433.3,263.2L433.3,263.2z"/>
	<path fill="#635E49" d="M409.8,219.2c0.5-1.4,0.5-2.9,0.2-4.3c-0.2-1.4-1-2.2-2.2-2.2c-0.5,0-1.2,0.2-2.2,0.7c-1,0.5-1.4,1-1.4,1.4
		C404.3,216.1,406.2,217.6,409.8,219.2L409.8,219.2L409.8,219.2L409.8,219.2z M406.9,225.5c-4.6-2.4-6.7-4.8-6.7-7.4
		c0-3.1,1.4-6,4.3-8.4c2.9-2.6,5.3-3.6,7.2-2.9c1.7,0.5,2.4,2.2,2.4,5c0,2.6-0.5,5.5-1.7,8.9c2.4,1.2,3.8,2.4,4.3,3.4
		c0,1.2-1,3.4-3.1,6.2c-0.5-1-1.9-2.2-4.1-3.4c-2.6,3.6-5.8,6.7-9.6,9.6c-4.6,3.1-8.6,5.8-12.2,7.2c-1,0.5-5.3,2.2-13,5
		c-1.2,0.5-2.2,0.7-2.4,0.7c-0.2,0-0.2-0.2-0.2-0.2c0-0.2,0.5-1,1.9-1.7c5.8-3.6,11.5-7,17.5-10.3
		C398.5,232.9,403.6,229.1,406.9,225.5L406.9,225.5L406.9,225.5L406.9,225.5z"/>
	<path fill="#635E49" d="M558.6,255.5c0.5-1.4,0.5-2.9,0.2-4.3c-0.2-1.4-1-2.2-2.2-2.2c-0.5,0-1.2,0.2-2.2,0.7c-1,0.5-1.4,1-1.4,1.4
		C553.1,252.4,555,253.8,558.6,255.5L558.6,255.5L558.6,255.5L558.6,255.5z M563.9,264.4c-2.4,5.8-3.6,10.3-3.6,13.7
		c0,4.1,1,6.2,3.1,6.2c1.2,0,2.6-1.7,4.3-4.6c0.2-0.2,0.2-0.5,0.5-0.7c0,0,0.2,0,0.2,0.2c0,0,0,0.2,0,0.7
		c-1.4,7.2-3.6,10.8-6.5,10.8c-3.1,0-4.6-2.6-4.6-7.9c0-2.6,0.5-6,1.9-10.3c1.4-4.3,2.2-6.5,2.2-6.7c0-0.5-1-1.4-3.1-2.6
		c-3.8,5-9.1,9.8-15.8,13.9c-4.6,2.6-9.1,5-13.9,7c-8.9,3.6-14.2,5.5-15.4,6.2c-1.2,0.5-1.9,0.7-2.4,0.7c-0.2,0-0.2-0.2-0.2-0.2
		c0-0.5,0.5-1,1.9-1.9c7.7-4.3,15.1-8.6,22.8-13c10.1-5.8,17-10.6,20.4-14.2c-4.6-2.4-6.7-4.8-6.7-7.4c0-3.1,1.4-6,4.3-8.6
		c2.9-2.4,5.3-3.4,7.2-2.6c1.4,0.5,2.4,2.2,2.4,5c0,2.6-0.5,5.5-1.7,8.6c2.4,1.4,3.4,2.9,3.4,4.3
		C564.6,261.7,564.4,262.9,563.9,264.4L563.9,264.4L563.9,264.4L563.9,264.4z"/>
	<path fill="#635E49" d="M451.6,232.7c0-0.2,0.2-0.5,0.2-0.5c0.2-0.2,0.2-0.2,0.2,0c0.2,0.2,0.2,0.5,0,0.7
		c-1.2,7.2-3.4,10.8-6.5,10.8c-3.1,0-4.6-2.6-4.6-7.9c0-6.5,1.7-13.4,5.5-20.4c1-1.7,1.4-2.6,1.7-2.6l0,0c0,0.2-0.2,1.2-0.7,2.9
		c-2.4,7.4-3.6,12.5-3.6,15.6c0,3.8,1,6,3.1,6C448.4,237.2,449.9,235.6,451.6,232.7L451.6,232.7L451.6,232.7L451.6,232.7z"/>
</g>
</svg>
