<?xml version="1.0" encoding="utf-8"?>
<!-- Generator: Adobe Illustrator 18.1.1, SVG Export Plug-In . SVG Version: 6.00 Build 0)  -->
<!DOCTYPE svg PUBLIC "-//W3C//DTD SVG 1.1//EN" "http://www.w3.org/Graphics/SVG/1.1/DTD/svg11.dtd">
<svg version="1.1" id="Layer_1" xmlns="http://www.w3.org/2000/svg" xmlns:xlink="http://www.w3.org/1999/xlink" x="0px" y="0px"
	 viewBox="0 0 792 612" enable-background="new 0 0 792 612" xml:space="preserve">
<g>
	<path fill="#635E49" d="M385.7,230.3c0-4.8-0.7-8.6-2.2-11.8c0-1.7,1.2-5.8,4.1-12c0.2-0.7,0.5-1.2,0.7-1.2c0.5,0,0.7,0.5,1.2,1.2
		c0.7,1.7,2.4,6.2,5.3,13.7c3.1,7.9,4.8,12.7,5.3,14.6c0.5,1.2,0.5,2.4,0.5,2.9c0,2.2-1.9,1-6.2-3.8c-0.5-0.7-0.7-0.2-0.7,1
		c0,0.5,1.2,15.4,3.4,45.1c2.2,29.5,3.1,46.1,3.1,49.9c0,11.3-1.7,21.4-5,30c-1,1.7-1.4,2.9-1.9,3.8l0,0c-0.7,1.2-1,1.2-1.2,0.5
		c-0.2-1,0-2.9,0.2-5.5c0.5-4.1,0.7-8.6,0.7-13.7c0-4.8-1.2-24-3.6-57.8C386.9,253.3,385.7,234.3,385.7,230.3L385.7,230.3
		L385.7,230.3L385.7,230.3z"/>
	<path fill="#635E49" d="M376.3,317.1c0,14.2-2.6,25.2-7.7,33.4c-4.3,6.7-9.4,10.3-15.1,10.3v-14.6c4.6,0,9.1-1.9,13.4-5.5
		c1.2-1,1.9-5,1.9-11.8c0-4.1-1.2-20.6-3.4-49.4s-3.1-45.8-3.1-51.1c0-4.6-0.7-8.4-2.2-11.5c0-1.7,1.4-5.8,4.1-12.2
		c0.2-0.7,0.5-1,1-1c0.2,0,0.5,0.2,1,1.2c0.7,1.7,2.6,6.2,5.5,13.7c2.9,7.9,4.6,12.7,5.3,14.4c0.2,1.4,0.5,2.6,0.5,3.1
		c0,2.2-2.2,1-6.2-3.8c-0.5-0.5-0.7-0.2-0.7,1c0,0.2,1,13.2,2.9,38.6C375.4,297,376.3,312.1,376.3,317.1L376.3,317.1L376.3,317.1
		L376.3,317.1z"/>
	<path fill="#635E49" d="M353.3,360.8c-8.6,0-13.2-5-13.7-15.1c0-0.5-0.2-0.7-0.7-1c-0.7,0.2-1.4,0.5-2.2,1.4
		c-5,5.8-8.2,9.1-9.6,10.3c-6.2,5.5-12.7,8.2-19.4,8.2V350c7,0,13.2-1.9,18.7-5.8c2.2-1.4,7-6,14.6-13.7c0.7-0.7,1.7-1.2,2.6-1.2
		c1,0,1.2,0.5,1.2,1.4c0,0.5,0,1.2-0.2,2.2c-0.2,1-0.2,1.7-0.2,2.2c0,2.9,0.5,5.3,1.9,7.2c1.4,2.4,3.8,3.8,7,3.8V360.8L353.3,360.8
		L353.3,360.8z"/>
	<path fill="#635E49" d="M307.7,350v14.6c-7.9,0-13-3.1-15.4-9.4c-1-2.2-1.2-4.8-1.2-8.2c0-2.2,0.2-4.6,0.7-7.4c0.5-4.1,1.2-6,2.4-6
		c0.5,0,0.7,1,1,3.1c0,1.2,0,2.6,0,3.8c0.5,3.4,1.4,5.8,3.4,7.2C300.3,349.3,303.4,350,307.7,350L307.7,350L307.7,350L307.7,350z"/>
	<path fill="#635E49" d="M359.8,298.4l-3.4,9.8c-0.5,1.2-0.7,1.9-1,2.2c-0.2,0.5-0.7,0.7-1.2,0.7c-19.9,4.8-39.6,11-59.3,18.7
		c0.2,2.9,0.5,5.3,0.5,7c0,2.4-0.5,3.6-1.2,3.6c-1,0-3.1-2.6-6.2-8.4c-3.6,1.2-9.8,3.8-18.7,7.7v-13.2c2.6-1.2,6.5-2.9,11-5
		c-0.5-0.5-3.8-3.4-10.3-8.6c-5.5-4.3-8.9-7.9-10.3-10.3c-1.4-2.2-2.2-4.8-2.2-7.4c0-4.6,1.9-8.4,5.5-11.5c3.6-3.4,8.2-5,13.7-5
		c9.8,0,25.9,2.9,47.5,8.2c1,0.2,12.5,3.4,34.6,9.4C360,296.3,360.3,297.2,359.8,298.4L359.8,298.4L359.8,298.4L359.8,298.4z
		 M335,304.4c-5.3-1.9-13.7-4.6-25-7.2c-14.6-3.6-26.2-5.3-35-5.3c-7,0-10.6,0.5-10.6,1.7c0,0.5,1.2,1.7,3.1,3.6
		c4.1,3.1,8.2,6.5,12,9.8c6,4.8,9.6,8.4,11.3,10.6C306.7,312.1,321.4,307.5,335,304.4L335,304.4L335,304.4L335,304.4z"/>
	<path fill="#635E49" d="M210.7,372.3c17.5-14.6,31.2-23,40.6-24.5c-2.9-1-4.6-1.7-5-1.9c-1-0.5-1.2-1-0.7-1.9l4.1-10.1
		c0.2-1,2.4-1.9,6.2-3.1c6-1.7,10.6-3.1,13.4-4.3v13c2.4,1.7,6.2,4.8,11.5,9.1c1.4,1.7,2.2,3.1,2.2,4.6c0,1.2-0.5,3.6-1.4,7.2
		c-0.7,3.8-1.7,5.5-2.4,5.5c-0.5,0-1.2-0.2-2.2-1c-5-3.1-11.3-4.6-18.2-4.6c-9.8,0-23.3,6.7-39.8,19.7c-8.4,7.2-16.8,14.4-25.2,21.6
		c-7.4,6.2-13.2,9.4-16.8,9.4c-5,0-9.4-2.4-13-6.7c-3.8-4.6-5.5-10.1-5.5-16.6c0-9.1,3.6-20.9,11-35.3c0.7-1.4,1.4-2.2,1.9-2.2
		c0.2,0,0.2,0.2,0.2,0.5c0,1.7-1.7,6.7-4.8,15.1c-3.4,8.6-4.8,15.6-4.8,20.6c0,3.8,0.7,7,2.6,9.4c1.9,2.4,4.6,3.6,7.9,3.6
		c4.8,0,10.6-2.9,17.3-8.6C196.8,384.8,203.8,378.6,210.7,372.3L210.7,372.3L210.7,372.3L210.7,372.3z"/>
	<path fill="#635E49" d="M336,238.6c0,1.9-0.5,4.1-1.4,6c-1.2,2.6-2.6,4.1-4.3,4.1c-2.9,0-4.8-1.9-6-5.8c-1.4,4.8-3.8,7.4-7.4,7.4
		c-1.2,0-2.4-0.7-3.4-2.2c-1.2-1.4-1.7-3.6-1.7-6V236c0-0.5-0.5-0.7-1-1c-0.7-0.2-1-0.7-1-1.4c0-1.4,0.5-2.6,1.4-3.8
		c1-1.2,1.7-1.7,2.2-1.7c0.7,0,1.2,1.2,1.2,3.8c0,1.4-0.2,2.6-0.2,3.6c-0.2,1-0.2,1.7-0.2,2.4c0,1.4,0.2,2.9,0.7,4.1
		c0.7,1.4,1.7,2.4,2.6,2.4c1.4,0,2.6-0.7,3.8-1.9c1.2-1.2,1.9-2.6,1.9-4.3c0-1-0.5-2.4-1-4.8c-0.7-2.2-1-3.6-1-4.1
		c0-0.5,0.2-1.2,0.7-2.4c0.5-1,1-1.4,1.2-1.4c0.5,0,1,1.4,1.7,4.3c0.7,3.1,1.2,5.3,1.2,6.7c0,4.1,1.4,6.2,4.6,6.2
		c1.4,0,2.4-0.7,2.6-2.2c-2.6-4.8-4.1-8.4-4.1-11c0-1.4,0.2-2.6,1.2-3.8c0.5-0.7,0.7-1.2,1-1.2c0.2,0,0.5,0.5,0.5,1.4
		c0.2,1.2,0.5,2.4,0.7,3.4c0,0,0.7,1.7,1.9,5C335.5,236.3,336,237.7,336,238.6L336,238.6L336,238.6L336,238.6z"/>
	<path fill="#635E49" d="M284.2,223.3c18.5-6.7,37.7-13.9,57.8-21.4c0.7-0.2,1.2-0.5,1.4-0.2c0,0,0,0.5-0.2,1.2
		c-1,2.2-1.7,3.4-2.2,3.8c-16.8,6.2-36.7,13.9-59.3,23.3C282.3,227.8,283,225.7,284.2,223.3L284.2,223.3L284.2,223.3L284.2,223.3z"
		/>
	<path fill="#635E49" d="M327.8,270.8c-0.2-0.2-0.2-0.5,0-1l4.6-9.6c0.2-0.5,0.7-0.7,1-0.7c0.5,0,2.6,1.2,6.2,3.6
		c3.8,2.6,5.8,4.1,5.8,4.6c0,1.7-1.7,5-5,10.3c-0.5,0.7-0.7,1-1.2,0.7C335.5,275.8,331.7,273.2,327.8,270.8L327.8,270.8L327.8,270.8
		L327.8,270.8z"/>
	<path fill="#635E49" d="M297.1,390.6c-0.2-0.2-0.2-0.5,0-1l4.6-9.6c0.2-0.5,0.7-0.7,1-0.7c0.5,0,2.6,1.2,6.2,3.6
		c3.8,2.6,5.8,4.1,5.8,4.6c0,1.7-1.7,5-5,10.3c-0.5,0.7-0.7,1-1.2,0.7C304.8,395.6,301,393,297.1,390.6L297.1,390.6L297.1,390.6
		L297.1,390.6z"/>
	<path fill="#635E49" d="M258.5,248.3c0-1.2-2.4-3.4-7.4-6.2c-1.7,2.9-2.4,5.5-2.4,7.9c0,1.4,0.7,2.4,2.2,2.4c1.2,0,2.6-0.5,4.3-1.4
		C256.8,250.2,258,249.2,258.5,248.3L258.5,248.3L258.5,248.3L258.5,248.3z M253.2,229c0.7-1.2,1.7-1.7,2.4-1.7c0.5,0,1,0.2,1,0.7
		c0,0-0.2,0.2-0.2,0.5c-1,2.2-1.9,4.6-2.6,7c5,3.6,7.4,7.4,7.2,11c-0.5,4.1-1,6.7-1.7,7.7c-2.4,2.9-5,4.6-8.4,4.6
		c-3.4,0-4.8-2.2-4.8-6c0-0.7,0-1.7,0.2-2.6C247.4,242.5,249.8,235.5,253.2,229L253.2,229L253.2,229L253.2,229z"/>
	<path fill="#635E49" d="M197.8,273.2c-0.5-2.9-1.7-6.2-3.4-10.3c-1.7-4.1-3.1-6.2-3.8-6.2c-0.5,0-0.7,0-1,0.5
		c-0.2,0.2-0.5,0.5-1.2,0.5c-1,0-1.9-0.7-3.4-1.9c-1.4-1.2-1.9-2.2-1.9-2.9c0-0.2,0.5-1.4,1.7-3.4c1-1.9,1.7-2.6,1.9-2.6
		c2.9,0,5.3,1.4,7.4,4.8c2.2,3.1,3.8,7.4,4.6,12.7c0.2,0.5,0.2,0.7,0.2,1h0.2c0-0.2,0.2-0.5,0.2-1c0.5-3.1,1.7-7.9,3.4-14.2
		c1.9-4.3,3.8-6.5,6-6.5c1.2,0,2.4,0.7,3.4,2.2c1,1.4,1.4,2.4,1.4,3.4c0,0.5,0,1.4-0.5,2.4c-0.5,1.4-1,2.2-1.4,2.2
		c-0.2,0-0.7-0.7-1.7-1.7c-0.7-1-1.7-1.4-2.6-1.4c-1.9,0-3.6,4.6-5.3,13.7c-0.7,3.6-1.4,6.5-2.6,8.6c1.7,0,3.6,1.2,6.2,3.1
		c2.4,2.2,3.8,3.8,4.1,5.3c0,0.5-0.2,1.4-1,3.1c-0.7,1.7-1.2,2.4-1.7,2.6c-2.4,0.7-4.8,1.2-7.2,1.9c-2.9,1-5,2.2-6.2,3.4
		c3.4,10.1,5,19.9,5,29.8c0,2.9-0.5,5.8-1,8.9c-0.2,1-0.5,1.4-0.7,1.7c-0.2,0-0.2-1.9-0.2-5.3c0-5.5-1-12.5-2.6-20.4
		c-1.4-7.9-2.4-12.5-2.4-13.7c0-4.1,1.2-7,3.4-8.9c1.2-0.7,3.1-1.7,6.2-2.6c-1.2-1.2-2.4-1.7-3.6-1.7c-0.5,0-1.2,0.7-2.2,1.9
		c-1.2,1.2-1.7,1.9-1.9,1.9c-0.2,0-0.2-0.5,0-1.7C194.2,277.3,195.6,274.2,197.8,273.2L197.8,273.2L197.8,273.2L197.8,273.2z"/>
	<path fill="#635E49" d="M176.6,343c0-0.2,0.2-0.5,0.2-0.5c0.2-0.2,0.2-0.2,0.2,0c0.2,0.2,0.2,0.5,0,0.7c-1.2,7.2-3.4,10.8-6.5,10.8
		c-3.1,0-4.6-2.6-4.6-7.9c0-6.5,1.7-13.4,5.5-20.4c1-1.7,1.4-2.6,1.7-2.6l0,0c0,0.2-0.2,1.2-0.7,2.9c-2.4,7.4-3.6,12.5-3.6,15.6
		c0,3.8,1,6,3.1,6C173.5,347.6,175,345.9,176.6,343L176.6,343L176.6,343L176.6,343z"/>
	<path fill="#635E49" d="M293.8,246.3c0,2.6-1.2,5.5-3.1,8.6c-2.2,3.1-4.8,6-8.2,8.4c-1.4,1-2.2,1.4-2.4,1.4v-0.2
		c0-0.2,0.5-0.7,1.4-1.9c5.5-6,8.4-9.8,8.4-12c0-1.7-1-2.6-2.6-2.6c-1,0-1.9,0.2-2.6,0.7c-0.7,0.2-1,0.5-1.2,0.5c0,0-0.2,0-0.2-0.2
		c0,0,0-0.5,0.2-1.4c1-4.1,2.9-6,6.2-6C292.3,241.5,293.8,243.2,293.8,246.3L293.8,246.3L293.8,246.3L293.8,246.3z"/>
	<path fill="#635E49" d="M343,382.6c2.9,0,5.3,1.4,7.4,4.8c2.2,3.1,3.8,7.4,4.6,12.7c0.2,0.5,0.2,0.7,0.2,1h0.2c0-0.2,0.2-0.5,0.2-1
		c0.5-3.1,1.7-7.9,3.4-14.2c1.9-4.3,3.8-6.5,6-6.5c1.2,0,2.4,0.7,3.4,2.2c1,1.4,1.4,2.4,1.4,3.4c0,0.5,0,1.4-0.5,2.4
		c-0.5,1.4-1,2.2-1.4,2.2c-0.2,0-0.7-0.7-1.7-1.7c-0.7-1-1.7-1.4-2.6-1.4c-1.9,0-3.6,4.6-5.3,13.7c-0.7,4.1-1.7,7-2.4,8.6
		c-0.7,1-1.2,1.7-1.7,1.7c-0.5,0-0.5-0.7-0.7-1.7c0.2-1.7-0.7-4.8-2.6-9.4c-1.9-4.8-3.1-7-4.1-7c-0.5,0-0.7,0-1,0.5
		c-0.2,0.2-0.5,0.5-1.2,0.5c-1,0-1.9-0.7-3.4-1.9c-1.4-1.2-1.9-2.2-1.9-2.9c0-0.2,0.5-1.4,1.7-3.4C342,383.4,342.7,382.6,343,382.6
		L343,382.6L343,382.6L343,382.6z"/>
	<path fill="#635E49" d="M246.5,381.4c2.9,0,5.3,1.4,7.4,4.8c2.2,3.1,3.8,7.4,4.6,12.7c0.2,0.5,0.2,0.7,0.2,1h0.2
		c0-0.2,0.2-0.5,0.2-1c0.5-3.1,1.7-7.9,3.4-14.2c1.9-4.3,3.8-6.5,6-6.5c1.2,0,2.4,0.7,3.4,2.2c1,1.4,1.4,2.4,1.4,3.4
		c0,0.5,0,1.4-0.5,2.4c-0.5,1.4-1,2.2-1.4,2.2c-0.2,0-0.7-0.7-1.7-1.7c-0.7-1-1.7-1.4-2.6-1.4c-1.9,0-3.6,4.6-5.3,13.7
		c-0.7,4.1-1.7,7-2.4,8.6c-0.7,1-1.2,1.7-1.7,1.7c-0.5,0-0.5-0.7-0.7-1.7c0.2-1.7-0.7-4.8-2.6-9.4c-1.9-4.8-3.1-7-4.1-7
		c-0.5,0-0.7,0-1,0.5c-0.2,0.2-0.5,0.5-1.2,0.5c-1,0-1.9-0.7-3.4-1.9c-1.4-1.2-1.9-2.2-1.9-2.9c0-0.2,0.5-1.4,1.7-3.4
		C245.5,382.2,246.3,381.4,246.5,381.4L246.5,381.4L246.5,381.4L246.5,381.4z"/>
	<path fill="#635E49" d="M240.7,301.5c0-0.2,0.2-0.5,0.2-0.5c0.2-0.2,0.2-0.2,0.2,0c0.2,0.2,0.2,0.5,0,0.7
		c-1.2,7.2-3.4,10.8-6.5,10.8c-3.1,0-4.6-2.6-4.6-7.9c0-6.5,1.7-13.4,5.5-20.4c1-1.7,1.4-2.6,1.7-2.6l0,0c0,0.2-0.2,1.2-0.7,2.9
		c-2.4,7.4-3.6,12.5-3.6,15.6c0,3.8,1,6,3.1,6C237.6,306.1,239,304.4,240.7,301.5L240.7,301.5L240.7,301.5L240.7,301.5z"/>
	<path fill="#635E49" d="M215.5,341.8c0,2.6-1.2,5.5-3.1,8.6c-2.2,3.1-4.8,6-8.2,8.4c-1.4,1-2.2,1.4-2.4,1.4v-0.2
		c0-0.2,0.5-0.7,1.4-1.9c5.5-6,8.4-9.8,8.4-12c0-1.7-1-2.6-2.6-2.6c-1,0-1.9,0.2-2.6,0.7c-0.7,0.2-1,0.5-1.2,0.5c0,0-0.2,0-0.2-0.2
		c0,0,0-0.5,0.2-1.4c1-4.1,2.9-6,6.2-6C214.1,337,215.5,338.7,215.5,341.8L215.5,341.8L215.5,341.8L215.5,341.8z"/>
	<path fill="#635E49" d="M572.2,317.8c1.2-1,2.2-1.4,2.9-1.4c0.5,0,0.7,0.5,0.7,1.4c0,0.7-0.2,2.2-0.7,4.1c-0.5,1.9-0.7,3.4-0.7,4.6
		c0,5.3,3.8,8.2,11.3,8.2c6,0,11-2.6,14.9-7.7c2.4-4.1,5-7.9,7.4-11.8c1-1,1.7-1.4,2.4-1.4c1,0,1.2,1,0.7,3.1c-1,4.1-1.7,6-1.7,5.5
		c0,1.7,1,3.4,2.9,4.8c1.7,1.4,4.1,2.4,6.7,2.4c3.4,0,5.5-1,6.5-2.6c0-0.2-1-2.2-3.1-5.8c0.2-1.9,1.2-5.3,2.6-9.8
		c0.2-1.4,0.7-2.2,1.2-2.2c0.5,0,1,0.2,1.7,1.2c1.9,2.9,3.1,6.2,3.1,10.1c0,6-1.4,11-4.1,15.4c-2.9,5.3-7.2,7.9-13,7.9
		c-3.8,0-7.4-3.1-10.6-8.9c-5.3,9.6-12.2,14.4-20.6,14.4c-10.1,0-14.9-5.8-14.9-16.8c-3.8,4.6-10.3,8.6-18.7,12.5v-13.2
		c6.2-3.1,10.3-5,11.5-5.8C564.5,324.1,568.3,321.2,572.2,317.8L572.2,317.8L572.2,317.8L572.2,317.8z"/>
	<path fill="#635E49" d="M535.4,333.7c-3.6-4.6-6.7-6.7-9.6-6.7c-4.3,0-6.2,1-6.2,3.4c0,2.9,2.9,4.3,8.6,4.3
		C530.4,334.6,532.8,334.2,535.4,333.7L535.4,333.7L535.4,333.7L535.4,333.7z M542.9,351.2c0-1.4-0.5-3.1-1-4.8
		c-2.9,1-7.2,1.7-12.5,1.7c-11.5,0-17.3-4.1-17.3-12c0-6,1.7-11.3,5.5-16.1c3.6-4.1,7.4-6.2,11.5-6.2c3.1,0,6.2,1.9,9.8,5.5
		c3.1,3.6,6,7.7,8.4,12.7c0.2,0,0.7,0,1.7-0.5v13.2l-0.5,0.5c0,2.9-0.7,6.2-2.2,10.6c-1.7,5.5-4.3,10.1-7.4,13.7
		c-7.2,8.6-15.1,16.1-23.8,22.6c-13,9.6-24,14.6-33.6,14.6c-8.2,0-14.4-3.1-18.7-9.1c-3.8-5-5.8-11.8-5.8-19.7
		c0-10.1,2.2-20.4,6.2-31.2c1.2-2.4,1.7-3.4,2.2-3.4c0.2,0,0.2,0.2,0.2,0.7c0,0.7-0.2,1.9-0.5,3.4c-3.1,10.6-4.6,18.5-4.6,24
		c0,5,1.2,9.4,3.6,13c3.8,5,9.8,7.7,18.2,7.7c7.2,0,15.8-3.1,26.2-9.4c8.2-5,16.1-11,23.8-18.2C539.3,357.7,542.9,353.4,542.9,351.2
		L542.9,351.2L542.9,351.2L542.9,351.2z"/>
	<path fill="#635E49" d="M477.4,315c-0.5-2.2-1.2-3.8-2.2-5c-0.7-1.4-1.2-2.2-1.4-2.6c0-0.5,0-2.2,0.5-5.5c0.5-3.1,0.7-5.3,1.2-6.5
		c0.2-1.2,0.5-1.7,1-1.7c0.2,0,0.5,0.2,1,0.7c3.4,3.8,7,7.7,11,11.8c1.7,1.7,2.4,2.6,2.4,3.1c0,0.2-0.2,0.5-0.7,0.5
		c-0.7,0-2.6-0.5-5.5-1.2c1.7,4.1,3.6,8.2,5.3,12c2.6,6.7,4.1,12.2,4.1,17.3c0,2.4-0.5,5.3-1.4,8.9c-1.2,4.1-2.6,7.2-4.6,9.4
		c-7,7.9-18.7,16.6-35.3,25.9c-14.4,8.4-22.8,12.5-25.4,12.5c-0.5,0-7.7,1.7-21.4,5c-14.4,3.4-23.5,5.5-27.1,6c-3.8,0.7-6.2,1-7.2,1
		c-0.5,0-0.5,0-0.5-0.2c0-0.2,2.6-1.7,7.9-4.1c1.9-1,13-5.8,33.4-14.4c14.2-6,25.9-11.5,35.3-16.6c14.2-7.7,25-14.4,32.4-19.9
		c5.5-4.3,8.4-7.4,8.4-9.4c0-0.5-1.4-3.8-4.3-10.1C481,324.8,478.6,319,477.4,315L477.4,315L477.4,315L477.4,315z"/>
	<path fill="#635E49" d="M457.7,281.6c0,3.8-1.9,9.1-5.8,15.6c-2.4,4.1-6,9.6-10.8,16.8c4.8,5.5,8.2,10.6,9.8,14.9
		c1,3.1,1.7,7.2,1.7,11.8c0,1.9-0.5,4.3-1.4,7.4c-0.7,2.9-1.7,5-2.6,6.5c-1.9,2.9-5,5.8-9.8,8.6c-5,3.4-9.4,5-13,5
		c-5.8,0-8.6-4.3-8.6-13c0-5.8,1-11.5,2.9-16.8c1.9-4.6,5-10.6,10.1-18.5c-4.3-4.1-8.9-9.8-13.9-17c-0.5-0.7-1.7-1.9-3.6-3.8
		c-1-1-1.4-2.2-1.4-3.6c0-2.2,0.2-4.6,0.7-7.4c0.7-2.9,1.2-4.1,1.4-4.1c0.7,0,2.9,1.2,7,3.8c3.8,2.6,7,4.6,8.9,6.2
		c1.2,0.7,1.7,1.4,1.7,1.4v0.2c0,0.2-0.7,0.5-2.4,0.5c-3.1,0-4.8,0.2-4.8,0.5c0,0.2,0.5,0.7,1.4,1.9c3.8,4.8,7.7,8.4,11.8,11.3
		c1-1.4,4.3-6.2,9.6-14.4c4.6-7,7.2-11.8,8.4-14.6c1.2-2.9,1.9-4.1,2.4-4.1C457.4,276.8,457.7,278.3,457.7,281.6L457.7,281.6
		L457.7,281.6L457.7,281.6z M448.3,340.6c-2.6-5.3-7.2-10.8-13.4-16.1c-2.2,2.2-4.8,6.2-8.2,12c-3.8,6.5-5.5,10.6-5.5,12.7
		c0,2.9,1.9,4.3,6.2,4.3c1.9,0,4.3-0.7,7.4-1.9c4.3-1.9,8.4-4.6,11.8-7.9C448.1,342.3,448.6,341.4,448.3,340.6L448.3,340.6
		L448.3,340.6L448.3,340.6z"/>
	<path fill="#635E49" d="M434.9,263.6l3.8-7.9c0.2-0.5,0.5-0.7,1-0.7c0.5,0,2.4,1.2,6.2,3.8c3.6,2.4,5.5,3.8,5.5,4.3
		c0,1.7-1.7,5.3-4.8,10.6c-0.5,0.7-1,0.7-1.4,0.5c-3.1-2.4-6.7-4.8-10.8-7.4c-1.4,2.9-2.6,5.5-4.1,7.7c-0.2,0.7-0.7,1-1.2,0.7
		c-3.6-2.9-7.4-5.5-11.3-7.9c-0.2-0.2-0.2-0.5,0-1l4.6-9.6c0.2-0.5,0.7-1,1-1c0.5,0,2.2,1.2,5.3,3.4
		C431.8,261,433.9,262.6,434.9,263.6L434.9,263.6L434.9,263.6L434.9,263.6z"/>
	<path fill="#635E49" d="M561.4,397.5c-2.6,0.7-4.1,1.2-4.6,1.2v-0.2c0,0,1-0.7,2.9-1.9c1.9-1.2,4.8-3.1,8.9-6.2
		c1.9-1.9,4.8-5,8.4-9.4c2.4-2.9,5-5.5,7.9-7.4c3.6-2.6,7-3.8,10.6-3.8c0.7,0,1.9,0.2,3.4,0.7c1.2,0.5,2.4,0.7,3.4,0.7
		c1.9,0,3.4-0.7,4.6-2.2c0.7-1.4,1.7-2.6,2.6-4.1c0.5-1,1.2-1.4,1.7-1.4c0.2,0,0.2,0.2,0.2,0.7c0,0.5-0.2,1.7-0.7,3.1
		c-0.5,0.7,1.4,1,5,1c0.5,0,0.7,0,0.7-0.2c0,0-0.2-1-0.7-2.6c-0.2-0.5,0-1.2,0.7-2.2c1-1.7,1.4-2.4,1.7-2.2c1,0.7,1.4,2.2,1.4,3.8
		c0,1.7-0.5,3.4-1.2,5.3c-0.7,2.2-1.4,3.4-1.9,3.8c-1.7,1-4.3,0.7-7.9-1c-2.9,2.9-5.8,4.6-8.6,4.6c-0.7,0-1.9-0.2-3.1-0.7
		c-1.2-0.5-2.2-0.7-2.9-0.7c-4.8,0-9.8,2.2-14.9,7c-3.6,3.6-7.2,7.2-10.8,10.8C565.9,395.6,563.8,396.8,561.4,397.5L561.4,397.5
		L561.4,397.5L561.4,397.5z"/>
	<path fill="#635E49" d="M509.8,267.7c2.9,0,5.3,1.4,7.4,4.8c2.2,3.1,3.8,7.4,4.6,12.7c0.2,0.5,0.2,0.7,0.2,1h0.2
		c0-0.2,0.2-0.5,0.2-1c0.5-3.1,1.7-7.9,3.4-14.2c1.9-4.3,3.8-6.5,6-6.5c1.2,0,2.4,0.7,3.4,2.2c1,1.4,1.4,2.4,1.4,3.4
		c0,0.5,0,1.4-0.5,2.4c-0.5,1.4-1,2.2-1.4,2.2c-0.2,0-0.7-0.7-1.7-1.7c-0.7-1-1.7-1.4-2.6-1.4c-1.9,0-3.6,4.6-5.3,13.7
		c-0.7,4.1-1.7,7-2.4,8.6c-0.7,1-1.2,1.7-1.7,1.7c-0.5,0-0.5-0.7-0.7-1.7c0.2-1.7-0.7-4.8-2.6-9.4c-1.9-4.8-3.1-7-4.1-7
		c-0.5,0-0.7,0-1,0.5c-0.2,0.2-0.5,0.5-1.2,0.5c-1,0-1.9-0.7-3.4-1.9c-1.4-1.2-1.9-2.2-1.9-2.9c0-0.2,0.5-1.4,1.7-3.4
		C508.8,268.4,509.5,267.7,509.8,267.7L509.8,267.7L509.8,267.7L509.8,267.7z"/>
	<path fill="#635E49" d="M469.2,264.8c24.2-9.1,49.4-18.2,75.4-27.8c0.7-0.2,1.2-0.5,1.2-0.2c0.2,0,0.2,0.5,0,1.2
		c-1,2.2-1.7,3.4-2.2,3.8c-0.2,0.2-12.5,4.8-36.2,13.7c-24.2,8.9-37.9,14.4-40.6,16.1C467.3,269.4,468,267.2,469.2,264.8
		L469.2,264.8L469.2,264.8L469.2,264.8z"/>
	<path fill="#635E49" d="M445.7,220.9c0.5-1.4,0.5-2.9,0.2-4.3c-0.2-1.4-1-2.2-2.2-2.2c-0.5,0-1.2,0.2-2.2,0.7c-1,0.5-1.4,1-1.4,1.4
		C440.2,217.8,442.1,219.2,445.7,220.9L445.7,220.9L445.7,220.9L445.7,220.9z M442.8,227.1c-4.6-2.4-6.7-4.8-6.7-7.4
		c0-3.1,1.4-6,4.3-8.4c2.9-2.6,5.3-3.6,7.2-2.9c1.7,0.5,2.4,2.2,2.4,5c0,2.6-0.5,5.5-1.7,8.9c2.4,1.2,3.8,2.4,4.3,3.4
		c0,1.2-1,3.4-3.1,6.2c-0.5-1-1.9-2.2-4.1-3.4c-2.6,3.6-5.8,6.7-9.6,9.6c-4.6,3.1-8.6,5.8-12.2,7.2c-1,0.5-5.3,2.2-13,5
		c-1.2,0.5-2.2,0.7-2.4,0.7c-0.2,0-0.2-0.2-0.2-0.2c0-0.2,0.5-1,1.9-1.7c5.8-3.6,11.5-7,17.5-10.3
		C434.4,234.6,439.4,230.7,442.8,227.1L442.8,227.1L442.8,227.1L442.8,227.1z"/>
	<path fill="#635E49" d="M594.5,257.1c0.5-1.4,0.5-2.9,0.2-4.3c-0.2-1.4-1-2.2-2.2-2.2c-0.5,0-1.2,0.2-2.2,0.7c-1,0.5-1.4,1-1.4,1.4
		C589,254,590.9,255.4,594.5,257.1L594.5,257.1L594.5,257.1L594.5,257.1z M599.8,266c-2.4,5.8-3.6,10.3-3.6,13.7
		c0,4.1,1,6.2,3.1,6.2c1.2,0,2.6-1.7,4.3-4.6c0.2-0.2,0.2-0.5,0.5-0.7c0,0,0.2,0,0.2,0.2c0,0,0,0.2,0,0.7
		c-1.4,7.2-3.6,10.8-6.5,10.8c-3.1,0-4.6-2.6-4.6-7.9c0-2.6,0.5-6,1.9-10.3c1.4-4.3,2.2-6.5,2.2-6.7c0-0.5-1-1.4-3.1-2.6
		c-3.8,5-9.1,9.8-15.8,13.9c-4.6,2.6-9.1,5-13.9,7c-8.9,3.6-14.2,5.5-15.4,6.2c-1.2,0.5-1.9,0.7-2.4,0.7c-0.2,0-0.2-0.2-0.2-0.2
		c0-0.5,0.5-1,1.9-1.9c7.7-4.3,15.1-8.6,22.8-13c10.1-5.8,17-10.6,20.4-14.2c-4.6-2.4-6.7-4.8-6.7-7.4c0-3.1,1.4-6,4.3-8.6
		c2.9-2.4,5.3-3.4,7.2-2.6c1.4,0.5,2.4,2.2,2.4,5c0,2.6-0.5,5.5-1.7,8.6c2.4,1.4,3.4,2.9,3.4,4.3C600.5,263.4,600.3,264.6,599.8,266
		L599.8,266L599.8,266L599.8,266z"/>
	<path fill="#635E49" d="M490.6,231c0-0.2,0.2-0.5,0.2-0.5c0.2-0.2,0.2-0.2,0.2,0c0.2,0.2,0.2,0.5,0,0.7c-1.2,7.2-3.4,10.8-6.5,10.8
		c-3.1,0-4.6-2.6-4.6-7.9c0-6.5,1.7-13.4,5.5-20.4c1-1.7,1.4-2.6,1.7-2.6l0,0c0,0.2-0.2,1.2-0.7,2.9c-2.4,7.4-3.6,12.5-3.6,15.6
		c0,3.8,1,6,3.1,6C487.4,235.5,488.9,233.8,490.6,231L490.6,231L490.6,231L490.6,231z"/>
</g>
</svg>
