<?xml version="1.0" encoding="utf-8"?>
<!-- Generator: Adobe Illustrator 18.1.1, SVG Export Plug-In . SVG Version: 6.00 Build 0)  -->
<!DOCTYPE svg PUBLIC "-//W3C//DTD SVG 1.1//EN" "http://www.w3.org/Graphics/SVG/1.1/DTD/svg11.dtd">
<svg version="1.1" id="Layer_1" xmlns="http://www.w3.org/2000/svg" xmlns:xlink="http://www.w3.org/1999/xlink" x="0px" y="0px"
	 viewBox="0 0 792 612" enable-background="new 0 0 792 612" xml:space="preserve">
<g>
	<path fill="#635E49" d="M379.8,227.6c0-4.8-0.7-8.6-2.2-11.8c0-1.7,1.2-5.8,4.1-12c0.2-0.7,0.5-1.2,0.7-1.2c0.5,0,0.7,0.5,1.2,1.2
		c0.7,1.7,2.4,6.2,5.3,13.7c3.1,7.9,4.8,12.7,5.3,14.6c0.5,1.2,0.5,2.4,0.5,2.9c0,2.2-1.9,1-6.2-3.8c-0.5-0.7-0.7-0.2-0.7,1
		c0,0.5,1.2,15.4,3.4,45.1c2.2,29.5,3.1,46.1,3.1,49.9c0,11.3-1.7,21.4-5,30c-1,1.7-1.4,2.9-1.9,3.8l0,0c-0.7,1.2-1,1.2-1.2,0.5
		c-0.2-1,0-2.9,0.2-5.5c0.5-4.1,0.7-8.6,0.7-13.7c0-4.8-1.2-24-3.6-57.8C381,250.7,379.8,231.7,379.8,227.6L379.8,227.6L379.8,227.6
		L379.8,227.6z"/>
	<path fill="#635E49" d="M370.7,293.6c0,14.2-2.6,25.2-7.7,33.4c-4.3,6.7-9.4,10.3-15.1,10.3v-14.6c4.6,0,9.1-1.9,13.4-5.5
		c1.2-1,1.9-5,1.9-11.8c0-4.3-1-18-2.6-40.8c-1.7-23-2.4-36.7-2.4-40.8c0-4.6-1-8.4-2.4-11.5c0-1.7,1.4-5.8,4.3-12.2
		c0.2-0.7,0.5-1,0.7-1c0.5,0,0.7,0.2,1.2,1c0.7,1.9,2.6,6.5,5.3,13.9c3.1,7.7,4.8,12.5,5.5,14.4c0.2,1.4,0.5,2.4,0.5,3.1
		c0,2.2-2.2,0.7-6.2-4.1c-0.5-0.5-0.7-0.2-0.7,1c0,0.2,0.7,10.1,2.2,29.3C370,276.6,370.7,288.6,370.7,293.6L370.7,293.6
		L370.7,293.6L370.7,293.6z"/>
	<path fill="#635E49" d="M347.6,337.1c-12.5,0-21.6-1.7-27.1-5c-7,5-13.2,7.7-18.5,7.7v-14.6c3.6,0,7-1,10.3-2.4
		c-1.7-2.9-2.4-6.7-2.4-11.5c0-6.7,2.6-13.7,7.7-20.4c4.8-6.2,8.6-9.6,12-9.6c3.1,0,5.8,2.4,7.4,7c1.2,3.6,1.9,7.4,1.9,11.3
		c0,9.4-2.2,16.8-6.2,22.1c2.6,0.7,7.7,1,14.9,1V337.1L347.6,337.1L347.6,337.1z M333.5,309c0-1.9-0.7-4.8-2.2-8.2
		c-1.7-3.8-3.1-5.8-4.3-5.8c-1.4,0-3.8,1.7-7,5c-3.1,3.4-5,6.2-6.2,8.9c0.5,1.4,1.7,3.1,3.4,4.8c1.7,1.9,3.6,3.1,5.5,3.8
		C328,315,331.6,312.1,333.5,309L333.5,309L333.5,309L333.5,309z"/>
	<path fill="#635E49" d="M302.3,339.5c0.7,2.2,1.2,5,1.2,8.2c0,3.8-0.7,7.2-1.9,10.1c-0.7,1.4-1.2,2.4-1.9,2.4c-1,0-2.2-0.7-4.1-1.7
		c-5.8-3.4-9.8-7.4-12-12.2c-1.2-2.6-2.2-7.2-2.6-13c-0.2-1-0.2-1.7-0.5-1.7c-0.5,0-1,0.7-1.4,1.7c-2.4,2.6-4.8,5.5-7.2,8.6
		c-4.3,3.8-9.1,6-14.6,6V333c7,0,12.5-1.7,17-5c1-0.7,3.4-3.4,7-7.4c1.4-1.9,2.6-2.6,3.6-2.6c0.5,0,1.2,0.2,2.2,1
		c2.9,2.4,4.8,3.8,5.8,4.3c2.4,1.2,5.5,1.7,9.6,1.7V339.5L302.3,339.5L302.3,339.5z M298.4,346.9c0-2.2-1-4.3-3.1-6.7
		c-2.2-2.4-4.6-3.8-6.7-4.6c0,2.4,1.2,4.8,3.6,7.2C294.4,345.5,296.5,346.9,298.4,346.9L298.4,346.9L298.4,346.9L298.4,346.9z"/>
	<path fill="#635E49" d="M166.9,386c0-10.3,2.2-20.6,6.2-31.4c1-2.2,1.7-3.4,2.2-3.4c0.2,0,0.2,0.2,0.2,0.7c0,0.7-0.2,1.9-0.7,3.4
		c-2.9,10.6-4.3,18.5-4.3,24c0,4.8,1.4,9.4,4.6,13.4c3.6,5.3,8.4,7.7,13.9,7.7c6.7,0,15.1-2.6,25-7.9c7.9-4.3,15.6-9.6,23.5-15.8
		c6.7-5.8,10.8-9.6,11.8-11.8c0-8.2-2.4-16.8-7-25.9c-1-1.7-1.4-3.1-1.4-4.1c0-0.7,1-4.3,2.9-10.3c0.2-1.2,0.7-1.9,1.2-1.9
		c0.5,0,1,1,1.7,2.4c1.4,3.1,2.4,4.8,3.1,5.3c1.4,1.9,4.1,2.6,7.4,2.6v14.6c-1.7,0-2.9,0-3.6-0.5c0,17.8-2.6,29.8-7.9,35.8
		c-5.3,6.5-13.2,13-23.3,19.4c-12.7,8.2-23.8,12.2-32.9,12.2c-8.4,0-14.6-3.6-18.5-11C168.1,398.5,166.9,392.5,166.9,386L166.9,386
		L166.9,386L166.9,386z"/>
	<path fill="#635E49" d="M323.4,264.1l3.8-7.9c0.2-0.5,0.5-0.7,1-0.7c0.5,0,2.4,1.2,6.2,3.8c3.6,2.4,5.5,3.8,5.5,4.3
		c0,1.7-1.7,5.3-4.8,10.6c-0.5,0.7-1,0.7-1.4,0.5c-3.1-2.4-6.7-4.8-10.8-7.4c-1.4,2.9-2.6,5.5-4.1,7.7c-0.2,0.7-0.7,1-1.2,0.7
		c-3.6-2.9-7.4-5.5-11.3-7.9c-0.2-0.2-0.2-0.5,0-1l4.6-9.6c0.2-0.5,0.7-1,1-1c0.5,0,2.2,1.2,5.3,3.4
		C320.3,261.5,322.4,263.2,323.4,264.1L323.4,264.1L323.4,264.1L323.4,264.1z"/>
	<path fill="#635E49" d="M236.8,404c9.6-3.4,19.9-7.2,31-11c1-0.2,1.2-0.5,1.4-0.2c0.2,0,0.2,0.5-0.2,1.2c-0.7,2.2-1.4,3.4-1.9,3.8
		c-9.6,3.4-20.4,7.4-32.6,13C234.8,408.6,235.6,406.4,236.8,404L236.8,404L236.8,404L236.8,404z"/>
	<path fill="#635E49" d="M172.7,308c40.6-15.4,81.8-30.7,124.1-46.6c0.7-0.2,1.2-0.5,1.2-0.2c0.2,0,0.2,0.5,0,1.2
		c-1,2.2-1.7,3.4-2.2,3.8c-38.6,14.4-80.6,30.5-125.5,48.5C170.8,312.6,171.5,310.4,172.7,308L172.7,308L172.7,308L172.7,308z"/>
	<path fill="#635E49" d="M341.2,224.5c0-1.2-2.4-3.4-7.4-6.2c-1.7,2.9-2.4,5.5-2.4,7.9c0,1.4,0.7,2.4,2.2,2.4c1.2,0,2.6-0.5,4.3-1.4
		C339.5,226.4,340.7,225.5,341.2,224.5L341.2,224.5L341.2,224.5L341.2,224.5z M335.9,205.3c0.7-1.2,1.7-1.7,2.4-1.7
		c0.5,0,1,0.2,1,0.7c0,0-0.2,0.2-0.2,0.5c-1,2.2-1.9,4.6-2.6,7c5,3.6,7.4,7.4,7.2,11c-0.5,4.1-1,6.7-1.7,7.7c-2.4,2.9-5,4.6-8.4,4.6
		c-3.4,0-4.8-2.2-4.8-6c0-0.7,0-1.7,0.2-2.6C330.1,218.8,332.5,211.8,335.9,205.3L335.9,205.3L335.9,205.3L335.9,205.3z"/>
	<path fill="#635E49" d="M372.8,362.8c0-0.2,0.2-0.5,0.2-0.5c0.2-0.2,0.2-0.2,0.2,0c0.2,0.2,0.2,0.5,0,0.7
		c-1.2,7.2-3.4,10.8-6.5,10.8c-3.1,0-4.6-2.6-4.6-7.9c0-6.5,1.7-13.4,5.5-20.4c1-1.7,1.4-2.6,1.7-2.6l0,0c0,0.2-0.2,1.2-0.7,2.9
		c-2.4,7.4-3.6,12.5-3.6,15.6c0,3.8,1,6,3.1,6C369.7,367.3,371.2,365.6,372.8,362.8L372.8,362.8L372.8,362.8L372.8,362.8z"/>
	<path fill="#635E49" d="M286.9,229.6c0-0.2,0.2-0.5,0.2-0.5c0.2-0.2,0.2-0.2,0.2,0c0.2,0.2,0.2,0.5,0,0.7
		c-1.2,7.2-3.4,10.8-6.5,10.8c-3.1,0-4.6-2.6-4.6-7.9c0-6.5,1.7-13.4,5.5-20.4c1-1.7,1.4-2.6,1.7-2.6l0,0c0,0.2-0.2,1.2-0.7,2.9
		c-2.4,7.4-3.6,12.5-3.6,15.6c0,3.8,1,6,3.1,6C283.8,234.1,285.2,232.4,286.9,229.6L286.9,229.6L286.9,229.6L286.9,229.6z"/>
	<path fill="#635E49" d="M194,279.5c40.6-15.4,81.8-30.7,124.1-46.6c0.7-0.2,1.2-0.5,1.2-0.2c0.2,0,0.2,0.5,0,1.2
		c-1,2.2-1.7,3.4-2.2,3.8c-38.6,14.4-80.6,30.5-125.5,48.5C192.1,284,192.8,281.9,194,279.5L194,279.5L194,279.5L194,279.5z"/>
	<path fill="#635E49" d="M181.3,342.8c0-0.2,0.2-0.5,0.2-0.5c0.2-0.2,0.2-0.2,0.2,0c0.2,0.2,0.2,0.5,0,0.7
		c-1.2,7.2-3.4,10.8-6.5,10.8c-3.1,0-4.6-2.6-4.6-7.9c0-6.5,1.7-13.4,5.5-20.4c1-1.7,1.4-2.6,1.7-2.6l0,0c0,0.2-0.2,1.2-0.7,2.9
		c-2.4,7.4-3.6,12.5-3.6,15.6c0,3.8,1,6,3.1,6C178.2,347.4,179.6,345.7,181.3,342.8L181.3,342.8L181.3,342.8L181.3,342.8z"/>
	<path fill="#635E49" d="M233.4,324.4c0,0.5-0.2,1.4-0.7,2.4c-0.2,1.4-0.7,2.2-1.4,2.2c-0.2,0-0.7-0.7-1.7-1.7
		c-0.7-1-1.7-1.4-2.4-1.4c-1.9,0-3.8,4.6-5.5,13.7c-0.7,4.1-1.4,7-2.4,8.6c-0.7,1-1.2,1.7-1.7,1.7c-0.2,0-0.5-0.7-0.5-1.7
		c0-1.7-1-4.8-2.9-9.4c-1.9-4.8-3.1-7-3.8-7c-0.7,0-1,0-1.2,0.5c0,0.2-0.5,0.5-1.2,0.5c-1,0-1.9-0.7-3.4-1.9
		c-1.2-1.2-1.9-2.2-1.9-2.9c0-0.2,0.5-1.4,1.7-3.4c1.2-1.9,1.9-2.6,2.2-2.6c2.6,0,5,1.4,7.2,4.8c2.4,3.4,3.8,7.4,4.8,12.7
		c0,0.5,0,0.7,0,1c0.2,0.2,0.2,0.2,0.2,0c0-0.2,0.2-0.5,0.5-1c0.2-3.1,1.4-7.9,3.1-14.2c1.9-4.3,3.8-6.5,6-6.5
		c1.2,0,2.4,0.7,3.6,2.2C232.9,322.4,233.4,323.4,233.4,324.4L233.4,324.4L233.4,324.4L233.4,324.4z M217.6,352
		c-1.7,3.8-5,7.7-10.1,11.3c-4.6,3.4-8.6,5.8-12.2,7.4c-0.7,0.5-5,2.2-13,5c-1.2,0.5-1.9,0.7-2.4,0.7c-0.2,0-0.2-0.2-0.2-0.2
		c0-0.2,0.7-1,1.9-1.7c6.5-3.8,15.6-9.4,27.6-17.3c2.9-2.2,5-4.3,6.7-6.2c1.9-2.2,2.9-3.4,3.1-3.4c0,0,0,0,0,0.2
		S218.5,349.6,217.6,352L217.6,352L217.6,352L217.6,352z"/>
	<path fill="#635E49" d="M358,387.5c0,2.6-1.2,5.5-3.1,8.6c-2.2,3.1-4.8,6-8.2,8.4c-1.4,1-2.2,1.4-2.4,1.4v-0.2
		c0-0.2,0.5-0.7,1.4-1.9c5.5-6,8.4-9.8,8.4-12c0-1.7-1-2.6-2.6-2.6c-1,0-1.9,0.2-2.6,0.7c-0.7,0.2-1,0.5-1.2,0.5c0,0-0.2,0-0.2-0.2
		c0,0,0-0.5,0.2-1.4c1-4.1,2.9-6,6.2-6C356.5,382.7,358,384.4,358,387.5L358,387.5L358,387.5L358,387.5z"/>
	<path fill="#635E49" d="M326.5,349.8c1.7,0,3.6,1,6.2,3.1c2.6,1.9,4.1,3.8,4.3,5.3c0.2,0.5-0.2,1.4-1,3.1c-0.7,1.7-1.2,2.4-1.4,2.4
		c-2.4,0.7-4.8,1.4-7.2,2.2c-3.1,1-5,2.2-6.2,3.4c3.4,10.1,5,19.9,5,29.8c0,2.9-0.5,5.8-1,8.9c-0.2,1-0.5,1.4-0.7,1.7
		c-0.2,0-0.2-1.9-0.2-5.3c0-5.5-1-12.5-2.6-20.4c-1.7-7.9-2.4-12.7-2.4-13.7c0-4.1,1-7,3.4-8.9c1-0.7,3.1-1.7,6-2.6
		c-1.2-1.2-2.4-1.7-3.6-1.7c-0.5,0-1.2,0.5-2.2,1.7c-1,1.4-1.7,1.9-1.7,1.9c-0.2,0-0.5-0.5-0.2-1.4
		C321.7,352.9,323.6,349.8,326.5,349.8L326.5,349.8L326.5,349.8L326.5,349.8z"/>
	<path fill="#635E49" d="M296.5,396.1c0-0.2,0.2-0.5,0.2-0.5c0.2-0.2,0.2-0.2,0.2,0c0.2,0.2,0.2,0.5,0,0.7
		c-1.2,7.2-3.4,10.8-6.5,10.8c-3.1,0-4.6-2.6-4.6-7.9c0-6.5,1.7-13.4,5.5-20.4c1-1.7,1.4-2.6,1.7-2.6l0,0c0,0.2-0.2,1.2-0.7,2.9
		c-2.4,7.4-3.6,12.5-3.6,15.6c0,3.8,1,6,3.1,6C293.4,400.7,294.8,399,296.5,396.1L296.5,396.1L296.5,396.1L296.5,396.1z"/>
	<path fill="#635E49" d="M281.9,292.4c0,2.6-1.2,5.5-3.1,8.6c-2.2,3.1-4.8,6-8.2,8.4c-1.4,1-2.2,1.4-2.4,1.4v-0.2
		c0-0.2,0.5-0.7,1.4-1.9c5.5-6,8.4-9.8,8.4-12c0-1.7-1-2.6-2.6-2.6c-1,0-1.9,0.2-2.6,0.7c-0.7,0.2-1,0.5-1.2,0.5c0,0-0.2,0-0.2-0.2
		c0,0,0-0.5,0.2-1.4c1-4.1,2.9-6,6.2-6C280.4,287.6,281.9,289.3,281.9,292.4L281.9,292.4L281.9,292.4L281.9,292.4z"/>
	<path fill="#635E49" d="M246.1,235.1c0,2.6-1.2,5.5-3.1,8.6c-2.2,3.1-4.8,6-8.2,8.4c-1.4,1-2.2,1.4-2.4,1.4v-0.2
		c0-0.2,0.5-0.7,1.4-1.9c5.5-6,8.4-9.8,8.4-12c0-1.7-1-2.6-2.6-2.6c-1,0-1.9,0.2-2.6,0.7c-0.7,0.2-1,0.5-1.2,0.5c0,0-0.2,0-0.2-0.2
		c0,0,0-0.5,0.2-1.4c1-4.1,2.9-6,6.2-6C244.7,230.3,246.1,232,246.1,235.1L246.1,235.1L246.1,235.1L246.1,235.1z"/>
	<path fill="#635E49" d="M565.8,319.8c1.2-1,2.2-1.4,2.9-1.4c0.5,0,0.7,0.5,0.7,1.4c0,0.7-0.2,2.2-0.7,4.1c-0.5,1.9-0.7,3.4-0.7,4.6
		c0,5.3,3.8,8.2,11.3,8.2c6,0,11-2.6,14.9-7.7c2.4-4.1,5-7.9,7.4-11.8c1-1,1.7-1.4,2.4-1.4c1,0,1.2,1,0.7,3.1c-1,4.1-1.7,6-1.7,5.5
		c0,1.7,1,3.4,2.9,4.8c1.7,1.4,4.1,2.4,6.7,2.4c3.4,0,5.5-1,6.5-2.6c0-0.2-1-2.2-3.1-5.8c0.2-1.9,1.2-5.3,2.6-9.8
		c0.2-1.4,0.7-2.2,1.2-2.2c0.5,0,1,0.2,1.7,1.2c1.9,2.9,3.1,6.2,3.1,10.1c0,6-1.4,11-4.1,15.4c-2.9,5.3-7.2,7.9-13,7.9
		c-3.8,0-7.4-3.1-10.6-8.9c-5.3,9.6-12.2,14.4-20.6,14.4c-10.1,0-14.9-5.8-14.9-16.8c-3.8,4.6-10.3,8.6-18.7,12.5v-13.2
		c6.2-3.1,10.3-5,11.5-5.8C558.1,326,562,323.2,565.8,319.8L565.8,319.8L565.8,319.8L565.8,319.8z"/>
	<path fill="#635E49" d="M529.1,335.6c-3.6-4.6-6.7-6.7-9.6-6.7c-4.3,0-6.2,1-6.2,3.4c0,2.9,2.9,4.3,8.6,4.3
		C524,336.6,526.4,336.1,529.1,335.6L529.1,335.6L529.1,335.6L529.1,335.6z M536.5,353.2c0-1.4-0.5-3.1-1-4.8
		c-2.9,1-7.2,1.7-12.5,1.7c-11.5,0-17.3-4.1-17.3-12c0-6,1.7-11.3,5.5-16.1c3.6-4.1,7.4-6.2,11.5-6.2c3.1,0,6.2,1.9,9.8,5.5
		c3.1,3.6,6,7.7,8.4,12.7c0.2,0,0.7,0,1.7-0.5v13.2l-0.5,0.5c0,2.9-0.7,6.2-2.2,10.6c-1.7,5.5-4.3,10.1-7.4,13.7
		c-7.2,8.6-15.1,16.1-23.8,22.6c-13,9.6-24,14.6-33.6,14.6c-8.2,0-14.4-3.1-18.7-9.1c-3.8-5-5.8-11.8-5.8-19.7
		c0-10.1,2.2-20.4,6.2-31.2c1.2-2.4,1.7-3.4,2.2-3.4c0.2,0,0.2,0.2,0.2,0.7c0,0.7-0.2,1.9-0.5,3.4c-3.1,10.6-4.6,18.5-4.6,24
		c0,5,1.2,9.4,3.6,13c3.8,5,9.8,7.7,18.2,7.7c7.2,0,15.8-3.1,26.2-9.4c8.2-5,16.1-11,23.8-18.2C532.9,359.6,536.5,355.3,536.5,353.2
		L536.5,353.2L536.5,353.2L536.5,353.2z"/>
	<path fill="#635E49" d="M471,316.9c-0.5-2.2-1.2-3.8-2.2-5c-0.7-1.4-1.2-2.2-1.4-2.6c0-0.5,0-2.2,0.5-5.5c0.5-3.1,0.7-5.3,1.2-6.5
		c0.2-1.2,0.5-1.7,1-1.7c0.2,0,0.5,0.2,1,0.7c3.4,3.8,7,7.7,11,11.8c1.7,1.7,2.4,2.6,2.4,3.1c0,0.2-0.2,0.5-0.7,0.5
		c-0.7,0-2.6-0.5-5.5-1.2c1.7,4.1,3.6,8.2,5.3,12c2.6,6.7,4.1,12.2,4.1,17.3c0,2.4-0.5,5.3-1.4,8.9c-1.2,4.1-2.6,7.2-4.6,9.4
		c-7,7.9-18.7,16.6-35.3,25.9c-14.4,8.4-22.8,12.5-25.4,12.5c-0.5,0-7.7,1.7-21.4,5c-14.4,3.4-23.5,5.5-27.1,6c-3.8,0.7-6.2,1-7.2,1
		c-0.5,0-0.5,0-0.5-0.2c0-0.2,2.6-1.7,7.9-4.1c1.9-1,13-5.8,33.4-14.4c14.2-6,25.9-11.5,35.3-16.6c14.2-7.7,25-14.4,32.4-19.9
		c5.5-4.3,8.4-7.4,8.4-9.4c0-0.5-1.4-3.8-4.3-10.1C474.6,326.8,472.2,321,471,316.9L471,316.9L471,316.9L471,316.9z"/>
	<path fill="#635E49" d="M451.3,283.6c0,3.8-1.9,9.1-5.8,15.6c-2.4,4.1-6,9.6-10.8,16.8c4.8,5.5,8.2,10.6,9.8,14.9
		c1,3.1,1.7,7.2,1.7,11.8c0,1.9-0.5,4.3-1.4,7.4c-0.7,2.9-1.7,5-2.6,6.5c-1.9,2.9-5,5.8-9.8,8.6c-5,3.4-9.4,5-13,5
		c-5.8,0-8.6-4.3-8.6-13c0-5.8,1-11.5,2.9-16.8c1.9-4.6,5-10.6,10.1-18.5c-4.3-4.1-8.9-9.8-13.9-17c-0.5-0.7-1.7-1.9-3.6-3.8
		c-1-1-1.4-2.2-1.4-3.6c0-2.2,0.2-4.6,0.7-7.4c0.7-2.9,1.2-4.1,1.4-4.1c0.7,0,2.9,1.2,7,3.8c3.8,2.6,7,4.6,8.9,6.2
		c1.2,0.7,1.7,1.4,1.7,1.4v0.2c0,0.2-0.7,0.5-2.4,0.5c-3.1,0-4.8,0.2-4.8,0.5c0,0.2,0.5,0.7,1.4,1.9c3.8,4.8,7.7,8.4,11.8,11.3
		c1-1.4,4.3-6.2,9.6-14.4c4.6-7,7.2-11.8,8.4-14.6c1.2-2.9,1.9-4.1,2.4-4.1C451.1,278.8,451.3,280.2,451.3,283.6L451.3,283.6
		L451.3,283.6L451.3,283.6z M442,342.6c-2.6-5.3-7.2-10.8-13.4-16.1c-2.2,2.2-4.8,6.2-8.2,12c-3.8,6.5-5.5,10.6-5.5,12.7
		c0,2.9,1.9,4.3,6.2,4.3c1.9,0,4.3-0.7,7.4-1.9c4.3-1.9,8.4-4.6,11.8-7.9C441.7,344.3,442.2,343.3,442,342.6L442,342.6L442,342.6
		L442,342.6z"/>
	<path fill="#635E49" d="M428.5,265.6l3.8-7.9c0.2-0.5,0.5-0.7,1-0.7c0.5,0,2.4,1.2,6.2,3.8c3.6,2.4,5.5,3.8,5.5,4.3
		c0,1.7-1.7,5.3-4.8,10.6c-0.5,0.7-1,0.7-1.4,0.5c-3.1-2.4-6.7-4.8-10.8-7.4c-1.4,2.9-2.6,5.5-4.1,7.7c-0.2,0.7-0.7,1-1.2,0.7
		c-3.6-2.9-7.4-5.5-11.3-7.9c-0.2-0.2-0.2-0.5,0-1l4.6-9.6c0.2-0.5,0.7-1,1-1c0.5,0,2.2,1.2,5.3,3.4
		C425.4,262.9,427.6,264.6,428.5,265.6L428.5,265.6L428.5,265.6L428.5,265.6z"/>
	<path fill="#635E49" d="M555,399.5c-2.6,0.7-4.1,1.2-4.6,1.2v-0.2c0,0,1-0.7,2.9-1.9c1.9-1.2,4.8-3.1,8.9-6.2
		c1.9-1.9,4.8-5,8.4-9.4c2.4-2.9,5-5.5,7.9-7.4c3.6-2.6,7-3.8,10.6-3.8c0.7,0,1.9,0.2,3.4,0.7c1.2,0.5,2.4,0.7,3.4,0.7
		c1.9,0,3.4-0.7,4.6-2.2c0.7-1.4,1.7-2.6,2.6-4.1c0.5-1,1.2-1.4,1.7-1.4c0.2,0,0.2,0.2,0.2,0.7c0,0.5-0.2,1.7-0.7,3.1
		c-0.5,0.7,1.4,1,5,1c0.5,0,0.7,0,0.7-0.2c0,0-0.2-1-0.7-2.6c-0.2-0.5,0-1.2,0.7-2.2c1-1.7,1.4-2.4,1.7-2.2c1,0.7,1.4,2.2,1.4,3.8
		c0,1.7-0.5,3.4-1.2,5.3c-0.7,2.2-1.4,3.4-1.9,3.8c-1.7,1-4.3,0.7-7.9-1c-2.9,2.9-5.8,4.6-8.6,4.6c-0.7,0-1.9-0.2-3.1-0.7
		c-1.2-0.5-2.2-0.7-2.9-0.7c-4.8,0-9.8,2.2-14.9,7c-3.6,3.6-7.2,7.2-10.8,10.8C559.6,397.6,557.4,398.8,555,399.5L555,399.5
		L555,399.5L555,399.5z"/>
	<path fill="#635E49" d="M503.4,269.6c2.9,0,5.3,1.4,7.4,4.8c2.2,3.1,3.8,7.4,4.6,12.7c0.2,0.5,0.2,0.7,0.2,1h0.2
		c0-0.2,0.2-0.5,0.2-1c0.5-3.1,1.7-7.9,3.4-14.2c1.9-4.3,3.8-6.5,6-6.5c1.2,0,2.4,0.7,3.4,2.2c1,1.4,1.4,2.4,1.4,3.4
		c0,0.5,0,1.4-0.5,2.4c-0.5,1.4-1,2.2-1.4,2.2c-0.2,0-0.7-0.7-1.7-1.7c-0.7-1-1.7-1.4-2.6-1.4c-1.9,0-3.6,4.6-5.3,13.7
		c-0.7,4.1-1.7,7-2.4,8.6c-0.7,1-1.2,1.7-1.7,1.7c-0.5,0-0.5-0.7-0.7-1.7c0.2-1.7-0.7-4.8-2.6-9.4c-1.9-4.8-3.1-7-4.1-7
		c-0.5,0-0.7,0-1,0.5c-0.2,0.2-0.5,0.5-1.2,0.5c-1,0-1.9-0.7-3.4-1.9c-1.4-1.2-1.9-2.2-1.9-2.9c0-0.2,0.5-1.4,1.7-3.4
		C502.4,270.4,503.2,269.6,503.4,269.6L503.4,269.6L503.4,269.6L503.4,269.6z"/>
	<path fill="#635E49" d="M462.8,266.8c24.2-9.1,49.4-18.2,75.4-27.8c0.7-0.2,1.2-0.5,1.2-0.2c0.2,0,0.2,0.5,0,1.2
		c-1,2.2-1.7,3.4-2.2,3.8c-0.2,0.2-12.5,4.8-36.2,13.7c-24.2,8.9-37.9,14.4-40.6,16.1C460.9,271.3,461.6,269.2,462.8,266.8
		L462.8,266.8L462.8,266.8L462.8,266.8z"/>
	<path fill="#635E49" d="M439.3,222.8c0.5-1.4,0.5-2.9,0.2-4.3c-0.2-1.4-1-2.2-2.2-2.2c-0.5,0-1.2,0.2-2.2,0.7c-1,0.5-1.4,1-1.4,1.4
		C433.8,219.7,435.7,221.2,439.3,222.8L439.3,222.8L439.3,222.8L439.3,222.8z M436.4,229.1c-4.6-2.4-6.7-4.8-6.7-7.4
		c0-3.1,1.4-6,4.3-8.4c2.9-2.6,5.3-3.6,7.2-2.9c1.7,0.5,2.4,2.2,2.4,5c0,2.6-0.5,5.5-1.7,8.9c2.4,1.2,3.8,2.4,4.3,3.4
		c0,1.2-1,3.4-3.1,6.2c-0.5-1-1.9-2.2-4.1-3.4c-2.6,3.6-5.8,6.7-9.6,9.6c-4.6,3.1-8.6,5.8-12.2,7.2c-1,0.5-5.3,2.2-13,5
		c-1.2,0.5-2.2,0.7-2.4,0.7c-0.2,0-0.2-0.2-0.2-0.2c0-0.2,0.5-1,1.9-1.7c5.8-3.6,11.5-7,17.5-10.3
		C428,236.5,433.1,232.7,436.4,229.1L436.4,229.1L436.4,229.1L436.4,229.1z"/>
	<path fill="#635E49" d="M588.1,259.1c0.5-1.4,0.5-2.9,0.2-4.3c-0.2-1.4-1-2.2-2.2-2.2c-0.5,0-1.2,0.2-2.2,0.7c-1,0.5-1.4,1-1.4,1.4
		C582.6,256,584.5,257.4,588.1,259.1L588.1,259.1L588.1,259.1L588.1,259.1z M593.4,268c-2.4,5.8-3.6,10.3-3.6,13.7
		c0,4.1,1,6.2,3.1,6.2c1.2,0,2.6-1.7,4.3-4.6c0.2-0.2,0.2-0.5,0.5-0.7c0,0,0.2,0,0.2,0.2c0,0,0,0.2,0,0.7
		c-1.4,7.2-3.6,10.8-6.5,10.8c-3.1,0-4.6-2.6-4.6-7.9c0-2.6,0.5-6,1.9-10.3c1.4-4.3,2.2-6.5,2.2-6.7c0-0.5-1-1.4-3.1-2.6
		c-3.8,5-9.1,9.8-15.8,13.9c-4.6,2.6-9.1,5-13.9,7c-8.9,3.6-14.2,5.5-15.4,6.2c-1.2,0.5-1.9,0.7-2.4,0.7c-0.2,0-0.2-0.2-0.2-0.2
		c0-0.5,0.5-1,1.9-1.9c7.7-4.3,15.1-8.6,22.8-13c10.1-5.8,17-10.6,20.4-14.2c-4.6-2.4-6.7-4.8-6.7-7.4c0-3.1,1.4-6,4.3-8.6
		c2.9-2.4,5.3-3.4,7.2-2.6c1.4,0.5,2.4,2.2,2.4,5c0,2.6-0.5,5.5-1.7,8.6c2.4,1.4,3.4,2.9,3.4,4.3C594.1,265.3,593.9,266.5,593.4,268
		L593.4,268L593.4,268L593.4,268z"/>
	<path fill="#635E49" d="M484.2,232.9c0-0.2,0.2-0.5,0.2-0.5c0.2-0.2,0.2-0.2,0.2,0c0.2,0.2,0.2,0.5,0,0.7
		c-1.2,7.2-3.4,10.8-6.5,10.8c-3.1,0-4.6-2.6-4.6-7.9c0-6.5,1.7-13.4,5.5-20.4c1-1.7,1.4-2.6,1.7-2.6l0,0c0,0.2-0.2,1.2-0.7,2.9
		c-2.4,7.4-3.6,12.5-3.6,15.6c0,3.8,1,6,3.1,6C481.1,237.5,482.5,235.8,484.2,232.9L484.2,232.9L484.2,232.9L484.2,232.9z"/>
</g>
</svg>
