<?xml version="1.0" encoding="utf-8"?>
<!-- Generator: Adobe Illustrator 18.1.1, SVG Export Plug-In . SVG Version: 6.00 Build 0)  -->
<!DOCTYPE svg PUBLIC "-//W3C//DTD SVG 1.1//EN" "http://www.w3.org/Graphics/SVG/1.1/DTD/svg11.dtd">
<svg version="1.1" id="Layer_1" xmlns="http://www.w3.org/2000/svg" xmlns:xlink="http://www.w3.org/1999/xlink" x="0px" y="0px"
	 viewBox="0 0 792 612" enable-background="new 0 0 792 612" xml:space="preserve">
<g>
	<path fill="#635E49" d="M430.8,230.2c0-4.8-0.7-8.6-2.2-11.8c0-1.7,1.2-5.8,4.1-12c0.2-0.7,0.5-1.2,0.7-1.2c0.5,0,0.7,0.5,1.2,1.2
		c0.7,1.7,2.4,6.2,5.3,13.7c3.1,7.9,4.8,12.7,5.3,14.6c0.5,1.2,0.5,2.4,0.5,2.9c0,2.2-1.9,1-6.2-3.8c-0.5-0.7-0.7-0.2-0.7,1
		c0,0.5,1.2,15.4,3.4,45.1c2.2,29.5,3.1,46.1,3.1,49.9c0,11.3-1.7,21.4-5,30c-1,1.7-1.4,2.9-1.9,3.8l0,0c-0.7,1.2-1,1.2-1.2,0.5
		c-0.2-1,0-2.9,0.2-5.5c0.5-4.1,0.7-8.6,0.7-13.7c0-4.8-1.2-24-3.6-57.8C432,253.2,430.8,234.2,430.8,230.2L430.8,230.2L430.8,230.2
		L430.8,230.2z"/>
	<path fill="#635E49" d="M423.3,288.2c0,14.2-2.6,25.2-7.7,33.4c-4.3,6.7-9.4,10.3-15.1,10.3v-14.6c4.6,0,9.1-1.9,13.4-5.5
		c1.2-1,1.9-5,1.9-11.8c0-4.3-1-18-2.6-40.8c-1.7-23-2.4-36.7-2.4-40.8c0-4.6-1-8.4-2.4-11.5c0-1.7,1.4-5.8,4.3-12.2
		c0.2-0.7,0.5-1,0.7-1c0.5,0,0.7,0.2,1.2,1c0.7,1.9,2.6,6.5,5.3,13.9c3.1,7.7,4.8,12.5,5.5,14.4c0.2,1.4,0.5,2.4,0.5,3.1
		c0,2.2-2.2,0.7-6.2-4.1c-0.5-0.5-0.7-0.2-0.7,1c0,0.2,0.7,10.1,2.2,29.3C422.6,271.2,423.3,283.2,423.3,288.2L423.3,288.2
		L423.3,288.2L423.3,288.2z"/>
	<path fill="#635E49" d="M350.4,321.8c-5.3,9.4-12,14.2-20.6,14.2c-3.4,0-6.2-1.2-8.4-3.4c-1.4-1.4-2.6-3.6-3.8-6.2
		c-0.7-2.2-1.4-3.4-1.7-3.4c-1,0-3.8,1-8.9,3.1c-5,1.9-8.9,3.8-11.5,5.3v-13.2l25.7-11c0.7-0.2,1.2-0.2,1.7-0.2c0.7,0,1,0.5,1,1.4
		c0,0.7-0.2,1.7-0.5,3.1c-0.5,1.4-0.7,2.6-0.7,3.6c0,4.6,3.1,6.7,9.4,6.7c6,0,11-2.6,15.4-7.9c2.6-3.8,5.3-7.9,7.9-11.8
		c0.7-1,1.4-1.4,2.2-1.4c0.7,0,1,0.5,1,1.4c0,0.5,0,1-0.2,1.7c-1,4.1-1.4,6-1.4,5.5c0,1.7,0.7,3.6,2.2,5.8c1.9,2.9,4.3,4.3,7.4,4.3
		c7.4,0,14.2-5.8,19.9-17.5c0.7-1.4,1.7-2.2,2.4-2.2c1,0,1.2,0.5,1.2,1.7c0,0.5,0,1.2-0.2,2.2c0,1-0.2,1.7-0.2,2.2
		c0,3.4,1.2,6.2,3.1,8.2c2.2,2.2,4.8,3.1,8.2,3.1v14.6c-7.4,0-12.7-4.6-15.8-13.9c-0.5-1.2-1-1.2-1.4,0
		c-4.1,10.8-10.1,16.3-17.8,16.3C358,334.1,353,330,350.4,321.8L350.4,321.8L350.4,321.8L350.4,321.8z"/>
	<path fill="#635E49" d="M297.3,355.4c0,1.2-3.1,3.8-8.9,8.2c-7.9,5.8-18.2,12-31,19c-9.6,5-21.4,10.6-35.5,16.6
		c-20.4,8.6-31.4,13.4-33.4,14.4c-4.6,1.9-7,3.4-7.7,3.8l0,0c-0.5,0.2-0.5,0.5,0,0.5c0.5,0,1.2,0,2.4-0.2c1.2,0,2.9-0.2,5-0.7
		c3.8-0.5,12.7-2.6,27.4-6c13.7-3.4,20.6-5,21.1-5c2.6,0,11-4.1,25.4-12.5c16.6-9.4,28.3-18,35.3-25.9c1.9-2.2,3.4-5.3,4.6-9.4
		c1-3.6,1.4-6.5,1.4-8.9c0-1.9-1.4-5.3-4.1-10.3c-2.6-4.8-3.8-7.4-3.8-7.7V318c-3.1,1.4-5.5,4.1-7,8.2c-1.4,3.1-1.9,6-1.9,8.9
		c0,0.7,0.2,1.7,1.2,3.1c1.7,2.9,3.4,6,5.3,8.9C295.9,351.6,297.3,354.5,297.3,355.4L297.3,355.4L297.3,355.4L297.3,355.4z"/>
	<path fill="#635E49" d="M211.4,259.2c1.2-0.5,1.9-0.7,1.9-1c0-0.2-1-0.5-3.1-0.7c-13.2-1.9-28.3-2.9-45.4-2.9
		c-8.6,0-13.9,0.5-16.3,1.2c-1,0.2-1.4,0.5-1.4,0.7c0,0.2,0.7,1,2.2,2.2c3.8,3.1,7.9,6.2,12,9.4c7,5.8,11.5,9.6,13,11.5
		C187.2,270.7,199.4,264,211.4,259.2L211.4,259.2L211.4,259.2L211.4,259.2z M243.6,338.6c0-4.1-1.2-7.7-4.1-11.3
		c-3.1-3.8-7.4-6.7-12.7-8.2c-4.6-1.2-12.2-2.2-23-2.4c-11.3-0.2-19-1-23-1.9c-7.7-1.7-15.1-4.6-22.6-8.6c-2.6,3.6-5,7.9-7.2,13.4
		c-2.9,7.7-4.6,15.1-4.6,22.3c0,23.8,13.4,35.8,40.1,35.8c9.1,0,18.2-2.4,27.4-7.2c8.4-4.1,15.6-9.4,21.4-15.6
		C240.7,348.7,243.6,343.2,243.6,338.6L243.6,338.6L243.6,338.6L243.6,338.6z M232.8,261.1c-22.6,9.6-41,18.7-55.4,27.1
		c0,5.5-0.5,8.2-1.7,8.2c-0.7,0-2.2-1.4-3.8-4.8c-3.4,2.9-6.5,6-9.6,9.4c8.6,1.2,23,2.2,43.2,2.9c14.4,0.5,23.8,1.7,27.8,3.4
		c4.1,1.9,7.4,4.6,9.8,8.6c2.9,4.6,4.3,9.6,4.3,15.6c0,15.6-6.5,29.8-19.9,42.5c-13,12.2-27.4,18.5-43.2,18.5
		c-28.6,0-42.7-15.6-42.7-47.3c0-14.4,3.6-28.3,11-41.8c-2.4-1.4-3.6-2.4-3.6-3.1c0-0.5,0.7-0.7,1.9-0.7c1,0,2.2,0.2,3.8,0.5
		c2.2-3.6,5.8-8.2,11.3-13.9c-3.4-3.1-8.2-7.2-14.6-12.2c-4.8-3.4-7.9-6.5-9.6-9.4c-1-1.7-1.4-3.8-1.4-6.2c0-4.3,1.7-8.2,5-11.3
		c4.1-3.8,9.8-5.8,17.5-5.8c8.6,0,22.6,0.7,41.8,2.4c17.3,1.2,27.8,2.4,31.9,2.9c1.7,0.2,2.2,1.2,1.9,2.4l-3.1,9.4
		C234.9,259.7,234,260.6,232.8,261.1L232.8,261.1L232.8,261.1L232.8,261.1z"/>
	<path fill="#635E49" d="M351.1,279.4l3.8-7.7c0.2-0.7,0.5-1,1-1c0.5,0,2.4,1.2,6.2,3.8c3.6,2.6,5.5,4.1,5.5,4.6
		c0,1.7-1.7,5-4.8,10.3c-0.5,0.7-1,0.7-1.4,0.5c-3.1-2.4-6.7-4.8-10.8-7.4c-1.4,2.9-2.6,5.5-4.1,7.7c-0.2,0.7-0.7,1-1.2,0.7
		c-3.6-2.9-7.4-5.5-11.3-7.9c-0.2-0.2-0.2-0.5,0-1l4.6-9.6c0.2-0.5,0.7-1,1-1c0.5,0,2.2,1.2,5.3,3.4
		C348,276.7,350.1,278.4,351.1,279.4L351.1,279.4L351.1,279.4L351.1,279.4z M337.9,264.5c-0.2-0.2-0.2-0.5,0-1l4.8-9.6
		c0.2-0.5,0.5-0.7,1-0.7c0.5,0,2.4,1.2,6.2,3.6c3.6,2.6,5.5,4.1,5.5,4.6c0,1.7-1.7,5-4.8,10.3c-0.5,0.7-1,1-1.4,0.5
		C345.6,269.5,341.7,266.9,337.9,264.5L337.9,264.5L337.9,264.5L337.9,264.5z"/>
	<path fill="#635E49" d="M350.1,232.6c0,1.9-0.5,4.1-1.4,6c-1.2,2.6-2.6,4.1-4.3,4.1c-2.9,0-4.8-1.9-6-5.8c-1.4,4.8-3.8,7.4-7.4,7.4
		c-1.2,0-2.4-0.7-3.4-2.2c-1.2-1.4-1.7-3.6-1.7-6v-6.2c0-0.5-0.5-0.7-1-1c-0.7-0.2-1-0.7-1-1.4c0-1.4,0.5-2.6,1.4-3.8
		c1-1.2,1.7-1.7,2.2-1.7c0.7,0,1.2,1.2,1.2,3.8c0,1.4-0.2,2.6-0.2,3.6c-0.2,1-0.2,1.7-0.2,2.4c0,1.4,0.2,2.9,0.7,4.1
		c0.7,1.4,1.7,2.4,2.6,2.4c1.4,0,2.6-0.7,3.8-1.9c1.2-1.2,1.9-2.6,1.9-4.3c0-1-0.5-2.4-1-4.8c-0.7-2.2-1-3.6-1-4.1
		c0-0.5,0.2-1.2,0.7-2.4c0.5-1,1-1.4,1.2-1.4c0.5,0,1,1.4,1.7,4.3c0.7,3.1,1.2,5.3,1.2,6.7c0,4.1,1.4,6.2,4.6,6.2
		c1.4,0,2.4-0.7,2.6-2.2c-2.6-4.8-4.1-8.4-4.1-11c0-1.4,0.2-2.6,1.2-3.8c0.5-0.7,0.7-1.2,1-1.2c0.2,0,0.5,0.5,0.5,1.4
		c0.2,1.2,0.5,2.4,0.7,3.4c0,0,0.7,1.7,1.9,5C349.6,230.2,350.1,231.6,350.1,232.6L350.1,232.6L350.1,232.6L350.1,232.6z"/>
	<path fill="#635E49" d="M271.2,229c24.2-9.1,49.4-18.2,75.4-27.8c0.7-0.2,1.2-0.5,1.2-0.2c0.2,0,0.2,0.5,0,1.2
		c-1,2.2-1.7,3.4-2.2,3.8c-0.2,0.2-12.5,4.8-36.2,13.7c-24.2,8.9-37.9,14.4-40.6,16.1C269.2,233.5,270,231.4,271.2,229L271.2,229
		L271.2,229L271.2,229z"/>
	<path fill="#635E49" d="M388.3,240.2c0-0.2,0.2-0.5,0.2-0.5c0.2-0.2,0.2-0.2,0.2,0c0.2,0.2,0.2,0.5,0,0.7
		c-1.2,7.2-3.4,10.8-6.5,10.8c-3.1,0-4.6-2.6-4.6-7.9c0-6.5,1.7-13.4,5.5-20.4c1-1.7,1.4-2.6,1.7-2.6l0,0c0,0.2-0.2,1.2-0.7,2.9
		c-2.4,7.4-3.6,12.5-3.6,15.6c0,3.8,1,6,3.1,6C385.2,244.8,386.6,243.1,388.3,240.2L388.3,240.2L388.3,240.2L388.3,240.2z"/>
	<path fill="#635E49" d="M302.4,275.8c0-1.2-2.4-3.4-7.4-6.2c-1.7,2.9-2.4,5.5-2.4,7.9c0,1.4,0.7,2.4,2.2,2.4c1.2,0,2.6-0.5,4.3-1.4
		C300.7,277.7,301.9,276.7,302.4,275.8L302.4,275.8L302.4,275.8L302.4,275.8z M297.1,256.6c0.7-1.2,1.7-1.7,2.4-1.7
		c0.5,0,1,0.2,1,0.7c0,0-0.2,0.2-0.2,0.5c-1,2.2-1.9,4.6-2.6,7c5,3.6,7.4,7.4,7.2,11c-0.5,4.1-1,6.7-1.7,7.7c-2.4,2.9-5,4.6-8.4,4.6
		c-3.4,0-4.8-2.2-4.8-6c0-0.7,0-1.7,0.2-2.6C291.3,270,293.7,263,297.1,256.6L297.1,256.6L297.1,256.6L297.1,256.6z"/>
	<path fill="#635E49" d="M169.4,346.1c13.7-4.8,28.1-10.1,43.2-15.6c1-0.2,1.2-0.5,1.4-0.2c0.2,0,0.2,0.5-0.2,1.2
		c-0.7,2.2-1.4,3.4-1.9,3.8c-13,4.6-27.8,10.3-44.9,17.5C167.5,350.6,168.2,348.5,169.4,346.1L169.4,346.1L169.4,346.1L169.4,346.1z
		"/>
	<path fill="#635E49" d="M127.9,312.2c0-0.2,0.2-0.5,0.2-0.5c0.2-0.2,0.2-0.2,0.2,0c0.2,0.2,0.2,0.5,0,0.7
		c-1.2,7.2-3.4,10.8-6.5,10.8c-3.1,0-4.6-2.6-4.6-7.9c0-6.5,1.7-13.4,5.5-20.4c1-1.7,1.4-2.6,1.7-2.6l0,0c0,0.2-0.2,1.2-0.7,2.9
		c-2.4,7.4-3.6,12.5-3.6,15.6c0,3.8,1,6,3.1,6C124.8,316.8,126.2,315.1,127.9,312.2L127.9,312.2L127.9,312.2L127.9,312.2z"/>
	<path fill="#635E49" d="M242.8,278.9c2.9,0,5.3,1.4,7.4,4.8c2.2,3.1,3.8,7.4,4.6,12.7c0.2,0.5,0.2,0.7,0.2,1h0.2
		c0-0.2,0.2-0.5,0.2-1c0.5-3.1,1.7-7.9,3.4-14.2c1.9-4.3,3.8-6.5,6-6.5c1.2,0,2.4,0.7,3.4,2.2c1,1.4,1.4,2.4,1.4,3.4
		c0,0.5,0,1.4-0.5,2.4c-0.5,1.4-1,2.2-1.4,2.2c-0.2,0-0.7-0.7-1.7-1.7c-0.7-1-1.7-1.4-2.6-1.4c-1.9,0-3.6,4.6-5.3,13.7
		c-0.7,4.1-1.7,7-2.4,8.6c-0.7,1-1.2,1.7-1.7,1.7c-0.5,0-0.5-0.7-0.7-1.7c0.2-1.7-0.7-4.8-2.6-9.4c-1.9-4.8-3.1-7-4.1-7
		c-0.5,0-0.7,0-1,0.5c-0.2,0.2-0.5,0.5-1.2,0.5c-1,0-1.9-0.7-3.4-1.9c-1.4-1.2-1.9-2.2-1.9-2.9c0-0.2,0.5-1.4,1.7-3.4
		C241.9,279.6,242.6,278.9,242.8,278.9L242.8,278.9L242.8,278.9L242.8,278.9z"/>
	<path fill="#635E49" d="M360.2,376.1c0,0.5-0.2,1.4-0.5,2.4c-0.5,1.4-1,2.2-1.7,2.2c-0.2,0-0.7-0.7-1.7-1.7c-0.7-1-1.7-1.4-2.4-1.4
		c-1.9,0-3.8,4.6-5.5,13.7c-0.7,4.1-1.4,6.7-2.4,8.4c-0.7,1.2-1.2,1.7-1.7,1.7c-0.2,0-0.5-0.5-0.5-1.4c0-1.7-1-4.8-2.9-9.4
		c-1.7-4.8-3.1-7-3.8-7c-0.5,0-1,0-1,0.5c-0.2,0.2-0.7,0.5-1.4,0.5c-1,0-2.2-0.7-3.6-1.9c-1.4-1.4-1.9-2.4-1.7-2.9
		c2.2-4.1,3.4-6,3.8-6c2.6,0,5.3,1.4,7.4,4.8c2.2,3.1,3.6,7.4,4.6,12.5c0,0.7,0,1,0,1c0.2,0.2,0.2,0.2,0.2,0c0,0,0.2-0.2,0.5-1
		c0.5-2.9,1.4-7.7,3.1-13.9c1.9-4.3,3.8-6.5,6.2-6.5c1,0,2.2,0.7,3.4,2.2C359.7,374.2,360.2,375.1,360.2,376.1L360.2,376.1
		L360.2,376.1L360.2,376.1z M329.5,379.7c0.5-1,1-1.4,1.2-1.4c0,0,0.2,0.2,0,0.2c0.2,0.7-0.5,2.4-1.9,5c-2.4,4.6-5.8,8.2-10.1,11.3
		c-4.6,3.4-8.6,5.8-12.2,7.4c-0.7,0.5-5,2.2-13,5c-1.2,0.5-1.9,0.7-2.4,0.7c-0.2,0-0.2-0.2-0.2-0.2c0-0.2,0.7-1,1.9-1.7
		c6.7-3.6,15.8-9.4,27.6-17.3C325.2,385.2,328,382.1,329.5,379.7L329.5,379.7L329.5,379.7L329.5,379.7z"/>
	<path fill="#635E49" d="M385.4,364.6c0-0.2,0.2-0.5,0.2-0.5c0.2-0.2,0.2-0.2,0.2,0c0.2,0.2,0.2,0.5,0,0.7
		c-1.2,7.2-3.4,10.8-6.5,10.8c-3.1,0-4.6-2.6-4.6-7.9c0-6.5,1.7-13.4,5.5-20.4c1-1.7,1.4-2.6,1.7-2.6l0,0c0,0.2-0.2,1.2-0.7,2.9
		c-2.4,7.4-3.6,12.5-3.6,15.6c0,3.8,1,6,3.1,6C382.3,369.1,383.7,367.4,385.4,364.6L385.4,364.6L385.4,364.6L385.4,364.6z"/>
	<path fill="#635E49" d="M419.2,377.8c0,2.6-1.2,5.5-3.1,8.6c-2.2,3.1-4.8,6-8.2,8.4c-1.4,1-2.2,1.4-2.4,1.4V396
		c0-0.2,0.5-0.7,1.4-1.9c5.5-6,8.4-9.8,8.4-12c0-1.7-1-2.6-2.6-2.6c-1,0-1.9,0.2-2.6,0.7c-0.7,0.2-1,0.5-1.2,0.5c0,0-0.2,0-0.2-0.2
		c0,0,0-0.5,0.2-1.4c1-4.1,2.9-6,6.2-6C417.8,373,419.2,374.6,419.2,377.8L419.2,377.8L419.2,377.8L419.2,377.8z"/>
	<path fill="#635E49" d="M270,344.6c0,2.6-1.2,5.5-3.1,8.6c-2.2,3.1-4.8,6-8.2,8.4c-1.4,1-2.2,1.4-2.4,1.4v-0.2
		c0-0.2,0.5-0.7,1.4-1.9c5.5-6,8.4-9.8,8.4-12c0-1.7-1-2.6-2.6-2.6c-1,0-1.9,0.2-2.6,0.7c-0.7,0.2-1,0.5-1.2,0.5c0,0-0.2,0-0.2-0.2
		c0,0,0-0.5,0.2-1.4c1-4.1,2.9-6,6.2-6C268.5,339.8,270,341.5,270,344.6L270,344.6L270,344.6L270,344.6z"/>
	<path fill="#635E49" d="M249.6,223.9c0-0.2,0.2-0.5,0.2-0.5c0.2-0.2,0.2-0.2,0.2,0c0.2,0.2,0.2,0.5,0,0.7
		c-1.2,7.2-3.4,10.8-6.5,10.8s-4.6-2.6-4.6-7.9c0-6.5,1.7-13.4,5.5-20.4c1-1.7,1.4-2.6,1.7-2.6l0,0c0,0.2-0.2,1.2-0.7,2.9
		c-2.4,7.4-3.6,12.5-3.6,15.6c0,3.8,1,6,3.1,6C246.4,228.5,247.9,226.8,249.6,223.9L249.6,223.9L249.6,223.9L249.6,223.9z"/>
	<path fill="#635E49" d="M616,315.6c1.2-1,2.2-1.4,2.9-1.4c0.5,0,0.7,0.5,0.7,1.4c0,0.7-0.2,2.2-0.7,4.1c-0.5,1.9-0.7,3.4-0.7,4.6
		c0,5.3,3.8,8.2,11.3,8.2c6,0,11-2.6,14.9-7.7c2.4-4.1,5-7.9,7.4-11.8c1-1,1.7-1.4,2.4-1.4c1,0,1.2,1,0.7,3.1c-1,4.1-1.7,6-1.7,5.5
		c0,1.7,1,3.4,2.9,4.8c1.7,1.4,4.1,2.4,6.7,2.4c3.4,0,5.5-1,6.5-2.6c0-0.2-1-2.2-3.1-5.8c0.2-1.9,1.2-5.3,2.6-9.8
		c0.2-1.4,0.7-2.2,1.2-2.2c0.5,0,1,0.2,1.7,1.2c1.9,2.9,3.1,6.2,3.1,10.1c0,6-1.4,11-4.1,15.4c-2.9,5.3-7.2,7.9-13,7.9
		c-3.8,0-7.4-3.1-10.6-8.9C642,342.2,635,347,626.6,347c-10.1,0-14.9-5.8-14.9-16.8c-3.8,4.6-10.3,8.6-18.7,12.5v-13.2
		c6.2-3.1,10.3-5,11.5-5.8C608.4,321.8,612.2,319,616,315.6L616,315.6L616,315.6L616,315.6z"/>
	<path fill="#635E49" d="M579.3,331.4c-3.6-4.6-6.7-6.7-9.6-6.7c-4.3,0-6.2,1-6.2,3.4c0,2.9,2.9,4.3,8.6,4.3
		C574.3,332.4,576.7,331.9,579.3,331.4L579.3,331.4L579.3,331.4L579.3,331.4z M586.8,349c0-1.4-0.5-3.1-1-4.8
		c-2.9,1-7.2,1.7-12.5,1.7c-11.5,0-17.3-4.1-17.3-12c0-6,1.7-11.3,5.5-16.1c3.6-4.1,7.4-6.2,11.5-6.2c3.1,0,6.2,1.9,9.8,5.5
		c3.1,3.6,6,7.7,8.4,12.7c0.2,0,0.7,0,1.7-0.5v13.2l-0.5,0.5c0,2.9-0.7,6.2-2.2,10.6c-1.7,5.5-4.3,10.1-7.4,13.7
		c-7.2,8.6-15.1,16.1-23.8,22.6c-13,9.6-24,14.6-33.6,14.6c-8.2,0-14.4-3.1-18.7-9.1c-3.8-5-5.8-11.8-5.8-19.7
		c0-10.1,2.2-20.4,6.2-31.2c1.2-2.4,1.7-3.4,2.2-3.4c0.2,0,0.2,0.2,0.2,0.7c0,0.7-0.2,1.9-0.5,3.4c-3.1,10.6-4.6,18.5-4.6,24
		c0,5,1.2,9.4,3.6,13c3.8,5,9.8,7.7,18.2,7.7c7.2,0,15.8-3.1,26.2-9.4c8.2-5,16.1-11,23.8-18.2C583.2,355.4,586.8,351.1,586.8,349
		L586.8,349L586.8,349L586.8,349z"/>
	<path fill="#635E49" d="M521.2,312.7c-0.5-2.2-1.2-3.8-2.2-5c-0.7-1.4-1.2-2.2-1.4-2.6c0-0.5,0-2.2,0.5-5.5
		c0.5-3.1,0.7-5.3,1.2-6.5c0.2-1.2,0.5-1.7,1-1.7c0.2,0,0.5,0.2,1,0.7c3.4,3.8,7,7.7,11,11.8c1.7,1.7,2.4,2.6,2.4,3.1
		c0,0.2-0.2,0.5-0.7,0.5c-0.7,0-2.6-0.5-5.5-1.2c1.7,4.1,3.6,8.2,5.3,12c2.6,6.7,4.1,12.2,4.1,17.3c0,2.4-0.5,5.3-1.4,8.9
		c-1.2,4.1-2.6,7.2-4.6,9.4c-7,7.9-18.7,16.6-35.3,25.9c-14.4,8.4-22.8,12.5-25.4,12.5c-0.5,0-7.7,1.7-21.4,5
		c-14.4,3.4-23.5,5.5-27.1,6c-3.8,0.7-6.2,1-7.2,1c-0.5,0-0.5,0-0.5-0.2c0-0.2,2.6-1.7,7.9-4.1c1.9-1,13-5.8,33.4-14.4
		c14.2-6,25.9-11.5,35.3-16.6c14.2-7.7,25-14.4,32.4-19.9c5.5-4.3,8.4-7.4,8.4-9.4c0-0.5-1.4-3.8-4.3-10.1
		C524.8,322.6,522.4,316.8,521.2,312.7L521.2,312.7L521.2,312.7L521.2,312.7z"/>
	<path fill="#635E49" d="M501.6,279.4c0,3.8-1.9,9.1-5.8,15.6c-2.4,4.1-6,9.6-10.8,16.8c4.8,5.5,8.2,10.6,9.8,14.9
		c1,3.1,1.7,7.2,1.7,11.8c0,1.9-0.5,4.3-1.4,7.4c-0.7,2.9-1.7,5-2.6,6.5c-1.9,2.9-5,5.8-9.8,8.6c-5,3.4-9.4,5-13,5
		c-5.8,0-8.6-4.3-8.6-13c0-5.8,1-11.5,2.9-16.8c1.9-4.6,5-10.6,10.1-18.5c-4.3-4.1-8.9-9.8-13.9-17c-0.5-0.7-1.7-1.9-3.6-3.8
		c-1-1-1.4-2.2-1.4-3.6c0-2.2,0.2-4.6,0.7-7.4c0.7-2.9,1.2-4.1,1.4-4.1c0.7,0,2.9,1.2,7,3.8c3.8,2.6,7,4.6,8.9,6.2
		c1.2,0.7,1.7,1.4,1.7,1.4v0.2c0,0.2-0.7,0.5-2.4,0.5c-3.1,0-4.8,0.2-4.8,0.5s0.5,0.7,1.4,1.9c3.8,4.8,7.7,8.4,11.8,11.3
		c1-1.4,4.3-6.2,9.6-14.4c4.6-7,7.2-11.8,8.4-14.6c1.2-2.9,1.9-4.1,2.4-4.1C501.3,274.6,501.6,276,501.6,279.4L501.6,279.4
		L501.6,279.4L501.6,279.4z M492.2,338.4c-2.6-5.3-7.2-10.8-13.4-16.1c-2.2,2.2-4.8,6.2-8.2,12c-3.8,6.5-5.5,10.6-5.5,12.7
		c0,2.9,1.9,4.3,6.2,4.3c1.9,0,4.3-0.7,7.4-1.9c4.3-1.9,8.4-4.6,11.8-7.9C492,340.1,492.4,339.1,492.2,338.4L492.2,338.4
		L492.2,338.4L492.2,338.4z"/>
	<path fill="#635E49" d="M478.8,261.4l3.8-7.9c0.2-0.5,0.5-0.7,1-0.7c0.5,0,2.4,1.2,6.2,3.8c3.6,2.4,5.5,3.8,5.5,4.3
		c0,1.7-1.7,5.3-4.8,10.6c-0.5,0.7-1,0.7-1.4,0.5c-3.1-2.4-6.7-4.8-10.8-7.4c-1.4,2.9-2.6,5.5-4.1,7.7c-0.2,0.7-0.7,1-1.2,0.7
		c-3.6-2.9-7.4-5.5-11.3-7.9c-0.2-0.2-0.2-0.5,0-1l4.6-9.6c0.2-0.5,0.7-1,1-1c0.5,0,2.2,1.2,5.3,3.4
		C475.6,258.7,477.8,260.4,478.8,261.4L478.8,261.4L478.8,261.4L478.8,261.4z"/>
	<path fill="#635E49" d="M605.2,395.3c-2.6,0.7-4.1,1.2-4.6,1.2v-0.2c0,0,1-0.7,2.9-1.9c1.9-1.2,4.8-3.1,8.9-6.2
		c1.9-1.9,4.8-5,8.4-9.4c2.4-2.9,5-5.5,7.9-7.4c3.6-2.6,7-3.8,10.6-3.8c0.7,0,1.9,0.2,3.4,0.7c1.2,0.5,2.4,0.7,3.4,0.7
		c1.9,0,3.4-0.7,4.6-2.2c0.7-1.4,1.7-2.6,2.6-4.1c0.5-1,1.2-1.4,1.7-1.4c0.2,0,0.2,0.2,0.2,0.7c0,0.5-0.2,1.7-0.7,3.1
		c-0.5,0.7,1.4,1,5,1c0.5,0,0.7,0,0.7-0.2c0,0-0.2-1-0.7-2.6c-0.2-0.5,0-1.2,0.7-2.2c1-1.7,1.4-2.4,1.7-2.2c1,0.7,1.4,2.2,1.4,3.8
		c0,1.7-0.5,3.4-1.2,5.3c-0.7,2.2-1.4,3.4-1.9,3.8c-1.7,1-4.3,0.7-7.9-1c-2.9,2.9-5.8,4.6-8.6,4.6c-0.7,0-1.9-0.2-3.1-0.7
		c-1.2-0.5-2.2-0.7-2.9-0.7c-4.8,0-9.8,2.2-14.9,7c-3.6,3.6-7.2,7.2-10.8,10.8C609.8,393.4,607.6,394.6,605.2,395.3L605.2,395.3
		L605.2,395.3L605.2,395.3z"/>
	<path fill="#635E49" d="M553.9,265.7c2.9,0,5.3,1.4,7.4,4.8c2.2,3.1,3.8,7.4,4.6,12.7c0.2,0.5,0.2,0.7,0.2,1h0.2
		c0-0.2,0.2-0.5,0.2-1c0.5-3.1,1.7-7.9,3.4-14.2c1.9-4.3,3.8-6.5,6-6.5c1.2,0,2.4,0.7,3.4,2.2c1,1.4,1.4,2.4,1.4,3.4
		c0,0.5,0,1.4-0.5,2.4c-0.5,1.4-1,2.2-1.4,2.2c-0.2,0-0.7-0.7-1.7-1.7c-0.7-1-1.7-1.4-2.6-1.4c-1.9,0-3.6,4.6-5.3,13.7
		c-0.7,4.1-1.7,7-2.4,8.6c-0.7,1-1.2,1.7-1.7,1.7c-0.5,0-0.5-0.7-0.7-1.7c0.2-1.7-0.7-4.8-2.6-9.4c-1.9-4.8-3.1-7-4.1-7
		c-0.5,0-0.7,0-1,0.5c-0.2,0.2-0.5,0.5-1.2,0.5c-1,0-1.9-0.7-3.4-1.9c-1.4-1.2-1.9-2.2-1.9-2.9c0-0.2,0.5-1.4,1.7-3.4
		C552.9,266.4,553.6,265.7,553.9,265.7L553.9,265.7L553.9,265.7L553.9,265.7z"/>
	<path fill="#635E49" d="M513.1,262.6c24.2-9.1,49.4-18.2,75.4-27.8c0.7-0.2,1.2-0.5,1.2-0.2c0.2,0,0.2,0.5,0,1.2
		c-1,2.2-1.7,3.4-2.2,3.8c-0.2,0.2-12.5,4.8-36.2,13.7c-24.2,8.9-37.9,14.4-40.6,16.1C511.2,267.1,511.9,265,513.1,262.6
		L513.1,262.6L513.1,262.6L513.1,262.6z"/>
	<path fill="#635E49" d="M489.6,218.6c0.5-1.4,0.5-2.9,0.2-4.3c-0.2-1.4-1-2.2-2.2-2.2c-0.5,0-1.2,0.2-2.2,0.7c-1,0.5-1.4,1-1.4,1.4
		C484,215.5,486,217,489.6,218.6L489.6,218.6L489.6,218.6L489.6,218.6z M486.7,224.9c-4.6-2.4-6.7-4.8-6.7-7.4c0-3.1,1.4-6,4.3-8.4
		c2.9-2.6,5.3-3.6,7.2-2.9c1.7,0.5,2.4,2.2,2.4,5c0,2.6-0.5,5.5-1.7,8.9c2.4,1.2,3.8,2.4,4.3,3.4c0,1.2-1,3.4-3.1,6.2
		c-0.5-1-1.9-2.2-4.1-3.4c-2.6,3.6-5.8,6.7-9.6,9.6c-4.6,3.1-8.6,5.8-12.2,7.2c-1,0.5-5.3,2.2-13,5c-1.2,0.5-2.2,0.7-2.4,0.7
		c-0.2,0-0.2-0.2-0.2-0.2c0-0.2,0.5-1,1.9-1.7c5.8-3.6,11.5-7,17.5-10.3C478.3,232.3,483.3,228.5,486.7,224.9L486.7,224.9
		L486.7,224.9L486.7,224.9z"/>
	<path fill="#635E49" d="M638.4,254.9c0.5-1.4,0.5-2.9,0.2-4.3c-0.2-1.4-1-2.2-2.2-2.2c-0.5,0-1.2,0.2-2.2,0.7c-1,0.5-1.4,1-1.4,1.4
		C632.8,251.8,634.8,253.2,638.4,254.9L638.4,254.9L638.4,254.9L638.4,254.9z M643.6,263.8c-2.4,5.8-3.6,10.3-3.6,13.7
		c0,4.1,1,6.2,3.1,6.2c1.2,0,2.6-1.7,4.3-4.6c0.2-0.2,0.2-0.5,0.5-0.7c0,0,0.2,0,0.2,0.2c0,0,0,0.2,0,0.7
		c-1.4,7.2-3.6,10.8-6.5,10.8c-3.1,0-4.6-2.6-4.6-7.9c0-2.6,0.5-6,1.9-10.3c1.4-4.3,2.2-6.5,2.2-6.7c0-0.5-1-1.4-3.1-2.6
		c-3.8,5-9.1,9.8-15.8,13.9c-4.6,2.6-9.1,5-13.9,7c-8.9,3.6-14.2,5.5-15.4,6.2c-1.2,0.5-1.9,0.7-2.4,0.7c-0.2,0-0.2-0.2-0.2-0.2
		c0-0.5,0.5-1,1.9-1.9c7.7-4.3,15.1-8.6,22.8-13c10.1-5.8,17-10.6,20.4-14.2c-4.6-2.4-6.7-4.8-6.7-7.4c0-3.1,1.4-6,4.3-8.6
		c2.9-2.4,5.3-3.4,7.2-2.6c1.4,0.5,2.4,2.2,2.4,5c0,2.6-0.5,5.5-1.7,8.6c2.4,1.4,3.4,2.9,3.4,4.3
		C644.4,261.1,644.1,262.3,643.6,263.8L643.6,263.8L643.6,263.8L643.6,263.8z"/>
	<path fill="#635E49" d="M534.4,228.7c0-0.2,0.2-0.5,0.2-0.5c0.2-0.2,0.2-0.2,0.2,0c0.2,0.2,0.2,0.5,0,0.7
		c-1.2,7.2-3.4,10.8-6.5,10.8c-3.1,0-4.6-2.6-4.6-7.9c0-6.5,1.7-13.4,5.5-20.4c1-1.7,1.4-2.6,1.7-2.6l0,0c0,0.2-0.2,1.2-0.7,2.9
		c-2.4,7.4-3.6,12.5-3.6,15.6c0,3.8,1,6,3.1,6C531.3,233.3,532.8,231.6,534.4,228.7L534.4,228.7L534.4,228.7L534.4,228.7z"/>
</g>
</svg>
