<?xml version="1.0" standalone="no"?>
<!DOCTYPE svg PUBLIC "-//W3C//DTD SVG 20010904//EN"
 "http://www.w3.org/TR/2001/REC-SVG-20010904/DTD/svg10.dtd">
<svg version="1.0" xmlns="http://www.w3.org/2000/svg"
 width="132.000000pt" height="132.000000pt" viewBox="0 0 132.000000 132.000000"
 preserveAspectRatio="xMidYMid meet">
<metadata>
Created by potrace 1.11, written by Peter Selinger 2001-2013
</metadata>
<g transform="translate(0.000000,132.000000) scale(0.100000,-0.100000)"
fill="#000000" stroke="none">
<path d="M178 945 c-32 -25 -58 -51 -58 -58 0 -24 43 -52 281 -185 152 -85
246 -132 265 -132 19 0 120 51 284 143 298 167 296 165 204 235 -82 61 -97 59
-278 -43 -83 -46 -165 -98 -181 -115 l-29 -30 -35 34 c-20 19 -101 70 -180
115 -175 99 -191 101 -273 36z m260 -67 c81 -46 166 -100 190 -122 l43 -39 47
45 c48 46 309 198 340 198 18 0 47 -17 95 -56 l27 -23 -42 -24 c-402 -229
-462 -260 -490 -249 -15 6 -134 70 -263 142 l-235 132 52 39 c28 22 60 39 70
39 11 0 85 -37 166 -82z"/>
<path d="M94 805 c-3 -8 5 -34 20 -58 23 -40 45 -55 236 -162 116 -65 208
-120 205 -123 -3 -3 -38 -24 -77 -46 -42 -24 -74 -49 -76 -60 -5 -26 18 -66
39 -66 9 0 62 25 116 56 54 31 103 57 108 57 6 0 55 -25 110 -56 55 -32 108
-57 117 -57 20 0 51 52 43 72 -3 7 -42 33 -86 57 -71 38 -78 44 -62 55 10 7
104 61 209 120 160 89 196 113 218 147 30 44 31 72 3 77 -10 2 -136 -63 -280
-144 -144 -81 -266 -147 -272 -147 -5 0 -127 66 -271 147 -143 80 -268 146
-277 146 -10 0 -20 -7 -23 -15z m455 -256 c57 -33 110 -59 117 -59 8 0 116 58
241 128 126 71 243 137 262 147 l34 17 -21 -28 c-12 -18 -104 -76 -242 -154
-123 -69 -223 -130 -224 -135 0 -6 37 -31 84 -57 79 -44 83 -48 51 -48 -22 0
-59 15 -103 40 -39 22 -74 40 -80 40 -6 0 -44 -18 -84 -41 -48 -26 -84 -39
-101 -37 -25 3 -18 9 54 48 46 25 82 50 80 55 -2 6 -104 66 -226 135 -200 113
-251 147 -251 171 0 7 77 -35 409 -222z"/>
</g>
</svg>
